/* XPM */
static char * rigth_2_xpm[] = {
"64 64 606 2",
"  	c #5B5D5C",
". 	c #5F6160",
"+ 	c #616362",
"@ 	c #626463",
"# 	c #636564",
"$ 	c #626362",
"% 	c #626262",
"& 	c #616161",
"* 	c #5E5E5E",
"= 	c #525252",
"- 	c #4D4D4D",
"; 	c #595A59",
"> 	c #666867",
", 	c #696B6A",
"' 	c #676968",
") 	c #656666",
"! 	c #636464",
"~ 	c #606060",
"{ 	c #5E5F5F",
"] 	c #606161",
"^ 	c #585858",
"/ 	c #4A4A4A",
"( 	c #4C4C4C",
"_ 	c #4F4F4F",
": 	c #555555",
"< 	c #5C5E5D",
"[ 	c #5D5F5E",
"} 	c #5E605F",
"| 	c #5F5F5F",
"1 	c #5B5C5B",
"2 	c #5A5C5B",
"3 	c #565857",
"4 	c #494A4A",
"5 	c #494949",
"6 	c #505050",
"7 	c #555656",
"8 	c #595B5A",
"9 	c #585A59",
"0 	c #5B5D5E",
"a 	c #5A5B5D",
"b 	c #565759",
"c 	c #4B4B4B",
"d 	c #686969",
"e 	c #676868",
"f 	c #646565",
"g 	c #656565",
"h 	c #666666",
"i 	c #5E5E5F",
"j 	c #545455",
"k 	c #696A69",
"l 	c #696A6A",
"m 	c #6A6B6A",
"n 	c #676767",
"o 	c #656665",
"p 	c #646564",
"q 	c #616261",
"r 	c #636363",
"s 	c #6C6C6C",
"t 	c #6D6E6D",
"u 	c #6C6D6D",
"v 	c #6B6C6B",
"w 	c #686968",
"x 	c #656766",
"y 	c #646464",
"z 	c #616262",
"A 	c #606162",
"B 	c #5D5E5E",
"C 	c #545555",
"D 	c #545454",
"E 	c #5D5D5D",
"F 	c #5D5E5F",
"G 	c #5C5E5E",
"H 	c #5A5C5D",
"I 	c #575859",
"J 	c #5C5C5C",
"K 	c #5B5B5C",
"L 	c #5B5B5D",
"M 	c #59595B",
"N 	c #575759",
"O 	c #5F5F60",
"P 	c #595959",
"Q 	c #515151",
"R 	c #6B6B6B",
"S 	c #6D6D6D",
"T 	c #5B5C5C",
"U 	c #5A5B5C",
"V 	c #58595B",
"W 	c #545557",
"X 	c #5E5E5D",
"Y 	c #5C5D5F",
"Z 	c #5B5C5E",
"` 	c #5B5D5D",
" .	c #575857",
"..	c #5B5B5B",
"+.	c #58585B",
"@.	c #58585A",
"#.	c #5A5A5A",
"$.	c #6A6A6A",
"%.	c #5D5E60",
"&.	c #5A5C5C",
"*.	c #575858",
"=.	c #5D5E5D",
"-.	c #5C5D5C",
";.	c #626263",
">.	c #585A5B",
",.	c #545656",
"'.	c #5C5F5E",
").	c #56575A",
"!.	c #636364",
"~.	c #535555",
"{.	c #606261",
"].	c #5B5C5D",
"^.	c #57585A",
"/.	c #4E4F4F",
"(.	c #595A5B",
"_.	c #5C5D5D",
":.	c #5A5B5B",
"<.	c #535554",
"[.	c #575958",
"}.	c #606160",
"|.	c #4E4E4F",
"1.	c #595B5B",
"2.	c #5F6060",
"3.	c #585958",
"4.	c #515251",
"5.	c #5E5F5E",
"6.	c #5A5B5A",
"7.	c #595A5C",
"8.	c #555658",
"9.	c #5E5F60",
"0.	c #4F5150",
"a.	c #525453",
"b.	c #565756",
"c.	c #4E4E4E",
"d.	c #5A5B5E",
"e.	c #595A5D",
"f.	c #58595C",
"g.	c #5B5C5F",
"h.	c #4E504F",
"i.	c #515252",
"j.	c #565656",
"k.	c #5F605F",
"l.	c #4D4E4E",
"m.	c #595B5C",
"n.	c #585A5A",
"o.	c #57595A",
"p.	c #535456",
"q.	c #4D4E4D",
"r.	c #585959",
"s.	c #4D4D4E",
"t.	c #595A5A",
"u.	c #525355",
"v.	c #545655",
"w.	c #4B4C4B",
"x.	c #565758",
"y.	c #565757",
"z.	c #555756",
"A.	c #535556",
"B.	c #4F5053",
"C.	c #4E4F51",
"D.	c #58595A",
"E.	c #575959",
"F.	c #484A4A",
"G.	c #4F5050",
"H.	c #505151",
"I.	c #555655",
"J.	c #555757",
"K.	c #535455",
"L.	c #4A4A4B",
"M.	c #505251",
"N.	c #4F5151",
"O.	c #505152",
"P.	c #4E5051",
"Q.	c #4C4D4F",
"R.	c #4E4F50",
"S.	c #505252",
"T.	c #555657",
"U.	c #545556",
"V.	c #515253",
"W.	c #494A4B",
"X.	c #4C4D4D",
"Y.	c #535454",
"Z.	c #525352",
"`.	c #505150",
" +	c #4B4C4C",
".+	c #4A4B4A",
"++	c #484848",
"@+	c #515352",
"#+	c #505153",
"$+	c #484949",
"%+	c #4C4C4E",
"&+	c #5C5C5F",
"*+	c #5C5C5E",
"=+	c #4F4F50",
"-+	c #565657",
";+	c #575757",
">+	c #535353",
",+	c #565859",
"'+	c #49494B",
")+	c #626363",
"!+	c #5F6061",
"~+	c #5E5F61",
"{+	c #4F4F51",
"]+	c #5A5A5C",
"^+	c #5D5D5F",
"/+	c #5F5F61",
"(+	c #525254",
"_+	c #59595A",
":+	c #5C5C5D",
"<+	c #5C5E5F",
"[+	c #515153",
"}+	c #5E5E60",
"|+	c #535355",
"1+	c #4D465D",
"2+	c #4B435D",
"3+	c #56555A",
"4+	c #575758",
"5+	c #5D5F5F",
"6+	c #4F5052",
"7+	c #4E475E",
"8+	c #403879",
"9+	c #3F408F",
"0+	c #3F4191",
"a+	c #47408F",
"b+	c #72316B",
"c+	c #9A3145",
"d+	c #8B4A4C",
"e+	c #5C5D5E",
"f+	c #5A595B",
"g+	c #606061",
"h+	c #514B5C",
"i+	c #3F3E8C",
"j+	c #A13160",
"k+	c #B9283F",
"l+	c #B82940",
"m+	c #6B5052",
"n+	c #5D5D5E",
"o+	c #423A73",
"p+	c #75397B",
"q+	c #982E59",
"r+	c #49408E",
"s+	c #895D91",
"t+	c #A06C92",
"u+	c #653E5D",
"v+	c #5B5E5D",
"w+	c #514E5A",
"x+	c #3F3E8B",
"y+	c #EBA4A0",
"z+	c #ECB7AD",
"A+	c #69437B",
"B+	c #4E4C51",
"C+	c #494368",
"D+	c #82598F",
"E+	c #F8D4C3",
"F+	c #EFACA4",
"G+	c #9A4B67",
"H+	c #423970",
"I+	c #4D3D86",
"J+	c #7C4767",
"K+	c #C89B98",
"L+	c #F7D3C2",
"M+	c #A4727B",
"N+	c #472456",
"O+	c #413A73",
"P+	c #3F4090",
"Q+	c #6E407C",
"R+	c #7E4986",
"S+	c #3E408F",
"T+	c #7B4E69",
"U+	c #7F374E",
"V+	c #A2737C",
"W+	c #F3D2C1",
"X+	c #BD757B",
"Y+	c #692D4D",
"Z+	c #4E4659",
"`+	c #403878",
" @	c #3D2E6E",
".@	c #C68288",
"+@	c #CA8B99",
"@@	c #444592",
"#@	c #A189A0",
"$@	c #DFECF3",
"%@	c #585E61",
"&@	c #D2B3A5",
"*@	c #F9D7C5",
"=@	c #AFA5A3",
"-@	c #323232",
";@	c #585A5C",
">@	c #4B4059",
",@	c #3F3D8A",
"'@	c #3C275F",
")@	c #3C2155",
"!@	c #C48E90",
"~@	c #F6D1C1",
"{@	c #AA7A97",
"]@	c #DBABAE",
"^@	c #FEFAF8",
"/@	c #A2948C",
"(@	c #F3D2C0",
"_@	c #E6CAC7",
":@	c #61595B",
"<@	c #5C5B5C",
"[@	c #4D4F4E",
"}@	c #545554",
"|@	c #513F6A",
"1@	c #4A2978",
"2@	c #3E245D",
"3@	c #5C2A59",
"4@	c #914D67",
"5@	c #BD6274",
"6@	c #DA8A8D",
"7@	c #F8D3C2",
"8@	c #F9D5C4",
"9@	c #F3BDB1",
"0@	c #9E5966",
"a@	c #4C4E4D",
"b@	c #4B4D4C",
"c@	c #54525C",
"d@	c #4C2A6F",
"e@	c #4A236E",
"f@	c #3E215A",
"g@	c #452265",
"h@	c #585260",
"i@	c #855C66",
"j@	c #BC5971",
"k@	c #EDB7AD",
"l@	c #F7CABB",
"m@	c #EBB3AB",
"n@	c #D77F86",
"o@	c #635255",
"p@	c #565858",
"q@	c #484A49",
"r@	c #4B4B4C",
"s@	c #4A4B4B",
"t@	c #494A49",
"u@	c #474948",
"v@	c #454746",
"w@	c #4F485B",
"x@	c #4A2E69",
"y@	c #4C2472",
"z@	c #6A6AA0",
"A@	c #7A7A81",
"B@	c #999999",
"C@	c #8E656F",
"D@	c #AA4B68",
"E@	c #CB7F86",
"F@	c #C37B80",
"G@	c #905D68",
"H@	c #76525A",
"I@	c #545657",
"J@	c #4D4E4F",
"K@	c #656564",
"L@	c #646566",
"M@	c #636465",
"N@	c #616264",
"O@	c #5F6062",
"P@	c #464746",
"Q@	c #4F4E4E",
"R@	c #524C5D",
"S@	c #5B4E89",
"T@	c #6C6E89",
"U@	c #838283",
"V@	c #818181",
"W@	c #A7A7A7",
"X@	c #916871",
"Y@	c #9A5266",
"Z@	c #907F91",
"`@	c #89748A",
" #	c #615562",
".#	c #626365",
"+#	c #646465",
"@#	c #4E2E6F",
"##	c #6B6D9B",
"$#	c #916B97",
"%#	c #908C91",
"&#	c #939393",
"*#	c #919191",
"=#	c #A97C7C",
"-#	c #B47176",
";#	c #927F8E",
">#	c #897D84",
",#	c #936C94",
"'#	c #504F51",
")#	c #696969",
"!#	c #535354",
"~#	c #626465",
"{#	c #626364",
"]#	c #616263",
"^#	c #606062",
"/#	c #5D5F60",
"(#	c #5C4F67",
"_#	c #72799D",
":#	c #996D9B",
"<#	c #848485",
"[#	c #919293",
"}#	c #9C9A9B",
"|#	c #96606E",
"1#	c #BB5C71",
"2#	c #CB6B7A",
"3#	c #A47188",
"4#	c #625B62",
"5#	c #4C4C4D",
"6#	c #575656",
"7#	c #505051",
"8#	c #9A5065",
"9#	c #7E7AA0",
"0#	c #A45FA8",
"a#	c #897F8A",
"b#	c #79797B",
"c#	c #897699",
"d#	c #AD697E",
"e#	c #D3747F",
"f#	c #CB6C7A",
"g#	c #E88B8D",
"h#	c #B1596E",
"i#	c #61565A",
"j#	c #4D4F4F",
"k#	c #505052",
"l#	c #A94B67",
"m#	c #8889BC",
"n#	c #705B86",
"o#	c #76758D",
"p#	c #7D81AC",
"q#	c #B15B7B",
"r#	c #DC7F85",
"s#	c #EE9191",
"t#	c #EB8E8F",
"u#	c #B6566E",
"v#	c #66555B",
"w#	c #4C4E4E",
"x#	c #935264",
"y#	c #888ABC",
"z#	c #553F81",
"A#	c #976895",
"B#	c #C1657B",
"C#	c #DF8387",
"D#	c #CB6E7B",
"E#	c #A55469",
"F#	c #635B5E",
"G#	c #7D8BBC",
"H#	c #5C4D7F",
"I#	c #934F66",
"J#	c #C66A78",
"K#	c #CB7182",
"L#	c #945C70",
"M#	c #7F5569",
"N#	c #665664",
"O#	c #5F6065",
"P#	c #5A5C61",
"Q#	c #5A5A5B",
"R#	c #6E7491",
"S#	c #8E84A5",
"T#	c #6B6982",
"U#	c #3D4555",
"V#	c #8773A6",
"W#	c #9498B2",
"X#	c #A2A7BE",
"Y#	c #AAAFC4",
"Z#	c #AAADBB",
"`#	c #747DAB",
" $	c #5D5961",
".$	c #935C94",
"+$	c #A996AA",
"@$	c #78697A",
"#$	c #7B4050",
"$$	c #91548B",
"%$	c #9F84A0",
"&$	c #A1A1A1",
"*$	c #ABABAB",
"=$	c #AEAEAE",
"-$	c #8C6C82",
";$	c #86434F",
">$	c #80687D",
",$	c #784D53",
"'$	c #852739",
")$	c #972336",
"!$	c #91323E",
"~$	c #7D4C64",
"{$	c #81787D",
"]$	c #817C7C",
"^$	c #8F8787",
"/$	c #895F62",
"($	c #80424A",
"_$	c #4F5051",
":$	c #5A585A",
"<$	c #6E474D",
"[$	c #812D3C",
"}$	c #A34B52",
"|$	c #CC6C6F",
"1$	c #C56C6F",
"2$	c #B76065",
"3$	c #882438",
"4$	c #9E3441",
"5$	c #D47779",
"6$	c #CF777C",
"7$	c #9E5A63",
"8$	c #534C4F",
"9$	c #5F5156",
"0$	c #8B2B41",
"a$	c #872741",
"b$	c #65464F",
"c$	c #8B3A42",
"d$	c #9F2436",
"e$	c #C16064",
"f$	c #824B4F",
"g$	c #C27076",
"h$	c #97495A",
"i$	c #743255",
"j$	c #703E56",
"k$	c #625156",
"l$	c #56585A",
"m$	c #595B59",
"n$	c #763A48",
"o$	c #9C2739",
"p$	c #9D2939",
"q$	c #8A2640",
"r$	c #9B2438",
"s$	c #93313D",
"t$	c #595152",
"u$	c #5B5153",
"v$	c #6F486B",
"w$	c #6C78B6",
"x$	c #6A74AB",
"y$	c #615E66",
"z$	c #595658",
"A$	c #575957",
"B$	c #832E42",
"C$	c #8B424E",
"D$	c #6C585B",
"E$	c #9B2B3A",
"F$	c #924A72",
"G$	c #9D2637",
"H$	c #724448",
"I$	c #6D5884",
"J$	c #743153",
"K$	c #752847",
"L$	c #683949",
"M$	c #585859",
"N$	c #525454",
"O$	c #525353",
"P$	c #842E43",
"Q$	c #81669B",
"R$	c #6D5766",
"S$	c #8F3D45",
"T$	c #7F5671",
"U$	c #9F2537",
"V$	c #873D44",
"W$	c #61444C",
"X$	c #5D434B",
"Y$	c #474848",
"Z$	c #515254",
"`$	c #515353",
" %	c #73424F",
".%	c #774F70",
"+%	c #5E5759",
"@%	c #8A3F47",
"#%	c #5E5758",
"$%	c #713049",
"%%	c #742B48",
"&%	c #732D48",
"*%	c #5E565A",
"=%	c #5C5D60",
"-%	c #5E605E",
";%	c #5F5157",
">%	c #742D48",
",%	c #6E4150",
"'%	c #5A5A63",
")%	c #5B5B5E",
"!%	c #644D55",
"~%	c #752947",
"{%	c #706196",
"]%	c #696187",
"^%	c #5E595D",
"/%	c #525354",
"(%	c #674E56",
"_%	c #654751",
":%	c #61424C",
"<%	c #684C54",
"[%	c #5D5B5B",
"}%	c #4F504F",
"|%	c #505253",
"1%	c #535557",
"2%	c #555759",
"3%	c #4B4D4D",
"4%	c #4A4C4C",
"5%	c #4B4C4D",
"6%	c #494B4B",
"7%	c #555758",
"8%	c #535453",
"9%	c #595B5D",
"0%	c #494B4A",
"a%	c #525356",
"b%	c #535457",
"c%	c #484948",
"d%	c #525253",
"e%	c #616163",
"f%	c #555557",
"g%	c #545456",
"h%	c #4D4D4F",
"i%	c #515152",
"j%	c #555556",
"k%	c #686868",
"l%	c #565658",
"m%	c #565558",
"n%	c #535254",
"o%	c #57595B",
"  . + @ @ # # $ % & & * = - ; @ > , , ' ) ! ~ { { . ] ^ / ( _ : ;   < < [ } } } } { | * 1 2 3 4 5 6 7 8 9 9 9 8 2       0 a b c ",
"d e ) f # f f f g h h g i j k l l m l l d d n ) o p o q - = r s t u v m l d w > x ) g y z A B C D E B } [ [ B F [ [ [ G G H I - ",
"n ~ * * E E E J J J K L M N O ~ ~ ~ ~ | | | | * * E J P Q J R S R g & ~ | ~ | | * E E J T U V W ; X * < < < F Y Z `       2  .Q ",
"g | * * E J J J J J ..K +.@.& | | * * * * * * E E J ..#.= * $.$.y ~ | | * * * E J J J J T a V W P ~ o . } [ %.%.Y <       &.*.= ",
"% | B =.E -.J J T T ..K @.@.;.| | * [ * * * B E E J J #.= * n & | | | * * * E E J J J J T a >.,.; n ! [ [ [ %.Y Y <     ` &.I _ ",
"} '.< < <       2 2 2 U ).b !.~ * [ [ [ [ '.< E E J J #.= | g | | | * * * * J E J J J ....2 9 ~.3 + {.< [ [ Y Y Y       Z ].^./.",
"[ < < <         2 2 8 (.).b z ~ * [ [ [ [ < < _.J ....P = * g | * * * * * E E E J J ....:.8 9 <.[.}.. < < < Y Y 0 <     Z a ^.|.",
"<   < <   ` ].T &.U 1.(.).b A 2.{ [ [ [ B G ` T 1 ....3.4._.y | 5.* =.B B _._._.T T :.:.6.8 9 <. .q ] < < < Y Z Z &.&.T a 7.b |.",
"          Z Z a a a 7.7.b 8.9.. [ < < < Y Y Z &.2 2 2 [.0.T r | | [ < < <       2 2 2 8 8 9 [.a.b.% 2.<     Z Z Z a a a a a b c.",
"  2 2 2 2 H d.e.e.f.V V b W _.. < < <   ].g.d.&.2 8 8 [.h.6.% * * < < <       2 2 2 2 9 9 [.3 i.j.% k.    2 a Z Z a a 7.a 7.^.l.",
"T 1 2 8 8 1.m.1.>.n.o.^.b p.` [   < < 2 2 H &.:.8 8 8 3 q.r.& * E   <   2 2 2 8 8 8 9 9 9 [.b.h.D & * 2 8 8 1.1.7.7.7.7.V V b s.",
"t.#.8 8 8 8 8 9 9 [.[.I 8.u.U         2 2 2 8 8 8 9 9 v.w.i.J E E   < 2 2 2 2 8 8 8 9 [.3 : = ( _ ..; 8 9 n.9 9 9 V V V V V x.( ",
"Q j.y.3 3 3 3 3 z.z.z.A.B.C.D.8 1.2 :.8 8 9 8 8 9 E.z.h.F.G.P ....2 2 2 8 3.[.3 3 3 z.<.H.Q 6 / / i.I.3 3 3 3 3 J.8.8.8.8.8.K.L.",
"_ G.H.M.0.N.N.O.N.N.0.P.Q.Q.R.S.~.,.,.T.,.7 T.J.,.U.K.V.W.X.Y.: b.3 3.*.I.Z.`.h./.l.q. +.+/ 5 ++/ _ 4.@+a.a.Y.<.Y.p.W W u.#+R.$+",
"g ~ <     ].a a a 7.a L @.%+V.@.&+Y Y Y Y Y Y *+L U M @.=+|.-+;+E E J J ..P j.D >+i._ c / / 5 ++c >+7 z.3 3 ,+I b b V V b b u.'+",
"R n )+{.. !+~+%.%.%.Y Y M {+]+^+/+~+%.Y Y Y Y Y *+*+]+M (+_+:+E E E E J J J ....#.#.P : Q 6 - 5 6 ~ f {.} < <+%.a Z Z a a a ^.%+",
"$.r }.. . ~+~+%.%.%.Y ^+]+[+i 9.}+%.%.Y Y Y Y Y *+*+L M |+:+| E * E E E J J ]+1+2+2+2+3+4+;+: c.>+f ] 5+5+F Y Z Z Z Z a a a ^.6+",
"n q . . } ~+~+%.%.%.Y F ..= B [ [ F %.Y Y Y Z Z Z a Z ]+|+^+~ E E E E E K 7+8+9+0+0+a+b+c+d+b.0.D r | %.%.%.Y Y Y Z Z Z 7.a ^.C.",
"g ~ 2.} } 9.~+%.%.%.Y B ..Z.[ [ < e+Y Y Y Y Z Z Z a a f+|+i g+* E E E E h+i+0+0+0+a+j+k+l+l+m+`.>+r { %.Y Y Y Y Z Z Z a a 7.,+P.",
"% ~ ~ { } } 9.%.%.%.Y n+..Z.[ [ < G Y Y Y Y Z Z Z a U M |+i & * =.< E :+o+0+0+0+0+p+q+r+s+t+u+`.>+r i %.Y Y Y Y Z Z Z a a a ^.O.",
"~ | ~ * * [ [ 5+Y Y Y _.#.= =.< < < < <       &.2 2 :.P >+* ~ E E < v+w+x+0+0+0+0+0+0+s+y+z+A+B+>+% i %.Y Y Y Z Z Z Z a a a I H.",
"| * * * * [ [ < Y Y Y _.#.4.=.< < <         2 2 2 8 6.P >+E ~ E E <   C+9+0+0+0+0+0+D+y+E+F+G+B+>+& n+Y Z Z Z Z Z a a a 7.7.).6 ",
"E | * * * [ [ < Y Y Y _.#.4.=.< <           &.2 2 8 8 P i.J | E E <   H+0+0+0+0+0+I+J+K+L+M+N+B+>+& n+Y Z Z Z Z Z a a a 7.7.)._ ",
"E y { [ < Y Y Y Y Y Z ` 9 M.<   2 2 2 2 a a a 1.8 8 8 [.@+-.| J J J ]+O+P+Q+R+0+S+T+U+V+W+X+Y+B+= & e+Z Z Z Z Z a 7.7.7.7.V x.G.",
"E y { < G Z Y Y Z Z a T 9 0.    2 8 8 2 U e.a 1.8 8 9 [.a.-.| E J Z+`+i+ @.@+@@@#@$@%@&@*@=@-@6 6 O ].a a a a a 7.a 7.V V V 8.G.",
"J E <     Z Z Z Z a a &.9 h.8 2 1 8 8 9 8 ;@>.r.[.9 9 3 M.:.E ....>@,@'@)@!@~@{@]@^@/@(@*@_@:@6 _ ~ T a a a a 7.7.V V V V V 8.G.",
"J <@      Z Z Z a a a 2 [.h.Z.;+3.3.[.[.[.;+;+j.: : I.a.[@}@^ ..#.|@1@2@)@3@4@5@6@7@*@8@E+9@0@0._ ~ U 7.7.7.7.7.7.V V V ^.^.8.h.",
"..T       ].Z Z a 7.7.(.3 a@q.c.6 H.M.@+4.Q >+D >+Q 0.a@b@4.I.^ r.c@d@e@f@g@h@i@j@k@E+l@m@n@o@l.( ..; V V V V V V V V ^.b b p.[@",
"}@y.p@x.3 b b b b W W U.0.q@/.Q Q G.G.h./.s. +r@w.s@t@u@v@- 6 = }@C w@x@y@z@A@B@C@D@E@F@G@H@0.u@5 c.>+W U.W W W W 8.8.I@W p.C.s@",
"a.T Z Z Z Z Z Z Z a a 7.x.J@g+y K@L@L@M@N@O@7.b W K.=+w.P@- _ Q@_ 6 = R@S@T@U@V@W@X@Y@Z@`@ #5 ++c = ^ J * n+e+Z a 7.V ^.^.b [+5 ",
"2 [ %.%.%.%.%.Y %.Y Y Y ]+(+~ r r M@.#.#.#.#N@N@.#L@+#../ 6 : j.;+;+ .@###$#%#&#*#=#-#;#>#,#'#5 D $.s R )#n L@.#O@~+%.Y Y Z M =+",
"[ [ %.%.%.Y Y Y %.Y Y *+]+!#g+r !.M@~#.#{#]#^#O@9./#B #._ #.| ~ ~ | }.(#_#:#<#&#[#}#|#1#2#3#4#5#6#$.e )+| 2.9.F e+Y Y e+Z Z V |.",
"} [ %.%.%.%.%.Y Y Y Z ].#.= * | | { { [ B < _.`     ].]+7#K :+E < < -.8#9#0#a#b#c#d#e#f#g#h#i#6+^ n }.[ [ [ [ [ < < < =.Z Z V j#",
"[ [ %.%.Y Y Y Y Z Z Z T #.Q * * * [ [ < < <       2 ].]+k#K J J -.    l#m#n#o#p#q#r#s#s#t#u#v##+^ % } [ [ [ < < < [ < ` Z Z V w#",
"} [ F %.Y Y Y Y Z Z Z T P 6 * * * * [ < < <       &.].M {+2.* J J     x#y#z#A#B#t#t#C#D#E#F#b O.4+% { [ [ [ < < < `   ` Z Z V w#",
"=.* < < < ` ` ` Z Z a :.P 6 * * * B < < < <   ` Z a K P 6 } [     Z Z ].G#H#I#J#K#L#M#N#O#P#y.M.y.{.[ [ < < e+Y g.g.g.Z a a ^.X.",
"E E <   <       ].a a Q#P c.* E * =.< < < <   &.a a U *._ B {   ` Z Z H R#S#T#U#V#W#X#Y#Z#`# $M.z.} < [ < < Y Z Z Z Z a a a V 5#",
"..<@            a a a :.^ c.* * E E <     T   &.a 7.(.;+_ 9     ].a a ]..$+$@$#$$$%$&$*$=$-$;$M.C } _.< < < Z Z Z Z a a a 7.V w.",
"#.........2 2 2 2 2 8 8 [.[@< [ <       ].a a a 7.V n.3 0.[.2 8 1.7.7.L >$,$'$)$!$~${$]$^$/$($_$= | _.Z Z Z Y Z Z Z a a 7.a ^. +",
"^ #.......2 2 8 8 2 9 9 [.[@9 <   2 2 2 U 7.a 7.V V n.3 [@[.2 8 (.7.7.:$<$[$}$|$1$2$3$4$5$6$7$8$Q ~ _.Z Z Z a Z a 7.a 7.7.7.o.X.",
"j.#.#...#.2 2 8 8 8 9 9 3 a@`.8   2 2 2 1.7.7.7.V V I <.b@z.3.r.r.D.9$0$a$b$c$d$d$e$f$g$h$i$j$k$Q | :+Z Z Z a a a a a 7.7.7.l$X.",
"= ^ j.P ^ 8 8 8 8 9 3. .>+( c.b.6.:.2 2 2 8 9 m$[.p@a.( - >+>+= = = n$o$p$q$r$d$d$s$t$u$v$w$x$y$z$..:.Z a a a a 7.7.7.7.V V l$ +",
"_ >+D : : b.3 3 3 v.@+Q ( c - = ;+r.9 9 9 9 [.A$z.@+b@5 / _ Q 6 6 6 B$C$D$E$F$d$G$H$_ _ Q I$J$K$L$: t.7.7.7.7.7.7.V V V V ^.8.4 ",
"b.^ M$r.^ 9 9 [.*.z.M.l.c c 6 >+D Y.Y.Y.Y.N$O$@+M.0./.X.++ += >+>+O$P$Q$R$S$T$U$V$D >+i.4.W$K$K$X$>+7 T.8.W 8.8.8.W W 8.p.u.#+Y$",
"< 2 (.U ].0 Z ].a U 1.;+6 - *.    ` H a a a 7.V D.o.^.I Z$`$9 9 r.D. %.%+%T * @%#%D.D.I x.$%%%&%*%i ^+=%Y Z Z Z a a a 7.7.V b $+",
"} -%/#%.Y Y Z Y Y a a _+D _ 2 < &.H a Z Z a a 7.7.a 7.V p.~.9 9 n.7.7.7.a 7.V V 7.7.V V ;%>%,%'%)%*+*+Z Y Z Z Z a a a 7.7.7.).X.",
"} } ~+~+%.%.%.Y Z Y Z Q#;+6   <   ].Z a a a a 7.7.a V V u.K.9 9 D.V V 7.a 7.7.7.7.7.V V !%~%K${%]%^%*+Z Z Z Z Z a a 7.7.7.V ^.s.",
"| | %.%.%.%.%.%.Y Y 7.8 *.M.T < 2 U a a a a a 7.7.7.V V u./%[.9 9 n.y.8 8 8 1.7.7.7.V V V (%_%:%<%[%  Z Z Z Z Z a a a V 7.7.^.s.",
"* | %.%.%.Y Y %.Y Y (.n.p@M.    2 U a a 7.7.7.7.7.7.V V u./%p@3 p@3 <.9 9 8 1.7.7.7.V V D.*.: /.<   ` Z Z Z Z Z a a a V 7.V b s.",
"| * %.%.%.Y Y Y Y Y 7.n.3 0.2   2 U a a a 7.7.7.7.7.V ^.Z$`$3 z.,.@+M.v.9 8 1.7.7.7.V ^.I ;+C }%<   ` Z Z Z a a a 7.7.7.V V b - ",
"{ [ [ B G e+Y Y Z Y V E.z.0.2 2 8 U a 7.7.7.7.7.V V ^.^.Z$|%8.1%u.^.(.8.r.9 n.V V V V ^.^.b A.P._.  ].a a a a a 7.7.V V V V b X.",
"} [ [ [ < Y Y Y Z Z o.*.z.0.2 2 8 U a 7.7.7.7.7.V V b b #+#+8.p.^.7.7.>.[.9 n.V V V V ^.b 2%p.P.<   T a a a a a 7.7.V ^.^.^.8.3%",
"} < < < < Y Y Z Z Z ^.p@v.h.8 2 8 (.7.7.V V V V V ^.b x.6+6+u.W V 7.V 1.p@9 n.V ^.^.^.b b W u.C.< 2 &.a 7.7.7.7.7.V V b ^.^.8.4%",
"} <       Z Z Z a a ^.x.v.[@9 2 8 (.V V V V V V ^.^.N 7 |.5%Q.#+^.V 7.>.b D.D.r.*.*.*.p@J.: O$_ J :.:.8 8 8 1.n.n.E.[.E.b b W 6%",
"< 2       Z Z Z a a b y.<.b@3 9 [.D.D.^.^.^.b b b b T.O$/ L.C.Z$W b b 8.8.8.7%z.7 v.v.~.8%= 6 - #.P t.; 9 9 9 9 [.[.[.&.8.W u.u@",
"<     T 2 ].a a 9%9%b J.@+0%M.@+a.U.W p.p.p.p.u.u.Z$[+- 5 5%%.%.x.p.a%p.b%W U.v.Y.O$0.h.}%_ ( / - >+;+3 3 z.z.z.z.z.z.T.x.8.8.w#",
"8%I.I.z.*.r._+Q#..:.j }% +c%}%*.1 T a a a a Z a a a ]+@.d%=+_+n+].&.1.1.Q#Q#Q#(.(.y.Y.8%8%!#=+r@=+% r % z q q q q & q z e%e%N@(.",
"P ....J T ..#.......P ;+= 5 ^ ....U a a a Z a a a 7.]+M (+=+P J -.  2 2 ....:.7.7.t.j.: : f%g%h%P )#~ * E E E E E E E E *+*+L |+",
"..E J J J J ........#.#.^ Q #.....].Z Z Z a a a a a a 7.|+i%E J         ..#.Q#a 7.1.^ j%j%f%f%d%E $.| E E E E E J J J J L L M (+",
"            T 2 U U 7.V @.V.r.2 1   ` &.&.&.&.&.U m.]+]+g%!#@ [           1 2 &.1.(.N 8.f%f%f%!#* $.| E E E < < <       K ..#.= ",
"              2 U a 7.V ^.V.I #   <   2 2 2 2 2 2 8 (.7.g%K.@ [ <         2 2 2 8 t.V 8.8.f%f%(+* k%| E E E < < <       ..#.P = ",
"        2 2 2 2 m.V V ^.^.#+E.{.    2 2 2 2 2 2 2 2 D.M g%C {.[           2 2 2 8 8 f.b W l%m%n%* k%| E E E < < <     2 J #.P = ",
"8   2 2   &.U U 7.7.V V b 6+M${ T 2 2 2 2 2 2 2 m.1.V V p.N$<           ].U U m.1.(.V b 8.l%l%!#* k%| E E E -.-.-.    2 K U _+7#",
"8   2 2   H a a 7.7.V ^.b 6+M$....2 2 2 2 2 2 :.7.7.>.o%u.K.<           Z a a 7.7.(.V b 8.l%l%!#* k%| E E E J J J     2 a a M 7#"};
