/* XPM */
static char * right_0_xpm[] = {
"64 64 600 2",
"  	c #5B5D5C",
". 	c #5F6160",
"+ 	c #616362",
"@ 	c #626463",
"# 	c #636564",
"$ 	c #626362",
"% 	c #626262",
"& 	c #616161",
"* 	c #5E5E5E",
"= 	c #525252",
"- 	c #4D4D4D",
"; 	c #595A59",
"> 	c #666867",
", 	c #696B6A",
"' 	c #676968",
") 	c #656666",
"! 	c #636464",
"~ 	c #606060",
"{ 	c #5E5F5F",
"] 	c #606161",
"^ 	c #585858",
"/ 	c #4A4A4A",
"( 	c #4C4C4C",
"_ 	c #4F4F4F",
": 	c #555555",
"< 	c #5C5E5D",
"[ 	c #5D5F5E",
"} 	c #5E605F",
"| 	c #5F5F5F",
"1 	c #5B5C5B",
"2 	c #5A5C5B",
"3 	c #565857",
"4 	c #494A4A",
"5 	c #494949",
"6 	c #505050",
"7 	c #555656",
"8 	c #595B5A",
"9 	c #585A59",
"0 	c #5B5D5E",
"a 	c #5A5B5D",
"b 	c #565759",
"c 	c #4B4B4B",
"d 	c #686969",
"e 	c #676868",
"f 	c #646565",
"g 	c #656565",
"h 	c #666666",
"i 	c #5E5E5F",
"j 	c #545455",
"k 	c #696A69",
"l 	c #696A6A",
"m 	c #6A6B6A",
"n 	c #676767",
"o 	c #656665",
"p 	c #646564",
"q 	c #616261",
"r 	c #636363",
"s 	c #6C6C6C",
"t 	c #6D6E6D",
"u 	c #6C6D6D",
"v 	c #6B6C6B",
"w 	c #686968",
"x 	c #656766",
"y 	c #646464",
"z 	c #616262",
"A 	c #606162",
"B 	c #5D5E5E",
"C 	c #545555",
"D 	c #545454",
"E 	c #5D5D5D",
"F 	c #5D5E5F",
"G 	c #5C5E5E",
"H 	c #5A5C5D",
"I 	c #575859",
"J 	c #5C5C5C",
"K 	c #5B5B5C",
"L 	c #5B5B5D",
"M 	c #59595B",
"N 	c #575759",
"O 	c #5F5F60",
"P 	c #595959",
"Q 	c #515151",
"R 	c #6B6B6B",
"S 	c #6D6D6D",
"T 	c #5B5C5C",
"U 	c #5A5B5C",
"V 	c #58595B",
"W 	c #545557",
"X 	c #5E5E5D",
"Y 	c #5C5D5F",
"Z 	c #5B5C5E",
"` 	c #5B5D5D",
" .	c #575857",
"..	c #5B5B5B",
"+.	c #58585B",
"@.	c #58585A",
"#.	c #5A5A5A",
"$.	c #6A6A6A",
"%.	c #5D5E60",
"&.	c #5A5C5C",
"*.	c #575858",
"=.	c #5D5E5D",
"-.	c #5C5D5C",
";.	c #626263",
">.	c #585A5B",
",.	c #545656",
"'.	c #5C5F5E",
").	c #56575A",
"!.	c #636364",
"~.	c #535555",
"{.	c #606261",
"].	c #5B5C5D",
"^.	c #57585A",
"/.	c #4E4F4F",
"(.	c #595A5B",
"_.	c #5C5D5D",
":.	c #5A5B5B",
"<.	c #535554",
"[.	c #575958",
"}.	c #606160",
"|.	c #4E4E4F",
"1.	c #595B5B",
"2.	c #5F6060",
"3.	c #585958",
"4.	c #515251",
"5.	c #5E5F5E",
"6.	c #5A5B5A",
"7.	c #595A5C",
"8.	c #555658",
"9.	c #5E5F60",
"0.	c #4F5150",
"a.	c #525453",
"b.	c #565756",
"c.	c #4E4E4E",
"d.	c #5A5B5E",
"e.	c #595A5D",
"f.	c #58595C",
"g.	c #5B5C5F",
"h.	c #4E504F",
"i.	c #515252",
"j.	c #565656",
"k.	c #5F605F",
"l.	c #4D4E4E",
"m.	c #595B5C",
"n.	c #585A5A",
"o.	c #57595A",
"p.	c #535456",
"q.	c #4D4E4D",
"r.	c #585959",
"s.	c #4D4D4E",
"t.	c #595A5A",
"u.	c #525355",
"v.	c #545655",
"w.	c #4B4C4B",
"x.	c #565758",
"y.	c #565757",
"z.	c #555756",
"A.	c #535556",
"B.	c #4F5053",
"C.	c #4E4F51",
"D.	c #58595A",
"E.	c #575959",
"F.	c #484A4A",
"G.	c #4F5050",
"H.	c #505151",
"I.	c #555655",
"J.	c #555757",
"K.	c #535455",
"L.	c #4A4A4B",
"M.	c #505251",
"N.	c #4F5151",
"O.	c #505152",
"P.	c #4E5051",
"Q.	c #4C4D4F",
"R.	c #4E4F50",
"S.	c #505252",
"T.	c #555657",
"U.	c #545556",
"V.	c #515253",
"W.	c #494A4B",
"X.	c #4C4D4D",
"Y.	c #535454",
"Z.	c #525352",
"`.	c #505150",
" +	c #4B4C4C",
".+	c #4A4B4A",
"++	c #484848",
"@+	c #515352",
"#+	c #505153",
"$+	c #484949",
"%+	c #4C4C4E",
"&+	c #5C5C5F",
"*+	c #5C5C5E",
"=+	c #4F4F50",
"-+	c #565657",
";+	c #575757",
">+	c #535353",
",+	c #565859",
"'+	c #49494B",
")+	c #626363",
"!+	c #5F6061",
"~+	c #5E5F61",
"{+	c #4F4F51",
"]+	c #5A5A5C",
"^+	c #5D5D5F",
"/+	c #5F5F61",
"(+	c #525254",
"_+	c #59595A",
":+	c #5C5C5D",
"<+	c #5C5E5F",
"[+	c #4E485F",
"}+	c #4C445F",
"|+	c #4B435E",
"1+	c #524D53",
"2+	c #625C5E",
"3+	c #5E5E60",
"4+	c #535355",
"5+	c #5D5F5F",
"6+	c #4F5052",
"7+	c #5D5E61",
"8+	c #403879",
"9+	c #3F408F",
"0+	c #3F4191",
"a+	c #643B82",
"b+	c #972646",
"c+	c #AB333D",
"d+	c #8D4F51",
"e+	c #524D5F",
"f+	c #3F3E8C",
"g+	c #603C84",
"h+	c #B1273E",
"i+	c #AC2740",
"j+	c #A92841",
"k+	c #69585A",
"l+	c #5C5D5E",
"m+	c #5A595B",
"n+	c #606061",
"o+	c #423A74",
"p+	c #75397B",
"q+	c #982E59",
"r+	c #49408E",
"s+	c #895D91",
"t+	c #5D4B91",
"u+	c #494264",
"v+	c #545554",
"w+	c #534F5B",
"x+	c #3F3E8B",
"y+	c #EBA4A0",
"z+	c #AD93A6",
"A+	c #3E3880",
"B+	c #59595D",
"C+	c #5B5E5D",
"D+	c #5A5D5C",
"E+	c #4A4468",
"F+	c #6E4B89",
"G+	c #E89F9C",
"H+	c #F8D4C3",
"I+	c #E2B9B3",
"J+	c #594991",
"K+	c #514E64",
"L+	c #5D5D5E",
"M+	c #423971",
"N+	c #3F4090",
"O+	c #443578",
"P+	c #49408D",
"Q+	c #3E418A",
"R+	c #723B66",
"S+	c #4D2557",
"T+	c #BE8387",
"U+	c #F7D3C2",
"V+	c #A88A8B",
"W+	c #413E8B",
"X+	c #4A4362",
"Y+	c #55545D",
"Z+	c #403D81",
"`+	c #3E367D",
" @	c #994264",
".@	c #984B7C",
"+@	c #493C7D",
"@@	c #7B4D61",
"#@	c #863A52",
"$@	c #937075",
"%@	c #F3D2C1",
"&@	c #B0797C",
"*@	c #452E67",
"=@	c #42325A",
"-@	c #58565D",
";@	c #403878",
">@	c #3E3A84",
",@	c #3E3B85",
"'@	c #3C245A",
")@	c #C68288",
"!@	c #D2979C",
"~@	c #554E91",
"{@	c #9D7991",
"]@	c #DAE9F1",
"^@	c #585E61",
"/@	c #DCB5A9",
"(@	c #F9D7C5",
"_@	c #BCC0C2",
":@	c #231134",
"<@	c #3C2155",
"[@	c #565659",
"}@	c #525353",
"|@	c #534F5A",
"1@	c #3F3D8A",
"2@	c #3E3C87",
"3@	c #BB7984",
"4@	c #F0BDB2",
"5@	c #C37A89",
"6@	c #DEA19F",
"7@	c #FCEEE8",
"8@	c #A8958E",
"9@	c #F3D2C0",
"0@	c #E6CAC7",
"a@	c #5B4D5B",
"b@	c #585A5C",
"c@	c #5C5B5C",
"d@	c #493470",
"e@	c #413A86",
"f@	c #3D275C",
"g@	c #5C2A59",
"h@	c #80395F",
"i@	c #B3526B",
"j@	c #D8898D",
"k@	c #F7D1C0",
"l@	c #F8D3C2",
"m@	c #F9D6C5",
"n@	c #F3BDB1",
"o@	c #9B4B68",
"p@	c #545458",
"q@	c #4D4F4E",
"r@	c #534469",
"s@	c #4C2472",
"t@	c #4A396E",
"u@	c #462767",
"v@	c #422361",
"w@	c #575662",
"x@	c #945364",
"y@	c #B04869",
"z@	c #F5CEBE",
"A@	c #F4BCB0",
"B@	c #F2B3AA",
"C@	c #B96B79",
"D@	c #4A2956",
"E@	c #423354",
"F@	c #4F5051",
"G@	c #4C4E4D",
"H@	c #4B4D4C",
"I@	c #565858",
"J@	c #514167",
"K@	c #4C2372",
"L@	c #4E4C80",
"M@	c #595B6C",
"N@	c #747474",
"O@	c #945465",
"P@	c #AF6070",
"Q@	c #BB7C82",
"R@	c #AD7881",
"S@	c #593F5C",
"T@	c #5C4F53",
"U@	c #5B4F52",
"V@	c #4B4B4C",
"W@	c #4A4B4B",
"X@	c #494A49",
"Y@	c #474948",
"Z@	c #454746",
"`@	c #545657",
" #	c #5B5B5F",
".#	c #5F568B",
"+#	c #79629E",
"@#	c #7C5E7F",
"##	c #938F94",
"$#	c #777777",
"%#	c #8A8A8A",
"&#	c #C06876",
"*#	c #87797C",
"=#	c #8F6791",
"-#	c #A15DA3",
";#	c #894D69",
">#	c #B14869",
",#	c #8A5A67",
"'#	c #636465",
")#	c #616264",
"!#	c #5F6062",
"~#	c #464746",
"{#	c #4F4E4E",
"]#	c #535453",
"^#	c #515152",
"/#	c #515153",
"(#	c #656885",
"_#	c #767EB4",
":#	c #8B5E93",
"<#	c #A17CA3",
"[#	c #A6A6A6",
"}#	c #A7A7A7",
"|#	c #AB747A",
"1#	c #7F7576",
"2#	c #6F6F6F",
"3#	c #8B7E8B",
"4#	c #9E5B86",
"5#	c #9A5368",
"6#	c #626365",
"7#	c #646566",
"8#	c #646465",
"9#	c #696969",
"0#	c #7D8BBC",
"a#	c #625C95",
"b#	c #825987",
"c#	c #B09BB1",
"d#	c #ADADAD",
"e#	c #AEAFB2",
"f#	c #867B9E",
"g#	c #A16BA3",
"h#	c #A5A1A5",
"i#	c #B8B8B8",
"j#	c #9B9B9B",
"k#	c #7E5580",
"l#	c #AC496B",
"m#	c #9A5468",
"n#	c #626364",
"o#	c #616263",
"p#	c #606062",
"q#	c #5D5F60",
"r#	c #4C4C4D",
"s#	c #575656",
"t#	c #553F81",
"u#	c #705E7B",
"v#	c #8B8891",
"w#	c #7B7C9C",
"x#	c #9B709A",
"y#	c #A369A2",
"z#	c #AF6488",
"A#	c #A09597",
"B#	c #ABAAAA",
"C#	c #B3B5BF",
"D#	c #6E6F9E",
"E#	c #AA4C70",
"F#	c #AD4A68",
"G#	c #815862",
"H#	c #505051",
"I#	c #4D4F4F",
"J#	c #976895",
"K#	c #9F6E99",
"L#	c #B15172",
"M#	c #B6506D",
"N#	c #DC7F85",
"O#	c #CD6D7B",
"P#	c #C66577",
"Q#	c #978A8D",
"R#	c #7F656B",
"S#	c #AE4968",
"T#	c #A14E66",
"U#	c #645E5F",
"V#	c #505052",
"W#	c #4C4E4E",
"X#	c #A6436B",
"Y#	c #C05E73",
"Z#	c #E08288",
"`#	c #EE9191",
" $	c #D87D85",
".$	c #7F5D66",
"+$	c #7D686D",
"@$	c #8B5764",
"#$	c #655D5F",
"$$	c #575758",
"%$	c #7C89B9",
"&$	c #68669E",
"*$	c #6C3F70",
"=$	c #A96273",
"-$	c #D77D87",
";$	c #EA8D8F",
">$	c #D07381",
",$	c #B2809D",
"'$	c #BDB9BD",
")$	c #BFBFBF",
"!$	c #ACACAC",
"~$	c #727272",
"{$	c #636876",
"]$	c #7782AC",
"^$	c #945D9A",
"/$	c #A08AA1",
"($	c #7E749D",
"_$	c #995064",
":$	c #A7405F",
"<$	c #943D6A",
"[$	c #883169",
"}$	c #885785",
"|$	c #8B858A",
"1$	c #868686",
"2$	c #977D99",
"3$	c #9A979A",
"4$	c #7A677D",
"5$	c #943F47",
"6$	c #AC5259",
"7$	c #D97C7E",
"8$	c #933243",
"9$	c #8A243B",
"0$	c #924A54",
"a$	c #685B65",
"b$	c #814A4E",
"c$	c #7A434A",
"d$	c #813E47",
"e$	c #D67A7C",
"f$	c #DE8082",
"g$	c #A5323F",
"h$	c #9F2436",
"i$	c #893750",
"j$	c #695656",
"k$	c #C0686D",
"l$	c #D47B7E",
"m$	c #C46569",
"n$	c #9B2B39",
"o$	c #9C2A3F",
"p$	c #94486E",
"q$	c #82597D",
"r$	c #7F4C50",
"s$	c #605B5B",
"t$	c #515254",
"u$	c #72314A",
"v$	c #924758",
"w$	c #B6666E",
"x$	c #9B6367",
"y$	c #6F5052",
"z$	c #8A4060",
"A$	c #8C5785",
"B$	c #685C63",
"C$	c #4D4E50",
"D$	c #56585A",
"E$	c #654D54",
"F$	c #752847",
"G$	c #6F394C",
"H$	c #714D50",
"I$	c #9C2938",
"J$	c #96343F",
"K$	c #605858",
"L$	c #595B59",
"M$	c #525454",
"N$	c #634A51",
"O$	c #6A4953",
"P$	c #575555",
"Q$	c #982D3A",
"R$	c #9C3049",
"S$	c #834B56",
"T$	c #7C464A",
"U$	c #6B4548",
"V$	c #575957",
"W$	c #585859",
"X$	c #6C3E4E",
"Y$	c #6C4451",
"Z$	c #585556",
"`$	c #856194",
" %	c #676C9A",
".%	c #525253",
"+%	c #4B4D4D",
"@%	c #474848",
"#%	c #72324A",
"$%	c #654F56",
"%%	c #864349",
"&%	c #9B2A39",
"*%	c #724549",
"=%	c #515353",
"-%	c #5C5D60",
";%	c #5E605E",
">%	c #664E57",
",%	c #685161",
"'%	c #5B5D64",
")%	c #665058",
"!%	c #742C48",
"~%	c #715382",
"{%	c #6A5A7B",
"]%	c #5A5A5B",
"^%	c #61585D",
"/%	c #684C56",
"(%	c #635359",
"_%	c #525354",
":%	c #4F504F",
"<%	c #505253",
"[%	c #535557",
"}%	c #555759",
"|%	c #4A4C4C",
"1%	c #4B4C4D",
"2%	c #494B4B",
"3%	c #555758",
"4%	c #595B5D",
"5%	c #494B4A",
"6%	c #525356",
"7%	c #535457",
"8%	c #484948",
"9%	c #535354",
"0%	c #616163",
"a%	c #555557",
"b%	c #545456",
"c%	c #4D4D4F",
"d%	c #555556",
"e%	c #686868",
"f%	c #565658",
"g%	c #565558",
"h%	c #535254",
"i%	c #57595B",
"  . + @ @ # # $ % & & * = - ; @ > , , ' ) ! ~ { { . ] ^ / ( _ : ;   < < [ } } } } { | * 1 2 3 4 5 6 7 8 9 9 9 8 2       0 a b c ",
"d e ) f # f f f g h h g i j k l l m l l d d n ) o p o q - = r s t u v m l d w > x ) g y z A B C D E B } [ [ B F [ [ [ G G H I - ",
"n ~ * * E E E J J J K L M N O ~ ~ ~ ~ | | | | * * E J P Q J R S R g & ~ | ~ | | * E E J T U V W ; X * < < < F Y Z `       2  .Q ",
"g | * * E J J J J J ..K +.@.& | | * * * * * * E E J ..#.= * $.$.y ~ | | * * * E J J J J T a V W P ~ o . } [ %.%.Y <       &.*.= ",
"% | B =.E -.J J T T ..K @.@.;.| | * [ * * * B E E J J #.= * n & | | | * * * E E J J J J T a >.,.; n ! [ [ [ %.Y Y <     ` &.I _ ",
"} '.< < <       2 2 2 U ).b !.~ * [ [ [ [ '.< E E J J #.= | g | | | * * * * J E J J J ....2 9 ~.3 + {.< [ [ Y Y Y       Z ].^./.",
"[ < < <         2 2 8 (.).b z ~ * [ [ [ [ < < _.J ....P = * g | * * * * * E E E J J ....:.8 9 <.[.}.. < < < Y Y 0 <     Z a ^.|.",
"<   < <   ` ].T &.U 1.(.).b A 2.{ [ [ [ B G ` T 1 ....3.4._.y | 5.* =.B B _._._.T T :.:.6.8 9 <. .q ] < < < Y Z Z &.&.T a 7.b |.",
"          Z Z a a a 7.7.b 8.9.. [ < < < Y Y Z &.2 2 2 [.0.T r | | [ < < <       2 2 2 8 8 9 [.a.b.% 2.<     Z Z Z a a a a a b c.",
"  2 2 2 2 H d.e.e.f.V V b W _.. < < <   ].g.d.&.2 8 8 [.h.6.% * * < < <       2 2 2 2 9 9 [.3 i.j.% k.    2 a Z Z a a 7.a 7.^.l.",
"T 1 2 8 8 1.m.1.>.n.o.^.b p.` [   < < 2 2 H &.:.8 8 8 3 q.r.& * E   <   2 2 2 8 8 8 9 9 9 [.b.h.D & * 2 8 8 1.1.7.7.7.7.V V b s.",
"t.#.8 8 8 8 8 9 9 [.[.I 8.u.U         2 2 2 8 8 8 9 9 v.w.i.J E E   < 2 2 2 2 8 8 8 9 [.3 : = ( _ ..; 8 9 n.9 9 9 V V V V V x.( ",
"Q j.y.3 3 3 3 3 z.z.z.A.B.C.D.8 1.2 :.8 8 9 8 8 9 E.z.h.F.G.P ....2 2 2 8 3.[.3 3 3 z.<.H.Q 6 / / i.I.3 3 3 3 3 J.8.8.8.8.8.K.L.",
"_ G.H.M.0.N.N.O.N.N.0.P.Q.Q.R.S.~.,.,.T.,.7 T.J.,.U.K.V.W.X.Y.: b.3 3.*.I.Z.`.h./.l.q. +.+/ 5 ++/ _ 4.@+a.a.Y.<.Y.p.W W u.#+R.$+",
"g ~ <     ].a a a 7.a L @.%+V.@.&+Y Y Y Y Y Y *+L U M @.=+|.-+;+E E J J ..P j.D >+i._ c / / 5 ++c >+7 z.3 3 ,+I b b V V b b u.'+",
"R n )+{.. !+~+%.%.%.Y Y M {+]+^+/+~+%.Y Y Y Y Y *+*+]+M (+_+:+E E E E J J J ....#.#.P : Q 6 - 5 6 ~ f {.} < <+%.a Z Z a a a ^.%+",
"$.r }.. . ~+~+%.g.[+}+}+|+1+2+9.3+%.%.Y Y Y Y Y *+*+L M 4+:+| E * E E E J J J ......#.t.3.;+: c.>+f ] 5+5+F Y Z Z Z Z a a a ^.6+",
"n q . . } ~+7+[+8+9+0+0+a+b+c+d+5.F %.Y Y Y Z Z Z a Z ]+4+^+~ E E E E E J J T 2 2 2 8 9 9 [.z.0.D r | %.%.%.Y Y Y Z Z Z 7.a ^.C.",
"g ~ 2.} } 9.e+f+0+0+0+g+h+i+j+j+k+l+Y Y Y Y Z Z Z a a m+4+i n+* E E E E J J 1 2 2 2 8 9 9 z.v.`.>+r { %.Y Y Y Y Z Z Z a a 7.,+P.",
"% ~ ~ { } 5+o+0+0+0+0+p+q+r+s+t+u+G Y Y Y Y Z Z Z a U M 4+i & * =.< E E J J 1 2 2 1.1.n.r.C v+`.>+r i %.Y Y Y Y Z Z Z a a a ^.O.",
"~ | ~ * * w+x+0+0+0+0+0+0+s+y+z+A+B+< <       &.2 2 :.P >+* ~ E E < C+C+D+D+  2   1.7.f.@.: D 6 >+% i %.Y Y Y Z Z Z Z a a a I H.",
"| * * * * E+9+0+0+0+0+9+F+G+H+I+J+K+        2 2 2 8 6.P >+E ~ E E <         2 8 2 1.f.V N D D 6 >+& L+Y Z Z Z Z Z a a a 7.7.).6 ",
"E | * * * M+N+O+P+0+Q+R+S+T+U+V+W+X+        &.2 2 8 8 P i.J | E E <       2 2 8 8 t.V o.x.D D 6 >+& L+Y Z Z Z Z Z a a a 7.7.)._ ",
"E y { ].Y+Z+`+ @.@0++@@@#@$@%@&@*@=@V 2 a a a 1.8 8 8 [.@+-.| J J J J T 2 2 2 8 9 9 [.3 <.>+>+6 = & l+Z Z Z Z Z a 7.7.7.7.V x.G.",
"E y -@;@>@,@'@)@!@~@{@]@^@/@(@_@:@<@[@2 U e.a 1.8 8 9 [.a.-.| E J J J 1 2 8 8 8 8 3 v.<.}@= >+6 6 O ].a a a a a 7.a 7.V V V 8.G.",
"J E |@1@2@'@<@3@4@5@6@7@8@9@(@0@a@<@[@9 8 b@>.r.[.9 9 3 M.:.E ..........2 8 8 8 9 9 n.E.<.Z.}@6 _ ~ T a a a a 7.7.V V V V V 8.G.",
"J c@  d@e@f@<@g@h@i@j@k@(@l@m@n@o@<@p@[.[.;+;+j.: : I.a.q@v+^ ..#.8 8 2 8 8 8 9 9 D.^.^.K.i.@+0._ ~ U 7.7.7.7.7.7.V V V ^.^.8.h.",
"..T   r@s@t@u@v@w@x@y@j@z@A@B@C@D@E@F@@+4.Q >+D >+Q 0.G@H@4.I.^ r.3 3 9 9 9 9 9 9 [.b ^.W a.@+l.( ..; V V V V V V V V ^.b b p.q@",
"v+y.I@x.J@s@K@L@M@N@O@y@P@Q@R@S@T@U@6 h./.s. +V@w.W@X@Y@Z@- 6 = v+C 7 [.[.[.*. .3 y.8.T.U.<.0.Y@5 c.>+W U.W W W W 8.8.`@W p.C.W@",
"a.T Z Z  #.#+#@###$#%#&#*#=#-#;#>#>#,#'#)#!#7.b W K.=+w.~#- _ {#_ 6 = v+v.<.]#>+= Q ^#Q _ - 5 ++c = ^ J * L+l+Z a 7.V ^.^.b /#5 ",
"2 [ %.%.(#_#:#<#[#}#n |#1#2#3#4#>#>#5#6#6#6#)#)#6#7#8#../ 6 : j.;+;+ .3.[.[.*.^ ;+;+;+j.D Q  +5 D $.s R 9#n 7#6#!#~+%.Y Y Z M =+",
"[ [ %.%.0#a#b#c#d#e#f#g#h#i#j#k#l#>#m#6#n#o#p#!#9.q#B #._ #.| ~ ~ | }.2.} . { * B E :+L+K #.y.r#s#$.e )+| 2.9.F l+Y Y l+Z Z V |.",
"} [ %.%.0#t#u#v#w#x#y#z#A#B#C#D#E#F#G#[ B < _.`     ].]+H#K :+E < < -.        2 2 U 7.7.7.@.b 6+^ n }.[ [ [ [ [ < < < =.Z Z V I#",
"[ [ %.%.0#t#J#K#L#M#N#O#P#Q#R#S#T#U#[ < < <       2 ].]+V#K J J -.        2 2 2 2 U 7.V V V b #+^ % } [ [ [ < < < [ < ` Z Z V W#",
"} [ F %.0#t#X#Y#Z#`#`#`# $.$+$@$#$* [ < < <       &.].M {+2.* J J         2 2 2 2 2 7.V V V b O.$$% { [ [ [ < < < `   ` Z Z V W#",
"=.* < < %$&$*$=$-$;$;$>$,$'$)$!$~$B < < < <   ` Z a K P 6 } [     Z Z ].  2 2 2 8 8 8 8 E.E.y.M.y.{.[ [ < < l+Y g.g.g.Z a a ^.X.",
"E E <   {$]$^$/$($_$:$<$[$}$|$%#1$=.< < < <   &.a a U *._ B {   ` Z Z H   2 2 8 8 8 8 9 9 [.z.M.z.} < [ < < Y Z Z Z Z a a a V r#",
"..c@      _.2$3$4$5$6$7$8$9$0$a$E E <     T   &.a 7.(.;+_ 9     ].a a a 2 9 8 8 8 8 9 9 9 3 v.M.C } _.< < < Z Z Z Z a a a 7.V w.",
"#.........1 b$c$d$e$f$g$h$h$h$i$g.      ].a a a 7.V n.3 0.[.2 8 1.7.7.7.2 8 9 9 9 9 [.[.E.8.p.F@= | _.Z Z Z Y Z Z Z a a 7.a ^. +",
"^ #.......2 j$k$l$`#m$n$o$p$q$r$s$2 2 2 U 7.a 7.V V n.3 q@[.2 8 (.7.7.>.9 [.9 9 9 9 [.[.I@p.t$R.Q ~ _.Z Z Z a Z a 7.a 7.7.7.o.X.",
"j.#.#...#.2 ..u$v$w$x$y$z$A$B$*   2 2 2 1.7.7.7.V V I <.H@z.3.r.r.D.D.E.3 v.<.<.<.<.b.3 I@p.t$C$_ | :+Z Z Z a a a a a 7.7.7.D$X.",
"= ^ j.P ^ 8 E$F$F$G$H$I$h$h$J$K$6.:.2 2 2 8 9 L$[.I@a.( - >+>+= = = }@= 4.G./._ _ 6 >+I.7 M$S.q@l...:.Z a a a a 7.7.7.7.V V D$ +",
"_ >+D : : b.N$F$O$P$Q$R$S$T$U$= ;+r.9 9 9 9 [.V$z.@+H@5 / _ Q 6 6 6 6 6 6 _ _ _ _ _ _ _ Q Z.M. +( : t.7.7.7.7.7.7.V V V V ^.8.4 ",
"b.^ W$r.^ 9 X$F$Y$Z$Q$`$ %( 6 >+D Y.Y.Y.Y.M$}@@+M.0./.X.++ += >+>+}@}@}@.%.%}@D Y.D >+i.4.0.+%4 - >+7 T.8.W 8.8.8.W W 8.p.u.#+@%",
"< 2 (.U ].:+#%F$$%U %%&%*%- *.    ` H a a a 7.V D.o.^.I t$=%9 9 r.D.V V V D.D.D.D.D.D.I x.W Q.W.]+i ^+-%Y Z Z Z a a a 7.7.V b $+",
"} ;%q#%.Y >%F$F$,%'%a _+D _ 2 < &.H a Z Z a a 7.7.a 7.V p.~.9 9 n.7.7.7.a 7.V V 7.7.V V V Z W %+L *+*+Z Y Z Z Z a a a 7.7.7.).X.",
"} } ~+~+%.)%!%F$~%{%Z ]%;+6   <   ].Z a a a a 7.7.a V V u.K.9 9 D.V V 7.a 7.7.7.7.7.V V (.~+^.R.^+*+*+Z Z Z Z Z a a 7.7.7.V ^.s.",
"| | %.%.%.%.^%/%/%(%7.8 *.M.T < 2 U a a a a a 7.7.7.V V u._%[.9 9 n.y.8 8 8 1.7.7.7.V V V L+-+/._.    Z Z Z Z Z a a a V 7.7.^.s.",
"* | %.%.%.Y Y %.Y Y (.n.I@M.    2 U a a 7.7.7.7.7.7.V V u._%I@3 I@3 <.9 9 8 1.7.7.7.V V D.*.: /.<   ` Z Z Z Z Z a a a V 7.V b s.",
"| * %.%.%.Y Y Y Y Y 7.n.3 0.2   2 U a a a 7.7.7.7.7.V ^.t$=%3 z.,.@+M.v.9 8 1.7.7.7.V ^.I ;+C :%<   ` Z Z Z a a a 7.7.7.V V b - ",
"{ [ [ B G l+Y Y Z Y V E.z.0.2 2 8 U a 7.7.7.7.7.V V ^.^.t$<%8.[%u.^.(.8.r.9 n.V V V V ^.^.b A.P._.  ].a a a a a 7.7.V V V V b X.",
"} [ [ [ < Y Y Y Z Z o.*.z.0.2 2 8 U a 7.7.7.7.7.V V b b #+#+8.p.^.7.7.>.[.9 n.V V V V ^.b }%p.P.<   T a a a a a 7.7.V ^.^.^.8.+%",
"} < < < < Y Y Z Z Z ^.I@v.h.8 2 8 (.7.7.V V V V V ^.b x.6+6+u.W V 7.V 1.I@9 n.V ^.^.^.b b W u.C.< 2 &.a 7.7.7.7.7.V V b ^.^.8.|%",
"} <       Z Z Z a a ^.x.v.q@9 2 8 (.V V V V V V ^.^.N 7 |.1%Q.#+^.V 7.>.b D.D.r.*.*.*.I@J.: }@_ J :.:.8 8 8 1.n.n.E.[.E.b b W 2%",
"< 2       Z Z Z a a b y.<.H@3 9 [.D.D.^.^.^.b b b b T.}@/ L.C.t$W b b 8.8.8.3%z.7 v.v.~.]#= 6 - #.P t.; 9 9 9 9 [.[.[.&.8.W u.Y@",
"<     T 2 ].a a 4%4%b J.@+5%M.@+a.U.W p.p.p.p.u.u.t$/#- 5 1%%.%.x.p.6%p.7%W U.v.Y.}@0.h.:%_ ( / - >+;+3 3 z.z.z.z.z.z.T.x.8.8.W#",
"]#I.I.z.*.r._+]%..:.j :% +8%:%*.1 T a a a a Z a a a ]+@..%=+_+L+].&.1.1.]%]%]%(.(.y.Y.]#]#9%=+V@=+% r % z q q q q & q z 0%0%)#(.",
"P ....J T ..#.......P ;+= 5 ^ ....U a a a Z a a a 7.]+M (+=+P J -.  2 2 ....:.7.7.t.j.: : a%b%c%P 9#~ * E E E E E E E E *+*+L 4+",
"..E J J J J ........#.#.^ Q #.....].Z Z Z a a a a a a 7.4+^#E J         ..#.]%a 7.1.^ d%d%a%a%.%E $.| E E E E E J J J J L L M (+",
"            T 2 U U 7.V @.V.r.2 1   ` &.&.&.&.&.U m.]+]+b%9%@ [           1 2 &.1.(.N 8.a%a%a%9%* $.| E E E < < <       K ..#.= ",
"              2 U a 7.V ^.V.I #   <   2 2 2 2 2 2 8 (.7.b%K.@ [ <         2 2 2 8 t.V 8.8.a%a%(+* e%| E E E < < <       ..#.P = ",
"        2 2 2 2 m.V V ^.^.#+E.{.    2 2 2 2 2 2 2 2 D.M b%C {.[           2 2 2 8 8 f.b W f%g%h%* e%| E E E < < <     2 J #.P = ",
"8   2 2   &.U U 7.7.V V b 6+W${ T 2 2 2 2 2 2 2 m.1.V V p.M$<           ].U U m.1.(.V b 8.f%f%9%* e%| E E E -.-.-.    2 K U _+H#",
"8   2 2   H a a 7.7.V ^.b 6+W$....2 2 2 2 2 2 :.7.7.>.i%u.K.<           Z a a 7.7.(.V b 8.f%f%9%* e%| E E E J J J     2 a a M H#"};
