/* XPM */
static char * rigth_1_xpm[] = {
"64 64 606 2",
"  	c #5B5D5C",
". 	c #5F6160",
"+ 	c #616362",
"@ 	c #626463",
"# 	c #636564",
"$ 	c #626362",
"% 	c #626262",
"& 	c #616161",
"* 	c #5E5E5E",
"= 	c #525252",
"- 	c #4D4D4D",
"; 	c #595A59",
"> 	c #666867",
", 	c #696B6A",
"' 	c #676968",
") 	c #656666",
"! 	c #636464",
"~ 	c #606060",
"{ 	c #5E5F5F",
"] 	c #606161",
"^ 	c #585858",
"/ 	c #4A4A4A",
"( 	c #4C4C4C",
"_ 	c #4F4F4F",
": 	c #555555",
"< 	c #5C5E5D",
"[ 	c #5D5F5E",
"} 	c #5E605F",
"| 	c #5F5F5F",
"1 	c #5B5C5B",
"2 	c #5A5C5B",
"3 	c #565857",
"4 	c #494A4A",
"5 	c #494949",
"6 	c #505050",
"7 	c #555656",
"8 	c #595B5A",
"9 	c #585A59",
"0 	c #5B5D5E",
"a 	c #5A5B5D",
"b 	c #565759",
"c 	c #4B4B4B",
"d 	c #686969",
"e 	c #676868",
"f 	c #646565",
"g 	c #656565",
"h 	c #666666",
"i 	c #5E5E5F",
"j 	c #545455",
"k 	c #696A69",
"l 	c #696A6A",
"m 	c #6A6B6A",
"n 	c #676767",
"o 	c #656665",
"p 	c #646564",
"q 	c #616261",
"r 	c #636363",
"s 	c #6C6C6C",
"t 	c #6D6E6D",
"u 	c #6C6D6D",
"v 	c #6B6C6B",
"w 	c #686968",
"x 	c #656766",
"y 	c #646464",
"z 	c #616262",
"A 	c #606162",
"B 	c #5D5E5E",
"C 	c #545555",
"D 	c #545454",
"E 	c #5D5D5D",
"F 	c #5D5E5F",
"G 	c #5C5E5E",
"H 	c #5A5C5D",
"I 	c #575859",
"J 	c #5C5C5C",
"K 	c #5B5B5C",
"L 	c #5B5B5D",
"M 	c #59595B",
"N 	c #575759",
"O 	c #5F5F60",
"P 	c #595959",
"Q 	c #515151",
"R 	c #6B6B6B",
"S 	c #6D6D6D",
"T 	c #5B5C5C",
"U 	c #5A5B5C",
"V 	c #58595B",
"W 	c #545557",
"X 	c #5E5E5D",
"Y 	c #5C5D5F",
"Z 	c #5B5C5E",
"` 	c #5B5D5D",
" .	c #575857",
"..	c #5B5B5B",
"+.	c #58585B",
"@.	c #58585A",
"#.	c #5A5A5A",
"$.	c #6A6A6A",
"%.	c #5D5E60",
"&.	c #5A5C5C",
"*.	c #575858",
"=.	c #5D5E5D",
"-.	c #5C5D5C",
";.	c #626263",
">.	c #585A5B",
",.	c #545656",
"'.	c #5C5F5E",
").	c #56575A",
"!.	c #636364",
"~.	c #535555",
"{.	c #606261",
"].	c #5B5C5D",
"^.	c #57585A",
"/.	c #4E4F4F",
"(.	c #595A5B",
"_.	c #5C5D5D",
":.	c #5A5B5B",
"<.	c #535554",
"[.	c #575958",
"}.	c #606160",
"|.	c #4E4E4F",
"1.	c #595B5B",
"2.	c #5F6060",
"3.	c #585958",
"4.	c #515251",
"5.	c #5E5F5E",
"6.	c #5A5B5A",
"7.	c #595A5C",
"8.	c #555658",
"9.	c #5E5F60",
"0.	c #4F5150",
"a.	c #525453",
"b.	c #565756",
"c.	c #4E4E4E",
"d.	c #5A5B5E",
"e.	c #595A5D",
"f.	c #58595C",
"g.	c #5B5C5F",
"h.	c #4E504F",
"i.	c #515252",
"j.	c #565656",
"k.	c #5F605F",
"l.	c #4D4E4E",
"m.	c #595B5C",
"n.	c #585A5A",
"o.	c #57595A",
"p.	c #535456",
"q.	c #4D4E4D",
"r.	c #585959",
"s.	c #4D4D4E",
"t.	c #595A5A",
"u.	c #525355",
"v.	c #545655",
"w.	c #4B4C4B",
"x.	c #565758",
"y.	c #565757",
"z.	c #555756",
"A.	c #535556",
"B.	c #4F5053",
"C.	c #4E4F51",
"D.	c #58595A",
"E.	c #575959",
"F.	c #484A4A",
"G.	c #4F5050",
"H.	c #505151",
"I.	c #555655",
"J.	c #555757",
"K.	c #535455",
"L.	c #4A4A4B",
"M.	c #505251",
"N.	c #4F5151",
"O.	c #505152",
"P.	c #4E5051",
"Q.	c #4C4D4F",
"R.	c #4E4F50",
"S.	c #505252",
"T.	c #555657",
"U.	c #545556",
"V.	c #515253",
"W.	c #494A4B",
"X.	c #4C4D4D",
"Y.	c #535454",
"Z.	c #525352",
"`.	c #505150",
" +	c #4B4C4C",
".+	c #4A4B4A",
"++	c #484848",
"@+	c #515352",
"#+	c #505153",
"$+	c #484949",
"%+	c #4C4C4E",
"&+	c #5C5C5F",
"*+	c #5C5C5E",
"=+	c #4F4F50",
"-+	c #565657",
";+	c #575757",
">+	c #535353",
",+	c #565859",
"'+	c #49494B",
")+	c #626363",
"!+	c #5F6061",
"~+	c #5E5F61",
"{+	c #4F4F51",
"]+	c #5A5A5C",
"^+	c #5D5D5F",
"/+	c #5F5F61",
"(+	c #55525E",
"_+	c #4C445F",
":+	c #4B435E",
"<+	c #4A425D",
"[+	c #4A4558",
"}+	c #57565A",
"|+	c #5C5C5D",
"1+	c #5C5E5F",
"2+	c #515153",
"3+	c #5E5E60",
"4+	c #55535F",
"5+	c #473F6B",
"6+	c #3E3A84",
"7+	c #3F4191",
"8+	c #4F3C86",
"9+	c #91264D",
"0+	c #9E4249",
"a+	c #6D595A",
"b+	c #5D5F5F",
"c+	c #4F5052",
"d+	c #413A73",
"e+	c #713C81",
"f+	c #B72941",
"g+	c #B82940",
"h+	c #9F404C",
"i+	c #5E5D5D",
"j+	c #5C5D5E",
"k+	c #514C5D",
"l+	c #3F3E8C",
"m+	c #A02C51",
"n+	c #6E397C",
"o+	c #8A6293",
"p+	c #734A87",
"q+	c #5F5863",
"r+	c #5D5D5E",
"s+	c #423971",
"t+	c #4C4591",
"u+	c #E7ADA9",
"v+	c #BA7C91",
"w+	c #4E4D81",
"x+	c #545554",
"y+	c #56545B",
"z+	c #403C80",
"A+	c #CD96A0",
"B+	c #F6C7B9",
"C+	c #D57F86",
"D+	c #604D7C",
"E+	c #5B5E5D",
"F+	c #5A5D5C",
"G+	c #514D59",
"H+	c #3F3E8B",
"I+	c #795186",
"J+	c #EAB9AE",
"K+	c #E2B8AD",
"L+	c #62355C",
"M+	c #4D4B7A",
"N+	c #504C5C",
"O+	c #453C85",
"P+	c #8F4B7E",
"Q+	c #51438F",
"R+	c #394173",
"S+	c #803658",
"T+	c #D5B4AA",
"U+	c #E9B9AE",
"V+	c #8D3E53",
"W+	c #544567",
"X+	c #413871",
"Y+	c #3F4090",
"Z+	c #793766",
"`+	c #EBA6A0",
" @	c #775D94",
".@	c #8A8AB0",
"+@	c #B4BEC5",
"@@	c #816B63",
"#@	c #F4D2C0",
"$@	c #EAD2C7",
"%@	c #4F4D4D",
"&@	c #473E52",
"*@	c #534667",
"=@	c #413473",
"-@	c #3E377F",
";@	c #76325D",
">@	c #EDC6B8",
",@	c #E4B7B1",
"'@	c #5D4B91",
")@	c #D4C8CE",
"!@	c #D3D0CF",
"~@	c #D0B4A4",
"{@	c #F9D7C5",
"]@	c #F8D4C8",
"^@	c #AC9E9E",
"/@	c #422F51",
"(@	c #5A595C",
"_@	c #525353",
":@	c #514069",
"<@	c #4A2978",
"[@	c #3F3471",
"}@	c #3C2155",
"|@	c #79335D",
"1@	c #B26674",
"2@	c #984C7C",
"3@	c #ECB9B0",
"4@	c #F8D3C2",
"5@	c #F8D5C3",
"6@	c #D8868A",
"7@	c #552858",
"8@	c #58565A",
"9@	c #5C5B5C",
"0@	c #49416B",
"a@	c #4B2776",
"b@	c #4A236E",
"c@	c #3E215A",
"d@	c #493660",
"e@	c #A74D68",
"f@	c #D8898D",
"g@	c #F5CEBE",
"h@	c #F9D5C3",
"i@	c #EFBBB0",
"j@	c #ECA5A0",
"k@	c #9B4B68",
"l@	c #565659",
"m@	c #4C4E4D",
"n@	c #403770",
"o@	c #413D8D",
"p@	c #4E2B75",
"q@	c #564871",
"r@	c #979797",
"s@	c #938488",
"t@	c #985366",
"u@	c #BC5971",
"v@	c #CF898D",
"w@	c #A96C75",
"x@	c #894C65",
"y@	c #492556",
"z@	c #433356",
"A@	c #4D4F4E",
"B@	c #565858",
"C@	c #484A49",
"D@	c #453E60",
"E@	c #423986",
"F@	c #585191",
"G@	c #757DB1",
"H@	c #70738F",
"I@	c #7E7E7E",
"J@	c #A0A0A0",
"K@	c #959595",
"L@	c #C06876",
"M@	c #87797C",
"N@	c #8D668F",
"O@	c #947496",
"P@	c #564262",
"Q@	c #4D4854",
"R@	c #474948",
"S@	c #545657",
"T@	c #4A4B4B",
"U@	c #4D4E4F",
"V@	c #606061",
"W@	c #656564",
"X@	c #646566",
"Y@	c #5D5C63",
"Z@	c #4A296B",
"`@	c #7279AE",
" #	c #6B6A92",
".#	c #986F9A",
"+#	c #8E8E8E",
"@#	c #8C8C8C",
"##	c #7E7F80",
"$#	c #AA7578",
"%#	c #817878",
"&#	c #6F6F6F",
"*#	c #927793",
"=#	c #695C6A",
"-#	c #555051",
";#	c #5C4F52",
">#	c #5A5253",
",#	c #535453",
"'#	c #515152",
")#	c #525254",
"!#	c #636465",
"~#	c #626365",
"{#	c #5F5C67",
"]#	c #625E85",
"^#	c #767EB4",
"/#	c #845F8C",
"(#	c #947995",
"_#	c #8F8F8F",
":#	c #9C9C9C",
"<#	c #55575A",
"[#	c #9A769C",
"}#	c #ADADAD",
"|#	c #B5B5B5",
"1#	c #989898",
"2#	c #985169",
"3#	c #B14869",
"4#	c #A74B66",
"5#	c #625859",
"6#	c #696969",
"7#	c #5F6062",
"8#	c #535354",
"9#	c #626465",
"0#	c #6F7692",
"a#	c #7176AC",
"b#	c #7F5885",
"c#	c #887E88",
"d#	c #8E8E90",
"e#	c #76777D",
"f#	c #535155",
"g#	c #91798C",
"h#	c #969293",
"i#	c #B2B2B2",
"j#	c #909090",
"k#	c #61667E",
"l#	c #8D689C",
"m#	c #6E5D61",
"n#	c #4C4C4D",
"o#	c #575656",
"p#	c #6C7490",
"q#	c #53416B",
"r#	c #6A6B7F",
"s#	c #8D789D",
"t#	c #A5739B",
"u#	c #AB5E73",
"v#	c #C36273",
"w#	c #A55F6F",
"x#	c #908D8D",
"y#	c #6C6D81",
"z#	c #7E71AA",
"A#	c #AE4C70",
"B#	c #6B5B5E",
"C#	c #4D4F4F",
"D#	c #6C748F",
"E#	c #5C5284",
"F#	c #AA6D8D",
"G#	c #E38689",
"H#	c #E4878B",
"I#	c #D97C83",
"J#	c #E18487",
"K#	c #D87A83",
"L#	c #7E334E",
"M#	c #80486C",
"N#	c #9F5A85",
"O#	c #AF4969",
"P#	c #AC4A68",
"Q#	c #8E5363",
"R#	c #625C5D",
"S#	c #4C4E4E",
"T#	c #6B728D",
"U#	c #7278AE",
"V#	c #54426C",
"W#	c #C46D79",
"X#	c #EE9191",
"Y#	c #EB8E8F",
"Z#	c #BD707A",
"`#	c #928D8E",
" $	c #9A8D90",
".$	c #7C5962",
"+$	c #575758",
"@$	c #737DA2",
"#$	c #615D76",
"$$	c #B07982",
"%$	c #CE707D",
"&$	c #CB707C",
"*$	c #CC6E7A",
"=$	c #975664",
"-$	c #9C779A",
";$	c #A08CA1",
">$	c #A2A2A2",
",$	c #A9A9A9",
"'$	c #6F7070",
")$	c #5A5A5B",
"!$	c #725455",
"~$	c #774F6F",
"{$	c #9B929C",
"]$	c #A5858D",
"^$	c #6B6465",
"/$	c #822E3D",
"($	c #902236",
"_$	c #854148",
":$	c #77434A",
"<$	c #817777",
"[$	c #6F595B",
"}$	c #5F5A5B",
"|$	c #91323E",
"1$	c #82313E",
"2$	c #86567E",
"3$	c #847F83",
"4$	c #705B5E",
"5$	c #842739",
"6$	c #972336",
"7$	c #952336",
"8$	c #862136",
"9$	c #9C2436",
"0$	c #813842",
"a$	c #5E5A5B",
"b$	c #625358",
"c$	c #753949",
"d$	c #8B2237",
"e$	c #9E2436",
"f$	c #8F2A3B",
"g$	c #A53642",
"h$	c #943542",
"i$	c #91313F",
"j$	c #8F3942",
"k$	c #5F5958",
"l$	c #4F5051",
"m$	c #615457",
"n$	c #742D48",
"o$	c #752847",
"p$	c #7D2745",
"q$	c #892640",
"r$	c #805C8E",
"s$	c #9C5063",
"t$	c #D3797B",
"u$	c #DD8081",
"v$	c #C66569",
"w$	c #A86163",
"x$	c #515254",
"y$	c #654D54",
"z$	c #6A4953",
"A$	c #6D4351",
"B$	c #6C75B1",
"C$	c #843D62",
"D$	c #9C314B",
"E$	c #923D4D",
"F$	c #7F4C50",
"G$	c #704E50",
"H$	c #4D4E50",
"I$	c #56585A",
"J$	c #705D90",
"K$	c #5F5E67",
"L$	c #636E99",
"M$	c #715C8D",
"N$	c #7077B5",
"O$	c #6C6E9C",
"P$	c #615C5D",
"Q$	c #525454",
"R$	c #5D5456",
"S$	c #72324A",
"T$	c #6B72AC",
"U$	c #5A5E6A",
"V$	c #575957",
"W$	c #74474A",
"X$	c #9F2536",
"Y$	c #9F2436",
"Z$	c #87363E",
"`$	c #585859",
" %	c #982C3A",
".%	c #853940",
"+%	c #525253",
"@%	c #4B4D4D",
"#%	c #474848",
"$%	c #982E3C",
"%%	c #69595A",
"&%	c #5C5D60",
"*%	c #5E605E",
"=%	c #5D5F60",
"-%	c #59595A",
";%	c #96323E",
">%	c #7E4E55",
",%	c #646A92",
"'%	c #5E5B62",
")%	c #794A50",
"!%	c #983D5D",
"~%	c #93496F",
"{%	c #884147",
"]%	c #685356",
"^%	c #7D484E",
"/%	c #7B444A",
"(%	c #7B4449",
"_%	c #5D5757",
":%	c #525354",
"<%	c #515353",
"[%	c #4F504F",
"}%	c #505253",
"|%	c #535557",
"1%	c #555759",
"2%	c #4A4C4C",
"3%	c #4B4C4D",
"4%	c #494B4B",
"5%	c #4B4D4C",
"6%	c #555758",
"7%	c #595B5D",
"8%	c #494B4A",
"9%	c #525356",
"0%	c #535457",
"a%	c #484948",
"b%	c #4B4B4C",
"c%	c #616163",
"d%	c #616264",
"e%	c #555557",
"f%	c #545456",
"g%	c #4D4D4F",
"h%	c #535355",
"i%	c #555556",
"j%	c #686868",
"k%	c #565658",
"l%	c #565558",
"m%	c #535254",
"n%	c #505051",
"o%	c #57595B",
"  . + @ @ # # $ % & & * = - ; @ > , , ' ) ! ~ { { . ] ^ / ( _ : ;   < < [ } } } } { | * 1 2 3 4 5 6 7 8 9 9 9 8 2       0 a b c ",
"d e ) f # f f f g h h g i j k l l m l l d d n ) o p o q - = r s t u v m l d w > x ) g y z A B C D E B } [ [ B F [ [ [ G G H I - ",
"n ~ * * E E E J J J K L M N O ~ ~ ~ ~ | | | | * * E J P Q J R S R g & ~ | ~ | | * E E J T U V W ; X * < < < F Y Z `       2  .Q ",
"g | * * E J J J J J ..K +.@.& | | * * * * * * E E J ..#.= * $.$.y ~ | | * * * E J J J J T a V W P ~ o . } [ %.%.Y <       &.*.= ",
"% | B =.E -.J J T T ..K @.@.;.| | * [ * * * B E E J J #.= * n & | | | * * * E E J J J J T a >.,.; n ! [ [ [ %.Y Y <     ` &.I _ ",
"} '.< < <       2 2 2 U ).b !.~ * [ [ [ [ '.< E E J J #.= | g | | | * * * * J E J J J ....2 9 ~.3 + {.< [ [ Y Y Y       Z ].^./.",
"[ < < <         2 2 8 (.).b z ~ * [ [ [ [ < < _.J ....P = * g | * * * * * E E E J J ....:.8 9 <.[.}.. < < < Y Y 0 <     Z a ^.|.",
"<   < <   ` ].T &.U 1.(.).b A 2.{ [ [ [ B G ` T 1 ....3.4._.y | 5.* =.B B _._._.T T :.:.6.8 9 <. .q ] < < < Y Z Z &.&.T a 7.b |.",
"          Z Z a a a 7.7.b 8.9.. [ < < < Y Y Z &.2 2 2 [.0.T r | | [ < < <       2 2 2 8 8 9 [.a.b.% 2.<     Z Z Z a a a a a b c.",
"  2 2 2 2 H d.e.e.f.V V b W _.. < < <   ].g.d.&.2 8 8 [.h.6.% * * < < <       2 2 2 2 9 9 [.3 i.j.% k.    2 a Z Z a a 7.a 7.^.l.",
"T 1 2 8 8 1.m.1.>.n.o.^.b p.` [   < < 2 2 H &.:.8 8 8 3 q.r.& * E   <   2 2 2 8 8 8 9 9 9 [.b.h.D & * 2 8 8 1.1.7.7.7.7.V V b s.",
"t.#.8 8 8 8 8 9 9 [.[.I 8.u.U         2 2 2 8 8 8 9 9 v.w.i.J E E   < 2 2 2 2 8 8 8 9 [.3 : = ( _ ..; 8 9 n.9 9 9 V V V V V x.( ",
"Q j.y.3 3 3 3 3 z.z.z.A.B.C.D.8 1.2 :.8 8 9 8 8 9 E.z.h.F.G.P ....2 2 2 8 3.[.3 3 3 z.<.H.Q 6 / / i.I.3 3 3 3 3 J.8.8.8.8.8.K.L.",
"_ G.H.M.0.N.N.O.N.N.0.P.Q.Q.R.S.~.,.,.T.,.7 T.J.,.U.K.V.W.X.Y.: b.3 3.*.I.Z.`.h./.l.q. +.+/ 5 ++/ _ 4.@+a.a.Y.<.Y.p.W W u.#+R.$+",
"g ~ <     ].a a a 7.a L @.%+V.@.&+Y Y Y Y Y Y *+L U M @.=+|.-+;+E E J J ..P j.D >+i._ c / / 5 ++c >+7 z.3 3 ,+I b b V V b b u.'+",
"R n )+{.. !+~+%.%.%.Y Y M {+]+^+/+~+%.Y Y Y Y g.(+_+:+<+[+}+|+E E E E J J J ....#.#.P : Q 6 - 5 6 ~ f {.} < 1+%.a Z Z a a a ^.%+",
"$.r }.. . ~+~+%.%.%.Y ^+]+2+i 9.3+%.%.Y Y Y 4+5+6+7+7+7+8+9+0+a+* E E E J J J ......#.t.3.;+: c.>+f ] b+b+F Y Z Z Z Z a a a ^.c+",
"n q . . } ~+~+%.%.%.Y F ..= B [ [ F %.Y Y g.d+7+7+7+7+e+f+g+g+h+i+E E E J J T 2 2 2 8 9 9 [.z.0.D r | %.%.%.Y Y Y Z Z Z 7.a ^.C.",
"g ~ 2.} } 9.~+%.%.%.Y B ..Z.[ [ < j+Y Y Y k+l+7+7+7+7+m+n+7+o+p+q+E E E J J 1 2 2 2 8 9 9 z.v.`.>+r { %.Y Y Y Y Z Z Z a a 7.,+P.",
"% ~ ~ { } } 9.%.%.%.Y r+..Z.[ [ < G Y Y Y s+7+7+7+7+7+7+7+t+u+v+w+< E E J J 1 2 2 1.1.n.r.C x+`.>+r i %.Y Y Y Y Z Z Z a a a ^.O.",
"~ | ~ * * [ [ b+Y Y Y _.#.= =.< < < < < y+z+7+7+7+7+7+7+t+A+B+C+D+< E+E+F+F+  2   1.7.f.@.: D 6 >+% i %.Y Y Y Z Z Z Z a a a I H.",
"| * * * * [ [ < Y Y Y _.#.4.=.< < <     G+H+7+7+7+7+7+7+I+J+K+L+M+<         2 8 2 1.f.V N D D 6 >+& r+Y Z Z Z Z Z a a a 7.7.).6 ",
"E | * * * [ [ < Y Y Y _.#.4.=.< <       N+l+O+P+Q+7+7+R+S+T+U+V+W+<       2 2 8 8 t.V o.x.D D 6 >+& r+Y Z Z Z Z Z a a a 7.7.)._ ",
"E y { [ < Y Y Y Y Y Z ` 9 M.<   2 2 2 2 X+Y+Z+`+ @7+.@+@@@#@$@%@&@J J T 2 2 2 8 9 9 [.3 <.>+>+6 = & j+Z Z Z Z Z a 7.7.7.7.V x.G.",
"E y { < G Z Y Y Z Z a T 9 0.    2 8 8 *@=@-@;@>@,@'@)@!@~@{@]@^@/@(@J 1 2 8 8 8 8 3 v.<._@= >+6 6 O ].a a a a a 7.a 7.V V V 8.G.",
"J E <     Z Z Z Z a a &.9 h.8 2 1 8 8 :@<@[@}@|@1@2@3@{@{@4@5@6@7@8@....2 8 8 8 9 9 n.E.<.Z._@6 _ ~ T a a a a 7.7.V V V V V 8.G.",
"J 9@      Z Z Z a a a 2 [.h.Z.;+3.3.[.0@a@b@c@d@;.e@f@g@h@i@j@k@}@l@8 2 8 8 8 9 9 D.^.^.K.i.@+0._ ~ U 7.7.7.7.7.7.V V V ^.^.8.h.",
"..T       ].Z Z a 7.7.(.3 m@q.c.6 H.M.n@o@a@p@q@r@s@t@u@v@w@x@y@z@T.3 9 9 9 9 9 9 [.b ^.W a.@+l.( ..; V V V V V V V V ^.b b p.A@",
"x+y.B@x.3 b b b b W W U.0.C@/.Q Q G.G.D@E@F@G@H@I@J@K@L@M@N@O@P@Q@C 7 [.[.[.*. .3 y.8.T.U.<.0.R@5 c.>+W U.W W W W 8.8.S@W p.C.T@",
"a.T Z Z Z Z Z Z Z a a 7.x.U@V@y W@X@X@Y@Z@`@ #.#+#@###$#%#&#*#=#-#;#>#x+v.<.,#>+= Q '#Q _ - 5 ++c = ^ J * r+j+Z a 7.V ^.^.b 2+5 ",
"2 [ %.%.%.%.%.Y %.Y Y Y ]+)#~ r r !#~#{#]#^#/#(#_#:#<#[#}#|#1#* 2#3#4#5#[.[.*.^ ;+;+;+j.D Q  +5 D $.s R 6#n X@~#7#~+%.Y Y Z M =+",
"[ [ %.%.%.Y Y Y %.Y Y *+]+8#V@r !.!#9#~#0#a#b#c#d#e#f#g#h#i#j#k#l#3#3#m#} . { * B E |+r+K #.y.n#o#$.e )+| 2.9.F j+Y Y j+Z Z V |.",
"} [ %.%.%.%.%.Y Y Y Z ].#.= * | | { { [ p#a#q#r#s#t#u#v#w#x#y#z#A#3#3#B#      2 2 U 7.7.7.@.b c+^ n }.[ [ [ [ [ < < < =.Z Z V C#",
"[ [ %.%.Y Y Y Y Z Z Z T #.Q * * * [ [ < D#a#E#F#G#H#I#J#K#L#M#N#O#P#Q#R#  2 2 2 2 U 7.V V V b #+^ % } [ [ [ < < < [ < ` Z Z V S#",
"} [ F %.Y Y Y Y Z Z Z T P 6 * * * * [ < T#U#V#W#X#X#X#Y#Z#`#J@ $.$        2 2 2 2 2 7.V V V b O.+$% { [ [ [ < < < `   ` Z Z V S#",
"=.* < < < ` ` ` Z Z a :.P 6 * * * B < < < @$#$$$%$&$*$=$-$;$>$,$'$Z Z ].  2 2 2 8 8 8 8 E.E.y.M.y.{.[ [ < < j+Y g.g.g.Z a a ^.X.",
"E E <   <       ].a a )$P c.* E * =.< < < !$~${$]$^$/$($_$:$<$[$}$Z Z H   2 2 8 8 8 8 9 9 [.z.M.z.} < [ < < Y Z Z Z Z a a a V n#",
"..9@            a a a :.^ c.* * E E <     |$1$2$3$4$5$6$7$8$9$0$a$a a a 2 9 8 8 8 8 9 9 9 3 v.M.C } _.< < < Z Z Z Z a a a 7.V w.",
"#.........2 2 2 2 2 8 8 [.A@< [ <       b$c$d$e$_$5$f$g$h$i$j$k$1.7.7.7.2 8 9 9 9 9 [.[.E.8.p.l$= | _.Z Z Z Y Z Z Z a a 7.a ^. +",
"^ #.......2 2 8 8 2 9 9 [.A@9 <   2 2 m$n$o$p$q$r$s$t$u$v$w$2 8 (.7.7.>.9 [.9 9 9 9 [.[.B@p.x$R.Q ~ _.Z Z Z a Z a 7.a 7.7.7.o.X.",
"j.#.#...#.2 2 8 8 8 9 9 3 m@`.8   2 2 y$o$o$z$A$B$C$D$E$F$G$3.r.r.D.D.E.3 v.<.<.<.<.b.3 B@p.x$H$_ | |+Z Z Z a a a a a 7.7.7.I$X.",
"= ^ j.P ^ 8 8 8 8 9 3. .>+( c.b.6.:.2 y$o$J$K$1 L$M$N$O$P$D >+= = = _@= 4.G./._ _ 6 >+I.7 Q$S.A@l...:.Z a a a a 7.7.7.7.V V I$ +",
"_ >+D : : b.3 3 3 v.@+Q ( c - = ;+r.9 R$S$T$U$V$z.W$X$Y$Z$_ Q 6 6 6 6 6 6 _ _ _ _ _ _ _ Q Z.M. +( : t.7.7.7.7.7.7.V V V V ^.8.4 ",
"b.^ `$r.^ 9 9 [.*.z.M.l.c c 6 >+D Y.Y.Y.Y.Q$_@@+M.0. %Y$.% += >+>+_@_@_@+%+%_@D Y.D >+i.4.0.@%4 - >+7 T.8.W 8.8.8.W W 8.p.u.#+#%",
"< 2 (.U ].0 Z ].a U 1.;+6 - *.    ` H a a a 7.V D.o.$%Y$%%Y.9 9 r.D.V V V D.D.D.D.D.D.I x.W Q.W.]+i ^+&%Y Z Z Z a a a 7.7.V b $+",
"} *%=%%.Y Y Z Y Y a a -%D _ 2 < &.H a Z Z a a 7.7.a ;%Y$>%,%'%9 n.7.7.7.a 7.V V 7.7.V V V Z W %+L *+*+Z Y Z Z Z a a a 7.7.7.).X.",
"} } ~+~+%.%.%.Y Z Y Z )$;+6   <   ].Z a a a a 7.7.a )%Y$!%~%{%9 D.V V 7.a 7.7.7.7.7.V V (.~+^.R.^+*+*+Z Z Z Z Z a a 7.7.7.V ^.s.",
"| | %.%.%.%.%.%.Y Y 7.8 *.M.T < 2 U a a a a a 7.7.7.]%^%/%(%_%9 9 n.y.8 8 8 1.7.7.7.V V V r+-+/._.    Z Z Z Z Z a a a V 7.7.^.s.",
"* | %.%.%.Y Y %.Y Y (.n.B@M.    2 U a a 7.7.7.7.7.7.V V u.:%B@3 B@3 <.9 9 8 1.7.7.7.V V D.*.: /.<   ` Z Z Z Z Z a a a V 7.V b s.",
"| * %.%.%.Y Y Y Y Y 7.n.3 0.2   2 U a a a 7.7.7.7.7.V ^.x$<%3 z.,.@+M.v.9 8 1.7.7.7.V ^.I ;+C [%<   ` Z Z Z a a a 7.7.7.V V b - ",
"{ [ [ B G j+Y Y Z Y V E.z.0.2 2 8 U a 7.7.7.7.7.V V ^.^.x$}%8.|%u.^.(.8.r.9 n.V V V V ^.^.b A.P._.  ].a a a a a 7.7.V V V V b X.",
"} [ [ [ < Y Y Y Z Z o.*.z.0.2 2 8 U a 7.7.7.7.7.V V b b #+#+8.p.^.7.7.>.[.9 n.V V V V ^.b 1%p.P.<   T a a a a a 7.7.V ^.^.^.8.@%",
"} < < < < Y Y Z Z Z ^.B@v.h.8 2 8 (.7.7.V V V V V ^.b x.c+c+u.W V 7.V 1.B@9 n.V ^.^.^.b b W u.C.< 2 &.a 7.7.7.7.7.V V b ^.^.8.2%",
"} <       Z Z Z a a ^.x.v.A@9 2 8 (.V V V V V V ^.^.N 7 |.3%Q.#+^.V 7.>.b D.D.r.*.*.*.B@J.: _@_ J :.:.8 8 8 1.n.n.E.[.E.b b W 4%",
"< 2       Z Z Z a a b y.<.5%3 9 [.D.D.^.^.^.b b b b T._@/ L.C.x$W b b 8.8.8.6%z.7 v.v.~.,#= 6 - #.P t.; 9 9 9 9 [.[.[.&.8.W u.R@",
"<     T 2 ].a a 7%7%b J.@+8%M.@+a.U.W p.p.p.p.u.u.x$2+- 5 3%%.%.x.p.9%p.0%W U.v.Y._@0.h.[%_ ( / - >+;+3 3 z.z.z.z.z.z.T.x.8.8.S#",
",#I.I.z.*.r.-%)$..:.j [% +a%[%*.1 T a a a a Z a a a ]+@.+%=+-%r+].&.1.1.)$)$)$(.(.y.Y.,#,#8#=+b%=+% r % z q q q q & q z c%c%d%(.",
"P ....J T ..#.......P ;+= 5 ^ ....U a a a Z a a a 7.]+M )#=+P J -.  2 2 ....:.7.7.t.j.: : e%f%g%P 6#~ * E E E E E E E E *+*+L h%",
"..E J J J J ........#.#.^ Q #.....].Z Z Z a a a a a a 7.h%'#E J         ..#.)$a 7.1.^ i%i%e%e%+%E $.| E E E E E J J J J L L M )#",
"            T 2 U U 7.V @.V.r.2 1   ` &.&.&.&.&.U m.]+]+f%8#@ [           1 2 &.1.(.N 8.e%e%e%8#* $.| E E E < < <       K ..#.= ",
"              2 U a 7.V ^.V.I #   <   2 2 2 2 2 2 8 (.7.f%K.@ [ <         2 2 2 8 t.V 8.8.e%e%)#* j%| E E E < < <       ..#.P = ",
"        2 2 2 2 m.V V ^.^.#+E.{.    2 2 2 2 2 2 2 2 D.M f%C {.[           2 2 2 8 8 f.b W k%l%m%* j%| E E E < < <     2 J #.P = ",
"8   2 2   &.U U 7.7.V V b c+`${ T 2 2 2 2 2 2 2 m.1.V V p.Q$<           ].U U m.1.(.V b 8.k%k%8#* j%| E E E -.-.-.    2 K U -%n%",
"8   2 2   H a a 7.7.V ^.b c+`$....2 2 2 2 2 2 :.7.7.>.o%u.K.<           Z a a 7.7.(.V b 8.k%k%8#* j%| E E E J J J     2 a a M n%"};
