/* XPM */
static char * rigth_3_xpm[] = {
"64 64 589 2",
"  	c #5B5D5C",
". 	c #5F6160",
"+ 	c #616362",
"@ 	c #626463",
"# 	c #636564",
"$ 	c #626362",
"% 	c #626262",
"& 	c #616161",
"* 	c #5E5E5E",
"= 	c #525252",
"- 	c #4D4D4D",
"; 	c #595A59",
"> 	c #666867",
", 	c #696B6A",
"' 	c #676968",
") 	c #656666",
"! 	c #636464",
"~ 	c #606060",
"{ 	c #5E5F5F",
"] 	c #606161",
"^ 	c #585858",
"/ 	c #4A4A4A",
"( 	c #4C4C4C",
"_ 	c #4F4F4F",
": 	c #555555",
"< 	c #5C5E5D",
"[ 	c #5D5F5E",
"} 	c #5E605F",
"| 	c #5F5F5F",
"1 	c #5B5C5B",
"2 	c #5A5C5B",
"3 	c #565857",
"4 	c #494A4A",
"5 	c #494949",
"6 	c #505050",
"7 	c #555656",
"8 	c #595B5A",
"9 	c #585A59",
"0 	c #5B5D5E",
"a 	c #5A5B5D",
"b 	c #565759",
"c 	c #4B4B4B",
"d 	c #686969",
"e 	c #676868",
"f 	c #646565",
"g 	c #656565",
"h 	c #666666",
"i 	c #5E5E5F",
"j 	c #545455",
"k 	c #696A69",
"l 	c #696A6A",
"m 	c #6A6B6A",
"n 	c #676767",
"o 	c #656665",
"p 	c #646564",
"q 	c #616261",
"r 	c #636363",
"s 	c #6C6C6C",
"t 	c #6D6E6D",
"u 	c #6C6D6D",
"v 	c #6B6C6B",
"w 	c #686968",
"x 	c #656766",
"y 	c #646464",
"z 	c #616262",
"A 	c #606162",
"B 	c #5D5E5E",
"C 	c #545555",
"D 	c #545454",
"E 	c #5D5D5D",
"F 	c #5D5E5F",
"G 	c #5C5E5E",
"H 	c #5A5C5D",
"I 	c #575859",
"J 	c #5C5C5C",
"K 	c #5B5B5C",
"L 	c #5B5B5D",
"M 	c #59595B",
"N 	c #575759",
"O 	c #5F5F60",
"P 	c #595959",
"Q 	c #515151",
"R 	c #6B6B6B",
"S 	c #6D6D6D",
"T 	c #5B5C5C",
"U 	c #5A5B5C",
"V 	c #58595B",
"W 	c #545557",
"X 	c #5E5E5D",
"Y 	c #5C5D5F",
"Z 	c #5B5C5E",
"` 	c #5B5D5D",
" .	c #575857",
"..	c #5B5B5B",
"+.	c #58585B",
"@.	c #58585A",
"#.	c #5A5A5A",
"$.	c #6A6A6A",
"%.	c #5D5E60",
"&.	c #5A5C5C",
"*.	c #575858",
"=.	c #5D5E5D",
"-.	c #5C5D5C",
";.	c #626263",
">.	c #585A5B",
",.	c #545656",
"'.	c #5C5F5E",
").	c #56575A",
"!.	c #636364",
"~.	c #535555",
"{.	c #606261",
"].	c #5B5C5D",
"^.	c #57585A",
"/.	c #4E4F4F",
"(.	c #595A5B",
"_.	c #5C5D5D",
":.	c #5A5B5B",
"<.	c #535554",
"[.	c #575958",
"}.	c #606160",
"|.	c #4E4E4F",
"1.	c #595B5B",
"2.	c #5F6060",
"3.	c #585958",
"4.	c #515251",
"5.	c #5E5F5E",
"6.	c #5A5B5A",
"7.	c #595A5C",
"8.	c #555658",
"9.	c #5E5F60",
"0.	c #4F5150",
"a.	c #525453",
"b.	c #565756",
"c.	c #4E4E4E",
"d.	c #5A5B5E",
"e.	c #595A5D",
"f.	c #58595C",
"g.	c #5B5C5F",
"h.	c #4E504F",
"i.	c #515252",
"j.	c #565656",
"k.	c #5F605F",
"l.	c #4D4E4E",
"m.	c #595B5C",
"n.	c #585A5A",
"o.	c #57595A",
"p.	c #535456",
"q.	c #4D4E4D",
"r.	c #585959",
"s.	c #4D4D4E",
"t.	c #595A5A",
"u.	c #525355",
"v.	c #545655",
"w.	c #4B4C4B",
"x.	c #565758",
"y.	c #565757",
"z.	c #555756",
"A.	c #535556",
"B.	c #4F5053",
"C.	c #4E4F51",
"D.	c #58595A",
"E.	c #575959",
"F.	c #484A4A",
"G.	c #4F5050",
"H.	c #505151",
"I.	c #555655",
"J.	c #555757",
"K.	c #535455",
"L.	c #4A4A4B",
"M.	c #505251",
"N.	c #4F5151",
"O.	c #505152",
"P.	c #4E5051",
"Q.	c #4C4D4F",
"R.	c #4E4F50",
"S.	c #505252",
"T.	c #555657",
"U.	c #545556",
"V.	c #515253",
"W.	c #494A4B",
"X.	c #4C4D4D",
"Y.	c #535454",
"Z.	c #525352",
"`.	c #505150",
" +	c #4B4C4C",
".+	c #4A4B4A",
"++	c #484848",
"@+	c #515352",
"#+	c #505153",
"$+	c #484949",
"%+	c #4C4C4E",
"&+	c #5C5C5F",
"*+	c #5C5C5E",
"=+	c #4F4F50",
"-+	c #565657",
";+	c #575757",
">+	c #535353",
",+	c #545456",
"'+	c #4A445B",
")+	c #48415C",
"!+	c #545359",
"~+	c #555559",
"{+	c #49494B",
"]+	c #626363",
"^+	c #5F6061",
"/+	c #5E5F61",
"(+	c #4F4F51",
"_+	c #5A5A5C",
":+	c #5D5D5F",
"<+	c #5F5F61",
"[+	c #525254",
"}+	c #59595A",
"|+	c #5C5C5D",
"1+	c #504F50",
"2+	c #504A5F",
"3+	c #413979",
"4+	c #3F408F",
"5+	c #3F4191",
"6+	c #47408F",
"7+	c #72316B",
"8+	c #9A3246",
"9+	c #8C4C51",
"0+	c #515153",
"a+	c #5E5E60",
"b+	c #535355",
"c+	c #4B4456",
"d+	c #3F3E8C",
"e+	c #A13160",
"f+	c #B9283F",
"g+	c #B82940",
"h+	c #B8283D",
"i+	c #705659",
"j+	c #4F5052",
"k+	c #403873",
"l+	c #75397B",
"m+	c #982E59",
"n+	c #49408E",
"o+	c #895D91",
"p+	c #5C478A",
"q+	c #65405C",
"r+	c #5C5D5E",
"s+	c #5A595B",
"t+	c #606061",
"u+	c #494452",
"v+	c #3F3E8B",
"w+	c #EBA4A0",
"x+	c #AD93A6",
"y+	c #3E377F",
"z+	c #56555C",
"A+	c #565859",
"B+	c #5D5D5E",
"C+	c #545554",
"D+	c #443D64",
"E+	c #3F4190",
"F+	c #82598F",
"G+	c #F8D4C3",
"H+	c #DFA5A4",
"I+	c #594689",
"J+	c #49405E",
"K+	c #5D5F5F",
"L+	c #5B5E5D",
"M+	c #5A5D5C",
"N+	c #40366F",
"O+	c #3F3F8E",
"P+	c #4B3D76",
"Q+	c #7C4764",
"R+	c #C89B98",
"S+	c #F7D3C2",
"T+	c #A4727B",
"U+	c #493F8A",
"V+	c #494162",
"W+	c #535354",
"X+	c #403772",
"Y+	c #3E3C87",
"Z+	c #6E3560",
"`+	c #7E4883",
" @	c #3E408F",
".@	c #7B4E69",
"+@	c #863A52",
"@@	c #A2737C",
"#@	c #F3D2C1",
"$@	c #BD757B",
"%@	c #662E54",
"&@	c #473F5A",
"*@	c #545256",
"=@	c #4B4455",
"-@	c #3D3172",
";@	c #3D2C69",
">@	c #C68288",
",@	c #CA8B99",
"'@	c #444592",
")@	c #A189A0",
"!@	c #DFECF3",
"~@	c #585E61",
"{@	c #D2B3A5",
"]@	c #F9D7C5",
"^@	c #AFA5A3",
"/@	c #231134",
"(@	c #493E58",
"_@	c #4D2F6E",
":@	c #442263",
"<@	c #3E3376",
"[@	c #3C2155",
"}@	c #C48E90",
"|@	c #F6D1C1",
"1@	c #AD7C98",
"2@	c #DCABAE",
"3@	c #FEFAF8",
"4@	c #A2948C",
"5@	c #F3D2C0",
"6@	c #E6CAC7",
"7@	c #5B4D5B",
"8@	c #483E58",
"9@	c #525353",
"0@	c #4A3961",
"a@	c #4C2372",
"b@	c #3D2357",
"c@	c #5D2A5B",
"d@	c #904B67",
"e@	c #B56876",
"f@	c #EA9A97",
"g@	c #F8D3C2",
"h@	c #F9D5C4",
"i@	c #F3BDB1",
"j@	c #9B4B68",
"k@	c #504B59",
"l@	c #585A5C",
"m@	c #4F4D54",
"n@	c #3F3B80",
"o@	c #46286F",
"p@	c #492B70",
"q@	c #574F63",
"r@	c #4C425A",
"s@	c #B4566F",
"t@	c #EFB8AE",
"u@	c #F9D4C3",
"v@	c #F5C9BA",
"w@	c #DFABA6",
"x@	c #B46676",
"y@	c #492756",
"z@	c #55555A",
"A@	c #5C5B5C",
"B@	c #4D4F4E",
"C@	c #4C4755",
"D@	c #3F3470",
"E@	c #473760",
"F@	c #4B2371",
"G@	c #5D518D",
"H@	c #656390",
"I@	c #949496",
"J@	c #7F7F7F",
"K@	c #945465",
"L@	c #BC5971",
"M@	c #CD8287",
"N@	c #BA757D",
"O@	c #754960",
"P@	c #3D2455",
"Q@	c #504C59",
"R@	c #4C4E4D",
"S@	c #4B4D4C",
"T@	c #525354",
"U@	c #4E3869",
"V@	c #7781AF",
"W@	c #8F6295",
"X@	c #7E777E",
"Y@	c #989898",
"Z@	c #696969",
"`@	c #AC4F6A",
" #	c #815C77",
".#	c #999499",
"+#	c #816684",
"@#	c #55525C",
"##	c #565858",
"$#	c #484A49",
"%#	c #4B4B4C",
"&#	c #4A4B4B",
"*#	c #494A49",
"=#	c #474948",
"-#	c #454746",
";#	c #524F5A",
">#	c #4E3273",
",#	c #7379AF",
"'#	c #735782",
")#	c #A368A5",
"!#	c #878287",
"~#	c #7B7B7B",
"{#	c #D28083",
"]#	c #8F6084",
"^#	c #7A6F7A",
"/#	c #B195B3",
"(#	c #727373",
"_#	c #545657",
":#	c #4D4E4F",
"<#	c #656564",
"[#	c #646566",
"}#	c #636465",
"|#	c #616264",
"1#	c #5F6062",
"2#	c #464746",
"3#	c #4F4E4E",
"4#	c #535453",
"5#	c #515152",
"6#	c #636B89",
"7#	c #7176AC",
"8#	c #825987",
"9#	c #947995",
"0#	c #838383",
"a#	c #767676",
"b#	c #755C77",
"c#	c #8A708B",
"d#	c #909090",
"e#	c #A7A7A7",
"f#	c #6C6D6E",
"g#	c #626365",
"h#	c #646465",
"i#	c #636C8A",
"j#	c #705E7B",
"k#	c #76727D",
"l#	c #6F6C71",
"m#	c #767697",
"n#	c #9F6FA5",
"o#	c #9F969B",
"p#	c #9E9A9B",
"q#	c #B7B7B7",
"r#	c #A9999C",
"s#	c #6B5D62",
"t#	c #626465",
"u#	c #626364",
"v#	c #616263",
"w#	c #606062",
"x#	c #5D5F60",
"y#	c #69718D",
"z#	c #6E70A7",
"A#	c #9B729F",
"B#	c #AB678C",
"C#	c #B24969",
"D#	c #A97890",
"E#	c #BD6B78",
"F#	c #A56373",
"G#	c #BBB7B8",
"H#	c #AB8D94",
"I#	c #A74C67",
"J#	c #665C60",
"K#	c #505051",
"L#	c #69718E",
"M#	c #B85B74",
"N#	c #EB8E8F",
"O#	c #DA7C84",
"P#	c #E08288",
"Q#	c #DD8789",
"R#	c #917B82",
"S#	c #876082",
"T#	c #B14869",
"U#	c #6C5C5F",
"V#	c #4D4F4F",
"W#	c #505052",
"X#	c #5F6374",
"Y#	c #7782B5",
"Z#	c #594579",
"`#	c #A45F6E",
" $	c #E78A8C",
".$	c #EA8D8F",
"+$	c #C76878",
"@$	c #71698F",
"#$	c #83596A",
"$$	c #8E5564",
"%$	c #635D5E",
"&$	c #4C4E4E",
"*$	c #6B708F",
"=$	c #937498",
"-$	c #8C5D6D",
";$	c #9D4F65",
">$	c #A77987",
",$	c #A6818A",
"'$	c #B08F97",
")$	c #BAA8AC",
"!$	c #907191",
"~$	c #9C979A",
"{$	c #8B4950",
"]$	c #7E4B4F",
"^$	c #8B698C",
"/$	c #9E889F",
"($	c #9D9D9D",
"_$	c #A0A0A0",
":$	c #A3A3A3",
"<$	c #735155",
"[$	c #5A5A5B",
"}$	c #5B5958",
"|$	c #959393",
"1$	c #954D53",
"2$	c #C66D70",
"3$	c #D07275",
"4$	c #975458",
"5$	c #7E4D65",
"6$	c #8E788C",
"7$	c #9A969A",
"8$	c #8C7F80",
"9$	c #6A5055",
"0$	c #4C4C4D",
"a$	c #75494C",
"b$	c #943741",
"c$	c #D7797B",
"d$	c #DE8082",
"e$	c #C66569",
"f$	c #B4585E",
"g$	c #95333F",
"h$	c #88444A",
"i$	c #82484E",
"j$	c #605A5C",
"k$	c #764248",
"l$	c #B1686B",
"m$	c #A43240",
"n$	c #9F2436",
"o$	c #982438",
"p$	c #C7696D",
"q$	c #D17275",
"r$	c #735F61",
"s$	c #515254",
"t$	c #833743",
"u$	c #8F263E",
"v$	c #8C263F",
"w$	c #91263D",
"x$	c #9D2437",
"y$	c #A84651",
"z$	c #B36C71",
"A$	c #6B6062",
"B$	c #982C3A",
"C$	c #884166",
"D$	c #78445E",
"E$	c #7F4C50",
"F$	c #803347",
"G$	c #6B4351",
"H$	c #56585A",
"I$	c #595B59",
"J$	c #525454",
"K$	c #952E3B",
"L$	c #9D2637",
"M$	c #8E3C45",
"N$	c #9F2536",
"O$	c #825470",
"P$	c #615B5C",
"Q$	c #575957",
"R$	c #5F4749",
"S$	c #6A4447",
"T$	c #7E414B",
"U$	c #892640",
"V$	c #782846",
"W$	c #664E55",
"X$	c #585859",
"Y$	c #525253",
"Z$	c #4B4D4D",
"`$	c #6B3C4D",
" %	c #752847",
".%	c #732D48",
"+%	c #595155",
"@%	c #474848",
"#%	c #515353",
"$%	c #63565B",
"%%	c #742D49",
"&%	c #615B66",
"*%	c #5E605E",
"=%	c #61565B",
"-%	c #73314A",
";%	c #706196",
">%	c #626789",
",%	c #674B55",
"'%	c #635259",
")%	c #4F504F",
"!%	c #505253",
"~%	c #535557",
"{%	c #555759",
"]%	c #4A4C4C",
"^%	c #4B4C4D",
"/%	c #494B4B",
"(%	c #555758",
"_%	c #595B5D",
":%	c #494B4A",
"<%	c #525356",
"[%	c #535457",
"}%	c #484948",
"|%	c #616163",
"1%	c #555557",
"2%	c #4D4D4F",
"3%	c #555556",
"4%	c #686868",
"5%	c #565658",
"6%	c #565558",
"7%	c #535254",
"8%	c #57595B",
"  . + @ @ # # $ % & & * = - ; @ > , , ' ) ! ~ { { . ] ^ / ( _ : ;   < < [ } } } } { | * 1 2 3 4 5 6 7 8 9 9 9 8 2       0 a b c ",
"d e ) f # f f f g h h g i j k l l m l l d d n ) o p o q - = r s t u v m l d w > x ) g y z A B C D E B } [ [ B F [ [ [ G G H I - ",
"n ~ * * E E E J J J K L M N O ~ ~ ~ ~ | | | | * * E J P Q J R S R g & ~ | ~ | | * E E J T U V W ; X * < < < F Y Z `       2  .Q ",
"g | * * E J J J J J ..K +.@.& | | * * * * * * E E J ..#.= * $.$.y ~ | | * * * E J J J J T a V W P ~ o . } [ %.%.Y <       &.*.= ",
"% | B =.E -.J J T T ..K @.@.;.| | * [ * * * B E E J J #.= * n & | | | * * * E E J J J J T a >.,.; n ! [ [ [ %.Y Y <     ` &.I _ ",
"} '.< < <       2 2 2 U ).b !.~ * [ [ [ [ '.< E E J J #.= | g | | | * * * * J E J J J ....2 9 ~.3 + {.< [ [ Y Y Y       Z ].^./.",
"[ < < <         2 2 8 (.).b z ~ * [ [ [ [ < < _.J ....P = * g | * * * * * E E E J J ....:.8 9 <.[.}.. < < < Y Y 0 <     Z a ^.|.",
"<   < <   ` ].T &.U 1.(.).b A 2.{ [ [ [ B G ` T 1 ....3.4._.y | 5.* =.B B _._._.T T :.:.6.8 9 <. .q ] < < < Y Z Z &.&.T a 7.b |.",
"          Z Z a a a 7.7.b 8.9.. [ < < < Y Y Z &.2 2 2 [.0.T r | | [ < < <       2 2 2 8 8 9 [.a.b.% 2.<     Z Z Z a a a a a b c.",
"  2 2 2 2 H d.e.e.f.V V b W _.. < < <   ].g.d.&.2 8 8 [.h.6.% * * < < <       2 2 2 2 9 9 [.3 i.j.% k.    2 a Z Z a a 7.a 7.^.l.",
"T 1 2 8 8 1.m.1.>.n.o.^.b p.` [   < < 2 2 H &.:.8 8 8 3 q.r.& * E   <   2 2 2 8 8 8 9 9 9 [.b.h.D & * 2 8 8 1.1.7.7.7.7.V V b s.",
"t.#.8 8 8 8 8 9 9 [.[.I 8.u.U         2 2 2 8 8 8 9 9 v.w.i.J E E   < 2 2 2 2 8 8 8 9 [.3 : = ( _ ..; 8 9 n.9 9 9 V V V V V x.( ",
"Q j.y.3 3 3 3 3 z.z.z.A.B.C.D.8 1.2 :.8 8 9 8 8 9 E.z.h.F.G.P ....2 2 2 8 3.[.3 3 3 z.<.H.Q 6 / / i.I.3 3 3 3 3 J.8.8.8.8.8.K.L.",
"_ G.H.M.0.N.N.O.N.N.0.P.Q.Q.R.S.~.,.,.T.,.7 T.J.,.U.K.V.W.X.Y.: b.3 3.*.I.Z.`.h./.l.q. +.+/ 5 ++/ _ 4.@+a.a.Y.<.Y.p.W W u.#+R.$+",
"g ~ <     ].a a a 7.a L @.%+V.@.&+Y Y Y Y Y Y *+L U M @.=+|.-+;+E E J J ..P j.D >+i._ c / / 5 ++c >+,+'+)+)+)+!+~+b V V b b u.{+",
"R n ]+{.. ^+/+%.%.%.Y Y M (+_+:+<+/+%.Y Y Y Y Y *+*+_+M [+}+|+E E E E J J J ....#.#.P : Q 6 - 5 1+2+3+4+5+5+6+7+8+9+*+a a a ^.%+",
"$.r }.. . /+/+%.%.%.Y :+_+0+i 9.a+%.%.Y Y Y Y Y *+*+L M b+|+| E * E E E J J J ......#.t.3.;+: c.c+d+5+5+5+6+e+f+g+h+i+a a a ^.j+",
"n q . . } /+/+%.%.%.Y F ..= B [ [ F %.Y Y Y Z Z Z a Z _+b+:+~ E E E E E J J T 2 2 2 8 9 9 [.z.G.k+5+5+5+5+l+m+n+o+p+q+Z 7.a ^.C.",
"g ~ 2.} } 9./+%.%.%.Y B ..Z.[ [ < r+Y Y Y Y Z Z Z a a s+b+i t+* E E E E J J 1 2 2 2 8 9 9 z.v.u+v+5+5+5+5+5+5+o+w+x+y+z+a 7.A+P.",
"% ~ ~ { } } 9.%.%.%.Y B+..Z.[ [ < G Y Y Y Y Z Z Z a U M b+i & * =.< E E J J 1 2 2 1.1.n.r.C C+D+4+5+5+5+5+E+F+w+G+H+I+J+a a ^.O.",
"~ | ~ * * [ [ K+Y Y Y _.#.= =.< < < < <       &.2 2 :.P >+* ~ E E < L+L+M+M+  2   1.7.f.@.: D N+5+O+5+5+5+P+Q+R+S+T+U+V+a a I H.",
"| * * * * [ [ < Y Y Y _.#.4.=.< < <         2 2 2 8 6.P >+E ~ E E <         2 8 2 1.f.V N D W+X+Y+Z+`+5+ @.@+@@@#@$@%@&@7.7.).6 ",
"E | * * * [ [ < Y Y Y _.#.4.=.< <           &.2 2 8 8 P i.J | E E <       2 2 8 8 t.V o.x.*@=@-@;@>@,@'@)@!@~@{@]@^@/@(@7.7.)._ ",
"E y { [ < Y Y Y Y Y Z ` 9 M.<   2 2 2 2 a a a 1.8 8 8 [.@+-.| J J J J T 2 2 2 8 9 9 [.3 <._@:@<@[@}@|@1@2@3@4@5@]@6@7@8@7.V x.G.",
"E y { < G Z Y Y Z Z a T 9 0.    2 8 8 2 U e.a 1.8 8 9 [.a.-.| E J J J 1 2 8 8 8 8 3 v.<.9@0@a@:@b@c@d@e@f@g@]@h@G+i@j@k@V V 8.G.",
"J E <     Z Z Z Z a a &.9 h.8 2 1 8 8 9 8 l@>.r.[.9 9 3 M.:.E ..........2 8 8 8 9 9 n.E.m@n@o@a@p@a@q@r@s@t@u@v@w@x@y@z@V V 8.G.",
"J A@      Z Z Z a a a 2 [.h.Z.;+3.3.[.[.[.;+;+j.: : I.a.B@C+^ ..#.8 8 2 8 8 8 9 9 D.^.^.C@D@E@F@G@H@I@J@K@L@M@N@O@P@Q@V ^.^.8.h.",
"..T       ].Z Z a 7.7.(.3 R@q.c.6 H.M.@+4.Q >+D >+Q 0.R@S@4.I.^ r.3 3 9 9 9 9 9 9 [.b ^.W T@U@G@V@W@X@Y@Z@`@ #.#+#@#V ^.b b p.B@",
"C+y.##x.3 b b b b W W U.0.$#/.Q Q G.G.h./.s. +%#w.&#*#=#-#- 6 = C+C 7 [.[.[.*. .3 y.8.T.U.;#>#,#'#)#!#~#r {#]#^#/#(#8._#W p.C.&#",
"a.T Z Z Z Z Z Z Z a a 7.x.:#t+y <#[#[#}#|#1#7.b W K.=+w.2#- _ 3#_ 6 = C+v.<.4#>+= Q 5#Q _ - 6#7#8#9#0#a#b#c#d#e#f#].V ^.^.b 0+5 ",
"2 [ %.%.%.%.%.Y %.Y Y Y _+[+~ r r }#g#g#g#g#|#|#g#[#h#../ 6 : j.;+;+ .3.[.[.*.^ ;+;+;+j.D Q i#7#j#k#l#m#n#o#p#q#r#s#%.Y Y Z M =+",
"[ [ %.%.%.Y Y Y %.Y Y *+_+W+t+r !.}#t#g#u#v#w#1#9.x#B #._ #.| ~ ~ | }.2.} . { * B E |+B+K #.y#7#z#A#B#C#D#E#F#G#H#I#J#r+Z Z V |.",
"} [ %.%.%.%.%.Y Y Y Z ].#.= * | | { { [ B < _.`     ]._+K#K |+E < < -.        2 2 U 7.7.7.@.L#7#a@M#N#O#P#Q#O#R#S#T#U#=.Z Z V V#",
"[ [ %.%.Y Y Y Y Z Z Z T #.Q * * * [ [ < < <       2 ]._+W#K J J -.        2 2 2 2 U 7.V V V X#Y#Z#`# $.$.$.$+$@$#$$$%$` Z Z V &$",
"} [ F %.Y Y Y Y Z Z Z T P 6 * * * * [ < < <       &.].M (+2.* J J         2 2 2 2 2 7.V V V b *$=$-$;$>$,$'$)$Y@B `   ` Z Z V &$",
"=.* < < < ` ` ` Z Z a :.P 6 * * * B < < < <   ` Z a K P 6 } [     Z Z ].  2 2 2 8 8 8 8 E.E.r.!$~${$]$^$/$($_$:$<$g.g.Z a a ^.X.",
"E E <   <       ].a a [$P c.* E * =.< < < <   &.a a U *._ B {   ` Z Z H   2 2 8 8 8 8 9 9 [.}$|$1$2$3$4$5$6$7$8$9$Z Z a a a V 0$",
"..A@            a a a :.^ c.* * E E <     T   &.a 7.(.;+_ 9     ].a a a 2 9 8 8 8 8 9 9 9 3 a$b$c$d$e$e$f$g$h$i$j$Z a a a 7.V w.",
"#.........2 2 2 2 2 8 8 [.B@< [ <       ].a a a 7.V n.3 0.[.2 8 1.7.7.7.2 8 9 9 9 9 [.[.E.8.p.k$l$m$n$n$o$p$q$r$Z Z a a 7.a ^. +",
"^ #.......2 2 8 8 2 9 9 [.B@9 <   2 2 2 U 7.a 7.V V n.3 B@[.2 8 (.7.7.>.9 [.9 9 9 9 [.[.##p.s$t$u$v$w$x$n$y$z$A$a 7.a 7.7.7.o.X.",
"j.#.#...#.2 2 8 8 8 9 9 3 R@`.8   2 2 2 1.7.7.7.V V I <.S@z.3.r.r.D.D.E.3 v.<.<.<.<.b.3 ##p.s$B$n$n$C$D$E$F$G$a a a a 7.7.7.H$X.",
"= ^ j.P ^ 8 8 8 8 9 3. .>+( c.b.6.:.2 2 2 8 9 I$[.##a.( - >+>+= = = 9@= 4.G./._ _ 6 >+I.7 J$S.K$L$M$N$O$P$* L a 7.7.7.7.V V H$ +",
"_ >+D : : b.3 3 3 v.@+Q ( c - = ;+r.9 9 9 9 [.Q$z.@+S@5 / _ Q 6 6 6 6 6 6 _ _ _ _ _ _ _ Q Z.M.R$S$: T$U$V$W$7.7.7.V V V V ^.8.4 ",
"b.^ X$r.^ 9 9 [.*.z.M.l.c c 6 >+D Y.Y.Y.Y.J$9@@+M.0./.X.++ += >+>+9@9@9@Y$Y$9@D Y.D >+i.4.0.Z$4 - >+`$ %.%+%8.8.8.W W 8.p.u.#+@%",
"< 2 (.U ].0 Z ].a U 1.;+6 - *.    ` H a a a 7.V D.o.^.I s$#%9 9 r.D.V V V D.D.D.D.D.D.I x.W Q.W._+$%%% %&%g.Z Z a a a 7.7.V b $+",
"} *%x#%.Y Y Z Y Y a a }+D _ 2 < &.H a Z Z a a 7.7.a 7.V p.~.9 9 n.7.7.7.a 7.V V 7.7.V V V Z W %+L =%-% %;%>%Z Z a a a 7.7.7.).X.",
"} } /+/+%.%.%.Y Z Y Z [$;+6   <   ].Z a a a a 7.7.a V V u.K.9 9 D.V V 7.a 7.7.7.7.7.V V (./+^.R.:+*+=%,%,%'%Z Z a a 7.7.7.V ^.s.",
"| | %.%.%.%.%.%.Y Y 7.8 *.M.T < 2 U a a a a a 7.7.7.V V u.T@[.9 9 n.y.8 8 8 1.7.7.7.V V V B+-+/._.    Z Z Z Z Z a a a V 7.7.^.s.",
"* | %.%.%.Y Y %.Y Y (.n.##M.    2 U a a 7.7.7.7.7.7.V V u.T@##3 ##3 <.9 9 8 1.7.7.7.V V D.*.: /.<   ` Z Z Z Z Z a a a V 7.V b s.",
"| * %.%.%.Y Y Y Y Y 7.n.3 0.2   2 U a a a 7.7.7.7.7.V ^.s$#%3 z.,.@+M.v.9 8 1.7.7.7.V ^.I ;+C )%<   ` Z Z Z a a a 7.7.7.V V b - ",
"{ [ [ B G r+Y Y Z Y V E.z.0.2 2 8 U a 7.7.7.7.7.V V ^.^.s$!%8.~%u.^.(.8.r.9 n.V V V V ^.^.b A.P._.  ].a a a a a 7.7.V V V V b X.",
"} [ [ [ < Y Y Y Z Z o.*.z.0.2 2 8 U a 7.7.7.7.7.V V b b #+#+8.p.^.7.7.>.[.9 n.V V V V ^.b {%p.P.<   T a a a a a 7.7.V ^.^.^.8.Z$",
"} < < < < Y Y Z Z Z ^.##v.h.8 2 8 (.7.7.V V V V V ^.b x.j+j+u.W V 7.V 1.##9 n.V ^.^.^.b b W u.C.< 2 &.a 7.7.7.7.7.V V b ^.^.8.]%",
"} <       Z Z Z a a ^.x.v.B@9 2 8 (.V V V V V V ^.^.N 7 |.^%Q.#+^.V 7.>.b D.D.r.*.*.*.##J.: 9@_ J :.:.8 8 8 1.n.n.E.[.E.b b W /%",
"< 2       Z Z Z a a b y.<.S@3 9 [.D.D.^.^.^.b b b b T.9@/ L.C.s$W b b 8.8.8.(%z.7 v.v.~.4#= 6 - #.P t.; 9 9 9 9 [.[.[.&.8.W u.=#",
"<     T 2 ].a a _%_%b J.@+:%M.@+a.U.W p.p.p.p.u.u.s$0+- 5 ^%%.%.x.p.<%p.[%W U.v.Y.9@0.h.)%_ ( / - >+;+3 3 z.z.z.z.z.z.T.x.8.8.&$",
"4#I.I.z.*.r.}+[$..:.j )% +}%)%*.1 T a a a a Z a a a _+@.Y$=+}+B+].&.1.1.[$[$[$(.(.y.Y.4#4#W+=+%#=+% r % z q q q q & q z |%|%|#(.",
"P ....J T ..#.......P ;+= 5 ^ ....U a a a Z a a a 7._+M [+=+P J -.  2 2 ....:.7.7.t.j.: : 1%,+2%P Z@~ * E E E E E E E E *+*+L b+",
"..E J J J J ........#.#.^ Q #.....].Z Z Z a a a a a a 7.b+5#E J         ..#.[$a 7.1.^ 3%3%1%1%Y$E $.| E E E E E J J J J L L M [+",
"            T 2 U U 7.V @.V.r.2 1   ` &.&.&.&.&.U m._+_+,+W+@ [           1 2 &.1.(.N 8.1%1%1%W+* $.| E E E < < <       K ..#.= ",
"              2 U a 7.V ^.V.I #   <   2 2 2 2 2 2 8 (.7.,+K.@ [ <         2 2 2 8 t.V 8.8.1%1%[+* 4%| E E E < < <       ..#.P = ",
"        2 2 2 2 m.V V ^.^.#+E.{.    2 2 2 2 2 2 2 2 D.M ,+C {.[           2 2 2 8 8 f.b W 5%6%7%* 4%| E E E < < <     2 J #.P = ",
"8   2 2   &.U U 7.7.V V b j+X${ T 2 2 2 2 2 2 2 m.1.V V p.J$<           ].U U m.1.(.V b 8.5%5%W+* 4%| E E E -.-.-.    2 K U }+K#",
"8   2 2   H a a 7.7.V ^.b j+X$....2 2 2 2 2 2 :.7.7.>.8%u.K.<           Z a a 7.7.(.V b 8.5%5%W+* 4%| E E E J J J     2 a a M K#"};
