/* XPM */
static char * left_3_xpm[] = {
"64 64 687 2",
"  	c #58595B",
". 	c #5B5C5E",
"+ 	c #5C5D5F",
"@ 	c #5B5D5C",
"# 	c #5A5C5B",
"$ 	c #595B5A",
"% 	c #585A59",
"& 	c #575958",
"* 	c #545555",
"= 	c #4E4E4E",
"- 	c #474747",
"; 	c #474848",
"> 	c #5B5B5B",
", 	c #5E5E5E",
"' 	c #5F5F5F",
") 	c #5E5F5F",
"! 	c #5E605F",
"~ 	c #5D5F5E",
"{ 	c #5C5E5D",
"] 	c #565757",
"^ 	c #525252",
"/ 	c #4C4C4C",
"( 	c #4B4B4B",
"_ 	c #484848",
": 	c #585858",
"< 	c #626362",
"[ 	c #5F6160",
"} 	c #5D5E5E",
"| 	c #606060",
"1 	c #646464",
"2 	c #666767",
"3 	c #686A69",
"4 	c #6A6C6B",
"5 	c #676968",
"6 	c #626463",
"7 	c #575857",
"8 	c #4A4A4A",
"9 	c #515151",
"0 	c #616161",
"a 	c #626262",
"b 	c #636363",
"c 	c #646665",
"d 	c #636564",
"e 	c #505251",
"f 	c #58595A",
"g 	c #5A5C5D",
"h 	c #5C5E5F",
"i 	c #5C5E5E",
"j 	c #5D5F5F",
"k 	c #5E605E",
"l 	c #525353",
"m 	c #555656",
"n 	c #5F6060",
"o 	c #616363",
"p 	c #626363",
"q 	c #666666",
"r 	c #676767",
"s 	c #666867",
"t 	c #6A6B6A",
"u 	c #6A6B6B",
"v 	c #6B6C6C",
"w 	c #6C6D6C",
"x 	c #6D6F6E",
"y 	c #6E6F6F",
"z 	c #6F706F",
"A 	c #6E6E6E",
"B 	c #4F4F4F",
"C 	c #656665",
"D 	c #676868",
"E 	c #696969",
"F 	c #6A6A6A",
"G 	c #696A6A",
"H 	c #6B6C6B",
"I 	c #4F4F50",
"J 	c #616162",
"K 	c #656666",
"L 	c #686969",
"M 	c #5B5D5D",
"N 	c #5D5E5F",
"O 	c #5D5D5D",
"P 	c #5E5E5D",
"Q 	c #5A5A59",
"R 	c #535456",
"S 	c #595A5C",
"T 	c #5C5C5C",
"U 	c #6C6C6C",
"V 	c #6D6D6D",
"W 	c #595959",
"X 	c #5E5E5F",
"Y 	c #565658",
"Z 	c #58585A",
"` 	c #5A5A5C",
" .	c #5A5A5A",
"..	c #686868",
"+.	c #5D5E60",
"@.	c #676867",
"#.	c #5A5B5D",
"$.	c #5B5C5C",
"%.	c #6B6B6B",
"&.	c #575759",
"*.	c #58585B",
"=.	c #5B5B5C",
"-.	c #656565",
";.	c #5A5C5C",
">.	c #636464",
",.	c #535555",
"'.	c #646465",
").	c #5B5B5D",
"!.	c #5C5D5C",
"~.	c #5D5E5D",
"{.	c #606261",
"].	c #545655",
"^.	c #535554",
"/.	c #5C5F5E",
"(.	c #545557",
"_.	c #56575A",
":.	c #5B5D5E",
"<.	c #565857",
"[.	c #525453",
"}.	c #5A5B5B",
"|.	c #505050",
"1.	c #5C5D5D",
"2.	c #555657",
"3.	c #595A5B",
"4.	c #656766",
"5.	c #57585A",
"6.	c #606161",
"7.	c #565756",
"8.	c #5A5B5A",
"9.	c #5E5F5E",
"0.	c #4F504F",
"a.	c #595A59",
"b.	c #5B5C5B",
"c.	c #616263",
"d.	c #595B5B",
"e.	c #5A5B5C",
"f.	c #5B5C5D",
"g.	c #636463",
"h.	c #555555",
"i.	c #515352",
"j.	c #4C4E4D",
"k.	c #5E6060",
"l.	c #565759",
"m.	c #616262",
"n.	c #5F605F",
"o.	c #505151",
"p.	c #5A5B5E",
"q.	c #5B5C5F",
"r.	c #58595C",
"s.	c #595A5D",
"t.	c #5A5D5C",
"u.	c #535353",
"v.	c #4D4F4E",
"w.	c #585959",
"x.	c #4A4C4B",
"y.	c #525355",
"z.	c #57595A",
"A.	c #585A5A",
"B.	c #585A5B",
"C.	c #595B5C",
"D.	c #4D4D4D",
"E.	c #505150",
"F.	c #494B4A",
"G.	c #555756",
"H.	c #515254",
"I.	c #575859",
"J.	c #555658",
"K.	c #555757",
"L.	c #555655",
"M.	c #494949",
"N.	c #483F53",
"O.	c #4A4154",
"P.	c #4A4255",
"Q.	c #504C56",
"R.	c #4E4F4F",
"S.	c #474948",
"T.	c #4C4D4F",
"U.	c #4F5053",
"V.	c #545556",
"W.	c #565656",
"X.	c #444444",
"Y.	c #4D4E50",
"Z.	c #4F5052",
"`.	c #794244",
" +	c #75284D",
".+	c #522962",
"++	c #3D4292",
"@+	c #3F4191",
"#+	c #3E3A84",
"$+	c #3F3166",
"%+	c #4B4850",
"&+	c #545554",
"*+	c #545454",
"=+	c #4B4C4C",
"-+	c #48494A",
";+	c #525354",
">+	c #535455",
",+	c #545656",
"'+	c #525454",
")+	c #515353",
"!+	c #4E5050",
"~+	c #4C4D4E",
"{+	c #4A4B4D",
"]+	c #4C4E4F",
"^+	c #4D4F4F",
"/+	c #4E4F50",
"(+	c #4E504F",
"_+	c #535454",
":+	c #8A3C40",
"<+	c #BE2633",
"[+	c #BA283D",
"}+	c #983369",
"|+	c #404191",
"1+	c #3F4190",
"2+	c #3F3F8C",
"3+	c #524D58",
"4+	c #575757",
"5+	c #4C4C4D",
"6+	c #4E4E50",
"7+	c #5C5C5E",
"8+	c #5D5D5F",
"9+	c #5E5D60",
"0+	c #515153",
"a+	c #4A4A4C",
"b+	c #5C5D5E",
"c+	c #5E5F61",
"d+	c #616362",
"e+	c #843562",
"f+	c #733B81",
"g+	c #723C81",
"h+	c #B3242F",
"i+	c #9C3365",
"j+	c #43386C",
"k+	c #5A5A5B",
"l+	c #505052",
"m+	c #5F5F61",
"n+	c #4D4D4F",
"o+	c #5F6062",
"p+	c #4B4552",
"q+	c #5F347A",
"r+	c #F4B0A7",
"s+	c #B77491",
"t+	c #373F91",
"u+	c #5C3C85",
"v+	c #723776",
"w+	c #3E3982",
"x+	c #54505A",
"y+	c #5D5D5E",
"z+	c #5E5E60",
"A+	c #5E5F60",
"B+	c #606061",
"C+	c #433553",
"D+	c #B66D8C",
"E+	c #F9D7C5",
"F+	c #F2ACA4",
"G+	c #B27191",
"H+	c #393F91",
"I+	c #3F4192",
"J+	c #4A3E56",
"K+	c #423454",
"L+	c #CA6D7B",
"M+	c #F1A9A2",
"N+	c #F2ADA5",
"O+	c #B6738F",
"P+	c #3F387C",
"Q+	c #5C5B5D",
"R+	c #5F5F60",
"S+	c #5B5A5C",
"T+	c #433454",
"U+	c #311C54",
"V+	c #AD8085",
"W+	c #F9D5C3",
"X+	c #BB8E8E",
"Y+	c #754461",
"Z+	c #3C3173",
"`+	c #3E387F",
" @	c #8D3751",
".@	c #DF9394",
"+@	c #F6D4C3",
"@@	c #936273",
"#@	c #8F3953",
"$@	c #862844",
"%@	c #4E3F8A",
"&@	c #3D4191",
"*@	c #804280",
"=@	c #4B377C",
"-@	c #3E377F",
";@	c #5A5D5D",
">@	c #57585B",
",@	c #000000",
"'@	c #B19B98",
")@	c #BD9C92",
"!@	c #C4E2F0",
"~@	c #8C9398",
"{@	c #4F408E",
"]@	c #333D91",
"^@	c #EB9293",
"/@	c #BB5E73",
"(@	c #393276",
"_@	c #3D2D69",
":@	c #524F5D",
"<@	c #5A595C",
"[@	c #141515",
"}@	c #FCF2EF",
"|@	c #FAD8C6",
"1@	c #FDFDFD",
"2@	c #FCF9F9",
"3@	c #783D82",
"4@	c #A78FA5",
"5@	c #F8D2C1",
"6@	c #BD717E",
"7@	c #372054",
"8@	c #3C265D",
"9@	c #3F408F",
"0@	c #3D2964",
"a@	c #524C5A",
"b@	c #4F5050",
"c@	c #C78B92",
"d@	c #F6C7B8",
"e@	c #EACAB8",
"f@	c #FAE4D9",
"g@	c #F9D7C6",
"h@	c #BC6680",
"i@	c #F39E9A",
"j@	c #CE8D90",
"k@	c #864A66",
"l@	c #3A2155",
"m@	c #3C2054",
"n@	c #403E8D",
"o@	c #48276E",
"p@	c #4F5150",
"q@	c #B56170",
"r@	c #F5C3B6",
"s@	c #ECBFB4",
"t@	c #F8CFBF",
"u@	c #EE9B98",
"v@	c #B04568",
"w@	c #7B4B5F",
"x@	c #361F54",
"y@	c #3B2154",
"z@	c #3C2155",
"A@	c #3E2159",
"B@	c #4C2271",
"C@	c #4C2372",
"D@	c #585262",
"E@	c #7D4B59",
"F@	c #E3868A",
"G@	c #ECBFB3",
"H@	c #F7CCBC",
"I@	c #F9D3C2",
"J@	c #ECBCB1",
"K@	c #BB566F",
"L@	c #AA4A67",
"M@	c #6D6E6E",
"N@	c #5B5762",
"O@	c #4B2170",
"P@	c #3F215B",
"Q@	c #4C2371",
"R@	c #58535F",
"S@	c #585A5C",
"T@	c #4B4D4C",
"U@	c #655155",
"V@	c #715E62",
"W@	c #A95E6D",
"X@	c #BB6476",
"Y@	c #B14869",
"Z@	c #7A5961",
"`@	c #989495",
" #	c #9D9D9D",
".#	c #666875",
"+#	c #7A85BA",
"@#	c #4B1E70",
"##	c #48256A",
"$#	c #56545D",
"%#	c #585958",
"&#	c #515251",
"*#	c #5C5B5C",
"=#	c #695A6A",
"-#	c #807781",
";#	c #968697",
">#	c #875562",
",#	c #A44B66",
"'#	c #AAAAAA",
")#	c #919191",
"!#	c #7F7F7F",
"~#	c #858584",
"{#	c #697088",
"]#	c #5D518E",
"^#	c #544A64",
"/#	c #4D524E",
"(#	c #A66EA9",
"_#	c #6B6B6D",
":#	c #9B8E9D",
"<#	c #98626A",
"[#	c #DD8A89",
"}#	c #A3A4A4",
"|#	c #797979",
"1#	c #9B9B9B",
"2#	c #968F96",
"3#	c #8A628D",
"4#	c #6B6FA0",
"5#	c #4C2171",
"6#	c #555557",
"7#	c #434544",
"8#	c #484948",
"9#	c #494A49",
"0#	c #484949",
"a#	c #4B4B4C",
"b#	c #4C4D4D",
"c#	c #464847",
"d#	c #5C5C5D",
"e#	c #825C84",
"f#	c #B0959D",
"g#	c #BA5970",
"h#	c #B5516D",
"i#	c #735B60",
"j#	c #7C7878",
"k#	c #909090",
"l#	c #848484",
"m#	c #A666A9",
"n#	c #7481A7",
"o#	c #4C2B6C",
"p#	c #515052",
"q#	c #4E4D4D",
"r#	c #454545",
"s#	c #4D4D4E",
"t#	c #616264",
"u#	c #636466",
"v#	c #656668",
"w#	c #666768",
"x#	c #676869",
"y#	c #676766",
"z#	c #636364",
"A#	c #606163",
"B#	c #BD5B71",
"C#	c #EB8E8F",
"D#	c #B64F6C",
"E#	c #B44B6A",
"F#	c #B27785",
"G#	c #848BB2",
"H#	c #8D8D8D",
"I#	c #838383",
"J#	c #8B808B",
"K#	c #AB60AE",
"L#	c #7280A7",
"M#	c #924E5F",
"N#	c #676769",
"O#	c #666769",
"P#	c #646567",
"Q#	c #626365",
"R#	c #636362",
"S#	c #565555",
"T#	c #86495A",
"U#	c #C05E73",
"V#	c #ED9090",
"W#	c #E88B8D",
"X#	c #EF9292",
"Y#	c #D3747F",
"Z#	c #B14769",
"`#	c #8679A2",
" $	c #63625F",
".$	c #8C7F8D",
"+$	c #8C608F",
"@$	c #7B8BBC",
"#$	c #B24667",
"$$	c #666161",
"%$	c #606062",
"&$	c #626364",
"*$	c #764D59",
"=$	c #AB5C6D",
"-$	c #DC7E85",
";$	c #EE9191",
">$	c #CF707D",
",$	c #A9759B",
"'$	c #8E86B8",
")$	c #68708C",
"!$	c #503374",
"~$	c #8192C7",
"{$	c #615C5D",
"]$	c #585757",
"^$	c #A24E67",
"/$	c #AD4C68",
"($	c #C86A78",
"_$	c #E7898C",
":$	c #ED9091",
"<$	c #B6526F",
"[$	c #A4486F",
"}$	c #4E2B76",
"|$	c #945161",
"1$	c #646364",
"2$	c #575758",
"3$	c #4F5051",
"4$	c #615A5F",
"5$	c #6A5960",
"6$	c #725B63",
"7$	c #B55C72",
"8$	c #BD5C72",
"9$	c #B9546E",
"0$	c #735961",
"a$	c #523873",
"b$	c #8291C6",
"c$	c #626263",
"d$	c #4C4C4E",
"e$	c #555F79",
"f$	c #7D87B8",
"g$	c #B0B3C6",
"h$	c #B0B4C9",
"i$	c #A7ABC2",
"j$	c #A2A7BE",
"k$	c #8A90AC",
"l$	c #604E7A",
"m$	c #404F6E",
"n$	c #706A72",
"o$	c #7F83A6",
"p$	c #6D7694",
"q$	c #A33149",
"r$	c #8489AB",
"s$	c #A2A2A2",
"t$	c #AFAFAF",
"u$	c #A0A0A0",
"v$	c #9D9A9D",
"w$	c #A560A8",
"x$	c #794568",
"y$	c #715B7A",
"z$	c #717274",
"A$	c #AC88AD",
"B$	c #8E5890",
"C$	c #911F35",
"D$	c #7B7A7A",
"E$	c #9C9C9C",
"F$	c #989898",
"G$	c #989998",
"H$	c #965E98",
"I$	c #6C575F",
"J$	c #9F2536",
"K$	c #882136",
"L$	c #803542",
"M$	c #6C6364",
"N$	c #9E75A0",
"O$	c #DC8283",
"P$	c #D98888",
"Q$	c #9F474E",
"R$	c #863440",
"S$	c #7E3440",
"T$	c #80323E",
"U$	c #882438",
"V$	c #9A2738",
"W$	c #9F2838",
"X$	c #872136",
"Y$	c #862136",
"Z$	c #7E3540",
"`$	c #595B5D",
" %	c #636161",
".%	c #722D47",
"+%	c #6F2044",
"@%	c #A85764",
"#%	c #DB7F83",
"$%	c #D17274",
"%%	c #8C1A32",
"&%	c #D1787B",
"*%	c #D07173",
"=%	c #CA6A6D",
"-%	c #73494E",
";%	c #6F474B",
">%	c #674551",
",%	c #684451",
"'%	c #57595B",
")%	c #5E5E5C",
"!%	c #734C7A",
"~%	c #734670",
"{%	c #742746",
"]%	c #A55A65",
"^%	c #9D2336",
"/%	c #9F2436",
"(%	c #972C3B",
"_%	c #723049",
":%	c #95253B",
"<%	c #A02436",
"[%	c #733249",
"}%	c #484A49",
"|%	c #5C5B5B",
"1%	c #615A5C",
"2%	c #686D9C",
"3%	c #6C78B7",
"4%	c #6B7AB9",
"5%	c #703E5D",
"6%	c #6C4B4D",
"7%	c #9A2539",
"8%	c #98253A",
"9%	c #9C2A39",
"0%	c #9C2B3A",
"a%	c #98263A",
"b%	c #584C4F",
"c%	c #575959",
"d%	c #595B59",
"e%	c #434343",
"f%	c #615257",
"g%	c #752747",
"h%	c #752745",
"i%	c #74385D",
"j%	c #6D4A6C",
"k%	c #544D4D",
"l%	c #992B39",
"m%	c #A02131",
"n%	c #826499",
"o%	c #9E2636",
"p%	c #655B5C",
"q%	c #7A5053",
"r%	c #584A4E",
"s%	c #4A4B4A",
"t%	c #595154",
"u%	c #732B48",
"v%	c #752847",
"w%	c #575353",
"x%	c #A02032",
"y%	c #6C678A",
"z%	c #9B2C3A",
"A%	c #6C5151",
"B%	c #7573B0",
"C%	c #992940",
"D%	c #5A4C50",
"E%	c #464646",
"F%	c #575858",
"G%	c #5D5E61",
"H%	c #73304A",
"I%	c #6D3248",
"J%	c #7F464C",
"K%	c #8A4249",
"L%	c #865074",
"M%	c #902E47",
"N%	c #5D5559",
"O%	c #595A5A",
"P%	c #5B5D5F",
"Q%	c #616261",
"R%	c #5D595C",
"S%	c #605B5C",
"T%	c #752646",
"U%	c #6F344A",
"V%	c #5E575A",
"W%	c #59595B",
"X%	c #5A595B",
"Y%	c #5B575B",
"Z%	c #59595A",
"`%	c #6671A3",
" &	c #6D5272",
".&	c #635C60",
"+&	c #743B60",
"@&	c #705B8D",
"#&	c #752644",
"$&	c #732E48",
"%&	c #615D5F",
"&&	c #565858",
"*&	c #515253",
"=&	c #565958",
"-&	c #4D4E4D",
";&	c #505153",
">&	c #535557",
",&	c #666766",
"'&	c #555759",
")&	c #525356",
"!&	c #4E4F51",
"~&	c #535354",
"{&	c #4B4C4E",
"]&	c #4B4C4D",
"^&	c #565758",
"/&	c #535453",
"(&	c #555758",
"_&	c #49494A",
":&	c #4E4F4E",
"<&	c #515255",
"[&	c #616365",
"}&	c #494A4C",
"|&	c #4A4A4B",
"1&	c #545455",
"2&	c #4E4E4F",
"3&	c #525253",
"4&	c #474847",
"5&	c #515252",
"6&	c #4B4B4D",
"7&	c #515152",
"8&	c #555556",
"9&	c #505051",
"0&	c #535355",
"a&	c #5A5A5D",
"b&	c #565558",
"c&	c #545456",
"d&	c #59595C",
"  . + @ @ @ # $ % % & $ * = - ; & # > , ' ) ! ~ ~ ~ { @ # # ] ^ / ( _ : < [ ~ } | 1 2 3 4 4 5 6 7 8 9 | 0 a b 6 c c d d 6 [ @ e ",
"f g h i ~ ~ ~ j } k ! [ ) ' l m n o p q r s 5 3 t u v w x y z A 1 B 8 C 2 C s D E F G u u H u H A I J r r r q K K c c K 2 G u L ",
"& # @ @ @ M . + N { { @ O P Q R   S > > T T O , , ' , ' | 1 U V U > B W > T O O , , , , ' ' ' ' X Y Z `  . . .> T T T O O , ..E ",
"& @ @ @ @ { + +.+.~ ! [ @., : R S #.$.T T T T O , , , ' ' | 1 U %., B > > T O O , , , , , , ' ' a &.*.=.> T T T T T O , , ' -.r ",
"f ;.M @ @ { + + +.~ ~ ~ >.F 7 ,.S #.$.T T T T O O , , , ' ' ' ' E , B > T T O O } , , , ~ , ' , '.Y Z ).> $.$.T T !.O ~.} ' a q ",
"  . . @ @ @ + + + ~ ~ @ {.6 ].^.$ # > > T T T O T , , , , ' ' ' q ' B > T T O O { /.~ ~ ~ ~ , | '.(._.g # # # @ @ @ { { { /.~ c ",
"  #.. @ @ { :.+ + { { { [ {.<.[.% $ }.> > T T O O O , , , , , ' r , |. .> > T 1.{ { ~ ~ ~ ~ , | p 2._.3.$ # # @ @ @ @ { { { { 4.",
"5.S #.$.;.;.. . + { { { 6.< 7.[.$ $ 8.}.}.$.$.1.1.1.} } ~., 9.' -.1.0.a.> > b.$.M i } ~ ~ ~ ) n c.(._.3.d.e.;.$.f.M @ { { @ @ g.",
"5.#.#.#.#.#.. . . @ @ { n b h.i.% % $ $ # # # @ @ @ { { { ~ ' ' 1 $.j.% # # # ;.. + + { { { ~ [ k.(.l.S S #.#.#.. . @ @ @ @ @ m.",
"  S #.S #.#.. . #.# @ @ n.b h.o.& & % % # # # # @ @ @ { { { , , b 8.j.% $ $ # ;.p.q.f.@ { { { {.1.R l.    r.s.s.p.g # # # # t.[ ",
"5.    S S S S d.d.$ $ # , b u.v.7 & % % % $ $ $ # # # @ { @ O , a w.x.& $ $ $ }.;.g # # { { @ ~ M y.l.5.z.A.B.d.C.d.$ $ # b.$.9.",
"5.          % % % A.% $ a.O D.( ^ h.& & % $ $ $ # # # # { @ O O T E.F.G.% % $ $ $ # # # @ @ @ @ f.H.l.I.& & % % $ $ $ $ $  . .: ",
"(.l.J.J.J.J.K.<.<.<.<.& L.9 M.M.^ ^ E.N.O.P.P.Q.% % $ # # # > >  .R.S.v.<.% % $ $ % $ $ # # # # d.T.U.V.G.G.G.<.<.<.<.<.] W.|.X.",
"Y.Z.y.R R y.[.[.l i.i.e o.B 8 _ `. +.+++@+@+@+#+$+%+&+] 7 G.L.*+u.=+-+l ;+>+,.,+V.* ,.V.>+'+)+!+~+T.{+]+v.R.^+/+^+^+v.(+R.D.D.- ",
"R l.l.    l.l.l.l.] G.]._+^ 8 :+<+<+[+}+|+@+@+@+1+2+3+T T , , W.4+5+6+` ` ).7+8++.+.+.+.+.+.9+Z 0+a+` 8+. #.. . . b+{ { ~ 0 ..E ",
"  #.#.#.. . #.c++.{ [ d+r 0 B e+f+f+g+h+i+@+@+@+@+@+j+T O O O , O k+l+` ` 8+7++ + + + + +.c+m+8+).n+` + + +.+.+.o+o+[ d+p ..U ..",
"  #.#.#.. . . . + N j } 6.r p+q+r+s+t+u+v+@+@+@+@+@+w+x+O O , O ' y+0+` ).7+7++ + + + + +.+.z+A+B+6+).8++ +.+.+.c+c+[ [ [ a %.E ",
"  . S . . . + + + +.+.+.9.-.C+D+E+F+G+H+@+@+@+@+@+@+I+J+O O O O | z+0+).. #.. . . + + + +.N ~ ~ ) B T N + +.+.+.c+c+! [ [ 0 r ..",
"5.S #.#.. . . + + + + +.X -.K+L+M+E+N+O+@+@+@+@+@+@+@+P+Q+O O , 0 R+0+S+#.#.. . . + + + + b+{ ~ ! |.T } + +.+.+.c+A+! ! n | -...",
"  #.#.#.. . . + + + + +.X -.T+U+V+W+X+Y+Z+@+@+@+@+@+@+`+Q+{ ~., 0 R+0+` e.#.. . . + + + + i { ~ ! |.T y++ +.+.+.A+! ! ) | | a r ",
"5.#.#.#.. . . . + + + +.y+1 K+ @.@+@@@#@$@%@@+&@*@=@I+-@;@{ O O 0 ' 9  .}.# # ;.@ @ @ { { { { { 9.B > 1.+ + + j ~ ~ , , | ' | -.",
">@S S #.#.#.. . . . . + y+b 9 ,@'@E+)@,@!@~@{@]@^@/@(@I+_@:@<@O | O 9  .8.$ # # # @ @ @ @ { { { 9.B > 1.+ + + { ~ ~ , , , , , b ",
">@S S #.#.#.. . . . . + y+b 9 [@}@E+|@,@1@2@3@4@5@6@7@8@9@0@a@O ' 1.b@ .$ $ # # ;.@ @ @ @ @ { { 9.B > 1.+ + + { ~ ~ , , , ' O ' ",
"l.  S S S S #.. . . . . 1.b |.c@d@E+E+e@f@g@h@i@j@k@l@m@n@o@T T ' ~.p@% $ $ $ d.#.#.#.# # # # @ ~ v.$ M . + + + + + { ~ ) q T O ",
"l.      S #.S #.#.#.#.#.f.0 = q@r@s@t@E+E+u@v@w@x@y@z@A@B@C@D@O ' ~.e & % $ $ d.#.s.e.# $ $ # @ { j.$ $.#.. . + + . i { } q T T ",
"l.          S S #.#.#.#.}.a D.E@F@G@H@I@J@K@L@M@N@O@P@C@Q@R@> > , $.(+& % a.& w.B.S@$ % $ $ @ # @ T@$ ;.#.#.. . . . @ @ { T T > ",
"l.5.5.      S S S S S S e.a D.p@U@V@W@X@Y@Z@`@ #.#+#@###$#A. .> 4+&+j.^.L.h.h.W.4+4+%#& & %#W : &#v.% # #.#.#.. . . @ @ @ *#T > ",
"(.l.l.5.          S   S a., 8 v.=#-#;#>#,#'#)#!#~#{#]#^#<.G.% W W.&#T@j.p@9 *+h.u.|.&#i.p@o.B D.D.T@& d.#.S . . . f.@ @ @ !.>  .",
"Y.R (.(.J.(.R R y.R y.R u./ M./#(#_#:#<#[#}#|#1#2#3#4#5#6#L.* 9 B D.7#S.8#M.9#M.0#a#b#T@j.b#B |.b#c#(+>+R R J.J.J.J.G.2.K.m &+= ",
"l+l.5.l.  S #.. . d#O  .L.B M.e#f#g#h#i#j#k# #)#l#m#n#o#p#B D.q#= = r#8 s#;+(.l.#.t#u#v#w#x#y#r z#a+Z #.. . . . + + + + + { i.F.",
"#.. + + +.o+A#u#v#E %.V A A u._+B#C#D#E#F#G#H#I#J#K#L#M#4+4+4+W.h.B - P N#O#P#Q#Q#u#Q#Q#Q#Q#R#b 0 l+).+ + + +.+ +.+.+.+.+.k @ [.",
"S . . b++ + . + +.) , m...U S#T#U#V#W#X#Y#Z#`# $.$+$@$#$$$| 0 0 0 T D.> 1.h +.o+%$c.&$u#u#u#1 1 J l+).7++ + +.+ + + +.+.+.~ ! $.",
"S . . ~.{ { { ~ ~ ~ ~ ~ ) F 4+*$=$-$X#;$;$>$,$'$)$!$~$#${${ { O T d#n+).f.@ @ @ @ { { { ~ 9., , ' |.> f.. + + + +.+.+.+.+.~ [ # ",
"S . . M { ~ { { { ~ ~ ~ ! b ]$Z., ^$/$($_$V#:$<$[$}$~$|$@ @ !.T T d#n+).f.# @ @ @ { { { ~ ~ , , ' = > $.. . . + + + + +.+.~ ! ^.",
"S . . @ @ @ { { { ~ ~ ~ ) 1$2$3$p.c+4$5$6$7$8$9$0$a$b$@ @ @ T T , c$d$` f.;.@ @ @ { { { ~ , , , ' D. .$.. . . + + + + +.N ~ [ w.",
"  #.#.q.q.q.q.+ b+{ { ~ ~ d+G.e$f$g$h$i$j$k$l$m$n$o$p$f.. . @ @ ~ {.D. .=.#.. M @ { { { { } , , ' D. .}.#.. . M M M { { { , , h.",
"S #.#.#.. . . . + { { ~ { [ ].q$r$s$t$u$v$w$x$y$z$A$B$g . . M @ ! n / : e.#.#.;.@ { { { { ~., O | (  .k+#.#.f.@ @ @ { @ { O , *+",
"S S #.#.#.. . . . { { { 1.[ ^.C$D$E$F$G$H$I$J$K$L$M$N$@ #.#.f.@ @ % D.: 3.S #.;.@ $.@ @ { O O , | ( W }.#.#.#.@ @ @ @ @ @ *#T ^ ",
"  #.S #.#.. . . + . . . 1.0 9 O$P$Q$R$S$T$U$V$W$X$Y$Z$`$S S d.$ # % v.& A.  S #.#.#.f.@ @ @ { ~ ! x.% $ $ # # # # # > > > > > ^ ",
"B.S S S #.S #.. #.. . . T  %.%+%@%#%$%%%&%*%=%=%-%;%>%,%S S 3.$ # % T@& A.    S #.S e.# # # @ { $ T@% % % # $ $ # # > > >  .W 9 ",
"'%S S S #.#.#.#.#.. . . $., )%!%~%{%]%<.^%/%/%/%(%_%:%<%[%B.A.% % <.}%].w.    S S S d.# # # @ # (+x.& % % $ $ $ # #  .>  . .4+( ",
"'%    S S S S #.#.#.#.. |%1%2%3%4%5%7.7.6%/%/%/%7%8%9%0%a%b%9 9 ^ *+D.8 [.c%& d%% $ # # # }.> 4+D.( u.: % % $ # $ $ : W h.W ^ e%",
"5.  S     S S #.#.#.#.S f%g%h%i%j%[.9 = k%l%/%m%n%o%p%q%7%r%|.|.9 |.M._ s%i.G.& & % % $ % w.4+^ / ( 8 9 e ^.<.G.G.G.*+*+u.^ = X.",
"Z.H.y.(.R R (.(.R R R R t%u%v%v%=+(+E.&#u.w%/%x%y%z%A%B%C%D%l u.^ 8 E%=+R.(+(+e o.i.i.l i.i.u.u.|.8 8 b#p@G.F%& % % : W W w.: / ",
"5.S S #.#.#.. . + + +.G%z+H%g%v%I%(.l.I.  f J%K%, O   L%M%N%O%% $ )+H.    B.3.S #.. . . :.i { { O%( |.: ;.#.#.. . P%. e.3.# { Q%",
">@S S S #.#.#.. . . + . 7+R%S%T%U%+       S S V%W%S #.X%Y%S A.% $ ,.R   S #.S S #.#.. . #.g # { { D.*+Z%#.#.+.+ #.+ + +.c+k ! s ",
"    S S S #.#.. . . . . 7+`% &g%v%.&      S S S S S #.S     f % % >+H.    #.S S #.#.#.#.. f.@ { { = : k+. + . + +.+.+.c+c+! ~ d ",
"  S S   #.#.#.. . . . . +&@&#&v%$&%&f     S S S d.$ $ $ G.O%% % % ;+H.    S S S #.#.#.#.#.e.# { 1.(+& $ S + + +.+.+.+.+.+.' , 1 ",
"5.  S   #.#.#.. . . . . M @ ! / h.4+f     S S S d.$ % $ [.& &&<.& *&H.    S S S S S S #.#.e.# @ { (+=&A.  + + +.+ + +.+.+.' , | ",
"l.    S S S #.#.#.. . . M @ ! -&h.4+I.5.  S S S d.$ % ].(+p@G.G.& )+;&    S S S S S #.#.#.e.# @ @ v.<.A.S + + + + + +.+.+., , q ",
"5.        S S #.#.#.#.#.f.@ ) ]+>&l.5.5.        A.% % (.#.r.;&>&l.;&;&5.5.    S S S S S #.e.$ # @ v.G.c%  + . + + b+i } ~ ~ } ,&",
"J.5.5.5.  S S #.#.#.#.#.$.@ ! ]+R '&l.5.        A.% <.d.S S   y.l.Z.Z.5.l.    S S S S S #.e.$ # @ v.G.F%5.. . + + + { ~ ~ ~ ! c ",
"l.5.5.l.    S S S S S #.;.# ! T.)&(.l.l.5.5.5.  A.% <.d.  S S (.y.Z.!&l.l.5.          S S 3.$ # # j.].&&5.. . . + + { { { { ! c ",
"J.l.l.&&& c%A.A.d.$ $ $ }.8., D.~&h.K.&&F%F%F%w.f   l.S S     ;&{&]&s#] &.5.5.            3.$ # # T@].^&5.#.#.. . . @ @ @ { ~ d ",
"y.(.(.i & & & % $ $ % $ 8. .O ( |.^ /&].].].m G.(&J.J.J.l.l.(.;&T._&M.u.^&l.l.l.l.5.5.5.  f & % % F.].] J.#.#.. . . @ @ @ # @ [ ",
"(.R (._+^.^.^.^.^.^.].].W.|./ M.( = :&v.(+i.l ^.>+R )&y.<&y.(.o+[&}&- ( 3$;&;&H.y.y.y.y.R >+i.e e S.i.&&l.`$`$#.#.f.# @ @ { ~ % ",
"u#Q#Q#p p b b b b p p b 1 -.D.|&I 1&/&/&_+] e.d.=.=.> # # M b+y+Z%2&3&k+).. . . + . . . . 1.!.w.:&4&s%-&~&> > k+Z%F%] * &+_+5&=+",
").7+7+O O T O O O O O O , U W 6&6#6#h.h.h.O%S S }.> > # # @ !.T  .2&0+W%` S #.#.#.. #.#.#.e.> T > r#u.: W > > >  .> T O T T > = ",
"W%).).T T T T O O O O O , U O 7&6#6#8&h.: d.S #.k+ .> @ @ @ @ T , 9&0&` #.#.#.#.#.#.. . . f.> > > |.W  . .> > > > T T T T O > > ",
" .> =.@ @ @ { { { O O O O U , 3&6#6#6#J.&.3.d.;.# b.@ @ @ @ @ { 4.5&0&` ` C.e.;.;.;.;.;.M @ b.$ O%Z.    S e.e.# $.@ @ @ @ @ @ ) ",
" . .> @ @ @ { { { O O O , F , 0+6#6#J.J.r.O%$ # # # @ @ @ @ { { 4.*&0&a&3.$ # # # # # # @ { # 5 I.Z.    S #.e.# @ @ @ @ @ @ @ @ ",
" . .T # @ @ { { { O O O O F , 0+b&Y (.l.r.$ $ # # # @ @ @ @ @ { 6 _+c&d&f # # # # # # # # @ # d+c%Z.5.5.    C.# # # # @ @ @ @ # ",
"O%e.=.# @ @ !.!.!.O O O O F , 3&Y Y J.l.  3.d.C.e.e.f.@ @ @ @ @ ~ )+R     d.C.# # # # # # # }.n Z%Y.l.    S S e.e.;.@ # # @ $ $ ",
"W%#.#.# @ @ T T T O O O O F , 3&Y Y J.l.  3.S S #.#.. @ @ @ @ @ ~ '+H.'%B.S S }.# # # # # # > > Z%Y.l.5.  S S #.#.g @ # # @ $ # "};
