/* XPM */
static char * left_0_xpm[] = {
"64 64 681 2",
"  	c #58595B",
". 	c #5B5C5E",
"+ 	c #5C5D5F",
"@ 	c #5B5D5C",
"# 	c #5A5C5B",
"$ 	c #595B5A",
"% 	c #585A59",
"& 	c #575958",
"* 	c #545555",
"= 	c #4E4E4E",
"- 	c #474747",
"; 	c #474848",
"> 	c #5B5B5B",
", 	c #5E5E5E",
"' 	c #5F5F5F",
") 	c #5E5F5F",
"! 	c #5E605F",
"~ 	c #5D5F5E",
"{ 	c #5C5E5D",
"] 	c #565757",
"^ 	c #525252",
"/ 	c #4C4C4C",
"( 	c #4B4B4B",
"_ 	c #484848",
": 	c #585858",
"< 	c #626362",
"[ 	c #5F6160",
"} 	c #5D5E5E",
"| 	c #606060",
"1 	c #646464",
"2 	c #666767",
"3 	c #686A69",
"4 	c #6A6C6B",
"5 	c #676968",
"6 	c #626463",
"7 	c #575857",
"8 	c #4A4A4A",
"9 	c #515151",
"0 	c #616161",
"a 	c #626262",
"b 	c #636363",
"c 	c #646665",
"d 	c #636564",
"e 	c #505251",
"f 	c #58595A",
"g 	c #5A5C5D",
"h 	c #5C5E5F",
"i 	c #5C5E5E",
"j 	c #5D5F5F",
"k 	c #5E605E",
"l 	c #525353",
"m 	c #555656",
"n 	c #5F6060",
"o 	c #616363",
"p 	c #626363",
"q 	c #666666",
"r 	c #676767",
"s 	c #666867",
"t 	c #6A6B6A",
"u 	c #6A6B6B",
"v 	c #6B6C6C",
"w 	c #6C6D6C",
"x 	c #6D6F6E",
"y 	c #6E6F6F",
"z 	c #6F706F",
"A 	c #6E6E6E",
"B 	c #4F4F4F",
"C 	c #656665",
"D 	c #676868",
"E 	c #696969",
"F 	c #6A6A6A",
"G 	c #696A6A",
"H 	c #6B6C6B",
"I 	c #4F4F50",
"J 	c #616162",
"K 	c #656666",
"L 	c #686969",
"M 	c #5B5D5D",
"N 	c #5D5E5F",
"O 	c #5D5D5D",
"P 	c #5E5E5D",
"Q 	c #5A5A59",
"R 	c #535456",
"S 	c #595A5C",
"T 	c #5C5C5C",
"U 	c #6C6C6C",
"V 	c #6D6D6D",
"W 	c #595959",
"X 	c #5E5E5F",
"Y 	c #565658",
"Z 	c #58585A",
"` 	c #5A5A5C",
" .	c #5A5A5A",
"..	c #686868",
"+.	c #5D5E60",
"@.	c #676867",
"#.	c #5A5B5D",
"$.	c #5B5C5C",
"%.	c #6B6B6B",
"&.	c #575759",
"*.	c #58585B",
"=.	c #5B5B5C",
"-.	c #656565",
";.	c #5A5C5C",
">.	c #636464",
",.	c #535555",
"'.	c #646465",
").	c #5B5B5D",
"!.	c #5C5D5C",
"~.	c #5D5E5D",
"{.	c #606261",
"].	c #545655",
"^.	c #535554",
"/.	c #5C5F5E",
"(.	c #545557",
"_.	c #56575A",
":.	c #5B5D5E",
"<.	c #565857",
"[.	c #525453",
"}.	c #5A5B5B",
"|.	c #505050",
"1.	c #5C5D5D",
"2.	c #555657",
"3.	c #595A5B",
"4.	c #656766",
"5.	c #57585A",
"6.	c #606161",
"7.	c #565756",
"8.	c #5A5B5A",
"9.	c #5E5F5E",
"0.	c #4F504F",
"a.	c #595A59",
"b.	c #5B5C5B",
"c.	c #616263",
"d.	c #595B5B",
"e.	c #5A5B5C",
"f.	c #5B5C5D",
"g.	c #636463",
"h.	c #555555",
"i.	c #515352",
"j.	c #4C4E4D",
"k.	c #5E6060",
"l.	c #565759",
"m.	c #616262",
"n.	c #5F605F",
"o.	c #505151",
"p.	c #5A5B5E",
"q.	c #5B5C5F",
"r.	c #58595C",
"s.	c #595A5D",
"t.	c #5A5D5C",
"u.	c #535353",
"v.	c #4D4F4E",
"w.	c #585959",
"x.	c #4A4C4B",
"y.	c #525355",
"z.	c #57595A",
"A.	c #585A5A",
"B.	c #585A5B",
"C.	c #595B5C",
"D.	c #4D4D4D",
"E.	c #505150",
"F.	c #494B4A",
"G.	c #555756",
"H.	c #515254",
"I.	c #575859",
"J.	c #555658",
"K.	c #555757",
"L.	c #555655",
"M.	c #494949",
"N.	c #4E4F4F",
"O.	c #474948",
"P.	c #4C4D4F",
"Q.	c #4F5053",
"R.	c #525256",
"S.	c #494054",
"T.	c #494154",
"U.	c #565656",
"V.	c #444444",
"W.	c #4D4E50",
"X.	c #4F5052",
"Y.	c #4A4B4A",
"Z.	c #4A4B4B",
"`.	c #4C4D4C",
" +	c #4C4D4D",
".+	c #545554",
"++	c #545454",
"@+	c #4B4C4C",
"#+	c #48494A",
"$+	c #525354",
"%+	c #535455",
"&+	c #545656",
"*+	c #545556",
"=+	c #525454",
"-+	c #515353",
";+	c #4E5050",
">+	c #4D4D4E",
",+	c #7C4448",
"'+	c #AA2535",
")+	c #67285A",
"!+	c #444190",
"~+	c #3F4191",
"{+	c #3D3071",
"]+	c #453E5A",
"^+	c #4B4A4E",
"/+	c #4E504F",
"(+	c #535454",
"_+	c #575757",
":+	c #4C4C4D",
"<+	c #4E4E50",
"[+	c #5C5C5E",
"}+	c #5D5D5F",
"|+	c #5E5D60",
"1+	c #AE313A",
"2+	c #BB2633",
"3+	c #BA2633",
"4+	c #A02846",
"5+	c #434190",
"6+	c #3F408F",
"7+	c #3E357A",
"8+	c #5E5F61",
"9+	c #616362",
"0+	c #5A5A5B",
"a+	c #505052",
"b+	c #5F5F61",
"c+	c #59575D",
"d+	c #5D3B7E",
"e+	c #613D83",
"f+	c #603C83",
"g+	c #723878",
"h+	c #783A7C",
"i+	c #3F3F8D",
"j+	c #4D445B",
"k+	c #595A5A",
"l+	c #5D5D5E",
"m+	c #515153",
"n+	c #5E5E60",
"o+	c #4B4362",
"p+	c #3E3F8E",
"q+	c #CC7D90",
"r+	c #906191",
"s+	c #3D4191",
"t+	c #713777",
"u+	c #563E88",
"v+	c #413975",
"w+	c #3E3374",
"x+	c #545294",
"y+	c #FBD9C6",
"z+	c #F19F9A",
"A+	c #885D91",
"B+	c #3E4191",
"C+	c #3E3C87",
"D+	c #5C5C5F",
"E+	c #4F5150",
"F+	c #5F5F60",
"G+	c #5B5A5C",
"H+	c #5C5D5E",
"I+	c #514C58",
"J+	c #3C4090",
"K+	c #D38791",
"L+	c #F9D8C6",
"M+	c #F9D6C5",
"N+	c #E68C8D",
"O+	c #5C458A",
"P+	c #3F408D",
"Q+	c #41315F",
"R+	c #504B58",
"S+	c #422D61",
"T+	c #DEBEB2",
"U+	c #F7C4B6",
"V+	c #7C4A65",
"W+	c #3D2154",
"X+	c #8A3D63",
"Y+	c #394182",
"Z+	c #3F3376",
"`+	c #3E357B",
" @	c #3E2C5F",
".@	c #5B5E5D",
"+@	c #463856",
"@@	c #393172",
"#@	c #893B57",
"$@	c #E6BCAE",
"%@	c #E3C4B6",
"&@	c #602D4B",
"*@	c #8D3852",
"=@	c #7B213D",
"-@	c #3F3A76",
";@	c #4B418F",
">@	c #B24667",
",@	c #702F59",
"'@	c #3F377B",
")@	c #5B585C",
"!@	c #57585B",
"~@	c #3C2155",
"{@	c #351D4C",
"]@	c #323A3E",
"^@	c #EDDED8",
"/@	c #FAD8C6",
"(@	c #B77C80",
"_@	c #313A3D",
":@	c #CFEAF7",
"<@	c #8B6779",
"[@	c #424191",
"}@	c #6E6594",
"|@	c #F2A39E",
"1@	c #8C365F",
"2@	c #3C2760",
"3@	c #3F4090",
"4@	c #3E3479",
"5@	c #3D2D6B",
"6@	c #5B5860",
"7@	c #565758",
"8@	c #4F5050",
"9@	c #351C4C",
"0@	c #686666",
"a@	c #FCE3D8",
"b@	c #F9D7C5",
"c@	c #E4C5B4",
"d@	c #4C4647",
"e@	c #FFFEFE",
"f@	c #DEADA7",
"g@	c #724487",
"h@	c #EEC9BB",
"i@	c #F7D1C0",
"j@	c #8B325E",
"k@	c #3C265D",
"l@	c #3F4190",
"m@	c #3F4192",
"n@	c #453559",
"o@	c #5A2656",
"p@	c #EBACAC",
"q@	c #F8D3C2",
"r@	c #E6C5B6",
"s@	c #FADACA",
"t@	c #F5BDB1",
"u@	c #BB576E",
"v@	c #C67B84",
"w@	c #BC5C74",
"x@	c #542757",
"y@	c #3E3981",
"z@	c #3E3881",
"A@	c #58555C",
"B@	c #502657",
"C@	c #CC727E",
"D@	c #F8CFBF",
"E@	c #F7CABB",
"F@	c #F4BCB0",
"G@	c #F6C3B5",
"H@	c #C25D73",
"I@	c #B24869",
"J@	c #60485C",
"K@	c #392B5B",
"L@	c #3C2154",
"M@	c #3C2054",
"N@	c #443B65",
"O@	c #463482",
"P@	c #4C2271",
"Q@	c #5C5B5C",
"R@	c #525352",
"S@	c #585A5C",
"T@	c #53505A",
"U@	c #463A57",
"V@	c #452656",
"W@	c #CC707C",
"X@	c #F3ABA4",
"Y@	c #F7C7B8",
"Z@	c #E9BAAF",
"`@	c #C15D72",
" #	c #945264",
".#	c #48415B",
"+#	c #4C2373",
"@#	c #4C2C72",
"##	c #4C2972",
"$#	c #4C2372",
"%#	c #564C65",
"&#	c #585958",
"*#	c #67575B",
"=#	c #66575A",
"-#	c #5E4E54",
";#	c #807380",
">#	c #807176",
",#	c #8D5E70",
"'#	c #A64F68",
")#	c #B14869",
"!#	c #925364",
"~#	c #727272",
"{#	c #666668",
"]#	c #616C9F",
"^#	c #45366B",
"/#	c #574E64",
"(#	c #515251",
"_#	c #4B4D4C",
":#	c #8D4C5E",
"<#	c #AE4968",
"[#	c #965A99",
"}#	c #8B5A8D",
"|#	c #A56CA8",
"1#	c #6E6869",
"2#	c #D67680",
"3#	c #8F9292",
"4#	c #6F6F6F",
"5#	c #9C9C9C",
"6#	c #A17AA3",
"7#	c #7A577D",
"8#	c #7880B6",
"9#	c #543E7D",
"0#	c #454746",
"a#	c #575858",
"b#	c #434544",
"c#	c #484948",
"d#	c #494A49",
"e#	c #484949",
"f#	c #4B4B4C",
"g#	c #9A4A61",
"h#	c #AF496B",
"i#	c #9E7AA0",
"j#	c #707270",
"k#	c #616361",
"l#	c #686363",
"m#	c #B57A78",
"n#	c #999999",
"o#	c #B0B0B0",
"p#	c #9C9D9C",
"q#	c #915D93",
"r#	c #A05DAA",
"s#	c #7E8BC0",
"t#	c #5C5D75",
"u#	c #5C5C5D",
"v#	c #505051",
"w#	c #4E4D4D",
"x#	c #454545",
"y#	c #616264",
"z#	c #636466",
"A#	c #656668",
"B#	c #666768",
"C#	c #9E5469",
"D#	c #9E4A6D",
"E#	c #705975",
"F#	c #AFAFAF",
"G#	c #BABABA",
"H#	c #A29FA2",
"I#	c #A65FA9",
"J#	c #70637E",
"K#	c #B1B1B0",
"L#	c #B2B2B2",
"M#	c #B1B2B1",
"N#	c #B071B2",
"O#	c #5C5563",
"P#	c #7177AD",
"Q#	c #8190C5",
"R#	c #5F6062",
"S#	c #606163",
"T#	c #676769",
"U#	c #666769",
"V#	c #646567",
"W#	c #626365",
"X#	c #985467",
"Y#	c #B14868",
"Z#	c #726FA8",
"`#	c #A0A1AC",
" $	c #C3C3C3",
".$	c #ABABAB",
"+$	c #9D9D9D",
"@$	c #A570A0",
"#$	c #9A71B2",
"$$	c #8B8DBD",
"%$	c #6F7181",
"&$	c #9A9A9C",
"*$	c #AB90AC",
"=$	c #5C5664",
"-$	c #503178",
";$	c #8291C6",
">$	c #565555",
",$	c #616261",
"'$	c #606062",
")$	c #626364",
"!$	c #7A5F65",
"~$	c #B04969",
"{$	c #A34A6B",
"]$	c #7C607E",
"^$	c #A5A5A5",
"/$	c #ADA1A4",
"($	c #AD6377",
"_$	c #D4747F",
":$	c #CE7083",
"<$	c #B14768",
"[$	c #A95D83",
"}$	c #8B7BA6",
"|$	c #7A86B3",
"1$	c #737AA9",
"2$	c #4E4F51",
"3$	c #4D4D4F",
"4$	c #675D5F",
"5$	c #AE4969",
"6$	c #B34769",
"7$	c #605357",
"8$	c #7B4355",
"9$	c #E78A8D",
"0$	c #D3747F",
"a$	c #EF9292",
"b$	c #D57781",
"c$	c #AF4365",
"d$	c #B24666",
"e$	c #A44069",
"f$	c #585757",
"g$	c #7D7E7E",
"h$	c #8D8D8D",
"i$	c #95888B",
"j$	c #DB8086",
"k$	c #EE9191",
"l$	c #F09392",
"m$	c #B14568",
"n$	c #913B6D",
"o$	c #4F2E77",
"p$	c #646364",
"q$	c #575758",
"r$	c #4F5051",
"s$	c #626263",
"t$	c #4C4C4E",
"u$	c #BFBFBF",
"v$	c #B3B1B3",
"w$	c #B2ADB2",
"x$	c #AC68A8",
"y$	c #B24D6F",
"z$	c #EA8D8E",
"A$	c #E98C8E",
"B$	c #E6898D",
"C$	c #B35974",
"D$	c #6E5D69",
"E$	c #4F3072",
"F$	c #7A85BB",
"G$	c #7F8EC1",
"H$	c #565858",
"I$	c #575959",
"J$	c #797979",
"K$	c #787878",
"L$	c #776D78",
"M$	c #7A5572",
"N$	c #872854",
"O$	c #882B56",
"P$	c #9F3956",
"Q$	c #A74B67",
"R$	c #765B68",
"S$	c #8F94A9",
"T$	c #A37BA5",
"U$	c #915D96",
"V$	c #7D8ABB",
"W$	c #616268",
"X$	c #8C6B73",
"Y$	c #871E39",
"Z$	c #88223B",
"`$	c #8C2B40",
" %	c #E78989",
".%	c #AC555C",
"+%	c #982837",
"@%	c #854951",
"#%	c #8E919B",
"$%	c #A093A0",
"%%	c #977D98",
"&%	c #5B5D5A",
"*%	c #55506D",
"=%	c #A02334",
"-%	c #9F2436",
";%	c #9E2034",
">%	c #E58888",
",%	c #E58889",
"'%	c #8B2C3C",
")%	c #6B5255",
"!%	c #6F5154",
"~%	c #725355",
"{%	c #913945",
"]%	c #9A2E3B",
"^%	c #9B3653",
"/%	c #A53340",
"(%	c #ED9090",
"_%	c #E68A8B",
":%	c #933845",
"<%	c #A43541",
"[%	c #615959",
"}%	c #65709D",
"|%	c #7A6EA8",
"1%	c #763755",
"2%	c #6F5354",
"3%	c #B57373",
"4%	c #ED9191",
"5%	c #EA8E8F",
"6%	c #9C505F",
"7%	c #85565E",
"8%	c #57595B",
"9%	c #484A49",
"0%	c #5C5F5F",
"a%	c #923840",
"b%	c #A01F2E",
"c%	c #A02335",
"d%	c #8E3B43",
"e%	c #5A5457",
"f%	c #712244",
"g%	c #712245",
"h%	c #752847",
"i%	c #71364B",
"j%	c #505252",
"k%	c #4E4F4E",
"l%	c #595B59",
"m%	c #7D3C42",
"n%	c #8F3B43",
"o%	c #5F5759",
"p%	c #742A48",
"q%	c #5A5859",
"r%	c #434343",
"s%	c #534848",
"t%	c #635A5B",
"u%	c #695D68",
"v%	c #9B3552",
"w%	c #9F2435",
"x%	c #5F5B5C",
"y%	c #6F3E4F",
"z%	c #555454",
"A%	c #535453",
"B%	c #464646",
"C%	c #4D4D4C",
"D%	c #6977B2",
"E%	c #895B8C",
"F%	c #9F2334",
"G%	c #6D3F4F",
"H%	c #732F49",
"I%	c #6B404E",
"J%	c #5D5E61",
"K%	c #606061",
"L%	c #464749",
"M%	c #4A4B4D",
"N%	c #7F484A",
"O%	c #943541",
"P%	c #71364C",
"Q%	c #70374C",
"R%	c #49494B",
"S%	c #59595A",
"T%	c #703A4C",
"U%	c #615A5E",
"V%	c #4B4C4E",
"W%	c #5F6275",
"X%	c #6B74AF",
"Y%	c #724A75",
"Z%	c #565657",
"`%	c #62565B",
" &	c #752745",
".&	c #752846",
"+&	c #63555B",
"@&	c #5E5D5F",
"#&	c #515253",
"$&	c #565958",
"%&	c #4D4E4D",
"&&	c #505153",
"*&	c #4C4E4F",
"=&	c #535557",
"-&	c #666766",
";&	c #555759",
">&	c #525356",
",&	c #535354",
"'&	c #4B4C4D",
")&	c #555758",
"!&	c #49494A",
"~&	c #515255",
"{&	c #616365",
"]&	c #494A4C",
"^&	c #595B5D",
"/&	c #4A4A4B",
"(&	c #545455",
"_&	c #4E4E4F",
":&	c #525253",
"<&	c #474847",
"[&	c #515252",
"}&	c #4B4B4D",
"|&	c #555557",
"1&	c #59595B",
"2&	c #515152",
"3&	c #555556",
"4&	c #535355",
"5&	c #5A5A5D",
"6&	c #565558",
"7&	c #545456",
"8&	c #59595C",
"  . + @ @ @ # $ % % & $ * = - ; & # > , ' ) ! ~ ~ ~ { @ # # ] ^ / ( _ : < [ ~ } | 1 2 3 4 4 5 6 7 8 9 | 0 a b 6 c c d d 6 [ @ e ",
"f g h i ~ ~ ~ j } k ! [ ) ' l m n o p q r s 5 3 t u v w x y z A 1 B 8 C 2 C s D E F G u u H u H A I J r r r q K K c c K 2 G u L ",
"& # @ @ @ M . + N { { @ O P Q R   S > > T T O , , ' , ' | 1 U V U > B W > T O O , , , , ' ' ' ' X Y Z `  . . .> T T T O O , ..E ",
"& @ @ @ @ { + +.+.~ ! [ @., : R S #.$.T T T T O , , , ' ' | 1 U %., B > > T O O , , , , , , ' ' a &.*.=.> T T T T T O , , ' -.r ",
"f ;.M @ @ { + + +.~ ~ ~ >.F 7 ,.S #.$.T T T T O O , , , ' ' ' ' E , B > T T O O } , , , ~ , ' , '.Y Z ).> $.$.T T !.O ~.} ' a q ",
"  . . @ @ @ + + + ~ ~ @ {.6 ].^.$ # > > T T T O T , , , , ' ' ' q ' B > T T O O { /.~ ~ ~ ~ , | '.(._.g # # # @ @ @ { { { /.~ c ",
"  #.. @ @ { :.+ + { { { [ {.<.[.% $ }.> > T T O O O , , , , , ' r , |. .> > T 1.{ { ~ ~ ~ ~ , | p 2._.3.$ # # @ @ @ @ { { { { 4.",
"5.S #.$.;.;.. . + { { { 6.< 7.[.$ $ 8.}.}.$.$.1.1.1.} } ~., 9.' -.1.0.a.> > b.$.M i } ~ ~ ~ ) n c.(._.3.d.e.;.$.f.M @ { { @ @ g.",
"5.#.#.#.#.#.. . . @ @ { n b h.i.% % $ $ # # # @ @ @ { { { ~ ' ' 1 $.j.% # # # ;.. + + { { { ~ [ k.(.l.S S #.#.#.. . @ @ @ @ @ m.",
"  S #.S #.#.. . #.# @ @ n.b h.o.& & % % # # # # @ @ @ { { { , , b 8.j.% $ $ # ;.p.q.f.@ { { { {.1.R l.    r.s.s.p.g # # # # t.[ ",
"5.    S S S S d.d.$ $ # , b u.v.7 & % % % $ $ $ # # # @ { @ O , a w.x.& $ $ $ }.;.g # # { { @ ~ M y.l.5.z.A.B.d.C.d.$ $ # b.$.9.",
"5.          % % % A.% $ a.O D.( ^ h.& & % $ $ $ # # # # { @ O O T E.F.G.% % $ $ $ # # # @ @ @ @ f.H.l.I.& & % % $ $ $ $ $  . .: ",
"(.l.J.J.J.J.K.<.<.<.<.& L.9 M.M.^ ^ E.].<.& & & % % $ # # # > >  .N.O.v.<.% % $ $ % $ $ # # # # d.P.Q.R.S.S.S.T.2.<.<.<.] U.|.V.",
"W.X.y.R R y.[.[.l i.i.e o.B 8 _ M.M.Y.Z.`. + +v.N.E..+] 7 G.L.++u.@+#+l $+%+,.&+*+* ,.*+%+=+-+;+>+,+'+)+!+~+~+~+{+]+^+/+N.D.D.- ",
"R l.l.    l.l.l.l.] G.].(+^ 8 _ _ M.M.8 = 9 u.++U.W T T T , , U._+:+<+` ` ).[+}++.+.+.+.+.+.|+Z 1+2+2+3+4+5+~+~+~+6+7+1.~ 0 ..E ",
"  #.#.#.. . #.8++.{ [ 9+r 0 B - D.|.9 U. .> > > T T T T O O O , O 0+a+` ` }+[++ + + + + +.8+b+c+d+e+f+g+2+h+~+~+~+~+i+j+p ..U ..",
"  #.#.#.. . . . + N j } 6.r 9 D.U.: W k+ .> > > T T T O O O , O ' l+m+` ).[+[++ + + + + +.+.n+o+p+q+r+s+t+u+~+~+~+~+~+v+N a %.E ",
"  . S . . . + + + +.+.+.9.-.^ /+<.& % % $ # # # $.T T O O O O O | n+m+).. #.. . . + + + +.N ~ w+x+y+z+A+B+~+~+~+~+~+~+C+D+0 r ..",
"5.S #.#.. . . + + + + +.X -.9 E+].G.% % $ # # # b.T T O O O O , 0 F+m+G+#.#.. . . + + + + H+I+J+K+L+M+N+O+P+~+~+~+~+~+~+Q+| -...",
"  #.#.#.. . . + + + + +.X -.9 |..+^.% A.d.d.# # b.T T O O { ~., 0 F+m+` e.#.. . . + + + + i R+~+S+T+U+V+W+X+Y+~+~+Z+`+~+ @| a r ",
"5.#.#.#.. . . . + + + +.l+1 9 |.h.h.Z r.S d.@ # @ t.t..@.@{ O O 0 ' 9  .}.# # ;.@ @ @ { { { +@@@#@$@%@&@*@=@-@~+;@>@,@~+'@)@| -.",
"!@S S #.#.#.. . . . . + l+b 9 |.++++&.  r.d.# $ # @ @ @ @ { O O | O 9  .8.$ # # # @ @ @ @ { ~@{@]@^@/@(@_@:@<@[@}@|@1@2@3@4@5@6@",
"!@S S #.#.#.. . . . . + l+b 9 |.++++7@z.  k+$ $ # # @ @ @ { O O ' 1.8@ .$ $ # # ;.@ @ @ @ @ ~@9@0@a@b@c@d@e@f@g@h@i@j@~@k@l@m@n@",
"l.  S S S S #.. . . . . 1.b |.|.++u.^.<.& % % $ # # # $.T T T T ' ~.E+% $ $ $ d.#.#.#.# # # ~@o@p@q@b@b@r@s@t@u@v@w@x@~@~@y@z@A@",
"l.      S #.S #.#.#.#.#.f.0 = |.u.^ l [.^.<.$ $ $ $ # b.T T T O ' ~.e & % $ $ d.#.s.e.# $ $ ~@B@C@D@E@F@b@G@H@I@J@K@L@M@N@O@P@Q@",
"l.          S S #.#.#.#.}.a D.|.l R@^.A.$ % % $ $ $ # > > > > > , $./+& % a.& w.B.S@$ % $ $ T@U@V@W@X@Y@Z@`@I@ #, .#+#@###$#%#> ",
"l.5.5.      S S S S S S e.a D.E+i.e $+  5.f % % $ $ $ # $ $  .> _+.+j.^.L.h.h.U._+_+&#& & &#*#=#-#;#>#,#'#)#!#~#{#]#^#$#$#/#T > ",
"(.l.l.5.          S   S a., 8 v.[.[.(.5.l.& % % % % % % <.G.% W U.(#_#j.E+9 ++h.u.|.(#i.E+:#)#)#<#[#}#|#1#2#3#4#5#6#7#8#9#!.>  .",
"W.R (.(.J.(.R R y.R y.R u./ M.0#e ].2.J.l.<.7 a#& & & & m L.* 9 B D.b#O.c#M.d#M.e#f# +_#j.g#)#)#h#i#j#k#l#m#A.n#o#p#q#r#s#t#.+= ",
"a+l.5.l.  S #.. . u#O  .L.B M._ _ / = |.v#|.9 ^ R@[.^..+9 B D.w#= = x#8 >+$+(.l.#.y#z#A#B#C#)#)#D#E#F#G#H#I#J#K#L#M#N#O#P#Q#i.F.",
"#.. + + +.R#S#z#A#E %.V A A u.- 8 |.u.U._+_+_+: 7 & & 7 _+_+_+U.h.B - P T#U#V#W#W#z#W#W#W#X#)#Y#Z#`# $.$+$@$#$$$%$&$*$=$-$;$@ [.",
"S . . H++ + . + +.) , m...U >$8 w.> u#X O , ) ' n {.[ 6.,$| 0 0 0 T D.> 1.h +.R#'$c.)$z#z#z#!$~${$]$^$/$($_$:$<$[$}$|$1$-$;$! $.",
"S . . ~.{ { { ~ ~ ~ ~ ~ ) F _+2$5.5.S S S e.# # @ @ @ @ @ { { O T u#3$).f.@ @ @ @ { { { ~ 9., 4$5$6$7$8$9$0$a$b$0$c$d$e$-$;$[ # ",
"S . . M { ~ { { { ~ ~ ~ ! b f$X.5.      S e.# # # # @ @ @ @ !.T T u#3$).f.# @ @ @ { { { ~ ~ , , !.g$h$i$j$a$k$k$k$l$m$n$o$;$! ^.",
"S . . @ @ @ { { { ~ ~ ~ ) p$q$r$5.      S # # # # # @ @ @ @ T T , s$t$` f.;.@ @ @ { { { ~ , , 0 u$G#v$w$x$y$z$A$B$C$D$E$F$G$[ w.",
"  #.#.q.q.q.q.+ H+{ { ~ ~ 9+G.E+H$I$I$$ $ $ $ # # # @ f.. . @ @ ~ {.D. .=.#.. M @ { { { { } , ..J$K$L$M$N$O$P$Q$R$S$T$U$V$W$, h.",
"S #.#.#.. . . . + { { ~ { [ ].E+G.& % % $ $ $ $ # # @ g . . M @ ! n / : e.#.#.;.@ { { { { ~., O | X$Y$Z$`$ %.%+%@%#%$%%%&%O , ++",
"S S #.#.#.. . . . { { { 1.[ ^.E+].<.% % % $ $ $ $ % # #.#.#.f.@ @ % D.: 3.S #.;.@ $.@ @ { O O , *%=%-%-%-%;%>%,%'%)%!%~%@ Q@T ^ ",
"  #.S #.#.. . . + . . . 1.0 9 2$R J.I$& & % % % % $ # S S S d.$ # % v.& A.  S #.#.#.f.@ @ @ { ~ {%]%^%-%-%-%/%(%_%:%<%[%> > > ^ ",
"B.S S S #.S #.. #.. . . T a |.<+H.R H$& & % % % % & % B.S S 3.$ # % _#& A.    S #.S e.# # # @ { } } }%|%1%2%3%4%5%6%7%> >  .W 9 ",
"8%S S S #.#.#.#.#.. . . $.0 D.W.H.R H$<.<.^.^.^.^.].& f   B.A.% % <.9%].w.    S S S d.# # # @ # O 0%a%b%c%d%e%f%g%h%i%>  . ._+( ",
"8%    S S S S #.#.#.#.. }.O / v.j%=+7.7.u.B B k%N.N.o.^ R@9 9 9 ^ ++D.8 [.I$& l%% $ # # # }.> _+D.m%-%c%c%-%n%o%p%h%h%q%h.W ^ r%",
"5.  S     S S #.#.#.#.S }.h.( x.i.[.9 = = B B B B B |.|.|.|.|.|.9 |.M._ Y.i.G.& & % % $ % w._+^ / ( s%t%u%v%w%7.x%y%h%z%u.^ = V.",
"X.H.y.(.R R (.(.R R R R * 9 ( e#@+/+E.(#u.++A%++l ^ ^ ^ ^ ^ l u.^ 8 B%@+N./+/+e o.i.i.l i.i.u.u.|.8 8 C%D%E%F%&#G%H%h%I%W w.: / ",
"5.S S #.#.#.. . + + +.J%n+K%}+L%M%(.l.I.  f f         S S 3.k+% $ -+H.    B.3.S #.. . . :.i { { k+( |.: N%F%O%[+. P%h%Q%3.# { ,$",
"!@S S S #.#.#.. . . + . [+).}+R%(.+       S S     S #.S S S A.% $ ,.R   S #.S S #.#.. . #.g # { { D.++S%#.#.+.+ 0+T%h%h%U%k ! s ",
"    S S S #.#.. . . . . [+[+b+V%5.S#      S S S S S #.S     f % % %+H.    #.S S #.#.#.#.. f.@ { { = : 0+. + . W%X%Y%h%h%U%! ~ d ",
"  S S   #.#.#.. . . . . @ @ ~ / Z%F+f     S S S d.$ $ $ G.k+% % % $+H.    S S S #.#.#.#.#.e.# { 1./+& $ S + + `% &.&h%+&@&' , 1 ",
"5.  S   #.#.#.. . . . . M @ ! / h._+f     S S S d.$ % $ [.& H$<.& #&H.    S S S S S S #.#.e.# @ { /+$&A.  + + +.+ + +.+.+.' , | ",
"l.    S S S #.#.#.. . . M @ ! %&h._+I.5.  S S S d.$ % ]./+E+G.G.& -+&&    S S S S S #.#.#.e.# @ @ v.<.A.S + + + + + +.+.+., , q ",
"5.        S S #.#.#.#.#.f.@ ) *&=&l.5.5.        A.% % (.#.r.&&=&l.&&&&5.5.    S S S S S #.e.$ # @ v.G.I$  + . + + H+i } ~ ~ } -&",
"J.5.5.5.  S S #.#.#.#.#.$.@ ! *&R ;&l.5.        A.% <.d.S S   y.l.X.X.5.l.    S S S S S #.e.$ # @ v.G.a#5.. . + + + { ~ ~ ~ ! c ",
"l.5.5.l.    S S S S S #.;.# ! P.>&(.l.l.5.5.5.  A.% <.d.  S S (.y.X.2$l.l.5.          S S 3.$ # # j.].H$5.. . . + + { { { { ! c ",
"J.l.l.H$& I$A.A.d.$ $ $ }.8., D.,&h.K.H$a#a#a#w.f   l.S S     &&V%'&>+] &.5.5.            3.$ # # _#].7@5.#.#.. . . @ @ @ { ~ d ",
"y.(.(.i & & & % $ $ % $ 8. .O ( |.^ A%].].].m G.)&J.J.J.l.l.(.&&P.!&M.u.7@l.l.l.l.5.5.5.  f & % % F.].] J.#.#.. . . @ @ @ # @ [ ",
"(.R (.(+^.^.^.^.^.^.].].U.|./ M.( = k%v./+i.l ^.%+R >&y.~&y.(.R#{&]&- ( r$&&&&H.y.y.y.y.R %+i.e e O.i.H$l.^&^&#.#.f.# @ @ { ~ % ",
"z#W#W#p p b b b b p p b 1 -.D./&I (&A%A%(+] e.d.=.=.> # # M H+l+S%_&:&0+).. . . + . . . . 1.!.w.k%<&Y.%&,&> > 0+S%a#] * .+(+[&@+",
").[+[+O O T O O O O O O , U W }&|&|&h.h.h.k+S S }.> > # # @ !.T  ._&m+1&` S #.#.#.. #.#.#.e.> T > x#u.: W > > >  .> T O T T > = ",
"1&).).T T T T O O O O O , U O 2&|&|&3&h.: d.S #.0+ .> @ @ @ @ T , v#4&` #.#.#.#.#.#.. . . f.> > > |.W  . .> > > > T T T T O > > ",
" .> =.@ @ @ { { { O O O O U , :&|&|&|&J.&.3.d.;.# b.@ @ @ @ @ { 4.[&4&` ` C.e.;.;.;.;.;.M @ b.$ k+X.    S e.e.# $.@ @ @ @ @ @ ) ",
" . .> @ @ @ { { { O O O , F , m+|&|&J.J.r.k+$ # # # @ @ @ @ { { 4.#&4&5&3.$ # # # # # # @ { # 5 I.X.    S #.e.# @ @ @ @ @ @ @ @ ",
" . .T # @ @ { { { O O O O F , m+6&Y (.l.r.$ $ # # # @ @ @ @ @ { 6 (+7&8&f # # # # # # # # @ # 9+I$X.5.5.    C.# # # # @ @ @ @ # ",
"k+e.=.# @ @ !.!.!.O O O O F , :&Y Y J.l.  3.d.C.e.e.f.@ @ @ @ @ ~ -+R     d.C.# # # # # # # }.n S%W.l.    S S e.e.;.@ # # @ $ $ ",
"1&#.#.# @ @ T T T O O O O F , :&Y Y J.l.  3.S S #.#.. @ @ @ @ @ ~ =+H.8%B.S S }.# # # # # # > > S%W.l.5.  S S #.#.g @ # # @ $ # "};
