/* XPM */
static char * left_3_xpm[] = {
"64 64 653 2",
"  	c #58595B",
". 	c #5B5C5E",
"+ 	c #5C5D5F",
"@ 	c #5B5D5C",
"# 	c #5A5C5B",
"$ 	c #595B5A",
"% 	c #585A59",
"& 	c #575958",
"* 	c #545555",
"= 	c #4E4E4E",
"- 	c #474747",
"; 	c #474848",
"> 	c #5B5B5B",
", 	c #5E5E5E",
"' 	c #5F5F5F",
") 	c #5E5F5F",
"! 	c #5E605F",
"~ 	c #5D5F5E",
"{ 	c #5C5E5D",
"] 	c #565757",
"^ 	c #525252",
"/ 	c #4C4C4C",
"( 	c #4B4B4B",
"_ 	c #484848",
": 	c #585858",
"< 	c #626362",
"[ 	c #5F6160",
"} 	c #5D5E5E",
"| 	c #606060",
"1 	c #646464",
"2 	c #666767",
"3 	c #686A69",
"4 	c #6A6C6B",
"5 	c #676968",
"6 	c #626463",
"7 	c #575857",
"8 	c #4A4A4A",
"9 	c #515151",
"0 	c #616161",
"a 	c #626262",
"b 	c #636363",
"c 	c #646665",
"d 	c #636564",
"e 	c #505251",
"f 	c #58595A",
"g 	c #5A5C5D",
"h 	c #5C5E5F",
"i 	c #5C5E5E",
"j 	c #5D5F5F",
"k 	c #5E605E",
"l 	c #525353",
"m 	c #555656",
"n 	c #5F6060",
"o 	c #616363",
"p 	c #626363",
"q 	c #666666",
"r 	c #676767",
"s 	c #666867",
"t 	c #6A6B6A",
"u 	c #6A6B6B",
"v 	c #6B6C6C",
"w 	c #6C6D6C",
"x 	c #6D6F6E",
"y 	c #6E6F6F",
"z 	c #6F706F",
"A 	c #6E6E6E",
"B 	c #4F4F4F",
"C 	c #656665",
"D 	c #676868",
"E 	c #696969",
"F 	c #6A6A6A",
"G 	c #696A6A",
"H 	c #6B6C6B",
"I 	c #4F4F50",
"J 	c #616162",
"K 	c #656666",
"L 	c #686969",
"M 	c #5B5D5D",
"N 	c #5D5E5F",
"O 	c #5D5D5D",
"P 	c #5E5E5D",
"Q 	c #5A5A59",
"R 	c #535456",
"S 	c #595A5C",
"T 	c #5C5C5C",
"U 	c #6C6C6C",
"V 	c #6D6D6D",
"W 	c #595959",
"X 	c #5E5E5F",
"Y 	c #565658",
"Z 	c #58585A",
"` 	c #5A5A5C",
" .	c #5A5A5A",
"..	c #686868",
"+.	c #5D5E60",
"@.	c #676867",
"#.	c #5A5B5D",
"$.	c #5B5C5C",
"%.	c #6B6B6B",
"&.	c #575759",
"*.	c #58585B",
"=.	c #5B5B5C",
"-.	c #656565",
";.	c #5A5C5C",
">.	c #636464",
",.	c #535555",
"'.	c #646465",
").	c #5B5B5D",
"!.	c #5C5D5C",
"~.	c #5D5E5D",
"{.	c #606261",
"].	c #545655",
"^.	c #535554",
"/.	c #5C5F5E",
"(.	c #545557",
"_.	c #56575A",
":.	c #5B5D5E",
"<.	c #565857",
"[.	c #525453",
"}.	c #5A5B5B",
"|.	c #505050",
"1.	c #5C5D5D",
"2.	c #555657",
"3.	c #595A5B",
"4.	c #656766",
"5.	c #57585A",
"6.	c #606161",
"7.	c #565756",
"8.	c #5A5B5A",
"9.	c #5E5F5E",
"0.	c #4F504F",
"a.	c #595A59",
"b.	c #5B5C5B",
"c.	c #616263",
"d.	c #595B5B",
"e.	c #5A5B5C",
"f.	c #5B5C5D",
"g.	c #636463",
"h.	c #555555",
"i.	c #515352",
"j.	c #4C4E4D",
"k.	c #5E6060",
"l.	c #565759",
"m.	c #616262",
"n.	c #5F605F",
"o.	c #505151",
"p.	c #5A5B5E",
"q.	c #5B5C5F",
"r.	c #58595C",
"s.	c #595A5D",
"t.	c #5A5D5C",
"u.	c #535353",
"v.	c #4D4F4E",
"w.	c #585959",
"x.	c #4A4C4B",
"y.	c #525355",
"z.	c #57595A",
"A.	c #585A5A",
"B.	c #585A5B",
"C.	c #595B5C",
"D.	c #4D4D4D",
"E.	c #505150",
"F.	c #494B4A",
"G.	c #555756",
"H.	c #515254",
"I.	c #575859",
"J.	c #555658",
"K.	c #4C4D58",
"L.	c #4E4B56",
"M.	c #3D2D6C",
"N.	c #3D2D6B",
"O.	c #4A455C",
"P.	c #535356",
"Q.	c #555655",
"R.	c #494949",
"S.	c #4E4F4F",
"T.	c #474948",
"U.	c #4C4D4F",
"V.	c #4F5053",
"W.	c #545556",
"X.	c #565656",
"Y.	c #444444",
"Z.	c #4D4E50",
"`.	c #554F51",
" +	c #B82C37",
".+	c #BA2735",
"++	c #863774",
"@+	c #513F8D",
"#+	c #3F4191",
"$+	c #3F4090",
"%+	c #3E3679",
"&+	c #43385C",
"*+	c #4A4B4A",
"=+	c #4A4B4B",
"-+	c #4C4D4C",
";+	c #4C4D4D",
">+	c #545554",
",+	c #545454",
"'+	c #4B4C4C",
")+	c #48494A",
"!+	c #525354",
"~+	c #535455",
"{+	c #545656",
"]+	c #525454",
"^+	c #515353",
"/+	c #4E5050",
"(+	c #4C4D4E",
"_+	c #4A4B4D",
":+	c #4C4E4F",
"<+	c #4D4F4F",
"[+	c #4E4F50",
"}+	c #4E504F",
"|+	c #7F4C50",
"1+	c #BB283B",
"2+	c #BA283C",
"3+	c #464190",
"4+	c #3E3981",
"5+	c #525254",
"6+	c #575757",
"7+	c #4C4C4D",
"8+	c #4E4E50",
"9+	c #5C5C5E",
"0+	c #5D5D5F",
"a+	c #5E5D60",
"b+	c #515153",
"c+	c #4A4A4C",
"d+	c #5C5D5E",
"e+	c #5D2A5F",
"f+	c #5F4D91",
"g+	c #654F92",
"h+	c #3A4192",
"i+	c #8D3162",
"j+	c #942F5C",
"k+	c #3F4192",
"l+	c #45345A",
"m+	c #5A5A5B",
"n+	c #505052",
"o+	c #5E5F61",
"p+	c #5F5F61",
"q+	c #4D4D4F",
"r+	c #5F6062",
"s+	c #616362",
"t+	c #4D4557",
"u+	c #3B3F91",
"v+	c #C2A5AD",
"w+	c #EF9795",
"x+	c #715391",
"y+	c #3D4192",
"z+	c #3C4192",
"A+	c #3F3D8A",
"B+	c #636265",
"C+	c #595A5A",
"D+	c #5D5D5E",
"E+	c #5E5E60",
"F+	c #5E5F60",
"G+	c #606061",
"H+	c #3C2760",
"I+	c #614B91",
"J+	c #F2C3B6",
"K+	c #F9D6C4",
"L+	c #F09996",
"M+	c #745491",
"N+	c #3F3E8C",
"O+	c #585362",
"P+	c #3D3275",
"Q+	c #3D3A84",
"R+	c #DC9191",
"S+	c #F9D7C5",
"T+	c #ECC8B9",
"U+	c #A76272",
"V+	c #3B3E74",
"W+	c #3F2C5F",
"X+	c #4F5150",
"Y+	c #5F5F60",
"Z+	c #5B5A5C",
"`+	c #383173",
" @	c #A34369",
".@	c #E09191",
"+@	c #F6D4C3",
"@@	c #55305A",
"#@	c #A64465",
"$@	c #A44364",
"%@	c #474190",
"&@	c #4B3679",
"*@	c #3D3071",
"=@	c #391F50",
"-@	c #040102",
";@	c #8F5C62",
">@	c #B18682",
",@	c #200000",
"'@	c #9BC2D2",
")@	c #303864",
"!@	c #3C4091",
"~@	c #E48588",
"{@	c #85365D",
"]@	c #3F3B84",
"^@	c #4E4A51",
"/@	c #5B5E5D",
"(@	c #3D2156",
"_@	c #000000",
":@	c #FAF8F6",
"<@	c #FBD9C7",
"[@	c #FFFFFF",
"}@	c #F8F2F3",
"|@	c #59408C",
"1@	c #A994A8",
"2@	c #F9CEBD",
"3@	c #953961",
"4@	c #3C2053",
"5@	c #3D3274",
"6@	c #443652",
"7@	c #4E3B65",
"8@	c #3A2155",
"9@	c #A68489",
"0@	c #F3B6AC",
"a@	c #D2B4A5",
"b@	c #FDF3ED",
"c@	c #F8D0C0",
"d@	c #B17191",
"e@	c #F6B7AC",
"f@	c #E4B6AC",
"g@	c #7E325D",
"h@	c #3C2155",
"i@	c #3E357A",
"j@	c #4A226E",
"k@	c #4D306C",
"l@	c #565758",
"m@	c #4F5050",
"n@	c #484357",
"o@	c #B85A70",
"p@	c #F7CBBC",
"q@	c #F4CDBE",
"r@	c #F8D4C2",
"s@	c #F9D8C6",
"t@	c #EE9594",
"u@	c #AC516C",
"v@	c #442656",
"w@	c #432259",
"x@	c #3F215B",
"y@	c #3C285A",
"z@	c #4A236F",
"A@	c #4C2372",
"B@	c #422667",
"C@	c #4C4657",
"D@	c #402255",
"E@	c #B0526D",
"F@	c #E9BFB3",
"G@	c #F7D1C0",
"H@	c #F9D5C4",
"I@	c #F5C4B6",
"J@	c #BA556F",
"K@	c #5B3159",
"L@	c #605F62",
"M@	c #57486B",
"N@	c #4B2671",
"O@	c #42225F",
"P@	c #3F4190",
"Q@	c #473C53",
"R@	c #4D4658",
"S@	c #3A2055",
"T@	c #70515E",
"U@	c #AE5D6E",
"V@	c #C3717E",
"W@	c #BD5870",
"X@	c #AA4B68",
"Y@	c #656162",
"Z@	c #9A9A9A",
"`@	c #7F7D81",
" #	c #7881B7",
".#	c #4E2B75",
"+#	c #493E57",
"@#	c #3D2B68",
"##	c #453954",
"$#	c #525352",
"%#	c #585A5C",
"&#	c #4B4D4C",
"*#	c #4D4858",
"=#	c #865A89",
"-#	c #9B9D9B",
";#	c #795D7E",
">#	c #B24769",
",#	c #615D5E",
"'#	c #979797",
")#	c #878787",
"!#	c #866A87",
"~#	c #886693",
"{#	c #7F8DC2",
"]#	c #503178",
"^#	c #4C3468",
"/#	c #585958",
"(#	c #515251",
"_#	c #5C5B5C",
":#	c #777877",
"<#	c #B27CB4",
"[#	c #7B7E7B",
"}#	c #8B5B8F",
"|#	c #DB7B84",
"1#	c #696161",
"2#	c #838383",
"3#	c #7E7E7E",
"4#	c #937A94",
"5#	c #A25FA5",
"6#	c #5A4C78",
"7#	c #7D8ABF",
"8#	c #4B1E70",
"9#	c #4D465A",
"0#	c #605F61",
"a#	c #818281",
"b#	c #777778",
"c#	c #736B71",
"d#	c #705D71",
"e#	c #858585",
"f#	c #838483",
"g#	c #AA65AD",
"h#	c #5F5765",
"i#	c #7C89BE",
"j#	c #5C617A",
"k#	c #454746",
"l#	c #575858",
"m#	c #434544",
"n#	c #484948",
"o#	c #494A49",
"p#	c #484949",
"q#	c #4B4B4C",
"r#	c #464847",
"s#	c #555757",
"t#	c #5A595B",
"u#	c #727171",
"v#	c #B4B4B4",
"w#	c #9F9F9F",
"x#	c #9D9C9D",
"y#	c #A561A7",
"z#	c #6D6276",
"A#	c #636366",
"B#	c #828282",
"C#	c #917792",
"D#	c #5E5764",
"E#	c #5C627A",
"F#	c #505051",
"G#	c #4E4D4D",
"H#	c #454545",
"I#	c #4D4D4E",
"J#	c #616264",
"K#	c #636466",
"L#	c #656668",
"M#	c #666768",
"N#	c #676869",
"O#	c #676766",
"P#	c #636364",
"Q#	c #A34D67",
"R#	c #CBC2C4",
"S#	c #BCBCBC",
"T#	c #A5838B",
"U#	c #AD6176",
"V#	c #9F939D",
"W#	c #A85D8A",
"X#	c #A55270",
"Y#	c #7A87B5",
"Z#	c #7B87B5",
"`#	c #747CAB",
" $	c #62687F",
".$	c #676769",
"+$	c #666769",
"@$	c #646567",
"#$	c #626365",
"$$	c #636362",
"%$	c #7B5761",
"&$	c #B14869",
"*$	c #705A5D",
"=$	c #BABBBA",
"-$	c #BF6272",
";$	c #C6797E",
">$	c #D27982",
",$	c #AF4E6C",
"'$	c #CE6F7C",
")$	c #C56274",
"!$	c #9E517B",
"~$	c #4B2171",
"{$	c #64697F",
"]$	c #5C5C5D",
"^$	c #616261",
"/$	c #606062",
"($	c #626364",
"_$	c #766B97",
":$	c #664F66",
"<$	c #D3747F",
"[$	c #EE9191",
"}$	c #EF9292",
"|$	c #F09392",
"1$	c #993C6C",
"2$	c #7C88BE",
"3$	c #646A81",
"4$	c #4E4F51",
"5$	c #685A5F",
"6$	c #6C5C5F",
"7$	c #636D97",
"8$	c #A94563",
"9$	c #E18388",
"0$	c #E18489",
"a$	c #CB6A7A",
"b$	c #665E67",
"c$	c #5B5182",
"d$	c #808EC2",
"e$	c #585757",
"f$	c #4F5052",
"g$	c #B7B7B7",
"h$	c #CDCBCC",
"i$	c #BEBABB",
"j$	c #9E999A",
"k$	c #A8667A",
"l$	c #935162",
"m$	c #787879",
"n$	c #9A649D",
"o$	c #66666E",
"p$	c #575758",
"q$	c #4F5051",
"r$	c #626263",
"s$	c #4C4C4E",
"t$	c #8C3F47",
"u$	c #ACACAC",
"v$	c #9E9E9E",
"w$	c #9D9D9D",
"x$	c #9E969F",
"y$	c #A168A4",
"z$	c #635D63",
"A$	c #912A3A",
"B$	c #8B4E54",
"C$	c #A9A7A9",
"D$	c #9A639C",
"E$	c #565957",
"F$	c #565858",
"G$	c #575959",
"H$	c #6A4E53",
"I$	c #877B7C",
"J$	c #9E9F9E",
"K$	c #98779A",
"L$	c #7D5979",
"M$	c #773D43",
"N$	c #C56B6E",
"O$	c #D3787A",
"P$	c #C26569",
"Q$	c #8A4E53",
"R$	c #A4A5A4",
"S$	c #5C5A5C",
"T$	c #83474D",
"U$	c #7F484D",
"V$	c #8A4146",
"W$	c #9C3341",
"X$	c #CF7174",
"Y$	c #D07174",
"Z$	c #CE6F72",
"`$	c #F09393",
" %	c #C36266",
".%	c #854248",
"+%	c #6F4B4D",
"@%	c #B9545A",
"#%	c #BA555B",
"$%	c #81273F",
"%%	c #9F2436",
"&%	c #B65157",
"*%	c #CB7D7D",
"=%	c #8F3F47",
"-%	c #E58B8C",
";%	c #D3777A",
">%	c #9F2536",
",%	c #9B2538",
"'%	c #92253D",
")%	c #7A2C46",
"!%	c #6D595C",
"~%	c #57595B",
"{%	c #684753",
"]%	c #832642",
"^%	c #9E2738",
"/%	c #9C2738",
"(%	c #7C2B4A",
"_%	c #8A2640",
":%	c #9B2438",
"<%	c #9C2A39",
"[%	c #484A49",
"}%	c #5E5459",
"|%	c #665157",
"1%	c #5D5F63",
"2%	c #885888",
"3%	c #A02233",
"4%	c #505252",
"5%	c #4E4F4E",
"6%	c #595B59",
"7%	c #434343",
"8%	c #694B54",
"9%	c #82484D",
"0%	c #933742",
"a%	c #675558",
"b%	c #844046",
"c%	c #5C4E54",
"d%	c #752947",
"e%	c #752847",
"f%	c #535453",
"g%	c #464646",
"h%	c #71354C",
"i%	c #752A48",
"j%	c #694B56",
"k%	c #5D5E61",
"l%	c #464749",
"m%	c #5B5D5F",
"n%	c #57585B",
"o%	c #5C5E64",
"p%	c #72344C",
"q%	c #742D49",
"r%	c #49494B",
"s%	c #59595A",
"t%	c #5E6379",
"u%	c #6C76B4",
"v%	c #752F50",
"w%	c #6D4050",
"x%	c #4B4C4E",
"y%	c #606163",
"z%	c #5F5559",
"A%	c #694650",
"B%	c #694854",
"C%	c #565657",
"D%	c #515253",
"E%	c #565958",
"F%	c #4D4E4D",
"G%	c #505153",
"H%	c #535557",
"I%	c #666766",
"J%	c #555759",
"K%	c #525356",
"L%	c #535354",
"M%	c #4B4C4D",
"N%	c #555758",
"O%	c #49494A",
"P%	c #535454",
"Q%	c #515255",
"R%	c #616365",
"S%	c #494A4C",
"T%	c #595B5D",
"U%	c #4A4A4B",
"V%	c #545455",
"W%	c #4E4E4F",
"X%	c #525253",
"Y%	c #474847",
"Z%	c #515252",
"`%	c #4B4B4D",
" &	c #555557",
".&	c #59595B",
"+&	c #515152",
"@&	c #555556",
"#&	c #535355",
"$&	c #5A5A5D",
"%&	c #565558",
"&&	c #545456",
"*&	c #59595C",
"  . + @ @ @ # $ % % & $ * = - ; & # > , ' ) ! ~ ~ ~ { @ # # ] ^ / ( _ : < [ ~ } | 1 2 3 4 4 5 6 7 8 9 | 0 a b 6 c c d d 6 [ @ e ",
"f g h i ~ ~ ~ j } k ! [ ) ' l m n o p q r s 5 3 t u v w x y z A 1 B 8 C 2 C s D E F G u u H u H A I J r r r q K K c c K 2 G u L ",
"& # @ @ @ M . + N { { @ O P Q R   S > > T T O , , ' , ' | 1 U V U > B W > T O O , , , , ' ' ' ' X Y Z `  . . .> T T T O O , ..E ",
"& @ @ @ @ { + +.+.~ ! [ @., : R S #.$.T T T T O , , , ' ' | 1 U %., B > > T O O , , , , , , ' ' a &.*.=.> T T T T T O , , ' -.r ",
"f ;.M @ @ { + + +.~ ~ ~ >.F 7 ,.S #.$.T T T T O O , , , ' ' ' ' E , B > T T O O } , , , ~ , ' , '.Y Z ).> $.$.T T !.O ~.} ' a q ",
"  . . @ @ @ + + + ~ ~ @ {.6 ].^.$ # > > T T T O T , , , , ' ' ' q ' B > T T O O { /.~ ~ ~ ~ , | '.(._.g # # # @ @ @ { { { /.~ c ",
"  #.. @ @ { :.+ + { { { [ {.<.[.% $ }.> > T T O O O , , , , , ' r , |. .> > T 1.{ { ~ ~ ~ ~ , | p 2._.3.$ # # @ @ @ @ { { { { 4.",
"5.S #.$.;.;.. . + { { { 6.< 7.[.$ $ 8.}.}.$.$.1.1.1.} } ~., 9.' -.1.0.a.> > b.$.M i } ~ ~ ~ ) n c.(._.3.d.e.;.$.f.M @ { { @ @ g.",
"5.#.#.#.#.#.. . . @ @ { n b h.i.% % $ $ # # # @ @ @ { { { ~ ' ' 1 $.j.% # # # ;.. + + { { { ~ [ k.(.l.S S #.#.#.. . @ @ @ @ @ m.",
"  S #.S #.#.. . #.# @ @ n.b h.o.& & % % # # # # @ @ @ { { { , , b 8.j.% $ $ # ;.p.q.f.@ { { { {.1.R l.    r.s.s.p.g # # # # t.[ ",
"5.    S S S S d.d.$ $ # , b u.v.7 & % % % $ $ $ # # # @ { @ O , a w.x.& $ $ $ }.;.g # # { { @ ~ M y.l.5.z.A.B.d.C.d.$ $ # b.$.9.",
"5.          % % % A.% $ a.O D.( ^ h.& & % $ $ $ # # # # { @ O O T E.F.G.% % $ $ $ # # # @ @ @ @ f.H.l.I.& & % % $ $ $ $ $  . .: ",
"(.l.J.K.L.M.N.N.N.O.P.& Q.9 R.R.^ ^ E.].<.& & & % % $ # # # > >  .S.T.v.<.% % $ $ % $ $ # # # # d.U.V.W.G.G.G.<.<.<.<.<.] X.|.Y.",
"Z.`. +.+++@+#+#+#+$+%+&+o.B 8 _ R.R.*+=+-+;+;+v.S.E.>+] 7 G.Q.,+u.'+)+l !+~+,.{+W.* ,.W.~+]+^+/+(+U._+:+v.S.<+[+<+<+v.}+S.D.D.- ",
"R |+1+1+1+2+3+#+#+#+#+4+5+^ 8 _ _ R.R.8 = 9 u.,+X.W T T T , , X.6+7+8+` ` ).9+0++.+.+.+.+.+.a+Z b+c+` 0+. #.. . . d+{ { ~ 0 ..E ",
"  e+f+g+h+i+j+#+#+#+#+k+l+0 B - D.|.9 X. .> > > T T T T O O O , O m+n+` ` 0+9++ + + + + +.o+p+0+).q+` + + +.+.+.r+r+[ s+p ..U ..",
"t+u+v+w+x+y+z+#+#+#+#+#+A+B+9 D.X.: W C+ .> > > T T T O O O , O ' D+b+` ).9+9++ + + + + +.+.E+F+G+8+).0++ +.+.+.o+o+[ [ [ a %.E ",
"H+I+J+K+L+M+#+#+#+#+#+#+N+O+^ }+<.& % % $ # # # $.T T O O O O O | E+b+).. #.. . . + + + +.N ~ ~ ) B T N + +.+.+.o+o+! [ [ 0 r ..",
"P+Q+R+S+T+U+V+#+#+#+#+#+#+W+9 X+].G.% % $ # # # b.T T O O O O , 0 Y+b+Z+#.#.. . . + + + + d+{ ~ ! |.T } + +.+.+.o+F+! ! n | -...",
"`+ @.@+@@@#@$@%@#+#+&@*@#+W+9 |.>+^.% A.d.d.# # b.T T O O { ~., 0 Y+b+` e.#.. . . + + + + i { ~ ! |.T D++ +.+.+.F+! ! ) | | a r ",
"=@-@;@S+>@,@'@)@#+!@~@{@$+]@^@|.h.h.Z r.S d.@ # @ t.t./@/@{ O O 0 ' 9  .}.# # ;.@ @ @ { { { { { 9.B > 1.+ + + j ~ ~ , , | ' | -.",
"(@_@:@S+<@_@[@}@|@1@2@3@4@5@6@7@,+,+&.  r.d.# $ # @ @ @ @ { O O | O 9  .8.$ # # # @ @ @ @ { { { 9.B > 1.+ + + { ~ ~ , , , , , b ",
"8@9@0@S+S+a@b@c@d@e@f@g@h@i@j@k@,+,+l@z.  C+$ $ # # @ @ @ { O O ' 1.m@ .$ $ # # ;.@ @ @ @ @ { { 9.B > 1.+ + + { ~ ~ , , , ' O ' ",
"n@o@p@q@r@S+s@t@u@v@w@x@y@z@A@B@,+u.^.<.& % % $ # # # $.T T T T ' ~.X+% $ $ $ d.#.#.#.# # # # @ ~ v.$ M . + + + + + { ~ ) q T O ",
"C@D@E@F@G@H@I@J@K@L@M@A@N@A@O@P@Q@^ l [.^.<.$ $ $ $ # b.T T T O ' ~.e & % $ $ d.#.s.e.# $ $ # @ { j.$ $.#.. . + + . i { } q T T ",
"l.R@S@T@U@V@W@X@Y@Z@`@ #.#A@+#@###$#^.A.$ % % $ $ $ # > > > > > , $.}+& % a.& w.B.%#$ % $ $ @ # @ &#$ ;.#.#.. . . . @ @ { T T > ",
"l.5.*#=#-#;#>#,#'#)#!#~#{#]#^#X+i.e !+  5.f % % $ $ $ # $ $  .> 6+>+j.^.Q.h.h.X.6+6+/#& & /#W : (#v.% # #.#.#.. . . @ @ @ _#T > ",
"(.l.:#<#[#}#|#1#2#3#4#5#6#7#8#9#[.[.(.5.l.& % % % % % % <.G.% W X.(#&#j.X+9 ,+h.u.|.(#i.X+o.B D.D.&#& d.#.S . . . f.@ @ @ !.>  .",
"Z.R } 0#a#b#c#d#| e#f#g#h#i#j#k#e ].2.J.l.<.7 l#& & & & m Q.* 9 B D.m#T.n#R.o#R.p#q#;+&#j.;+B |.;+r#}+~+R R J.J.J.J.G.2.s#m >+= ",
"n+l.t#u#v#w#x#y#z#A#B#C#D#i#E#_ _ / = |.F#|.9 ^ $#[.^.>+9 B D.G#= = H#8 I#!+(.l.#.J#K#L#M#N#O#r P#c+Z #.. . . . + + + + + { i.F.",
"#.. Q#R#S#T#U#V#W#X#Y#Z#`#i# $- 8 |.u.X.6+6+6+: 7 & & 7 6+6+6+X.h.B - P .$+$@$#$#$K##$#$#$#$$$b 0 n+).+ + + +.+ +.+.+.+.+.k @ [.",
"S %$&$*$=$-$;$>$,$'$)$!$~$i#{$8 w.> ]$X O , ) ' n {.[ 6.^$| 0 0 0 T D.> 1.h +.r+/$c.($K#K#K#1 1 J n+).9++ + +.+ + + +.+.+.~ ! $.",
"S %$&$_$:$<$[$[$}$[$|$1$~$2$3$4$5.5.S S S e.# # @ @ @ @ @ { { O T ]$q+).f.@ @ @ @ { { { ~ 9., , ' |.> f.. + + + +.+.+.+.+.~ [ # ",
"S . 5$6$7$8$9$9$9$0$a$b$c$d$e$f$5.      S e.# # # # @ @ @ @ !.T T ]$q+).f.# @ @ @ { { { ~ ~ , , ' = > $.. . . + + + + +.+.~ ! ^.",
"S . . , g$h$i$j$j$k$l$m$n$o$p$q$5.      S # # # # # @ @ @ @ T T , r$s$` f.;.@ @ @ { { { ~ , , , ' D. .$.. . . + + + + +.N ~ [ w.",
"  #.#.t$u$v$w$x$y$z$A$B$C$D$E$X+F$G$G$$ $ $ $ # # # @ f.. . @ @ ~ {.D. .=.#.. M @ { { { { } , , ' D. .}.#.. . M M M { { { , , h.",
"S #.#.H$I$J$K$L$M$N$O$P$Q$R$G.X+G.& % % $ $ $ $ # # @ g . . M @ ! n / : e.#.#.;.@ { { { { ~., O | (  .m+#.#.f.@ @ @ { @ { O , ,+",
"S S #.S$T$U$V$W$X$Y$Z$`$ %.%+%X+].<.% % % $ $ $ $ % # #.#.#.f.@ @ % D.: 3.S #.;.@ $.@ @ { O O , | ( W }.#.#.#.@ @ @ @ @ @ _#T ^ ",
"  #.S #.#.@%#%$%%%%%%%&%*%=%9 4$R J.G$& & % % % % $ # S S S d.$ # % v.& A.  S #.#.#.f.@ @ @ { ~ ! x.% $ $ # # # # # > > > > > ^ ",
"B.S S S #.-%;%>%%%%%,%'%)%!%|.8+H.R F$& & % % % % & % B.S S 3.$ # % &#& A.    S #.S e.# # # @ { $ &#% % % # $ $ # # > > >  .W 9 ",
"~%S S S #.{%]%^%/%(%_%:%%%<%D.Z.H.R F$<.<.^.^.^.^.].& f   B.A.% % <.[%].w.    S S S d.# # # @ # }+x.& % % $ $ $ # #  .>  . .6+( ",
"~%    S S }%|%} 1%2%3%%%%%<%/ v.4%]+7.7.u.B B 5%S.S.o.^ $#9 9 9 ^ ,+D.8 [.G$& 6%% $ # # # }.> 6+D.( u.: % % $ # $ $ : W h.W ^ 7%",
"5.  S     S , 8%9%3%0%a%%%b%( x.i.[.9 = = B B B B B |.|.|.|.|.|.9 |.R._ *+i.G.& & % % $ % w.6+^ / ( 8 9 e ^.<.G.G.G.,+,+u.^ = Y.",
"f$H.y.(.R R c%d%e%e%R R * 9 ( p#'+}+E.(#u.,+f%,+l ^ ^ ^ ^ ^ l u.^ 8 g%'+S.}+}+e o.i.i.l i.i.u.u.|.8 8 ;+X+G.l#& % % : W W w.: / ",
"5.S S #.#.#.. h%i%e%j%k%E+G+0+l%_+(.l.I.  f f         S S 3.C+% $ ^+H.    B.3.S #.. . . :.i { { C+( |.: ;.#.#.. . m%. e.3.# { ^$",
"n%S S S #.#.#.o%p%e%q%. 9+).0+r%(.+       S S     S #.S S S A.% $ ,.R   S #.S S #.#.. . #.g # { { D.,+s%#.#.+.+ #.+ + +.o+k ! s ",
"    S S S #.t%u%v%e%w%. 9+9+p+x%5.y%      S S S S S #.S     f % % ~+H.    #.S S #.#.#.#.. f.@ { { = : m+. + . + +.+.+.o+o+! ~ d ",
"  S S   #.#.z%A%B%B%. . @ @ ~ / C%Y+f     S S S d.$ $ $ G.C+% % % !+H.    S S S #.#.#.#.#.e.# { 1.}+& $ S + + +.+.+.+.+.+.' , 1 ",
"5.  S   #.#.#.. . . . . M @ ! / h.6+f     S S S d.$ % $ [.& F$<.& D%H.    S S S S S S #.#.e.# @ { }+E%A.  + + +.+ + +.+.+.' , | ",
"l.    S S S #.#.#.. . . M @ ! F%h.6+I.5.  S S S d.$ % ].}+X+G.G.& ^+G%    S S S S S #.#.#.e.# @ @ v.<.A.S + + + + + +.+.+., , q ",
"5.        S S #.#.#.#.#.f.@ ) :+H%l.5.5.        A.% % (.#.r.G%H%l.G%G%5.5.    S S S S S #.e.$ # @ v.G.G$  + . + + d+i } ~ ~ } I%",
"J.5.5.5.  S S #.#.#.#.#.$.@ ! :+R J%l.5.        A.% <.d.S S   y.l.f$f$5.l.    S S S S S #.e.$ # @ v.G.l#5.. . + + + { ~ ~ ~ ! c ",
"l.5.5.l.    S S S S S #.;.# ! U.K%(.l.l.5.5.5.  A.% <.d.  S S (.y.f$4$l.l.5.          S S 3.$ # # j.].F$5.. . . + + { { { { ! c ",
"J.l.l.F$& G$A.A.d.$ $ $ }.8., D.L%h.s#F$l#l#l#w.f   l.S S     G%x%M%I#] &.5.5.            3.$ # # &#].l@5.#.#.. . . @ @ @ { ~ d ",
"y.(.(.i & & & % $ $ % $ 8. .O ( |.^ f%].].].m G.N%J.J.J.l.l.(.G%U.O%R.u.l@l.l.l.l.5.5.5.  f & % % F.].] J.#.#.. . . @ @ @ # @ [ ",
"(.R (.P%^.^.^.^.^.^.].].X.|./ R.( = 5%v.}+i.l ^.~+R K%y.Q%y.(.r+R%S%- ( q$G%G%H.y.y.y.y.R ~+i.e e T.i.F$l.T%T%#.#.f.# @ @ { ~ % ",
"K##$#$p p b b b b p p b 1 -.D.U%I V%f%f%P%] e.d.=.=.> # # M d+D+s%W%X%m+).. . . + . . . . 1.!.w.5%Y%*+F%L%> > m+s%l#] * >+P%Z%'+",
").9+9+O O T O O O O O O , U W `% & &h.h.h.C+S S }.> > # # @ !.T  .W%b+.&` S #.#.#.. #.#.#.e.> T > H#u.: W > > >  .> T O T T > = ",
".&).).T T T T O O O O O , U O +& & &@&h.: d.S #.m+ .> @ @ @ @ T , F##&` #.#.#.#.#.#.. . . f.> > > |.W  . .> > > > T T T T O > > ",
" .> =.@ @ @ { { { O O O O U , X% & & &J.&.3.d.;.# b.@ @ @ @ @ { 4.Z%#&` ` C.e.;.;.;.;.;.M @ b.$ C+f$    S e.e.# $.@ @ @ @ @ @ ) ",
" . .> @ @ @ { { { O O O , F , b+ & &J.J.r.C+$ # # # @ @ @ @ { { 4.D%#&$&3.$ # # # # # # @ { # 5 I.f$    S #.e.# @ @ @ @ @ @ @ @ ",
" . .T # @ @ { { { O O O O F , b+%&Y (.l.r.$ $ # # # @ @ @ @ @ { 6 P%&&*&f # # # # # # # # @ # s+G$f$5.5.    C.# # # # @ @ @ @ # ",
"C+e.=.# @ @ !.!.!.O O O O F , X%Y Y J.l.  3.d.C.e.e.f.@ @ @ @ @ ~ ^+R     d.C.# # # # # # # }.n s%Z.l.    S S e.e.;.@ # # @ $ $ ",
".&#.#.# @ @ T T T O O O O F , X%Y Y J.l.  3.S S #.#.. @ @ @ @ @ ~ ]+H.~%B.S S }.# # # # # # > > s%Z.l.5.  S S #.#.g @ # # @ $ # "};
