/* XPM */
static char * left_1_xpm[] = {
"64 64 648 2",
"  	c #58595B",
". 	c #5B5C5E",
"+ 	c #5C5D5F",
"@ 	c #5B5D5C",
"# 	c #5A5C5B",
"$ 	c #595B5A",
"% 	c #585A59",
"& 	c #575958",
"* 	c #545555",
"= 	c #4E4E4E",
"- 	c #474747",
"; 	c #474848",
"> 	c #5B5B5B",
", 	c #5E5E5E",
"' 	c #5F5F5F",
") 	c #5E5F5F",
"! 	c #5E605F",
"~ 	c #5D5F5E",
"{ 	c #5C5E5D",
"] 	c #565757",
"^ 	c #525252",
"/ 	c #4C4C4C",
"( 	c #4B4B4B",
"_ 	c #484848",
": 	c #585858",
"< 	c #626362",
"[ 	c #5F6160",
"} 	c #5D5E5E",
"| 	c #606060",
"1 	c #646464",
"2 	c #666767",
"3 	c #686A69",
"4 	c #6A6C6B",
"5 	c #676968",
"6 	c #626463",
"7 	c #575857",
"8 	c #4A4A4A",
"9 	c #515151",
"0 	c #616161",
"a 	c #626262",
"b 	c #636363",
"c 	c #646665",
"d 	c #636564",
"e 	c #505251",
"f 	c #58595A",
"g 	c #5A5C5D",
"h 	c #5C5E5F",
"i 	c #5C5E5E",
"j 	c #5D5F5F",
"k 	c #5E605E",
"l 	c #525353",
"m 	c #555656",
"n 	c #5F6060",
"o 	c #616363",
"p 	c #626363",
"q 	c #666666",
"r 	c #676767",
"s 	c #666867",
"t 	c #6A6B6A",
"u 	c #6A6B6B",
"v 	c #6B6C6C",
"w 	c #6C6D6C",
"x 	c #6D6F6E",
"y 	c #6E6F6F",
"z 	c #6F706F",
"A 	c #6E6E6E",
"B 	c #4F4F4F",
"C 	c #656665",
"D 	c #676868",
"E 	c #696969",
"F 	c #6A6A6A",
"G 	c #696A6A",
"H 	c #6B6C6B",
"I 	c #4F4F50",
"J 	c #616162",
"K 	c #656666",
"L 	c #686969",
"M 	c #5B5D5D",
"N 	c #5D5E5F",
"O 	c #5D5D5D",
"P 	c #5E5E5D",
"Q 	c #5A5A59",
"R 	c #535456",
"S 	c #595A5C",
"T 	c #5C5C5C",
"U 	c #6C6C6C",
"V 	c #6D6D6D",
"W 	c #595959",
"X 	c #5E5E5F",
"Y 	c #565658",
"Z 	c #58585A",
"` 	c #5A5A5C",
" .	c #5A5A5A",
"..	c #686868",
"+.	c #5D5E60",
"@.	c #676867",
"#.	c #5A5B5D",
"$.	c #5B5C5C",
"%.	c #6B6B6B",
"&.	c #575759",
"*.	c #58585B",
"=.	c #5B5B5C",
"-.	c #656565",
";.	c #5A5C5C",
">.	c #636464",
",.	c #535555",
"'.	c #646465",
").	c #5B5B5D",
"!.	c #5C5D5C",
"~.	c #5D5E5D",
"{.	c #606261",
"].	c #545655",
"^.	c #535554",
"/.	c #5C5F5E",
"(.	c #545557",
"_.	c #56575A",
":.	c #5B5D5E",
"<.	c #565857",
"[.	c #525453",
"}.	c #5A5B5B",
"|.	c #505050",
"1.	c #5C5D5D",
"2.	c #555657",
"3.	c #595A5B",
"4.	c #656766",
"5.	c #57585A",
"6.	c #606161",
"7.	c #565756",
"8.	c #5A5B5A",
"9.	c #5E5F5E",
"0.	c #4F504F",
"a.	c #595A59",
"b.	c #5B5C5B",
"c.	c #616263",
"d.	c #595B5B",
"e.	c #5A5B5C",
"f.	c #5B5C5D",
"g.	c #636463",
"h.	c #555555",
"i.	c #515352",
"j.	c #4C4E4D",
"k.	c #5E6060",
"l.	c #565759",
"m.	c #616262",
"n.	c #5F605F",
"o.	c #505151",
"p.	c #5A5B5E",
"q.	c #5B5C5F",
"r.	c #58595C",
"s.	c #595A5D",
"t.	c #5A5D5C",
"u.	c #535353",
"v.	c #4D4F4E",
"w.	c #585959",
"x.	c #4A4C4B",
"y.	c #525355",
"z.	c #57595A",
"A.	c #585A5A",
"B.	c #585A5B",
"C.	c #595B5C",
"D.	c #4D4D4D",
"E.	c #505150",
"F.	c #494B4A",
"G.	c #555756",
"H.	c #515254",
"I.	c #575859",
"J.	c #555658",
"K.	c #555757",
"L.	c #555655",
"M.	c #494949",
"N.	c #3F3B53",
"O.	c #403752",
"P.	c #3E357A",
"Q.	c #48405E",
"R.	c #545359",
"S.	c #4C4D4F",
"T.	c #4F5053",
"U.	c #545556",
"V.	c #565656",
"W.	c #444444",
"X.	c #4D4E50",
"Y.	c #4F5052",
"Z.	c #4A4B4A",
"`.	c #4A4B4B",
" +	c #4C4D4C",
".+	c #4C4D4D",
"++	c #4E4F4F",
"@+	c #545554",
"#+	c #734D4F",
"$+	c #BE2633",
"%+	c #BF2632",
"&+	c #853877",
"*+	c #533F8C",
"=+	c #3F4191",
"-+	c #3E367C",
";+	c #443A64",
">+	c #535455",
",+	c #525454",
"'+	c #515353",
")+	c #4E5050",
"!+	c #4C4D4E",
"~+	c #4A4B4D",
"{+	c #4C4E4F",
"]+	c #4D4F4F",
"^+	c #4E4F50",
"/+	c #4E504F",
"(+	c #535454",
"_+	c #545454",
":+	c #9C3C4D",
"<+	c #B22B4A",
"[+	c #B32B49",
"}+	c #BB2738",
"|+	c #4D408E",
"1+	c #3E3880",
"2+	c #5A595F",
"3+	c #5E5D60",
"4+	c #515153",
"5+	c #4A4A4C",
"6+	c #5D5D5F",
"7+	c #5C5D5E",
"8+	c #5E5F61",
"9+	c #616362",
"0+	c #5C5C60",
"a+	c #483E8D",
"b+	c #B77693",
"c+	c #3E4191",
"d+	c #404191",
"e+	c #932D58",
"f+	c #7C3672",
"g+	c #3F4192",
"h+	c #43345B",
"i+	c #5F5F61",
"j+	c #4D4D4F",
"k+	c #5F6062",
"l+	c #595A5A",
"m+	c #45478A",
"n+	c #B66A88",
"o+	c #F8C1B3",
"p+	c #414291",
"q+	c #3D4192",
"r+	c #3D4191",
"s+	c #3E3C88",
"t+	c #59595E",
"u+	c #5E5E60",
"v+	c #5E5F60",
"w+	c #606061",
"x+	c #4E4E50",
"y+	c #4B4789",
"z+	c #DD7C83",
"A+	c #F6CABB",
"B+	c #E8A9A6",
"C+	c #4C4491",
"D+	c #3F3E8C",
"E+	c #4F495E",
"F+	c #4F5150",
"G+	c #454689",
"H+	c #371D53",
"I+	c #E6ACA4",
"J+	c #F9D5C3",
"K+	c #D3888E",
"L+	c #3A4091",
"M+	c #3E2C5F",
"N+	c #4A4685",
"O+	c #A54162",
"P+	c #ECAEA6",
"Q+	c #E6C5B7",
"R+	c #5C2F5A",
"S+	c #684184",
"T+	c #3E408F",
"U+	c #50428E",
"V+	c #3F408F",
"W+	c #5D5D5E",
"X+	c #5B5E5D",
"Y+	c #423155",
"Z+	c #190607",
"`+	c #BC948D",
" @	c #FAD8C6",
".@	c #8C585E",
"+@	c #0B0000",
"@@	c #7A95B7",
"#@	c #484391",
"$@	c #E48589",
"%@	c #803664",
"&@	c #3F4190",
"*@	c #3F3C84",
"=@	c #56555B",
"-@	c #57585B",
";@	c #433156",
">@	c #000000",
",@	c #FFF4EE",
"'@	c #F9D7C5",
")@	c #F3D2C0",
"!@	c #FFFFFF",
"~@	c #30368F",
"{@	c #3D4091",
"]@	c #B39CAA",
"^@	c #F9D0BF",
"/@	c #8F335E",
"(@	c #3E367B",
"_@	c #3F408E",
":@	c #545259",
"<@	c #565758",
"[@	c #59595C",
"}@	c #3E2154",
"|@	c #D5BDBE",
"1@	c #F4BDB0",
"2@	c #B89E91",
"3@	c #FFF5F1",
"4@	c #D8BBB8",
"5@	c #6A5091",
"6@	c #F6BDB1",
"7@	c #E7BAAF",
"8@	c #7B2E5C",
"9@	c #3D2965",
"0@	c #49226D",
"a@	c #544768",
"b@	c #59575B",
"c@	c #422256",
"d@	c #D3747F",
"e@	c #F9D4C2",
"f@	c #F5CFBF",
"g@	c #F9D6C4",
"h@	c #F9D8C6",
"i@	c #DE8389",
"j@	c #AE496B",
"k@	c #6B3D5D",
"l@	c #462356",
"m@	c #3C2155",
"n@	c #3C295A",
"o@	c #4A2873",
"p@	c #4C2372",
"q@	c #903A61",
"r@	c #EE9594",
"s@	c #F3CABC",
"t@	c #F9D4C3",
"u@	c #F4BCB0",
"v@	c #B9546E",
"w@	c #A84C68",
"x@	c #503D68",
"y@	c #4A236E",
"z@	c #443886",
"A@	c #4F4956",
"B@	c #525352",
"C@	c #5A595B",
"D@	c #402C56",
"E@	c #382055",
"F@	c #7B425D",
"G@	c #895A63",
"H@	c #C66B78",
"I@	c #CB7580",
"J@	c #B04267",
"K@	c #825560",
"L@	c #999898",
"M@	c #9D9D9D",
"N@	c #513D68",
"O@	c #4C2071",
"P@	c #453786",
"Q@	c #4C4556",
"R@	c #4B4D4C",
"S@	c #525354",
"T@	c #4D4558",
"U@	c #453857",
"V@	c #936A94",
"W@	c #745C75",
"X@	c #9B959C",
"Y@	c #9E4C64",
"Z@	c #A0666D",
"`@	c #A3A3A3",
" #	c #9C9C9C",
".#	c #858585",
"+#	c #6A738D",
"@#	c #7982B8",
"##	c #615D98",
"$#	c #443786",
"%#	c #3E3A83",
"&#	c #514E56",
"*#	c #515251",
"=#	c #5C5B5C",
"-#	c #5A5D5A",
";#	c #AB81AD",
">#	c #8A8A8A",
",#	c #C07D7D",
"'#	c #A57070",
")#	c #B6B6B6",
"!#	c #7A7A7A",
"~#	c #898989",
"{#	c #A06FA2",
"]#	c #676E89",
"^#	c #7B86BB",
"/#	c #4D2A74",
"(#	c #402D56",
"_#	c #454746",
":#	c #575858",
"<#	c #5A5958",
"[#	c #AB4967",
"}#	c #71535A",
"|#	c #676067",
"1#	c #C3C3C3",
"2#	c #BBBBBB",
"3#	c #A2A3A2",
"4#	c #79487E",
"5#	c #717171",
"6#	c #9E71A0",
"7#	c #905C91",
"8#	c #7E8CC1",
"9#	c #584685",
"0#	c #4C2C6E",
"a#	c #464847",
"b#	c #505052",
"c#	c #5C5C5D",
"d#	c #505051",
"e#	c #8F4E60",
"f#	c #B14869",
"g#	c #8B6AA0",
"h#	c #5D5E5C",
"i#	c #ADADAD",
"j#	c #855588",
"k#	c #4C5053",
"l#	c #9B9B9B",
"m#	c #989898",
"n#	c #828482",
"o#	c #965E97",
"p#	c #594A87",
"q#	c #7F8FC2",
"r#	c #666768",
"s#	c #676869",
"t#	c #676766",
"u#	c #636364",
"v#	c #606163",
"w#	c #636466",
"x#	c #656668",
"y#	c #575757",
"z#	c #8F5061",
"A#	c #9A6191",
"B#	c #6674A9",
"C#	c #575754",
"D#	c #CBCBCB",
"E#	c #969393",
"F#	c #9D6875",
"G#	c #975F6D",
"H#	c #576071",
"I#	c #6F7CA0",
"J#	c #7D7F85",
"K#	c #717170",
"L#	c #7A5681",
"M#	c #5A4A88",
"N#	c #7F8EC1",
"O#	c #626365",
"P#	c #636362",
"Q#	c #565555",
"R#	c #925565",
"S#	c #8A6CA3",
"T#	c #686D9D",
"U#	c #645056",
"V#	c #835862",
"W#	c #CD6E79",
"X#	c #D5787E",
"Y#	c #B8516D",
"Z#	c #C76576",
"`#	c #A682A9",
" $	c #7B779A",
".$	c #574C64",
"+$	c #5C5C5E",
"@$	c #4E4F51",
"#$	c #5E5D5C",
"$$	c #7D5760",
"%$	c #A94B68",
"&$	c #B04969",
"*$	c #AA4C6C",
"=$	c #944461",
"-$	c #72324A",
";$	c #B14E6A",
">$	c #EE9191",
",$	c #E08387",
"'$	c #DF8187",
")$	c #EC8F90",
"!$	c #BD5D72",
"~$	c #6A6FA2",
"{$	c #585757",
"]$	c #6E5B5E",
"^$	c #A29D9E",
"/$	c #B6B7B7",
"($	c #B1B1B1",
"_$	c #7E656A",
":$	c #E28489",
"<$	c #ED9091",
"[$	c #CC6B7A",
"}$	c #554D66",
"|$	c #5B4D8A",
"1$	c #7E8DBF",
"2$	c #646364",
"3$	c #575758",
"4$	c #4F5051",
"5$	c #AFAFAF",
"6$	c #A0A0A0",
"7$	c #A59DA5",
"8$	c #A478A6",
"9$	c #8C6179",
"0$	c #AC616F",
"a$	c #CB6A7A",
"b$	c #CA6A7A",
"c$	c #B57C86",
"d$	c #58565C",
"e$	c #7E8CBD",
"f$	c #5D6062",
"g$	c #565858",
"h$	c #575959",
"i$	c #625556",
"j$	c #878A89",
"k$	c #704C4F",
"l$	c #704C4E",
"m$	c #98323D",
"n$	c #851F35",
"o$	c #7A3B44",
"p$	c #696163",
"q$	c #A97682",
"r$	c #9DA09E",
"s$	c #7B497E",
"t$	c #765050",
"u$	c #83283A",
"v$	c #9F2637",
"w$	c #862136",
"x$	c #882136",
"y$	c #9F2436",
"z$	c #7E3742",
"A$	c #969596",
"B$	c #9B599E",
"C$	c #74464B",
"D$	c #9B2436",
"E$	c #665A5A",
"F$	c #5A5A5B",
"G$	c #5D5B5B",
"H$	c #9E2637",
"I$	c #992336",
"J$	c #942336",
"K$	c #7F3440",
"L$	c #655B5B",
"M$	c #9B2D3B",
"N$	c #872136",
"O$	c #80313E",
"P$	c #5E5A5B",
"Q$	c #645858",
"R$	c #8F5C5D",
"S$	c #D97F80",
"T$	c #DB7F80",
"U$	c #DE8081",
"V$	c #9B2235",
"W$	c #92253C",
"X$	c #792744",
"Y$	c #752947",
"Z$	c #615558",
"`$	c #6B5153",
" %	c #9E1A31",
".%	c #9E1930",
"+%	c #CB6B6F",
"@%	c #CD6D70",
"#%	c #7A3F62",
"$%	c #6A7BBB",
"%%	c #742342",
"&%	c #752647",
"*%	c #752847",
"=%	c #57595B",
"-%	c #934B74",
";%	c #924C75",
">%	c #763C62",
",%	c #6B7ABA",
"'%	c #655355",
")%	c #752744",
"!%	c #505252",
"~%	c #4E4F4E",
"{%	c #5C5B5B",
"]%	c #69595A",
"^%	c #7375B2",
"/%	c #714466",
"(%	c #5D6376",
"_%	c #5B5B59",
":%	c #6B78B7",
"<%	c #74385D",
"[%	c #434343",
"}%	c #524748",
"|%	c #9F2336",
"1%	c #9F2334",
"2%	c #5B5555",
"3%	c #6A7AB8",
"4%	c #733A5E",
"5%	c #654B52",
"6%	c #484949",
"7%	c #4B4C4C",
"8%	c #535453",
"9%	c #4F4445",
"0%	c #8D363F",
"a%	c #5D5E61",
"b%	c #464749",
"c%	c #913B44",
"d%	c #8E3A44",
"e%	c #5B5D5F",
"f%	c #616261",
"g%	c #49494B",
"h%	c #585E74",
"i%	c #5F5D5F",
"j%	c #943741",
"k%	c #8F3B44",
"l%	c #59595A",
"m%	c #4B4C4E",
"n%	c #784B4E",
"o%	c #934A71",
"p%	c #7272AB",
"q%	c #9F2233",
"r%	c #61585B",
"s%	c #565657",
"t%	c #5F5F60",
"u%	c #625656",
"v%	c #9F2435",
"w%	c #9F2232",
"x%	c #515253",
"y%	c #565958",
"z%	c #4D4E4D",
"A%	c #505153",
"B%	c #535557",
"C%	c #666766",
"D%	c #555759",
"E%	c #525356",
"F%	c #535354",
"G%	c #4B4C4D",
"H%	c #4D4D4E",
"I%	c #555758",
"J%	c #49494A",
"K%	c #515255",
"L%	c #616365",
"M%	c #494A4C",
"N%	c #474948",
"O%	c #595B5D",
"P%	c #4A4A4B",
"Q%	c #545455",
"R%	c #4E4E4F",
"S%	c #525253",
"T%	c #474847",
"U%	c #515252",
"V%	c #4B4B4D",
"W%	c #555557",
"X%	c #59595B",
"Y%	c #454545",
"Z%	c #515152",
"`%	c #555556",
" &	c #535355",
".&	c #5A5A5D",
"+&	c #565558",
"@&	c #545456",
"  . + @ @ @ # $ % % & $ * = - ; & # > , ' ) ! ~ ~ ~ { @ # # ] ^ / ( _ : < [ ~ } | 1 2 3 4 4 5 6 7 8 9 | 0 a b 6 c c d d 6 [ @ e ",
"f g h i ~ ~ ~ j } k ! [ ) ' l m n o p q r s 5 3 t u v w x y z A 1 B 8 C 2 C s D E F G u u H u H A I J r r r q K K c c K 2 G u L ",
"& # @ @ @ M . + N { { @ O P Q R   S > > T T O , , ' , ' | 1 U V U > B W > T O O , , , , ' ' ' ' X Y Z `  . . .> T T T O O , ..E ",
"& @ @ @ @ { + +.+.~ ! [ @., : R S #.$.T T T T O , , , ' ' | 1 U %., B > > T O O , , , , , , ' ' a &.*.=.> T T T T T O , , ' -.r ",
"f ;.M @ @ { + + +.~ ~ ~ >.F 7 ,.S #.$.T T T T O O , , , ' ' ' ' E , B > T T O O } , , , ~ , ' , '.Y Z ).> $.$.T T !.O ~.} ' a q ",
"  . . @ @ @ + + + ~ ~ @ {.6 ].^.$ # > > T T T O T , , , , ' ' ' q ' B > T T O O { /.~ ~ ~ ~ , | '.(._.g # # # @ @ @ { { { /.~ c ",
"  #.. @ @ { :.+ + { { { [ {.<.[.% $ }.> > T T O O O , , , , , ' r , |. .> > T 1.{ { ~ ~ ~ ~ , | p 2._.3.$ # # @ @ @ @ { { { { 4.",
"5.S #.$.;.;.. . + { { { 6.< 7.[.$ $ 8.}.}.$.$.1.1.1.} } ~., 9.' -.1.0.a.> > b.$.M i } ~ ~ ~ ) n c.(._.3.d.e.;.$.f.M @ { { @ @ g.",
"5.#.#.#.#.#.. . . @ @ { n b h.i.% % $ $ # # # @ @ @ { { { ~ ' ' 1 $.j.% # # # ;.. + + { { { ~ [ k.(.l.S S #.#.#.. . @ @ @ @ @ m.",
"  S #.S #.#.. . #.# @ @ n.b h.o.& & % % # # # # @ @ @ { { { , , b 8.j.% $ $ # ;.p.q.f.@ { { { {.1.R l.    r.s.s.p.g # # # # t.[ ",
"5.    S S S S d.d.$ $ # , b u.v.7 & % % % $ $ $ # # # @ { @ O , a w.x.& $ $ $ }.;.g # # { { @ ~ M y.l.5.z.A.B.d.C.d.$ $ # b.$.9.",
"5.          % % % A.% $ a.O D.( ^ h.& & % $ $ $ # # # # { @ O O T E.F.G.% % $ $ $ # # # @ @ @ @ f.H.l.I.& & % % $ $ $ $ $  . .: ",
"(.l.J.J.J.J.K.<.<.<.<.& L.9 M.M.^ ^ E.].<.& & & % % $ # # # > >  .N.O.P.P.P.P.Q.R.% $ $ # # # # d.S.T.U.G.G.G.<.<.<.<.<.] V.|.W.",
"X.Y.y.R R y.[.[.l i.i.e o.B 8 _ M.M.Z.`. +.+.+v.++E.@+] 7 G.L.#+$+%+&+*+=+=+=+=+-+;+,.U.>+,+'+)+!+S.~+{+v.++]+^+]+]+v./+++D.D.- ",
"R l.l.    l.l.l.l.] G.].(+^ 8 _ _ M.M.8 = 9 u._+V.W T T T , , :+<+<+[+}+|+=+=+=+=+1+2++.+.+.3+Z 4+5+` 6+. #.. . . 7+{ { ~ 0 ..E ",
"  #.#.#.. . #.8++.{ [ 9+r 0 B - D.|.9 V. .> > > T T T T O O 0+a+b+c+d+e+f+=+=+=+=+g+h++ +.8+i+6+).j+` + + +.+.+.k+k+[ 9+p ..U ..",
"  #.#.#.. . . . + N j } 6.r 9 D.V.: W l+ .> > > T T T O O O m+n+o+p+=+q+r+=+=+=+=+=+s+t++.+.u+v+w+x+).6++ +.+.+.8+8+[ [ [ a %.E ",
"  . S . . . + + + +.+.+.9.-.^ /+<.& % % $ # # # $.T T O O O y+z+A+B+C+=+=+=+=+=+=+=+D+E++.N ~ ~ ) B T N + +.+.+.8+8+! [ [ 0 r ..",
"5.S #.#.. . . + + + + +.X -.9 F+].G.% % $ # # # b.T T O O O G+H+I+J+K+L+=+=+=+=+=+=+=+M++ 7+{ ~ ! |.T } + +.+.+.8+v+! ! n | -...",
"  #.#.#.. . . + + + + +.X -.9 |.@+^.% A.d.d.# # b.T T O O { N+O+P+Q+R+S+T+=+=+=+U+V+=+M++ i { ~ ! |.T W++ +.+.+.v+! ! ) | | a r ",
"5.#.#.#.. . . . + + + +.W+1 9 |.h.h.Z r.S d.@ # @ t.t.X+X+{ Y+Z+`+ @.@+@@@=+=+#@$@%@&@*@=@{ { { 9.B > 1.+ + + j ~ ~ , , | ' | -.",
"-@S S #.#.#.. . . . . + W+b 9 |._+_+&.  r.d.# $ # @ @ @ @ { ;@>@,@'@)@>@!@~@{@]@^@/@(@_@:@{ { { 9.B > 1.+ + + { ~ ~ , , , , , b ",
"-@S S #.#.#.. . . . . + W+b 9 |._+_+<@z.  l+$ $ # # @ @ @ [@}@|@1@'@'@2@3@4@5@6@7@8@9@V+0@a@{ { 9.B > 1.+ + + { ~ ~ , , , ' O ' ",
"l.  S S S S #.. . . . . 1.b |.|._+u.^.<.& % % $ # # # $.T b@c@d@e@f@g@'@h@i@j@k@l@m@n@o@p@# # @ ~ v.$ M . + + + + + { ~ ) q T O ",
"l.      S #.S #.#.#.#.#.f.0 = |.u.^ l [.^.<.$ $ $ $ # b.T b@m@q@r@s@t@g@u@v@w@6.x@m@y@p@z@A@# @ { j.$ $.#.. . + + . i { } q T T ",
"l.          S S #.#.#.#.}.a D.|.l B@^.A.$ % % $ $ $ # > > C@D@E@F@G@H@I@J@K@L@M@N@O@p@P@=+Q@@ # @ R@$ ;.#.#.. . . . @ @ { T T > ",
"l.5.5.      S S S S S S e.a D.F+i.e S@  5.f % % $ $ $ # $ $ T@U@V@W@X@Y@Z@`@ #.#+#@###$#%#&#W : *#v.% # #.#.#.. . . @ @ @ =#T > ",
"(.l.l.5.          S   S a., 8 v.[.[.(.5.l.& % % % % % % <.G.% -#;#, >#,#'#)#!#~#{#]#^#/#(#o.B D.D.R@& d.#.S . . . f.@ @ @ !.>  .",
"X.R (.(.J.(.R R y.R y.R u./ M._#e ].2.J.l.<.7 :#& & & <#[#[#}#, |#1#2#3#4#5#M@~#6#7#8#9#0#.+B |..+a#/+>+R R J.J.J.J.G.2.K.m @+= ",
"b#l.5.l.  S #.. . c#O  .L.B M._ _ / = |.d#|.9 ^ B@[.^.e#f#f#g#h# #i#M@M@j#k#l#m#n#o#p#q#r#s#t#r u#5+Z #.. . . . + + + + + { i.F.",
"#.. + + +.k+v#w#x#E %.V A A u.- 8 |.u.V.y#y#y#: 7 & & z#f#f#A#B#C#D#E#F#G#H#I#J#K#L#M#N#O#O#P#b 0 b#).+ + + +.+ +.+.+.+.+.k @ [.",
"S . . 7++ + . + +.) , m...U Q#8 w.> c#X O , ) ' n {.[ R#f#f#f#S#T#U#V#W#X#Y#Z#`# $.$M#N#w#w#1 1 J b#).+$+ + +.+ + + +.+.+.~ ! $.",
"S . . ~.{ { { ~ ~ ~ ~ ~ ) F y#@$5.5.S S S e.# # @ @ @ #$$$%$&$*$=$-$;$>$,$'$)$)$!$~$M#N#~ 9., , ' |.> f.. + + + +.+.+.+.+.~ [ # ",
"S . . M { ~ { { { ~ ~ ~ ! b {$Y.5.      S e.# # # # @ @ @ @ ]$^$/$($_$:$<$>$>$>$[$}$|$1$~ ~ , , ' = > $.. . . + + + + +.+.~ ! ^.",
"S . . @ @ @ { { { ~ ~ ~ ) 2$3$4$5.      S # # # # # @ @ @ @ a 5$6$7$8$9$0$a$a$b$c$d$e$f$~ , , , ' D. .$.. . . + + + + +.N ~ [ w.",
"  #.#.q.q.q.q.+ 7+{ { ~ ~ 9+G.F+g$h$h$$ $ $ $ # # # @ f.. . T i$j$k$l$m$n$o$p$q$r$s$t${ { } , , ' D. .}.#.. . M M M { { { , , h.",
"S #.#.#.. . . . + { { ~ { [ ].F+G.& % % $ $ $ $ # # @ g . . T u$v$w$x$y$x$z$F A$B$C$D$E${ ~., O | (  .F$#.#.f.@ @ @ { @ { O , _+",
"S S #.#.#.. . . . { { { 1.[ ^.F+].<.% % % $ $ $ $ % # #.#.#.f.G$H$x$w$I$J$w$K$L$M$N$O$P${ O O , | ( W }.#.#.#.@ @ @ @ @ @ =#T ^ ",
"  #.S #.#.. . . + . . . 1.0 9 @$R J.h$& & % % % % $ # S S S d.$ Q$R$S$T$U$n$w$V$y$W$X$Y$Z$@ { ~ ! x.% $ $ # # # # # > > > > > ^ ",
"B.S S S #.S #.. #.. . . T a |.x+H.R g$& & % % % % & % B.S S 3.$ # `$ %.%+%@%#%$%%%&%*%*%*%# @ { $ R@% % % # $ $ # # > > >  .W 9 ",
"=%S S S #.#.#.#.#.. . . $.0 D.X.H.R g$<.<.^.^.^.^.].& f   B.A.% % <.$.} -%;%>%,%'%j )%*%*%# @ # /+x.& % % $ $ $ # #  .>  . .y#( ",
"=%    S S S S #.#.#.#.. }.O / v.!%,+7.7.u.B B ~%++++o.^ B@9 9 9 ^ _+{%]%^%^%/%(%% _%:%<%*%}.> y#D.( u.: % % $ # $ $ : W h.W ^ [%",
"5.  S     S S #.#.#.#.S }.h.( x.i.[.9 = = B B B B B |.|.|.|.|.|.9 |.}%|%1%1%2%& & % 3%4%5%w.y#^ / ( 8 9 e ^.<.G.G.G._+_+u.^ = W.",
"Y.H.y.(.R R (.(.R R R R * 9 ( 6%7%/+E.*#u._+8%_+l ^ ^ ^ ^ ^ l u.^ 8 9%y$y$0%/+e o.i.i.l i.i.u.u.|.8 8 .+F+G.:#& % % : W W w.: / ",
"5.S S #.#.#.. . + + +.a%u+w+6+b%~+(.l.I.  f f         S S 3.l+% $ '+O c%y$d%3.S #.. . . :.i { { l+( |.: ;.#.#.. . e%. e.3.# { f%",
"-@S S S #.#.#.. . . + . +$).6+g%(.+       S S     S #.S S S A.% $ h%i%j%y$k%S S #.#.. . #.g # { { D._+l%#.#.+.+ #.+ + +.8+k ! s ",
"    S S S #.#.. . . . . +$+$i+m%5.v#      S S S S S #.S     f % n%o%p%q%y$r%S S #.#.#.#.. f.@ { { = : F$. + . + +.+.+.8+8+! ~ d ",
"  S S   #.#.#.. . . . . @ @ ~ / s%t%f     S S S d.$ $ $ G.l+% % u%v%w%y$y$S S S #.#.#.#.#.e.# { 1./+& $ S + + +.+.+.+.+.+.' , 1 ",
"5.  S   #.#.#.. . . . . M @ ! / h.y#f     S S S d.$ % $ [.& g$<.& x%H.    S S S S S S #.#.e.# @ { /+y%A.  + + +.+ + +.+.+.' , | ",
"l.    S S S #.#.#.. . . M @ ! z%h.y#I.5.  S S S d.$ % ]./+F+G.G.& '+A%    S S S S S #.#.#.e.# @ @ v.<.A.S + + + + + +.+.+., , q ",
"5.        S S #.#.#.#.#.f.@ ) {+B%l.5.5.        A.% % (.#.r.A%B%l.A%A%5.5.    S S S S S #.e.$ # @ v.G.h$  + . + + 7+i } ~ ~ } C%",
"J.5.5.5.  S S #.#.#.#.#.$.@ ! {+R D%l.5.        A.% <.d.S S   y.l.Y.Y.5.l.    S S S S S #.e.$ # @ v.G.:#5.. . + + + { ~ ~ ~ ! c ",
"l.5.5.l.    S S S S S #.;.# ! S.E%(.l.l.5.5.5.  A.% <.d.  S S (.y.Y.@$l.l.5.          S S 3.$ # # j.].g$5.. . . + + { { { { ! c ",
"J.l.l.g$& h$A.A.d.$ $ $ }.8., D.F%h.K.g$:#:#:#w.f   l.S S     A%m%G%H%] &.5.5.            3.$ # # R@].<@5.#.#.. . . @ @ @ { ~ d ",
"y.(.(.i & & & % $ $ % $ 8. .O ( |.^ 8%].].].m G.I%J.J.J.l.l.(.A%S.J%M.u.<@l.l.l.l.5.5.5.  f & % % F.].] J.#.#.. . . @ @ @ # @ [ ",
"(.R (.(+^.^.^.^.^.^.].].V.|./ M.( = ~%v./+i.l ^.>+R E%y.K%y.(.k+L%M%- ( 4$A%A%H.y.y.y.y.R >+i.e e N%i.g$l.O%O%#.#.f.# @ @ { ~ % ",
"w#O#O#p p b b b b p p b 1 -.D.P%I Q%8%8%(+] e.d.=.=.> # # M 7+W+l%R%S%F$).. . . + . . . . 1.!.w.~%T%Z.z%F%> > F$l%:#] * @+(+U%7%",
").+$+$O O T O O O O O O , U W V%W%W%h.h.h.l+S S }.> > # # @ !.T  .R%4+X%` S #.#.#.. #.#.#.e.> T > Y%u.: W > > >  .> T O T T > = ",
"X%).).T T T T O O O O O , U O Z%W%W%`%h.: d.S #.F$ .> @ @ @ @ T , d# &` #.#.#.#.#.#.. . . f.> > > |.W  . .> > > > T T T T O > > ",
" .> =.@ @ @ { { { O O O O U , S%W%W%W%J.&.3.d.;.# b.@ @ @ @ @ { 4.U% &` ` C.e.;.;.;.;.;.M @ b.$ l+Y.    S e.e.# $.@ @ @ @ @ @ ) ",
" . .> @ @ @ { { { O O O , F , 4+W%W%J.J.r.l+$ # # # @ @ @ @ { { 4.x% &.&3.$ # # # # # # @ { # 5 I.Y.    S #.e.# @ @ @ @ @ @ @ @ ",
" . .T # @ @ { { { O O O O F , 4++&Y (.l.r.$ $ # # # @ @ @ @ @ { 6 (+@&[@f # # # # # # # # @ # 9+h$Y.5.5.    C.# # # # @ @ @ @ # ",
"l+e.=.# @ @ !.!.!.O O O O F , S%Y Y J.l.  3.d.C.e.e.f.@ @ @ @ @ ~ '+R     d.C.# # # # # # # }.n l%X.l.    S S e.e.;.@ # # @ $ $ ",
"X%#.#.# @ @ T T T O O O O F , S%Y Y J.l.  3.S S #.#.. @ @ @ @ @ ~ ,+H.=%B.S S }.# # # # # # > > l%X.l.5.  S S #.#.g @ # # @ $ # "};
