/* XPM */
static char * g_rigth_2_xpm[] = {
"64 64 687 2",
"  	c #505251",
". 	c #5B5D5C",
"+ 	c #5F6160",
"@ 	c #626463",
"# 	c #636564",
"$ 	c #646665",
"% 	c #636363",
"& 	c #626262",
"* 	c #616161",
"= 	c #606060",
"- 	c #515151",
"; 	c #4A4A4A",
"> 	c #575857",
", 	c #676968",
"' 	c #6A6C6B",
") 	c #686A69",
"! 	c #666767",
"~ 	c #646464",
"{ 	c #5D5E5E",
"] 	c #5D5F5E",
"^ 	c #626362",
"/ 	c #585858",
"( 	c #484848",
"_ 	c #4B4B4B",
": 	c #4C4C4C",
"< 	c #525252",
"[ 	c #565757",
"} 	c #5A5C5B",
"| 	c #5C5E5D",
"1 	c #5E605F",
"2 	c #5E5F5F",
"3 	c #5F5F5F",
"4 	c #5E5E5E",
"5 	c #5B5B5B",
"6 	c #575958",
"7 	c #474848",
"8 	c #474747",
"9 	c #4E4E4E",
"0 	c #545555",
"a 	c #595B5A",
"b 	c #585A59",
"c 	c #5C5D5F",
"d 	c #5B5C5E",
"e 	c #58595B",
"f 	c #686969",
"g 	c #6A6B6B",
"h 	c #696A6A",
"i 	c #656666",
"j 	c #666666",
"k 	c #676767",
"l 	c #616162",
"m 	c #4F4F50",
"n 	c #6E6E6E",
"o 	c #6B6C6B",
"p 	c #6A6A6A",
"q 	c #696969",
"r 	c #676868",
"s 	c #666867",
"t 	c #656665",
"u 	c #4F4F4F",
"v 	c #6F706F",
"w 	c #6E6F6F",
"x 	c #6D6F6E",
"y 	c #6C6D6C",
"z 	c #6B6C6C",
"A 	c #6A6B6A",
"B 	c #626363",
"C 	c #616363",
"D 	c #5F6060",
"E 	c #555656",
"F 	c #525353",
"G 	c #5E605E",
"H 	c #5D5F5F",
"I 	c #5C5E5E",
"J 	c #5C5E5F",
"K 	c #5A5C5D",
"L 	c #58595A",
"M 	c #686868",
"N 	c #5D5D5D",
"O 	c #5C5C5C",
"P 	c #5A5A5A",
"Q 	c #5A5A5C",
"R 	c #58585A",
"S 	c #565658",
"T 	c #5E5E5F",
"U 	c #595959",
"V 	c #6C6C6C",
"W 	c #6D6D6D",
"X 	c #595A5C",
"Y 	c #535456",
"Z 	c #5A5A59",
"` 	c #5E5E5D",
" .	c #5D5E5F",
"..	c #5B5D5D",
"+.	c #656565",
"@.	c #5B5B5C",
"#.	c #58585B",
"$.	c #575759",
"%.	c #6B6B6B",
"&.	c #5B5C5C",
"*.	c #5A5B5D",
"=.	c #676867",
"-.	c #5D5E60",
";.	c #5D5E5D",
">.	c #5C5D5C",
",.	c #5B5B5D",
"'.	c #646465",
").	c #535555",
"!.	c #636464",
"~.	c #5A5C5C",
"{.	c #5C5F5E",
"].	c #56575A",
"^.	c #545557",
"/.	c #535554",
"(.	c #545655",
"_.	c #606261",
":.	c #656766",
"<.	c #595A5B",
"[.	c #555657",
"}.	c #5C5D5D",
"|.	c #505050",
"1.	c #5A5B5B",
"2.	c #525453",
"3.	c #565857",
"4.	c #5B5D5E",
"5.	c #636463",
"6.	c #5B5C5D",
"7.	c #5A5B5C",
"8.	c #595B5B",
"9.	c #616263",
"0.	c #5B5C5B",
"a.	c #595A59",
"b.	c #4F504F",
"c.	c #5E5F5E",
"d.	c #5A5B5A",
"e.	c #565756",
"f.	c #606161",
"g.	c #57585A",
"h.	c #616262",
"i.	c #565759",
"j.	c #5E6060",
"k.	c #4C4E4D",
"l.	c #515352",
"m.	c #555555",
"n.	c #5A5D5C",
"o.	c #5A5B5E",
"p.	c #595A5D",
"q.	c #58595C",
"r.	c #5B5C5F",
"s.	c #505151",
"t.	c #5F605F",
"u.	c #595B5C",
"v.	c #585A5B",
"w.	c #585A5A",
"x.	c #57595A",
"y.	c #525355",
"z.	c #4A4C4B",
"A.	c #585959",
"B.	c #4D4F4E",
"C.	c #535353",
"D.	c #575859",
"E.	c #515254",
"F.	c #555756",
"G.	c #494B4A",
"H.	c #505150",
"I.	c #4D4D4D",
"J.	c #444444",
"K.	c #565656",
"L.	c #545556",
"M.	c #4F5053",
"N.	c #4C4D4F",
"O.	c #474948",
"P.	c #4E4F4F",
"Q.	c #504C56",
"R.	c #4A4255",
"S.	c #4A4154",
"T.	c #483F53",
"U.	c #494949",
"V.	c #555655",
"W.	c #555757",
"X.	c #555658",
"Y.	c #4E504F",
"Z.	c #4D4F4F",
"`.	c #4E4F50",
" +	c #4C4E4F",
".+	c #4A4B4D",
"++	c #4C4D4E",
"@+	c #4E5050",
"#+	c #515353",
"$+	c #525454",
"%+	c #535455",
"&+	c #545656",
"*+	c #525354",
"=+	c #48494A",
"-+	c #4B4C4C",
";+	c #545454",
">+	c #545554",
",+	c #4B4850",
"'+	c #3F3166",
")+	c #3E3A84",
"!+	c #3F4191",
"~+	c #3D4292",
"{+	c #522962",
"]+	c #75284D",
"^+	c #794244",
"/+	c #4F5052",
"(+	c #4D4E50",
"_+	c #5C5D5E",
":+	c #5D5D5F",
"<+	c #4A4A4C",
"[+	c #515153",
"}+	c #5E5D60",
"|+	c #5C5C5E",
"1+	c #4E4E50",
"2+	c #4C4C4D",
"3+	c #575757",
"4+	c #524D58",
"5+	c #3F3F8C",
"6+	c #3F4190",
"7+	c #404191",
"8+	c #983369",
"9+	c #BA283D",
"0+	c #BE2633",
"a+	c #8A3C40",
"b+	c #535454",
"c+	c #616362",
"d+	c #5F6062",
"e+	c #4D4D4F",
"f+	c #5F5F61",
"g+	c #5E5F61",
"h+	c #505052",
"i+	c #5A5A5B",
"j+	c #43386C",
"k+	c #9C3365",
"l+	c #B3242F",
"m+	c #723C81",
"n+	c #733B81",
"o+	c #843562",
"p+	c #606061",
"q+	c #5E5F60",
"r+	c #5E5E60",
"s+	c #5D5D5E",
"t+	c #54505A",
"u+	c #3E3982",
"v+	c #723776",
"w+	c #5C3C85",
"x+	c #373F91",
"y+	c #B77491",
"z+	c #F4B0A7",
"A+	c #5F347A",
"B+	c #4B4552",
"C+	c #4A3E56",
"D+	c #3F4192",
"E+	c #393F91",
"F+	c #B27191",
"G+	c #F2ACA4",
"H+	c #F9D7C5",
"I+	c #B66D8C",
"J+	c #433553",
"K+	c #5B5A5C",
"L+	c #5F5F60",
"M+	c #5C5B5D",
"N+	c #3F387C",
"O+	c #B6738F",
"P+	c #F2ADA5",
"Q+	c #F1A9A2",
"R+	c #CA6D7B",
"S+	c #423454",
"T+	c #3E387F",
"U+	c #3C3173",
"V+	c #754461",
"W+	c #BB8E8E",
"X+	c #F9D5C3",
"Y+	c #AD8085",
"Z+	c #311C54",
"`+	c #433454",
" @	c #5A5D5D",
".@	c #3E377F",
"+@	c #4B377C",
"@@	c #804280",
"#@	c #3D4191",
"$@	c #4E3F8A",
"%@	c #862844",
"&@	c #8F3953",
"*@	c #936273",
"=@	c #F6D4C3",
"-@	c #DF9394",
";@	c #8D3751",
">@	c #5A595C",
",@	c #524F5D",
"'@	c #3D2D69",
")@	c #393276",
"!@	c #BB5E73",
"~@	c #EB9293",
"{@	c #333D91",
"]@	c #4F408E",
"^@	c #8C9398",
"/@	c #C4E2F0",
"(@	c #000000",
"_@	c #BD9C92",
":@	c #B19B98",
"<@	c #57585B",
"[@	c #4F5050",
"}@	c #524C5A",
"|@	c #3D2964",
"1@	c #3F408F",
"2@	c #3C265D",
"3@	c #372054",
"4@	c #BD717E",
"5@	c #F8D2C1",
"6@	c #A78FA5",
"7@	c #783D82",
"8@	c #FCF9F9",
"9@	c #FDFDFD",
"0@	c #FAD8C6",
"a@	c #FCF2EF",
"b@	c #141515",
"c@	c #4F5150",
"d@	c #48276E",
"e@	c #403E8D",
"f@	c #3C2054",
"g@	c #3A2155",
"h@	c #864A66",
"i@	c #CE8D90",
"j@	c #F39E9A",
"k@	c #BC6680",
"l@	c #F9D7C6",
"m@	c #FAE4D9",
"n@	c #EACAB8",
"o@	c #F6C7B8",
"p@	c #C78B92",
"q@	c #585262",
"r@	c #4C2372",
"s@	c #4C2271",
"t@	c #3E2159",
"u@	c #3C2155",
"v@	c #3B2154",
"w@	c #361F54",
"x@	c #7B4B5F",
"y@	c #B04568",
"z@	c #EE9B98",
"A@	c #F8CFBF",
"B@	c #ECBFB4",
"C@	c #F5C3B6",
"D@	c #B56170",
"E@	c #4B4D4C",
"F@	c #585A5C",
"G@	c #58535F",
"H@	c #4C2371",
"I@	c #3F215B",
"J@	c #4B2170",
"K@	c #5B5762",
"L@	c #6D6E6E",
"M@	c #AA4A67",
"N@	c #BB566F",
"O@	c #ECBCB1",
"P@	c #F9D3C2",
"Q@	c #F7CCBC",
"R@	c #ECBFB3",
"S@	c #E3868A",
"T@	c #7D4B59",
"U@	c #5C5B5C",
"V@	c #515251",
"W@	c #585958",
"X@	c #56545D",
"Y@	c #48256A",
"Z@	c #4B1E70",
"`@	c #7A85BA",
" #	c #666875",
".#	c #9D9D9D",
"+#	c #989495",
"@#	c #7A5961",
"##	c #B14869",
"$#	c #BB6476",
"%#	c #A95E6D",
"&#	c #715E62",
"*#	c #655155",
"=#	c #544A64",
"-#	c #5D518E",
";#	c #697088",
">#	c #858584",
",#	c #7F7F7F",
"'#	c #919191",
")#	c #AAAAAA",
"!#	c #A44B66",
"~#	c #875562",
"{#	c #968697",
"]#	c #807781",
"^#	c #695A6A",
"/#	c #464847",
"(#	c #4C4D4D",
"_#	c #4B4B4C",
":#	c #484949",
"<#	c #494A49",
"[#	c #484948",
"}#	c #434544",
"|#	c #555557",
"1#	c #4C2171",
"2#	c #6B6FA0",
"3#	c #8A628D",
"4#	c #968F96",
"5#	c #9B9B9B",
"6#	c #797979",
"7#	c #A3A4A4",
"8#	c #DD8A89",
"9#	c #98626A",
"0#	c #9B8E9D",
"a#	c #6B6B6D",
"b#	c #A66EA9",
"c#	c #4D524E",
"d#	c #636364",
"e#	c #676766",
"f#	c #676869",
"g#	c #666768",
"h#	c #656668",
"i#	c #636466",
"j#	c #616264",
"k#	c #4D4D4E",
"l#	c #454545",
"m#	c #4E4D4D",
"n#	c #515052",
"o#	c #4C2B6C",
"p#	c #7481A7",
"q#	c #A666A9",
"r#	c #848484",
"s#	c #909090",
"t#	c #7C7878",
"u#	c #735B60",
"v#	c #B5516D",
"w#	c #BA5970",
"x#	c #B0959D",
"y#	c #825C84",
"z#	c #5C5C5D",
"A#	c #636362",
"B#	c #626365",
"C#	c #646567",
"D#	c #666769",
"E#	c #676769",
"F#	c #924E5F",
"G#	c #7280A7",
"H#	c #AB60AE",
"I#	c #8B808B",
"J#	c #838383",
"K#	c #8D8D8D",
"L#	c #848BB2",
"M#	c #B27785",
"N#	c #B44B6A",
"O#	c #B64F6C",
"P#	c #EB8E8F",
"Q#	c #BD5B71",
"R#	c #606163",
"S#	c #626364",
"T#	c #606062",
"U#	c #666161",
"V#	c #B24667",
"W#	c #7B8BBC",
"X#	c #8C608F",
"Y#	c #8C7F8D",
"Z#	c #63625F",
"`#	c #8679A2",
" $	c #B14769",
".$	c #D3747F",
"+$	c #EF9292",
"@$	c #E88B8D",
"#$	c #ED9090",
"$$	c #C05E73",
"%$	c #86495A",
"&$	c #565555",
"*$	c #615C5D",
"=$	c #8192C7",
"-$	c #503374",
";$	c #68708C",
">$	c #8E86B8",
",$	c #A9759B",
"'$	c #CF707D",
")$	c #EE9191",
"!$	c #DC7E85",
"~$	c #AB5C6D",
"{$	c #764D59",
"]$	c #945161",
"^$	c #4E2B76",
"/$	c #A4486F",
"($	c #B6526F",
"_$	c #ED9091",
":$	c #E7898C",
"<$	c #C86A78",
"[$	c #AD4C68",
"}$	c #A24E67",
"|$	c #585757",
"1$	c #4C4C4E",
"2$	c #626263",
"3$	c #8291C6",
"4$	c #523873",
"5$	c #735961",
"6$	c #B9546E",
"7$	c #BD5C72",
"8$	c #B55C72",
"9$	c #725B63",
"0$	c #6A5960",
"a$	c #615A5F",
"b$	c #4F5051",
"c$	c #575758",
"d$	c #646364",
"e$	c #6D7694",
"f$	c #7F83A6",
"g$	c #706A72",
"h$	c #404F6E",
"i$	c #604E7A",
"j$	c #8A90AC",
"k$	c #A2A7BE",
"l$	c #A7ABC2",
"m$	c #B0B4C9",
"n$	c #B0B3C6",
"o$	c #7D87B8",
"p$	c #555F79",
"q$	c #8E5890",
"r$	c #AC88AD",
"s$	c #717274",
"t$	c #715B7A",
"u$	c #794568",
"v$	c #A560A8",
"w$	c #9D9A9D",
"x$	c #A0A0A0",
"y$	c #AFAFAF",
"z$	c #A2A2A2",
"A$	c #8489AB",
"B$	c #A33149",
"C$	c #9E75A0",
"D$	c #6C6364",
"E$	c #803542",
"F$	c #882136",
"G$	c #9F2536",
"H$	c #6C575F",
"I$	c #965E98",
"J$	c #989998",
"K$	c #989898",
"L$	c #9C9C9C",
"M$	c #7B7A7A",
"N$	c #911F35",
"O$	c #595B5D",
"P$	c #7E3540",
"Q$	c #862136",
"R$	c #872136",
"S$	c #9F2838",
"T$	c #9A2738",
"U$	c #882438",
"V$	c #80323E",
"W$	c #7E3440",
"X$	c #863440",
"Y$	c #9F474E",
"Z$	c #D98888",
"`$	c #DC8283",
" %	c #684451",
".%	c #674551",
"+%	c #6F474B",
"@%	c #73494E",
"#%	c #CA6A6D",
"$%	c #D07173",
"%%	c #D1787B",
"&%	c #8C1A32",
"*%	c #D17274",
"=%	c #DB7F83",
"-%	c #A85764",
";%	c #6F2044",
">%	c #722D47",
",%	c #636161",
"'%	c #484A49",
")%	c #733249",
"!%	c #A02436",
"~%	c #95253B",
"{%	c #723049",
"]%	c #972C3B",
"^%	c #9F2436",
"/%	c #9D2336",
"(%	c #A55A65",
"_%	c #742746",
":%	c #734670",
"<%	c #734C7A",
"[%	c #5E5E5C",
"}%	c #57595B",
"|%	c #434343",
"1%	c #595B59",
"2%	c #575959",
"3%	c #584C4F",
"4%	c #98263A",
"5%	c #9C2B3A",
"6%	c #9C2A39",
"7%	c #98253A",
"8%	c #9A2539",
"9%	c #6C4B4D",
"0%	c #703E5D",
"a%	c #6B7AB9",
"b%	c #6C78B7",
"c%	c #686D9C",
"d%	c #615A5C",
"e%	c #5C5B5B",
"f%	c #4A4B4A",
"g%	c #584A4E",
"h%	c #7A5053",
"i%	c #655B5C",
"j%	c #9E2636",
"k%	c #826499",
"l%	c #A02131",
"m%	c #992B39",
"n%	c #544D4D",
"o%	c #6D4A6C",
"p%	c #74385D",
"q%	c #752745",
"r%	c #752747",
"s%	c #615257",
"t%	c #575858",
"u%	c #464646",
"v%	c #5A4C50",
"w%	c #992940",
"x%	c #7573B0",
"y%	c #6C5151",
"z%	c #9B2C3A",
"A%	c #6C678A",
"B%	c #A02032",
"C%	c #575353",
"D%	c #752847",
"E%	c #732B48",
"F%	c #595154",
"G%	c #616261",
"H%	c #5B5D5F",
"I%	c #595A5A",
"J%	c #5D5559",
"K%	c #902E47",
"L%	c #865074",
"M%	c #8A4249",
"N%	c #7F464C",
"O%	c #6D3248",
"P%	c #73304A",
"Q%	c #5D5E61",
"R%	c #59595A",
"S%	c #5B575B",
"T%	c #5A595B",
"U%	c #59595B",
"V%	c #5E575A",
"W%	c #6F344A",
"X%	c #752646",
"Y%	c #605B5C",
"Z%	c #5D595C",
"`%	c #635C60",
" &	c #6D5272",
".&	c #6671A3",
"+&	c #615D5F",
"@&	c #732E48",
"#&	c #752644",
"$&	c #705B8D",
"%&	c #743B60",
"&&	c #565958",
"*&	c #515253",
"=&	c #565858",
"-&	c #505153",
";&	c #4D4E4D",
">&	c #666766",
",&	c #535557",
"'&	c #555759",
")&	c #4E4F51",
"!&	c #525356",
"~&	c #565758",
"{&	c #4B4C4D",
"]&	c #4B4C4E",
"^&	c #535354",
"/&	c #49494A",
"(&	c #555758",
"_&	c #535453",
":&	c #494A4C",
"<&	c #616365",
"[&	c #515255",
"}&	c #4E4F4E",
"|&	c #515252",
"1&	c #474847",
"2&	c #525253",
"3&	c #4E4E4F",
"4&	c #545455",
"5&	c #4A4A4B",
"6&	c #4B4B4D",
"7&	c #535355",
"8&	c #505051",
"9&	c #555556",
"0&	c #515152",
"a&	c #5A5A5D",
"b&	c #59595C",
"c&	c #545456",
"d&	c #565558",
"  . + @ # # $ $ @ % & * = - ; > @ , ' ' ) ! ~ = { ] + ^ / ( _ : < [ } } . | ] ] ] 1 2 3 4 5 } 6 7 8 9 0 a 6 b b a } . . . c d e ",
"f g h ! i $ $ i i j k k k l m n o g o g g h p q r s t ! t ; u ~ n v w x y z g A ) , s k j B C D E F 3 2 + 1 G { H ] ] ] I J K L ",
"q M 4 N N O O O 5 P P P Q R S T 3 3 3 3 4 4 4 4 N N O 5 U u 5 V W V ~ = 3 4 3 4 4 N O O 5 5 X e Y Z ` N . | |  .c d ... . . } 6 ",
"k +.3 4 4 N O O O O O 5 @.#.$.& 3 3 4 4 4 4 4 4 N N O 5 5 u 4 %.V ~ = 3 3 4 4 4 N O O O O &.*.X Y / 4 =.+ 1 ] -.-.c | . . . . 6 ",
"j & 3 { ;.N >.O O &.&.5 ,.R S '.4 3 4 ] 4 4 4 { N N O O 5 u 4 q 3 3 3 3 4 4 4 N N O O O O &.*.X ).> p !.] ] ] -.c c | . . ..~.L ",
"$ ] {.| | | . . . } } } K ].^.'.= 4 ] ] ] ] {.| N N O O 5 u 3 j 3 3 3 4 4 4 4 O N O O O 5 5 } a /.(.@ _.. ] ] c c c . . . d d e ",
":.| | | | . . . . } } a <.].[.B = 4 ] ] ] ] | | }.O 5 5 P |.4 k 3 4 4 4 4 4 N N N O O 5 5 1.a b 2.3._.+ | | | c c 4.| . . d *.e ",
"5.. . | | . ..6.&.~.7.8.<.].^.9.D 2 ] ] ] { I ..&.0.5 5 a.b.}.+.3 c.4 ;.{ { }.}.}.&.&.1.1.d.a a 2.e.^ f.| | | c d d ~.~.&.*.X g.",
"h.. . . . . d d *.*.*.X X i.^.j.+ ] | | | c c d ~.} } } b k.&.~ 3 3 ] | | | . . . } } } a a b b l.m.% D | . . d d d *.*.*.*.*.g.",
"+ n.} } } } K o.p.p.q.e e i.Y }._.| | | . 6.r.o.~.} a a b k.d.% 4 4 | | | . . . } } } } b b 6 6 s.m.% t.. . } *.d d *.*.X *.X e ",
"c.&.0.} a a 8.u.8.v.w.x.g.i.y...] . | | } } K ~.1.a a a 6 z.A.& 4 N . | . } } } a a a b b b 6 > B.C.% 4 } a a 8.8.X X X X e e g.",
"/ P P a a a a a b b 6 6 D.i.E.6.. . . . } } } a a a b b F.G.H.O N N . | } } } } a a a b 6 6 m.< _ I.N a.a b w.b b b e e e e e g.",
"J.|.K.[ 3.3.3.3.3.F.F.F.L.M.N.8.} } } } a a b a a b b 3.B.O.P.P 5 5 } } } a b b Q.R.R.S.T.H.< < U.U.- V.6 3.3.3.3.W.X.X.X.X.i.^.",
"8 I.I.P.Y.B.Z.Z.`.Z.P.B. +.+N.++@+#+$+%+L.).0 L.&+).%+*+F =+-+C.;+V.F.> [ >+,+'+)+!+!+!+~+{+]+^+( ; u s.  l.l.F 2.2.y.Y Y y./+(+",
"q M * ] | | _+d d d *.d :+Q <+[+R }+-.-.-.-.-.-.:+|+,.Q Q 1+2+3+K.4 4 O O 4+5+6+!+!+!+7+8+9+0+0+a+; < b+(.F.[ i.i.i.i.e e i.i.Y ",
"M V M B c++ d+d+-.-.-.c c Q e+,.:+f+g+-.c c c c c |+:+Q Q h+i+N 4 N N N O j+!+!+!+!+!+k+l+m+n+n+o+u * k c++ | -.g+*.d d *.*.*.e ",
"q %.& + + + g+g+-.-.-.c :+,.1+p+q+r+-.-.c c c c c |+|+,.Q [+s+3 N 4 N N t+u+!+!+!+!+!+v+w+x+y+z+A+B+k f.{ H  .c d d d d *.*.*.e ",
"M k * + + 1 g+g+-.-.-.c  .O u 2 ] ]  .-.c c c d d d *.d ,.[+r+= N N N N C+D+!+!+!+!+!+!+E+F+G+H+I+J++.c.-.-.-.c c c d d d X d e ",
"M +.= D 1 1 q+g+-.-.-.c { O |.1 ] | _+c c c c d d d *.*.K+[+L+* 4 N N M+N+!+!+!+!+!+!+!+O+P+H+Q+R+S++.T -.c c c c d d d *.*.X g.",
"k & = = 2 1 1 q+-.-.-.c s+O |.1 ] | I c c c c d d d *.7.Q [+L+* 4 ;.| M+T+!+!+!+!+!+!+U+V+W+X+Y+Z+`++.T -.c c c c d d d *.*.*.e ",
"+.= 3 = 4 4 ] ] H c c c }.5 u c.| | | | | . . . ~.} } 1.P - 3 * N N |  @.@D++@@@#@!+$@%@&@*@=@-@;@S+~ s+-.c c c d d d d *.*.*.g.",
"% 4 4 4 4 4 ] ] | c c c }.5 u c.| | | . . . . } } } a d.P - N = N >@,@'@D+)@!@~@{@]@^@/@(@_@H+:@(@- % s+c d d d d d *.*.*.X X <@",
"3 N 3 4 4 4 ] ] | c c c }.5 u c.| | . . . . . ~.} } a a P [@}.3 N }@|@1@2@3@4@5@6@7@8@9@(@0@H+a@b@- % s+c d d d d d *.*.*.X X <@",
"N O j 2 ] | c c c c c d ..a B.] . } } } } *.*.*.8.a a a b c@;.3 O O d@e@f@g@h@i@j@k@l@m@n@H+H+o@p@|.% }.d d d d d *.X X X X e i.",
"O O j { | I d c c d d *.&.a k.| . } a a } 7.p.*.8.a a b 6   ;.3 N q@r@s@t@u@v@w@x@y@z@H+H+A@B@C@D@9 * 6.*.*.*.*.*.X *.X e e e i.",
"5 O O | . . d d d d *.*.~.a E@. } . a a b a F@v.A.6 a.b 6 Y.&.4 5 5 G@H@r@I@J@K@L@M@N@O@P@Q@R@S@T@I.& 1.*.*.*.*.X X e e e e e i.",
"5 O U@. . . d d d *.*.*.} b B.V@/ U W@6 6 W@3+3+K.m.m.V./.k.>+3+5 P w.X@Y@Z@`@ #.#+#@###$#%#&#*#c@I.& 7.X X X X X X e e e g.g.i.",
"P 5 >.. . . 6.d d d X *.8.6 E@I.I.u s.c@l.V@|.C.m.;+- c@k.E@V@K.U b F.3.=#-#;#>#,#'#)#!#~#{#]#^#B.; 4 a.X e X e e e e e g.i.i.^.",
"9 >+E W.[.F.X.X.X.X.Y Y %+Y./#(#|.u (#k.E@(#_#:#U.<#U.[#O.}#I.u - 0 V.|#1#2#3#4#5#6#7#8#9#0#a#b#c#U.: C.Y y.Y y.Y Y ^.X.^.^.Y (+",
"G.l.| c c c c c d d d d *.R <+d#k e#f#g#h#i#j#*.i.^.*+k#; l#9 9 m#I.u n#o#p#q#r#'#.#s#t#u#v#w#x#y#U.u V.P N z#d d *.X e i.g.i.h+",
"2.. G -.-.-.-.-.c -.c c c ,.h+* % A#B#B#B#B#i#B#B#C#D#E#` 8 u m.K.3+3+3+F#G#H#I#J#K#L#M#N#O#P#Q#b+C.n n W %.q h#i#R#d+-.c c d *.",
"&.1 ] -.-.-.c c c -.c c |+,.h+l ~ ~ i#i#i#S#9.T#d+-.J }.5 I.O * * * = U#V#W#X#Y#Z#`# $.$+$@$#$$$%$&$V M h.4 2 -.c d c c _+d d X ",
"} + ] -.-.-.-.-.c c c d 6.5 |.3 4 4 c.] | | | . . . . 6.,.e+z#O N | | *$V#=$-$;$>$,$'$)$)$+$!$~${$3+p 2 ] ] ] ] ] | | | ;.d d X ",
"/.1 ] -.-.c c c c d d d &.5 9 3 4 4 ] ] | | | . . . } 6.,.e+z#O O >.. . ]$=$^$/$($_$#$:$<$[$}$4 /+|$% 1 ] ] ] | | | ] | ..d d X ",
"A.+ ]  .-.c c c c d d d &.P I.3 4 4 4 ] | | | . . . ~.6.Q 1$2$4 O O . . . 3$4$5$6$7$8$9$0$a$g+o.b$c$d$2 ] ] ] | | | . . . d d X ",
"m.4 4 | | | ......d d *.1.P I.3 4 4 { | | | | . ..d *.@.P I._.] . . d d 6.e$f$g$h$i$j$k$l$m$n$o$p$F.c+] ] | | _+c r.r.r.r.*.*.e ",
";+4 N | . | . . . 6.*.*.i+P _ = N 4 ;.| | | | . ~.*.*.7./ : D 1 . ..d d K q$r$s$t$u$v$w$x$y$z$A$B$(.+ | ] | | c d d d d *.*.*.X ",
"< O U@. . . . . . *.*.*.1.U _ = 4 N N | . . &.. ~.*.X <./ I.b . . 6.*.*.. C$D$E$F$G$H$I$J$K$L$M$N$/.+ }.| | | d d d d *.*.*.X X ",
"< 5 5 5 5 5 } } } } } a a b z.1 ] | . . . 6.*.*.*.X e w.6 B.b } a 8.X X O$P$Q$R$S$T$U$V$W$X$Y$Z$`$- * }.d d d c d d d *.*.X *.e ",
"- U P 5 5 5 } } a a } b b b E@a | . } } } 7.X *.X e e w.6 E@b } a <.X X  %.%+%@%#%#%$%%%&%*%=%-%;%>%,%O d d d *.d *.X *.X X X v.",
"_ 3+P P 5 P } } a a a b b 6 z.Y.} . } } } 8.X X X e e A.(.'%3.b b w.v.)%!%~%{%]%^%^%^%/%3.(%_%:%<%[%4 &.d d d *.*.*.*.*.X X X }%",
"|%< U m.U / a a } a b b / C._ I.3+5 1.} } } a b 1%6 2%2.; I.;+< - - 3%4%5%6%7%8%^%^%^%9%e.e.0%a%b%c%d%e%d *.*.*.*.X X X X e e }%",
"J.9 < C.;+;+F.F.F.3./.  - ; _ : < 3+A.b a b b 6 6 F.l.f%( U.|.- |.|.g%8%h%i%j%k%l%^%m%n%9 - 2.o%p%q%r%s%X *.*.*.*.X X e e X e g.",
": / A.U U / b b 6 t%F.c@(#; ; |.C.C.l.l.F l.l.s.  Y.Y.P.-+u%; < C.F v%w%x%y%z%A%B%^%C%C.V@H.Y.-+D%D%E%F%Y Y Y Y ^.^.Y Y ^.y.E./+",
"G%| } <.7.d H%d d *.*.~./ |._ I%| | I 4.d d d *.X <.v.e e E.#+a b I%J%K%L%e N 4 M%N%L e D.i.^.O%D%r%P%r+Q%-.c c d d *.*.*.X X g.",
"s 1 G g+-.c c *.c -.*.*.R%;+I.| | } K *.d d *.*.X X *.X e Y ).a b w.X S%T%*.X U%V%X X e e e c W%X%Y%Z%|+d c d d d *.*.*.X X X <@",
"# ] 1 g+g+-.-.-.c d c d i+/ 9 | | . 6.d *.*.*.*.X X *.e e E.%+b b L e e X *.X X X X X e e e `%D%r% &.&|+d d d d d *.*.X X X e e ",
"~ 4 3 -.-.-.-.-.-.c c X a 6 Y.}.| } 7.*.*.*.*.*.X X X e e E.*+b b b I%F.a a a 8.X X X e e L +&@&D%#&$&%&d d d d d *.*.*.e X X e ",
"= 4 3 -.-.-.c c -.c c e w.&&Y.| . } 7.*.*.X X X X X X e e E.*&6 3.=&6 2.a b a 8.X X X e e L 3+m.: 1 . ..d d d d d *.*.*.e X e g.",
"j 4 4 -.-.-.c c c c c X w.3.B.. . } 7.*.*.*.X X X X X e e -&#+6 F.F.c@Y.(.b a 8.X X X e g.D.3+m.;&1 . ..d d d *.*.*.X X X e e i.",
">&{ ] ] { I _+c c d c e 2%F.B.. } a 7.*.X X X X X e e g.g.-&-&i.,&-&q.*.^.b b w.e e e e g.g.i.,& +2 . 6.*.*.*.*.*.X X e e e e g.",
"$ 1 ] ] ] | c c c d d g.t%F.B.. } a 7.*.X X X X X e e i.g./+/+i.y.e X X 8.3.b w.e e e e g.i.'&Y  +1 . &.*.*.*.*.*.X X e g.g.g.X.",
"$ 1 | | | | c c d d d g.=&(.k.} } a <.X X e e e e e g.i.i.)&/+y.^.X X e 8.3.b w.e g.g.g.i.i.^.!&N.1 } ~.*.X X X X X e e i.g.g.i.",
"# ] | . . . d d d *.*.g.~&(.E@} } a <.e e e e e e g.g.$.[ k#{&]&-&e e X X i.e L A.t%t%t%=&W.m.^&I.4 d.1.a a a 8.w.w.2%6 =&i.i.X.",
"+ . } . . . d d d *.*.X.[ (.G.b b 6 L e g.g.g.i.i.i.i.~&C.U./&N.-&^.i.i.X.X.X.(&F.E (.(.(._&< |._ N P d.a b a a b 6 6 6 I ^.^.y.",
"b ] | . . } 6.*.*.O$O$i.=&l.O.    l.%+Y y.y.y.y.E.-&-&b$_ 8 :&<&d+^.y.[&y.!&Y %+/.F l.Y.B.}&9 _ U.: |.K.(.(././././././.b+^.Y ^.",
"-+|&b+>+0 [ t%R%i+5 5 ^&;&f%1&}&A.>.}.d d d d c d d d ,.i+2&3&R%s+_+..} } 5 @.@.8.7.[ b+_&_&4&m 5&I.+.~ % B B % % % % B B B#B#i#",
"9 5 O O N O 5 P 5 5 5 U / C.l#5 O 5 7.*.*.*.d *.*.*.X Q U%[+3&P O >.. } } 5 5 1.X X I%m.m.m.|#|#6&U V 4 N N N N N N O N N |+|+,.",
"5 5 N O O O O 5 5 5 5 P P U |.5 5 5 6.d d d *.*.*.*.*.*.Q 7&8&4 O . . . . 5 P i+*.X 8./ m.9&|#|#0&N V 4 N N N N N O O O O ,.,.U%",
"2 . . . . . . &.} 7.7.X e e /+I%a 0.. ..~.~.~.~.~.7.u.Q Q 7&|&:.| . . . . . 0.} ~.8.<.$.X.|#|#|#2&4 V N N N N | | | . . . @.5 P ",
". . . . . . . . } 7.*.X e e /+D., } | . } } } } } } a <.a&7&*&:.| | . . . . } } } a I%q.X.X.|#|#[+4 p 4 N N N | | | . . . 5 P P ",
"} . . . . } } } } u.e e g.g./+2%c+} . } } } } } } } } L b&c&b+@ | . . . . . } } } a a q.i.^.S d&[+4 p N N N N | | | . . } O P P ",
"a a . } } . ~.7.7.X X e e i.(+R%D 1.} } } } } } } u.8.e e Y #+] . . . . . 6.7.7.u.8.<.e i.X.S S 2&4 p N N N N >.>.>.. . } @.7.I%",
"} a . } } . K *.*.X X e g.i.(+R%5 5 } } } } } } 1.X X v.}%E.$+] . . . . . d *.*.X X <.e i.X.S S 2&4 p N N N N O O O . . } *.*.U%"};
