/* XPM */
static char * g_rigth_0_xpm[] = {
"64 64 681 2",
"  	c #505251",
". 	c #5B5D5C",
"+ 	c #5F6160",
"@ 	c #626463",
"# 	c #636564",
"$ 	c #646665",
"% 	c #636363",
"& 	c #626262",
"* 	c #616161",
"= 	c #606060",
"- 	c #515151",
"; 	c #4A4A4A",
"> 	c #575857",
", 	c #676968",
"' 	c #6A6C6B",
") 	c #686A69",
"! 	c #666767",
"~ 	c #646464",
"{ 	c #5D5E5E",
"] 	c #5D5F5E",
"^ 	c #626362",
"/ 	c #585858",
"( 	c #484848",
"_ 	c #4B4B4B",
": 	c #4C4C4C",
"< 	c #525252",
"[ 	c #565757",
"} 	c #5A5C5B",
"| 	c #5C5E5D",
"1 	c #5E605F",
"2 	c #5E5F5F",
"3 	c #5F5F5F",
"4 	c #5E5E5E",
"5 	c #5B5B5B",
"6 	c #575958",
"7 	c #474848",
"8 	c #474747",
"9 	c #4E4E4E",
"0 	c #545555",
"a 	c #595B5A",
"b 	c #585A59",
"c 	c #5C5D5F",
"d 	c #5B5C5E",
"e 	c #58595B",
"f 	c #686969",
"g 	c #6A6B6B",
"h 	c #696A6A",
"i 	c #656666",
"j 	c #666666",
"k 	c #676767",
"l 	c #616162",
"m 	c #4F4F50",
"n 	c #6E6E6E",
"o 	c #6B6C6B",
"p 	c #6A6A6A",
"q 	c #696969",
"r 	c #676868",
"s 	c #666867",
"t 	c #656665",
"u 	c #4F4F4F",
"v 	c #6F706F",
"w 	c #6E6F6F",
"x 	c #6D6F6E",
"y 	c #6C6D6C",
"z 	c #6B6C6C",
"A 	c #6A6B6A",
"B 	c #626363",
"C 	c #616363",
"D 	c #5F6060",
"E 	c #555656",
"F 	c #525353",
"G 	c #5E605E",
"H 	c #5D5F5F",
"I 	c #5C5E5E",
"J 	c #5C5E5F",
"K 	c #5A5C5D",
"L 	c #58595A",
"M 	c #686868",
"N 	c #5D5D5D",
"O 	c #5C5C5C",
"P 	c #5A5A5A",
"Q 	c #5A5A5C",
"R 	c #58585A",
"S 	c #565658",
"T 	c #5E5E5F",
"U 	c #595959",
"V 	c #6C6C6C",
"W 	c #6D6D6D",
"X 	c #595A5C",
"Y 	c #535456",
"Z 	c #5A5A59",
"` 	c #5E5E5D",
" .	c #5D5E5F",
"..	c #5B5D5D",
"+.	c #656565",
"@.	c #5B5B5C",
"#.	c #58585B",
"$.	c #575759",
"%.	c #6B6B6B",
"&.	c #5B5C5C",
"*.	c #5A5B5D",
"=.	c #676867",
"-.	c #5D5E60",
";.	c #5D5E5D",
">.	c #5C5D5C",
",.	c #5B5B5D",
"'.	c #646465",
").	c #535555",
"!.	c #636464",
"~.	c #5A5C5C",
"{.	c #5C5F5E",
"].	c #56575A",
"^.	c #545557",
"/.	c #535554",
"(.	c #545655",
"_.	c #606261",
":.	c #656766",
"<.	c #595A5B",
"[.	c #555657",
"}.	c #5C5D5D",
"|.	c #505050",
"1.	c #5A5B5B",
"2.	c #525453",
"3.	c #565857",
"4.	c #5B5D5E",
"5.	c #636463",
"6.	c #5B5C5D",
"7.	c #5A5B5C",
"8.	c #595B5B",
"9.	c #616263",
"0.	c #5B5C5B",
"a.	c #595A59",
"b.	c #4F504F",
"c.	c #5E5F5E",
"d.	c #5A5B5A",
"e.	c #565756",
"f.	c #606161",
"g.	c #57585A",
"h.	c #616262",
"i.	c #565759",
"j.	c #5E6060",
"k.	c #4C4E4D",
"l.	c #515352",
"m.	c #555555",
"n.	c #5A5D5C",
"o.	c #5A5B5E",
"p.	c #595A5D",
"q.	c #58595C",
"r.	c #5B5C5F",
"s.	c #505151",
"t.	c #5F605F",
"u.	c #595B5C",
"v.	c #585A5B",
"w.	c #585A5A",
"x.	c #57595A",
"y.	c #525355",
"z.	c #4A4C4B",
"A.	c #585959",
"B.	c #4D4F4E",
"C.	c #535353",
"D.	c #575859",
"E.	c #515254",
"F.	c #555756",
"G.	c #494B4A",
"H.	c #505150",
"I.	c #4D4D4D",
"J.	c #444444",
"K.	c #565656",
"L.	c #494154",
"M.	c #494054",
"N.	c #525256",
"O.	c #4F5053",
"P.	c #4C4D4F",
"Q.	c #474948",
"R.	c #4E4F4F",
"S.	c #494949",
"T.	c #555655",
"U.	c #555757",
"V.	c #555658",
"W.	c #4E504F",
"X.	c #4B4A4E",
"Y.	c #453E5A",
"Z.	c #3D3071",
"`.	c #3F4191",
" +	c #444190",
".+	c #67285A",
"++	c #AA2535",
"@+	c #7C4448",
"#+	c #4D4D4E",
"$+	c #4E5050",
"%+	c #515353",
"&+	c #525454",
"*+	c #535455",
"=+	c #545556",
"-+	c #545656",
";+	c #525354",
">+	c #48494A",
",+	c #4B4C4C",
"'+	c #545454",
")+	c #545554",
"!+	c #4C4D4D",
"~+	c #4C4D4C",
"{+	c #4A4B4B",
"]+	c #4A4B4A",
"^+	c #4F5052",
"/+	c #4D4E50",
"(+	c #3E357A",
"_+	c #3F408F",
":+	c #434190",
"<+	c #A02846",
"[+	c #BA2633",
"}+	c #BB2633",
"|+	c #AE313A",
"1+	c #5E5D60",
"2+	c #5D5D5F",
"3+	c #5C5C5E",
"4+	c #4E4E50",
"5+	c #4C4C4D",
"6+	c #575757",
"7+	c #535454",
"8+	c #4D445B",
"9+	c #3F3F8D",
"0+	c #783A7C",
"a+	c #723878",
"b+	c #603C83",
"c+	c #613D83",
"d+	c #5D3B7E",
"e+	c #59575D",
"f+	c #5F5F61",
"g+	c #5E5F61",
"h+	c #505052",
"i+	c #5A5A5B",
"j+	c #616362",
"k+	c #413975",
"l+	c #563E88",
"m+	c #713777",
"n+	c #3D4191",
"o+	c #906191",
"p+	c #CC7D90",
"q+	c #3E3F8E",
"r+	c #4B4362",
"s+	c #5E5E60",
"t+	c #515153",
"u+	c #5D5D5E",
"v+	c #595A5A",
"w+	c #5C5C5F",
"x+	c #3E3C87",
"y+	c #3E4191",
"z+	c #885D91",
"A+	c #F19F9A",
"B+	c #FBD9C6",
"C+	c #545294",
"D+	c #3E3374",
"E+	c #41315F",
"F+	c #3F408D",
"G+	c #5C458A",
"H+	c #E68C8D",
"I+	c #F9D6C5",
"J+	c #F9D8C6",
"K+	c #D38791",
"L+	c #3C4090",
"M+	c #514C58",
"N+	c #5C5D5E",
"O+	c #5B5A5C",
"P+	c #5F5F60",
"Q+	c #4F5150",
"R+	c #3E2C5F",
"S+	c #3E357B",
"T+	c #3F3376",
"U+	c #394182",
"V+	c #8A3D63",
"W+	c #3D2154",
"X+	c #7C4A65",
"Y+	c #F7C4B6",
"Z+	c #DEBEB2",
"`+	c #422D61",
" @	c #504B58",
".@	c #5B585C",
"+@	c #3F377B",
"@@	c #702F59",
"#@	c #B24667",
"$@	c #4B418F",
"%@	c #3F3A76",
"&@	c #7B213D",
"*@	c #8D3852",
"=@	c #602D4B",
"-@	c #E3C4B6",
";@	c #E6BCAE",
">@	c #893B57",
",@	c #393172",
"'@	c #463856",
")@	c #5B5E5D",
"!@	c #5B5860",
"~@	c #3D2D6B",
"{@	c #3E3479",
"]@	c #3F4090",
"^@	c #3C2760",
"/@	c #8C365F",
"(@	c #F2A39E",
"_@	c #6E6594",
":@	c #424191",
"<@	c #8B6779",
"[@	c #CFEAF7",
"}@	c #313A3D",
"|@	c #B77C80",
"1@	c #FAD8C6",
"2@	c #EDDED8",
"3@	c #323A3E",
"4@	c #351D4C",
"5@	c #3C2155",
"6@	c #57585B",
"7@	c #453559",
"8@	c #3F4192",
"9@	c #3F4190",
"0@	c #3C265D",
"a@	c #8B325E",
"b@	c #F7D1C0",
"c@	c #EEC9BB",
"d@	c #724487",
"e@	c #DEADA7",
"f@	c #FFFEFE",
"g@	c #4C4647",
"h@	c #E4C5B4",
"i@	c #F9D7C5",
"j@	c #FCE3D8",
"k@	c #686666",
"l@	c #351C4C",
"m@	c #4F5050",
"n@	c #565758",
"o@	c #58555C",
"p@	c #3E3881",
"q@	c #3E3981",
"r@	c #542757",
"s@	c #BC5C74",
"t@	c #C67B84",
"u@	c #BB576E",
"v@	c #F5BDB1",
"w@	c #FADACA",
"x@	c #E6C5B6",
"y@	c #F8D3C2",
"z@	c #EBACAC",
"A@	c #5A2656",
"B@	c #5C5B5C",
"C@	c #4C2271",
"D@	c #463482",
"E@	c #443B65",
"F@	c #3C2054",
"G@	c #3C2154",
"H@	c #392B5B",
"I@	c #60485C",
"J@	c #B24869",
"K@	c #C25D73",
"L@	c #F6C3B5",
"M@	c #F4BCB0",
"N@	c #F7CABB",
"O@	c #F8CFBF",
"P@	c #CC727E",
"Q@	c #502657",
"R@	c #564C65",
"S@	c #4C2372",
"T@	c #4C2972",
"U@	c #4C2C72",
"V@	c #4C2373",
"W@	c #48415B",
"X@	c #945264",
"Y@	c #C15D72",
"Z@	c #E9BAAF",
"`@	c #F7C7B8",
" #	c #F3ABA4",
".#	c #CC707C",
"+#	c #452656",
"@#	c #463A57",
"##	c #53505A",
"$#	c #585A5C",
"%#	c #525352",
"&#	c #574E64",
"*#	c #45366B",
"=#	c #616C9F",
"-#	c #666668",
";#	c #727272",
">#	c #925364",
",#	c #B14869",
"'#	c #A64F68",
")#	c #8D5E70",
"!#	c #807176",
"~#	c #807380",
"{#	c #5E4E54",
"]#	c #66575A",
"^#	c #67575B",
"/#	c #585958",
"(#	c #543E7D",
"_#	c #7880B6",
":#	c #7A577D",
"<#	c #A17AA3",
"[#	c #9C9C9C",
"}#	c #6F6F6F",
"|#	c #8F9292",
"1#	c #D67680",
"2#	c #6E6869",
"3#	c #A56CA8",
"4#	c #8B5A8D",
"5#	c #965A99",
"6#	c #AE4968",
"7#	c #8D4C5E",
"8#	c #515251",
"9#	c #4B4D4C",
"0#	c #5C5D75",
"a#	c #7E8BC0",
"b#	c #A05DAA",
"c#	c #915D93",
"d#	c #9C9D9C",
"e#	c #B0B0B0",
"f#	c #999999",
"g#	c #B57A78",
"h#	c #686363",
"i#	c #616361",
"j#	c #707270",
"k#	c #9E7AA0",
"l#	c #AF496B",
"m#	c #9A4A61",
"n#	c #4B4B4C",
"o#	c #484949",
"p#	c #494A49",
"q#	c #484948",
"r#	c #434544",
"s#	c #575858",
"t#	c #454746",
"u#	c #8190C5",
"v#	c #7177AD",
"w#	c #5C5563",
"x#	c #B071B2",
"y#	c #B1B2B1",
"z#	c #B2B2B2",
"A#	c #B1B1B0",
"B#	c #70637E",
"C#	c #A65FA9",
"D#	c #A29FA2",
"E#	c #BABABA",
"F#	c #AFAFAF",
"G#	c #705975",
"H#	c #9E4A6D",
"I#	c #9E5469",
"J#	c #666768",
"K#	c #656668",
"L#	c #636466",
"M#	c #616264",
"N#	c #454545",
"O#	c #4E4D4D",
"P#	c #505051",
"Q#	c #5C5C5D",
"R#	c #8291C6",
"S#	c #503178",
"T#	c #5C5664",
"U#	c #AB90AC",
"V#	c #9A9A9C",
"W#	c #6F7181",
"X#	c #8B8DBD",
"Y#	c #9A71B2",
"Z#	c #A570A0",
"`#	c #9D9D9D",
" $	c #ABABAB",
".$	c #C3C3C3",
"+$	c #A0A1AC",
"@$	c #726FA8",
"#$	c #B14868",
"$$	c #985467",
"%$	c #626365",
"&$	c #646567",
"*$	c #666769",
"=$	c #676769",
"-$	c #606163",
";$	c #5F6062",
">$	c #737AA9",
",$	c #7A86B3",
"'$	c #8B7BA6",
")$	c #A95D83",
"!$	c #B14768",
"~$	c #CE7083",
"{$	c #D4747F",
"]$	c #AD6377",
"^$	c #ADA1A4",
"/$	c #A5A5A5",
"($	c #7C607E",
"_$	c #A34A6B",
":$	c #B04969",
"<$	c #7A5F65",
"[$	c #626364",
"}$	c #606062",
"|$	c #616261",
"1$	c #565555",
"2$	c #A44069",
"3$	c #B24666",
"4$	c #AF4365",
"5$	c #D3747F",
"6$	c #D57781",
"7$	c #EF9292",
"8$	c #E78A8D",
"9$	c #7B4355",
"0$	c #605357",
"a$	c #B34769",
"b$	c #AE4969",
"c$	c #675D5F",
"d$	c #4D4D4F",
"e$	c #4E4F51",
"f$	c #4F2E77",
"g$	c #913B6D",
"h$	c #B14568",
"i$	c #F09392",
"j$	c #EE9191",
"k$	c #DB8086",
"l$	c #95888B",
"m$	c #8D8D8D",
"n$	c #7D7E7E",
"o$	c #585757",
"p$	c #7F8EC1",
"q$	c #7A85BB",
"r$	c #4F3072",
"s$	c #6E5D69",
"t$	c #B35974",
"u$	c #E6898D",
"v$	c #E98C8E",
"w$	c #EA8D8E",
"x$	c #B24D6F",
"y$	c #AC68A8",
"z$	c #B2ADB2",
"A$	c #B3B1B3",
"B$	c #BFBFBF",
"C$	c #4C4C4E",
"D$	c #626263",
"E$	c #4F5051",
"F$	c #575758",
"G$	c #646364",
"H$	c #616268",
"I$	c #7D8ABB",
"J$	c #915D96",
"K$	c #A37BA5",
"L$	c #8F94A9",
"M$	c #765B68",
"N$	c #A74B67",
"O$	c #9F3956",
"P$	c #882B56",
"Q$	c #872854",
"R$	c #7A5572",
"S$	c #776D78",
"T$	c #787878",
"U$	c #797979",
"V$	c #575959",
"W$	c #565858",
"X$	c #5B5D5A",
"Y$	c #977D98",
"Z$	c #A093A0",
"`$	c #8E919B",
" %	c #854951",
".%	c #982837",
"+%	c #AC555C",
"@%	c #E78989",
"#%	c #8C2B40",
"$%	c #88223B",
"%%	c #871E39",
"&%	c #8C6B73",
"*%	c #725355",
"=%	c #6F5154",
"-%	c #6B5255",
";%	c #8B2C3C",
">%	c #E58889",
",%	c #E58888",
"'%	c #9E2034",
")%	c #9F2436",
"!%	c #A02334",
"~%	c #55506D",
"{%	c #615959",
"]%	c #A43541",
"^%	c #933845",
"/%	c #E68A8B",
"(%	c #ED9090",
"_%	c #A53340",
":%	c #9B3653",
"<%	c #9A2E3B",
"[%	c #913945",
"}%	c #85565E",
"|%	c #9C505F",
"1%	c #EA8E8F",
"2%	c #ED9191",
"3%	c #B57373",
"4%	c #6F5354",
"5%	c #763755",
"6%	c #7A6EA8",
"7%	c #65709D",
"8%	c #71364B",
"9%	c #752847",
"0%	c #712245",
"a%	c #712244",
"b%	c #5A5457",
"c%	c #8E3B43",
"d%	c #A02335",
"e%	c #A01F2E",
"f%	c #923840",
"g%	c #5C5F5F",
"h%	c #484A49",
"i%	c #57595B",
"j%	c #434343",
"k%	c #5A5859",
"l%	c #742A48",
"m%	c #5F5759",
"n%	c #8F3B43",
"o%	c #7D3C42",
"p%	c #595B59",
"q%	c #4E4F4E",
"r%	c #505252",
"s%	c #555454",
"t%	c #6F3E4F",
"u%	c #5F5B5C",
"v%	c #9F2435",
"w%	c #9B3552",
"x%	c #695D68",
"y%	c #635A5B",
"z%	c #534848",
"A%	c #6B404E",
"B%	c #732F49",
"C%	c #6D3F4F",
"D%	c #9F2334",
"E%	c #895B8C",
"F%	c #6977B2",
"G%	c #4D4D4C",
"H%	c #464646",
"I%	c #535453",
"J%	c #70374C",
"K%	c #71364C",
"L%	c #943541",
"M%	c #7F484A",
"N%	c #4A4B4D",
"O%	c #464749",
"P%	c #606061",
"Q%	c #5D5E61",
"R%	c #615A5E",
"S%	c #703A4C",
"T%	c #59595A",
"U%	c #49494B",
"V%	c #724A75",
"W%	c #6B74AF",
"X%	c #5F6275",
"Y%	c #4B4C4E",
"Z%	c #5E5D5F",
"`%	c #63555B",
" &	c #752846",
".&	c #752745",
"+&	c #62565B",
"@&	c #565657",
"#&	c #565958",
"$&	c #515253",
"%&	c #505153",
"&&	c #4D4E4D",
"*&	c #666766",
"=&	c #535557",
"-&	c #4C4E4F",
";&	c #555759",
">&	c #525356",
",&	c #4B4C4D",
"'&	c #535354",
")&	c #49494A",
"!&	c #555758",
"~&	c #595B5D",
"{&	c #494A4C",
"]&	c #616365",
"^&	c #515255",
"/&	c #515252",
"(&	c #474847",
"_&	c #525253",
":&	c #4E4E4F",
"<&	c #545455",
"[&	c #4A4A4B",
"}&	c #59595B",
"|&	c #555557",
"1&	c #4B4B4D",
"2&	c #535355",
"3&	c #555556",
"4&	c #515152",
"5&	c #5A5A5D",
"6&	c #59595C",
"7&	c #545456",
"8&	c #565558",
"  . + @ # # $ $ @ % & * = - ; > @ , ' ' ) ! ~ = { ] + ^ / ( _ : < [ } } . | ] ] ] 1 2 3 4 5 } 6 7 8 9 0 a 6 b b a } . . . c d e ",
"f g h ! i $ $ i i j k k k l m n o g o g g h p q r s t ! t ; u ~ n v w x y z g A ) , s k j B C D E F 3 2 + 1 G { H ] ] ] I J K L ",
"q M 4 N N O O O 5 P P P Q R S T 3 3 3 3 4 4 4 4 N N O 5 U u 5 V W V ~ = 3 4 3 4 4 N O O 5 5 X e Y Z ` N . | |  .c d ... . . } 6 ",
"k +.3 4 4 N O O O O O 5 @.#.$.& 3 3 4 4 4 4 4 4 N N O 5 5 u 4 %.V ~ = 3 3 4 4 4 N O O O O &.*.X Y / 4 =.+ 1 ] -.-.c | . . . . 6 ",
"j & 3 { ;.N >.O O &.&.5 ,.R S '.4 3 4 ] 4 4 4 { N N O O 5 u 4 q 3 3 3 3 4 4 4 N N O O O O &.*.X ).> p !.] ] ] -.c c | . . ..~.L ",
"$ ] {.| | | . . . } } } K ].^.'.= 4 ] ] ] ] {.| N N O O 5 u 3 j 3 3 3 4 4 4 4 O N O O O 5 5 } a /.(.@ _.. ] ] c c c . . . d d e ",
":.| | | | . . . . } } a <.].[.B = 4 ] ] ] ] | | }.O 5 5 P |.4 k 3 4 4 4 4 4 N N N O O 5 5 1.a b 2.3._.+ | | | c c 4.| . . d *.e ",
"5.. . | | . ..6.&.~.7.8.<.].^.9.D 2 ] ] ] { I ..&.0.5 5 a.b.}.+.3 c.4 ;.{ { }.}.}.&.&.1.1.d.a a 2.e.^ f.| | | c d d ~.~.&.*.X g.",
"h.. . . . . d d *.*.*.X X i.^.j.+ ] | | | c c d ~.} } } b k.&.~ 3 3 ] | | | . . . } } } a a b b l.m.% D | . . d d d *.*.*.*.*.g.",
"+ n.} } } } K o.p.p.q.e e i.Y }._.| | | . 6.r.o.~.} a a b k.d.% 4 4 | | | . . . } } } } b b 6 6 s.m.% t.. . } *.d d *.*.X *.X e ",
"c.&.0.} a a 8.u.8.v.w.x.g.i.y...] . | | } } K ~.1.a a a 6 z.A.& 4 N . | . } } } a a a b b b 6 > B.C.% 4 } a a 8.8.X X X X e e g.",
"/ P P a a a a a b b 6 6 D.i.E.6.. . . . } } } a a a b b F.G.H.O N N . | } } } } a a a b 6 6 m.< _ I.N a.a b w.b b b e e e e e g.",
"J.|.K.[ 3.3.3.[.L.M.M.M.N.O.P.8.} } } } a a b a a b b 3.B.Q.R.P 5 5 } } } a b b 6 6 6 3.(.H.< < S.S.- T.6 3.3.3.3.U.V.V.V.V.i.^.",
"8 I.I.R.W.X.Y.Z.`.`.`. +.+++@+#+$+%+&+*+=+).0 =+-+).*+;+F >+,+C.'+T.F.> [ )+H.R.B.!+!+~+{+]+S.S.( ; u s.  l.l.F 2.2.y.Y Y y.^+/+",
"q M * ] }.(+_+`.`.`.:+<+[+}+}+|+R 1+-.-.-.-.-.-.2+3+,.Q Q 4+5+6+K.4 4 O O O U K.'+C.- 9 ; S.S.( ( ; < 7+(.F.[ i.i.i.i.e e i.i.Y ",
"M V M B 8+9+`.`.`.`.0+}+a+b+c+d+e+f+g+-.c c c c c 3+2+Q Q h+i+N 4 N N N O O O O 5 5 5 P K.- |.I.8 u * k j++ | -.g+*.d d *.*.*.e ",
"q %.&  .k+`.`.`.`.`.l+m+n+o+p+q+r+s+-.-.c c c c c 3+3+,.Q t+u+3 N 4 N N N O O O 5 5 5 P v+U / K.I.- k f.{ H  .c d d d d *.*.*.e ",
"M k * w+x+`.`.`.`.`.`.y+z+A+B+C+D+]  .-.c c c d d d *.d ,.t+s+= N N N N N O O &.} } } a b b 6 3.W.< +.c.-.-.-.c c c d d d X d e ",
"M +.= E+`.`.`.`.`.`.F+G+H+I+J+K+L+M+N+c c c c d d d *.*.O+t+P+* 4 N N N N O O 0.} } } a b b F.(.Q+- +.T -.c c c c d d d *.*.X g.",
"k & = R+`.S+T+`.`.U+V+W+X+Y+Z+`+`. @I c c c c d d d *.7.Q t+P+* 4 ;.| N N O O 0.} } 8.8.w.b /.)+|.- +.T -.c c c c d d d *.*.*.e ",
"+.= .@+@`.@@#@$@`.%@&@*@=@-@;@>@,@'@| | | . . . ~.} } 1.P - 3 * N N | )@)@n.n.. } . 8.X q.R m.m.|.- ~ u+-.c c c d d d d *.*.*.g.",
"!@~@{@]@^@/@(@_@:@<@[@}@|@1@2@3@4@5@| . . . . } } } a d.P - N = N N | . . . . } a } 8.q.e $.'+'+|.- % u+c d d d d d *.*.*.X X 6@",
"7@8@9@0@5@a@b@c@d@e@f@g@h@i@j@k@l@5@. . . . . ~.} } a a P m@}.3 N N | . . . } } a a v+e x.n@'+'+|.- % u+c d d d d d *.*.*.X X 6@",
"o@p@q@5@5@r@s@t@u@v@w@x@i@i@y@z@A@5@} } } *.*.*.8.a a a b Q+;.3 O O O O &.} } } a b b 6 3./.C.'+|.|.% }.d d d d d *.X X X X e i.",
"B@C@D@E@F@G@H@I@J@K@L@i@M@N@O@P@Q@5@a a } 7.p.*.8.a a b 6   ;.3 N O O O 0.} a a a a 3./.2.F < C.|.9 * 6.*.*.*.*.*.X *.X e e e i.",
"5 R@S@T@U@V@W@4 X@J@Y@Z@`@ #.#+#@###a a b a $#v.A.6 a.b 6 W.&.4 5 5 5 5 5 } a a a b b a w./.%#F |.I.& 1.*.*.*.*.X X e e e e e i.",
"5 O &#S@S@*#=#-#;#>#,#'#)#!#~#{#]#^#/#6 6 /#6+6+K.m.m.T./.k.)+6+5 P a a } a a a b b L g.e ;+  l.Q+I.& 7.X X X X X X e e e g.g.i.",
"P 5 >.(#_#:#<#[#}#|#1#2#3#4#5#6#,#,#7#Q+l.8#|.C.m.'+- Q+k.9#8#K.U b F.3.b b b b b b 6 i.g.^.2.2.B.; 4 a.X e X e e e e e g.i.i.^.",
"9 )+0#a#b#c#d#e#f#w.g#h#i#j#k#l#,#,#m#k.9#!+n#o#S.p#S.q#Q.r#I.u - 0 T.E 6 6 6 6 s#> 3.i.V.[.(.  t#S.: C.Y y.Y y.Y Y ^.V.^.^.Y /+",
"G.l.u#v#w#x#y#z#A#B#C#D#E#F#G#H#,#,#I#J#K#L#M#*.i.^.;+#+; N#9 9 O#I.u - )+/.2.%#< - |.P#|.9 : ( ( S.u T.P N Q#d d *.X e i.g.i.h+",
"2.. R#S#T#U#V#W#X#Y#Z#`# $.$+$@$#$,#$$%$%$%$L#%$%$&$*$=$` 8 u m.K.6+6+6+> 6 6 > / 6+6+6+K.C.|.; 8 C.n n W %.q K#L#-$;$-.c c d *.",
"&.1 R#S#>$,$'$)$!$~${$]$^$/$($_$:$<$L#L#L#[$9.}$;$-.J }.5 I.O * * * = |$f.+ _.D 3 2 4 N T Q#5 A.; 1$V M h.4 2 -.c d c c N+d d X ",
"} + R#S#2$3$4$5$6$7$5$8$9$0$a$b$c$4 c.] | | | . . . . 6.,.d$Q#O N | | . . . . . } } 7.X X X g.g.e$6+p 2 ] ] ] ] ] | | | ;.d d X ",
"/.1 R#f$g$h$i$j$j$j$7$k$l$m$n$>.4 4 ] ] | | | . . . } 6.,.d$Q#O O >.. . . . } } } } 7.X e e e g.^+o$% 1 ] ] ] | | | ] | ..d d X ",
"A.+ p$q$r$s$t$u$v$w$x$y$z$A$E#B$* 4 4 ] | | | . . . ~.6.Q C$D$4 O O . . . . } } } } } X e e e g.E$F$G$2 ] ] ] | | | . . . d d X ",
"m.4 H$I$J$K$L$M$N$O$P$Q$R$S$T$U$M 4 { | | | | . ..d *.@.P I._.] . . d d 6.. } } } a a a a V$V$W$Q+F.j+] ] | | N+c r.r.r.r.*.*.e ",
"'+4 N X$Y$Z$`$ %.%+%@%#%$%%%&%= N 4 ;.| | | | . ~.*.*.7./ : D 1 . ..d d K . } } a a a a b b 6 F.Q+(.+ | ] | | c d d d d *.*.*.X ",
"< O B@. *%=%-%;%>%,%'%)%)%)%!%~%4 N N | . . &.. ~.*.X <./ I.b . . 6.*.*.*.} b a a a a b b b 3.(.Q+/.+ }.| | | d d d d *.*.*.X X ",
"< 5 5 5 {%]%^%/%(%_%)%)%)%:%<%[%] | . . . 6.*.*.*.X e w.6 B.b } a 8.X X X } a b b b b 6 6 V$V.Y e$- * }.d d d c d d d *.*.X *.e ",
"- U P 5 5 }%|%1%2%3%4%5%6%7%{ { | . } } } 7.X *.X e e w.6 9#b } a <.X X v.b 6 b b b b 6 6 W$Y E.4+|.& O d d d *.d *.X *.X X X v.",
"_ 6+P P 5 8%9%0%a%b%c%d%e%f%g%N } . } } } 8.X X X e e A.(.h%3.b b w.v.e L 6 (././././.3.3.W$Y E./+I.* &.d d d *.*.*.*.*.X X X i%",
"j%< U m.k%9%9%l%m%n%)%d%d%)%o%I.6+5 1.} } } a b p%6 V$2.; I.'+< - - - %#< s.R.R.q%u u C.e.e.&+r%B.: N 1.d *.*.*.*.X X X X e e i%",
"J.9 < C.s%9%t%u%e.v%w%x%y%z%_ : < 6+A.b a b b 6 6 F.l.]+( S.|.- |.|.|.|.|.|.u u u u u 9 9 - 2.l.z._ m.1.X *.*.*.*.X X e e X e g.",
": / A.U A%9%B%C%/#D%E%F%G%; ; |.C.C.l.l.F l.l.s.  W.W.R.,+H%; < C.F < < < < < F '+I%'+C.8#H.W.,+o#_ - 0 Y Y Y Y ^.^.Y Y ^.y.E.^+",
"|$| } <.J%9%K%d 3+L%D%M%/ |._ v+| | I 4.d d d *.X <.v.e e E.%+a b v+<.X X e e e e L L e D.i.^.N%O%2+P%s+Q%-.c c d d *.*.*.X X g.",
"s 1 G R%9%9%S%i+c -.*.*.T%'+I.| | } K *.d d *.*.X X *.X e Y ).a b w.X X X *.X e e X X e e e c ^.U%2+,.3+d c d d d *.*.*.X X X 6@",
"# ] 1 R%9%9%V%W%X%d c d i+/ 9 | | . 6.d *.*.*.*.X X *.e e E.*+b b L e e X *.X X X X X e e e -$g.Y%f+3+3+d d d d d *.*.X X X e e ",
"~ 4 3 Z%`%9% &.&+&c c X a 6 W.}.| } 7.*.*.*.*.*.X X X e e E.;+b b b v+F.a a a 8.X X X e e L P+@&: ] . . d d d d d *.*.*.e X X e ",
"= 4 3 -.-.-.c c -.c c e w.#&W.| . } 7.*.*.X X X X X X e e E.$&6 3.W$6 2.a b a 8.X X X e e L 6+m.: 1 . ..d d d d d *.*.*.e X e g.",
"j 4 4 -.-.-.c c c c c X w.3.B.. . } 7.*.*.*.X X X X X e e %&%+6 F.F.Q+W.(.b a 8.X X X e g.D.6+m.&&1 . ..d d d *.*.*.X X X e e i.",
"*&{ ] ] { I N+c c d c e V$F.B.. } a 7.*.X X X X X e e g.g.%&%&i.=&%&q.*.^.b b w.e e e e g.g.i.=&-&2 . 6.*.*.*.*.*.X X e e e e g.",
"$ 1 ] ] ] | c c c d d g.s#F.B.. } a 7.*.X X X X X e e i.g.^+^+i.y.e X X 8.3.b w.e e e e g.i.;&Y -&1 . &.*.*.*.*.*.X X e g.g.g.V.",
"$ 1 | | | | c c d d d g.W$(.k.} } a <.X X e e e e e g.i.i.e$^+y.^.X X e 8.3.b w.e g.g.g.i.i.^.>&P.1 } ~.*.X X X X X e e i.g.g.i.",
"# ] | . . . d d d *.*.g.n@(.9#} } a <.e e e e e e g.g.$.[ #+,&Y%%&e e X X i.e L A.s#s#s#W$U.m.'&I.4 d.1.a a a 8.w.w.V$6 W$i.i.V.",
"+ . } . . . d d d *.*.V.[ (.G.b b 6 L e g.g.g.i.i.i.i.n@C.S.)&P.%&^.i.i.V.V.V.!&F.E (.(.(.I%< |._ N P d.a b a a b 6 6 6 I ^.^.y.",
"b ] | . . } 6.*.*.~&~&i.W$l.Q.    l.*+Y y.y.y.y.E.%&%&E$_ 8 {&]&;$^.y.^&y.>&Y *+/.F l.W.B.q%9 _ S.: |.K.(.(././././././.7+^.Y ^.",
",+/&7+)+0 [ s#T%i+5 5 '&&&]+(&q%A.>.}.d d d d c d d d ,.i+_&:&T%u+N+..} } 5 @.@.8.7.[ 7+I%I%<&m [&I.+.~ % B B % % % % B B %$%$L#",
"9 5 O O N O 5 P 5 5 5 U / C.N#5 O 5 7.*.*.*.d *.*.*.X Q }&t+:&P O >.. } } 5 5 1.X X v+m.m.m.|&|&1&U V 4 N N N N N N O N N 3+3+,.",
"5 5 N O O O O 5 5 5 5 P P U |.5 5 5 6.d d d *.*.*.*.*.*.Q 2&P#4 O . . . . 5 P i+*.X 8./ m.3&|&|&4&N V 4 N N N N N O O O O ,.,.}&",
"2 . . . . . . &.} 7.7.X e e ^+v+a 0.. ..~.~.~.~.~.7.u.Q Q 2&/&:.| . . . . . 0.} ~.8.<.$.V.|&|&|&_&4 V N N N N | | | . . . @.5 P ",
". . . . . . . . } 7.*.X e e ^+D., } | . } } } } } } a <.5&2&$&:.| | . . . . } } } a v+q.V.V.|&|&t+4 p 4 N N N | | | . . . 5 P P ",
"} . . . . } } } } u.e e g.g.^+V$j+} . } } } } } } } } L 6&7&7+@ | . . . . . } } } a a q.i.^.S 8&t+4 p N N N N | | | . . } O P P ",
"a a . } } . ~.7.7.X X e e i./+T%D 1.} } } } } } } u.8.e e Y %+] . . . . . 6.7.7.u.8.<.e i.V.S S _&4 p N N N N >.>.>.. . } @.7.v+",
"} a . } } . K *.*.X X e g.i./+T%5 5 } } } } } } 1.X X v.i%E.&+] . . . . . d *.*.X X <.e i.V.S S _&4 p N N N N O O O . . } *.*.}&"};
