/* XPM */
static char * g_rigth_3_xpm[] = {
"64 64 653 2",
"  	c #505251",
". 	c #5B5D5C",
"+ 	c #5F6160",
"@ 	c #626463",
"# 	c #636564",
"$ 	c #646665",
"% 	c #636363",
"& 	c #626262",
"* 	c #616161",
"= 	c #606060",
"- 	c #515151",
"; 	c #4A4A4A",
"> 	c #575857",
", 	c #676968",
"' 	c #6A6C6B",
") 	c #686A69",
"! 	c #666767",
"~ 	c #646464",
"{ 	c #5D5E5E",
"] 	c #5D5F5E",
"^ 	c #626362",
"/ 	c #585858",
"( 	c #484848",
"_ 	c #4B4B4B",
": 	c #4C4C4C",
"< 	c #525252",
"[ 	c #565757",
"} 	c #5A5C5B",
"| 	c #5C5E5D",
"1 	c #5E605F",
"2 	c #5E5F5F",
"3 	c #5F5F5F",
"4 	c #5E5E5E",
"5 	c #5B5B5B",
"6 	c #575958",
"7 	c #474848",
"8 	c #474747",
"9 	c #4E4E4E",
"0 	c #545555",
"a 	c #595B5A",
"b 	c #585A59",
"c 	c #5C5D5F",
"d 	c #5B5C5E",
"e 	c #58595B",
"f 	c #686969",
"g 	c #6A6B6B",
"h 	c #696A6A",
"i 	c #656666",
"j 	c #666666",
"k 	c #676767",
"l 	c #616162",
"m 	c #4F4F50",
"n 	c #6E6E6E",
"o 	c #6B6C6B",
"p 	c #6A6A6A",
"q 	c #696969",
"r 	c #676868",
"s 	c #666867",
"t 	c #656665",
"u 	c #4F4F4F",
"v 	c #6F706F",
"w 	c #6E6F6F",
"x 	c #6D6F6E",
"y 	c #6C6D6C",
"z 	c #6B6C6C",
"A 	c #6A6B6A",
"B 	c #626363",
"C 	c #616363",
"D 	c #5F6060",
"E 	c #555656",
"F 	c #525353",
"G 	c #5E605E",
"H 	c #5D5F5F",
"I 	c #5C5E5E",
"J 	c #5C5E5F",
"K 	c #5A5C5D",
"L 	c #58595A",
"M 	c #686868",
"N 	c #5D5D5D",
"O 	c #5C5C5C",
"P 	c #5A5A5A",
"Q 	c #5A5A5C",
"R 	c #58585A",
"S 	c #565658",
"T 	c #5E5E5F",
"U 	c #595959",
"V 	c #6C6C6C",
"W 	c #6D6D6D",
"X 	c #595A5C",
"Y 	c #535456",
"Z 	c #5A5A59",
"` 	c #5E5E5D",
" .	c #5D5E5F",
"..	c #5B5D5D",
"+.	c #656565",
"@.	c #5B5B5C",
"#.	c #58585B",
"$.	c #575759",
"%.	c #6B6B6B",
"&.	c #5B5C5C",
"*.	c #5A5B5D",
"=.	c #676867",
"-.	c #5D5E60",
";.	c #5D5E5D",
">.	c #5C5D5C",
",.	c #5B5B5D",
"'.	c #646465",
").	c #535555",
"!.	c #636464",
"~.	c #5A5C5C",
"{.	c #5C5F5E",
"].	c #56575A",
"^.	c #545557",
"/.	c #535554",
"(.	c #545655",
"_.	c #606261",
":.	c #656766",
"<.	c #595A5B",
"[.	c #555657",
"}.	c #5C5D5D",
"|.	c #505050",
"1.	c #5A5B5B",
"2.	c #525453",
"3.	c #565857",
"4.	c #5B5D5E",
"5.	c #636463",
"6.	c #5B5C5D",
"7.	c #5A5B5C",
"8.	c #595B5B",
"9.	c #616263",
"0.	c #5B5C5B",
"a.	c #595A59",
"b.	c #4F504F",
"c.	c #5E5F5E",
"d.	c #5A5B5A",
"e.	c #565756",
"f.	c #606161",
"g.	c #57585A",
"h.	c #616262",
"i.	c #565759",
"j.	c #5E6060",
"k.	c #4C4E4D",
"l.	c #515352",
"m.	c #555555",
"n.	c #5A5D5C",
"o.	c #5A5B5E",
"p.	c #595A5D",
"q.	c #58595C",
"r.	c #5B5C5F",
"s.	c #505151",
"t.	c #5F605F",
"u.	c #595B5C",
"v.	c #585A5B",
"w.	c #585A5A",
"x.	c #57595A",
"y.	c #525355",
"z.	c #4A4C4B",
"A.	c #585959",
"B.	c #4D4F4E",
"C.	c #535353",
"D.	c #575859",
"E.	c #515254",
"F.	c #555756",
"G.	c #494B4A",
"H.	c #505150",
"I.	c #4D4D4D",
"J.	c #444444",
"K.	c #565656",
"L.	c #545556",
"M.	c #4F5053",
"N.	c #4C4D4F",
"O.	c #474948",
"P.	c #4E4F4F",
"Q.	c #494949",
"R.	c #555655",
"S.	c #535356",
"T.	c #4A455C",
"U.	c #3D2D6B",
"V.	c #3D2D6C",
"W.	c #4E4B56",
"X.	c #4C4D58",
"Y.	c #555658",
"Z.	c #4E504F",
"`.	c #4D4F4F",
" +	c #4E4F50",
".+	c #4C4E4F",
"++	c #4A4B4D",
"@+	c #4C4D4E",
"#+	c #4E5050",
"$+	c #515353",
"%+	c #525454",
"&+	c #535455",
"*+	c #545656",
"=+	c #525354",
"-+	c #48494A",
";+	c #4B4C4C",
">+	c #545454",
",+	c #545554",
"'+	c #4C4D4D",
")+	c #4C4D4C",
"!+	c #4A4B4B",
"~+	c #4A4B4A",
"{+	c #43385C",
"]+	c #3E3679",
"^+	c #3F4090",
"/+	c #3F4191",
"(+	c #513F8D",
"_+	c #863774",
":+	c #BA2735",
"<+	c #B82C37",
"[+	c #554F51",
"}+	c #4D4E50",
"|+	c #5C5D5E",
"1+	c #5D5D5F",
"2+	c #4A4A4C",
"3+	c #515153",
"4+	c #5E5D60",
"5+	c #5C5C5E",
"6+	c #4E4E50",
"7+	c #4C4C4D",
"8+	c #575757",
"9+	c #525254",
"0+	c #3E3981",
"a+	c #464190",
"b+	c #BA283C",
"c+	c #BB283B",
"d+	c #7F4C50",
"e+	c #616362",
"f+	c #5F6062",
"g+	c #4D4D4F",
"h+	c #5F5F61",
"i+	c #5E5F61",
"j+	c #505052",
"k+	c #5A5A5B",
"l+	c #45345A",
"m+	c #3F4192",
"n+	c #942F5C",
"o+	c #8D3162",
"p+	c #3A4192",
"q+	c #654F92",
"r+	c #5F4D91",
"s+	c #5D2A5F",
"t+	c #606061",
"u+	c #5E5F60",
"v+	c #5E5E60",
"w+	c #5D5D5E",
"x+	c #595A5A",
"y+	c #636265",
"z+	c #3F3D8A",
"A+	c #3C4192",
"B+	c #3D4192",
"C+	c #715391",
"D+	c #EF9795",
"E+	c #C2A5AD",
"F+	c #3B3F91",
"G+	c #4D4557",
"H+	c #585362",
"I+	c #3F3E8C",
"J+	c #745491",
"K+	c #F09996",
"L+	c #F9D6C4",
"M+	c #F2C3B6",
"N+	c #614B91",
"O+	c #3C2760",
"P+	c #5B5A5C",
"Q+	c #5F5F60",
"R+	c #4F5150",
"S+	c #3F2C5F",
"T+	c #3B3E74",
"U+	c #A76272",
"V+	c #ECC8B9",
"W+	c #F9D7C5",
"X+	c #DC9191",
"Y+	c #3D3A84",
"Z+	c #3D3275",
"`+	c #3D3071",
" @	c #4B3679",
".@	c #474190",
"+@	c #A44364",
"@@	c #A64465",
"#@	c #55305A",
"$@	c #F6D4C3",
"%@	c #E09191",
"&@	c #A34369",
"*@	c #383173",
"=@	c #5B5E5D",
"-@	c #4E4A51",
";@	c #3F3B84",
">@	c #85365D",
",@	c #E48588",
"'@	c #3C4091",
")@	c #303864",
"!@	c #9BC2D2",
"~@	c #200000",
"{@	c #B18682",
"]@	c #8F5C62",
"^@	c #040102",
"/@	c #391F50",
"(@	c #4E3B65",
"_@	c #443652",
":@	c #3D3274",
"<@	c #3C2053",
"[@	c #953961",
"}@	c #F9CEBD",
"|@	c #A994A8",
"1@	c #59408C",
"2@	c #F8F2F3",
"3@	c #FFFFFF",
"4@	c #000000",
"5@	c #FBD9C7",
"6@	c #FAF8F6",
"7@	c #3D2156",
"8@	c #4F5050",
"9@	c #565758",
"0@	c #4D306C",
"a@	c #4A226E",
"b@	c #3E357A",
"c@	c #3C2155",
"d@	c #7E325D",
"e@	c #E4B6AC",
"f@	c #F6B7AC",
"g@	c #B17191",
"h@	c #F8D0C0",
"i@	c #FDF3ED",
"j@	c #D2B4A5",
"k@	c #F3B6AC",
"l@	c #A68489",
"m@	c #3A2155",
"n@	c #422667",
"o@	c #4C2372",
"p@	c #4A236F",
"q@	c #3C285A",
"r@	c #3F215B",
"s@	c #432259",
"t@	c #442656",
"u@	c #AC516C",
"v@	c #EE9594",
"w@	c #F9D8C6",
"x@	c #F8D4C2",
"y@	c #F4CDBE",
"z@	c #F7CBBC",
"A@	c #B85A70",
"B@	c #484357",
"C@	c #473C53",
"D@	c #3F4190",
"E@	c #42225F",
"F@	c #4B2671",
"G@	c #57486B",
"H@	c #605F62",
"I@	c #5B3159",
"J@	c #BA556F",
"K@	c #F5C4B6",
"L@	c #F9D5C4",
"M@	c #F7D1C0",
"N@	c #E9BFB3",
"O@	c #B0526D",
"P@	c #402255",
"Q@	c #4C4657",
"R@	c #4B4D4C",
"S@	c #585A5C",
"T@	c #525352",
"U@	c #453954",
"V@	c #3D2B68",
"W@	c #493E57",
"X@	c #4E2B75",
"Y@	c #7881B7",
"Z@	c #7F7D81",
"`@	c #9A9A9A",
" #	c #656162",
".#	c #AA4B68",
"+#	c #BD5870",
"@#	c #C3717E",
"##	c #AE5D6E",
"$#	c #70515E",
"%#	c #3A2055",
"&#	c #4D4658",
"*#	c #5C5B5C",
"=#	c #515251",
"-#	c #585958",
";#	c #4C3468",
">#	c #503178",
",#	c #7F8DC2",
"'#	c #886693",
")#	c #866A87",
"!#	c #878787",
"~#	c #979797",
"{#	c #615D5E",
"]#	c #B24769",
"^#	c #795D7E",
"/#	c #9B9D9B",
"(#	c #865A89",
"_#	c #4D4858",
":#	c #4D465A",
"<#	c #4B1E70",
"[#	c #7D8ABF",
"}#	c #5A4C78",
"|#	c #A25FA5",
"1#	c #937A94",
"2#	c #7E7E7E",
"3#	c #838383",
"4#	c #696161",
"5#	c #DB7B84",
"6#	c #8B5B8F",
"7#	c #7B7E7B",
"8#	c #B27CB4",
"9#	c #777877",
"0#	c #555757",
"a#	c #464847",
"b#	c #4B4B4C",
"c#	c #484949",
"d#	c #494A49",
"e#	c #484948",
"f#	c #434544",
"g#	c #575858",
"h#	c #454746",
"i#	c #5C617A",
"j#	c #7C89BE",
"k#	c #5F5765",
"l#	c #AA65AD",
"m#	c #838483",
"n#	c #858585",
"o#	c #705D71",
"p#	c #736B71",
"q#	c #777778",
"r#	c #818281",
"s#	c #605F61",
"t#	c #636364",
"u#	c #676766",
"v#	c #676869",
"w#	c #666768",
"x#	c #656668",
"y#	c #636466",
"z#	c #616264",
"A#	c #4D4D4E",
"B#	c #454545",
"C#	c #4E4D4D",
"D#	c #505051",
"E#	c #5C627A",
"F#	c #5E5764",
"G#	c #917792",
"H#	c #828282",
"I#	c #636366",
"J#	c #6D6276",
"K#	c #A561A7",
"L#	c #9D9C9D",
"M#	c #9F9F9F",
"N#	c #B4B4B4",
"O#	c #727171",
"P#	c #5A595B",
"Q#	c #636362",
"R#	c #626365",
"S#	c #646567",
"T#	c #666769",
"U#	c #676769",
"V#	c #62687F",
"W#	c #747CAB",
"X#	c #7B87B5",
"Y#	c #7A87B5",
"Z#	c #A55270",
"`#	c #A85D8A",
" $	c #9F939D",
".$	c #AD6176",
"+$	c #A5838B",
"@$	c #BCBCBC",
"#$	c #CBC2C4",
"$$	c #A34D67",
"%$	c #626364",
"&$	c #606062",
"*$	c #616261",
"=$	c #5C5C5D",
"-$	c #64697F",
";$	c #4B2171",
">$	c #9E517B",
",$	c #C56274",
"'$	c #CE6F7C",
")$	c #AF4E6C",
"!$	c #D27982",
"~$	c #C6797E",
"{$	c #BF6272",
"]$	c #BABBBA",
"^$	c #705A5D",
"/$	c #B14869",
"($	c #7B5761",
"_$	c #4E4F51",
":$	c #646A81",
"<$	c #7C88BE",
"[$	c #993C6C",
"}$	c #F09392",
"|$	c #EE9191",
"1$	c #EF9292",
"2$	c #D3747F",
"3$	c #664F66",
"4$	c #766B97",
"5$	c #4F5052",
"6$	c #585757",
"7$	c #808EC2",
"8$	c #5B5182",
"9$	c #665E67",
"0$	c #CB6A7A",
"a$	c #E18489",
"b$	c #E18388",
"c$	c #A94563",
"d$	c #636D97",
"e$	c #6C5C5F",
"f$	c #685A5F",
"g$	c #4C4C4E",
"h$	c #626263",
"i$	c #4F5051",
"j$	c #575758",
"k$	c #66666E",
"l$	c #9A649D",
"m$	c #787879",
"n$	c #935162",
"o$	c #A8667A",
"p$	c #9E999A",
"q$	c #BEBABB",
"r$	c #CDCBCC",
"s$	c #B7B7B7",
"t$	c #575959",
"u$	c #565858",
"v$	c #565957",
"w$	c #9A639C",
"x$	c #A9A7A9",
"y$	c #8B4E54",
"z$	c #912A3A",
"A$	c #635D63",
"B$	c #A168A4",
"C$	c #9E969F",
"D$	c #9D9D9D",
"E$	c #9E9E9E",
"F$	c #ACACAC",
"G$	c #8C3F47",
"H$	c #A4A5A4",
"I$	c #8A4E53",
"J$	c #C26569",
"K$	c #D3787A",
"L$	c #C56B6E",
"M$	c #773D43",
"N$	c #7D5979",
"O$	c #98779A",
"P$	c #9E9F9E",
"Q$	c #877B7C",
"R$	c #6A4E53",
"S$	c #6F4B4D",
"T$	c #854248",
"U$	c #C36266",
"V$	c #F09393",
"W$	c #CE6F72",
"X$	c #D07174",
"Y$	c #CF7174",
"Z$	c #9C3341",
"`$	c #8A4146",
" %	c #7F484D",
".%	c #83474D",
"+%	c #5C5A5C",
"@%	c #8F3F47",
"#%	c #CB7D7D",
"$%	c #B65157",
"%%	c #9F2436",
"&%	c #81273F",
"*%	c #BA555B",
"=%	c #B9545A",
"-%	c #6D595C",
";%	c #7A2C46",
">%	c #92253D",
",%	c #9B2538",
"'%	c #9F2536",
")%	c #D3777A",
"!%	c #E58B8C",
"~%	c #484A49",
"{%	c #9C2A39",
"]%	c #9B2438",
"^%	c #8A2640",
"/%	c #7C2B4A",
"(%	c #9C2738",
"_%	c #9E2738",
":%	c #832642",
"<%	c #684753",
"[%	c #57595B",
"}%	c #434343",
"|%	c #595B59",
"1%	c #4E4F4E",
"2%	c #505252",
"3%	c #A02233",
"4%	c #885888",
"5%	c #5D5F63",
"6%	c #665157",
"7%	c #5E5459",
"8%	c #844046",
"9%	c #675558",
"0%	c #933742",
"a%	c #82484D",
"b%	c #694B54",
"c%	c #464646",
"d%	c #535453",
"e%	c #752847",
"f%	c #752947",
"g%	c #5C4E54",
"h%	c #5B5D5F",
"i%	c #464749",
"j%	c #5D5E61",
"k%	c #694B56",
"l%	c #752A48",
"m%	c #71354C",
"n%	c #59595A",
"o%	c #49494B",
"p%	c #742D49",
"q%	c #72344C",
"r%	c #5C5E64",
"s%	c #57585B",
"t%	c #606163",
"u%	c #4B4C4E",
"v%	c #6D4050",
"w%	c #752F50",
"x%	c #6C76B4",
"y%	c #5E6379",
"z%	c #565657",
"A%	c #694854",
"B%	c #694650",
"C%	c #5F5559",
"D%	c #565958",
"E%	c #515253",
"F%	c #505153",
"G%	c #4D4E4D",
"H%	c #666766",
"I%	c #535557",
"J%	c #555759",
"K%	c #525356",
"L%	c #4B4C4D",
"M%	c #535354",
"N%	c #49494A",
"O%	c #555758",
"P%	c #595B5D",
"Q%	c #494A4C",
"R%	c #616365",
"S%	c #515255",
"T%	c #535454",
"U%	c #515252",
"V%	c #474847",
"W%	c #525253",
"X%	c #4E4E4F",
"Y%	c #545455",
"Z%	c #4A4A4B",
"`%	c #59595B",
" &	c #555557",
".&	c #4B4B4D",
"+&	c #535355",
"@&	c #555556",
"#&	c #515152",
"$&	c #5A5A5D",
"%&	c #59595C",
"&&	c #545456",
"*&	c #565558",
"  . + @ # # $ $ @ % & * = - ; > @ , ' ' ) ! ~ = { ] + ^ / ( _ : < [ } } . | ] ] ] 1 2 3 4 5 } 6 7 8 9 0 a 6 b b a } . . . c d e ",
"f g h ! i $ $ i i j k k k l m n o g o g g h p q r s t ! t ; u ~ n v w x y z g A ) , s k j B C D E F 3 2 + 1 G { H ] ] ] I J K L ",
"q M 4 N N O O O 5 P P P Q R S T 3 3 3 3 4 4 4 4 N N O 5 U u 5 V W V ~ = 3 4 3 4 4 N O O 5 5 X e Y Z ` N . | |  .c d ... . . } 6 ",
"k +.3 4 4 N O O O O O 5 @.#.$.& 3 3 4 4 4 4 4 4 N N O 5 5 u 4 %.V ~ = 3 3 4 4 4 N O O O O &.*.X Y / 4 =.+ 1 ] -.-.c | . . . . 6 ",
"j & 3 { ;.N >.O O &.&.5 ,.R S '.4 3 4 ] 4 4 4 { N N O O 5 u 4 q 3 3 3 3 4 4 4 N N O O O O &.*.X ).> p !.] ] ] -.c c | . . ..~.L ",
"$ ] {.| | | . . . } } } K ].^.'.= 4 ] ] ] ] {.| N N O O 5 u 3 j 3 3 3 4 4 4 4 O N O O O 5 5 } a /.(.@ _.. ] ] c c c . . . d d e ",
":.| | | | . . . . } } a <.].[.B = 4 ] ] ] ] | | }.O 5 5 P |.4 k 3 4 4 4 4 4 N N N O O 5 5 1.a b 2.3._.+ | | | c c 4.| . . d *.e ",
"5.. . | | . ..6.&.~.7.8.<.].^.9.D 2 ] ] ] { I ..&.0.5 5 a.b.}.+.3 c.4 ;.{ { }.}.}.&.&.1.1.d.a a 2.e.^ f.| | | c d d ~.~.&.*.X g.",
"h.. . . . . d d *.*.*.X X i.^.j.+ ] | | | c c d ~.} } } b k.&.~ 3 3 ] | | | . . . } } } a a b b l.m.% D | . . d d d *.*.*.*.*.g.",
"+ n.} } } } K o.p.p.q.e e i.Y }._.| | | . 6.r.o.~.} a a b k.d.% 4 4 | | | . . . } } } } b b 6 6 s.m.% t.. . } *.d d *.*.X *.X e ",
"c.&.0.} a a 8.u.8.v.w.x.g.i.y...] . | | } } K ~.1.a a a 6 z.A.& 4 N . | . } } } a a a b b b 6 > B.C.% 4 } a a 8.8.X X X X e e g.",
"/ P P a a a a a b b 6 6 D.i.E.6.. . . . } } } a a a b b F.G.H.O N N . | } } } } a a a b 6 6 m.< _ I.N a.a b w.b b b e e e e e g.",
"J.|.K.[ 3.3.3.3.3.F.F.F.L.M.N.8.} } } } a a b a a b b 3.B.O.P.P 5 5 } } } a b b 6 6 6 3.(.H.< < Q.Q.- R.6 S.T.U.U.U.V.W.X.Y.i.^.",
"8 I.I.P.Z.B.`.`. +`.P.B..+++N.@+#+$+%+&+L.).0 L.*+).&+=+F -+;+C.>+R.F.> [ ,+H.P.B.'+'+)+!+~+Q.Q.( ; u s.{+]+^+/+/+/+(+_+:+<+[+}+",
"q M * ] | | |+d d d *.d 1+Q 2+3+R 4+-.-.-.-.-.-.1+5+,.Q Q 6+7+8+K.4 4 O O O U K.>+C.- 9 ; Q.Q.( ( ; < 9+0+/+/+/+/+a+b+c+c+c+d+Y ",
"M V M B e++ f+f+-.-.-.c c Q g+,.1+h+i+-.c c c c c 5+1+Q Q j+k+N 4 N N N O O O O 5 5 5 P K.- |.I.8 u * l+m+/+/+/+/+n+o+p+q+r+s+e ",
"q %.& + + + i+i+-.-.-.c 1+,.6+t+u+v+-.-.c c c c c 5+5+,.Q 3+w+3 N 4 N N N O O O 5 5 5 P x+U / K.I.- y+z+/+/+/+/+/+A+B+C+D+E+F+G+",
"M k * + + 1 i+i+-.-.-.c  .O u 2 ] ]  .-.c c c d d d *.d ,.3+v+= N N N N N O O &.} } } a b b 6 3.Z.< H+I+/+/+/+/+/+/+J+K+L+M+N+O+",
"M +.= D 1 1 u+i+-.-.-.c { O |.1 ] | |+c c c c d d d *.*.P+3+Q+* 4 N N N N O O 0.} } } a b b F.(.R+- S+/+/+/+/+/+/+T+U+V+W+X+Y+Z+",
"k & = = 2 1 1 u+-.-.-.c w+O |.1 ] | I c c c c d d d *.7.Q 3+Q+* 4 ;.| N N O O 0.} } 8.8.w.b /.,+|.- S+/+`+ @/+/+.@+@@@#@$@%@&@*@",
"+.= 3 = 4 4 ] ] H c c c }.5 u c.| | | | | . . . ~.} } 1.P - 3 * N N | =@=@n.n.. } . 8.X q.R m.m.|.-@;@^+>@,@'@/+)@!@~@{@W+]@^@/@",
"% 4 4 4 4 4 ] ] | c c c }.5 u c.| | | . . . . } } } a d.P - N = N N | . . . . } a } 8.q.e $.>+>+(@_@:@<@[@}@|@1@2@3@4@5@W+6@4@7@",
"3 N 3 4 4 4 ] ] | c c c }.5 u c.| | . . . . . ~.} } a a P 8@}.3 N N | . . . } } a a x+e x.9@>+>+0@a@b@c@d@e@f@g@h@i@j@W+W+k@l@m@",
"N O j 2 ] | c c c c c d ..a B.] . } } } } *.*.*.8.a a a b R+;.3 O O O O &.} } } a b b 6 3./.C.>+n@o@p@q@r@s@t@u@v@w@W+x@y@z@A@B@",
"O O j { | I d c c d d *.&.a k.| . } a a } 7.p.*.8.a a b 6   ;.3 N O O O 0.} a a a a 3./.2.F < C@D@E@o@F@o@G@H@I@J@K@L@M@N@O@P@Q@",
"5 O O | . . d d d d *.*.~.a R@. } . a a b a S@v.A.6 a.b 6 Z.&.4 5 5 5 5 5 } a a a b b a w./.T@U@V@W@o@X@Y@Z@`@ #.#+#@###$#%#&#i.",
"5 O *#. . . d d d *.*.*.} b B.=#/ U -#6 6 -#8+8+K.m.m.R./.k.,+8+5 P a a } a a a b b L g.e =+  l.R+;#>#,#'#)#!#~#{#]#^#/#(#_#g.i.",
"P 5 >.. . . 6.d d d X *.8.6 R@I.I.u s.R+l.=#|.C.m.>+- R+k.R@=#K.U b F.3.b b b b b b 6 i.g.^.2.2.:#<#[#}#|#1#2#3#4#5#6#7#8#9#i.^.",
"9 ,+E 0#[.F.Y.Y.Y.Y.Y Y &+Z.a#'+|.u '+k.R@'+b#c#Q.d#Q.e#O.f#I.u - 0 R.E 6 6 6 6 g#> 3.i.Y.[.(.  h#i#j#k#l#m#n#= o#p#q#r#s#{ Y }+",
"G.l.| c c c c c d d d d *.R 2+t#k u#v#w#x#y#z#*.i.^.=+A#; B#9 9 C#I.u - ,+/.2.T@< - |.D#|.9 : ( ( E#j#F#G#H#I#J#K#L#M#N#O#P#i.j+",
"2.. G -.-.-.-.-.c -.c c c ,.j+* % Q#R#R#R#R#y#R#R#S#T#U#` 8 u m.K.8+8+8+> 6 6 > / 8+8+8+K.C.|.; 8 V#j#W#X#Y#Z#`# $.$+$@$#$$$d *.",
"&.1 ] -.-.-.c c c -.c c 5+,.j+l ~ ~ y#y#y#%$9.&$f+-.J }.5 I.O * * * = *$f.+ _.D 3 2 4 N T =$5 A.; -$j#;$>$,$'$)$!$~${$]$^$/$($X ",
"} + ] -.-.-.-.-.c c c d 6.5 |.3 4 4 c.] | | | . . . . 6.,.g+=$O N | | . . . . . } } 7.X X X g.g._$:$<$;$[$}$|$1$|$|$2$3$4$/$($X ",
"/.1 ] -.-.c c c c d d d &.5 9 3 4 4 ] ] | | | . . . } 6.,.g+=$O O >.. . . . } } } } 7.X e e e g.5$6$7$8$9$0$a$b$b$b$c$d$e$f$d X ",
"A.+ ]  .-.c c c c d d d &.P I.3 4 4 4 ] | | | . . . ~.6.Q g$h$4 O O . . . . } } } } } X e e e g.i$j$k$l$m$n$o$p$p$q$r$s$4 d d X ",
"m.4 4 | | | ......d d *.1.P I.3 4 4 { | | | | . ..d *.@.P I._.] . . d d 6.. } } } a a a a t$t$u$R+v$w$x$y$z$A$B$C$D$E$F$G$*.*.e ",
">+4 N | . | . . . 6.*.*.k+P _ = N 4 ;.| | | | . ~.*.*.7./ : D 1 . ..d d K . } } a a a a b b 6 F.R+F.H$I$J$K$L$M$N$O$P$Q$R$*.*.X ",
"< O *#. . . . . . *.*.*.1.U _ = 4 N N | . . &.. ~.*.X <./ I.b . . 6.*.*.*.} b a a a a b b b 3.(.R+S$T$U$V$W$X$Y$Z$`$ %.%+%*.X X ",
"< 5 5 5 5 5 } } } } } a a b z.1 ] | . . . 6.*.*.*.X e w.6 B.b } a 8.X X X } a b b b b 6 6 t$Y.Y _$- @%#%$%%%%%%%&%*%=%*.*.X *.e ",
"- U P 5 5 5 } } a a } b b b R@a | . } } } 7.X *.X e e w.6 R@b } a <.X X v.b 6 b b b b 6 6 u$Y E.6+|.-%;%>%,%%%%%'%)%!%*.X X X v.",
"_ 8+P P 5 P } } a a a b b 6 z.Z.} . } } } 8.X X X e e A.(.~%3.b b w.v.e L 6 (././././.3.3.u$Y E.}+I.{%%%]%^%/%(%_%:%<%*.X X X [%",
"}%< U m.U / a a } a b b / C._ I.8+5 1.} } } a b |%6 t$2.; I.>+< - - - T@< s.P.P.1%u u C.e.e.%+2%B.: {%%%%%3%4%5%{ 6%7%X X e e [%",
"J.9 < C.>+>+F.F.F.3./.  - ; _ : < 8+A.b a b b 6 6 F.l.~+( Q.|.- |.|.|.|.|.|.u u u u u 9 9 - 2.l.z._ 8%%%9%0%3%a%b%4 X e e X e g.",
": / A.U U / b b 6 g#F.R+'+; ; |.C.C.l.l.F l.l.s.  Z.Z.P.;+c%; < C.F < < < < < F >+d%>+C.=#H.Z.;+c#_ - 0 Y Y e%e%f%g%Y Y ^.y.E.5$",
"*$| } <.7.d h%d d *.*.~./ |._ x+| | I 4.d d d *.X <.v.e e E.$+a b x+<.X X e e e e L L e D.i.^.++i%1+t+v+j%k%e%l%m%d *.*.*.X X g.",
"s 1 G i+-.c c *.c -.*.*.n%>+I.| | } K *.d d *.*.X X *.X e Y ).a b w.X X X *.X e e X X e e e c ^.o%1+,.5+d p%e%q%r%*.*.*.X X X s%",
"# ] 1 i+i+-.-.-.c d c d k+/ 9 | | . 6.d *.*.*.*.X X *.e e E.&+b b L e e X *.X X X X X e e e t%g.u%h+5+5+d v%e%w%x%y%*.X X X e e ",
"~ 4 3 -.-.-.-.-.-.c c X a 6 Z.}.| } 7.*.*.*.*.*.X X X e e E.=+b b b x+F.a a a 8.X X X e e L Q+z%: ] . . d d A%A%B%C%*.*.e X X e ",
"= 4 3 -.-.-.c c -.c c e w.D%Z.| . } 7.*.*.X X X X X X e e E.E%6 3.u$6 2.a b a 8.X X X e e L 8+m.: 1 . ..d d d d d *.*.*.e X e g.",
"j 4 4 -.-.-.c c c c c X w.3.B.. . } 7.*.*.*.X X X X X e e F%$+6 F.F.R+Z.(.b a 8.X X X e g.D.8+m.G%1 . ..d d d *.*.*.X X X e e i.",
"H%{ ] ] { I |+c c d c e t$F.B.. } a 7.*.X X X X X e e g.g.F%F%i.I%F%q.*.^.b b w.e e e e g.g.i.I%.+2 . 6.*.*.*.*.*.X X e e e e g.",
"$ 1 ] ] ] | c c c d d g.g#F.B.. } a 7.*.X X X X X e e i.g.5$5$i.y.e X X 8.3.b w.e e e e g.i.J%Y .+1 . &.*.*.*.*.*.X X e g.g.g.Y.",
"$ 1 | | | | c c d d d g.u$(.k.} } a <.X X e e e e e g.i.i._$5$y.^.X X e 8.3.b w.e g.g.g.i.i.^.K%N.1 } ~.*.X X X X X e e i.g.g.i.",
"# ] | . . . d d d *.*.g.9@(.R@} } a <.e e e e e e g.g.$.[ A#L%u%F%e e X X i.e L A.g#g#g#u$0#m.M%I.4 d.1.a a a 8.w.w.t$6 u$i.i.Y.",
"+ . } . . . d d d *.*.Y.[ (.G.b b 6 L e g.g.g.i.i.i.i.9@C.Q.N%N.F%^.i.i.Y.Y.Y.O%F.E (.(.(.d%< |._ N P d.a b a a b 6 6 6 I ^.^.y.",
"b ] | . . } 6.*.*.P%P%i.u$l.O.    l.&+Y y.y.y.y.E.F%F%i$_ 8 Q%R%f+^.y.S%y.K%Y &+/.F l.Z.B.1%9 _ Q.: |.K.(.(././././././.T%^.Y ^.",
";+U%T%,+0 [ g#n%k+5 5 M%G%~+V%1%A.>.}.d d d d c d d d ,.k+W%X%n%w+|+..} } 5 @.@.8.7.[ T%d%d%Y%m Z%I.+.~ % B B % % % % B B R#R#y#",
"9 5 O O N O 5 P 5 5 5 U / C.B#5 O 5 7.*.*.*.d *.*.*.X Q `%3+X%P O >.. } } 5 5 1.X X x+m.m.m. & &.&U V 4 N N N N N N O N N 5+5+,.",
"5 5 N O O O O 5 5 5 5 P P U |.5 5 5 6.d d d *.*.*.*.*.*.Q +&D#4 O . . . . 5 P k+*.X 8./ m.@& & &#&N V 4 N N N N N O O O O ,.,.`%",
"2 . . . . . . &.} 7.7.X e e 5$x+a 0.. ..~.~.~.~.~.7.u.Q Q +&U%:.| . . . . . 0.} ~.8.<.$.Y. & & &W%4 V N N N N | | | . . . @.5 P ",
". . . . . . . . } 7.*.X e e 5$D., } | . } } } } } } a <.$&+&E%:.| | . . . . } } } a x+q.Y.Y. & &3+4 p 4 N N N | | | . . . 5 P P ",
"} . . . . } } } } u.e e g.g.5$t$e+} . } } } } } } } } L %&&&T%@ | . . . . . } } } a a q.i.^.S *&3+4 p N N N N | | | . . } O P P ",
"a a . } } . ~.7.7.X X e e i.}+n%D 1.} } } } } } } u.8.e e Y $+] . . . . . 6.7.7.u.8.<.e i.Y.S S W%4 p N N N N >.>.>.. . } @.7.x+",
"} a . } } . K *.*.X X e g.i.}+n%5 5 } } } } } } 1.X X v.[%E.%+] . . . . . d *.*.X X <.e i.Y.S S W%4 p N N N N O O O . . } *.*.`%"};
