/* XPM */
static char * up_0_xpm[] = {
"64 64 626 2",
"  	c #505052",
". 	c #6C6C6C",
"+ 	c #646464",
"@ 	c #5E5E5E",
"# 	c #5D5D5D",
"$ 	c #5C5C5C",
"% 	c #5B5B5B",
"& 	c #5A5A5A",
"* 	c #5A5A5C",
"= 	c #555557",
"- 	c #5C5C5E",
"; 	c #5F5F5F",
"> 	c #595959",
", 	c #4E4E4E",
"' 	c #6B6B6B",
") 	c #6D6D6D",
"! 	c #636363",
"~ 	c #595A5C",
"{ 	c #58595B",
"] 	c #535456",
"^ 	c #5D5E5D",
"/ 	c #5C5E5D",
"( 	c #5D5E60",
"_ 	c #5C5D5F",
": 	c #5C5D5E",
"< 	c #5B5D5D",
"[ 	c #5B5D5C",
"} 	c #515153",
"| 	c #616161",
"1 	c #5B5A5D",
"2 	c #5B5B5D",
"3 	c #626262",
"4 	c #606060",
"5 	c #5B5C5C",
"6 	c #5A5B5D",
"7 	c #575757",
"8 	c #686868",
"9 	c #5F6160",
"0 	c #5E605F",
"a 	c #5D5F5E",
"b 	c #525253",
"c 	c #5F6060",
"d 	c #5E5F5F",
"e 	c #5D5E5E",
"f 	c #5C5D5D",
"g 	c #5C5D5C",
"h 	c #5B5C5B",
"i 	c #5A5B5B",
"j 	c #545456",
"k 	c #656566",
"l 	c #676767",
"m 	c #5A5B5C",
"n 	c #595A5B",
"o 	c #535555",
"p 	c #565857",
"q 	c #6A6B6A",
"r 	c #626463",
"s 	c #5A5C5C",
"t 	c #535353",
"u 	c #646665",
"v 	c #5C5F5E",
"w 	c #5A5C5B",
"x 	c #656666",
"y 	c #656565",
"z 	c #595B5A",
"A 	c #535554",
"B 	c #545655",
"C 	c #616362",
"D 	c #606261",
"E 	c #5B5C5E",
"F 	c #545454",
"G 	c #4F4F4F",
"H 	c #585A59",
"I 	c #555756",
"J 	c #5F6260",
"K 	c #5B5C5D",
"L 	c #5A5C5D",
"M 	c #595B5B",
"N 	c #636464",
"O 	c #5C5E5E",
"P 	c #595A59",
"Q 	c #4E4F4E",
"R 	c #5F605F",
"S 	c #5E5F5E",
"T 	c #5A5B5A",
"U 	c #525453",
"V 	c #555656",
"W 	c #626362",
"X 	c #555555",
"Y 	c #545556",
"Z 	c #57585A",
"` 	c #5F6161",
" .	c #4B4D4C",
"..	c #515352",
"+.	c #555655",
"@.	c #5D605F",
"#.	c #5A5D5C",
"$.	c #595A5D",
"%.	c #58595C",
"&.	c #565759",
"*.	c #5B5C5F",
"=.	c #5A5B5E",
"-.	c #5A5C5A",
";.	c #575958",
">.	c #505251",
",.	c #565656",
"'.	c #585A5B",
").	c #58595A",
"!.	c #57595A",
"~.	c #494B4A",
"{.	c #575857",
"].	c #4D4F4E",
"^.	c #505050",
"/.	c #545557",
"(.	c #484A49",
"_.	c #515251",
":.	c #575858",
"<.	c #525252",
"[.	c #4B4B4B",
"}.	c #4C4C4C",
"|.	c #595A5A",
"1.	c #484848",
"2.	c #454545",
"3.	c #4D4E50",
"4.	c #4F5052",
"5.	c #474948",
"6.	c #4F5150",
"7.	c #494949",
"8.	c #555658",
"9.	c #464646",
"0.	c #4A4A4A",
"a.	c #4D4D4D",
"b.	c #4E504F",
"c.	c #4D4F4F",
"d.	c #4E4F50",
"e.	c #4C4E50",
"f.	c #4A4B4D",
"g.	c #4C4D4F",
"h.	c #4D4E4E",
"i.	c #4F5050",
"j.	c #515353",
"k.	c #525354",
"l.	c #535455",
"m.	c #545555",
"n.	c #545656",
"o.	c #525454",
"p.	c #525353",
"q.	c #474849",
"r.	c #4C4D4D",
"s.	c #565757",
"t.	c #545554",
"u.	c #4E4F4F",
"v.	c #4C4D4C",
"w.	c #4A4B4B",
"x.	c #4A4B4A",
"y.	c #505151",
"z.	c #525355",
"A.	c #505153",
"B.	c #515151",
"C.	c #666666",
"D.	c #5D5D5F",
"E.	c #565658",
"F.	c #4B4B4D",
"G.	c #535355",
"H.	c #5F5E60",
"I.	c #4C4C4E",
"J.	c #4D4D4E",
"K.	c #6A6A6A",
"L.	c #5F6062",
"M.	c #575759",
"N.	c #4F4F51",
"O.	c #5F5F61",
"P.	c #5E5F61",
"Q.	c #5C5C5D",
"R.	c #474747",
"S.	c #585859",
"T.	c #626263",
"U.	c #5E5E60",
"V.	c #5F5F60",
"W.	c #585858",
"X.	c #5D5F5F",
"Y.	c #5D5E5F",
"Z.	c #616060",
"`.	c #5E6060",
" +	c #606161",
".+	c #616162",
"++	c #4F504F",
"@+	c #5E5F60",
"#+	c #5D5D5E",
"$+	c #5E5E5F",
"%+	c #585A5A",
"&+	c #505150",
"*+	c #5B5E5D",
"=+	c #58585A",
"-+	c #565758",
";+	c #595B59",
">+	c #4C4E4D",
",+	c #585A5C",
"'+	c #585959",
")+	c #585A58",
"!+	c #525352",
"~+	c #585958",
"{+	c #565756",
"]+	c #5B5B5C",
"^+	c #4A4C4B",
"/+	c #515252",
"(+	c #575959",
"_+	c #464847",
":+	c #4B4C4B",
"<+	c #4B4C4C",
"[+	c #49494A",
"}+	c #494A4A",
"|+	c #484948",
"1+	c #444645",
"2+	c #555657",
"3+	c #565659",
"4+	c #4A4B4C",
"5+	c #666768",
"6+	c #656667",
"7+	c #646566",
"8+	c #616264",
"9+	c #515254",
"0+	c #4F5051",
"a+	c #4E4D4D",
"b+	c #4D4E4D",
"c+	c #535453",
"d+	c #515152",
"e+	c #474848",
"f+	c #555556",
"g+	c #636362",
"h+	c #626365",
"i+	c #646567",
"j+	c #656668",
"k+	c #626065",
"l+	c #524D58",
"m+	c #443E4C",
"n+	c #4A4451",
"o+	c #4F4C53",
"p+	c #545354",
"q+	c #6E6E6E",
"r+	c #666769",
"s+	c #606163",
"t+	c #636466",
"u+	c #626364",
"v+	c #59585E",
"w+	c #4C4564",
"x+	c #433B76",
"y+	c #3E3B86",
"z+	c #423C7B",
"A+	c #483E67",
"B+	c #565260",
"C+	c #5E5D5F",
"D+	c #616261",
"E+	c #555454",
"F+	c #696969",
"G+	c #56555B",
"H+	c #403878",
"I+	c #3F3E8B",
"J+	c #3F4192",
"K+	c #3F4191",
"L+	c #3E3982",
"M+	c #453E6F",
"N+	c #4B4564",
"O+	c #3F3F8D",
"P+	c #3F4090",
"Q+	c #463C5F",
"R+	c #575656",
"S+	c #646363",
"T+	c #4B4465",
"U+	c #403B80",
"V+	c #57575C",
"W+	c #505152",
"X+	c #5A5A5B",
"Y+	c #57565D",
"Z+	c #3F3980",
"`+	c #484062",
" @	c #565858",
".@	c #443961",
"+@	c #3F3F8F",
"@@	c #403264",
"#@	c #56545B",
"$@	c #3F3C84",
"%@	c #3F408F",
"&@	c #3E3981",
"*@	c #3C265E",
"=@	c #3F3D89",
"-@	c #3E3D8A",
";@	c #403672",
">@	c #57575B",
",@	c #5C5E5C",
"'@	c #55535D",
")@	c #3F3C87",
"!@	c #3D2D6B",
"~@	c #3C2155",
"{@	c #3E3376",
"]@	c #3D2C69",
"^@	c #3C2358",
"/@	c #3C2156",
"(@	c #3C265F",
"_@	c #3F3E8C",
":@	c #3C2861",
"<@	c #3F3D88",
"[@	c #504C5B",
"}@	c #4E5051",
"|@	c #54525B",
"1@	c #3E3C87",
"2@	c #3C245A",
"3@	c #3C2054",
"4@	c #3C2256",
"5@	c #3D2B67",
"6@	c #4F4B59",
"7@	c #4E4F51",
"8@	c #544A66",
"9@	c #4F4263",
"0@	c #3F3C88",
"a@	c #3D3072",
"b@	c #3E3A83",
"c@	c #4E4A59",
"d@	c #545756",
"e@	c #414141",
"f@	c #444444",
"g@	c #4C2572",
"h@	c #4C2372",
"i@	c #453685",
"j@	c #3E3C88",
"k@	c #3C2154",
"l@	c #43357A",
"m@	c #6F4459",
"n@	c #714C55",
"o@	c #524F4F",
"p@	c #505252",
"q@	c #434343",
"r@	c #534567",
"s@	c #432669",
"t@	c #3E215A",
"u@	c #48236A",
"v@	c #3F215B",
"w@	c #3E2155",
"x@	c #994765",
"y@	c #DE8B8E",
"z@	c #E2A7A1",
"A@	c #9A5665",
"B@	c #504F4F",
"C@	c #575657",
"D@	c #4E3E64",
"E@	c #4C2571",
"F@	c #432262",
"G@	c #3F215A",
"H@	c #4A226F",
"I@	c #4C2371",
"J@	c #3F2255",
"K@	c #B1566E",
"L@	c #F1ADA5",
"M@	c #F8D3C2",
"N@	c #AF6773",
"O@	c #545252",
"P@	c #5B5D5E",
"Q@	c #5B5B5F",
"R@	c #4F406E",
"S@	c #4C2472",
"T@	c #4B2371",
"U@	c #423475",
"V@	c #422261",
"W@	c #422556",
"X@	c #D98387",
"Y@	c #EE9191",
"Z@	c #E9A49F",
"`@	c #9B636E",
" #	c #575859",
".#	c #464749",
"+#	c #606062",
"@#	c #5D5E61",
"##	c #656766",
"$#	c #52546A",
"%#	c #4C3672",
"&#	c #403677",
"*#	c #24346B",
"=#	c #321C59",
"-#	c #3D2255",
";#	c #8A5269",
">#	c #EB8F90",
",#	c #A85C6C",
"'#	c #5A585B",
")#	c #48494B",
"!#	c #585561",
"~#	c #4C2E72",
"{#	c #3E3676",
"]#	c #21366C",
"^#	c #36306A",
"/#	c #2A185C",
"(#	c #3C2459",
"_#	c #40356B",
":#	c #444079",
"<#	c #3F2C60",
"[#	c #3E235C",
"}#	c #483387",
"|#	c #514267",
"1#	c #B56B78",
"2#	c #D0787F",
"3#	c #7A5760",
"4#	c #626363",
"5#	c #50376D",
"6#	c #4F3B6D",
"7#	c #5C4C6D",
"8#	c #45336B",
"9#	c #6668B4",
"0#	c #3F2C7F",
"a#	c #4C5392",
"b#	c #6676B7",
"c#	c #5C6EB2",
"d#	c #494D8A",
"e#	c #5262A5",
"f#	c #4B4E8C",
"g#	c #6B6BC0",
"h#	c #8F90A1",
"i#	c #9A6F99",
"j#	c #765E73",
"k#	c #4C4C4D",
"l#	c #575A5A",
"m#	c #59585F",
"n#	c #735660",
"o#	c #955265",
"p#	c #656591",
"q#	c #5347BD",
"r#	c #5B6AB1",
"s#	c #5E70B4",
"t#	c #5F71B4",
"u#	c #566AB1",
"v#	c #6173B5",
"w#	c #6F80BC",
"x#	c #6273B7",
"y#	c #5546BE",
"z#	c #6A6C84",
"A#	c #8C8F9B",
"B#	c #626B8E",
"C#	c #5C5A5C",
"D#	c #A2596A",
"E#	c #765C64",
"F#	c #7781BC",
"G#	c #5760B6",
"H#	c #7787C0",
"I#	c #576BB1",
"J#	c #5468B0",
"K#	c #5367B0",
"L#	c #5C6FB3",
"M#	c #7F8EC4",
"N#	c #6768C1",
"O#	c #7680AF",
"P#	c #646D96",
"Q#	c #5A5C5F",
"R#	c #646564",
"S#	c #5C5E5F",
"T#	c #67595E",
"U#	c #D0767F",
"V#	c #766567",
"W#	c #7680BB",
"X#	c #5860B6",
"Y#	c #6D7DBA",
"Z#	c #5568B0",
"`#	c #6D6DC4",
" $	c #7580AE",
".$	c #636564",
"+$	c #9C5667",
"@$	c #C37E81",
"#$	c #7780BB",
"$$	c #5861B6",
"%$	c #6D7EBB",
"&$	c #5569B0",
"*$	c #6C6DC4",
"=$	c #757FAE",
"-$	c #56585A",
";$	c #555759",
">$	c #535457",
",$	c #6A585D",
"'$	c #A35A6C",
")$	c #7D7FBD",
"!$	c #5761B6",
"~$	c #7D8CC2",
"{$	c #5D6FB4",
"]$	c #6F79AF",
"^$	c #4F4F5D",
"/$	c #525356",
"($	c #4C4D4E",
"_$	c #666F94",
":$	c #5D5CBD",
"<$	c #7182BD",
"[$	c #7181BC",
"}$	c #6678B7",
"|$	c #7787BF",
"1$	c #7F8DC5",
"2$	c #6B6EC2",
"3$	c #4E5186",
"4$	c #2B2661",
"5$	c #495766",
"6$	c #585759",
"7$	c #905061",
"8$	c #7E67B5",
"9$	c #5559B9",
"0$	c #5D65BA",
"a$	c #6E7DBC",
"b$	c #6F7EBC",
"c$	c #6F7DBE",
"d$	c #7074C3",
"e$	c #8969AB",
"f$	c #372462",
"g$	c #1E3F72",
"h$	c #456897",
"i$	c #4A5869",
"j$	c #565859",
"k$	c #595B5D",
"l$	c #545657",
"m$	c #684D50",
"n$	c #B92B36",
"o$	c #B83D55",
"p$	c #9573A7",
"q$	c #896EAF",
"r$	c #635FC1",
"s$	c #625FC1",
"t$	c #625EC1",
"u$	c #6E63BC",
"v$	c #9771A5",
"w$	c #B93247",
"x$	c #673564",
"y$	c #486B9A",
"z$	c #446A99",
"A$	c #31608D",
"B$	c #5D647B",
"C$	c #4F5251",
"D$	c #8B4B4F",
"E$	c #BE2633",
"F$	c #BE2632",
"G$	c #BF202A",
"H$	c #BB3547",
"I$	c #B25470",
"J$	c #B25471",
"K$	c #B54D68",
"L$	c #BE1E2A",
"M$	c #C43B43",
"N$	c #B4617C",
"O$	c #496C9A",
"P$	c #316290",
"Q$	c #7789BD",
"R$	c #7A87B5",
"S$	c #535454",
"T$	c #4E4E4F",
"U$	c #4A4A4B",
"V$	c #636465",
"W$	c #8C4C50",
"X$	c #C23740",
"Y$	c #C33B43",
"Z$	c #BE2834",
"`$	c #BD2331",
" %	c #BE2734",
".%	c #CF6164",
"+%	c #C66A6F",
"@%	c #B36A7C",
"#%	c #6D74A1",
"$%	c #7586B7",
"%%	c #7E8CBE",
"&%	c #7783AF",
"*%	c #545455",
"=%	c #4A4A4C",
"-%	c #7A5256",
";%	c #A04348",
">%	c #BF7374",
",%	c #EA8E8E",
"'%	c #EA8D8E",
")%	c #D5696C",
"!%	c #D06064",
"~%	c #A64449",
"{%	c #C56F75",
"]%	c #964959",
"^%	c #7A2C49",
"/%	c #8F2A43",
"(%	c #72595E",
"_%	c #5D5E63",
":%	c #5C5E62",
"<%	c #505051",
"[%	c #59595B",
"}%	c #5E595C",
"|%	c #904657",
"1%	c #9E5260",
"2%	c #D78184",
"3%	c #A87273",
"4%	c #7E2D47",
"5%	c #A4263C",
"6%	c #A3273D",
"7%	c #922A42",
"8%	c #705758",
"9%	c #5B5859",
"0%	c #732F49",
"a%	c #752847",
"b%	c #752747",
"c%	c #702244",
"d%	c #6B4653",
"e%	c #7C3749",
"f%	c #9F273E",
"g%	c #9D273E",
"h%	c #8C3446",
"i%	c #6D5858",
"j%	c #684651",
"k%	c #6E4854",
"l%	c #5F595B",
"m%	c #6A4752",
"n%	c #694852",
"o%	c #5C5C5B",
"p%	c #565558",
"q%	c #606160",
"r%	c #5B5659",
"s%	c #742C48",
"t%	c #742D49",
"u%	c #5D5A5B",
"v%	c #59595A",
"w%	c #742B48",
"x%	c #5E5A5A",
"y%	c #525254",
"z%	c #4B4C4E",
"A%	c #634D55",
"B%	c #752947",
"C%	c #742E49",
"D%	c #595B5C",
"E%	c #624E55",
"F%	c #6A414F",
"G%	c #683C4C",
"H%	c #693F4D",
"I%	c #665056",
"  . + @ # # $ $ $ % & & & * = - @ ; ; ; ; @ @ @ @ # # $ & > , ; ' ) ' ! ; ; @ @ # # # $ $ % % ~ { ] > # ^ / / / ( _ : < [ [ [ [ ",
"} ' | @ @ @ # $ $ $ $ % % 1 = 2 3 @ ; @ @ @ @ @ @ # # $ % % , | ' ' ! 4 ; ; @ @ @ # $ $ $ $ 5 6 ~ ] 7 ; 8 9 0 a ( ( _ / [ [ [ [ ",
"b 8 c d e ^ f g 5 g 5 h i 6 j 2 k @ ; @ a e e e e # # $ $ % , | l ; ; ; @ @ @ @ # # $ $ $ $ 5 m n o p q r a a a ( _ _ / [ [ < s ",
"t u / v / / / [ [ [ w w w 6 ] ~ x ; @ a a a a v / # # $ $ & , 3 y ; ; ; @ @ @ # $ # $ $ $ % % w z A B C D [ a a _ _ _ [ [ [ E E ",
"F u / / / / [ [ [ [ w w z ~ ] ~ + ; @ a a a a / / g $ % % > G | y ; @ @ @ @ @ # # # $ $ % % i z H A I C J / / / _ _ E / f [ E 6 ",
"F D / / / / [ K K L m M n ~ ] { N d d a a / O O < 5 h w i P Q R + ; S e ^ ^ ^ f g g 5 h i i T z z U V W D / / / E E E s s L 6 ~ ",
"X 0 [ [ [ [ < E E 6 6 ~ ~ ~ Y Z ` 0 a / / / _ _ E s w w w H  .d ! ; d a / / / [ [ [ w w w z z H H ..X ! 4 / [ [ E E E 6 6 6 6 6 ",
"+.@.#.w w w s 6 6 $.$.%.{ Z ] &.O 9 / / / [ E *.=.s -.z z ;. .^ 3 @ @ / / / [ [ [ w w w w H H ;.;.>.X ! R [ [ w 6 2 E 6 6 ~ ~ ~ ",
",./ 5 w w z z M M M '.).!.Z ] &.[ a [ / / w s L s i z z z ;.~.h | @ f [ / [ w w w z z z H H H ;.{.].t ! S w z z M M n ~ ~ ~ { { ",
"^.> & & z z z z H H H ;.;.Z ] /.5 [ [ [ [ w w w z z z H H B (._.$ # f [ / w w w w z z z H ;.:.X <.[.}.$ |.z H H H H H { { { { { ",
"1.2.t ,.I p p p p I I I I ] 3.4.w w w w w z H H z z H H p  .5.^.& % % w w w H H H ;.;.;.p A 6.<.<.7.7.^.X ;.p p I p I 8.8.8.8.&.",
"9.0.a., b.b.].c.d.d.c.d.].e.f.g.h.i.j.k.l.m.o Y Y n.m.l.o.p.q.r.t F V I {.s.t.i.u.h.r.r.v.w.x.7.1.1.0.G y.>...j.p.U U z.] ] z.A.",
"B.) C.| a / / _ E E E 6 _ D.E.F.G.* H.( ( ( ( ( ( D.- 2 * * I.J.7 7 @ # $ $ $ > ,.F t B., 0.7.7.1.1.0.t F B I p &.&.&.&.{ { &.&.",
"F K.. y C D ` L.L.( ( _ _ D.M.N.- D.O.P.( _ _ _ _ _ - - * * N.Q.# @ # # # $ $ $ $ % % % & ,.B.^.a.R.G | l r 9 / ( P.6 E E 6 6 6 ",
",.K.8 | 9 9 c P.P.( ( ( _ D.S.  T.U.U.( ( _ _ _ _ - - - 2 * N.V.@ @ @ # # # $ $ $ % % % & |.> W.,.a.B.l | e X.Y._ E E E E 6 6 6 ",
",.' y Z.9 9 `.P.( ( ( _ _ e > ^. +a a ( ( _ _ _ E E E 6 E 2   .+; # # # # # $ $ 5 w w w z H H ;.p ++B.C.S ( ( ( _ _ _ E E E 6 6 ",
",.K.3 4 0 0 0 @+( ( ( _ _ #+> B.D / / _ _ _ _ _ E E E 6 6 2   .+4 @ # # # # $ $ h w w w z H H I B 6.B.y $+( _ _ _ _ E E E 6 6 ~ ",
",.8 4 4 R 0 0 @+( ( ( _ _ #+> B.D / / O _ _ _ _ E E E 6 * *   .+4 @ ^ # # # $ $ w w w M M %+H A t.&+^.y $+( _ _ _ _ E E E 6 6 6 ",
",.y ; ; ; @ @ a a X._ _ _ Q.W.^.9 / / / / / [ [ < s w w % & ^.| 4 # # / *+*+#.[ #.w [ M ~ %.=+X X B.^.+ #+( _ _ ( E E E E 6 6 6 ",
",.3 ; @ @ @ @ a a / _ _ _ f W.^.9 / / [ [ [ [ [ w w w z T & ^.4 ; # / / [ [ [ [ w z w M %.{ M.F F B.^.! #+_ _ E E E E 6 6 6 ~ ~ ",
"X ; # ; @ @ @ a e / _ _ _ f W.^.9 / [ [ [ [ [ [ w w w z & & u.; @ # f / [ [ [ w w z z |.{ !.-+F F ^.^.! #+_ E E E E E 6 6 6 ~ ~ ",
"X # ; + d a O _ _ _ _ E E [ ;.b.0 w w w w w 6 6 6 M z z z H b.R @ $ $ $ $ 5 w w w z H H ;.p A t F ^.G ! f E E E E E 6 ~ ~ ~ ~ { ",
"F # 3 3 e / O E _ _ E E 6 5 ;.].a w w z w w 6 6 6 M z ;+H H 6.R @ # $ $ $ h w z z z z p A ..p.<.t ^., | 5 6 6 6 6 6 ~ 6 ~ { { { ",
"t $ $ $ / [ < E E E E 6 6 s ;.>+/ #.w z z H M ,+'.'+)+P H ;.].e # % % % % % w z z z H H z H A !+p.^.a.3 i 6 6 6 6 6 ~ { { { { { ",
"t # % $ [ [ < E E E 6 6 6 i p  .F > > ~+;.H '+W.7 ,.+.,.I B >+{+> % T z z w z z z H H ).Z { k.>...&+a.3 ]+~ ~ ~ ~ ~ ~ { { { Z Z ",
"B.% $ g [ [ [ E E E 6 ~ 6 M p ^+a., B._.>.U !+B.F X F B.6.]. ./+,.> H I ;.H H H H H H (+&.Z Y U U ].7.; |.~ { ~ { { { { { Z Z &.",
"h.B.V {+s.s.I &.&.&.8.] /.o ]._+a., }.:+^+^+<+[+7.7.}+7.|+_+1+, ^.<.+.V I ;.;.;.;.;.;.p &.8.2+B .._+7.a.F /./././././.8.&.3+8./.",
"0.~.I f _ _ _ *.E 6 6 6 E n E.4+y C.C.5+6+7+8+P.Z ] 9+0+}.0.2., , a+b+^.B.m.B A c+t <.B.d+<.^.a.1.e+7.a.<.f+W.S.Z Z Z 8./.] ] ] ",
", U a S ( ( ( ( ( _ _ _ _ _ * } 3 ! g+h+8+8+8+h+8+8+i+j+k+l+m+n+o+p+X X ,.V I I V 7 ,.,.,.X B., 7.R.B.) q+) . ' r+i+8+s+P.( ( E ",
"G 0 0 a ( ( ( _ _ _ ( _ _ - * } T.+ y i+i+t+h+u+8+s+v+w+x+y+y+y+z+A+B+C+3 D+D D c c ; @ # @ # % W.7.E+. F+! ; V.( _ E _ _ _ E E ",
"G 0 9 O ( ( ( ( _ _ _ E E 2 & ^.4 @ @ a e / / / [ G+H+I+J+K+K+K+K+J+L+M+%.[ [ [ [ w w m ~ ~ ~ Z Z N.X ' ; a a a a a / / f a E E ",
", p 0 e ( ( _ _ _ _ E E E $ > G ; @ @ a a / / / s N+O+K+K+K+K+K+K+K+K+P+Q+5 [ w w w w m ~ ~ { { Z 4.R+S+d a a a a / / a / / E E ",
"++/ 0 e ( ( _ _ _ _ E E E 5 > , ; @ @ a a / / s T+I+K+K+K+K+K+K+K+K+K+K+U+V+[ w w w w m ~ { { { Z W+,.+ d a a a / / / / [ [ E E ",
", P d @ / O O < < < E 6 6 X+> , 4 @ @ ^ / / / Y+Z+K+K+K+K+K+K+K+K+K+K+K+O+`+5 w w w z z z |.(+(+ @6.V W a a / / : _ *.E E E 6 6 ",
"}.7 @ # / / / [ [ [ E 6 6 X+W.[.4 # @ ^ / / < .@P+K+K+K+K+K+K++@K+K+K+K+K+@@5 w w w z z z H H ;.I 6.B D a a / / _ E E E E 6 6 6 ",
"0.X # % [ [ [ [ [ [ 6 6 6 i W.0.3 # # / / [ #@$@K+K+%@L+P+K+&@*@=@%@P+-@K+;@>@z z z z z H H H p B 6.U 9 / / ,@/ E E E E 6 6 6 $.",
"0.F $ % h h h w w w w w M z ;.~.C a g f [ [ '@)@K+K+!@~@{@]@^@/@(@!@_@:@<@_@[@z z H H H ;.;.(+8./.}@B.| f E E E _ E E E 6 6 6 6 ",
"7.<.% & % % % w w z w z H H ;.(.a / [ w w [ |@)@K+1@2@~@3@~@~@~@~@~@]@4@5@I+6@;.H H H H ;.;. @] z.7@G 3 $ E E E 6 E E ~ 6 ~ ~ ~ ",
"2.G & & % & & w w z z H H ;.I ~.U [ [ w m 8@9@0@K+a@~@~@~@~@~@~@~@~@~@~@4@b@c@I I I d@d@p p  @] 9+d.a.| 5 E E E 6 6 6 6 6 ~ ~ ~ ",
"e@f@W.W.7 > & z w z z H H ~+/+[.h.P i w ~ g@h@i@j@^@~@~@k@~@~@~@~@~@~@~@/@l@m@n@o@u.G G t.s.s.o.p@c.a.@ i E 6 6 6 6 ~ ~ ~ ~ { { ",
"q@2.t F X F 7 H ;.;.;.A U ^.[.[.}.,.~+H '+r@h@h@s@~@~@t@u@v@~@~@~@~@~@~@w@x@y@z@A@B@G G , ^.t U .. .[.,.]+~ 6 6 6 6 ~ ~ { Z { { ",
"f@G ,.,.7 7 C@;.p I I U >+[.0.0.G B./+>.>...D@E@h@F@G@H@I@F@~@~@~@~@~@~@J@K@L@M@N@O@<.<.B.G u.b.>+(.7., p.z.z.z.z.z.z.z.z.z.9+A.",
"9.9 [ |.M m K P@K K L L s X , }.5 ^ e O : E Q@R@S@I@T@U@V@~@~@~@~@~@~@~@W@X@Y@Z@`@X+).).{  #-+] 4+.#]++#O.@#( ( _ _ _ E E E ~ { ",
"++##0 d ( _ E E E _ E 6 6 W.B.^./ / w 6 K E E $#%#h@&#*#=#~@~@3@~@~@~@k@-#;#>#,#'#{ ~ ~ { { { 6 ] )#2 * - _ _ E E E 6 6 6 ~ ~ ~ ",
"c+r 0 0 P.@#( P._ E E ( 6 & X ^./ / [ E E 6 6 !#~#{#]#^#/#(#_#:#3@<#[#}#|#1#2#3#~ ~ ~ ~ { { { s+Z f.O.D.- E E E E E 6 6 6 ~ ~ { ",
"t 4#d d ( ( ( ( ( ( _ E ~ |.{+y./ / w 6 6 6 6 5#6#7#8#9#0#a#b#c#d#e#f#g#h#i#j#M M ~ ~ ~ { { { .+E.k#e < < E E E E E 6 6 6 ~ ~ ~ ",
"B.4 ; ; ( ( ( ( ( ( _ _ { l#p 6./ [ w 6 6 6 6 m#n#o#p#q#r#s#t#u#v#w#x#y#z#A#B#M M ~ ~ ~ { { ).W.X }.a [ [ E E E E E 6 6 6 { ~ ~ ",
"X + @ @ ( ( ( _ _ _ _ _ '.H I b.[ [ w 6 6 6 ~ C#D#E#F#G#H#I#J#J#K#L#M#N#O##+P#Q#M ~ ~ ~ { Z  #7 X b+a [ < E E E 6 6 6 ~ ~ ~ { { ",
"X R#e a X.Y.S#_ _ _ E E { ;.B b.[ w z 6 6 ~ ~ T#U#V#W#X#Y#J#J#J#J#Z#H#`# $Y.;+H |.~ ~ { { { Z &.Y g.X.[ < 6 E 6 6 6 ~ ~ ~ ~ { { ",
"F .$a a a a / _ _ _ E E Z  @B b.w w z 6 6 ~ ~ * +$@$#$$$%$J#J#J#J#&$H#*$=$~ ;.H %+{ { { { Z -$;$>$g.a [ 5 6 6 6 6 6 ~ ~ { { Z Z ",
"F u / / / / O _ _ E E 6 Z p A ].w w z ~ ~ ~ { { ,$'$)$!$~$u#J#J#J#{$M#*$]$^$;.H %+{ Z Z Z &.&././$($0 w s 6 ~ ~ ~ ~ ~ { { Z Z Z ",
"c+u / / [ [ < E E E E 6 Z s.A >+w w z ~ ~ { { { { { _$:$<$[$v#L#}$|$1$2$3$4$5$%+).). # # #:.s.f+l.J.@ i i M M M M %+|.).). #Z Z ",
"A a [ [ [ [ < E E E 6 ~ 8.s.A  .z z ;.{ { { { Z &.6$7$8$9$0$a$b$b$c$d$e$f$g$h$i$j$p I I I I B t B.[.@ & T z z z z H H ;.;.[ -+/.",
"b.0 / [ w w w 6 6 6 k$~ -+p ..(.A B A l$/.] ] ] z.m$n$o$p$q$r$s$t$u$v$w$x$y$z$A$B$p@6.6.b.b.].a.[.0.^.^.<.>.>.C$C$6.C$C$>.p@4.4.",
"~.i.m.{+s.p H |.* m Q.]+p.Q w.5.h.t.P %+{ { { { ~ D$E$F$G$H$I$J$J$K$L$M$N$O$P$Q$R$< < ;.A U S$F T$U$[.4 C.R#.$N + R#+ + N N V$t+",
"[.^.% $ $ $ % & > > > > > X }.R.& $ % K 6 E E E 6 W$E$X$Y$Y$Z$`$ %Y$.%+%@%#%$%%%&%k$~ '+F F *%j j =%X ' ; # # # # # # # @ #+D.D.",
"}.& $ # $ $ $ % % % % & & > 7 , $ % % K E E 6 6 6 -%;%>%,%'%)%!%~%{%]%^%/%(%_%_%:%6 ~ M 7 X f+= = <%$ ) @ # # # # # $ $ $ $ 2 2 ",
"c+S 5 g [ [ [ [ w w m m n [%).0+i i h [ K K s m m m m }%|%|%1%2%3%4%5%6%7%8%5 w i m M M S.= = = = b # ) @ # # # # f f g [ [ ]+]+",
"S$/ [ [ [ [ [ [ w w 6 6 ~ { { 7@%+D w [ [ w w w w w w 9%0%a%b%c%d%e%f%g%h%i%[ w w w z |.{ 8.8.= = } # ' @ # # # / / / / w [ % & ",
"t [ [ [ [ [ w w w w ~ ~ { Z Z 7@H C w [ w w w w w w w z j%a%a%a%k%l%m%n%o%[ [ w w w z z ~ &.= E.p%} # ' # # # # / / / [ [ w h & ",
"t H [ [ [ w w m s s ~ ~ { Z &.g.5 q%w w w w w w w w i M r%s%a%a%t%u%[ [ [ [ < s w i z n { &.8.E.E.} # K.# # # # / f f [ [ w ]+i ",
"F H [ [ w w [ 6 6 6 ~ ~ { Z &.g.% % i w w w w w w m ~ ~ v%s%a%a%w%x%w [ [ < E 6 6 ~ ~ { { &.8.E.E.y%@ K.# # # # $ $ $ [ [ w 6 6 ",
"_.H [ w w w s 6 6 6 ~ ~ { Z &.z%& $ % w w w w w w M ~ { A%B%a%a%C%u%[ w [ [ 6 6 6 ~ { { { &.8.E.E.y%; F+$ # # # $ $ $ [ [ w D%~ ",
"_.;.w w w w s 6 6 6 ~ ~ { Z Z f.'+% % w w w w w w ~ ~ { E%F%G%H%I%w w s 5 s 6 6 ~ ~ { { { Z 8.E.E.y%4 8 # # # # $ $ $ [ [ w ~ ~ "};
