/* XPM */
static char * up_1_xpm[] = {
"64 64 705 2",
"  	c #505052",
". 	c #6C6C6C",
"+ 	c #646464",
"@ 	c #5E5E5E",
"# 	c #5D5D5D",
"$ 	c #5C5C5C",
"% 	c #5B5B5B",
"& 	c #5A5A5A",
"* 	c #5A5A5C",
"= 	c #555557",
"- 	c #5C5C5E",
"; 	c #5F5F5F",
"> 	c #595959",
", 	c #4E4E4E",
"' 	c #6B6B6B",
") 	c #6D6D6D",
"! 	c #636363",
"~ 	c #595A5C",
"{ 	c #58595B",
"] 	c #535456",
"^ 	c #5D5E5D",
"/ 	c #5C5E5D",
"( 	c #5D5E60",
"_ 	c #5C5D5F",
": 	c #5C5D5E",
"< 	c #5B5D5D",
"[ 	c #5B5D5C",
"} 	c #515153",
"| 	c #616161",
"1 	c #5B5A5D",
"2 	c #5B5B5D",
"3 	c #626262",
"4 	c #606060",
"5 	c #5B5C5C",
"6 	c #5A5B5D",
"7 	c #575757",
"8 	c #686868",
"9 	c #5F6160",
"0 	c #5E605F",
"a 	c #5D5F5E",
"b 	c #525253",
"c 	c #5F6060",
"d 	c #5E5F5F",
"e 	c #5D5E5E",
"f 	c #5C5D5D",
"g 	c #5C5D5C",
"h 	c #5B5C5B",
"i 	c #5A5B5B",
"j 	c #545456",
"k 	c #656566",
"l 	c #676767",
"m 	c #5A5B5C",
"n 	c #595A5B",
"o 	c #535555",
"p 	c #565857",
"q 	c #6A6B6A",
"r 	c #626463",
"s 	c #5A5C5C",
"t 	c #535353",
"u 	c #646665",
"v 	c #5C5F5E",
"w 	c #5A5C5B",
"x 	c #656666",
"y 	c #656565",
"z 	c #595B5A",
"A 	c #535554",
"B 	c #545655",
"C 	c #616362",
"D 	c #606261",
"E 	c #5B5C5E",
"F 	c #545454",
"G 	c #4F4F4F",
"H 	c #585A59",
"I 	c #555756",
"J 	c #5F6260",
"K 	c #5B5C5D",
"L 	c #5A5C5D",
"M 	c #595B5B",
"N 	c #636464",
"O 	c #5C5E5E",
"P 	c #595A59",
"Q 	c #4E4F4E",
"R 	c #5F605F",
"S 	c #5E5F5E",
"T 	c #5A5B5A",
"U 	c #525453",
"V 	c #555656",
"W 	c #626362",
"X 	c #555555",
"Y 	c #545556",
"Z 	c #57585A",
"` 	c #5F6161",
" .	c #4B4D4C",
"..	c #515352",
"+.	c #555655",
"@.	c #5D605F",
"#.	c #5A5D5C",
"$.	c #595A5D",
"%.	c #58595C",
"&.	c #565759",
"*.	c #5B5C5F",
"=.	c #5A5B5E",
"-.	c #5A5C5A",
";.	c #575958",
">.	c #505251",
",.	c #565656",
"'.	c #585A5B",
").	c #58595A",
"!.	c #57595A",
"~.	c #494B4A",
"{.	c #575857",
"].	c #4D4F4E",
"^.	c #505050",
"/.	c #545557",
"(.	c #484A49",
"_.	c #515251",
":.	c #575858",
"<.	c #525252",
"[.	c #4B4B4B",
"}.	c #4C4C4C",
"|.	c #595A5A",
"1.	c #484848",
"2.	c #454545",
"3.	c #4D4E50",
"4.	c #4F5052",
"5.	c #474948",
"6.	c #4F5150",
"7.	c #494949",
"8.	c #555658",
"9.	c #464646",
"0.	c #4A4A4A",
"a.	c #4D4D4D",
"b.	c #4E504F",
"c.	c #4D4F4F",
"d.	c #4E4F50",
"e.	c #4C4E50",
"f.	c #4A4B4D",
"g.	c #4C4D4F",
"h.	c #4D4E4E",
"i.	c #4F5050",
"j.	c #515353",
"k.	c #525354",
"l.	c #535455",
"m.	c #545555",
"n.	c #545656",
"o.	c #525454",
"p.	c #525353",
"q.	c #474849",
"r.	c #4C4D4D",
"s.	c #565757",
"t.	c #545554",
"u.	c #4E4F4F",
"v.	c #4C4D4C",
"w.	c #4A4B4B",
"x.	c #4A4B4A",
"y.	c #505151",
"z.	c #525355",
"A.	c #505153",
"B.	c #515151",
"C.	c #666666",
"D.	c #5D5D5F",
"E.	c #565658",
"F.	c #4B4B4D",
"G.	c #535355",
"H.	c #5F5E60",
"I.	c #4C4C4E",
"J.	c #4D4D4E",
"K.	c #6A6A6A",
"L.	c #5F6062",
"M.	c #575759",
"N.	c #4F4F51",
"O.	c #5F5F61",
"P.	c #5E5F61",
"Q.	c #5C5C5D",
"R.	c #474747",
"S.	c #585859",
"T.	c #626263",
"U.	c #5E5E60",
"V.	c #5F5F60",
"W.	c #585858",
"X.	c #5D5F5F",
"Y.	c #5D5E5F",
"Z.	c #616060",
"`.	c #5E6060",
" +	c #606161",
".+	c #616162",
"++	c #4F504F",
"@+	c #5E5F60",
"#+	c #5D5D5E",
"$+	c #5E5E5F",
"%+	c #585A5A",
"&+	c #505150",
"*+	c #5B5E5D",
"=+	c #58585A",
"-+	c #5A595A",
";+	c #4E4E4F",
">+	c #5F5E5F",
",+	c #565758",
"'+	c #55555A",
")+	c #4B4660",
"!+	c #474061",
"~+	c #433B5E",
"{+	c #4C4562",
"]+	c #57555E",
"^+	c #59585C",
"/+	c #5C5B5C",
"(+	c #54535C",
"_+	c #4B4764",
":+	c #454074",
"<+	c #403E85",
"[+	c #3F3E89",
"}+	c #3E3E89",
"|+	c #3F3E88",
"1+	c #433E7A",
"2+	c #464173",
"3+	c #504B60",
"4+	c #59575C",
"5+	c #4C4E4D",
"6+	c #585A5C",
"7+	c #494571",
"8+	c #403F87",
"9+	c #3F3F8E",
"0+	c #3F4190",
"a+	c #3F4191",
"b+	c #3F408F",
"c+	c #3F3F8D",
"d+	c #423F85",
"e+	c #49436E",
"f+	c #58565B",
"g+	c #525352",
"h+	c #585958",
"i+	c #585959",
"j+	c #575658",
"k+	c #4D4962",
"l+	c #413E80",
"m+	c #3F4090",
"n+	c #424084",
"o+	c #4E4A5F",
"p+	c #5B5B5C",
"q+	c #4A4C4B",
"r+	c #4A465D",
"s+	c #413E7E",
"t+	c #454174",
"u+	c #555559",
"v+	c #575959",
"w+	c #565756",
"x+	c #464847",
"y+	c #4B4C4B",
"z+	c #49484E",
"A+	c #423D6B",
"B+	c #3F3E8A",
"C+	c #403D83",
"D+	c #4B465D",
"E+	c #555657",
"F+	c #565659",
"G+	c #4A4B4C",
"H+	c #666768",
"I+	c #656667",
"J+	c #636465",
"K+	c #555166",
"L+	c #403B7F",
"M+	c #3F3E8B",
"N+	c #3F3E8C",
"O+	c #3F3D85",
"P+	c #47405E",
"Q+	c #535453",
"R+	c #515152",
"S+	c #474848",
"T+	c #555556",
"U+	c #636362",
"V+	c #626365",
"W+	c #616264",
"X+	c #5D5C62",
"Y+	c #4C4872",
"Z+	c #3E3882",
"`+	c #3F3B85",
" @	c #3E3C86",
".@	c #3C2D6B",
"+@	c #3D3070",
"@@	c #3E3881",
"#@	c #3F3F8C",
"$@	c #3F3D89",
"%@	c #3F3D88",
"&@	c #46416B",
"*@	c #535356",
"=@	c #6E6E6E",
"-@	c #666769",
";@	c #646567",
">@	c #606163",
",@	c #5F5E63",
"'@	c #3F408E",
")@	c #3E377E",
"!@	c #3C265F",
"~@	c #3D2862",
"{@	c #3D2F6F",
"]@	c #3C2964",
"^@	c #3C2257",
"/@	c #3C245B",
"(@	c #3C265E",
"_@	c #3D3377",
":@	c #3E357C",
"<@	c #3D2F6E",
"[@	c #46447D",
"}@	c #59575E",
"|@	c #555454",
"1@	c #696969",
"2@	c #58565C",
"3@	c #494470",
"4@	c #3D3071",
"5@	c #3C2155",
"6@	c #3C2359",
"7@	c #3D2A66",
"8@	c #3C255B",
"9@	c #3D3275",
"0@	c #45417C",
"a@	c #55535A",
"b@	c #595563",
"c@	c #524366",
"d@	c #473C76",
"e@	c #3E3982",
"f@	c #3C2862",
"g@	c #3C2154",
"h@	c #3C2156",
"i@	c #3D2C68",
"j@	c #454177",
"k@	c #55535B",
"l@	c #575656",
"m@	c #646363",
"n@	c #554A68",
"o@	c #4C2371",
"p@	c #482B78",
"q@	c #423783",
"r@	c #3D2E6E",
"s@	c #3D2157",
"t@	c #3C275F",
"u@	c #443B6B",
"v@	c #505152",
"w@	c #5A5A5B",
"x@	c #595462",
"y@	c #513B6D",
"z@	c #4C2573",
"A@	c #482771",
"B@	c #402562",
"C@	c #3E2159",
"D@	c #442264",
"E@	c #452265",
"F@	c #433357",
"G@	c #53535A",
"H@	c #565858",
"I@	c #585463",
"J@	c #513A6D",
"K@	c #4B2471",
"L@	c #48226B",
"M@	c #422260",
"N@	c #452266",
"O@	c #4B236F",
"P@	c #462368",
"Q@	c #3E2255",
"R@	c #543458",
"S@	c #6F515D",
"T@	c #6B5A5D",
"U@	c #5D5B5B",
"V@	c #555066",
"W@	c #683A6F",
"X@	c #692C6F",
"Y@	c #4C236E",
"Z@	c #443073",
"`@	c #412B6B",
" #	c #3F225B",
".#	c #482456",
"+#	c #75345D",
"@#	c #A95C70",
"##	c #CC8C8C",
"$#	c #BB8786",
"%#	c #805D62",
"&#	c #5C5E5C",
"*#	c #6B5664",
"=#	c #A05471",
"-#	c #924874",
";#	c #483175",
">#	c #323571",
",#	c #2D2562",
"'#	c #371F58",
")#	c #3B2155",
"!#	c #3C2357",
"~#	c #492457",
"{#	c #853B60",
"]#	c #CC7781",
"^#	c #F2B7AC",
"/#	c #E0AEA6",
"(#	c #95696E",
"_#	c #4E5051",
":#	c #5E5C5C",
"<#	c #8F5D67",
"[#	c #CF7580",
"}#	c #AD6B87",
"|#	c #3F3A75",
"1#	c #31336D",
"2#	c #302766",
"3#	c #35205C",
"4#	c #40346B",
"5#	c #494E8A",
"6#	c #41356B",
"7#	c #3D285C",
"8#	c #3E2C63",
"9#	c #443077",
"0#	c #48337C",
"a#	c #895270",
"b#	c #DE868A",
"c#	c #F0A39E",
"d#	c #DA9C98",
"e#	c #906A6E",
"f#	c #4E4F51",
"g#	c #68595C",
"h#	c #AF6A72",
"i#	c #D78695",
"j#	c #9F7A9F",
"k#	c #4F5484",
"l#	c #565699",
"m#	c #4F45A0",
"n#	c #464389",
"o#	c #5965A4",
"p#	c #6777B4",
"q#	c #5360A1",
"r#	c #505997",
"s#	c #505A9B",
"t#	c #5759A4",
"u#	c #6F6FB3",
"v#	c #8D7C99",
"w#	c #C87E8B",
"x#	c #DF8689",
"y#	c #A76A70",
"z#	c #665A5B",
"A#	c #545756",
"B#	c #515254",
"C#	c #414141",
"D#	c #444444",
"E#	c #515252",
"F#	c #5C5B5B",
"G#	c #915E66",
"H#	c #B67391",
"I#	c #8A7390",
"J#	c #697196",
"K#	c #615EB7",
"L#	c #575DB5",
"M#	c #5A6AAF",
"N#	c #6576B6",
"O#	c #5C6FB3",
"P#	c #5769B0",
"Q#	c #6979B7",
"R#	c #6878B7",
"S#	c #6068B8",
"T#	c #635BB1",
"U#	c #807E94",
"V#	c #AD7D9E",
"W#	c #C2707B",
"X#	c #795058",
"Y#	c #505252",
"Z#	c #434343",
"`#	c #6B595B",
" $	c #87647F",
".$	c #766780",
"+$	c #6D7598",
"@$	c #6265B9",
"#$	c #6C77BE",
"$$	c #6879B8",
"%$	c #596CB2",
"&$	c #5568B0",
"*$	c #5468B0",
"=$	c #5A6DB2",
"-$	c #6E7FBB",
";$	c #7782C2",
">$	c #6461B8",
",$	c #6E7492",
"'$	c #766C90",
")$	c #79668C",
"!$	c #555053",
"~$	c #575657",
"{$	c #555355",
"]$	c #565657",
"^$	c #6B7397",
"/$	c #6266B9",
"($	c #6D79BE",
"_$	c #5F72B4",
":$	c #5E71B4",
"<$	c #7985C4",
"[$	c #6866BC",
"}$	c #6D7593",
"|$	c #5F606C",
"1$	c #5A5C71",
"2$	c #5B5D5E",
"3$	c #6C7498",
"4$	c #6166B9",
"5$	c #6E7ABE",
"6$	c #6072B5",
"7$	c #6071B5",
"8$	c #6766BC",
"9$	c #6B7393",
"0$	c #575859",
"a$	c #464749",
"b$	c #606062",
"c$	c #5D5E61",
"d$	c #656766",
"e$	c #6B7396",
"f$	c #6266B8",
"g$	c #707CBF",
"h$	c #6A7BB9",
"i$	c #6E7EBB",
"j$	c #7B86C4",
"k$	c #6564BC",
"l$	c #626891",
"m$	c #53535C",
"n$	c #595B5E",
"o$	c #48494B",
"p$	c #666980",
"q$	c #6868B0",
"r$	c #6A74BC",
"s$	c #6D7CBB",
"t$	c #6979B9",
"u$	c #6B7DBA",
"v$	c #7987C1",
"w$	c #7982C4",
"x$	c #6767B4",
"y$	c #47497E",
"z$	c #3A4165",
"A$	c #525B67",
"B$	c #626363",
"C$	c #75565B",
"D$	c #896095",
"E$	c #6F65B4",
"F$	c #626AB9",
"G$	c #6D7ABD",
"H$	c #717FC0",
"I$	c #767EC2",
"J$	c #7C74BC",
"K$	c #7E5F97",
"L$	c #2A2D67",
"M$	c #2F4F7E",
"N$	c #456183",
"O$	c #515B64",
"P$	c #4C4C4D",
"Q$	c #575A5A",
"R$	c #62595C",
"S$	c #9B4348",
"T$	c #B73C51",
"U$	c #9F5691",
"V$	c #8F5DA4",
"W$	c #7464B4",
"X$	c #6B65B7",
"Y$	c #6E65B6",
"Z$	c #8460AB",
"`$	c #9E5690",
" %	c #A63856",
".%	c #5A4B78",
"+%	c #476A99",
"@%	c #446997",
"#%	c #51688B",
"$%	c #5F6574",
"%%	c #6F5557",
"&%	c #A93B42",
"*%	c #BE2531",
"=%	c #BD2B3A",
"-%	c #BB3245",
";%	c #AA5C83",
">%	c #A4648F",
",%	c #A6628C",
"'%	c #B54B68",
")%	c #BD303F",
"!%	c #B7384C",
"~%	c #8C6088",
"{%	c #4A6D9D",
"]%	c #5070A0",
"^%	c #7386B8",
"/%	c #6C7594",
"(%	c #4D4E4D",
"_%	c #646564",
":%	c #5C5E5F",
"<%	c #705457",
"[%	c #A93A42",
"}%	c #C0313B",
"|%	c #C54047",
"1%	c #C7444A",
"2%	c #C53C41",
"3%	c #C0262E",
"4%	c #BF252E",
"5%	c #CA4B4E",
"6%	c #D76A6C",
"7%	c #D76C6E",
"8%	c #D06D74",
"9%	c #A0718C",
"0%	c #5B749F",
"a%	c #7182B1",
"b%	c #7D89BA",
"c%	c #6A728F",
"d%	c #636564",
"e%	c #675759",
"f%	c #8E4A4E",
"g%	c #A24D51",
"h%	c #CB6E70",
"i%	c #DB787A",
"j%	c #D97375",
"k%	c #D4676A",
"l%	c #C25C5F",
"m%	c #C06D6E",
"n%	c #E6888A",
"o%	c #DC7577",
"p%	c #D37173",
"q%	c #A06A74",
"r%	c #656D85",
"s%	c #676E88",
"t%	c #676E87",
"u%	c #5F6471",
"v%	c #56585A",
"w%	c #555759",
"x%	c #535457",
"y%	c #5A595B",
"z%	c #605759",
"A%	c #67595B",
"B%	c #995E66",
"C%	c #AD606A",
"D%	c #AE5F69",
"E%	c #C57076",
"F%	c #BF7174",
"G%	c #8E6264",
"H%	c #BF5F62",
"I%	c #C33B42",
"J%	c #BB3C43",
"K%	c #8E4E52",
"L%	c #525356",
"M%	c #4C4D4E",
"N%	c #68404F",
"O%	c #712747",
"P%	c #742746",
"Q%	c #8A4054",
"R%	c #904958",
"S%	c #77464C",
"T%	c #B12F39",
"U%	c #BE2532",
"V%	c #B82D37",
"W%	c #90484D",
"X%	c #5F4F55",
"Y%	c #70334A",
"Z%	c #752847",
"`%	c #742946",
" &	c #7F3746",
".&	c #AB293B",
"+&	c #A5273C",
"@&	c #A6293C",
"#&	c #973E47",
"$&	c #605658",
"%&	c #565859",
"&&	c #595B5D",
"*&	c #545657",
"=&	c #525053",
"-&	c #673C4B",
";&	c #732A47",
">&	c #7B3148",
",&	c #9A2F41",
"'&	c #A3283D",
")&	c #9D2D3F",
"!&	c #853E48",
"~&	c #5B4F52",
"{&	c #505154",
"]&	c #505254",
"^&	c #515253",
"/&	c #4F5251",
"(&	c #5C575A",
"_&	c #6E3D4E",
":&	c #742B48",
"<&	c #752947",
"[&	c #742A47",
"}&	c #6F3B4D",
"|&	c #705459",
"1&	c #745056",
"2&	c #6F5257",
"3&	c #63595B",
"4&	c #535454",
"5&	c #4A4A4B",
"6&	c #636466",
"7&	c #5C585C",
"8&	c #674954",
"9&	c #6A4350",
"0&	c #673D4C",
"a&	c #663F4C",
"b&	c #605558",
"c&	c #5C5A5B",
"d&	c #5D5C5C",
"e&	c #545455",
"f&	c #4A4A4C",
"g&	c #5B595B",
"h&	c #5C585B",
"i&	c #534F52",
"j&	c #534F51",
"k&	c #505051",
"l&	c #59595B",
"m&	c #4F5051",
"n&	c #5A5A5D",
"o&	c #59595A",
"p&	c #59595C",
"q&	c #525254",
"r&	c #555757",
"s&	c #565558",
"t&	c #606160",
"u&	c #4B4C4E",
"v&	c #595B5C",
"  . + @ # # $ $ $ % & & & * = - @ ; ; ; ; @ @ @ @ # # $ & > , ; ' ) ' ! ; ; @ @ # # # $ $ % % ~ { ] > # ^ / / / ( _ : < [ [ [ [ ",
"} ' | @ @ @ # $ $ $ $ % % 1 = 2 3 @ ; @ @ @ @ @ @ # # $ % % , | ' ' ! 4 ; ; @ @ @ # $ $ $ $ 5 6 ~ ] 7 ; 8 9 0 a ( ( _ / [ [ [ [ ",
"b 8 c d e ^ f g 5 g 5 h i 6 j 2 k @ ; @ a e e e e # # $ $ % , | l ; ; ; @ @ @ @ # # $ $ $ $ 5 m n o p q r a a a ( _ _ / [ [ < s ",
"t u / v / / / [ [ [ w w w 6 ] ~ x ; @ a a a a v / # # $ $ & , 3 y ; ; ; @ @ @ # $ # $ $ $ % % w z A B C D [ a a _ _ _ [ [ [ E E ",
"F u / / / / [ [ [ [ w w z ~ ] ~ + ; @ a a a a / / g $ % % > G | y ; @ @ @ @ @ # # # $ $ % % i z H A I C J / / / _ _ E / f [ E 6 ",
"F D / / / / [ K K L m M n ~ ] { N d d a a / O O < 5 h w i P Q R + ; S e ^ ^ ^ f g g 5 h i i T z z U V W D / / / E E E s s L 6 ~ ",
"X 0 [ [ [ [ < E E 6 6 ~ ~ ~ Y Z ` 0 a / / / _ _ E s w w w H  .d ! ; d a / / / [ [ [ w w w z z H H ..X ! 4 / [ [ E E E 6 6 6 6 6 ",
"+.@.#.w w w s 6 6 $.$.%.{ Z ] &.O 9 / / / [ E *.=.s -.z z ;. .^ 3 @ @ / / / [ [ [ w w w w H H ;.;.>.X ! R [ [ w 6 2 E 6 6 ~ ~ ~ ",
",./ 5 w w z z M M M '.).!.Z ] &.[ a [ / / w s L s i z z z ;.~.h | @ f [ / [ w w w z z z H H H ;.{.].t ! S w z z M M n ~ ~ ~ { { ",
"^.> & & z z z z H H H ;.;.Z ] /.5 [ [ [ [ w w w z z z H H B (._.$ # f [ / w w w w z z z H ;.:.X <.[.}.$ |.z H H H H H { { { { { ",
"1.2.t ,.I p p p p I I I I ] 3.4.w w w w w z H H z z H H p  .5.^.& % % w w w H H H ;.;.;.p A 6.<.<.7.7.^.X ;.p p I p I 8.8.8.8.&.",
"9.0.a., b.b.].c.d.d.c.d.].e.f.g.h.i.j.k.l.m.o Y Y n.m.l.o.p.q.r.t F V I {.s.t.i.u.h.r.r.v.w.x.7.1.1.0.G y.>...j.p.U U z.] ] z.A.",
"B.) C.| a / / _ E E E 6 _ D.E.F.G.* H.( ( ( ( ( ( D.- 2 * * I.J.7 7 @ # $ $ $ > ,.F t B., 0.7.7.1.1.0.t F B I p &.&.&.&.{ { &.&.",
"F K.. y C D ` L.L.( ( _ _ D.M.N.- D.O.P.( _ _ _ _ _ - - * * N.Q.# @ # # # $ $ $ $ % % % & ,.B.^.a.R.G | l r 9 / ( P.6 E E 6 6 6 ",
",.K.8 | 9 9 c P.P.( ( ( _ D.S.  T.U.U.( ( _ _ _ _ - - - 2 * N.V.@ @ @ # # # $ $ $ % % % & |.> W.,.a.B.l | e X.Y._ E E E E 6 6 6 ",
",.' y Z.9 9 `.P.( ( ( _ _ e > ^. +a a ( ( _ _ _ E E E 6 E 2   .+; # # # # # $ $ 5 w w w z H H ;.p ++B.C.S ( ( ( _ _ _ E E E 6 6 ",
",.K.3 4 0 0 0 @+( ( ( _ _ #+> B.D / / _ _ _ _ _ E E E 6 6 2   .+4 @ # # # # $ $ h w w w z H H I B 6.B.y $+( _ _ _ _ E E E 6 6 ~ ",
",.8 4 4 R 0 0 @+( ( ( _ _ #+> B.D / / O _ _ _ _ E E E 6 * *   .+4 @ ^ # # # $ $ w w w M M %+H A t.&+^.y $+( _ _ _ _ E E E 6 6 6 ",
",.y ; ; ; @ @ a a X._ _ _ Q.W.^.9 / / / / / [ [ < s w w % & ^.| 4 # # / *+*+#.[ #.w [ M ~ %.=+X X B.^.+ #+( _ _ ( E E E E 6 6 6 ",
",.3 ; @ @ @ @ a a / _ _ _ f W.^.9 / / [ [ [ [ [ w w w z T & ^.4 ; # / / [ [ [ [ w z w M %.{ M.F F B.^.! #+_ _ E E E E 6 6 6 ~ ~ ",
"X ; # ; @ @ @ a e / _ _ _ f W.^.9 / [ [ [ [ [ [ w w w z -+-+;+>+@ # f / [ [ [ w w z z |.{ !.,+F F ^.^.! #+_ E E E E E 6 6 6 ~ ~ ",
"X # ; + d a O _ _ _ _ E E [ ;.b.0 w w w w w 6 6 6 M %+'+)+!+~+{+]+^+/+$ $ 5 w w w z H H ;.p A t F ^.G ! f E E E E E 6 ~ ~ ~ ~ { ",
"F # 3 3 e / O E _ _ E E 6 5 ;.].a w w z w w 6 6 6 (+_+:+<+[+}+|+1+2+3+4+$ h w z z z z p A ..p.<.t ^., | 5 6 6 6 6 6 ~ 6 ~ { { { ",
"t $ $ $ / [ < E E E E 6 6 s ;.5+/ #.w z z H M 6+'+7+8+9+0+a+a+a+b+c+d+e+f+% w z z z H H z H A g+p.^.a.3 i 6 6 6 6 6 ~ { { { { { ",
"t # % $ [ [ < E E E 6 6 6 i p  .F > > h+;.H i+j+k+l+m+a+a+a+a+a+a+a+m+n+o+w z z z H H ).Z { k.>...&+a.3 p+~ ~ ~ ~ ~ ~ { { { Z Z ",
"B.% $ g [ [ [ E E E 6 ~ 6 M p q+a., B._.>.U <.r+s+m+a+a+a+a+a+a+a+a+a+c+t+u+H H H H H v+&.Z Y U U ].7.; |.~ { ~ { { { { { Z Z &.",
"h.B.V w+s.s.I &.&.&.8.] /.o ].x+a., }.y+q+q+z+A+B+a+a+a+a+a+a+a+a+a+a+0+C+D+;.;.;.;.;.p &.8.E+B ..x+7.a.F /./././././.8.&.F+8./.",
"0.~.I f _ _ _ *.E 6 6 6 E n E.G+y C.C.H+I+J+K+L+a+a+m+0+a+0+M+N+m+a+a+a+O+P+B A Q+t <.B.R+<.^.a.1.S+7.a.<.T+W.S.Z Z Z 8./.] ] ] ",
", U a S ( ( ( ( ( _ _ _ _ _ * } 3 ! U+V+W+X+Y+c+a+9+Z+`+M+ @.@+@@@#@N+$@%@&@*@I V 7 ,.,.,.X B., 7.R.B.) =@) . ' -@;@W+>@P.( ( E ",
"G 0 0 a ( ( ( _ _ _ ( _ _ - * } T.+ y ;@;@,@Y+'@a+)@!@~@{@]@^@/@(@_@:@<@%@[@}@D c c ; @ # @ # % W.7.|@. 1@! ; V.( _ E _ _ _ E E ",
"G 0 9 O ( ( ( ( _ _ _ E E 2 & ^.4 @ @ a #+2@3@'@c+4@^@5@5@5@5@5@5@6@7@8@9@0@a@[ [ w w m ~ ~ ~ Z Z N.X ' ; a a a a a / / f a E E ",
", p 0 e ( ( _ _ _ _ E E E $ > G ; @ @ Y.b@c@d@b+e@f@5@5@5@5@5@5@5@5@g@h@i@j@k@w w w w m ~ ~ { { Z 4.l@m@d a a a a / / a / / E E ",
"++/ 0 e ( ( _ _ _ _ E E E 5 > , ; @ @ _ n@o@p@q@r@5@5@s@s@5@5@5@5@5@5@5@t@u@a@w w w w m ~ { { { Z v@,.+ d a a a / / / / [ [ E E ",
", P d @ / O O < < < E 6 6 w@> , 4 @ @ # x@y@z@A@B@5@C@D@E@C@5@5@5@5@5@5@5@F@G@w w w z z z |.v+v+H@6.V W a a / / : _ *.E E E 6 6 ",
"}.7 @ # / / / [ [ [ E 6 6 w@W.[.4 # @ ^ f I@J@K@L@M@N@O@P@C@5@5@5@5@5@5@Q@R@S@T@U@w z z z H H ;.I 6.B D a a / / _ E E E E 6 6 6 ",
"0.X # % [ [ [ [ [ [ 6 6 6 i W.0.3 # # / / 5 V@W@X@Y@Z@`@ #5@5@5@5@5@5@.#+#@###$#%#z z z H H H p B 6.U 9 / / &#/ E E E E 6 6 6 $.",
"0.F $ % h h h w w w w w M z ;.~.C a g f [ [ *#=#-#;#>#,#'#)#!#5@5@5@h@~#{#]#^#/#(#H H H ;.;.v+8./._#B.| f E E E _ E E E 6 6 6 6 ",
"7.<.% & % % % w w z w z H H ;.(.a / [ w w :#<#[#}#|#1#2#3#4#5#6#7#8#9#0#a#b#c#d#e#H H H ;.;.H@] z.f#G 3 $ E E E 6 E E ~ 6 ~ ~ ~ ",
"2.G & & % & & w w z z H H ;.I ~.U [ [ w w g#h#i#j#k#l#m#n#o#p#q#r#s#t#u#v#w#x#y#z#I A#A#p p H@] B#d.a.| 5 E E E 6 6 6 6 6 ~ ~ ~ ",
"C#D#W.W.7 > & z w z z H H h+E#[.h.P i w w F#G#H#I#J#K#L#M#N#O#P#Q#R#S#T#U#V#W#X#Q u.G G t.s.s.o.Y#c.a.@ i E 6 6 6 6 ~ ~ ~ ~ { { ",
"Z#2.t F X F 7 H ;.;.;.A U ^.[.[.}.,.h+H H z `# $.$+$@$#$$$%$&$*$=$-$;$>$,$'$)$!$G G G G , ^.t U .. .[.,.p+~ 6 6 6 6 ~ ~ { Z { { ",
"D#G ,.,.7 7 ~$;.p I I U 5+[.0.0.G B.E#>.>...<.{$]$^$/$($_$*$*$*$*$:$<$[$}$|$1$B#B.<.<.<.B.G u.b.5+(.7., p.z.z.z.z.z.z.z.z.z.B#A.",
"9.9 [ |.M m K 2$K K L L s X , }.5 ^ e O : E E E m 3$4$5$6$*$*$*$&$7$<$8$9$2 %.).{ n ).).{ 0$,+] G+a$p+b$O.c$( ( _ _ _ E E E ~ { ",
"++d$0 d ( _ E E E _ E 6 6 W.B.^./ / w 6 K E E E 6 e$f$g$h$%$*$*$%$i$j$k$l$m$n${ { { ~ ~ { { { 6 ] o$2 * - _ _ E E E 6 6 6 ~ ~ ~ ",
"Q+r 0 0 P.c$( P._ E E ( 6 & X ^./ / [ E E 6 6 6 6 p$q$r$s$t$6$_$u$v$w$x$y$z$A$~ ~ ~ ~ ~ { { { >@Z f.O.D.- E E E E E 6 6 6 ~ ~ { ",
"t B$d d ( ( ( ( ( ( _ E ~ |.w+y./ / w 6 6 6 6 6 6 C$D$E$F$($G$G$H$I$J$K$L$M$N$O$M ~ ~ ~ { { { .+E.P$e < < E E E E E 6 6 6 ~ ~ ~ ",
"B.4 ; ; ( ( ( ( ( ( _ _ { Q$p 6./ [ w 6 6 6 6 6 R$S$T$U$V$W$X$X$Y$Z$`$ %.%+%@%#%$%~ ~ ~ { { ).W.X }.a [ [ E E E E E 6 6 6 { ~ ~ ",
"X + @ @ ( ( ( _ _ _ _ _ '.H I b.[ [ w 6 6 6 ~ ~ %%&%*%=%-%;%>%>%,%'%)%!%~%{%]%^%/%~ ~ ~ { Z 0$7 X (%a [ < E E E 6 6 6 ~ ~ ~ { { ",
"X _%e a X.Y.:%_ _ _ E E { ;.B b.[ w z 6 6 ~ ~ ~ <%[%}%|%1%2%3%4%5%6%7%8%9%0%a%b%c%~ ~ { { { Z &.Y g.X.[ < 6 E 6 6 6 ~ ~ ~ ~ { { ",
"F d%a a a a / _ _ _ E E Z H@B b.w w z 6 6 ~ ~ ~ e%f%g%h%i%j%k%l%m%n%o%p%q%r%s%t%u%{ { { { Z v%w%x%g.a [ 5 6 6 6 6 6 ~ ~ { { Z Z ",
"F u / / / / O _ _ E E 6 Z p A ].w w z ~ ~ ~ { { y%z%A%B%C%D%E%F%G%H%I%J%K%M ;.H %+{ Z Z Z &.&./.L%M%0 w s 6 ~ ~ ~ ~ ~ { { Z Z Z ",
"Q+u / / [ [ < E E E E 6 Z s.A 5+w w z ~ ~ { { { { { { N%O%P%Q%R%S%T%U%V%W%w@H@%+).).0$0$0$:.s.T+l.J.@ i i M M M M %+|.).).0$Z Z ",
"A a [ [ [ [ < E E E 6 ~ 8.s.A  .z z ;.{ { { { Z &.&.&.X%Y%Z%P%`% &.&+&@&#&$&&.&.%&p I I I I B t B.[.@ & T z z z z H H ;.;.[ ,+/.",
"b.0 / [ w w w 6 6 6 &&~ ,+p ..(.A B A *&/.] ] ] z.A.A.=&-&;&Z%Z%>&,&'&)&!&~&{&]&^&>.6.6.b.b.].a.[.0.^.^.<.>.>./&/&6./&/&>.Y#4.4.",
"~.i.m.w+s.p H |.* m Q.p+p.Q w.5.h.t.P %+{ { { { ~ ~ ~ (&_&:&<&[&}&|&1&2&3&$ 5 Q.K 5 < ;.A U 4&F ;+5&[.4 C._%d%N + _%+ + N N J+6&",
"[.^.% $ $ $ % & > > > > > X }.R.& $ % K 6 E E E 6 6 6 7&8&9&0&a&b&c&d&$ w w % % w@~ ~ i+F F e&j j f&X ' ; # # # # # # # @ #+D.D.",
"}.& $ # $ $ $ % % % % & & > 7 , $ % % K E E 6 6 6 6 6 6 g&h&i&j&& $ [ [ [ 5 % % m 6 ~ M 7 X T+= = k&$ ) @ # # # # # $ $ $ $ 2 2 ",
"Q+S 5 g [ [ [ [ w w m m n l&).m&i i h [ K K s m m m m 6 * * } Y u f [ [ [ [ 5 w i m M M S.= = = = b # ) @ # # # # f f g [ [ p+p+",
"4&/ [ [ [ [ [ [ w w 6 6 ~ { { f#%+D w [ [ w w w w w w z w@n&} m.u / [ [ [ [ [ w w w z |.{ 8.8.= = } # ' @ # # # / / / / w [ % & ",
"t [ [ [ [ [ w w w w ~ ~ { Z Z f#H C w [ w w w w w w w z o&p&q&r&d%/ [ [ [ [ [ w w w z z ~ &.= E.s&} # ' # # # # / / / [ [ w h & ",
"t H [ [ [ w w m s s ~ ~ { Z &.g.5 t&w w w w w w w w i M ).l&q&m.a [ [ [ [ [ < s w i z n { &.8.E.E.} # K.# # # # / f f [ [ w p+i ",
"F H [ [ w w [ 6 6 6 ~ ~ { Z &.g.% % i w w w w w w m ~ ~ '.{ B#Y a [ w [ [ < E 6 6 ~ ~ { { &.8.E.E.q&@ K.# # # # $ $ $ [ [ w 6 6 ",
"_.H [ w w w s 6 6 6 ~ ~ { Z &.u&& $ % w w w w w w M ~ { { { 4.V a [ [ w [ [ 6 6 6 ~ { { { &.8.E.E.q&; 1@$ # # # $ $ $ [ [ w v&~ ",
"_.;.w w w w s 6 6 6 ~ ~ { Z Z f.i+% % w w w w w w ~ ~ { ).).4.m./ w w s 5 s 6 6 ~ ~ { { { Z 8.E.E.q&4 8 # # # # $ $ $ [ [ w ~ ~ "};
