/* XPM */
static char * up_2_xpm[] = {
"64 64 694 2",
"  	c #505052",
". 	c #6C6C6C",
"+ 	c #646464",
"@ 	c #5E5E5E",
"# 	c #5D5D5D",
"$ 	c #5C5C5C",
"% 	c #5B5B5B",
"& 	c #5A5A5A",
"* 	c #5A5A5C",
"= 	c #555557",
"- 	c #5C5C5E",
"; 	c #5F5F5F",
"> 	c #595959",
", 	c #4E4E4E",
"' 	c #6B6B6B",
") 	c #6D6D6D",
"! 	c #636363",
"~ 	c #595A5C",
"{ 	c #58595B",
"] 	c #535456",
"^ 	c #5D5E5D",
"/ 	c #5C5E5D",
"( 	c #5D5E60",
"_ 	c #5C5D5F",
": 	c #5C5D5E",
"< 	c #5B5D5D",
"[ 	c #5B5D5C",
"} 	c #515153",
"| 	c #616161",
"1 	c #5B5A5D",
"2 	c #5B5B5D",
"3 	c #626262",
"4 	c #606060",
"5 	c #5B5C5C",
"6 	c #5A5B5D",
"7 	c #575757",
"8 	c #686868",
"9 	c #5F6160",
"0 	c #5E605F",
"a 	c #5D5F5E",
"b 	c #525253",
"c 	c #5F6060",
"d 	c #5E5F5F",
"e 	c #5D5E5E",
"f 	c #5C5D5D",
"g 	c #5C5D5C",
"h 	c #5B5C5B",
"i 	c #5A5B5B",
"j 	c #545456",
"k 	c #656566",
"l 	c #676767",
"m 	c #5A5B5C",
"n 	c #595A5B",
"o 	c #535555",
"p 	c #565857",
"q 	c #6A6B6A",
"r 	c #626463",
"s 	c #5A5C5C",
"t 	c #535353",
"u 	c #646665",
"v 	c #5C5F5E",
"w 	c #5A5C5B",
"x 	c #656666",
"y 	c #656565",
"z 	c #595B5A",
"A 	c #535554",
"B 	c #545655",
"C 	c #616362",
"D 	c #606261",
"E 	c #5B5C5E",
"F 	c #545454",
"G 	c #4F4F4F",
"H 	c #585A59",
"I 	c #555756",
"J 	c #5F6260",
"K 	c #5B5C5D",
"L 	c #5A5C5D",
"M 	c #595B5B",
"N 	c #636464",
"O 	c #5C5E5E",
"P 	c #595A59",
"Q 	c #4E4F4E",
"R 	c #5F605F",
"S 	c #5E5F5E",
"T 	c #5A5B5A",
"U 	c #525453",
"V 	c #555656",
"W 	c #626362",
"X 	c #555555",
"Y 	c #545556",
"Z 	c #57585A",
"` 	c #5F6161",
" .	c #4B4D4C",
"..	c #515352",
"+.	c #555655",
"@.	c #5D605F",
"#.	c #5A5D5C",
"$.	c #595A5D",
"%.	c #58595C",
"&.	c #565759",
"*.	c #5B5C5F",
"=.	c #5A5B5E",
"-.	c #5A5C5A",
";.	c #575958",
">.	c #505251",
",.	c #565656",
"'.	c #585A5B",
").	c #58595A",
"!.	c #57595A",
"~.	c #494B4A",
"{.	c #575857",
"].	c #4D4F4E",
"^.	c #505050",
"/.	c #545557",
"(.	c #484A49",
"_.	c #515251",
":.	c #575858",
"<.	c #525252",
"[.	c #4B4B4B",
"}.	c #4C4C4C",
"|.	c #595A5A",
"1.	c #484848",
"2.	c #454545",
"3.	c #4D4E50",
"4.	c #4F5052",
"5.	c #474948",
"6.	c #4F5150",
"7.	c #494949",
"8.	c #555658",
"9.	c #464646",
"0.	c #4A4A4A",
"a.	c #4D4D4D",
"b.	c #4E504F",
"c.	c #4D4F4F",
"d.	c #4E4F50",
"e.	c #4C4E50",
"f.	c #4A4B4D",
"g.	c #4C4D4F",
"h.	c #4D4E4E",
"i.	c #4F5050",
"j.	c #515353",
"k.	c #525354",
"l.	c #535455",
"m.	c #545555",
"n.	c #545656",
"o.	c #525454",
"p.	c #525353",
"q.	c #474849",
"r.	c #4C4D4D",
"s.	c #565757",
"t.	c #545554",
"u.	c #4E4F4F",
"v.	c #4C4D4C",
"w.	c #4A4B4B",
"x.	c #4A4B4A",
"y.	c #505151",
"z.	c #525355",
"A.	c #505153",
"B.	c #515151",
"C.	c #666666",
"D.	c #5D5D5F",
"E.	c #565658",
"F.	c #4B4B4D",
"G.	c #535355",
"H.	c #5F5E60",
"I.	c #5A5A5D",
"J.	c #59595C",
"K.	c #58575D",
"L.	c #4A4951",
"M.	c #4B4A52",
"N.	c #555459",
"O.	c #565657",
"P.	c #6A6A6A",
"Q.	c #5F6062",
"R.	c #575759",
"S.	c #4F4F51",
"T.	c #5F5F61",
"U.	c #5E5F61",
"V.	c #59585F",
"W.	c #545263",
"X.	c #504D65",
"Y.	c #4A446B",
"Z.	c #423B6D",
"`.	c #473F70",
" +	c #48436E",
".+	c #535066",
"++	c #58575F",
"@+	c #474747",
"#+	c #585859",
"$+	c #626263",
"%+	c #5E5E60",
"&+	c #4E4A6B",
"*+	c #43407E",
"=+	c #413F84",
"-+	c #403F8A",
";+	c #3F3F8D",
">+	c #3F3F8E",
",+	c #403F8C",
"'+	c #424082",
")+	c #494472",
"!+	c #534F63",
"~+	c #5C5C5D",
"{+	c #585858",
"]+	c #5D5F5F",
"^+	c #5D5E5F",
"/+	c #616060",
"(+	c #5E6060",
"_+	c #606161",
":+	c #4F4C66",
"<+	c #424183",
"[+	c #3F408F",
"}+	c #3F4190",
"|+	c #3F4191",
"1+	c #403F8B",
"2+	c #484478",
"3+	c #575560",
"4+	c #5D5C5D",
"5+	c #4F504F",
"6+	c #5E5F60",
"7+	c #5D5D5E",
"8+	c #56555F",
"9+	c #474274",
"0+	c #40408C",
"a+	c #424087",
"b+	c #4C4871",
"c+	c #585760",
"d+	c #5E5E5F",
"e+	c #5B5B5E",
"f+	c #4E4A68",
"g+	c #424185",
"h+	c #3F4090",
"i+	c #434184",
"j+	c #504C69",
"k+	c #5A595B",
"l+	c #585A5A",
"m+	c #505150",
"n+	c #59595B",
"o+	c #4B4871",
"p+	c #40408A",
"q+	c #474477",
"r+	c #53535F",
"s+	c #58585A",
"t+	c #56565D",
"u+	c #474576",
"v+	c #3F3E8C",
"w+	c #3F3E8B",
"x+	c #424083",
"y+	c #4E4C68",
"z+	c #525060",
"A+	c #43407D",
"B+	c #3F3D89",
"C+	c #3E3B85",
"D+	c #3D3376",
"E+	c #3D3172",
"F+	c #3E377E",
"G+	c #3E3C87",
"H+	c #3D3377",
"I+	c #3F3C88",
"J+	c #414188",
"K+	c #4D4A6D",
"L+	c #565758",
"M+	c #58575E",
"N+	c #565261",
"O+	c #4D4462",
"P+	c #423D7F",
"Q+	c #3E3A84",
"R+	c #3D3070",
"S+	c #3D2D6A",
"T+	c #3C255C",
"U+	c #3C2359",
"V+	c #3C2963",
"W+	c #3D2E6D",
"X+	c #3C2862",
"Y+	c #3C265E",
"Z+	c #3D3173",
"`+	c #3F3D8A",
" @	c #4C496D",
".@	c #575859",
"+@	c #554D64",
"@@	c #50396B",
"#@	c #48306A",
"$@	c #41367C",
"%@	c #3E3171",
"&@	c #3C255B",
"*@	c #3C2256",
"=@	c #3C2156",
"-@	c #3C2155",
";@	c #3C2257",
">@	c #3C2760",
",@	c #3E367C",
"'@	c #4C4E4D",
")@	c #5A4E63",
"!@	c #614172",
"~@	c #593775",
"{@	c #472F74",
"]@	c #3F2762",
"^@	c #3E2158",
"/@	c #422160",
"(@	c #3F225C",
"_@	c #3C2258",
":@	c #3D2B67",
"<@	c #3E3982",
"[@	c #414088",
"}@	c #4C496E",
"|@	c #525352",
"1@	c #585958",
"2@	c #595858",
"3@	c #7E6167",
"4@	c #AD8088",
"5@	c #A1788C",
"6@	c #6A4577",
"7@	c #462465",
"8@	c #40225D",
"9@	c #442264",
"0@	c #48236C",
"a@	c #432262",
"b@	c #3D2157",
"c@	c #3C245A",
"d@	c #3E3172",
"e@	c #413E84",
"f@	c #4B496D",
"g@	c #5B5B5C",
"h@	c #4A4C4B",
"i@	c #575051",
"j@	c #9A7373",
"k@	c #DAA49E",
"l@	c #DC9D9C",
"m@	c #A36782",
"n@	c #613471",
"o@	c #49246C",
"p@	c #452B70",
"q@	c #442669",
"r@	c #3F225B",
"s@	c #3D2A66",
"t@	c #413976",
"u@	c #4D4A68",
"v@	c #575959",
"w@	c #565756",
"x@	c #464847",
"y@	c #4B4C4B",
"z@	c #514A4B",
"A@	c #906B6C",
"B@	c #D29692",
"C@	c #E79695",
"D@	c #B97383",
"E@	c #6D4675",
"F@	c #453374",
"G@	c #36316E",
"H@	c #38255F",
"I@	c #3C2054",
"J@	c #3C245B",
"K@	c #423460",
"L@	c #4F4D5B",
"M@	c #555657",
"N@	c #565659",
"O@	c #4A4B4C",
"P@	c #666768",
"Q@	c #666667",
"R@	c #78686B",
"S@	c #A87177",
"T@	c #D17E84",
"U@	c #B16F7E",
"V@	c #634C75",
"W@	c #353871",
"X@	c #373770",
"Y@	c #392B62",
"Z@	c #3C2459",
"`@	c #3E2B5F",
" #	c #3D285C",
".#	c #3C2356",
"+#	c #3C2255",
"@#	c #3D2456",
"##	c #453956",
"$#	c #515055",
"%#	c #535453",
"&#	c #515152",
"*#	c #474848",
"=#	c #555556",
"-#	c #636362",
";#	c #626365",
">#	c #616264",
",#	c #636264",
"'#	c #776267",
")#	c #A56B77",
"!#	c #9E6479",
"~#	c #5F4870",
"{#	c #3E3F77",
"]#	c #52539A",
"^#	c #4D4695",
"/#	c #4D4E8B",
"(#	c #525B96",
"_#	c #4D538F",
":#	c #433971",
"<#	c #4A417B",
"[#	c #57568A",
"}#	c #503E62",
"|#	c #472E57",
"1#	c #4C4356",
"2#	c #6E6E6E",
"3#	c #666769",
"4#	c #646567",
"5#	c #606163",
"6#	c #636466",
"7#	c #646365",
"8#	c #736782",
"9#	c #7F7295",
"0#	c #6B658A",
"a#	c #5C5CA0",
"b#	c #5E66B3",
"c#	c #636EB4",
"d#	c #6472B1",
"e#	c #6374B3",
"f#	c #6272B1",
"g#	c #5660A0",
"h#	c #595DA9",
"i#	c #7271AF",
"j#	c #8C6688",
"k#	c #8C5169",
"l#	c #705A61",
"m#	c #555454",
"n#	c #696969",
"o#	c #5F5F60",
"p#	c #5C5F63",
"q#	c #656A85",
"r#	c #747790",
"s#	c #7376A4",
"t#	c #6970B8",
"u#	c #707DBD",
"v#	c #6475B7",
"w#	c #5A6DB2",
"x#	c #586BB1",
"y#	c #6575B5",
"z#	c #6270B7",
"A#	c #6A67BA",
"B#	c #997DA9",
"C#	c #BD7284",
"D#	c #995E68",
"E#	c #645C5D",
"F#	c #5E626E",
"G#	c #62667C",
"H#	c #646673",
"I#	c #6D71A3",
"J#	c #747CC0",
"K#	c #7280BE",
"L#	c #5D70B4",
"M#	c #5569B0",
"N#	c #5468B0",
"O#	c #5F71B4",
"P#	c #6B7ABB",
"Q#	c #6261B9",
"R#	c #867CA7",
"S#	c #B67D95",
"T#	c #BB717A",
"U#	c #775B60",
"V#	c #575656",
"W#	c #646363",
"X#	c #5C5F61",
"Y#	c #5C5E62",
"Z#	c #5E5F63",
"`#	c #6B6FA2",
" $	c #767EC0",
".$	c #707FBD",
"+$	c #5B6DB3",
"@$	c #596DB2",
"#$	c #6B7ABC",
"$$	c #6060B9",
"%$	c #7577A3",
"&$	c #92718F",
"*$	c #A66C7F",
"=$	c #725B5F",
"-$	c #505152",
";$	c #5A5A5B",
">$	c #5C5F60",
",$	c #6A6EA0",
"'$	c #757EC1",
")$	c #7583BF",
"!$	c #6072B5",
"~$	c #566AB1",
"{$	c #6274B6",
"]$	c #6D7CBC",
"^$	c #5F60B8",
"/$	c #666B9A",
"($	c #61577A",
"_$	c #6F5E7A",
":$	c #5F5C5C",
"<$	c #565858",
"[$	c #666B90",
"}$	c #6F76B9",
"|$	c #7985C3",
"1$	c #6F7FBB",
"2$	c #6173B5",
"3$	c #5A6EB3",
"4$	c #6F7EBD",
"5$	c #6B75BC",
"6$	c #6564B3",
"7$	c #4E5087",
"8$	c #3D4070",
"9$	c #505A75",
"0$	c #585D5F",
"a$	c #636374",
"b$	c #7269A6",
"c$	c #7677BE",
"d$	c #717CBF",
"e$	c #6977BB",
"f$	c #6473B9",
"g$	c #6976BB",
"h$	c #6B72BC",
"i$	c #6D65B6",
"j$	c #7F5F9D",
"k$	c #413D74",
"l$	c #3E5383",
"m$	c #466289",
"n$	c #516177",
"o$	c #5B5E64",
"p$	c #5C5E5C",
"q$	c #715A60",
"r$	c #9C5B7A",
"s$	c #9568A2",
"t$	c #7C64B3",
"u$	c #7361B5",
"v$	c #7862B3",
"w$	c #8865AA",
"x$	c #975E99",
"y$	c #A1476F",
"z$	c #5B4F7E",
"A$	c #496897",
"B$	c #4C6E9C",
"C$	c #6577A1",
"D$	c #646B7F",
"E$	c #4E5051",
"F$	c #7A585C",
"G$	c #AF5B64",
"H$	c #BC5B6F",
"I$	c #AF5981",
"J$	c #A85686",
"K$	c #A65484",
"L$	c #A9517F",
"M$	c #B34567",
"N$	c #B93A53",
"O$	c #B33449",
"P$	c #815679",
"Q$	c #566F9B",
"R$	c #687DAD",
"S$	c #7785B3",
"T$	c #666E86",
"U$	c #4E4F51",
"V$	c #5E5559",
"W$	c #714552",
"X$	c #8C4254",
"Y$	c #AF5863",
"Z$	c #BB5862",
"`$	c #C04D57",
" %	c #C03B47",
".%	c #C54750",
"+%	c #CB5257",
"@%	c #CA5055",
"#%	c #BB3E48",
"$%	c #955062",
"%%	c #686F8D",
"&%	c #6B7597",
"*%	c #6B7492",
"=%	c #5E6371",
"-%	c #545756",
";%	c #515254",
">%	c #414141",
",%	c #444444",
"'%	c #515252",
")%	c #614F54",
"!%	c #70374B",
"~%	c #762A47",
"{%	c #7D314B",
"]%	c #944B59",
"^%	c #B66065",
"/%	c #CE6265",
"(%	c #D76B6D",
"_%	c #DC7576",
":%	c #D07072",
"<%	c #A35355",
"[%	c #7C4C4F",
"}%	c #575659",
"|%	c #545559",
"1%	c #535356",
"2%	c #505252",
"3%	c #434343",
"4%	c #615054",
"5%	c #752947",
"6%	c #752847",
"7%	c #77374A",
"8%	c #A6595C",
"9%	c #CF6669",
"0%	c #D15E62",
"a%	c #CD5A5D",
"b%	c #B5585A",
"c%	c #6E5253",
"d%	c #555151",
"e%	c #575657",
"f%	c #584B4E",
"g%	c #673E4B",
"h%	c #6F3248",
"i%	c #703148",
"j%	c #743A48",
"k%	c #A03D44",
"l%	c #BD363E",
"m%	c #BF2A36",
"n%	c #BA2733",
"o%	c #983D42",
"p%	c #604E4F",
"q%	c #5B5D5E",
"r%	c #5B595C",
"s%	c #5F5558",
"t%	c #624E55",
"u%	c #634D55",
"v%	c #734D52",
"w%	c #A43B43",
"x%	c #BB2734",
"y%	c #BE2533",
"z%	c #B1343C",
"A%	c #7F4F51",
"B%	c #5E5959",
"C%	c #464749",
"D%	c #606062",
"E%	c #5D5E61",
"F%	c #656766",
"G%	c #5C5A5C",
"H%	c #7B5154",
"I%	c #AF353E",
"J%	c #BD2733",
"K%	c #BD2734",
"L%	c #A04145",
"M%	c #6B5655",
"N%	c #48494B",
"O%	c #5B5A5C",
"P%	c #7E4F53",
"Q%	c #B3323B",
"R%	c #BE2633",
"S%	c #A43E43",
"T%	c #6F5555",
"U%	c #59595A",
"V%	c #626363",
"W%	c #715356",
"X%	c #A13F45",
"Y%	c #B32F39",
"Z%	c #B43039",
"`%	c #A93A40",
" &	c #765353",
".&	c #5B595A",
"+&	c #555757",
"@&	c #616162",
"#&	c #4C4C4D",
"$&	c #575A5A",
"%&	c #5E585A",
"&&	c #77484C",
"*&	c #794C4E",
"=&	c #785152",
"-&	c #615656",
";&	c #504F51",
">&	c #575957",
",&	c #4D4E4D",
"'&	c #646564",
")&	c #5C5E5F",
"!&	c #636564",
"~&	c #515255",
"{&	c #57585B",
"]&	c #56585A",
"^&	c #555759",
"/&	c #535457",
"(&	c #525356",
"_&	c #4C4D4E",
":&	c #575758",
"<&	c #4D4D4F",
"[&	c #4B4C4E",
"}&	c #4D4D4E",
"|&	c #4A4A4C",
"1&	c #565859",
"2&	c #595B5D",
"3&	c #545657",
"4&	c #4E4E4F",
"5&	c #5F6163",
"6&	c #505154",
"7&	c #505254",
"8&	c #515253",
"9&	c #4F5251",
"0&	c #505051",
"a&	c #606061",
"b&	c #535454",
"c&	c #4A4A4B",
"d&	c #636465",
"e&	c #585959",
"f&	c #545455",
"g&	c #4F5051",
"h&	c #525254",
"i&	c #565558",
"j&	c #606160",
"k&	c #595B5C",
"  . + @ # # $ $ $ % & & & * = - @ ; ; ; ; @ @ @ @ # # $ & > , ; ' ) ' ! ; ; @ @ # # # $ $ % % ~ { ] > # ^ / / / ( _ : < [ [ [ [ ",
"} ' | @ @ @ # $ $ $ $ % % 1 = 2 3 @ ; @ @ @ @ @ @ # # $ % % , | ' ' ! 4 ; ; @ @ @ # $ $ $ $ 5 6 ~ ] 7 ; 8 9 0 a ( ( _ / [ [ [ [ ",
"b 8 c d e ^ f g 5 g 5 h i 6 j 2 k @ ; @ a e e e e # # $ $ % , | l ; ; ; @ @ @ @ # # $ $ $ $ 5 m n o p q r a a a ( _ _ / [ [ < s ",
"t u / v / / / [ [ [ w w w 6 ] ~ x ; @ a a a a v / # # $ $ & , 3 y ; ; ; @ @ @ # $ # $ $ $ % % w z A B C D [ a a _ _ _ [ [ [ E E ",
"F u / / / / [ [ [ [ w w z ~ ] ~ + ; @ a a a a / / g $ % % > G | y ; @ @ @ @ @ # # # $ $ % % i z H A I C J / / / _ _ E / f [ E 6 ",
"F D / / / / [ K K L m M n ~ ] { N d d a a / O O < 5 h w i P Q R + ; S e ^ ^ ^ f g g 5 h i i T z z U V W D / / / E E E s s L 6 ~ ",
"X 0 [ [ [ [ < E E 6 6 ~ ~ ~ Y Z ` 0 a / / / _ _ E s w w w H  .d ! ; d a / / / [ [ [ w w w z z H H ..X ! 4 / [ [ E E E 6 6 6 6 6 ",
"+.@.#.w w w s 6 6 $.$.%.{ Z ] &.O 9 / / / [ E *.=.s -.z z ;. .^ 3 @ @ / / / [ [ [ w w w w H H ;.;.>.X ! R [ [ w 6 2 E 6 6 ~ ~ ~ ",
",./ 5 w w z z M M M '.).!.Z ] &.[ a [ / / w s L s i z z z ;.~.h | @ f [ / [ w w w z z z H H H ;.{.].t ! S w z z M M n ~ ~ ~ { { ",
"^.> & & z z z z H H H ;.;.Z ] /.5 [ [ [ [ w w w z z z H H B (._.$ # f [ / w w w w z z z H ;.:.X <.[.}.$ |.z H H H H H { { { { { ",
"1.2.t ,.I p p p p I I I I ] 3.4.w w w w w z H H z z H H p  .5.^.& % % w w w H H H ;.;.;.p A 6.<.<.7.7.^.X ;.p p I p I 8.8.8.8.&.",
"9.0.a., b.b.].c.d.d.c.d.].e.f.g.h.i.j.k.l.m.o Y Y n.m.l.o.p.q.r.t F V I {.s.t.i.u.h.r.r.v.w.x.7.1.1.0.G y.>...j.p.U U z.] ] z.A.",
"B.) C.| a / / _ E E E 6 _ D.E.F.G.* H.( ( ( ( ( ( D.- I.J.K.L.M.N.O.@ # $ $ $ > ,.F t B., 0.7.7.1.1.0.t F B I p &.&.&.&.{ { &.&.",
"F P.. y C D ` Q.Q.( ( _ _ D.R.S.- D.T.U.( _ _ _ _ _ V.W.X.Y.Z.`. +.+++2 # $ $ $ $ % % % & ,.B.^.a.@+G | l r 9 / ( U.6 E E 6 6 6 ",
",.P.8 | 9 9 c U.U.( ( ( _ D.#+  $+%+%+( ( _ _ _ _ V.&+*+=+-+;+>+,+'+)+!+~+# $ $ $ % % % & |.> {+,.a.B.l | e ]+^+_ E E E E 6 6 6 ",
",.' y /+9 9 (+U.( ( ( _ _ e > ^._+a a ( ( _ _ _ =.:+<+[+}+|+|+|+|+}+1+2+3+4+$ $ 5 w w w z H H ;.p 5+B.C.S ( ( ( _ _ _ E E E 6 6 ",
",.P.3 4 0 0 0 6+( ( ( _ _ 7+> B.D / / _ _ _ _ _ 8+9+0+|+|+|+|+|+|+|+}+a+b+c+$ $ h w w w z H H I B 6.B.y d+( _ _ _ _ E E E 6 6 ~ ",
",.8 4 4 R 0 0 6+( ( ( _ _ 7+> B.D / / O _ _ _ e+f+g+}+|+|+|+|+|+|+|+|+h+i+j+k+$ w w w M M l+H A t.m+^.y d+( _ _ _ _ E E E 6 6 6 ",
",.y ; ; ; @ @ a a ]+_ _ _ ~+{+^.9 / / / / / [ n+o+p+|+|+|+|+|+|+|+|+|+|+0+q+r+5 #.w [ M ~ %.s+X X B.^.+ 7+( _ _ ( E E E E 6 6 6 ",
",.3 ; @ @ @ @ a a / _ _ _ f {+^.9 / / [ [ [ [ t+u+0+|+|+v+w+>+}+[+v+[+|+h+x+y+n w z w M %.{ R.F F B.^.! 7+_ _ E E E E 6 6 6 ~ ~ ",
"X ; # ; @ @ @ a e / _ _ _ f {+^.9 / [ [ [ [ [ z+A+>+B+C+D+E+F+G+F+H+I+|+|+J+K+#+w z z |.{ !.L+F F ^.^.! 7+_ E E E E E 6 6 6 ~ ~ ",
"X # ; + d a O _ _ _ _ E E [ ;.b.0 w w w m M+N+O+P+Q+R+S+T+U+V+W+X+Y+Z+`+|+J+ @.@w z H H ;.p A t F ^.G ! f E E E E E 6 ~ ~ ~ ~ { ",
"F # 3 3 e / O E _ _ E E 6 5 ;.].a w w z ~ +@@@#@$@%@&@*@=@-@*@;@=@=@>@,@[+J+ @R.z z z p A ..p.<.t ^., | 5 6 6 6 6 6 ~ 6 ~ { { { ",
"t $ $ $ / [ < E E E E 6 6 s ;.'@/ #.w z n )@!@~@{@]@*@^@/@(@=@-@-@-@_@:@<@[@}@L+z z H H z H A |@p.^.a.3 i 6 6 6 6 6 ~ { { { { { ",
"t # % $ [ [ < E E E 6 6 6 i p  .F > > 1@2@3@4@5@6@7@8@9@0@a@b@-@-@-@-@c@d@e@f@L+z H H ).Z { k.>...m+a.3 g@~ ~ ~ ~ ~ ~ { { { Z Z ",
"B.% $ g [ [ [ E E E 6 ~ 6 M p h@a., B._.i@j@k@l@m@n@o@p@q@r@=@-@-@-@-@;@s@t@u@L+H H H v@&.Z Y U U ].7.; |.~ { ~ { { { { { Z Z &.",
"h.B.V w@s.s.I &.&.&.8.] /.o ].x@a., }.y@z@A@B@C@D@E@F@G@H@=@I@-@-@-@-@=@J@K@L@;.;.;.;.p &.8.M@B ..x@7.a.F /./././././.8.&.N@8./.",
"0.~.I f _ _ _ *.E 6 6 6 E n E.O@y C.C.P@Q@R@S@T@U@V@W@X@Y@Z@`@ #-@*@.#+#@###$#A %#t <.B.&#<.^.a.1.*#7.a.<.=#{+#+Z Z Z 8./.] ] ] ",
", U a S ( ( ( ( ( _ _ _ _ _ * } 3 ! -#;#>#,#'#)#!#~#{#]#^#/#(#_#:#<#[#}#|#1#Y I V 7 ,.,.,.X B., 7.@+B.) 2#) . ' 3#4#>#5#U.( ( E ",
"G 0 0 a ( ( ( _ _ _ ( _ _ - * } $++ y 4#4#6#7#8#9#0#a#b#c#d#e#f#g#h#i#j#k#l#D D c c ; @ # @ # % {+7.m#. n#! ; o#( _ E _ _ _ E E ",
"G 0 9 O ( ( ( ( _ _ _ E E 2 & ^.4 @ @ a e / p#q#r#s#t#u#v#w#x#w#y#z#A#B#C#D#E#[ [ w w m ~ ~ ~ Z Z S.X ' ; a a a a a / / f a E E ",
", p 0 e ( ( _ _ _ _ E E E $ > G ; @ @ a a / F#G#H#I#J#K#L#M#N#M#O#P#Q#R#S#T#U#w w w w m ~ ~ { { Z 4.V#W#d a a a a / / a / / E E ",
"5+/ 0 e ( ( _ _ _ _ E E E 5 > , ; @ @ a a / X#Y#Z#`# $.$+$N#N#N#@$#$$$%$&$*$=$w w w w m ~ { { { Z -$,.+ d a a a / / / / [ [ E E ",
", P d @ / O O < < < E 6 6 ;$> , 4 @ @ ^ / / / / >$,$'$)$!$~$N#~${$]$^$/$($_$:$w w w z z z |.v@v@<$6.V W a a / / : _ *.E E E 6 6 ",
"}.7 @ # / / / [ [ [ E 6 6 ;${+[.4 # @ ^ / / / / [ [$}$|$1$2$3${$4$5$6$7$8$9$0$w w w z z z H H ;.I 6.B D a a / / _ E E E E 6 6 6 ",
"0.X # % [ [ [ [ [ [ 6 6 6 i {+0.3 # # / / [ [ [ [ a$b$c$d$e$f$g$h$i$j$k$l$m$n$o$z z z z H H H p B 6.U 9 / / p$/ E E E E 6 6 6 $.",
"0.F $ % h h h w w w w w M z ;.~.C a g f [ [ E L L q$r$s$t$u$u$v$w$x$y$z$A$B$C$D$M H H H ;.;.v@8./.E$B.| f E E E _ E E E 6 6 6 6 ",
"7.<.% & % % % w w z w z H H ;.(.a / [ w w [ m ~ I.F$G$H$I$J$K$L$M$N$O$P$Q$R$S$T$l+H H H ;.;.<$] z.U$G 3 $ E E E 6 E E ~ 6 ~ ~ ~ ",
"2.G & & % & & w w z z H H ;.I ~.U [ [ w w w M ~ V$W$X$Y$Z$`$ %.%+%@%#%$%%%&%*%=%I I -%-%p p <$] ;%d.a.| 5 E E E 6 6 6 6 6 ~ ~ ~ ",
">%,%{+{+7 > & z w z z H H 1@'%[.h.P i w w w w z )%!%~%{%]%^%/%(%_%:%<%[%}%|%1%i.Q u.G G t.s.s.o.2%c.a.@ i E 6 6 6 6 ~ ~ ~ ~ { { ",
"3%2.t F X F 7 H ;.;.;.A U ^.[.[.}.,.1@H H z H H 4%!%5%6%7%8%9%0%a%b%c%d%B.^.^.G G G G G , ^.t U .. .[.,.g@~ 6 6 6 6 ~ ~ { Z { { ",
",%G ,.,.7 7 e%;.p I I U '@[.0.0.G B.'%>.>...2%>.f%g%h%i%j%k%l%m%n%o%p%^.^.^.^.B.B.<.<.<.B.G u.b.'@(.7., p.z.z.z.z.z.z.z.z.z.;%A.",
"9.9 [ |.M m K q%K K L L s X , }.5 ^ e O : E E E r%s%t%u%v%w%x%y%z%A%B%n ~ n+{ ).{ n ).).{ .@L+] O@C%g@D%T.E%( ( _ _ _ E E E ~ { ",
"5+F%0 d ( _ E E E _ E 6 6 {+B.^./ / w 6 K E E E 6 ~ J.G%H%I%J%K%L%M%n ~ ~ ~ 6 { { { ~ ~ { { { 6 ] N%2 * - _ _ E E E 6 6 6 ~ ~ ~ ",
"%#r 0 0 U.E%( U._ E E ( 6 & X ^./ / [ E E 6 6 6 6 ~ ~ O%P%Q%R%J%S%T%U%{ ~ ~ 6 ~ ~ ~ ~ ~ { { { 5#Z f.T.D.- E E E E E 6 6 6 ~ ~ { ",
"t V%d d ( ( ( ( ( ( _ E ~ |.w@y./ / w 6 6 6 6 6 6 ~ ~ * W%X%Y%Z%`% &.&n +&M M M M ~ ~ ~ { { { @&E.#&e < < E E E E E 6 6 6 ~ ~ ~ ",
"B.4 ; ; ( ( ( ( ( ( _ _ { $&p 6./ [ w 6 6 6 6 6 6 ~ ~ { %&W%&&*&=&-&1@;.A z z z M ~ ~ ~ { { ).{+X }.a [ [ E E E E E 6 6 6 { ~ ~ ",
"X + @ @ ( ( ( _ _ _ _ _ '.H I b.[ [ w 6 6 6 ~ ~ ~ ~ ~ { { n+;&X >&w@I >.'@p H z M ~ ~ ~ { Z .@7 X ,&a [ < E E E 6 6 6 ~ ~ ~ { { ",
"X '&e a ]+^+)&_ _ _ E E { ;.B b.[ w z 6 6 ~ ~ ~ ~ ~ { { Z Z U$z.L+Y -$.@m l.H H |.~ ~ { { { Z &.Y g.]+[ < 6 E 6 6 6 ~ ~ ~ ~ { { ",
"F !&a a a a / _ _ _ E E Z <$B b.w w z 6 6 ~ ~ ~ ~ ~ Z Z &.Z U$z.&.~&{&$.~ ).;.H l+{ { { { Z ]&^&/&g.a [ 5 6 6 6 6 6 ~ ~ { { Z Z ",
"F u / / / / O _ _ E E 6 Z p A ].w w z ~ ~ ~ { { { { { Z &.&.3.;%] /.6 ~ ~ M ;.H l+{ Z Z Z &.&./.(&_&0 w s 6 ~ ~ ~ ~ ~ { { Z Z Z ",
"%#u / / [ [ < E E E E 6 Z s.A '@w w z ~ ~ { { { { { { Z R.:&#&<&[&z.~ ~ { n <$l+).)..@.@.@:.s.=#l.}&@ i i M M M M l+|.).)..@Z Z ",
"A a [ [ [ [ < E E E 6 ~ 8.s.A  .z z ;.{ { { { Z &.&.&.&.O.X 7.|&3.4.Z { { Z &.&.1&p I I I I B t B.[.@ & T z z z z H H ;.;.[ L+/.",
"b.0 / [ w w w 6 6 6 2&~ L+p ..(.A B A 3&/.] ] ] z.A.A.A.4&2.@+O@5&=.A.A.A.A.6&7&8&>.6.6.b.b.].a.[.0.^.^.<.>.>.9&9&6.9&9&>.2%4.4.",
"~.i.m.w@s.p H |.* m ~+g@p.Q w.5.h.t.P l+{ { { { ~ ~ ~ ~ ;$% 4&0&;$a&^+: K 5 5 ~+K 5 < ;.A U b&F 4&c&[.4 C.'&!&N + '&+ + N N d&6#",
"[.^.% $ $ $ % & > > > > > X }.@+& $ % K 6 E E E 6 6 6 6 6 n+S.0&% % g [ w w % % ;$~ ~ e&F F f&j j |&X ' ; # # # # # # # @ 7+D.D.",
"}.& $ # $ $ $ % % % % & & > 7 , $ % % K E E 6 6 6 6 6 6 * * } B.& $ [ [ [ 5 % % m 6 ~ M 7 X =#= = 0&$ ) @ # # # # # $ $ $ $ 2 2 ",
"%#S 5 g [ [ [ [ w w m m n n+).g&i i h [ K K s m m m m 6 * * } Y u f [ [ [ [ 5 w i m M M #+= = = = b # ) @ # # # # f f g [ [ g@g@",
"b&/ [ [ [ [ [ [ w w 6 6 ~ { { U$l+D w [ [ w w w w w w z ;$I.} m.u / [ [ [ [ [ w w w z |.{ 8.8.= = } # ' @ # # # / / / / w [ % & ",
"t [ [ [ [ [ w w w w ~ ~ { Z Z U$H C w [ w w w w w w w z U%J.h&+&!&/ [ [ [ [ [ w w w z z ~ &.= E.i&} # ' # # # # / / / [ [ w h & ",
"t H [ [ [ w w m s s ~ ~ { Z &.g.5 j&w w w w w w w w i M ).n+h&m.a [ [ [ [ [ < s w i z n { &.8.E.E.} # P.# # # # / f f [ [ w g@i ",
"F H [ [ w w [ 6 6 6 ~ ~ { Z &.g.% % i w w w w w w m ~ ~ '.{ ;%Y a [ w [ [ < E 6 6 ~ ~ { { &.8.E.E.h&@ P.# # # # $ $ $ [ [ w 6 6 ",
"_.H [ w w w s 6 6 6 ~ ~ { Z &.[&& $ % w w w w w w M ~ { { { 4.V a [ [ w [ [ 6 6 6 ~ { { { &.8.E.E.h&; n#$ # # # $ $ $ [ [ w k&~ ",
"_.;.w w w w s 6 6 6 ~ ~ { Z Z f.e&% % w w w w w w ~ ~ { ).).4.m./ w w s 5 s 6 6 ~ ~ { { { Z 8.E.E.h&4 8 # # # # $ $ $ [ [ w ~ ~ "};
