/* XPM */
static char * down_2_xpm[] = {
"64 64 635 2",
"  	c #5B5D5C",
". 	c #5F6160",
"+ 	c #616362",
"@ 	c #626463",
"# 	c #636564",
"$ 	c #626362",
"% 	c #626262",
"& 	c #616161",
"* 	c #5E5E5E",
"= 	c #525252",
"- 	c #4D4D4D",
"; 	c #595A59",
"> 	c #666867",
", 	c #696B6A",
"' 	c #676968",
") 	c #656666",
"! 	c #636464",
"~ 	c #606060",
"{ 	c #5E5F5F",
"] 	c #606161",
"^ 	c #585858",
"/ 	c #4A4A4A",
"( 	c #4C4C4C",
"_ 	c #4F4F4F",
": 	c #555555",
"< 	c #5C5E5D",
"[ 	c #5D5F5E",
"} 	c #5E605F",
"| 	c #5F5F5F",
"1 	c #5B5C5B",
"2 	c #5A5C5B",
"3 	c #565857",
"4 	c #494A4A",
"5 	c #494949",
"6 	c #505050",
"7 	c #555656",
"8 	c #595B5A",
"9 	c #585A59",
"0 	c #5B5D5E",
"a 	c #5A5B5D",
"b 	c #565759",
"c 	c #4B4B4B",
"d 	c #686969",
"e 	c #676868",
"f 	c #646565",
"g 	c #656565",
"h 	c #666666",
"i 	c #5E5E5F",
"j 	c #545455",
"k 	c #696A69",
"l 	c #696A6A",
"m 	c #6A6B6A",
"n 	c #676767",
"o 	c #656665",
"p 	c #646564",
"q 	c #616261",
"r 	c #636363",
"s 	c #6C6C6C",
"t 	c #6D6E6D",
"u 	c #6C6D6D",
"v 	c #6B6C6B",
"w 	c #686968",
"x 	c #656766",
"y 	c #646464",
"z 	c #616262",
"A 	c #606162",
"B 	c #5D5E5E",
"C 	c #545555",
"D 	c #545454",
"E 	c #5D5D5D",
"F 	c #5D5E5F",
"G 	c #5C5E5E",
"H 	c #5A5C5D",
"I 	c #575859",
"J 	c #5C5C5C",
"K 	c #5B5B5C",
"L 	c #5B5B5D",
"M 	c #59595B",
"N 	c #575759",
"O 	c #5F5F60",
"P 	c #595959",
"Q 	c #515151",
"R 	c #6B6B6B",
"S 	c #6D6D6D",
"T 	c #5B5C5C",
"U 	c #5A5B5C",
"V 	c #58595B",
"W 	c #545557",
"X 	c #5E5E5D",
"Y 	c #5C5D5F",
"Z 	c #5B5C5E",
"` 	c #5B5D5D",
" .	c #575857",
"..	c #5B5B5B",
"+.	c #58585B",
"@.	c #58585A",
"#.	c #5A5A5A",
"$.	c #6A6A6A",
"%.	c #5D5E60",
"&.	c #5A5C5C",
"*.	c #575858",
"=.	c #5D5E5D",
"-.	c #5C5D5C",
";.	c #626263",
">.	c #585A5B",
",.	c #545656",
"'.	c #5C5F5E",
").	c #56575A",
"!.	c #636364",
"~.	c #535555",
"{.	c #606261",
"].	c #5B5C5D",
"^.	c #57585A",
"/.	c #4E4F4F",
"(.	c #595A5B",
"_.	c #5C5D5D",
":.	c #5A5B5B",
"<.	c #535554",
"[.	c #575958",
"}.	c #606160",
"|.	c #4E4E4F",
"1.	c #595B5B",
"2.	c #5F6060",
"3.	c #585958",
"4.	c #515251",
"5.	c #5E5F5E",
"6.	c #5A5B5A",
"7.	c #595A5C",
"8.	c #555658",
"9.	c #5E5F60",
"0.	c #4F5150",
"a.	c #525453",
"b.	c #565756",
"c.	c #4E4E4E",
"d.	c #5A5B5E",
"e.	c #595A5D",
"f.	c #58595C",
"g.	c #5B5C5F",
"h.	c #4E504F",
"i.	c #515252",
"j.	c #565656",
"k.	c #5F605F",
"l.	c #4D4E4E",
"m.	c #595B5C",
"n.	c #585A5A",
"o.	c #57595A",
"p.	c #535456",
"q.	c #4D4E4D",
"r.	c #585959",
"s.	c #4D4D4E",
"t.	c #595A5A",
"u.	c #525355",
"v.	c #545655",
"w.	c #4B4C4B",
"x.	c #565758",
"y.	c #565757",
"z.	c #555756",
"A.	c #535556",
"B.	c #4F5053",
"C.	c #4E4F51",
"D.	c #58595A",
"E.	c #575959",
"F.	c #484A4A",
"G.	c #4F5050",
"H.	c #505151",
"I.	c #555655",
"J.	c #555757",
"K.	c #535455",
"L.	c #4A4A4B",
"M.	c #505251",
"N.	c #4F5151",
"O.	c #505152",
"P.	c #4E5051",
"Q.	c #4C4D4F",
"R.	c #4E4F50",
"S.	c #505252",
"T.	c #555657",
"U.	c #545556",
"V.	c #515253",
"W.	c #494A4B",
"X.	c #4C4D4D",
"Y.	c #535454",
"Z.	c #525352",
"`.	c #505150",
" +	c #4B4C4C",
".+	c #4A4B4A",
"++	c #484848",
"@+	c #515352",
"#+	c #505153",
"$+	c #484949",
"%+	c #4C4C4E",
"&+	c #5C5C5F",
"*+	c #5C5C5E",
"=+	c #4F4F50",
"-+	c #565657",
";+	c #575757",
">+	c #535353",
",+	c #565859",
"'+	c #49494B",
")+	c #626363",
"!+	c #5F6061",
"~+	c #5E5F61",
"{+	c #4F4F51",
"]+	c #5A5A5C",
"^+	c #5D5D5F",
"/+	c #5F5F61",
"(+	c #525254",
"_+	c #59595A",
":+	c #5C5C5D",
"<+	c #5C5E5F",
"[+	c #515153",
"}+	c #5E5E60",
"|+	c #535355",
"1+	c #5D5F5F",
"2+	c #4F5052",
"3+	c #5C5D5E",
"4+	c #5A595B",
"5+	c #606061",
"6+	c #5D5D5E",
"7+	c #545554",
"8+	c #5B5E5D",
"9+	c #5A5D5C",
"0+	c #565858",
"a+	c #505154",
"b+	c #59585E",
"c+	c #595762",
"d+	c #56545F",
"e+	c #58575F",
"f+	c #5A5A5D",
"g+	c #5C5B5C",
"h+	c #51505E",
"i+	c #474369",
"j+	c #474278",
"k+	c #473F80",
"l+	c #4B3F7F",
"m+	c #4F4078",
"n+	c #564866",
"o+	c #59555D",
"p+	c #525353",
"q+	c #585A5C",
"r+	c #504F66",
"s+	c #43417F",
"t+	c #42408A",
"u+	c #523F88",
"v+	c #773774",
"w+	c #913165",
"x+	c #A02F59",
"y+	c #9B3355",
"z+	c #6F3F64",
"A+	c #595360",
"B+	c #514F59",
"C+	c #474472",
"D+	c #403F8E",
"E+	c #533E8A",
"F+	c #773878",
"G+	c #7C3979",
"H+	c #6B3B81",
"I+	c #6C3F84",
"J+	c #934E7F",
"K+	c #7A4078",
"L+	c #5A4468",
"M+	c #56555C",
"N+	c #4C4E4D",
"O+	c #4A4763",
"P+	c #403D81",
"Q+	c #404190",
"R+	c #4B3F8D",
"S+	c #5B3D88",
"T+	c #553F8B",
"U+	c #514790",
"V+	c #9E789A",
"W+	c #D2A4A8",
"X+	c #956B91",
"Y+	c #523D7E",
"Z+	c #4F4E66",
"`+	c #4D4F4E",
" @	c #484A49",
".@	c #4B4B4C",
"+@	c #444267",
"@@	c #3E3C88",
"#@	c #3F4191",
"$@	c #454592",
"%@	c #7A6698",
"&@	c #D7B1B0",
"*@	c #DAB4AC",
"=@	c #976F8A",
"-@	c #523E87",
";@	c #4A486D",
">@	c #555556",
",@	c #474948",
"'@	c #545657",
")@	c #4A4B4B",
"!@	c #4D4E4F",
"~@	c #656564",
"{@	c #646566",
"]@	c #636465",
"^@	c #616264",
"/@	c #5F6062",
"(@	c #514F58",
"_@	c #494372",
":@	c #4A3F8C",
"<@	c #4D408F",
"[@	c #3F4090",
"}@	c #57498D",
"|@	c #A97F95",
"1@	c #E9BBB1",
"2@	c #BF8C8C",
"3@	c #844E69",
"4@	c #513D82",
"5@	c #444274",
"6@	c #4F4E59",
"7@	c #535453",
"8@	c #515152",
"9@	c #626365",
"0@	c #585864",
"a@	c #6C4E76",
"b@	c #8F588B",
"c@	c #85588E",
"d@	c #3D4191",
"e@	c #393F89",
"f@	c #625174",
"g@	c #D0A8A3",
"h@	c #EFC5B7",
"i@	c #BC9B9D",
"j@	c #6A495A",
"k@	c #3E2F72",
"l@	c #423D77",
"m@	c #504F62",
"n@	c #696969",
"o@	c #535354",
"p@	c #626465",
"q@	c #626364",
"r@	c #616263",
"s@	c #606062",
"t@	c #5C5865",
"u@	c #4F4765",
"v@	c #7E5574",
"w@	c #BD7B8E",
"x@	c #BC8197",
"y@	c #786F9F",
"z@	c #9C95AA",
"A@	c #887672",
"B@	c #EAC9B9",
"C@	c #F6D4C3",
"D@	c #DECEC8",
"E@	c #948383",
"F@	c #554171",
"G@	c #423B7C",
"H@	c #52516D",
"I@	c #4C4C4D",
"J@	c #575656",
"K@	c #575363",
"L@	c #4D3B6A",
"M@	c #6A4773",
"N@	c #AA7383",
"O@	c #C2808D",
"P@	c #B1869E",
"Q@	c #E3C0BE",
"R@	c #CDB1A4",
"S@	c #F3D0BF",
"T@	c #F6CEBF",
"U@	c #F7DBCE",
"V@	c #D2AEA7",
"W@	c #816182",
"X@	c #423A86",
"Y@	c #494776",
"Z@	c #56565D",
"`@	c #4D4F4F",
" #	c #564C65",
".#	c #4B2C6B",
"+#	c #63326C",
"@#	c #8B4971",
"##	c #B06375",
"$#	c #E19996",
"%#	c #F1C5B7",
"&#	c #F1CABB",
"*#	c #EEC0B4",
"=#	c #EFC6B8",
"-#	c #D7A49F",
";#	c #835D7B",
">#	c #3E3884",
",#	c #454279",
"'#	c #53515F",
")#	c #4C4E4E",
"!#	c #574A75",
"~#	c #5E558F",
"{#	c #635E92",
"]#	c #71426F",
"^#	c #AE677A",
"/#	c #CF9796",
"(#	c #DDADA5",
"_#	c #D3A39D",
":#	c #CB9C9A",
"<#	c #996877",
"[#	c #57305C",
"}#	c #3D3370",
"|#	c #48436D",
"1#	c #54535D",
"2#	c #575758",
"3#	c #5C5A6A",
"4#	c #65668E",
"5#	c #767FB2",
"6#	c #7E82B7",
"7#	c #7B6295",
"8#	c #7E6483",
"9#	c #9B858C",
"0#	c #AA6873",
"a#	c #9B626E",
"b#	c #937F8D",
"c#	c #7D7583",
"d#	c #5D536B",
"e#	c #4E445C",
"f#	c #53505A",
"g#	c #5A5A5B",
"h#	c #5D6068",
"i#	c #6A7093",
"j#	c #7579B0",
"k#	c #8479A9",
"l#	c #94819C",
"m#	c #797586",
"n#	c #8E888C",
"o#	c #907479",
"p#	c #9C797C",
"q#	c #998994",
"r#	c #969396",
"s#	c #8D8C90",
"t#	c #6E6E70",
"u#	c #626777",
"v#	c #696F97",
"w#	c #6F5E9B",
"x#	c #826591",
"y#	c #87858C",
"z#	c #5B5B67",
"A#	c #706273",
"B#	c #9A8B9A",
"C#	c #A19D9F",
"D#	c #B2B1B1",
"E#	c #919192",
"F#	c #979799",
"G#	c #797A7A",
"H#	c #656B81",
"I#	c #6A6E9A",
"J#	c #63548E",
"K#	c #6A5787",
"L#	c #6D6D8E",
"M#	c #61628C",
"N#	c #76607D",
"O#	c #99909A",
"P#	c #9F9EA0",
"Q#	c #B0B0B2",
"R#	c #919294",
"S#	c #797781",
"T#	c #64646A",
"U#	c #4F5051",
"V#	c #696E9A",
"W#	c #6D5089",
"X#	c #91527D",
"Y#	c #A66E92",
"Z#	c #7E618F",
"`#	c #5A4F66",
" $	c #7E6A8A",
".$	c #827795",
"+$	c #87809C",
"@$	c #73758C",
"#$	c #926885",
"$$	c #7C5E6B",
"%$	c #595958",
"&$	c #515254",
"*$	c #62687B",
"=$	c #676D98",
"-$	c #846592",
";$	c #C27C89",
">$	c #D49397",
",$	c #977685",
"'$	c #7F7989",
")$	c #9A869E",
"!$	c #9B97A0",
"~$	c #9F9EA4",
"{$	c #A1A3B0",
"]$	c #B9879A",
"^$	c #A66774",
"/$	c #71595B",
"($	c #4D4E50",
"_$	c #56585A",
":$	c #595B59",
"<$	c #5A5E63",
"[$	c #66698A",
"}$	c #A082A1",
"|$	c #DA9C99",
"1$	c #DAA29D",
"2$	c #9F969C",
"3$	c #7D819F",
"4$	c #8A848D",
"5$	c #939292",
"6$	c #939392",
"7$	c #9FA0A2",
"8$	c #9B838A",
"9$	c #AB6D74",
"0$	c #8A5B60",
"a$	c #504E4F",
"b$	c #525454",
"c$	c #575957",
"d$	c #725F71",
"e$	c #B98092",
"f$	c #DE9697",
"g$	c #B48892",
"h$	c #827A87",
"i$	c #886388",
"j$	c #815964",
"k$	c #846167",
"l$	c #7F6067",
"m$	c #8D696D",
"n$	c #845F6F",
"o$	c #A96371",
"p$	c #AC5F6B",
"q$	c #7D535A",
"r$	c #585859",
"s$	c #7F6266",
"t$	c #CB8B8D",
"u$	c #DC9596",
"v$	c #985976",
"w$	c #8F4863",
"x$	c #A43856",
"y$	c #9B2B42",
"z$	c #A42F3E",
"A$	c #972E41",
"B$	c #A52D3C",
"C$	c #A0334C",
"D$	c #AA4B62",
"E$	c #B65B6D",
"F$	c #905861",
"G$	c #4B4D4D",
"H$	c #474848",
"I$	c #756264",
"J$	c #AA7B7B",
"K$	c #BC7E81",
"L$	c #A35264",
"M$	c #BB5563",
"N$	c #C8595F",
"O$	c #BA4B53",
"P$	c #AD3D44",
"Q$	c #BC5058",
"R$	c #C2575E",
"S$	c #B8515A",
"T$	c #A14F5E",
"U$	c #955664",
"V$	c #7A5A60",
"W$	c #5C5D60",
"X$	c #5E605E",
"Y$	c #5D5F60",
"Z$	c #5E5B5E",
"`$	c #6B595F",
" %	c #815862",
".%	c #9A5964",
"+%	c #AF5F69",
"@%	c #B96468",
"#%	c #A85C62",
"$%	c #875255",
"%%	c #A8565F",
"&%	c #A8606E",
"*%	c #9B6069",
"=%	c #7F5A61",
"-%	c #65585D",
";%	c #5B595B",
">%	c #625862",
",%	c #7A5472",
"'%	c #805470",
")%	c #7E4B55",
"!%	c #6E565F",
"~%	c #5C585C",
"{%	c #6B4769",
"]%	c #6C4F75",
"^%	c #655362",
"/%	c #5D585B",
"(%	c #635863",
"_%	c #7E5271",
":%	c #8B4C6C",
"<%	c #824951",
"[%	c #5D5A5D",
"}%	c #5A595C",
"|%	c #6E5075",
"1%	c #704F77",
"2%	c #685061",
"3%	c #5D5758",
"4%	c #685356",
"5%	c #8C3841",
"6%	c #9C2737",
"7%	c #8D3B43",
"8%	c #5D5655",
"9%	c #585657",
"0%	c #6C3D4D",
"a%	c #713249",
"b%	c #694450",
"c%	c #5D5557",
"d%	c #695155",
"e%	c #8E3948",
"f%	c #98364E",
"g%	c #81454B",
"h%	c #5A5555",
"i%	c #5B4C50",
"j%	c #5F474E",
"k%	c #5B5053",
"l%	c #4F504F",
"m%	c #6F4F55",
"n%	c #913F5A",
"o%	c #894F75",
"p%	c #844350",
"q%	c #595356",
"r%	c #615356",
"s%	c #72464D",
"t%	c #72484F",
"u%	c #6F4C51",
"v%	c #565355",
"w%	c #555759",
"x%	c #4A4C4C",
"y%	c #4B4C4D",
"z%	c #494B4B",
"A%	c #4B4D4C",
"B%	c #555758",
"C%	c #595B5D",
"D%	c #494B4A",
"E%	c #525356",
"F%	c #535457",
"G%	c #484948",
"H%	c #525253",
"I%	c #616163",
"J%	c #555557",
"K%	c #545456",
"L%	c #4D4D4F",
"M%	c #686868",
"N%	c #565658",
"O%	c #565558",
"P%	c #535254",
"Q%	c #505051",
"R%	c #57595B",
"  . + @ @ # # $ % & & * = - ; @ > , , ' ) ! ~ { { . ] ^ / ( _ : ;   < < [ } } } } { | * 1 2 3 4 5 6 7 8 9 9 9 8 2       0 a b c ",
"d e ) f # f f f g h h g i j k l l m l l d d n ) o p o q - = r s t u v m l d w > x ) g y z A B C D E B } [ [ B F [ [ [ G G H I - ",
"n ~ * * E E E J J J K L M N O ~ ~ ~ ~ | | | | * * E J P Q J R S R g & ~ | ~ | | * E E J T U V W ; X * < < < F Y Z `       2  .Q ",
"g | * * E J J J J J ..K +.@.& | | * * * * * * E E J ..#.= * $.$.y ~ | | * * * E J J J J T a V W P ~ o . } [ %.%.Y <       &.*.= ",
"% | B =.E -.J J T T ..K @.@.;.| | * [ * * * B E E J J #.= * n & | | | * * * E E J J J J T a >.,.; n ! [ [ [ %.Y Y <     ` &.I _ ",
"} '.< < <       2 2 2 U ).b !.~ * [ [ [ [ '.< E E J J #.= | g | | | * * * * J E J J J ....2 9 ~.3 + {.< [ [ Y Y Y       Z ].^./.",
"[ < < <         2 2 8 (.).b z ~ * [ [ [ [ < < _.J ....P = * g | * * * * * E E E J J ....:.8 9 <.[.}.. < < < Y Y 0 <     Z a ^.|.",
"<   < <   ` ].T &.U 1.(.).b A 2.{ [ [ [ B G ` T 1 ....3.4._.y | 5.* =.B B _._._.T T :.:.6.8 9 <. .q ] < < < Y Z Z &.&.T a 7.b |.",
"          Z Z a a a 7.7.b 8.9.. [ < < < Y Y Z &.2 2 2 [.0.T r | | [ < < <       2 2 2 8 8 9 [.a.b.% 2.<     Z Z Z a a a a a b c.",
"  2 2 2 2 H d.e.e.f.V V b W _.. < < <   ].g.d.&.2 8 8 [.h.6.% * * < < <       2 2 2 2 9 9 [.3 i.j.% k.    2 a Z Z a a 7.a 7.^.l.",
"T 1 2 8 8 1.m.1.>.n.o.^.b p.` [   < < 2 2 H &.:.8 8 8 3 q.r.& * E   <   2 2 2 8 8 8 9 9 9 [.b.h.D & * 2 8 8 1.1.7.7.7.7.V V b s.",
"t.#.8 8 8 8 8 9 9 [.[.I 8.u.U         2 2 2 8 8 8 9 9 v.w.i.J E E   < 2 2 2 2 8 8 8 9 [.3 : = ( _ ..; 8 9 n.9 9 9 V V V V V x.( ",
"Q j.y.3 3 3 3 3 z.z.z.A.B.C.D.8 1.2 :.8 8 9 8 8 9 E.z.h.F.G.P ....2 2 2 8 3.[.3 3 3 z.<.H.Q 6 / / i.I.3 3 3 3 3 J.8.8.8.8.8.K.L.",
"_ G.H.M.0.N.N.O.N.N.0.P.Q.Q.R.S.~.,.,.T.,.7 T.J.,.U.K.V.W.X.Y.: b.3 3.*.I.Z.`.h./.l.q. +.+/ 5 ++/ _ 4.@+a.a.Y.<.Y.p.W W u.#+R.$+",
"g ~ <     ].a a a 7.a L @.%+V.@.&+Y Y Y Y Y Y *+L U M @.=+|.-+;+E E J J ..P j.D >+i._ c / / 5 ++c >+7 z.3 3 ,+I b b V V b b u.'+",
"R n )+{.. !+~+%.%.%.Y Y M {+]+^+/+~+%.Y Y Y Y Y *+*+]+M (+_+:+E E E E J J J ....#.#.P : Q 6 - 5 6 ~ f {.} < <+%.a Z Z a a a ^.%+",
"$.r }.. . ~+~+%.%.%.Y ^+]+[+i 9.}+%.%.Y Y Y Y Y *+*+L M |+:+| E * E E E J J J ......#.t.3.;+: c.>+f ] 1+1+F Y Z Z Z Z a a a ^.2+",
"n q . . } ~+~+%.%.%.Y F ..= B [ [ F %.Y Y Y Z Z Z a Z ]+|+^+~ E E E E E J J T 2 2 2 8 9 9 [.z.0.D r | %.%.%.Y Y Y Z Z Z 7.a ^.C.",
"g ~ 2.} } 9.~+%.%.%.Y B ..Z.[ [ < 3+Y Y Y Y Z Z Z a a 4+|+i 5+* E E E E J J 1 2 2 2 8 9 9 z.v.`.>+r { %.Y Y Y Y Z Z Z a a 7.,+P.",
"% ~ ~ { } } 9.%.%.%.Y 6+..Z.[ [ < G Y Y Y Y Z Z Z a U M |+i & * =.< E E J J 1 2 2 1.1.n.r.C 7+`.>+r i %.Y Y Y Y Z Z Z a a a ^.O.",
"~ | ~ * * [ [ 1+Y Y Y _.#.= =.< < < < <       &.2 2 :.P >+* ~ E E < 8+8+9+9+  2   1.7.f.@.: D 6 >+% i %.Y Y Y Z Z Z Z a a a I H.",
"| * * * * [ [ < Y Y Y _.#.4.=.< < <         2 2 2 8 6.P >+E ~ E E <         2 8 2 1.f.V N D D 6 >+& 6+Y Z Z Z Z Z a a a 7.7.).6 ",
"E | * * * [ [ < Y Y Y _.#.4.=.< <           &.2 2 8 8 P i.J i :+E <       2 2 8 8 t.V o.x.D D 6 >+& 6+Y Z Z Z Z Z a a a 7.7.)._ ",
"E y { [ < Y Y Y Y Y Z ` 9 M.<   2 2 2 2 a a a 1.8 8 8 0+a+b+c+d+e+f+g+T 2 2 2 8 9 9 [.3 <.>+>+6 = & 3+Z Z Z Z Z a 7.7.7.7.V x.G.",
"E y { < G Z Y Y Z Z a T 9 0.    2 8 8 2 U e.a 1.8 8 I h+i+j+k+l+m+n+o+:.2 8 8 8 8 3 v.<.p+= >+6 6 O ].a a a a a 7.a 7.V V V 8.G.",
"J E <     Z Z Z Z a a &.9 h.8 2 1 8 8 9 8 q+>.r.[.[.r+s+t+u+v+w+x+y+z+A+1.8 8 8 9 9 n.E.<.Z.p+6 _ ~ T a a a a 7.7.V V V V V 8.G.",
"J g+      Z Z Z a a a 2 [.h.Z.;+3.3.[.[.[.;+;+j.: B+C+D+E+F+G+H+I+J+K+L+M+8 8 9 9 D.^.^.K.i.@+0._ ~ U 7.7.7.7.7.7.V V V ^.^.8.h.",
"..T       ].Z Z a 7.7.(.3 N+q.c.6 H.M.@+4.Q >+D >+O+P+Q+R+S+T+U+V+W+X+Y+Z+[.9 9 9 [.b ^.W a.@+l.( ..; V V V V V V V V ^.b b p.`+",
"7+y.0+x.3 b b b b W W U.0. @/.Q Q G.G.h./.s. +.@.++@@@#@Q+#@$@%@&@*@=@-@;@>@*. .3 y.8.T.U.<.0.,@5 c.>+W U.W W W W 8.8.'@W p.C.)@",
"a.T Z Z Z Z Z Z Z a a 7.x.!@5+y ~@{@{@]@^@/@7.b (@_@:@<@#@[@}@|@1@2@3@4@5@6@7@>+= Q 8@Q _ - 5 ++c = ^ J * 6+3+Z a 7.V ^.^.b [+5 ",
"2 [ %.%.%.%.%.Y %.Y Y Y ]+(+~ r r ]@9@9@9@9@^@^@0@a@b@c@d@e@f@g@h@i@j@k@l@m@*.^ ;+;+;+j.D Q  +5 D $.s R n@n {@9@/@~+%.Y Y Z M =+",
"[ [ %.%.%.Y Y Y %.Y Y *+]+o@5+r !.]@p@9@q@r@s@t@u@v@w@x@y@z@A@B@C@D@E@F@G@H@6+* B E :+6+K #.y.I@J@$.e )+| 2.9.F 3+Y Y 3+Z Z V |.",
"} [ %.%.%.%.%.Y Y Y Z ].#.= * | | { { [ B < _.K@L@M@N@O@P@Q@R@S@T@U@V@W@X@Y@Z@2 2 U 7.7.7.@.b 2+^ n }.[ [ [ [ [ < < < =.Z Z V `@",
"[ [ %.%.Y Y Y Y Z Z Z T #.Q * * * [ [ < < <      #.#+#@###$#%#&#*#=#-#;#>#,#'#2 2 U 7.V V V b #+^ % } [ [ [ < < < [ < ` Z Z V )#",
"} [ F %.Y Y Y Y Z Z Z T P 6 * * * * [ < < <     c+!#~#{#]#^#/#(#_#:#<#[#}#|#1#2 2 2 7.V V V b O.2#% { [ [ [ < < < `   ` Z Z V )#",
"=.* < < < ` ` ` Z Z a :.P 6 * * * B < < < <   ` 3#4#5#6#7#8#9#0#a#b#c#d#e#f#>.2 8 8 8 8 E.E.y.M.y.{.[ [ < < 3+Y g.g.g.Z a a ^.X.",
"E E <   <       ].a a g#P c.* E * =.< < < <   &.h#i#j#k#l#m#n#o#p#q#r#s#t#2 2 8 8 8 8 9 9 [.z.M.z.} < [ < < Y Z Z Z Z a a a V I@",
"..g+            a a a :.^ c.* * E E <     T   &.u#v#w#x#y#z#A#B#C#D#E#F#G#9 8 8 8 8 9 9 9 3 v.M.C } _.< < < Z Z Z Z a a a 7.V w.",
"#.........2 2 2 2 2 8 8 [.`+< [ <       ].a a a H#I#J#K#L#M#N#O#P#Q#R#S#T#8 9 9 9 9 [.[.E.8.p.U#= | _.Z Z Z Y Z Z Z a a 7.a ^. +",
"^ #.......2 2 8 8 2 9 9 [.`+9 <   2 2 2 U 7.a 7.H#V#W#X#Y#Z#`# $.$+$@$#$$$%$9 9 9 9 [.[.0+p.&$R.Q ~ _.Z Z Z a Z a 7.a 7.7.7.o.X.",
"j.#.#...#.2 2 8 8 8 9 9 3 N+`.8   2 2 2 1.7.7.7.*$=$-$;$>$,$'$)$!$~${$]$^$/$<.<.<.<.b.3 0+p.&$($_ | :+Z Z Z a a a a a 7.7.7._$X.",
"= ^ j.P ^ 8 8 8 8 9 3. .>+( c.b.6.:.2 2 2 8 9 :$<$[$}$|$1$2$3$4$5$6$7$8$9$0$a$_ _ 6 >+I.7 b$S.`+l...:.Z a a a a 7.7.7.7.V V _$ +",
"_ >+D : : b.3 3 3 v.@+Q ( c - = ;+r.9 9 9 9 [.c$z.d$e$f$g$h$i$j$k$l$m$n$o$p$q$_ _ _ _ _ Q Z.M. +( : t.7.7.7.7.7.7.V V V V ^.8.4 ",
"b.^ r$r.^ 9 9 [.*.z.M.l.c c 6 >+D Y.Y.Y.Y.b$p+@+M.s$t$u$v$w$x$y$z$A$B$C$D$E$F$D Y.D >+i.4.0.G$4 - >+7 T.8.W 8.8.8.W W 8.p.u.#+H$",
"< 2 (.U ].0 Z ].a U 1.;+6 - *.    ` H a a a 7.V D.I$J$K$L$M$N$O$P$Q$R$S$T$U$V$D.D.D.D.I x.W Q.W.]+i ^+W$Y Z Z Z a a a 7.7.V b $+",
"} X$Y$%.Y Y Z Y Y a a _+D _ 2 < &.H a Z Z a a 7.7.Z$`$ %.%+%@%#%$%%%&%*%=%-%;%V 7.7.V V V Z W %+L *+*+Z Y Z Z Z a a a 7.7.7.).X.",
"} } ~+~+%.%.%.Y Z Y Z g#;+6   <   ].Z a a a a 7.7.a V >%,%'%)%!%~%{%]%^%/%7.7.7.7.7.V V (.~+^.R.^+*+*+Z Z Z Z Z a a 7.7.7.V ^.s.",
"| | %.%.%.%.%.%.Y Y 7.8 *.M.T < 2 U a a a a a 7.7.7.V (%_%:%<%[%}%|%1%2%3%8 1.7.7.7.V V V 6+-+/._.    Z Z Z Z Z a a a V 7.7.^.s.",
"* | %.%.%.Y Y %.Y Y (.n.0+M.    2 U a a 7.7.7.7.7.7.V 4%5%6%7%8%9%0%a%b%c%8 1.7.7.7.V V D.*.: /.<   ` Z Z Z Z Z a a a V 7.V b s.",
"| * %.%.%.Y Y Y Y Y 7.n.3 0.2   2 U a a a 7.7.7.7.7.V d%e%f%g%h%>@i%j%k%%$8 1.7.7.7.V ^.I ;+C l%<   ` Z Z Z a a a 7.7.7.V V b - ",
"{ [ [ B G 3+Y Y Z Y V E.z.0.2 2 8 U a 7.7.7.7.7.V V ^.m%n%o%p%q%u.^.4+8.r.9 n.V V V V ^.^.b A.P._.  ].a a a a a 7.7.V V V V b X.",
"} [ [ [ < Y Y Y Z Z o.*.z.0.2 2 8 U a 7.7.7.7.7.V V b r%s%t%u%v%^.7.7.>.[.9 n.V V V V ^.b w%p.P.<   T a a a a a 7.7.V ^.^.^.8.G$",
"} < < < < Y Y Z Z Z ^.0+v.h.8 2 8 (.7.7.V V V V V ^.b x.2+2+u.W V 7.V 1.0+9 n.V ^.^.^.b b W u.C.< 2 &.a 7.7.7.7.7.V V b ^.^.8.x%",
"} <       Z Z Z a a ^.x.v.`+9 2 8 (.V V V V V V ^.^.N 7 |.y%Q.#+^.V 7.>.b D.D.r.*.*.*.0+J.: p+_ J :.:.8 8 8 1.n.n.E.[.E.b b W z%",
"< 2       Z Z Z a a b y.<.A%3 9 [.D.D.^.^.^.b b b b T.p+/ L.C.&$W b b 8.8.8.B%z.7 v.v.~.7@= 6 - #.P t.; 9 9 9 9 [.[.[.&.8.W u.,@",
"<     T 2 ].a a C%C%b J.@+D%M.@+a.U.W p.p.p.p.u.u.&$[+- 5 y%%.%.x.p.E%p.F%W U.v.Y.p+0.h.l%_ ( / - >+;+3 3 z.z.z.z.z.z.T.x.8.8.)#",
"7@I.I.z.*.r._+g#..:.j l% +G%l%*.1 T a a a a Z a a a ]+@.H%=+_+6+].&.1.1.g#g#g#(.(.y.Y.7@7@o@=+.@=+% r % z q q q q & q z I%I%^@(.",
"P ....J T ..#.......P ;+= 5 ^ ....U a a a Z a a a 7.]+M (+=+P J -.  2 2 ....:.7.7.t.j.: : J%K%L%P n@~ * E E E E E E E E *+*+L |+",
"..E J J J J ........#.#.^ Q #.....].Z Z Z a a a a a a 7.|+8@E J         ..#.g#a 7.1.^ >@>@J%J%H%E $.| E E E E E J J J J L L M (+",
"            T 2 U U 7.V @.V.r.2 1   ` &.&.&.&.&.U m.]+]+K%o@@ [           1 2 &.1.(.N 8.J%J%J%o@* $.| E E E < < <       K ..#.= ",
"              2 U a 7.V ^.V.I #   <   2 2 2 2 2 2 8 (.7.K%K.@ [ <         2 2 2 8 t.V 8.8.J%J%(+* M%| E E E < < <       ..#.P = ",
"        2 2 2 2 m.V V ^.^.#+E.{.    2 2 2 2 2 2 2 2 D.M K%C {.[           2 2 2 8 8 f.b W N%O%P%* M%| E E E < < <     2 J #.P = ",
"8   2 2   &.U U 7.7.V V b 2+r${ T 2 2 2 2 2 2 2 m.1.V V p.b$<           ].U U m.1.(.V b 8.N%N%o@* M%| E E E -.-.-.    2 K U _+Q%",
"8   2 2   H a a 7.7.V ^.b 2+r$....2 2 2 2 2 2 :.7.7.>.R%u.K.<           Z a a 7.7.(.V b 8.N%N%o@* M%| E E E J J J     2 a a M Q%"};
