/* XPM */
static char * down_1_xpm[] = {
"64 64 652 2",
"  	c #5B5D5C",
". 	c #5F6160",
"+ 	c #616362",
"@ 	c #626463",
"# 	c #636564",
"$ 	c #626362",
"% 	c #626262",
"& 	c #616161",
"* 	c #5E5E5E",
"= 	c #525252",
"- 	c #4D4D4D",
"; 	c #595A59",
"> 	c #666867",
", 	c #696B6A",
"' 	c #676968",
") 	c #656666",
"! 	c #636464",
"~ 	c #606060",
"{ 	c #5E5F5F",
"] 	c #606161",
"^ 	c #585858",
"/ 	c #4A4A4A",
"( 	c #4C4C4C",
"_ 	c #4F4F4F",
": 	c #555555",
"< 	c #5C5E5D",
"[ 	c #5D5F5E",
"} 	c #5E605F",
"| 	c #5F5F5F",
"1 	c #5B5C5B",
"2 	c #5A5C5B",
"3 	c #565857",
"4 	c #494A4A",
"5 	c #494949",
"6 	c #505050",
"7 	c #555656",
"8 	c #595B5A",
"9 	c #585A59",
"0 	c #5B5D5E",
"a 	c #5A5B5D",
"b 	c #565759",
"c 	c #4B4B4B",
"d 	c #686969",
"e 	c #676868",
"f 	c #646565",
"g 	c #656565",
"h 	c #666666",
"i 	c #5E5E5F",
"j 	c #545455",
"k 	c #696A69",
"l 	c #696A6A",
"m 	c #6A6B6A",
"n 	c #676767",
"o 	c #656665",
"p 	c #646564",
"q 	c #616261",
"r 	c #636363",
"s 	c #6C6C6C",
"t 	c #6D6E6D",
"u 	c #6C6D6D",
"v 	c #6B6C6B",
"w 	c #686968",
"x 	c #656766",
"y 	c #646464",
"z 	c #616262",
"A 	c #606162",
"B 	c #5D5E5E",
"C 	c #545555",
"D 	c #545454",
"E 	c #5D5D5D",
"F 	c #5D5E5F",
"G 	c #5C5E5E",
"H 	c #5A5C5D",
"I 	c #575859",
"J 	c #5C5C5C",
"K 	c #5B5B5C",
"L 	c #5B5B5D",
"M 	c #59595B",
"N 	c #575759",
"O 	c #5F5F60",
"P 	c #595959",
"Q 	c #515151",
"R 	c #6B6B6B",
"S 	c #6D6D6D",
"T 	c #5B5C5C",
"U 	c #5A5B5C",
"V 	c #58595B",
"W 	c #545557",
"X 	c #5E5E5D",
"Y 	c #5C5D5F",
"Z 	c #5B5C5E",
"` 	c #5B5D5D",
" .	c #575857",
"..	c #5B5B5B",
"+.	c #58585B",
"@.	c #58585A",
"#.	c #5A5A5A",
"$.	c #6A6A6A",
"%.	c #5D5E60",
"&.	c #5A5C5C",
"*.	c #575858",
"=.	c #5D5E5D",
"-.	c #5C5D5C",
";.	c #626263",
">.	c #585A5B",
",.	c #545656",
"'.	c #5C5F5E",
").	c #56575A",
"!.	c #636364",
"~.	c #535555",
"{.	c #606261",
"].	c #5B5C5D",
"^.	c #57585A",
"/.	c #4E4F4F",
"(.	c #595A5B",
"_.	c #5C5D5D",
":.	c #5A5B5B",
"<.	c #535554",
"[.	c #575958",
"}.	c #606160",
"|.	c #4E4E4F",
"1.	c #595B5B",
"2.	c #5F6060",
"3.	c #585958",
"4.	c #515251",
"5.	c #5E5F5E",
"6.	c #5A5B5A",
"7.	c #595A5C",
"8.	c #555658",
"9.	c #5E5F60",
"0.	c #4F5150",
"a.	c #525453",
"b.	c #565756",
"c.	c #4E4E4E",
"d.	c #5A5B5E",
"e.	c #595A5D",
"f.	c #58595C",
"g.	c #5B5C5F",
"h.	c #4E504F",
"i.	c #515252",
"j.	c #565656",
"k.	c #5F605F",
"l.	c #4D4E4E",
"m.	c #595B5C",
"n.	c #585A5A",
"o.	c #57595A",
"p.	c #535456",
"q.	c #4D4E4D",
"r.	c #585959",
"s.	c #4D4D4E",
"t.	c #595A5A",
"u.	c #525355",
"v.	c #545655",
"w.	c #4B4C4B",
"x.	c #565758",
"y.	c #565757",
"z.	c #555756",
"A.	c #535556",
"B.	c #4F5053",
"C.	c #4E4F51",
"D.	c #58595A",
"E.	c #575959",
"F.	c #48494C",
"G.	c #4D4D52",
"H.	c #56545A",
"I.	c #58565C",
"J.	c #59585C",
"K.	c #505151",
"L.	c #555655",
"M.	c #555757",
"N.	c #535455",
"O.	c #4A4A4B",
"P.	c #4F5050",
"Q.	c #505251",
"R.	c #4F5151",
"S.	c #505152",
"T.	c #4E5051",
"U.	c #4C4D4F",
"V.	c #4E4F50",
"W.	c #505252",
"X.	c #555657",
"Y.	c #545556",
"Z.	c #525255",
"`.	c #4C4959",
" +	c #423D66",
".+	c #433E73",
"++	c #443E7B",
"@+	c #453F79",
"#+	c #484270",
"$+	c #4C4765",
"%+	c #56555A",
"&+	c #525352",
"*+	c #505150",
"=+	c #4B4C4C",
"-+	c #4A4B4A",
";+	c #484848",
">+	c #515352",
",+	c #535454",
"'+	c #505153",
")+	c #484949",
"!+	c #4C4C4E",
"~+	c #515253",
"{+	c #5C5C5F",
"]+	c #5C5C5E",
"^+	c #57575C",
"/+	c #4E4B6B",
"(+	c #434180",
"_+	c #413F88",
":+	c #503D86",
"<+	c #713778",
"[+	c #8D3165",
"}+	c #9B315C",
"|+	c #90355C",
"1+	c #614565",
"2+	c #5A575E",
"3+	c #535353",
"4+	c #565859",
"5+	c #49494B",
"6+	c #626363",
"7+	c #5F6061",
"8+	c #5E5F61",
"9+	c #4F4F51",
"0+	c #5A5A5C",
"a+	c #5D5D5F",
"b+	c #5F5F61",
"c+	c #545165",
"d+	c #44407C",
"e+	c #3F408F",
"f+	c #5B3E88",
"g+	c #813673",
"h+	c #823774",
"i+	c #76397C",
"j+	c #7B3A7D",
"k+	c #8A3D76",
"l+	c #753A70",
"m+	c #5C4961",
"n+	c #5A595C",
"o+	c #5C5E5F",
"p+	c #515153",
"q+	c #5E5E60",
"r+	c #59585D",
"s+	c #4C4971",
"t+	c #3F3F8A",
"u+	c #46408F",
"v+	c #5A3E88",
"w+	c #673C82",
"x+	c #5F3D87",
"y+	c #56478F",
"z+	c #926C95",
"A+	c #C18F9C",
"B+	c #7E5388",
"C+	c #4F3E77",
"D+	c #565462",
"E+	c #575757",
"F+	c #5D5F5F",
"G+	c #4F5052",
"H+	c #55535D",
"I+	c #474578",
"J+	c #3F4190",
"K+	c #444190",
"L+	c #47408E",
"M+	c #3D4191",
"N+	c #3A4091",
"O+	c #655795",
"P+	c #D3A6A9",
"Q+	c #EDBEB4",
"R+	c #A16E91",
"S+	c #534288",
"T+	c #4E4C69",
"U+	c #5A595B",
"V+	c #5C5D5E",
"W+	c #514E65",
"X+	c #413F80",
"Y+	c #3C4091",
"Z+	c #3E4191",
"`+	c #3F4191",
" @	c #3D4091",
".@	c #534A92",
"+@	c #9F7B9B",
"@@	c #EABEB4",
"#@	c #CFAAA3",
"$@	c #915F7B",
"%@	c #514189",
"&@	c #48446F",
"*@	c #58565D",
"=@	c #5D5D5E",
"-@	c #4E4B6C",
";@	c #6E4680",
">@	c #7B4F8C",
",@	c #524590",
"'@	c #3C3E90",
")@	c #3A398D",
"!@	c #6D548A",
"~@	c #C99BA0",
"{@	c #E9BCB1",
"]@	c #A2747C",
"^@	c #67385A",
"/@	c #44387E",
"(@	c #443F75",
"_@	c #565561",
":@	c #545554",
"<@	c #4C476B",
"[@	c #9E6582",
"}@	c #BC798E",
"|@	c #815F94",
"1@	c #5E649D",
"2@	c #6D6E98",
"3@	c #816778",
"4@	c #DFB8AE",
"5@	c #EEC6B8",
"6@	c #BB999D",
"7@	c #734D5E",
"8@	c #493673",
"9@	c #423A77",
"0@	c #545464",
"a@	c #575460",
"b@	c #4B3C6C",
"c@	c #9C6C82",
"d@	c #CB8990",
"e@	c #B37996",
"f@	c #A692AD",
"g@	c #BFB0B3",
"h@	c #B79E91",
"i@	c #F3D1C0",
"j@	c #F5D3C3",
"k@	c #E1D1CA",
"l@	c #A68D8B",
"m@	c #654B77",
"n@	c #473B73",
"o@	c #555564",
"p@	c #565063",
"q@	c #4C366B",
"r@	c #6B3F6D",
"s@	c #9E5C73",
"t@	c #BA6E82",
"u@	c #D0939B",
"v@	c #F0BFB5",
"w@	c #F0CDBC",
"x@	c #F8D3C2",
"y@	c #F8CEBE",
"z@	c #F8D5C6",
"A@	c #DEB0A9",
"B@	c #805D80",
"C@	c #4A3F6B",
"D@	c #55565F",
"E@	c #534766",
"F@	c #4B2C6B",
"G@	c #4E306C",
"H@	c #713E6F",
"I@	c #AC6075",
"J@	c #DB9494",
"K@	c #ECBDB1",
"L@	c #F1C3B5",
"M@	c #EFC1B4",
"N@	c #E5BBAF",
"O@	c #BC8288",
"P@	c #684270",
"Q@	c #4B435F",
"R@	c #57575B",
"S@	c #565161",
"T@	c #574A79",
"U@	c #605992",
"V@	c #655E95",
"W@	c #6C487C",
"X@	c #925974",
"Y@	c #BD8089",
"Z@	c #D39695",
"`@	c #D09292",
" #	c #A0727B",
".#	c #796072",
"+#	c #574766",
"@#	c #4F495B",
"##	c #525353",
"$#	c #585A5C",
"%#	c #57575D",
"&#	c #6A7095",
"*#	c #7984BA",
"=#	c #8282B6",
"-#	c #8A75A3",
";#	c #897592",
">#	c #A5919C",
",#	c #B8888B",
"'#	c #C97F85",
")#	c #97798C",
"!#	c #9D999E",
"~#	c #918F95",
"{#	c #6B6B6F",
"]#	c #5C5B5C",
"^#	c #58595E",
"/#	c #6A7195",
"(#	c #7272AA",
"_#	c #816D9B",
":#	c #93869B",
"<#	c #76757D",
"[#	c #6F6970",
"}#	c #897683",
"|#	c #998687",
"1#	c #948E92",
"2#	c #8C8B8C",
"3#	c #9E9F9F",
"4#	c #898989",
"5#	c #4C4E4D",
"6#	c #61667C",
"7#	c #686D99",
"8#	c #6A5694",
"9#	c #7C608B",
"0#	c #817B87",
"a#	c #585865",
"b#	c #6B5C6E",
"c#	c #978697",
"d#	c #9D9A9B",
"e#	c #A6A6A6",
"f#	c #A8A9A9",
"g#	c #808082",
"h#	c #7E7F7F",
"i#	c #4D4F4E",
"j#	c #565858",
"k#	c #484A49",
"l#	c #4B4B4C",
"m#	c #5E657D",
"n#	c #676C9A",
"o#	c #6A5992",
"p#	c #726092",
"q#	c #6B719E",
"r#	c #5E6291",
"s#	c #6D576F",
"t#	c #968592",
"u#	c #9B9397",
"v#	c #A4A0A2",
"w#	c #96969B",
"x#	c #736E84",
"y#	c #66626A",
"z#	c #5C5C5B",
"A#	c #474948",
"B#	c #545657",
"C#	c #4A4B4B",
"D#	c #4D4E4F",
"E#	c #606061",
"F#	c #656564",
"G#	c #646566",
"H#	c #636465",
"I#	c #616264",
"J#	c #5F6062",
"K#	c #636A82",
"L#	c #6B6D9A",
"M#	c #885B8A",
"N#	c #AA5D7F",
"O#	c #9E648A",
"P#	c #73557C",
"Q#	c #63506B",
"R#	c #89779B",
"S#	c #89859F",
"T#	c #908EA5",
"U#	c #857D95",
"V#	c #A96C84",
"W#	c #AD6673",
"X#	c #7C595E",
"Y#	c #565353",
"Z#	c #515152",
"`#	c #525254",
" $	c #626365",
".$	c #686E7F",
"+$	c #877496",
"@$	c #BC7791",
"#$	c #DD7F86",
"$$	c #C87E88",
"%$	c #957E8C",
"&$	c #817990",
"*$	c #9A91A1",
"=$	c #9897A0",
"-$	c #9D9CA4",
";$	c #A894A0",
">$	c #D5868E",
",$	c #DE8387",
"'$	c #9F656B",
")$	c #605559",
"!$	c #696969",
"~$	c #4F4F50",
"{$	c #535354",
"]$	c #626465",
"^$	c #626364",
"/$	c #616263",
"($	c #606062",
"_$	c #5E636A",
":$	c #89697E",
"<$	c #CC7E8D",
"[$	c #E98B8C",
"}$	c #CF878C",
"|$	c #9C8994",
"1$	c #817089",
"2$	c #948F92",
"3$	c #A0A0A0",
"4$	c #9D9D9C",
"5$	c #AA969A",
"6$	c #C97E85",
"7$	c #D0777F",
"8$	c #9C646C",
"9$	c #685C5F",
"0$	c #5C5C5D",
"a$	c #4C4C4D",
"b$	c #575656",
"c$	c #725E64",
"d$	c #A86A73",
"e$	c #C07684",
"f$	c #A2748C",
"g$	c #896A79",
"h$	c #91445D",
"i$	c #895F67",
"j$	c #916F75",
"k$	c #8A6A71",
"l$	c #98666E",
"m$	c #9B5D71",
"n$	c #91616A",
"o$	c #745E61",
"p$	c #5F5C5C",
"q$	c #4D4F4F",
"r$	c #5D5B5B",
"s$	c #735B5F",
"t$	c #84586D",
"u$	c #884F73",
"v$	c #9A3D53",
"w$	c #A7213A",
"x$	c #9F273E",
"y$	c #A4283B",
"z$	c #98263E",
"A$	c #A92B3B",
"B$	c #9E3950",
"C$	c #744F57",
"D$	c #5B5A5A",
"E$	c #4C4E4E",
"F$	c #7B555C",
"G$	c #AD5260",
"H$	c #C2545D",
"I$	c #C4545B",
"J$	c #B6474E",
"K$	c #B03F46",
"L$	c #BE5159",
"M$	c #C2555C",
"N$	c #B74F58",
"O$	c #815358",
"P$	c #5D5A5A",
"Q$	c #575758",
"R$	c #7F595E",
"S$	c #AE5B67",
"T$	c #B46269",
"U$	c #BD6367",
"V$	c #A05C5F",
"W$	c #8B5457",
"X$	c #AF5A63",
"Y$	c #A9616E",
"Z$	c #9D6068",
"`$	c #705D5E",
" %	c #4C4D4D",
".%	c #5A5A5B",
"+%	c #6C5667",
"@%	c #835478",
"#%	c #7D5367",
"$%	c #834E59",
"%%	c #675A5F",
"&%	c #5F595F",
"*%	c #6E466B",
"=%	c #6C5075",
"-%	c #64535F",
";%	c #6A586A",
">%	c #86567E",
",%	c #854F67",
"'%	c #74535A",
")%	c #605962",
"!%	c #6F527C",
"~%	c #6F547E",
"{%	c #645662",
"]%	c #5C5B5A",
"^%	c #6D5051",
"/%	c #90343E",
"(%	c #96323E",
"_%	c #7C4B4F",
":%	c #5C5959",
"<%	c #625056",
"[%	c #732F4A",
"}%	c #742C49",
"|%	c #624F56",
"1%	c #5B5B5A",
"2%	c #4F5051",
"3%	c #5C5656",
"4%	c #6E4548",
"5%	c #844248",
"6%	c #715253",
"7%	c #5B5A59",
"8%	c #732E49",
"9%	c #742B48",
"0%	c #63505A",
"a%	c #59595A",
"b%	c #515254",
"c%	c #504C4B",
"d%	c #665152",
"e%	c #6E5052",
"f%	c #5B5658",
"g%	c #674751",
"h%	c #723049",
"i%	c #694D66",
"j%	c #5A575D",
"k%	c #4D4E50",
"l%	c #56585A",
"m%	c #595B59",
"n%	c #555253",
"o%	c #585252",
"p%	c #545152",
"q%	c #5E494F",
"r%	c #66404C",
"s%	c #673F4D",
"t%	c #66414E",
"u%	c #574E50",
"v%	c #525454",
"w%	c #575957",
"x%	c #4B4D4C",
"y%	c #585859",
"z%	c #525253",
"A%	c #4B4D4D",
"B%	c #474848",
"C%	c #515353",
"D%	c #494A4B",
"E%	c #5C5D60",
"F%	c #5E605E",
"G%	c #5D5F60",
"H%	c #525354",
"I%	c #565657",
"J%	c #4F504F",
"K%	c #505253",
"L%	c #535557",
"M%	c #555759",
"N%	c #4A4C4C",
"O%	c #4B4C4D",
"P%	c #494B4B",
"Q%	c #555758",
"R%	c #535453",
"S%	c #595B5D",
"T%	c #494B4A",
"U%	c #525356",
"V%	c #535457",
"W%	c #484948",
"X%	c #616163",
"Y%	c #555557",
"Z%	c #545456",
"`%	c #4D4D4F",
" &	c #535355",
".&	c #555556",
"+&	c #686868",
"@&	c #565658",
"#&	c #565558",
"$&	c #535254",
"%&	c #505051",
"&&	c #57595B",
"  . + @ @ # # $ % & & * = - ; @ > , , ' ) ! ~ { { . ] ^ / ( _ : ;   < < [ } } } } { | * 1 2 3 4 5 6 7 8 9 9 9 8 2       0 a b c ",
"d e ) f # f f f g h h g i j k l l m l l d d n ) o p o q - = r s t u v m l d w > x ) g y z A B C D E B } [ [ B F [ [ [ G G H I - ",
"n ~ * * E E E J J J K L M N O ~ ~ ~ ~ | | | | * * E J P Q J R S R g & ~ | ~ | | * E E J T U V W ; X * < < < F Y Z `       2  .Q ",
"g | * * E J J J J J ..K +.@.& | | * * * * * * E E J ..#.= * $.$.y ~ | | * * * E J J J J T a V W P ~ o . } [ %.%.Y <       &.*.= ",
"% | B =.E -.J J T T ..K @.@.;.| | * [ * * * B E E J J #.= * n & | | | * * * E E J J J J T a >.,.; n ! [ [ [ %.Y Y <     ` &.I _ ",
"} '.< < <       2 2 2 U ).b !.~ * [ [ [ [ '.< E E J J #.= | g | | | * * * * J E J J J ....2 9 ~.3 + {.< [ [ Y Y Y       Z ].^./.",
"[ < < <         2 2 8 (.).b z ~ * [ [ [ [ < < _.J ....P = * g | * * * * * E E E J J ....:.8 9 <.[.}.. < < < Y Y 0 <     Z a ^.|.",
"<   < <   ` ].T &.U 1.(.).b A 2.{ [ [ [ B G ` T 1 ....3.4._.y | 5.* =.B B _._._.T T :.:.6.8 9 <. .q ] < < < Y Z Z &.&.T a 7.b |.",
"          Z Z a a a 7.7.b 8.9.. [ < < < Y Y Z &.2 2 2 [.0.T r | | [ < < <       2 2 2 8 8 9 [.a.b.% 2.<     Z Z Z a a a a a b c.",
"  2 2 2 2 H d.e.e.f.V V b W _.. < < <   ].g.d.&.2 8 8 [.h.6.% * * < < <       2 2 2 2 9 9 [.3 i.j.% k.    2 a Z Z a a 7.a 7.^.l.",
"T 1 2 8 8 1.m.1.>.n.o.^.b p.` [   < < 2 2 H &.:.8 8 8 3 q.r.& * E   <   2 2 2 8 8 8 9 9 9 [.b.h.D & * 2 8 8 1.1.7.7.7.7.V V b s.",
"t.#.8 8 8 8 8 9 9 [.[.I 8.u.U         2 2 2 8 8 8 9 9 v.w.i.J E E   < 2 2 2 2 8 8 8 9 [.3 : = ( _ ..; 8 9 n.9 9 9 V V V V V x.( ",
"Q j.y.3 3 3 3 3 z.z.z.A.B.C.D.8 1.2 :.8 8 9 8 8 9 E.z.h.F.G.H.I.J.m.2 2 8 3.[.3 3 3 z.<.K.Q 6 / / i.L.3 3 3 3 3 M.8.8.8.8.8.N.O.",
"_ P.K.Q.0.R.R.S.R.R.0.T.U.U.V.W.~.,.,.X.,.7 X.M.,.Y.Z.`. +.+++@+#+$+%+*.L.&+*+h./.l.q.=+-+/ 5 ;+/ _ 4.>+a.a.,+<.,+p.W W u.'+V.)+",
"g ~ <     ].a a a 7.a L @.!+~+@.{+Y Y Y Y Y Y ]+L ^+/+(+_+:+<+[+}+|+1+2+..P j.D 3+i._ c / / 5 ;+c 3+7 z.3 3 4+I b b V V b b u.5+",
"R n 6+{.. 7+8+%.%.%.Y Y M 9+0+a+b+8+%.Y Y Y Y Y ]+c+d+e+f+g+h+i+j+k+l+m+n+J ....#.#.P : Q 6 - 5 6 ~ f {.} < o+%.a Z Z a a a ^.!+",
"$.r }.. . 8+8+%.%.%.Y a+0+p+i 9.q+%.%.Y Y Y Y Y r+s+t+u+v+w+x+y+z+A+B+C+D+J J ......#.t.3.E+: c.3+f ] F+F+F Y Z Z Z Z a a a ^.G+",
"n q . . } 8+8+%.%.%.Y F ..= B [ [ F %.Y Y Y Z Z H+I+J+K+L+M+N+O+P+Q+R+S+T+U+T 2 2 2 8 9 9 [.z.0.D r | %.%.%.Y Y Y Z Z Z 7.a ^.C.",
"g ~ 2.} } 9.8+%.%.%.Y B ..&+[ [ < V+Y Y Y Y Z Z W+X+Y+Z+`+ @.@+@@@#@$@%@&@*@1 2 2 2 8 9 9 z.v.*+3+r { %.Y Y Y Y Z Z Z a a 7.4+T.",
"% ~ ~ { } } 9.%.%.%.Y =@..&+[ [ < G Y Y Y Y Z Z -@;@>@,@'@)@!@~@{@]@^@/@(@_@1 2 2 1.1.n.r.C :@*+3+r i %.Y Y Y Y Z Z Z a a a ^.S.",
"~ | ~ * * [ [ F+Y Y Y _.#.= =.< < < < <       U <@[@}@|@1@2@3@4@5@6@7@8@9@0@  2   1.7.f.@.: D 6 3+% i %.Y Y Y Z Z Z Z a a a I K.",
"| * * * * [ [ < Y Y Y _.#.4.=.< < <         2 a@b@c@d@e@f@g@h@i@j@k@l@m@n@o@2 8 2 1.f.V N D D 6 3+& =@Y Z Z Z Z Z a a a 7.7.).6 ",
"E | * * * [ [ < Y Y Y _.#.4.=.< <           &.p@q@r@s@t@u@v@w@x@y@z@A@B@C@D@2 8 8 t.V o.x.D D 6 3+& =@Y Z Z Z Z Z a a a 7.7.)._ ",
"E y { [ < Y Y Y Y Y Z ` 9 Q.<   2 2 2 2 a a a 1.E@F@G@H@I@J@K@L@M@N@O@P@Q@R@2 8 9 9 [.3 <.3+3+6 = & V+Z Z Z Z Z a 7.7.7.7.V x.P.",
"E y { < G Z Y Y Z Z a T 9 0.    2 8 8 2 U e.a 1.S@T@U@V@W@X@Y@Z@`@ #.#+#@#b 8 8 8 3 v.<.##= 3+6 6 O ].a a a a a 7.a 7.V V V 8.P.",
"J E <     Z Z Z Z a a &.9 h.8 2 1 8 8 9 8 $#>.r.%#&#*#=#-#;#>#,#'#)#!#~#{#1.8 8 9 9 n.E.<.&+##6 _ ~ T a a a a 7.7.V V V V V 8.P.",
"J ]#      Z Z Z a a a 2 [.h.&+E+3.3.[.[.[.E+E+j.^#/#(#_#:#<#[#}#|#1#2#3#4#) 8 9 9 D.^.^.N.i.>+0._ ~ U 7.7.7.7.7.7.V V V ^.^.8.h.",
"..T       ].Z Z a 7.7.(.3 5#q.c.6 K.Q.>+4.Q 3+D 6#7#8#9#0#a#b#c#d#e#f#g#h#' 9 9 9 [.b ^.W a.>+l.( ..; V V V V V V V V ^.b b p.i#",
":@y.j#x.3 b b b b W W Y.0.k#/.Q Q P.P.h./.s.=+l#m#n#o#p#q#r#s#t#u#v#w#x#y#z#*. .3 y.8.X.Y.<.0.A#5 c.3+W Y.W W W W 8.8.B#W p.C.C#",
"a.T Z Z Z Z Z Z Z a a 7.x.D#E#y F#G#G#H#I#J#7.b K#L#M#N#O#P#Q#R#S#T#U#V#W#X#Y#3+= Q Z#Q _ - 5 ;+c = ^ J * =@V+Z a 7.V ^.^.b p+5 ",
"2 [ %.%.%.%.%.Y %.Y Y Y 0+`#~ r r H# $ $ $ $I#I#.$+$@$#$$$%$&$*$=$-$;$>$,$'$)$^ E+E+E+j.D Q =+5 D $.s R !$n G# $J#8+%.Y Y Z M ~$",
"[ [ %.%.%.Y Y Y %.Y Y ]+0+{$E#r !.H#]$ $^$/$($J#_$:$<$[$}$|$1$2$3$4$5$6$7$8$9$* B E 0$=@K #.y.a$b$$.e 6+| 2.9.F V+Y Y V+Z Z V |.",
"} [ %.%.%.%.%.Y Y Y Z ].#.= * | | { { [ B < _.`   c$d$e$f$g$h$i$j$k$l$m$n$o$p$2 2 U 7.7.7.@.b G+^ n }.[ [ [ [ [ < < < =.Z Z V q$",
"[ [ %.%.Y Y Y Y Z Z Z T #.Q * * * [ [ < < <       r$s$t$u$v$w$x$y$z$A$B$C$D$2 2 2 U 7.V V V b '+^ % } [ [ [ < < < [ < ` Z Z V E$",
"} [ F %.Y Y Y Y Z Z Z T P 6 * * * * [ < < <       &.].F$G$H$I$J$K$L$M$N$O$P$2 2 2 2 7.V V V b S.Q$% { [ [ [ < < < `   ` Z Z V E$",
"=.* < < < ` ` ` Z Z a :.P 6 * * * B < < < <   ` Z a K R$S$T$U$V$W$X$Y$Z$`$2 2 2 8 8 8 8 E.E.y.Q.y.{.[ [ < < V+Y g.g.g.Z a a ^. %",
"E E <   <       ].a a .%P c.* E * =.< < < <   &.a a U +%@%#%$%%%&%*%=%-%r$2 2 8 8 8 8 9 9 [.z.Q.z.} < [ < < Y Z Z Z Z a a a V a$",
"..]#            a a a :.^ c.* * E E <     T   &.a 7.(.;%>%,%'%a+)%!%~%{%]%9 8 8 8 8 9 9 9 3 v.Q.C } _.< < < Z Z Z Z a a a 7.V w.",
"#.........2 2 2 2 2 8 8 [.i#< [ <       ].a a a 7.V n.^%/%(%_%:%<%[%}%|%1%8 9 9 9 9 [.[.E.8.p.2%= | _.Z Z Z Y Z Z Z a a 7.a ^.=+",
"^ #.......2 2 8 8 2 9 9 [.i#9 <   2 2 2 U 7.a 7.V V n.3%4%5%6%7%<%8%9%0%a%[.9 9 9 9 [.[.j#p.b%V.Q ~ _.Z Z Z a Z a 7.a 7.7.7.o. %",
"j.#.#...#.2 2 8 8 8 9 9 3 5#*+8   2 2 2 1.7.7.7.V V I <.c%d%e%f%g%h%8%i%j%v.<.<.<.<.b.3 j#p.b%k%_ | 0$Z Z Z a a a a a 7.7.7.l% %",
"= ^ j.P ^ 8 8 8 8 9 3. .3+( c.b.6.:.2 2 2 8 9 m%[.j#a.( - n%o%p%q%r%s%t%u%P./._ _ 6 3+L.7 v%W.i#l...:.Z a a a a 7.7.7.7.V V l%=+",
"_ 3+D : : b.3 3 3 v.>+Q ( c - = E+r.9 9 9 9 [.w%z.>+x%5 / _ Q 6 6 6 6 6 6 _ _ _ _ _ _ _ Q &+Q.=+( : t.7.7.7.7.7.7.V V V V ^.8.4 ",
"b.^ y%r.^ 9 9 [.*.z.Q.l.c c 6 3+D ,+,+,+,+v%##>+Q.0./. %;+=+= 3+3+######z%z%##D ,+D 3+i.4.0.A%4 - 3+7 X.8.W 8.8.8.W W 8.p.u.'+B%",
"< 2 (.U ].0 Z ].a U 1.E+6 - *.    ` H a a a 7.V D.o.^.I b%C%9 9 r.D.V V V D.D.D.D.D.D.I x.W U.D%0+i a+E%Y Z Z Z a a a 7.7.V b )+",
"} F%G%%.Y Y Z Y Y a a a%D _ 2 < &.H a Z Z a a 7.7.a 7.V p.~.9 9 n.7.7.7.a 7.V V 7.7.V V V Z W !+L ]+]+Z Y Z Z Z a a a 7.7.7.). %",
"} } 8+8+%.%.%.Y Z Y Z .%E+6   <   ].Z a a a a 7.7.a V V u.N.9 9 D.V V 7.a 7.7.7.7.7.V V (.8+^.V.a+]+]+Z Z Z Z Z a a 7.7.7.V ^.s.",
"| | %.%.%.%.%.%.Y Y 7.8 *.Q.T < 2 U a a a a a 7.7.7.V V u.H%[.9 9 n.y.8 8 8 1.7.7.7.V V V =@I%/._.    Z Z Z Z Z a a a V 7.7.^.s.",
"* | %.%.%.Y Y %.Y Y (.n.j#Q.    2 U a a 7.7.7.7.7.7.V V u.H%j#3 j#3 <.9 9 8 1.7.7.7.V V D.*.: /.<   ` Z Z Z Z Z a a a V 7.V b s.",
"| * %.%.%.Y Y Y Y Y 7.n.3 0.2   2 U a a a 7.7.7.7.7.V ^.b%C%3 z.,.>+Q.v.9 8 1.7.7.7.V ^.I E+C J%<   ` Z Z Z a a a 7.7.7.V V b - ",
"{ [ [ B G V+Y Y Z Y V E.z.0.2 2 8 U a 7.7.7.7.7.V V ^.^.b%K%8.L%u.^.(.8.r.9 n.V V V V ^.^.b A.T._.  ].a a a a a 7.7.V V V V b  %",
"} [ [ [ < Y Y Y Z Z o.*.z.0.2 2 8 U a 7.7.7.7.7.V V b b '+'+8.p.^.7.7.>.[.9 n.V V V V ^.b M%p.T.<   T a a a a a 7.7.V ^.^.^.8.A%",
"} < < < < Y Y Z Z Z ^.j#v.h.8 2 8 (.7.7.V V V V V ^.b x.G+G+u.W V 7.V 1.j#9 n.V ^.^.^.b b W u.C.< 2 &.a 7.7.7.7.7.V V b ^.^.8.N%",
"} <       Z Z Z a a ^.x.v.i#9 2 8 (.V V V V V V ^.^.N 7 |.O%U.'+^.V 7.>.b D.D.r.*.*.*.j#M.: ##_ J :.:.8 8 8 1.n.n.E.[.E.b b W P%",
"< 2       Z Z Z a a b y.<.x%3 9 [.D.D.^.^.^.b b b b X.##/ O.C.b%W b b 8.8.8.Q%z.7 v.v.~.R%= 6 - #.P t.; 9 9 9 9 [.[.[.&.8.W u.A#",
"<     T 2 ].a a S%S%b M.>+T%Q.>+a.Y.W p.p.p.p.u.u.b%p+- 5 O%%.%.x.p.U%p.V%W Y.v.,+##0.h.J%_ ( / - 3+E+3 3 z.z.z.z.z.z.X.x.8.8.E$",
"R%L.L.z.*.r.a%.%..:.j J%=+W%J%*.1 T a a a a Z a a a 0+@.z%~$a%=@].&.1.1..%.%.%(.(.y.,+R%R%{$~$l#~$% r % z q q q q & q z X%X%I#(.",
"P ....J T ..#.......P E+= 5 ^ ....U a a a Z a a a 7.0+M `#~$P J -.  2 2 ....:.7.7.t.j.: : Y%Z%`%P !$~ * E E E E E E E E ]+]+L  &",
"..E J J J J ........#.#.^ Q #.....].Z Z Z a a a a a a 7. &Z#E J         ..#..%a 7.1.^ .&.&Y%Y%z%E $.| E E E E E J J J J L L M `#",
"            T 2 U U 7.V @.~+r.2 1   ` &.&.&.&.&.U m.0+0+Z%{$@ [           1 2 &.1.(.N 8.Y%Y%Y%{$* $.| E E E < < <       K ..#.= ",
"              2 U a 7.V ^.~+I #   <   2 2 2 2 2 2 8 (.7.Z%N.@ [ <         2 2 2 8 t.V 8.8.Y%Y%`#* +&| E E E < < <       ..#.P = ",
"        2 2 2 2 m.V V ^.^.'+E.{.    2 2 2 2 2 2 2 2 D.M Z%C {.[           2 2 2 8 8 f.b W @&#&$&* +&| E E E < < <     2 J #.P = ",
"8   2 2   &.U U 7.7.V V b G+y%{ T 2 2 2 2 2 2 2 m.1.V V p.v%<           ].U U m.1.(.V b 8.@&@&{$* +&| E E E -.-.-.    2 K U a%%&",
"8   2 2   H a a 7.7.V ^.b G+y%....2 2 2 2 2 2 :.7.7.>.&&u.N.<           Z a a 7.7.(.V b 8.@&@&{$* +&| E E E J J J     2 a a M %&"};
