/* XPM */
static char * down_0_xpm[] = {
"64 64 693 2",
"  	c #5B5D5C",
". 	c #5F6160",
"+ 	c #616362",
"@ 	c #626463",
"# 	c #636564",
"$ 	c #626362",
"% 	c #626262",
"& 	c #616161",
"* 	c #5E5E5E",
"= 	c #525252",
"- 	c #4D4D4D",
"; 	c #595A59",
"> 	c #666867",
", 	c #696B6A",
"' 	c #676968",
") 	c #656666",
"! 	c #636464",
"~ 	c #606060",
"{ 	c #5E5F5F",
"] 	c #606161",
"^ 	c #575658",
"/ 	c #48444E",
"( 	c #474259",
"_ 	c #464061",
": 	c #4A4463",
"< 	c #4E4A61",
"[ 	c #56545C",
"} 	c #5B5C5C",
"| 	c #5C5E5D",
"1 	c #5D5F5E",
"2 	c #5E605F",
"3 	c #5F5F5F",
"4 	c #5B5C5B",
"5 	c #5A5C5B",
"6 	c #565857",
"7 	c #494A4A",
"8 	c #494949",
"9 	c #505050",
"0 	c #555656",
"a 	c #595B5A",
"b 	c #585A59",
"c 	c #5B5D5E",
"d 	c #5A5B5D",
"e 	c #565759",
"f 	c #4B4B4B",
"g 	c #686969",
"h 	c #676868",
"i 	c #646565",
"j 	c #656565",
"k 	c #666666",
"l 	c #5E5E5F",
"m 	c #545455",
"n 	c #696A69",
"o 	c #696A6A",
"p 	c #6A6B6A",
"q 	c #676767",
"r 	c #656665",
"s 	c #646564",
"t 	c #5D5C66",
"u 	c #504D6F",
"v 	c #423F78",
"w 	c #414080",
"x 	c #464184",
"y 	c #5A407C",
"z 	c #6E4174",
"A 	c #71476E",
"B 	c #62566B",
"C 	c #66666A",
"D 	c #686968",
"E 	c #656766",
"F 	c #646464",
"G 	c #616262",
"H 	c #606162",
"I 	c #5D5E5E",
"J 	c #545555",
"K 	c #545454",
"L 	c #5D5D5D",
"M 	c #5D5E5F",
"N 	c #5C5E5E",
"O 	c #5A5C5D",
"P 	c #575859",
"Q 	c #5C5C5C",
"R 	c #5B5B5C",
"S 	c #5B5B5D",
"T 	c #59595B",
"U 	c #575759",
"V 	c #5F5F60",
"W 	c #58565D",
"X 	c #4B4872",
"Y 	c #403F86",
"Z 	c #483E8B",
"` 	c #683B82",
" .	c #863671",
"..	c #8A3670",
"+.	c #88326C",
"@.	c #7C3964",
"#.	c #634C63",
"$.	c #5B5B61",
"%.	c #5A5B5C",
"&.	c #58595B",
"*.	c #545557",
"=.	c #5E5E5D",
"-.	c #5C5D5F",
";.	c #5B5C5E",
">.	c #5B5D5D",
",.	c #575857",
"'.	c #515151",
").	c #5B5B5B",
"!.	c #58585B",
"~.	c #58585A",
"{.	c #5D5C5D",
"].	c #4F4B67",
"^.	c #424083",
"/.	c #434190",
"(.	c #5A3E88",
"_.	c #773979",
":.	c #833672",
"<.	c #7B387A",
"[.	c #7B3D7E",
"}.	c #A1577E",
"|.	c #874479",
"1.	c #623E71",
"2.	c #585263",
"3.	c #595959",
"4.	c #5D5E60",
"5.	c #5A5C5C",
"6.	c #575858",
"7.	c #5D5E5D",
"8.	c #5C5D5C",
"9.	c #626263",
"0.	c #59585C",
"a.	c #484577",
"b.	c #3E3E8C",
"c.	c #45408F",
"d.	c #573D88",
"e.	c #5D3D85",
"f.	c #414090",
"g.	c #4B4692",
"h.	c #8A6996",
"i.	c #CC9DA4",
"j.	c #9F7294",
"k.	c #644584",
"l.	c #51486E",
"m.	c #5A585E",
"n.	c #585A5B",
"o.	c #545656",
"p.	c #4F4F4F",
"q.	c #5C5F5E",
"r.	c #56575A",
"s.	c #636364",
"t.	c #54505D",
"u.	c #454381",
"v.	c #3E4190",
"w.	c #3F4191",
"x.	c #3D4191",
"y.	c #655795",
"z.	c #C89DA6",
"A.	c #EECABC",
"B.	c #C48E97",
"C.	c #714F8C",
"D.	c #424079",
"E.	c #565363",
"F.	c #535555",
"G.	c #606261",
"H.	c #5B5C5D",
"I.	c #57585A",
"J.	c #4E4F4F",
"K.	c #595A5B",
"L.	c #5C5C5D",
"M.	c #504B64",
"N.	c #4A4283",
"O.	c #49418F",
"P.	c #444190",
"Q.	c #3E4191",
"R.	c #474491",
"S.	c #836B97",
"T.	c #DFB8B3",
"U.	c #E0BAAF",
"V.	c #B57C83",
"W.	c #6B4781",
"X.	c #3F3C7B",
"Y.	c #524F67",
"Z.	c #5A5B5B",
"`.	c #535554",
" +	c #575958",
".+	c #606160",
"++	c #4E4E4F",
"@+	c #595B5B",
"#+	c #5F6060",
"$+	c #4A466C",
"%+	c #6F4882",
"&+	c #784D8B",
"*+	c #5C468F",
"=+	c #3F4292",
"-+	c #3E418F",
";+	c #5E4C89",
">+	c #B08291",
",+	c #EBB6AC",
"'+	c #BF868A",
")+	c #884B64",
"!+	c #52346F",
"~+	c #3B387F",
"{+	c #4D4B71",
"]+	c #5A5A5B",
"^+	c #5C5D5D",
"/+	c #5A5B5A",
"(+	c #616261",
"_+	c #595A5C",
":+	c #555658",
"<+	c #5E5F60",
"[+	c #595A5D",
"}+	c #4B446D",
"|+	c #AA6980",
"1+	c #BB748D",
"2+	c #865D92",
"3+	c #555798",
"4+	c #5F5E8F",
"5+	c #786273",
"6+	c #D8B3A8",
"7+	c #F2CEBE",
"8+	c #C2A6A5",
"9+	c #746368",
"0+	c #49345D",
"a+	c #41367B",
"b+	c #4B4A72",
"c+	c #59595A",
"d+	c #525453",
"e+	c #565756",
"f+	c #4E4E4E",
"g+	c #5A5B5E",
"h+	c #58595C",
"i+	c #5B5C5F",
"j+	c #5A5A5F",
"k+	c #554D65",
"l+	c #4A3A6E",
"m+	c #A87987",
"n+	c #D39195",
"o+	c #B5809A",
"p+	c #AC9EB8",
"q+	c #C8BABF",
"r+	c #AD958D",
"s+	c #F1CFBE",
"t+	c #F7D4C3",
"u+	c #F1D6CB",
"v+	c #C1B0AA",
"w+	c #906E7E",
"x+	c #5D3F7C",
"y+	c #4A4A72",
"z+	c #515252",
"A+	c #565656",
"B+	c #5F605F",
"C+	c #4D4E4E",
"D+	c #595B5C",
"E+	c #585A5A",
"F+	c #57595A",
"G+	c #535456",
"H+	c #565062",
"I+	c #4D366D",
"J+	c #6C456C",
"K+	c #9D5C72",
"L+	c #B2667D",
"M+	c #CD8C97",
"N+	c #ECB9B2",
"O+	c #ECCABA",
"P+	c #F8D2C1",
"Q+	c #F7CABC",
"R+	c #F9D5C5",
"S+	c #EDC8BB",
"T+	c #AB7D88",
"U+	c #5F3B72",
"V+	c #4D4D6A",
"W+	c #4E504F",
"X+	c #4D4D4E",
"Y+	c #595A5A",
"Z+	c #5A5A5A",
"`+	c #525355",
" @	c #58585C",
".@	c #524268",
"+@	c #4B2769",
"@@	c #5D2969",
"#@	c #783968",
"$@	c #A95D72",
"%@	c #DB9090",
"&@	c #EEB9AF",
"*@	c #F6CCBD",
"=@	c #F0C3B5",
"-@	c #D69E9A",
";@	c #8C5B72",
">@	c #4B3365",
",@	c #504E62",
"'@	c #555555",
")@	c #4C4C4C",
"!@	c #565758",
"~@	c #565757",
"{@	c #555756",
"]@	c #535556",
"^@	c #4F5053",
"/@	c #4E4F51",
"(@	c #58595A",
"_@	c #544C63",
":@	c #56477C",
"<@	c #605C95",
"[@	c #635E94",
"}@	c #744D7D",
"|@	c #9C5F78",
"1@	c #C08891",
"2@	c #D69C99",
"3@	c #DC9E9B",
"4@	c #B88D8B",
"5@	c #9F7B84",
"6@	c #684D69",
"7@	c #41305A",
"8@	c #4F4B59",
"9@	c #505151",
"0@	c #4A4A4A",
"a@	c #555655",
"b@	c #555757",
"c@	c #535455",
"d@	c #4A4A4B",
"e@	c #4F5050",
"f@	c #505251",
"g@	c #4F5150",
"h@	c #4F5151",
"i@	c #505152",
"j@	c #4E5051",
"k@	c #4C4D4F",
"l@	c #4E4F50",
"m@	c #505252",
"n@	c #555657",
"o@	c #53525A",
"p@	c #696C97",
"q@	c #737CB1",
"r@	c #7C79AF",
"s@	c #7D6E9D",
"t@	c #7D6A88",
"u@	c #957A8B",
"v@	c #AF8388",
"w@	c #C4747D",
"x@	c #8F6074",
"y@	c #948D95",
"z@	c #88868D",
"A@	c #6C6772",
"B@	c #56545A",
"C@	c #505150",
"D@	c #4D4E4D",
"E@	c #4B4C4C",
"F@	c #4A4B4A",
"G@	c #484848",
"H@	c #515251",
"I@	c #515352",
"J@	c #535454",
"K@	c #505153",
"L@	c #484949",
"M@	c #4C4C4E",
"N@	c #515253",
"O@	c #5C5C5F",
"P@	c #5C5C5E",
"Q@	c #5D5E65",
"R@	c #737DA6",
"S@	c #7175AC",
"T@	c #8474A5",
"U@	c #9585A5",
"V@	c #827B8A",
"W@	c #7A727D",
"X@	c #95848D",
"Y@	c #AE8588",
"Z@	c #9A818D",
"`@	c #A49FA3",
" #	c #9B9B9B",
".#	c #919191",
"+#	c #757576",
"@#	c #535353",
"##	c #565859",
"$#	c #49494B",
"%#	c #6B6B6B",
"&#	c #626363",
"*#	c #5F6061",
"=#	c #5E5F61",
"-#	c #4F4F51",
";#	c #5A5A5C",
">#	c #5D5D5F",
",#	c #5F5F61",
"'#	c #5C5E60",
")#	c #636778",
"!#	c #7076A2",
"~#	c #655895",
"{#	c #7C628A",
"]#	c #8A7F8F",
"^#	c #66686D",
"/#	c #5C5362",
"(#	c #8C748E",
"_#	c #959596",
":#	c #9FA1A0",
"<#	c #ACADAC",
"[#	c #888989",
"}#	c #8C8C8C",
"|#	c #7F8080",
"1#	c #5C5E5F",
"2#	c #6A6A6A",
"3#	c #636363",
"4#	c #515153",
"5#	c #5E5E60",
"6#	c #5D5E61",
"7#	c #696F87",
"8#	c #6C709F",
"9#	c #66538E",
"0#	c #735A85",
"a#	c #736D8C",
"b#	c #555A79",
"c#	c #64596C",
"d#	c #977F96",
"e#	c #9A9498",
"f#	c #A19DA0",
"g#	c #B0AFB1",
"h#	c #7E7F89",
"i#	c #6D6971",
"j#	c #6C696A",
"k#	c #585958",
"l#	c #575757",
"m#	c #5D5F5F",
"n#	c #4F5052",
"o#	c #5C5D60",
"p#	c #686F88",
"q#	c #6D709F",
"r#	c #7F5E91",
"s#	c #8F6293",
"t#	c #8873A7",
"u#	c #6B6796",
"v#	c #5C5066",
"w#	c #8A6C89",
"x#	c #8D7F8F",
"y#	c #928794",
"z#	c #8E8B96",
"A#	c #837595",
"B#	c #89637B",
"C#	c #7D5E61",
"D#	c #635C5D",
"E#	c #525352",
"F#	c #5C5D5E",
"G#	c #676D85",
"H#	c #78719D",
"I#	c #A6698D",
"J#	c #C66A7C",
"K#	c #BC6C7F",
"L#	c #8D6376",
"M#	c #6E647A",
"N#	c #937CA2",
"O#	c #9495A9",
"P#	c #9598AA",
"Q#	c #9E9FB1",
"R#	c #B78090",
"S#	c #D17780",
"T#	c #BC6F78",
"U#	c #805D62",
"V#	c #545655",
"W#	c #5D5D5E",
"X#	c #60626D",
"Y#	c #8A6E90",
"Z#	c #CD8394",
"`#	c #EA8B8D",
" $	c #D5878C",
".$	c #A48493",
"+$	c #8888A1",
"@$	c #938C97",
"#$	c #9F9FA2",
"$$	c #9E9EA1",
"%$	c #A8A5A8",
"&$	c #C8888F",
"*$	c #E28589",
"=$	c #CB797F",
"-$	c #8A5D65",
";$	c #585959",
">$	c #545554",
",$	c #825E6F",
"'$	c #C77983",
")$	c #E28389",
"!$	c #C68188",
"~$	c #977C86",
"{$	c #836075",
"]$	c #836E73",
"^$	c #938F90",
"/$	c #8F8D8D",
"($	c #948F8F",
"_$	c #A3727A",
":$	c #AF6671",
"<$	c #A0626C",
"[$	c #795B61",
"}$	c #665A5D",
"|$	c #8E6166",
"1$	c #9E6A81",
"2$	c #8E6D8D",
"3$	c #8A5E73",
"4$	c #9C3549",
"5$	c #8D3D4E",
"6$	c #9A525C",
"7$	c #8C505C",
"8$	c #94515C",
"9$	c #9D4457",
"0$	c #895163",
"a$	c #6F5B65",
"b$	c #625B5C",
"c$	c #605959",
"d$	c #7A5667",
"e$	c #97546F",
"f$	c #AC4A5C",
"g$	c #B33040",
"h$	c #A82139",
"i$	c #B22135",
"j$	c #A72039",
"k$	c #B53745",
"l$	c #BC414D",
"m$	c #9D4A58",
"n$	c #6D565C",
"o$	c #7F5356",
"p$	c #AB4D54",
"q$	c #C15359",
"r$	c #C85C61",
"s$	c #BA5257",
"t$	c #A3464A",
"u$	c #B65057",
"v$	c #C05B61",
"w$	c #B8545D",
"x$	c #975058",
"y$	c #6E5759",
"z$	c #795761",
"A$	c #975669",
"B$	c #A35C69",
"C$	c #B06569",
"D$	c #A3636B",
"E$	c #78585B",
"F$	c #99555F",
"G$	c #9F5E74",
"H$	c #8C5968",
"I$	c #74585D",
"J$	c #605A5B",
"K$	c #525353",
"L$	c #585A5C",
"M$	c #6C586B",
"N$	c #7C597D",
"O$	c #795870",
"P$	c #795058",
"Q$	c #6E5965",
"R$	c #5E595D",
"S$	c #6B4A66",
"T$	c #6E5380",
"U$	c #66566A",
"V$	c #5E5959",
"W$	c #575959",
"X$	c #5C5B5C",
"Y$	c #6C5363",
"Z$	c #884D6E",
"`$	c #8D4762",
" %	c #7E494F",
".%	c #5E5A5C",
"+%	c #5D585C",
"@%	c #6C5273",
"#%	c #704F7B",
"$%	c #6B4D63",
"%%	c #5F5658",
"&%	c #4C4E4D",
"*%	c #724347",
"=%	c #962D3B",
"-%	c #9A2C3A",
";%	c #814248",
">%	c #5C5757",
",%	c #5D5457",
"'%	c #6F374C",
")%	c #742C49",
"!%	c #6A424F",
"~%	c #5D5557",
"{%	c #4D4F4E",
"]%	c #565858",
"^%	c #545556",
"/%	c #484A49",
"(%	c #4B4B4C",
"_%	c #4B4C4B",
":%	c #4A4B4B",
"<%	c #4B4A49",
"[%	c #763D43",
"}%	c #992D41",
"|%	c #963144",
"1%	c #7C4147",
"2%	c #555151",
"3%	c #5A5052",
"4%	c #6F354A",
"5%	c #742A47",
"6%	c #6B4151",
"7%	c #5D5357",
"8%	c #474948",
"9%	c #545657",
"0%	c #4D4E4F",
"a%	c #606061",
"b%	c #656564",
"c%	c #646566",
"d%	c #636465",
"e%	c #616264",
"f%	c #5F6062",
"g%	c #574D4E",
"h%	c #7E3F4A",
"i%	c #954263",
"j%	c #91496D",
"k%	c #893A46",
"l%	c #564C4D",
"m%	c #5B474D",
"n%	c #703048",
"o%	c #742B48",
"p%	c #704161",
"q%	c #614F5D",
"r%	c #555353",
"s%	c #535453",
"t%	c #515152",
"u%	c #585858",
"v%	c #525254",
"w%	c #626365",
"x%	c #676264",
"y%	c #755054",
"z%	c #7F3F4F",
"A%	c #7E4555",
"B%	c #7A474C",
"C%	c #595555",
"D%	c #5D5255",
"E%	c #674550",
"F%	c #69434F",
"G%	c #694654",
"H%	c #615056",
"I%	c #595757",
"J%	c #6C6C6C",
"K%	c #696969",
"L%	c #4F4F50",
"M%	c #535354",
"N%	c #626465",
"O%	c #626364",
"P%	c #616263",
"Q%	c #606062",
"R%	c #5D5F60",
"S%	c #605859",
"T%	c #5C4C4E",
"U%	c #645758",
"V%	c #665C5D",
"W%	c #615F5F",
"X%	c #615B5D",
"Y%	c #625D5E",
"Z%	c #625C5E",
"`%	c #605E5E",
" &	c #4C4C4D",
".&	c #575656",
"+&	c #505051",
"@&	c #4D4F4F",
"#&	c #505052",
"$&	c #4C4E4E",
"%&	c #575758",
"&&	c #4C4D4D",
"*&	c #4F5051",
"=&	c #515254",
"-&	c #4B4D4C",
";&	c #4D4E50",
">&	c #56585A",
",&	c #595B59",
"'&	c #525454",
")&	c #575957",
"!&	c #585859",
"~&	c #525253",
"{&	c #4B4D4D",
"]&	c #474848",
"^&	c #515353",
"/&	c #494A4B",
"(&	c #5E605E",
"_&	c #525354",
":&	c #565657",
"<&	c #4F504F",
"[&	c #505253",
"}&	c #535557",
"|&	c #555759",
"1&	c #4A4C4C",
"2&	c #4B4C4D",
"3&	c #494B4B",
"4&	c #555758",
"5&	c #595B5D",
"6&	c #494B4A",
"7&	c #525356",
"8&	c #535457",
"9&	c #484948",
"0&	c #616163",
"a&	c #555557",
"b&	c #545456",
"c&	c #4D4D4F",
"d&	c #535355",
"e&	c #555556",
"f&	c #686868",
"g&	c #565658",
"h&	c #565558",
"i&	c #535254",
"j&	c #57595B",
"  . + @ @ # # $ % & & * = - ; @ > , , ' ) ! ~ { { . ] ^ / ( _ : < [ } | 1 2 2 2 2 { 3 * 4 5 6 7 8 9 0 a b b b a 5       c d e f ",
"g h ) i # i i i j k k j l m n o o p o o g g q ) r s t u v w x y z A B C o g D > E ) j F G H I J K L I 2 1 1 I M 1 1 1 N N O P - ",
"q ~ * * L L L Q Q Q R S T U V ~ ~ ~ ~ 3 3 3 3 * * W X Y Z `  . ...+.@.#.$.~ 3 3 * L L Q } %.&.*.; =.* | | | M -.;.>.      5 ,.'.",
"j 3 * * L Q Q Q Q Q ).R !.~.& 3 3 * * * * * * L {.].^./.(._.:.<.[.}.|.1.2.L * L Q Q Q Q } d &.*.3.~ r . 2 1 4.4.-.|       5.6.= ",
"% 3 I 7.L 8.Q Q } } ).R ~.~.9.3 3 * 1 * * * I L 0.a.b.c.d.e.f.g.h.i.j.k.l.m.L L Q Q Q Q } d n.o.; q ! 1 1 1 4.-.-.|     >.5.P p.",
"2 q.| | |       5 5 5 %.r.e s.~ * 1 1 1 1 q.| L t.u.v.w.w.w.x.y.z.A.B.C.D.E.Q L Q Q Q ).).5 b F.6 + G.| 1 1 -.-.-.      ;.H.I.J.",
"1 | | |         5 5 a K.r.e G ~ * 1 1 1 1 | | L.M.N.O.P.w.Q.R.S.T.U.V.W.X.Y.L L Q Q ).).Z.a b `. +.+. | | | -.-.c |     ;.d I.++",
"|   | |   >.H.} 5.%.@+K.r.e H #+{ 1 1 1 I N >.d $+%+&+*+=+-+;+>+,+'+)+!+~+{+]+^+} } Z.Z./+a b `.,.(+] | | | -.;.;.5.5.} d _+e ++",
"          ;.;.d d d _+_+e :+<+. 1 | | | -.-.;.[+}+|+1+2+3+4+5+6+7+8+9+0+a+b+c+  5 5 5 a a b  +d+e+% #+|     ;.;.;.d d d d d e f+",
"  5 5 5 5 O g+[+[+h+&.&.e *.^+. | | |   H.i+j+k+l+m+n+o+p+q+r+s+t+u+v+w+x+y+c+5 5 5 5 b b  +6 z+A+% B+    5 d ;.;.d d _+d _+I.C+",
"} 4 5 a a @+D+@+n.E+F+I.e G+>.1   | | 5 5 O %.H+I+J+K+L+M+N+O+P+Q+R+S+T+U+V+a a a a b b b  +e+W+K & * 5 a a @+@+_+_+_+_+&.&.e X+",
"Y+Z+a a a a a b b  + +P :+`+%.        5 5 5 a  @.@+@@@#@$@%@&@*@*@=@-@;@>@,@5 a a a b  +6 '@= )@p.).; a b E+b b b &.&.&.&.&.!@)@",
"'.A+~@6 6 6 6 6 {@{@{@]@^@/@(@a @+5 Z.a a b a a _@:@<@[@}@|@1@2@3@4@5@6@7@8@ +6 6 6 {@`.9@'.9 0@0@z+a@6 6 6 6 6 b@:+:+:+:+:+c@d@",
"p.e@9@f@g@h@h@i@h@h@g@j@k@k@l@m@F.o.o.n@o.0 n@b@o@p@q@r@s@t@u@v@w@x@y@z@A@B@C@W+J.C+D@E@F@0@8 G@0@p.H@I@d+d+J@`.J@G+*.*.`+K@l@L@",
"j ~ |     H.d d d _+d S ~.M@N@~.O@-.-.-.-.-.-.P@Q@R@S@T@U@V@W@X@Y@Z@`@ #.#+#A+K @#z+p.f 0@0@8 G@f @#0 {@6 6 ##P e e &.&.e e `+$#",
"%#q &#G.. *#=#4.4.4.-.-.T -#;#>#,#=#4.-.-.-.-.'#)#!#~#{#]#^#/#(#_#:#<#[#}#|#).).Z+Z+3.'@'.9 - 8 9 ~ i G.2 | 1#4.d ;.;.d d d I.M@",
"2#3#.+. . =#=#4.4.4.-.>#;#4#l <+5#4.4.-.-.-.-.6#7#8#9#0#a#b#c#d#e#f#g#h#i#j#Q ).).).Z+Y+k#l#'@f+@#i ] m#m#M -.;.;.;.;.d d d I.n#",
"q (+. . 2 =#=#4.4.4.-.M ).= I 1 1 M 4.-.-.-.;.o#p#q#r#s#t#u#v#w#x#y#z#A#B#C#D#5 5 5 a b b  +{@g@K 3#3 4.4.4.-.-.-.;.;.;._+d I./@",
"j ~ #+2 2 <+=#4.4.4.-.I ).E#1 1 | F#-.-.-.-.;.o#G#H#I#J#K#L#M#N#O#P#Q#R#S#T#U#5 5 5 a b b {@V#C@@#3#{ 4.-.-.-.-.;.;.;.d d _+##j@",
"% ~ ~ { 2 2 <+4.4.4.-.W#).E#1 1 | N -.-.-.-.;.i+X#Y#Z#`# $.$+$@$#$$$%$&$*$=$-$5 5 @+@+E+;$J >$C@@#3#l 4.-.-.-.-.;.;.;.d d d I.i@",
"~ 3 ~ * * 1 1 m#-.-.-.^+Z+= 7.| | | | |       5.>.,$'$)$!$~${$]$^$/$($_$:$<$[$5   @+_+h+~.'@K 9 @#% l 4.-.-.-.;.;.;.;.d d d P 9@",
"3 * * * * 1 1 | -.-.-.^+Z+H@7.| | |         5 5 5 }$|$1$2$3$4$5$6$7$8$9$0$a$b$a 5 @+h+&.U K K 9 @#& W#-.;.;.;.;.;.d d d _+_+r.9 ",
"L 3 * * * 1 1 | -.-.-.^+Z+H@7.| |           5.5 5 a c$d$e$f$g$h$i$j$k$l$m$n$5 a a Y+&.F+!@K K 9 @#& W#-.;.;.;.;.;.d d d _+_+r.p.",
"L F { 1 | -.-.-.-.-.;.>.b f@|   5 5 5 5 d d d @+a a a o$p$q$r$s$t$u$v$w$x$y$5 a b b  +6 `.@#@#9 = & F#;.;.;.;.;.d _+_+_+_+&.!@e@",
"L F { | N ;.-.-.;.;.d } b g@    5 a a 5 %.[+d @+a a b z$A$B$C$D$E$F$G$H$I$J$a a a 6 V#`.K$= @#9 9 V H.d d d d d _+d _+&.&.&.:+e@",
"Q L |     ;.;.;.;.d d 5.b W+a 5 4 a a b a L$n.;$ +b b M$N$O$P$Q$R$S$T$U$V$/+a a b b E+W$`.E#K$9 p.~ } d d d d _+_+&.&.&.&.&.:+e@",
"Q X$      ;.;.;.d d d 5  +W+E#l#k#k# + + +l#l#A+'@'@a@Y$Z$`$ %.%+%@%#%$%%%a a b b (@I.I.c@z+I@g@p.~ %._+_+_+_+_+_+&.&.&.I.I.:+W+",
").}       H.;.;.d _+_+K.6 &%D@f+9 9@f@I@H@'.@#K @#'.g@*%=%-%;%>%,%'%)%!%~%b b b b  +e I.*.d+I@C+)@).; &.&.&.&.&.&.&.&.I.e e G+{%",
">$~@]%!@6 e e e e *.*.^%g@/%J.'.'.e@e@W+J.X+E@(%_%:%<%[%}%|%1%2%3%4%5%6%7% +6.,.6 ~@:+n@^%`.g@8%8 f+@#*.^%*.*.*.*.:+:+9%*.G+/@:%",
"d+} ;.;.;.;.;.;.;.d d _+!@0%a%F b%c%c%d%e%f%_+e *.c@g%h%i%j%k%l%m%n%o%p%q%r%s%@#= '.t%'.p.- 8 G@f = u%Q * W#F#;.d _+&.I.I.e 4#8 ",
"5 1 4.4.4.4.4.-.4.-.-.-.;#v%~ 3#3#d%w%w%w%w%e%e%w%c%x%y%z%A%B%C%D%E%F%G%H%I%6.u%l#l#l#A+K '.E@8 K 2#J%%#K%q c%w%f%=#4.-.-.;.T L%",
"1 1 4.4.4.-.-.-.4.-.-.P@;#M%a%3#s.d%N%w%O%P%Q%f%<+R%* S%T%U%V%~ W%X%Y%Z%`%#+{ * I L L.W#R Z+~@ &.&2#h &#3 #+<+M F#-.-.F#;.;.&.++",
"2 1 4.4.4.4.4.-.-.-.;.H.Z+= * 3 3 { { 1 I | ^+>.    H.;#+&R L.L | | 8.        5 5 %._+_+_+~.e n#u%q .+1 1 1 1 1 | | | 7.;.;.&.@&",
"1 1 4.4.-.-.-.-.;.;.;.} Z+'.* * * 1 1 | | |       5 H.;##&R Q Q 8.        5 5 5 5 %._+&.&.&.e K@u%% 2 1 1 1 | | | 1 | >.;.;.&.$&",
"2 1 M 4.-.-.-.-.;.;.;.} 3.9 * * * * 1 | | |       5.H.T -##+* Q Q         5 5 5 5 5 _+&.&.&.e i@%&% { 1 1 1 | | | >.  >.;.;.&.$&",
"7.* | | | >.>.>.;.;.d Z.3.9 * * * I | | | |   >.;.d R 3.9 2 1     ;.;.H.  5 5 5 a a a a W$W$~@f@~@G.1 1 | | F#-.i+i+i+;.d d I.&&",
"L L |   |       H.d d ]+3.f+* L * 7.| | | |   5.d d %.6.p.I {   >.;.;.O   5 5 a a a a b b  +{@f@{@2 | 1 | | -.;.;.;.;.d d d &. &",
").X$            d d d Z.u%f+* * L L |     }   5.d _+K.l#p.b     H.d d d 5 b a a a a b b b 6 V#f@J 2 ^+| | | ;.;.;.;.d d d _+&._%",
"Z+).).).).5 5 5 5 5 a a  +{%| 1 |       H.d d d _+&.E+6 g@ +5 a @+_+_+_+5 a b b b b  + +W$:+G+*&= 3 ^+;.;.;.-.;.;.;.d d _+d I.E@",
"u%Z+).).).5 5 a a 5 b b  +{%b |   5 5 5 %._+d _+&.&.E+6 {% +5 a K._+_+n.b  +b b b b  + +]%G+=&l@'.~ ^+;.;.;.d ;.d _+d _+_+_+F+&&",
"A+Z+Z+).Z+5 5 a a a b b 6 &%C@a   5 5 5 @+_+_+_+&.&.P `.-&{@k#;$;$(@(@W$6 V#`.`.`.`.e+6 ]%G+=&;&p.3 L.;.;.;.d d d d d _+_+_+>&&&",
"= u%A+3.u%a a a a b k#,.@#)@f+e+/+Z.5 5 5 a b ,& +]%d+)@- @#@#= = = K$= H@e@J.p.p.9 @#a@0 '&m@{%C+).Z.;.d d d d _+_+_+_+&.&.>&E@",
"p.@#K '@'@e+6 6 6 V#I@'.)@f - = l#;$b b b b  +)&{@I@-&8 0@p.'.9 9 9 9 9 9 p.p.p.p.p.p.p.'.E#f@E@)@'@Y+_+_+_+_+_+_+&.&.&.&.I.:+7 ",
"e+u%!&;$u%b b  +6.{@f@C+f f 9 @#K J@J@J@J@'&K$I@f@g@J.&&G@E@= @#@#K$K$K$~&~&K$K J@K @#z+H@g@{&7 - @#0 n@:+*.:+:+:+*.*.:+G+`+K@]&",
"| 5 K.%.H.c ;.H.d %.@+l#9 - 6.    >.O d d d _+&.(@F+I.P =&^&b b ;$(@&.&.&.(@(@(@(@(@(@P !@*.k@/&;#l >#o#-.;.;.;.d d d _+_+&.e L@",
"2 (&R%4.-.-.;.-.-.d d c+K p.5 | 5.O d ;.;.d d _+_+d _+&.G+F.b b E+_+_+_+d _+&.&._+_+&.&.&.;.*.M@S P@P@;.-.;.;.;.d d d _+_+_+r.&&",
"2 2 =#=#4.4.4.-.;.-.;.]+l#9   |   H.;.d d d d _+_+d &.&.`+c@b b (@&.&._+d _+_+_+_+_+&.&.K.=#I.l@>#P@P@;.;.;.;.;.d d _+_+_+&.I.X+",
"3 3 4.4.4.4.4.4.-.-._+a 6.f@} | 5 %.d d d d d _+_+_+&.&.`+_& +b b E+~@a a a @+_+_+_+&.&.&.W#:&J.^+    ;.;.;.;.;.d d d &._+_+I.X+",
"* 3 4.4.4.-.-.4.-.-.K.E+]%f@    5 %.d d _+_+_+_+_+_+&.&.`+_&]%6 ]%6 `.b b a @+_+_+_+&.&.(@6.'@J.|   >.;.;.;.;.;.d d d &._+&.e X+",
"3 * 4.4.4.-.-.-.-.-._+E+6 g@5   5 %.d d d _+_+_+_+_+&.I.=&^&6 {@o.I@f@V#b a @+_+_+_+&.I.P l#J <&|   >.;.;.;.d d d _+_+_+&.&.e - ",
"{ 1 1 I N F#-.-.;.-.&.W${@g@5 5 a %.d _+_+_+_+_+&.&.I.I.=&[&:+}&`+I.K.:+;$b E+&.&.&.&.I.I.e ]@j@^+  H.d d d d d _+_+&.&.&.&.e &&",
"2 1 1 1 | -.-.-.;.;.F+6.{@g@5 5 a %.d _+_+_+_+_+&.&.e e K@K@:+G+I._+_+n. +b E+&.&.&.&.I.e |&G+j@|   } d d d d d _+_+&.I.I.I.:+{&",
"2 | | | | -.-.;.;.;.I.]%V#W+a 5 a K._+_+&.&.&.&.&.I.e !@n#n#`+*.&._+&.@+]%b E+&.I.I.I.e e *.`+/@| 5 5.d _+_+_+_+_+&.&.e I.I.:+1&",
"2 |       ;.;.;.d d I.!@V#{%b 5 a K.&.&.&.&.&.&.I.I.U 0 ++2&k@K@I.&._+n.e (@(@;$6.6.6.]%b@'@K$p.Q Z.Z.a a a @+E+E+W$ +W$e e *.3&",
"| 5       ;.;.;.d d e ~@`.-&6 b  +(@(@I.I.I.e e e e n@K$0@d@/@=&*.e e :+:+:+4&{@0 V#V#F.s%= 9 - Z+3.Y+; b b b b  + + +5.:+*.`+8%",
"|     } 5 H.d d 5&5&e b@I@6&f@I@d+^%*.G+G+G+G+`+`+=&4#- 8 2&4.4.!@G+7&G+8&*.^%V#J@K$g@W+<&p.)@0@- @#l#6 6 {@{@{@{@{@{@n@!@:+:+$&",
"s%a@a@{@6.;$c+]+).Z.m <&E@9&<&6.4 } d d d d ;.d d d ;#~.~&L%c+W#H.5.@+@+]+]+]+K.K.~@J@s%s%M%L%(%L%% 3#% G (+(+(+(+& (+G 0&0&e%K.",
"3.).).Q } ).Z+).).).3.l#= 8 u%).).%.d d d ;.d d d _+;#T v%L%3.Q 8.  5 5 ).).Z._+_+Y+A+'@'@a&b&c&3.K%~ * L L L L L L L L P@P@S d&",
").L Q Q Q Q ).).).).Z+Z+u%'.Z+).).H.;.;.;.d d d d d d _+d&t%L Q         ).Z+]+d _+@+u%e&e&a&a&~&L 2#3 L L L L L Q Q Q Q S S T v%",
"            } 5 %.%._+&.~.N@;$5 4   >.5.5.5.5.5.%.D+;#;#b&M%@ 1           4 5 5.@+K.U :+a&a&a&M%* 2#3 L L L | | |       R ).Z+= ",
"              5 %.d _+&.I.N@P #   |   5 5 5 5 5 5 a K._+b&c@@ 1 |         5 5 5 a Y+&.:+:+a&a&v%* f&3 L L L | | |       ).Z+3.= ",
"        5 5 5 5 D+&.&.I.I.K@W$G.    5 5 5 5 5 5 5 5 (@T b&J G.1           5 5 5 a a h+e *.g&h&i&* f&3 L L L | | |     5 Q Z+3.= ",
"a   5 5   5.%.%._+_+&.&.e n#!&{ } 5 5 5 5 5 5 5 D+@+&.&.G+'&|           H.%.%.D+@+K.&.e :+g&g&M%* f&3 L L L 8.8.8.    5 R %.c++&",
"a   5 5   O d d _+_+&.I.e n#!&).).5 5 5 5 5 5 Z._+_+n.j&`+c@|           ;.d d _+_+K.&.e :+g&g&M%* f&3 L L L Q Q Q     5 d d T +&"};
