/* XPM */
static char *xpm_[] = {
/* columns rows colors chars-per-pixel */
"64 64 240 2 ",
"   c #3F3533",
".  c #584630",
"X  c #5E5636",
"o  c #5F573A",
"O  c #6B522F",
"+  c #7A5A28",
"@  c #665938",
"#  c #6D633A",
"$  c #7D6B36",
"%  c #78673C",
"&  c #373647",
"*  c #413E47",
"=  c #3F4051",
"-  c #4C454A",
";  c #51494B",
":  c #5F554B",
">  c #4A4958",
",  c #544F58",
"<  c #5A5357",
"1  c #62574B",
"2  c #695B48",
"3  c #755C40",
"4  c #665C58",
"5  c #776848",
"6  c #756B50",
"7  c #776957",
"8  c #525364",
"9  c #535467",
"0  c #565769",
"q  c #5A5B6B",
"w  c #5D6170",
"e  c #696567",
"r  c #746C68",
"t  c #7C7269",
"y  c #626374",
"u  c #6A6D7A",
"i  c #787578",
"p  c #9A6A1D",
"a  c #A9751C",
"s  c #B57C1A",
"d  c #8F6725",
"f  c #9B772B",
"g  c #866937",
"h  c #887737",
"j  c #967737",
"k  c #A4772B",
"l  c #886C49",
"z  c #887546",
"x  c #8B7B4C",
"c  c #917449",
"v  c #836E57",
"b  c #867456",
"n  c #8D7D53",
"m  c #8B745B",
"M  c #8D795B",
"N  c #927D56",
"B  c #957B59",
"V  c #887366",
"C  c #887769",
"Z  c #937C65",
"A  c #937E69",
"S  c #857C78",
"D  c #BB8019",
"F  c #938137",
"G  c #998436",
"H  c #A9852B",
"J  c #B68E28",
"K  c #BA952A",
"L  c #A98833",
"P  c #B98D34",
"I  c #A69339",
"U  c #AA9A3D",
"Y  c #B69D37",
"T  c #BBA230",
"R  c #C58819",
"E  c #C98C19",
"W  c #CE991E",
"Q  c #C89625",
"!  c #CF962C",
"~  c #C5A32D",
"^  c #CAA62D",
"/  c #CBA62E",
"(  c #D6A323",
")  c #D2A12E",
"_  c #D5AA28",
"`  c #DBB82D",
"'  c #C5A535",
"]  c #D9AD36",
"[  c #D7AB38",
"{  c #C5B33B",
"}  c #D8B838",
"|  c #DCC13A",
" . c #E1C338",
".. c #91854F",
"X. c #988948",
"o. c #968456",
"O. c #94825B",
"+. c #9C8D5C",
"@. c #A48E46",
"#. c #AA9B42",
"$. c #A8974A",
"%. c #B69B4D",
"&. c #A18F56",
"*. c #A99956",
"=. c #B59D54",
"-. c #AFA146",
";. c #BBA546",
":. c #BFAD4D",
">. c #AEA15A",
",. c #B9A857",
"<. c #BEB15B",
"1. c #998864",
"2. c #95836B",
"3. c #9A856D",
"4. c #9C8A6E",
"5. c #9F9166",
"6. c #8D8371",
"7. c #958471",
"8. c #998673",
"9. c #9C8B73",
"0. c #928878",
"q. c #9C8D79",
"w. c #9E9274",
"e. c #A28A6E",
"r. c #A79666",
"t. c #A58C77",
"y. c #A59479",
"u. c #AB967D",
"i. c #AE997E",
"p. c #B2957D",
"a. c #B79A7E",
"s. c #B9A765",
"d. c #BDB16F",
"f. c #B9A977",
"g. c #C8A945",
"h. c #D4AC44",
"j. c #C9B845",
"k. c #D1BC45",
"l. c #C1AD54",
"z. c #C5B65A",
"x. c #D5B355",
"c. c #CDB76D",
"v. c #C6B868",
"b. c #DDC442",
"n. c #D9C54A",
"m. c #D8C557",
"M. c #E4CB44",
"N. c #E7D34A",
"B. c #E6CD59",
"V. c #E9D653",
"C. c #EAD659",
"Z. c #EBDA5A",
"A. c #DACA66",
"S. c #D0C374",
"D. c #E5CC6B",
"F. c #E9D566",
"G. c #EEDD64",
"H. c #E9DB73",
"J. c #EFE06B",
"K. c #F0E16E",
"L. c #EFE37C",
"P. c #F2E374",
"I. c #F3E67B",
"U. c #F4E87E",
"Y. c #747684",
"T. c #7B7D8C",
"R. c #7E8290",
"E. c #85858C",
"W. c #9C938A",
"Q. c #848894",
"!. c #8F8E91",
"~. c #898C99",
"^. c #989595",
"/. c #AE9982",
"(. c #AA9A86",
"). c #B39C83",
"_. c #B39984",
"`. c #BC9D84",
"'. c #A29C96",
"]. c #B3A687",
"[. c #BCA286",
"{. c #BDA68A",
"}. c #B1A98E",
"|. c #BEA88B",
" X c #979CA6",
".X c #9DA3AC",
"XX c #9FA6B0",
"oX c #A6A8AC",
"OX c #B0AEAE",
"+X c #B6B2AA",
"@X c #A5ABB4",
"#X c #A8ADB5",
"$X c #ACB3BC",
"%X c #B7B9B8",
"&X c #C4A389",
"*X c #C4A58B",
"=X c #C2AA8D",
"-X c #CBA98E",
";X c #C4BB87",
":X c #C1AD96",
">X c #CDAD91",
",X c #D2AE93",
"<X c #CDB393",
"1X c #C6B49C",
"2X c #D5B195",
"3X c #D3B897",
"4X c #D6B698",
"5X c #D6BA99",
"6X c #D7BC9A",
"7X c #D8BC9B",
"8X c #D8BD9B",
"9X c #D9BD9B",
"0X c #D9BE9B",
"qX c #CCBAA2",
"wX c #C1BBB1",
"eX c #D1C98B",
"rX c #DCC09D",
"tX c #EADF92",
"yX c #F3E583",
"uX c #F6EA84",
"iX c #F7EC8A",
"pX c #F8ED8E",
"aX c #F6EC95",
"sX c #F8EE94",
"dX c #D6CFA2",
"fX c #F7EDA1",
"gX c #F9F1A6",
"hX c #FAF2B5",
"jX c #AFBBC3",
"kX c #B4BCC3",
"lX c #BBC4CA",
"zX c #C5C9CC",
"xX c #C6CCD1",
"cX c #CCD3D8",
"vX c #D4D8D9",
"bX c #FBF6C8",
"nX c #FBF7D1",
"mX c #D6DDE1",
"MX c #DDE4E8",
"NX c #F8F7E6",
/* pixels */
"8X8X8X8X8X8X8X8X8X8X8X8X8X8X8X8X3XrXrX5XrX5X3XrX3X3XrX3X7X7XrX7X7X7X7X0X6X0X6X0XrX5XrXrX5XrXrX5XrX3XrX5X5XrX5XrX5XrX3XrX3X3XrX5X",
"8X8X8X8X8X8X8X8X8X8X8X8X8X8X8X8XrX3X3XrX5XrXrXrXrXrXrXrX7X7X6X7X7X7X0X7X0X6X0X6X5XrX5X5XrX3X3XrX5XrX3XrXrX5XrX5XrX3XrXrXrXrX3XrX",
"8X8X8X8X8X8X8X8X8X8X8X8X8X8X8X8XrXrXrX5XrXrX3X3XrX3X3XrX0X7X7X5X6X7X0X0X0X6X6X0XrX5XrX6XrXrX3XrXrXqXrXrXrX5XrX6X5XrXrX3XrXrXrXrX",
"8X8X8X8X8X8X8X8X8X8X8X8X8X8X8X8X3XrX5XrX3XrXrXrXrXrXrX3X7X5X5X2X3X4X7X5X6X0X7X6X5XrX6XrX3XrXrX3XrX3XrX3X5XrX5X6XrX3X3XrX3X3XrX3X",
"8X8X8X8X8X8X8X8X8X8X8X8X8X8X6X5X3X5X5X5X6X6X0X0XrX3X3X0X3X2X3X,X<X2X3X4X6X6X5X6XrXrX6XrXrXrX3XrX3X3X6X6XrX6XrX6XrX5XrX5XrXrXrXrX",
"8X8X8X8X8X8X8X5X6X5X6X3X5X<X=X{.[.{.|.=X|.=X=X=X|.}.=X{.{.[.`.`.`.`.`.[.{.{.|.|.=X|.|.|.|.|.|.|.|.}.=X=X3X3X6X3X3XrX3XrX3XqXrX3X",
"8X8X8X8X8X5X5X5X3X3X3X<X<X{.y.1.2.2.3.2.7.2.2.3.8.7.2.2.A A A A 2.A 2.2.2.2.2.7.2.7.7.2.2.2.3.3.8.8.9.y.{.<X<X3X<X3X3X5XrX3X3XrX",
"8X8X8X8X6X3X=X|.[.[.[.).u.e.m l x n O.O.O.O.O.O.O.+.O.O.N n N N N o.N N n B B O.+.1.2.2.2.2.2.6.6.0.6.0.y.u.i.[.[.}.|.=X1XrX3XrX",
"8X8X8X6X3X=Xu.9.3.2.6.O.t 6 g g F I $.>.>.;.=.%.,.l.,.=.%.%.%.=.g.;.=.%.%.%.%.=.l.c.a.a.a.f.f.].}.'.w.0.t t O.6.8.0.q.(.=X5XrXrX",
"8X8X8X3X:X].w.0.1.1...x # O O + F I #.-.g.g.g.h.[ h.h.h.g.' h.[ h.h.[ h.g.h.h.h.x.x.c.x.c.v.f.f.d.}.0.t 5 6 ..O.w.q.0.w.].=X<X5X",
"8X8X6X:Xi.y.(.}.f.d.,.X.d O . . + F G I Y ! ^ ) ) ) ) ) ) ) ) ) ) ) ) ! ) ) ) ) ) [ [ [ h.g.$.$.+...4 : # F >.s.|.}.}.(.y./.;X6X",
"8X5X5X|.y.q.}.eXS.v.:.I + + . . d p H J ) [ ] ] ] ] ] ] [ [ ] ] ] ] [ [ ] ] ] ] h.[ [ h.h.g.;.%.-.F o X # F #.<.S.eXdX}.q.q.=X3X",
"8X6X3X=Xq.w.;XS.v.>.X.h O . O + a R ! } b.B.B.B.B.B.B.B.Z.C.B.B.B.B.B.B.B.F.D.F.D.D.D.F.D.D.A.m.j.-.F # o # z &.>.S.S.|.q.q.|.3X",
"8X6X3X{.q.w.S.S.-...n v 2 @ d p D W ` M.C.G.G.P.P.P.I.I.I.P.P.P.P.P.P.P.P.I.yXiXaXaXaXaXfXfXaXI.J.m.U h # 5 6 o...-.S.S.y.9.|.3X",
"8X5X3X|.q.5.v.<.5 5 2.9.7 3 d a R W  .N.G.P.P.I.uXuXuXuXiXuXuXuXuXuXuXuXuXiXaXsXhXhXhXhXnXnXhXsXuXZ.{ G 6 7 w.1.6 $ :.z.5.9.|.3X",
"8X6X3X|.w.+.<.-.# 1 y.).7.l a s E (  .N.J.I.uXuXiXiXpXpXiXiXiXiXiXiXiXiXiXpXsXgXhXhXhXbXNXNXnXhXaXJ.j.U x 6.(.w.: # -.z.5.9.{.3X",
"8X8X3X&X4.&.l.-.@ : u.|.8.b k D E (  .N.G.I.U.uXiXiXiXiXiXiXiXiXiXiXiXiXiXiXpXpXaXgXgXbXNXNXbXgXaXH.j.-.o.8.|.u.1 o -.<.5.q.=X3X",
"8X6X3X{.4.+.:.U X 1 /.=X9.N k s E (  .V.K.I.uXiXiXiXiXiXiXiXiXiXiXiXiXiXiXiXiXiXiXpXgXhXbXbXhXfXaXH.| -.O.8.=X/.1 o $.<.5.W.|.3X",
"8X6X3X{.4.+.:.U X : (.=X8.m k s E (  .V.K.uXuXiXiXiXiXiXiXiXiXiXiXiXiXiXiXiXiXiXiXiXpXaXgXgXaXsXiXH.j.-.O.8.=Xi.: o #.:.5.9.|.<X",
"8X6X3X{.4.+.:.U X : /.*X8.c k s E (  .C.P.iXiXiXiXiXiXiXiXiXiXiXiXiXiXiXiXiXiXiXiXiXiXiXpXpXpXpXiXJ.j.U n 8.|.i.: o U :.+.4.{.3X",
"rX5X3X{.4.+.:.#.X : /.|.A l k s E (  .V.P.iXiXiXiXiXiXiXiXiXiXiXiXiXiXiXiXiXiXiXiXiXiXiXiXpXsXsXpXH.j.U x 6.|.i.: X U :.+.4.{.<X",
"rX5X3X{.4.+.:.#.o : t.&XA v d a E (  .V.P.iXiXiXiXiXiXiXiXiXiXiXiXiXiXiXiXiXiXiXiXiXiXiXpXpXsXsXpXH.j.U ..6.|.u.: X U l.+.4.{.3X",
"3XrX3X|.w.+.:.U O : _.&Xt.m k s E (  .V.P.uXuXiXiXiXiXiXiXiXiXiXiXiXiXiXiXiXiXiXiXiXiXiXiXpXpXpXiXH.j.U ..0.|.u.: X U :.+.4.|.<X",
"rX3X3X].4.+.:.-.# 4 A p.V l k s E (  .V.K.U.U.U.uXuXuXuXiXiXiXiXiXiXiXiXiXiXiXiXiXiXiXiXiXuXiXiXuXH.j.U 6 6.u.9.2 # -.l.+.4.{.3X",
"3XrX3X{.4.5.l.:...5 b t 4 3 p D E (  .N.G.K.P.I.P.P.U.U.iXiXiXiXiXiXiXiXiXiXiXiXiXiXuXuXuXuXuXuXL.Z.| U 5 4 t C 5 F :.<.5.w.].<X",
"rX3X3X{.4.1.<.z.-.X...5 O O d s E ( ` M.V.Z.K.K.J.J.P.U.U.U.uXiXiXiXiXiXuXiXiXiXiXiXuXuXU.uXuXI.Z.n.{ I $ 5 6 ..X.-.z.<.+.w.{.eX",
"3XrX3X{.4.+.,.v.z.:.*.X.g + d p R W `  .N.V.J.J.Z.Z.J.K.J.K.U.uXuXuXuXuXuXuXuXuXuXuXuXuXU.I.K.Z.N.| T F h z +.>.z.z.m.s.+.4.{.3X",
"rXrX3X|.r.e.r.,.<.,.$.X.g O d d s W _  . .M.V.Z.V.V.Z.J.G.J.J.K.P.K.P.P.P.P.P.P.I.P.P.P.J.G.C.M.| T G $ $ ..X.>.<.<.>.r.4.y.=X3X",
"rX3X6X<X{.y.O.N ..x x z % O : O p D Q _ `  . .M.N.N.V.Z.V.V.Z.Z.C.Z.Z.Z.Z.Z.Z.Z.Z.Z.Z.Z.V.M.M.] U F $ @ 5 g x x x ..n 1.y.&X3X6X",
"3XrX8X5X2Xa.3.M m m m N m v v 5 g f k R ( _ ` ` | | b. .M.b. . . .M. .b.M.M.b. .b.b.b.b.| } ~ K F h 5 6 m B M M m m M 4.[.<X3XrX",
"rX5X3X5X2X-X[.a.a.a.a.a.a.a.p.e.v l d k H K Q ~ ~ ~ ' ' ^ ' ^ ^ _ _ ^ ^ ^ / / ' ^ ~ ~ ^ T K k j l m e./.a.a.a.a.a.p.`.[.<X3X5XrX",
"3XrX6X3X2X2X,X>X-X>X2X2X,X,X,X`.8.m l g f k H H H H L H H H K K Q ! K J H H H L L L L L L j g l m e.`.,X,X2X2X,X>X>X>X2X2X3X6X3X",
"2X2X2X2X2X2X2X2X2X,X2X2X2X,X,X,X&Xa.A B B c c c c l l g O + f L Q Q k j g % g l l c c c c B B A a.&X,X2X2X2X2X2X,X2X,X2X2X2X2X2X",
"2X2X2X2X2X2X2X2X2X2X2X2X2X2X2X2X,X-X&Xp.A A Z Z Z v 7 2 . O j P ! Q ! d O . 1 7 m Z Z Z A A t.`.,X2X2X2X2X2X2X2X2X2X2X2X2X2X2X2X",
"rX2X2X2X,X2X2X2X2X2X2X2X2X2X2X2X2X,X,X&X&X`.`.`.a.t.V 1 . o j ! ! ! %.c O & 1 b t.`.`.`.&X&X&X,X,X2X2X2X2X2X2X2X2X2X2X2X2X2X2X0X",
"2X2X2X2X2X2X2X2X2X2X2X2X2X2X2X2X2X2X2X2X2X,X,X,X&Xp.m 5 @ 5 @.g.h.h.g.=.m e V A _.&X,X2X2X2X2X2X2X2X2X2X2X2X2X,X2X2X,X2X2X2X2X2X",
"2X2X2X2X2X2X2X2X2X2X2X2X2X2X,X2X2X2X2X2X2X2X2X-Xp.Z c j @.,.c.D.D.D.D.S.=X}.'.^.t._.&X2X2X2X2X2X2X2X2X2X2X2X2X2X2X2X2X2X2X2X2X2X",
"2X2X2X2X2X2X2X2X2X2X2X2X2X2X2X2X2X2X2X2X2X2X2X-Xt.B j P j.A.H.I.yXyXyXyXtXdX=X'.t.t.&X2X2X2X2X2X2X2X2X2X2X2X2X2X2X2X2X2X2X2X2X2X",
"2X2X2X2X2X,X2X2X2X2X2X2X2X2X2X2X2X2X2X2X2X2X,X-Xt.B c L k.F.P.I.yXI.I.yXuXeX=Xr.A t.-X2X2X2X2X2X2X2X,X2X2X2X2X2X2X2X2X2X2X2X2X2X",
"2X2X2X2X2X2X2X,X2X2X2X2X2X2X2X2X2X2X2X2X2X4X4X-X_.1.c k ;.x.B.F.F.F.G.F.A.v.>.5.e.p.-X2X2X2X2X2X2X2X2X2X2X2X2X2X2X2X2X2X2X2X2X2X",
"2X2X2X2X2X2X2X2X2X2X2X2X2X,X2X,X2X2X2X2X2X2X2X2X&X4.z g F I ' [ } } ] ' U ..5 O.y.[.-X2X2X2X2X2X2X2X2X2X2X2X2X2X2X2X2X2X2X2X2X2X",
"2X2X2X2X2X2X2X2X2X2X2X2X2X2X2X2X2X2X2X2X2X2XrX4X<X).A 5 $ h Y _ ] } [ ' F % 5 +.f.:X2X4X2X2X2X2X,X2X2X,X2X2X2X2X2X2X2X2X2X2X2X2X",
"2X2X2X2X2X2X2X2X2X2X2X2X2X2X2X2X2X2X2X2X4X4X4XrX6X=Xy.O.z F g.m.B.B.B.g.X.x 1.u.=X4X5X2X2X2X2X2X2X2X2X2X2X,X2X2X2X2X2X2X2X2X2X2X",
"2X2X2X2X2X2X2X2X2X,X2X2X2X2X2X2X2X2X2X2X4X4X4XrXrX:Xy.1.X.U m.G.K.P.P.A.>.+.2.y.<X8X8X5X3X2X2X2X2X2X2X2X2X2X2X2X2X2X2X2X2X2X2X2X",
"2X2X2X2X2X2X2X2X2X2X2X2X2X2X2X2X2X2X7X2X4X2X4X4XeX[.2.x U j.F.P.I.yXyXH.A.>...C [.<XeX1X<X3X2X2X2X,X2X2X2X2X2X2X2X2X2X2X2X2X2X2X",
"2X2X2X2X2X2X2X2X2X2X2X2X2X2X2X2X2X2X>X=X`._.i.i./.y.n F { b.Z.K.I.uXuXL.Z.l.X.n e.i.i./.u._.&X-X,X2X2X2X2X2X2X2X,X2X2X2X2X2X2X2X",
"2X2X2X2X2X2X2X2X2X2X2X,X4X2X2X4X5X<X).3.7 6 5 7 5 6 X.-.|  .N.Z.G.K.I.K.V.n.-.X.b 7 7 e 7 t 3._.,X,X2X2X2X2X2X2X2X2X2X2X2X2X2X2X",
"2X2X2X2X2X2X2X2X2X2X2X,X>X-X-X>X>X[.3.v # @ @ @ 2 F U j.{ n.| n.B.B.D.B.n.} { #.z 5 2 5 4 6 v 2.a.,X&X,X&X,X,X2X2X2X2X2X2X2X2X2X",
"2X2X2X2X2X2X2X2X2X,X,X&X`.p.p.p./.9.5 # g f G I @.$.%.;.g.;.g.g.l.:.l.:.g.;.;.%.$.$.&.&.+.n 7 7 e.p.p.p.p.`.-X,X,X,X2X2X2X2X2X2X",
"2X2X2X2X2X2X2X2X2X2X,X&Xt.B A Z 2.V 5 5 X.=.*.$.$.$.$.$.*.*.>.*.*.$.@.$.X.@.*.=.s.s.*.*.&.M 5 7 Z t.t.A 8.t.&X,X,X,X2X2X2X2X2X2X",
"2X2X2X,X2X2X2X2X2X,X,Xp.V 4 4 r e e e S (.].y.2.O.7 v 7./.].].f.w.2.7 6 7 b 9.].=X].y.7.t 7 r S !.W.p.E.V V _.-X,X2X2X2X2X2X2X2X",
"2X2X2X2X2X2X2X2X2X,X,Xt.4 - > , , e i ^.+X+X^.0.e < e S }.%X%X+X^.S e < < r W.+X%X+X!.i 4 e i !.'.OXOX'.Y.V p.,X,X,X2X2X2X2X2X2X",
",X2X2X2X2X2X2X2X2X,X-Xt.< * = > > w Q.@XxXxXOXQ.y 0 y E.%XvXvXxXoXE.y , 8 u .XzXvXzXoXi q q R.oXzXvXvXlX!.V p.&X,X,X2X2X2X2X2X2X",
"2X2X2X2X2X2X2X2X2X,X,Xt.1   > > 8 y Q.#XcXvX$X~.y 0 y R.lXMXMXcX#XQ.w 8 9 Y.#XcXvXxXXXT.w w Q.#XcXMXMXxX~.t._.-X,X2X2X2X2X2X2X2X",
"2X2X2X2X,X2X2X2X2X2X,Xp.< * > 9 0 y R.@XzXzX#X~.y q y R.$XcXvXxX@XR.y 0 0 Y.@XxXcXzX.XT.w y R.oXzXvXmXzX^.!.`.,X2X2X2X2X2X2X2X2X",
"2X2X2X2X2X2X2X2X4X4X,Xp.4 > q Y.Y.R.~. X#X#X X~.R.Y.R.Q.XX#X$X#X X~.T.Y.Y.Q. X#X#X@X X~.T.T.~. X#X#XkX.XT.S `.,X2X2X2X2X2X2X2X2X",
"2X2X2X2X2X2X4X6XrX4XqX_.e y ~.#X#XoX X~.T.T.~. X@X$X@X XQ.T.T.R.~. XoX@X#X.X~.R.T.T.~. X#X#X.X~.R.T.T.Y.y i _.2X2X2X2X2X2X2X2X2X",
"2X2X2X2X2X4X4X6XrX4X,X(.r Y.oXlXlX$X~.Y.9 9 u  XjXlXjX Xu 8 8 0 Y. XkXlXlXXXY.8 9 q T..XlXkX.XR.w 8 9 8 , e (.2X2X2X4X2X2X2X2X2X",
"2X2X4X2X3X5X6X6XrX4X2X_.t i @XkXkX@XQ.q & & q R.@XjX@X~.8 & & & w Q.#XlXjX.Xw & & & u ~.$X$X~.y * & & & * 4 W.2X2X4X4X4X2X2X2X2X",
"2X2X4X4X4X4X6X6X4X4XqX&X0.!.OXkX%XoX!.u , , r E.oX%XOX!.e - - , i !.#X%X%X^.i < ; 0 i ^.OXOX^.i < > ; , 4 V _.2XrXrXrX2X4X2X2X2X",
"2X2X4X4X6X6X7XrX6X6X7X2X=X:XqXqXqXqX=X}._._.}.:X1XqXqX|.}.(.u.).|.}.3XqXqX+X[./._._.}.qXqXqX1X=X_._.(._._.*X,X4XrX4XrX4XrX4X2X2X",
"2X4X4X7XrX7X7X7X0X7X5X0X0X0X0X0X0X0X0X0X0X0X0X0X7X7X7XdXrXrXrX6XrXrXrX3X5XrXrXrXdX0XrX4X7X7X0X0X8XrX0X0XrXrXqXrX4XrXqXrX4X4X4X2X",
"4X7X7X7X7X7X0X7X6X0X7X0X0X0X0X0X0X0X0X0X0X0X0X9X7X0X7X7XrXrXrXrXrX6X5XrX5XrXrXrX0X7X7X0X7X7X0X7X0X0X0X0XrXrXrXrXrX4XrX4XrX2XrX2X",
"4X4X7X7X7X7X7X6X0X6X0X7X7X0X7X0X0X0X0X0X0X0X0X7X0X7X0X7X7X7X6X7X7X7XrX5XrX5XrX5X0X7X0X7X0X7X0X7X0X0X0X7X4XrX4XqXrXrXrX4XrXrX2XrX"
};
