/* XPM */
static char *ef6d950789bf4fd5a57c8dccc751713aG4igZAvxEFhJzAWf[] = {
/* columns rows colors chars-per-pixel */
"64 64 232 2 ",
"   c #341D04",
".  c #391900",
"X  c #311E17",
"o  c #392602",
"O  c #3D2215",
"+  c #2F241E",
"@  c #161827",
"#  c #1F212D",
"$  c #2A2624",
"%  c #312421",
"&  c #342925",
"*  c #392A25",
"=  c #3A2C29",
"-  c #3B2726",
";  c #232535",
":  c #2B333C",
">  c #3D2E31",
",  c #0E1118",
"<  c #451C00",
"1  c #432907",
"2  c #49350B",
"3  c #563607",
"4  c #442513",
"5  c #4D3A18",
"6  c #523A16",
"7  c #633C11",
"8  c #4D3529",
"9  c #603D21",
"0  c #4E421B",
"q  c #5A4213",
"w  c #6A4208",
"e  c #714F10",
"r  c #56452E",
"t  c #6A522C",
"y  c #75542C",
"u  c #694D36",
"i  c #685339",
"p  c #74522D",
"a  c #756A3B",
"s  c #333642",
"d  c #353A45",
"f  c #393D4A",
"g  c #2C2C42",
"h  c #423D4D",
"j  c #3C424D",
"k  c #3D4452",
"l  c #3F4859",
"z  c #41454E",
"x  c #544946",
"c  c #424552",
"v  c #484C57",
"b  c #58555B",
"n  c #544D54",
"m  c #6B5D4B",
"M  c #685646",
"N  c #725B4A",
"B  c #665954",
"V  c #614C47",
"C  c #6E614D",
"Z  c #786947",
"A  c #7F7148",
"S  c #6F6252",
"D  c #77625A",
"F  c #7F7154",
"G  c #585864",
"H  c #535568",
"J  c #645C63",
"K  c #6B747C",
"L  c #6F6C70",
"P  c #A9781A",
"I  c #895E38",
"U  c #8C6E38",
"Y  c #9D6C20",
"T  c #815844",
"R  c #84734A",
"E  c #897657",
"W  c #8B6C51",
"Q  c #AB7C44",
"!  c #8A7A62",
"~  c #9A7461",
"^  c #A17D6D",
"/  c #B98E14",
"(  c #BB8B0F",
")  c #BEA212",
"_  c #B78D2B",
"`  c #B89331",
"'  c #8C843C",
"]  c #C48F18",
"[  c #C69526",
"{  c #C59B37",
"}  c #C18D37",
"|  c #DCB72F",
" . c #D8BE3A",
".. c #C8B333",
"X. c #E8B937",
"o. c #E2B929",
"O. c #DEC738",
"+. c #E6C52D",
"@. c #E5C43A",
"#. c #98884B",
"$. c #B9934F",
"%. c #938362",
"&. c #9D916B",
"*. c #A48866",
"=. c #A7956D",
"-. c #AA8E73",
";. c #A79474",
":. c #B29377",
">. c #C89A4D",
",. c #D9B252",
"<. c #CFAC44",
"1. c #EABC47",
"2. c #F6BE43",
"3. c #C5AF6F",
"4. c #D9C749",
"5. c #DACA50",
"6. c #E3C443",
"7. c #EBC94C",
"8. c #ECD64B",
"9. c #F7D151",
"0. c #FCE758",
"q. c #DAC773",
"w. c #E5CE72",
"e. c #FDED73",
"r. c #6C7582",
"t. c #727B84",
"y. c #757C89",
"u. c #7C8290",
"i. c #868487",
"p. c #8F878B",
"a. c #B59B8C",
"s. c #B7A589",
"d. c #B6A69A",
"f. c #AFA299",
"g. c #979DA3",
"h. c #A49EA2",
"j. c #99A2AB",
"k. c #9AA2B2",
"l. c #A7ACB7",
"z. c #ACB3BE",
"x. c #B7B5BA",
"c. c #B0A9A8",
"v. c #CEAD8C",
"b. c #C3A98D",
"n. c #D7AC8E",
"m. c #CEB38D",
"M. c #CFB286",
"N. c #D4B586",
"B. c #D4B38D",
"V. c #D8B28D",
"C. c #D7BC8D",
"Z. c #CDAD94",
"A. c #CBAD9B",
"S. c #C7AB96",
"D. c #D3AD94",
"F. c #DBAE94",
"G. c #D2AD9C",
"H. c #D8AF9B",
"J. c #D7A791",
"K. c #CEB395",
"L. c #CDB39C",
"P. c #CEB99A",
"I. c #C6B596",
"U. c #D5B295",
"Y. c #D9B294",
"T. c #D6BD95",
"R. c #D9BC95",
"E. c #D4B39B",
"W. c #D9B49A",
"Q. c #D7BD9A",
"!. c #D8BA9A",
"~. c #D9BD98",
"^. c #D9BC9A",
"/. c #DABD9A",
"(. c #D9BB9D",
"). c #D9BC9C",
"_. c #DABD9D",
"`. c #D9BC9B",
"'. c #E1BC9E",
"]. c #D8AEA1",
"[. c #CDB3A2",
"{. c #CEBCAD",
"}. c #C9B7A9",
"|. c #D3B4A1",
" X c #DBB4A2",
".X c #D5BDA2",
"XX c #DBBBA3",
"oX c #D1BDAE",
"OX c #DBB8AA",
"+X c #CBB5AC",
"@X c #E1BFA4",
"#X c #D7C08E",
"$X c #CCC39E",
"%X c #D7C094",
"&X c #DCC29C",
"*X c #D5C19C",
"=X c #F2DF81",
"-X c #E1C39F",
";X c #FEEA85",
":X c #FEF189",
">X c #FFF492",
",X c #F7E88D",
"<X c #D5C1A2",
"1X c #DBC3A4",
"2X c #DCC2AA",
"3X c #D6C3AA",
"4X c #D6C3B3",
"5X c #E0C3A4",
"6X c #FFEDAF",
"7X c #ADB4C2",
"8X c #B2B5C2",
"9X c #B6BAC7",
"0X c #C3BDC3",
"qX c #BDC2CD",
"wX c #BFC2D1",
"eX c #C8CBD6",
"rX c #D7CED4",
"tX c #DAD4DA",
"yX c #D9D5D8",
"uX c #C7C9D3",
"iX c #EDDDDE",
"pX c #DADEEA",
"aX c #D7DBE7",
"sX c #DCE2ED",
"dX c #DCE1E7",
"fX c #DDE5F3",
"gX c #E1E2EB",
"hX c #E3EAF5",
"jX c #E8E9F4",
"kX c #ECF3FD",
"lX c #FEFCFF",
"zX c #F6F7FF",
/* pixels */
"Q.Q.Q.Q.Q.Q.Q.Q.Q.Q.Q.Q.Q.Q.Q.Q.~.~.~.~.Q.Q.Q.Q.Q.Q.Q.Q.Q.Q.Q.Q.Q.Q.Q.Q.Q.Q.Q.Q.Q.Q.Q.Q.~.~.~.~.~.Q.Q.Q.Q.Q.Q.Q.Q.Q.Q.Q.Q.Q.Q.Q.",
"Q.Q.Q.Q.Q.Q.Q.Q.Q.Q.Q.Q.Q.Q.Q.Q.~.~.~.~.Q.Q.Q.Q.Q.Q.Q.Q.Q.Q.Q.Q.Q.Q.Q.Q.Q.Q.Q.Q.Q.Q.Q.Q.~.~.~.~.Q.Q.Q.Q.Q.Q.Q.Q.Q.Q.Q.Q.Q.Q.Q.Q.",
"Q.Q.Q.Q.Q.Q.Q.Q.Q.Q.Q.Q.Q.Q.Q.Q.~.~.~.Q.Q.Q.Q.Q.Q.Q.Q.Q.).).).!.T.~.~.Q.Q.Q.Q.Q.Q.Q.Q.Q.Q.Q.~.~.Q.Q.Q.Q.Q.Q.Q.Q.Q.Q.Q.Q.Q.Q.Q.Q.",
"Q.Q.Q.Q.Q.Q.Q.Q.Q.Q.Q.Q.Q.Q.Q.Q.~.~.Q.Q.Q.Q.Q.Q.Q.Q.Q.Q.).).!.U.U.T.~.~.~.Q.Q.Q.Q.Q.Q.Q.Q.Q.~.~.Q.Q.Q.Q.Q.Q.Q.Q.Q.Q.Q.Q.Q.Q.Q.Q.",
"Q.Q.Q.Q.Q.Q.Q.Q.Q.Q.Q.Q.Q.Q.Q.Q.Q.Q.Q.Q.Q.Q.Q.Q.Q.Q.~.).(.!.U.U.U.U.!.~.~.Q.Q.Q.Q.Q.Q.Q.Q.Q.Q.Q.Q.Q.Q.Q.Q.Q.Q.Q.Q.Q.Q.Q.Q.Q.Q.Q.",
"Q.Q.Q.Q.Q.Q.Q.Q.Q.Q.Q.Q.Q.Q.Q.Q.Q.Q.Q.Q.Q.Q.Q.Q.Q.Q.).).!.U.U.U.U.U.U.!.~.~.~.Q.Q.Q.Q.Q.Q.Q.Q.Q.Q.Q.Q.Q.Q.Q.Q.Q.Q.Q.Q.Q.Q.Q.Q.Q.",
"Q.Q.Q.Q.Q.Q.Q.Q.Q.Q.Q.Q.Q.Q.Q.Q.Q.Q.Q.Q.Q.Q.Q.Q.!.).(.!.U.U.U.U.U.U.U.U.!.).).!.Q.Q.Q.Q.Q.Q.Q.Q.Q.Q.Q.Q.Q.Q.Q.Q.Q.Q.Q.Q.Q.Q.Q.Q.",
"Q.Q.Q.Q.Q.Q.Q.Q.Q.Q.Q.Q.Q.Q.Q.Q.Q.Q.Q.Q.Q.Q.Q.Q.!.).!.!.U.U.U.U.U.U.U.U.W.!.(.!.~.Q.Q.Q.Q.Q.Q.Q.Q.Q.Q.Q.Q.Q.Q.Q.Q.Q.Q.Q.Q.Q.Q.Q.",
"Q.Q.Q.Q.Q.Q.Q.Q.Q.Q.Q.Q.Q.Q.Q.Q.Q.Q.Q.Q.Q.Q.).).).!.U.U.U.U.U.U.U.U.U.U.U.U.!.).).).Q.Q.Q.Q.Q.Q.Q.Q.Q.Q.Q.Q.Q.Q.Q.Q.Q.Q.Q.Q.Q.Q.",
"Q.Q.Q.Q.Q.Q.Q.Q.Q.Q.Q.Q.Q.Q.Q.Q.Q.Q.Q.Q.Q.Q.).~.!.U.U.U.U.U.U.U.U.U.U.U.U.U.U.!.(.).~.Q.Q.Q.Q.Q.Q.Q.Q.Q.Q.Q.Q.Q.Q.Q.Q.Q.Q.Q.Q.Q.",
"Q.Q.Q.Q.Q.Q.Q.Q.Q.Q.Q.Q.Q.Q.Q.Q.Q.Q.Q.Q.).).!.!.U.U.U.U.U.U.U.U.U.U.U.U.U.U.U.U.!.).~.Q.Q.Q.Q.Q.Q.Q.Q.Q.Q.Q.Q.Q.Q.Q.Q.Q.Q.Q.Q.Q.",
"Q.Q.Q.Q.Q.Q.Q.Q.Q.Q.Q.Q.Q.Q.Q.Q.Q.Q.Q.Q.).).!.U.U.U.U.U.U.U.U.U.U.U.U.U.U.U.U.U.U.!.~.~.~.Q.Q.Q.Q.Q.Q.Q.Q.Q.Q.Q.Q.Q.Q.Q.Q.Q.Q.Q.",
"Q.Q.Q.Q.Q.Q.Q.Q.Q.Q.Q.Q.Q.Q.Q.Q.Q.Q.).).(.!.U.U.U.U.U.U.U.U.U.U.U.U.U.U.U.U.U.U.U.U.!.~.~.Q.Q.Q.Q.Q.Q.Q.Q.Q.Q.Q.Q.Q.Q.Q.Q.Q.Q.Q.",
"Q.Q.Q.Q.Q.Q.Q.Q.Q.Q.Q.Q.Q.Q.Q.Q.Q.Q.).).!.U.U.U.U.U.U.U.U.U.U.U.U.U.U.U.U.U.U.U.U.U.U.!.~.~.Q.Q.Q.Q.Q.Q.Q.Q.Q.Q.Q.Q.Q.Q.Q.Q.Q.Q.",
"Q.Q.Q.Q.Q.Q.Q.Q.Q.Q.Q.Q.Q.Q.Q.Q.Q.Q.).!.U.U.U.U.U.U.U.U.U.U.U.U.U.U.U.U.U.U.U.U.U.U.U.U.!.~.Q.Q.Q.Q.Q.Q.Q.Q.Q.Q.Q.Q.Q.Q.Q.Q.Q.Q.",
"Q.Q.Q.Q.Q.Q.Q.Q.Q.Q.Q.Q.Q.Q.Q.Q.!.).(.!.U.U.U.!.U.U.U.U.U.U.U.U.U.U.U.U.U.U.U.U.U.U.U.U.!.!.).!.Q.Q.Q.Q.Q.Q.Q.Q.Q.Q.Q.Q.Q.Q.Q.Q.",
"(.(.(.).~.~.).).~.R.R.~.XXXXXX(.XXW.!.U.B.B.U.E.E.E.U.U.U.U.U.U.U.U.U.U.U.U.U.U.U.U.U.U.U.U.W.).~.Q.Q.Q.Q.Q.Q.Q.Q.Q.Q.Q.~.~.~.~.",
"Q.Q..XQ.T.T.Q.Q.Q.T.T.T.Q..XQ.).(.W.U.U.B.B.U.U.E.E.U.U.U.U.U.U.U.U.U.U.U.U.U.U.U.U.U.U.U.U.W.!.).Q.Q.Q.Q.Q.Q.Q.Q.Q.Q.Q.~.~.~.~.",
"%XQ.Q.Q.T.T.T.Q.Q.Q.T.T.T.%XT.T.!.U.U.B.U.U.U.U.U.U.U.U.U.U.U.U.U.U.U.U.U.U.U.U.U.U.U.U.U.U.U.U.!.~.~.Q.Q.Q.Q.Q.Q.Q.Q.Q.Q.Q.~.~.",
"T.T.Q.Q.T.T.T.Q.Q.Q.Q.T.%X#XC.T.U.U.B.B.U.U.U.U.B.U.U.U.U.U.U.U.U.U.U.U.U.U.U.U.U.U.U.U.U.U.U.U.U.T.~.~.~.Q.Q.Q.Q.Q.Q.Q.Q.Q.~.~.",
"~.~.~.R.R.R.~.~.).(.XXXX).!.U.U.U.U.U.U.U.U.H.D.B.N.B.B.E.E.K.U.U.U.U.U.U.U.U.U.U.U.U.U.U.U.U.U.U.U.!.~.~.Q.Q.Q.Q.Q.Q.Q.Q.Q.Q.Q.",
").~.R.R.~.).).).!.(.XXXX(.!.U.U.U.U.U.U.U.H.H.H.B.N.N.B.E.E.K.U.U.U.U.U.U.U.U.U.U.U.U.U.U.U.U.U.U.U.U.!.~.~.~.Q.Q.Q.Q.Q.Q.Q.Q.Q.",
"T.T.#XT.Q..X.XQ.Q.Q..X.XE.U.K.K.E.E.U.U.U.U.H.W.V.B.B.B.U.U.U.U.U.U.U.U.U.U.U.U.U.U.U.U.U.U.U.U.U.U.U.U.!.).).!.Q.Q.Q.Q.Q.Q.Q.Q.",
"Q.T.C.T.Q..X.XQ.Q.Q..XE.K.K.L.E.L.L.E.U.E.U.U.Y.Y.Y.U.U.U.U.U.U.U.U.U.U.U.U.U.U.U.U.U.U.U.U.U.U.U.U.U.U.W.!.(.!.~.Q.Q.Q.Q.Q.Q.Q.",
"(.XX(.XXXXXX_.R.T.-XU.U.U.U.a.4   L.S.L.E.D.U.U.Y.H.].H.U.U.U.U.U.U.U.U.U.U.U.U.U.U.U.U.U.U.U.U.U.U.U.U.U.U.!.).).).Q.Q.Q.Q.Q.Q.",
"(.XX(.XXXXXX~.R.&Xv.U.U.U.E.a.O 1X1 S.L.E.U.B.B.U.H.].].H.U.V.B.U.U.U.U.U.U.U.U.U.U.U.U.U.U.U.U.U.U.U.U.U.U.U.!.(.).~.Q.Q.Q.Q.Q.",
"&X&XQ.K.2X(.Q.~.m.K.Z.E..XA.d.O 6Xq.0 s.L.Z.B.B.U.U.H.H.H.H.Y.Y.U.U.U.U.U.U.U.U.U.U.U.U.U.U.U.U.U.U.U.U.U.U.U.U.!.).~.Q.Q.Q.Q.Q.",
"*XP.*X*XP..XQ.P.I.L.L.[.[.[.d.  >X=X3.t -.XXK.U.U.U.U.H.H.H.H.Y.U.U.U.U.U.U.U.U.U.U.U.U.U.U.U.U.U.U.U.U.U.U.U.U.U.!.~.~.~.Q.Q.Q.",
"$X$X$XI.a C C m S m S m m C Z #.w.5.=X3.a -.!.m.U.U.U.U.U.Y.H.H.U.U.U.U.U.U.U.U.U.U.U.U.U.U.U.U.U.U.U.U.U.U.U.U.U.U.!.~.~.Q.Q.Q.",
"<X<Xs.R a U A A Z A A A A a ' :X4.8.5.;X3.y :.K.K.U.U.U.B.U.U.E.U.U.U.U.U.U.U.U.U.U.U.U.U.U.U.U.U.U.U.U.U.U.U.U.U.U.U.R.~.~.Q.Q.",
"OX|.%.q w.:X;X:X:X;X>X>X;X:Xe.4.O.0.8. .;X3.t a.L.L.K.U.U.U.U.U.U.U.U.U.U.U.U.U.U.U.U.U.U.U.U.U.U.U.U.U.U.U.U.U.U.U.U.U.!.~.Q.Q.",
"OXOX*.3 ` 6. .@.6.6.0.8.6.4.O.@.@.| +.O.4.=X3.4 [.[.U.U.U.U.U.U.U.U.U.U.U.U.U.U.U.U.U.U.U.U.U.U.U.U.U.U.U.U.U.U.U.U.U.U.!.!.(.!.",
"XXXX~ 7 { 1.] X.2.X.+.o.6.7.X.@./ ( @.) ..w.#.0 L.|.!.U.U.U.!.(.!.U.U.U.U.U.U.U.U.U.U.U.U.U.U.U.U.U.U.U.U.U.U.U.U.U.U.U.U.U.W._.",
"XXU.^ 1 Y ` ` } _ [ / ` _ _ { 7.[ ] | 7.<.e t K.E.E.U.U.U.U.!.).(.!.U.U.U.U.U.U.U.U.U.U.U.U.U.U.U.U.U.U.U.U.U.U.U.U.U.U.U.U.W.(.",
"D.U.E.;.o o 4 o o o o o 1 < 3 >.1.o.9.,.e p (.L.E.E.U.U.B.R.R.Q.).).!.U.U.U.U.U.U.U.U.U.U.U.U.U.U.U.U.U.U.U.U.U.U.U.U.U.U.U.U.!.",
"D.W.b.I.s.a.a.c.f.f.r M D 8 :.3 [ 7.,.w I XXA.|.E.U.U.U.R.T.R.~.~.).).!.U.U.U.U.U.U.U.U.U.U.U.U.U.U.U.U.U.U.U.U.U.U.U.U.U.U.U.U.",
"W.U.U.U.E.Z. XG.E..Xm C F 5 I.. _ <.e W Z.|.b.(.K.U.Y.R.!.~.T.T.Q.Q.).!.!.U.U.U.U.U.U.U.U.U.U.U.U.U.U.U.U.U.U.U.U.U.U.U.U.U.U.U.",
"U.W.U.U.v.Y.Y.Y.D.XXu Z &.0 s.1 $.Y I Z. XZ.T.B.B.U.!.(.(.!.T.T.Q.Q.!.).(.!.U.U.U.U.U.U.U.U.U.U.U.U.U.U.U.U.U.U.U.U.U.U.U.U.U.U.",
"E.E.E.U. XW.n.F.J.H.M E %.0 s.  y y J.E.D.U.M.N.B.R.(.XX).Q.Q.Q.Q.Q.Q.Q.).).!.U.U.U.U.U.U.U.U.U.U.U.U.U.U.U.U.U.U.U.U.U.U.U.U.U.",
"E.E.U.U.D.W.J.F.W.G.M N ! 5 I.N u  XG.E.U.B.B.N.R.R.(.XX).Q.Q.Q.Q.Q.Q.Q.).).(.!.U.U.U.U.U.U.U.U.U.U.U.U.U.U.U.U.U.U.U.U.U.U.U.U.",
"U.U.B.B.U.E.U.U.U.E.i ! ;.5 L.E.G.E.!.U.K.K.U.!.!.!.(.(.).Q.Q.Q.Q.Q.Q.Q.Q.Q.).).!.U.U.U.U.U.U.U.U.U.U.U.U.U.U.U.U.U.U.U.U.U.U.U.",
"U.U.B.B.U.U.E.U.U.K.i E ;.5 K.U.E.E.U.U.U.E.E.XX(.~.(.).Q.Q.Q.%XQ.Q.Q.Q.Q.Q.).).(.!.U.U.U.U.U.U.U.U.U.U.U.U.U.U.U.U.U.U.U.U.U.U.",
"E.U.U.U.U.U.U.U.U.U.t E ;.6 B.U.!.U.U.U.U.(.XXXX(.~.~.Q..X.XT.%XQ.Q.Q.Q.Q.Q.Q.Q.).).!.U.U.U.U.U.U.U.U.U.U.U.U.U.U.U.U.U.U.U.U.U.",
"U.U.U.U.U.B.U.U.U.U.t E =.6 B.U.U.U.U.U.!.).XXXX).Q.Q.Q..XQ.T.T.T.Q.Q.Q.Q.Q.Q.Q.).).).!.U.U.U.U.U.U.U.U.U.U.U.U.U.U.U.U.U.U.U.U.",
"U.U.U.U.K.U.U.U.L.L.i E =.2 U.U.U.U.Y.R.!.(.~.~.Q.Q..X.XQ.Q.T.R.~.~.Q.Q.Q.Q.Q.Q.Q.Q.).!.!.U.U.U.U.U.U.U.U.U.U.U.U.U.U.U.U.U.U.U.",
"Y.U.U.U.U.U.U.E.E.[.i E =.2 U.U.E.!.!.!.~.!.R.T.Q.Q..XQ.Q.T.~.~.~.~.~.Q.Q.Q.Q.Q.Q.Q.!.).(.!.U.U.U.U.U.U.U.U.U.U.U.U.U.U.U.U.U.U.",
"U.U.U.U.E.U.U.U.U.E.i E =.5 m.U.U.!.(._.!.!.!.Q..XQ.Q.T.T.T.).(.(.~.~.~.Q.Q.Q.Q.Q.Q.Q.Q.).).!.U.U.U.U.U.U.U.U.U.U.U.U.U.U.U.U.U.",
"H.U.U.U.E.E.H.H.U.U.i E =.2 m.U.R.~.).).~.~.Q.Q..XQ.T.T.T.T.).).).).).).Q.Q.Q.Q.Q.Q.Q.Q.).).).(.U.U.U.U.U.U.U.U.U.U.U.U.U.U.U.U.",
"F.H.U.E.E.E.U.U.E.E.u E =.2 T.T.~.~.~.~.Q.Q.Q.Q.).~.Q.T.T.%X1XQ.Q.Q.Q.(.(.Q.Q.Q.Q.Q.Q.Q.Q.Q..X).(.!.U.D.U.U.U.U.U.U.!.U.U.U.E.E.",
"F.Y.U.E.L.E.U.U.E.E.u E =.5 T.~.~.T.T.T.Q.Q.T.T.U.T.~.&X~.T.K.&X).).).Q.Q.Q.(.Q.Q.Q.Q.Q.Q.Q.Q.Q.).!.U.U.U.U.Y.U.U.Z.v.U.!.!.E.E.",
"Y.Y.U.U.U.U.U.U.E.A.u E =.6 !.XX~.Q.Q.Q.Q.Q.Q.Q.5X~.~.~.T.&XT.Q.Q.R.~.R.~.R.~.R.~.R.~.R.~.R.~.R.R.R.T.U.U.U.Y.U.U.Y.Y.B.v.B.U.U.",
"Y.U.U.U.B.B.U.U.E.E.i R *.6 (.XX).Q.Q.Q.Q.Q.Q.~.R.U.!.5XU.~.&XT.T.T.R.T.R.T.R.T.R.T.R.T.R.T.R.T.T.T.!.R.Y.U.U.U.v.U.U.U.U.R.Y.B.",
"U.U.U.B.N.N.V.U.G.XXi i R 6 @XW.).Q.Q.Q.T.Q.~.~.1XXX!.5X(.E.Q.Q.Q.Q.Q.Q.Q.Q.~.Q.~.Q.~.Q.~.Q.Q.Q.Q.Q.).).(.W.U.U.!.U.Z.U.U.v.v.Y.",
"U.U.U.U.B.N.N.U.|.A.i E =.6 U.XXQ.Q.Q.Q.Q.Q.~.).E.2X.XE..X.X.X<X.X.X.X.X.X.X.X.X.X.X.X.X.X.X.X.X.X.X.X.X.X|.E.L.L.L.E.L.E.W.W.U.",
"E.E.H.U.V.N.N.U.E..Xi i R 6 &X!.Q.Q.Q.Q.~.~.Q.Q.3X[.4X{.oXoX{.4X{.{.oXoXoX{.oX{.{.{.{.{.oXoXoXoX{.{.{.{.oXoXoX{.+X}.}.[.[.[.|.E.",
"|.|.|.H.Y.V.B.U..X<XM M E 6 ~.~.Q.Q.Q.~.~.~.Q..Xd.8 * * = = & + % % & * = = = * % % & & * = = = & % % % & = = = = % % - X O D [.",
"E.G.G. XW.Y.B.~.<X[.m E ;.5 T.Q.Q.!.~.U./.T.E.3XS.X x B b b c.tXtXtX0Xb b J n x.tXtXtXx.n J J b 0XyXyXyXh.b J b J rXrXrXiXD V +X",
"U.E. XH.J.Y.-X&XL.3XM C %.5 <XQ.1XQ.~.T.R.&X1XL.d.X $ b G c 9XlXzXzXaXn G G c eXlXjXzXuXv G G b gXzXjXlXx.v b b G jXzXjXlXp.B +X",
"m.R.D.D.'.!.T.U.<X3Xi Z W 5 .X.XE.!.~.&XR.T.1X}.d.$ $ f v j k.fXpXpXqXj c c c 8XsXpXhXz.j v d j uXpXdXdXg.z c v v aXpXpXlXp.x }.",
"B.U.U.Y.W.~.Q.1X.X-.6 6 t 1 E <X1X1X!.T.&XR.(.3Xf.$ , k l ; l.kXhXhXeXf j k s qXhXhXkX9X: j k j eXkXsXkXj.: f j k sXhXgXlXi.B c.",
"T.m.R.R.v.&XE.E.a.9 7 w 7 e t =.P.E.&XT.T.&X(..Xd.$ v t.y.r.k.z.7Xz.j.t.K t.t.j.8Xz.z.j.K r.t.K l.8Xl.z.g.K t.t.y.z.z.l.tXL M }.",
"U.U.B.R.%X&XL.2X4 p Q >.>.w.$.  <XP.<X&XT.~.Q..Xd.$ uXsXhXzXu.s d j G hXhXhXkXK : j d K kXkXhXkXH s c s i.kXhXhXfXl f j b 8 B }.",
"A.XXR.T.&XT.3XA.9 < w P { P . 3 b.3XP.!.R.R.Q..Xf.$ x.aXaXhXy.d c j G sXpXsXsXL c j d K hXaXpXpXJ h h d i.hXpXpXaXv c d J x B +X",
"OXE.&XT.C.*X.XO T I P [ ] _ >.C.o I.<XU.&XT.E..Xd.& x.9X8XqXG @ # @ d qXz.8XqXc @ ; @ v 9X8X8X9Xg @ ; @ G wX8X9X7Xg @ ; h > D oX"
};
