/* XPM */
static char * left_0_xpm[] = {
"64 64 623 2",
"  	c #5B5D5C",
". 	c #5F6160",
"+ 	c #616362",
"@ 	c #626463",
"# 	c #636564",
"$ 	c #626362",
"% 	c #626262",
"& 	c #616161",
"* 	c #5E5E5E",
"= 	c #525252",
"- 	c #4D4D4D",
"; 	c #595A59",
"> 	c #666867",
", 	c #696B6A",
"' 	c #676968",
") 	c #656666",
"! 	c #636464",
"~ 	c #606060",
"{ 	c #5E5F5F",
"] 	c #606161",
"^ 	c #585858",
"/ 	c #4A4A4A",
"( 	c #4C4C4C",
"_ 	c #4F4F4F",
": 	c #555555",
"< 	c #5C5E5D",
"[ 	c #5D5F5E",
"} 	c #5E605F",
"| 	c #5F5F5F",
"1 	c #5B5C5B",
"2 	c #5A5C5B",
"3 	c #565857",
"4 	c #494A4A",
"5 	c #494949",
"6 	c #505050",
"7 	c #555656",
"8 	c #595B5A",
"9 	c #585A59",
"0 	c #5B5D5E",
"a 	c #5A5B5D",
"b 	c #565759",
"c 	c #4B4B4B",
"d 	c #686969",
"e 	c #676868",
"f 	c #646565",
"g 	c #656565",
"h 	c #666666",
"i 	c #5E5E5F",
"j 	c #545455",
"k 	c #696A69",
"l 	c #696A6A",
"m 	c #6A6B6A",
"n 	c #676767",
"o 	c #656665",
"p 	c #646564",
"q 	c #616261",
"r 	c #636363",
"s 	c #6C6C6C",
"t 	c #6D6E6D",
"u 	c #6C6D6D",
"v 	c #6B6C6B",
"w 	c #686968",
"x 	c #656766",
"y 	c #646464",
"z 	c #616262",
"A 	c #606162",
"B 	c #5D5E5E",
"C 	c #545555",
"D 	c #545454",
"E 	c #5D5D5D",
"F 	c #5D5E5F",
"G 	c #5C5E5E",
"H 	c #5A5C5D",
"I 	c #575859",
"J 	c #5C5C5C",
"K 	c #5B5B5C",
"L 	c #5B5B5D",
"M 	c #59595B",
"N 	c #575759",
"O 	c #5F5F60",
"P 	c #595959",
"Q 	c #515151",
"R 	c #6B6B6B",
"S 	c #6D6D6D",
"T 	c #5B5C5C",
"U 	c #5A5B5C",
"V 	c #58595B",
"W 	c #545557",
"X 	c #5E5E5D",
"Y 	c #5C5D5F",
"Z 	c #5B5C5E",
"` 	c #5B5D5D",
" .	c #575857",
"..	c #5B5B5B",
"+.	c #58585B",
"@.	c #58585A",
"#.	c #5A5A5A",
"$.	c #6A6A6A",
"%.	c #5D5E60",
"&.	c #5A5C5C",
"*.	c #575858",
"=.	c #5D5E5D",
"-.	c #5C5D5C",
";.	c #626263",
">.	c #585A5B",
",.	c #545656",
"'.	c #5C5F5E",
").	c #56575A",
"!.	c #636364",
"~.	c #535555",
"{.	c #606261",
"].	c #5B5C5D",
"^.	c #57585A",
"/.	c #4E4F4F",
"(.	c #595A5B",
"_.	c #5C5D5D",
":.	c #5A5B5B",
"<.	c #535554",
"[.	c #575958",
"}.	c #606160",
"|.	c #4E4E4F",
"1.	c #595B5B",
"2.	c #5F6060",
"3.	c #585958",
"4.	c #515251",
"5.	c #5E5F5E",
"6.	c #5A5B5A",
"7.	c #595A5C",
"8.	c #555658",
"9.	c #5E5F60",
"0.	c #4F5150",
"a.	c #525453",
"b.	c #565756",
"c.	c #4E4E4E",
"d.	c #5A5B5E",
"e.	c #595A5D",
"f.	c #58595C",
"g.	c #5B5C5F",
"h.	c #4E504F",
"i.	c #515252",
"j.	c #565656",
"k.	c #5F605F",
"l.	c #4D4E4E",
"m.	c #595B5C",
"n.	c #585A5A",
"o.	c #57595A",
"p.	c #535456",
"q.	c #4D4E4D",
"r.	c #585959",
"s.	c #4D4D4E",
"t.	c #595A5A",
"u.	c #525355",
"v.	c #545655",
"w.	c #4B4C4B",
"x.	c #565758",
"y.	c #565757",
"z.	c #555756",
"A.	c #535556",
"B.	c #4F5053",
"C.	c #4E4F51",
"D.	c #58595A",
"E.	c #575959",
"F.	c #484A4A",
"G.	c #4F5050",
"H.	c #505151",
"I.	c #555655",
"J.	c #555757",
"K.	c #535455",
"L.	c #4A4A4B",
"M.	c #505251",
"N.	c #4F5151",
"O.	c #505152",
"P.	c #4E5051",
"Q.	c #4C4D4F",
"R.	c #4E4F50",
"S.	c #505252",
"T.	c #555657",
"U.	c #545556",
"V.	c #515253",
"W.	c #494A4B",
"X.	c #4C4D4D",
"Y.	c #535454",
"Z.	c #525352",
"`.	c #505150",
" +	c #4B4C4C",
".+	c #4A4B4A",
"++	c #484848",
"@+	c #515352",
"#+	c #505153",
"$+	c #484949",
"%+	c #4C4C4E",
"&+	c #5C5C5F",
"*+	c #5C5C5E",
"=+	c #4F4F50",
"-+	c #565657",
";+	c #575757",
">+	c #535353",
",+	c #565859",
"'+	c #49494B",
")+	c #626363",
"!+	c #5F6061",
"~+	c #5E5F61",
"{+	c #4F4F51",
"]+	c #5A5A5C",
"^+	c #5D5D5F",
"/+	c #5F5F61",
"(+	c #525254",
"_+	c #59595A",
":+	c #5C5C5D",
"<+	c #5C5E5F",
"[+	c #515153",
"}+	c #5E5E60",
"|+	c #535355",
"1+	c #524E5C",
"2+	c #524D5C",
"3+	c #54515C",
"4+	c #4F5052",
"5+	c #845759",
"6+	c #A13A42",
"7+	c #853051",
"8+	c #513C85",
"9+	c #3F3E8C",
"0+	c #3F3C85",
"a+	c #463F6C",
"b+	c #5C5D5E",
"c+	c #5A595B",
"d+	c #606061",
"e+	c #674E50",
"f+	c #B02939",
"g+	c #B12636",
"h+	c #B22636",
"i+	c #A42B4F",
"j+	c #4F3F8B",
"k+	c #3F4191",
"l+	c #3F4090",
"m+	c #3F397E",
"n+	c #57565C",
"o+	c #5D5D5E",
"p+	c #545554",
"q+	c #483D61",
"r+	c #684A8C",
"s+	c #78518C",
"t+	c #5B3D86",
"u+	c #A72947",
"v+	c #693C82",
"w+	c #3F4190",
"x+	c #4A4264",
"y+	c #5D5F5F",
"z+	c #5B5E5D",
"A+	c #5A5D5C",
"B+	c #4E4C50",
"C+	c #3D377F",
"D+	c #AB8EA4",
"E+	c #E2989A",
"F+	c #6F5291",
"G+	c #48408E",
"H+	c #424190",
"I+	c #49465D",
"J+	c #5A488F",
"K+	c #E4BEB6",
"L+	c #F8D0BF",
"M+	c #DE9397",
"N+	c #5E478D",
"O+	c #3E3D89",
"P+	c #504C5F",
"Q+	c #443B5F",
"R+	c #423D8A",
"S+	c #B69895",
"T+	c #F8D2C1",
"U+	c #BB7F84",
"V+	c #472559",
"W+	c #6B3E6D",
"X+	c #3D418D",
"Y+	c #463E8A",
"Z+	c #403880",
"`+	c #494163",
" @	c #525153",
".@	c #40305A",
"+@	c #49306A",
"@@	c #B88181",
"#@	c #F1CFBF",
"$@	c #88606A",
"%@	c #873C55",
"&@	c #78445B",
"*@	c #453E86",
"=@	c #3C4191",
"-@	c #A44B75",
";@	c #80375F",
">@	c #3D3D89",
",@	c #443D74",
"'@	c #56565C",
")@	c #57585B",
"!@	c #525353",
"~@	c #504F53",
"{@	c #3C2155",
"]@	c #1A002B",
"^@	c #C1C3C5",
"/@	c #F9D7C5",
"(@	c #CFA79D",
"_@	c #6F787C",
":@	c #CEDFE8",
"<@	c #926487",
"[@	c #5B5993",
"}@	c #E09F9E",
"|@	c #A86374",
"1@	c #3A2863",
"2@	c #3F387C",
"3@	c #443C6E",
"4@	c #545458",
"5@	c #585A5C",
"6@	c #5E525E",
"7@	c #E8CCC8",
"8@	c #EFCEBD",
"9@	c #AD9F9B",
"0@	c #FDECE4",
"a@	c #CE8C93",
"b@	c #D09095",
"c@	c #EDB9AF",
"d@	c #A15E73",
"e@	c #3A2155",
"f@	c #3D2863",
"g@	c #3F3F8E",
"h@	c #3F377C",
"i@	c #535357",
"j@	c #5C5B5C",
"k@	c #4D4F4E",
"l@	c #4F4F52",
"m@	c #9F4E69",
"n@	c #F4C1B4",
"o@	c #F9D6C4",
"p@	c #F8D3C2",
"q@	c #F8D6C5",
"r@	c #F6CDBD",
"s@	c #CF7A83",
"t@	c #AE526B",
"u@	c #823C61",
"v@	c #502757",
"w@	c #3E2B65",
"x@	c #433987",
"y@	c #4D3F66",
"z@	c #4C4E4D",
"A@	c #4B4D4C",
"B@	c #413253",
"C@	c #4D2A56",
"D@	c #BD717D",
"E@	c #F2B3AA",
"F@	c #F5BEB2",
"G@	c #F4C9BB",
"H@	c #D07C84",
"I@	c #B04869",
"J@	c #875662",
"K@	c #514E60",
"L@	c #442264",
"M@	c #462D67",
"N@	c #4B3370",
"O@	c #4C2671",
"P@	c #534B62",
"Q@	c #565858",
"R@	c #484A49",
"S@	c #4B4B4C",
"T@	c #4A4B4B",
"U@	c #494A49",
"V@	c #474948",
"W@	c #454746",
"X@	c #515150",
"Y@	c #5B494C",
"Z@	c #5B474E",
"`@	c #60425E",
" #	c #AE7983",
".#	c #B87B83",
"+#	c #AE5C6F",
"@#	c #895864",
"##	c #737474",
"$#	c #585C77",
"%#	c #4C4077",
"&#	c #4C2272",
"*#	c #524A60",
"=#	c #4D4E4F",
"-#	c #656564",
";#	c #646566",
">#	c #636465",
",#	c #616264",
"'#	c #5F6062",
")#	c #464746",
"!#	c #4F4E4E",
"~#	c #535453",
"{#	c #515152",
"]#	c #844959",
"^#	c #B14869",
"/#	c #B24869",
"(#	c #894F6F",
"_#	c #9D609F",
":#	c #926F94",
"<#	c #8A7276",
"[#	c #BD6C76",
"}#	c #8B8D8D",
"|#	c #7D7D7D",
"1#	c #968B97",
"2#	c #7C5980",
"3#	c #776CA6",
"4#	c #5A517E",
"5#	c #57575A",
"6#	c #626365",
"7#	c #646465",
"8#	c #954A5F",
"9#	c #9F5E8A",
"0#	c #857C86",
"a#	c #7B7B7B",
"b#	c #857578",
"c#	c #9F6E78",
"d#	c #707170",
"e#	c #ADADAD",
"f#	c #A3A4A3",
"g#	c #9A6D9C",
"h#	c #895D99",
"i#	c #7782B7",
"j#	c #626576",
"k#	c #535354",
"l#	c #626465",
"m#	c #626364",
"n#	c #616263",
"o#	c #606062",
"p#	c #5D5F60",
"q#	c #984E63",
"r#	c #AA4A6D",
"s#	c #775981",
"t#	c #A7A7A7",
"u#	c #B4B4B4",
"v#	c #A29EA2",
"w#	c #A066A3",
"x#	c #8C88A9",
"y#	c #AAACB1",
"z#	c #ABABAA",
"A#	c #B191B2",
"B#	c #6B4F76",
"C#	c #6C6DA5",
"D#	c #7580A8",
"E#	c #505051",
"F#	c #77535E",
"G#	c #A74966",
"H#	c #A94C70",
"I#	c #766E9C",
"J#	c #AFB1B9",
"K#	c #ABA8A9",
"L#	c #A28B90",
"M#	c #B76285",
"N#	c #A6679D",
"O#	c #9B6B93",
"P#	c #827D9B",
"Q#	c #858094",
"R#	c #63597C",
"S#	c #635D96",
"T#	c #7580A9",
"U#	c #4D4F4F",
"V#	c #505052",
"W#	c #565154",
"X#	c #9B4E64",
"Y#	c #AF4968",
"Z#	c #7F646A",
"`#	c #92777E",
" $	c #CC6B7A",
".$	c #D57781",
"+$	c #DA7D84",
"@$	c #BE5B71",
"#$	c #B05476",
"$$	c #A4668F",
"%$	c #8E5686",
"&$	c #625D96",
"*$	c #4C4E4E",
"=$	c #5D5659",
"-$	c #836069",
";$	c #897E81",
">$	c #90767C",
",$	c #DB8288",
"'$	c #EF9292",
")$	c #EE9191",
"!$	c #EF9291",
"~$	c #E3858A",
"{$	c #BB566F",
"]$	c #903B6D",
"^$	c #818181",
"/$	c #BBB9BC",
"($	c #B7ACB8",
"_$	c #AD7099",
":$	c #C86B81",
"<$	c #E38589",
"[$	c #C57588",
"}$	c #975D79",
"|$	c #5F4579",
"1$	c #7780B5",
"2$	c #707A9E",
"3$	c #5A5A5B",
"4$	c #787878",
"5$	c #7C7C7C",
"6$	c #7F767C",
"7$	c #7A4C70",
"8$	c #8A355D",
"9$	c #A24C66",
"0$	c #A43B5A",
"a$	c #85545F",
"b$	c #7E82A6",
"c$	c #A284A3",
"d$	c #8D5F96",
"e$	c #707A9D",
"f$	c #5B5D61",
"g$	c #4C4C4D",
"h$	c #725361",
"i$	c #983846",
"j$	c #942338",
"k$	c #9C3141",
"l$	c #D6787A",
"m$	c #BA6064",
"n$	c #9A3D46",
"o$	c #7A6F7B",
"p$	c #918C92",
"q$	c #837784",
"r$	c #4F5051",
"s$	c #565056",
"t$	c #923149",
"u$	c #9F2233",
"v$	c #9F2335",
"w$	c #9F2436",
"x$	c #A32F3D",
"y$	c #DA7C7D",
"z$	c #D77C7E",
"A$	c #863A45",
"B$	c #88333F",
"C$	c #7B4C50",
"D$	c #515254",
"E$	c #575252",
"F$	c #6F5657",
"G$	c #73658B",
"H$	c #8B5887",
"I$	c #903750",
"J$	c #8E3A44",
"K$	c #D67C7E",
"L$	c #CB7579",
"M$	c #AE656B",
"N$	c #5B5A5C",
"O$	c #4D4E50",
"P$	c #785259",
"Q$	c #974063",
"R$	c #963148",
"S$	c #784E53",
"T$	c #87555E",
"U$	c #954A5A",
"V$	c #7B2F4A",
"W$	c #6E374C",
"X$	c #5B595C",
"Y$	c #56585A",
"Z$	c #595B59",
"`$	c #525454",
" %	c #645859",
".%	c #98303D",
"+%	c #9D2738",
"@%	c #794B51",
"#%	c #6D3F4F",
"$%	c #752847",
"%%	c #5E5459",
"&%	c #575957",
"*%	c #635657",
"=%	c #695658",
"-%	c #765D79",
";%	c #94486F",
">%	c #913841",
",%	c #684E56",
"'%	c #752747",
")%	c #5D5358",
"!%	c #585859",
"~%	c #525253",
"{%	c #4B4D4D",
"]%	c #77638E",
"^%	c #954569",
"/%	c #903640",
"(%	c #595256",
"_%	c #71344B",
":%	c #693F4E",
"<%	c #474848",
"[%	c #515353",
"}%	c #5C5D60",
"|%	c #6E5558",
"1%	c #8A4048",
"2%	c #6D5458",
"3%	c #664F57",
"4%	c #70374C",
"5%	c #5B585B",
"6%	c #5E605E",
"7%	c #606785",
"8%	c #6F5279",
"9%	c #752746",
"0%	c #5E5559",
"a%	c #6F415C",
"b%	c #743456",
"c%	c #752947",
"d%	c #6C3F4F",
"e%	c #5C575A",
"f%	c #525354",
"g%	c #5D5A5D",
"h%	c #5C585C",
"i%	c #4F504F",
"j%	c #505253",
"k%	c #535557",
"l%	c #555759",
"m%	c #4A4C4C",
"n%	c #4B4C4D",
"o%	c #494B4B",
"p%	c #555758",
"q%	c #595B5D",
"r%	c #494B4A",
"s%	c #525356",
"t%	c #535457",
"u%	c #484948",
"v%	c #616163",
"w%	c #555557",
"x%	c #545456",
"y%	c #4D4D4F",
"z%	c #696969",
"A%	c #555556",
"B%	c #686868",
"C%	c #565658",
"D%	c #565558",
"E%	c #535254",
"F%	c #57595B",
"  . + @ @ # # $ % & & * = - ; @ > , , ' ) ! ~ { { . ] ^ / ( _ : ;   < < [ } } } } { | * 1 2 3 4 5 6 7 8 9 9 9 8 2       0 a b c ",
"d e ) f # f f f g h h g i j k l l m l l d d n ) o p o q - = r s t u v m l d w > x ) g y z A B C D E B } [ [ B F [ [ [ G G H I - ",
"n ~ * * E E E J J J K L M N O ~ ~ ~ ~ | | | | * * E J P Q J R S R g & ~ | ~ | | * E E J T U V W ; X * < < < F Y Z `       2  .Q ",
"g | * * E J J J J J ..K +.@.& | | * * * * * * E E J ..#.= * $.$.y ~ | | * * * E J J J J T a V W P ~ o . } [ %.%.Y <       &.*.= ",
"% | B =.E -.J J T T ..K @.@.;.| | * [ * * * B E E J J #.= * n & | | | * * * E E J J J J T a >.,.; n ! [ [ [ %.Y Y <     ` &.I _ ",
"} '.< < <       2 2 2 U ).b !.~ * [ [ [ [ '.< E E J J #.= | g | | | * * * * J E J J J ....2 9 ~.3 + {.< [ [ Y Y Y       Z ].^./.",
"[ < < <         2 2 8 (.).b z ~ * [ [ [ [ < < _.J ....P = * g | * * * * * E E E J J ....:.8 9 <.[.}.. < < < Y Y 0 <     Z a ^.|.",
"<   < <   ` ].T &.U 1.(.).b A 2.{ [ [ [ B G ` T 1 ....3.4._.y | 5.* =.B B _._._.T T :.:.6.8 9 <. .q ] < < < Y Z Z &.&.T a 7.b |.",
"          Z Z a a a 7.7.b 8.9.. [ < < < Y Y Z &.2 2 2 [.0.T r | | [ < < <       2 2 2 8 8 9 [.a.b.% 2.<     Z Z Z a a a a a b c.",
"  2 2 2 2 H d.e.e.f.V V b W _.. < < <   ].g.d.&.2 8 8 [.h.6.% * * < < <       2 2 2 2 9 9 [.3 i.j.% k.    2 a Z Z a a 7.a 7.^.l.",
"T 1 2 8 8 1.m.1.>.n.o.^.b p.` [   < < 2 2 H &.:.8 8 8 3 q.r.& * E   <   2 2 2 8 8 8 9 9 9 [.b.h.D & * 2 8 8 1.1.7.7.7.7.V V b s.",
"t.#.8 8 8 8 8 9 9 [.[.I 8.u.U         2 2 2 8 8 8 9 9 v.w.i.J E E   < 2 2 2 2 8 8 8 9 [.3 : = ( _ ..; 8 9 n.9 9 9 V V V V V x.( ",
"Q j.y.3 3 3 3 3 z.z.z.A.B.C.D.8 1.2 :.8 8 9 8 8 9 E.z.h.F.G.P ....2 2 2 8 3.[.3 3 3 z.<.H.Q 6 / / i.I.3 3 3 3 3 J.8.8.8.8.8.K.L.",
"_ G.H.M.0.N.N.O.N.N.0.P.Q.Q.R.S.~.,.,.T.,.7 T.J.,.U.K.V.W.X.Y.: b.3 3.*.I.Z.`.h./.l.q. +.+/ 5 ++/ _ 4.@+a.a.Y.<.Y.p.W W u.#+R.$+",
"g ~ <     ].a a a 7.a L @.%+V.@.&+Y Y Y Y Y Y *+L U M @.=+|.-+;+E E J J ..P j.D >+i._ c / / 5 ++c >+7 z.3 3 ,+I b b V V b b u.'+",
"R n )+{.. !+~+%.%.%.Y Y M {+]+^+/+~+%.Y Y Y Y Y *+*+]+M (+_+:+E E E E J J J ....#.#.P : Q 6 - 5 6 ~ f {.} < <+%.a Z Z a a a ^.%+",
"$.r }.. . ~+~+%.%.%.Y ^+]+[+i 9.}+%.%.Y Y Y Y Y *+*+L M |+:+| E * E E E J J J ......#.t.3.;+: c.>+f ] Z 1+2+2+3+Z Z Z a a a ^.4+",
"n q . . } ~+~+%.%.%.Y F ..= B [ [ F %.Y Y Y Z Z Z a Z ]+|+^+~ E E E E E J J T 2 2 2 8 9 9 [.z.0.D 5+6+7+8+9+9+0+a+3+Z Z 7.a ^.C.",
"g ~ 2.} } 9.~+%.%.%.Y B ..Z.[ [ < b+Y Y Y Y Z Z Z a a c+|+i d+* E E E E J J 1 2 2 2 8 9 9 z.v.`.e+f+g+h+i+j+k+k+l+m+n+a a 7.,+P.",
"% ~ ~ { } } 9.%.%.%.Y o+..Z.[ [ < G Y Y Y Y Z Z Z a U M |+i & * =.< E E J J 1 2 2 1.1.n.r.C p+`.q+r+s+t+u+v+k+k+k+w+x+a a a ^.O.",
"~ | ~ * * [ [ y+Y Y Y _.#.= =.< < < < <       &.2 2 :.P >+* ~ E E < z+z+A+A+  2   1.7.f.@.: D B+C+D+E+F+G+H+k+k+k+k+m+n+a a I H.",
"| * * * * [ [ < Y Y Y _.#.4.=.< < <         2 2 2 8 6.P >+E ~ E E <         2 8 2 1.f.V N D D I+J+K+L+M+N+w+k+k+k+k+O+P+7.7.).6 ",
"E | * * * [ [ < Y Y Y _.#.4.=.< <           &.2 2 8 8 P i.J | E E <       2 2 8 8 t.V o.x.D D Q+R+S+T+U+V+W+X+k+Y+Z+k+`+7.7.)._ ",
"E y { [ < Y Y Y Y Y Z ` 9 M.<   2 2 2 2 a a a 1.8 8 8 [.@+-.| J J J J T 2 2 2 8 9 9 [.3 <.>+ @.@+@@@#@$@%@&@*@=@-@;@>@,@'@)@x.G.",
"E y { < G Z Y Y Z Z a T 9 0.    2 8 8 2 U e.a 1.8 8 9 [.a.-.| E J J J 1 2 8 8 8 8 3 v.<.!@= ~@{@]@^@/@(@_@:@<@[@}@|@1@9+2@3@4@G.",
"J E <     Z Z Z Z a a &.9 h.8 2 1 8 8 9 8 5@>.r.[.9 9 3 M.:.E ..........2 8 8 8 9 9 n.E.<.Z.~@{@6@7@/@8@9@0@a@b@c@d@e@f@g@h@i@G.",
"J j@      Z Z Z a a a 2 [.h.Z.;+3.3.[.[.[.;+;+j.: : I.a.k@p+^ ..#.8 8 2 8 8 8 9 9 D.^.^.K.i.l@e@m@n@o@p@q@r@s@t@u@v@{@w@x@y@8.h.",
"..T       ].Z Z a 7.7.(.3 z@q.c.6 H.M.@+4.Q >+D >+Q 0.z@A@4.I.^ r.3 3 9 9 9 9 9 9 [.b ^.W a.O.B@C@D@E@F@G@H@I@J@K@L@M@N@O@P@p.k@",
"p+y.Q@x.3 b b b b W W U.0.R@/.Q Q G.G.h./.s. +S@w.T@U@V@W@- 6 = p+C 7 [.[.[.*. .3 y.8.T.U.<.X@Y@Z@`@ #.#+#I@@###$#%#&#O@*#p.C.T@",
"a.T Z Z Z Z Z Z Z a a 7.x.=#d+y -#;#;#>#,#'#7.b W K.=+w.)#- _ !#_ 6 = p+v.<.~#>+= Q {#Q _ - ]#^#/#(#_#:#<#[#}#|#1#2#3#4#5#b [+5 ",
"2 [ %.%.%.%.%.Y %.Y Y Y ]+(+~ r r >#6#6#6#6#,#,#6#;#7#../ 6 : j.;+;+ .3.[.[.*.^ ;+;+;+j.D Q 8#^#^#9#0#a#b#c#d#e#f#g#h#i#j#Z M =+",
"[ [ %.%.%.Y Y Y %.Y Y *+]+k#d+r !.>#l#6#m#n#o#'#9.p#B #._ #.| ~ ~ | }.2.} . { * B E :+o+K #.q#^#r#s#t#u#v#w#x#y#z#A#B#C#D#Z V |.",
"} [ %.%.%.%.%.Y Y Y Z ].#.= * | | { { [ B < _.`     ].]+E#K :+E < < -.        2 2 U 7.7.7.@.F#G#H#I#J#K#L#M#N#O#P#Q#R#S#T#Z V U#",
"[ [ %.%.Y Y Y Y Z Z Z T #.Q * * * [ [ < < <       2 ].]+V#K J J -.        2 2 2 2 U 7.V V V b W#X#Y#Z#`# $.$+$@$#$$$%$&$T#Z V *$",
"} [ F %.Y Y Y Y Z Z Z T P 6 * * * * [ < < <       &.].M {+2.* J J         2 2 2 2 2 7.V V V b O.=$-$;$>$,$'$)$!$~${$]$&$T#Z V *$",
"=.* < < < ` ` ` Z Z a :.P 6 * * * B < < < <   ` Z a K P 6 } [     Z Z ].  2 2 2 8 8 8 8 E.E.y.M.^$u#/$($_$:$~$<$[$}$|$1$2$a ^.X.",
"E E <   <       ].a a 3$P c.* E * =.< < < <   &.a a U *._ B {   ` Z Z H   2 2 8 8 8 8 9 9 [.z.@+4$5$6$7$8$9$0$a$b$c$d$e$f$a V g$",
"..j@            a a a :.^ c.* * E E <     T   &.a 7.(.;+_ 9     ].a a a 2 9 8 8 8 8 9 9 9 3 v.M.A.h$i$j$k$l$m$n$o$p$q$U a 7.V w.",
"#.........2 2 2 2 2 8 8 [.k@< [ <       ].a a a 7.V n.3 0.[.2 8 1.7.7.7.2 8 9 9 9 9 [.[.E.8.p.r$s$t$u$v$w$x$y$z$A$B$C$a 7.a ^. +",
"^ #.......2 2 8 8 2 9 9 [.k@9 <   2 2 2 U 7.a 7.V V n.3 k@[.2 8 (.7.7.>.9 [.9 9 9 9 [.[.Q@p.D$R.E$F$G$H$I$J$K$'$L$M$N$7.7.7.o.X.",
"j.#.#...#.2 2 8 8 8 9 9 3 z@`.8   2 2 2 1.7.7.7.V V I <.A@z.3.r.r.D.D.E.3 v.<.<.<.<.b.3 Q@p.D$O$= * P$Q$R$S$T$U$V$W$X$7.7.7.Y$X.",
"= ^ j.P ^ 8 8 8 8 9 3. .>+( c.b.6.:.2 2 2 8 9 Z$[.Q@a.( - >+>+= = = !@= 4.G./._ _ 6 >+I.7 `$S.k@c. %.%w$w$+%@%#%$%$%%%7.V V Y$ +",
"_ >+D : : b.3 3 3 v.@+Q ( c - = ;+r.9 9 9 9 [.&%z.@+A@5 / _ Q 6 6 6 6 6 6 _ _ _ _ _ _ _ Q Z.M. +( : *%=%-%;%>%]+,%'%)%V V ^.8.4 ",
"b.^ !%r.^ 9 9 [.*.z.M.l.c c 6 >+D Y.Y.Y.Y.`$!@@+M.0./.X.++ += >+>+!@!@!@~%~%!@D Y.D >+i.4.0.{%4 - >+7 7 ]%^%/%(%_%$%:%8.p.u.#+<%",
"< 2 (.U ].0 Z ].a U 1.;+6 - *.    ` H a a a 7.V D.o.^.I D$[%9 9 r.D.V V V D.D.D.D.D.D.I x.W Q.W.]+i ^+}%|%1%2%Z 3%'%4%5%7.V b $+",
"} 6%p#%.Y Y Z Y Y a a _+D _ 2 < &.H a Z Z a a 7.7.a 7.V p.~.9 9 n.7.7.7.a 7.V V 7.7.V V V Z W %+L *+*+Z Y Z Z 7%8%9%$%0%7.7.).X.",
"} } ~+~+%.%.%.Y Z Y Z 3$;+6   <   ].Z a a a a 7.7.a V V u.K.9 9 D.V V 7.a 7.7.7.7.7.V V (.~+^.R.^+*+*+Z Z Z Z a%b%c%d%e%7.V ^.s.",
"| | %.%.%.%.%.%.Y Y 7.8 *.M.T < 2 U a a a a a 7.7.7.V V u.f%[.9 9 n.y.8 8 8 1.7.7.7.V V V o+-+/._.    Z Z Z Z g%h%h%a V 7.7.^.s.",
"* | %.%.%.Y Y %.Y Y (.n.Q@M.    2 U a a 7.7.7.7.7.7.V V u.f%Q@3 Q@3 <.9 9 8 1.7.7.7.V V D.*.: /.<   ` Z Z Z Z Z a a a V 7.V b s.",
"| * %.%.%.Y Y Y Y Y 7.n.3 0.2   2 U a a a 7.7.7.7.7.V ^.D$[%3 z.,.@+M.v.9 8 1.7.7.7.V ^.I ;+C i%<   ` Z Z Z a a a 7.7.7.V V b - ",
"{ [ [ B G b+Y Y Z Y V E.z.0.2 2 8 U a 7.7.7.7.7.V V ^.^.D$j%8.k%u.^.(.8.r.9 n.V V V V ^.^.b A.P._.  ].a a a a a 7.7.V V V V b X.",
"} [ [ [ < Y Y Y Z Z o.*.z.0.2 2 8 U a 7.7.7.7.7.V V b b #+#+8.p.^.7.7.>.[.9 n.V V V V ^.b l%p.P.<   T a a a a a 7.7.V ^.^.^.8.{%",
"} < < < < Y Y Z Z Z ^.Q@v.h.8 2 8 (.7.7.V V V V V ^.b x.4+4+u.W V 7.V 1.Q@9 n.V ^.^.^.b b W u.C.< 2 &.a 7.7.7.7.7.V V b ^.^.8.m%",
"} <       Z Z Z a a ^.x.v.k@9 2 8 (.V V V V V V ^.^.N 7 |.n%Q.#+^.V 7.>.b D.D.r.*.*.*.Q@J.: !@_ J :.:.8 8 8 1.n.n.E.[.E.b b W o%",
"< 2       Z Z Z a a b y.<.A@3 9 [.D.D.^.^.^.b b b b T.!@/ L.C.D$W b b 8.8.8.p%z.7 v.v.~.~#= 6 - #.P t.; 9 9 9 9 [.[.[.&.8.W u.V@",
"<     T 2 ].a a q%q%b J.@+r%M.@+a.U.W p.p.p.p.u.u.D$[+- 5 n%%.%.x.p.s%p.t%W U.v.Y.!@0.h.i%_ ( / - >+;+3 3 z.z.z.z.z.z.T.x.8.8.*$",
"~#I.I.z.*.r._+3$..:.j i% +u%i%*.1 T a a a a Z a a a ]+@.~%=+_+o+].&.1.1.3$3$3$(.(.y.Y.~#~#k#=+S@=+% r % z q q q q & q z v%v%,#(.",
"P ....J T ..#.......P ;+= 5 ^ ....U a a a Z a a a 7.]+M (+=+P J -.  2 2 ....:.7.7.t.j.: : w%x%y%P z%~ * E E E E E E E E *+*+L |+",
"..E J J J J ........#.#.^ Q #.....].Z Z Z a a a a a a 7.|+{#E J         ..#.3$a 7.1.^ A%A%w%w%~%E $.| E E E E E J J J J L L M (+",
"            T 2 U U 7.V @.V.r.2 1   ` &.&.&.&.&.U m.]+]+x%k#@ [           1 2 &.1.(.N 8.w%w%w%k#* $.| E E E < < <       K ..#.= ",
"              2 U a 7.V ^.V.I #   <   2 2 2 2 2 2 8 (.7.x%K.@ [ <         2 2 2 8 t.V 8.8.w%w%(+* B%| E E E < < <       ..#.P = ",
"        2 2 2 2 m.V V ^.^.#+E.{.    2 2 2 2 2 2 2 2 D.M x%C {.[           2 2 2 8 8 f.b W C%D%E%* B%| E E E < < <     2 J #.P = ",
"8   2 2   &.U U 7.7.V V b 4+!%{ T 2 2 2 2 2 2 2 m.1.V V p.`$<           ].U U m.1.(.V b 8.C%C%k#* B%| E E E -.-.-.    2 K U _+E#",
"8   2 2   H a a 7.7.V ^.b 4+!%....2 2 2 2 2 2 :.7.7.>.F%u.K.<           Z a a 7.7.(.V b 8.C%C%k#* B%| E E E J J J     2 a a M E#"};
