/* XPM */
static char * left_3_xpm[] = {
"64 64 590 2",
"  	c #5B5D5C",
". 	c #5F6160",
"+ 	c #616362",
"@ 	c #626463",
"# 	c #636564",
"$ 	c #626362",
"% 	c #626262",
"& 	c #616161",
"* 	c #5E5E5E",
"= 	c #525252",
"- 	c #4D4D4D",
"; 	c #595A59",
"> 	c #666867",
", 	c #696B6A",
"' 	c #676968",
") 	c #656666",
"! 	c #636464",
"~ 	c #606060",
"{ 	c #5E5F5F",
"] 	c #606161",
"^ 	c #585858",
"/ 	c #4A4A4A",
"( 	c #4C4C4C",
"_ 	c #4F4F4F",
": 	c #555555",
"< 	c #5C5E5D",
"[ 	c #5D5F5E",
"} 	c #5E605F",
"| 	c #5F5F5F",
"1 	c #5B5C5B",
"2 	c #5A5C5B",
"3 	c #565857",
"4 	c #494A4A",
"5 	c #494949",
"6 	c #505050",
"7 	c #555656",
"8 	c #595B5A",
"9 	c #585A59",
"0 	c #5B5D5E",
"a 	c #5A5B5D",
"b 	c #565759",
"c 	c #4B4B4B",
"d 	c #686969",
"e 	c #676868",
"f 	c #646565",
"g 	c #656565",
"h 	c #666666",
"i 	c #5E5E5F",
"j 	c #545455",
"k 	c #696A69",
"l 	c #696A6A",
"m 	c #6A6B6A",
"n 	c #676767",
"o 	c #656665",
"p 	c #646564",
"q 	c #616261",
"r 	c #636363",
"s 	c #6C6C6C",
"t 	c #6D6E6D",
"u 	c #6C6D6D",
"v 	c #6B6C6B",
"w 	c #686968",
"x 	c #656766",
"y 	c #646464",
"z 	c #616262",
"A 	c #606162",
"B 	c #5D5E5E",
"C 	c #545555",
"D 	c #545454",
"E 	c #5D5D5D",
"F 	c #5D5E5F",
"G 	c #5C5E5E",
"H 	c #5A5C5D",
"I 	c #575859",
"J 	c #5C5C5C",
"K 	c #5B5B5C",
"L 	c #5B5B5D",
"M 	c #59595B",
"N 	c #575759",
"O 	c #5F5F60",
"P 	c #595959",
"Q 	c #515151",
"R 	c #6B6B6B",
"S 	c #6D6D6D",
"T 	c #5B5C5C",
"U 	c #5A5B5C",
"V 	c #58595B",
"W 	c #545557",
"X 	c #5E5E5D",
"Y 	c #5C5D5F",
"Z 	c #5B5C5E",
"` 	c #5B5D5D",
" .	c #575857",
"..	c #5B5B5B",
"+.	c #58585B",
"@.	c #58585A",
"#.	c #5A5A5A",
"$.	c #6A6A6A",
"%.	c #5D5E60",
"&.	c #5A5C5C",
"*.	c #575858",
"=.	c #5D5E5D",
"-.	c #5C5D5C",
";.	c #626263",
">.	c #585A5B",
",.	c #545656",
"'.	c #5C5F5E",
").	c #56575A",
"!.	c #636364",
"~.	c #535555",
"{.	c #606261",
"].	c #5B5C5D",
"^.	c #57585A",
"/.	c #4E4F4F",
"(.	c #595A5B",
"_.	c #5C5D5D",
":.	c #5A5B5B",
"<.	c #535554",
"[.	c #575958",
"}.	c #606160",
"|.	c #4E4E4F",
"1.	c #595B5B",
"2.	c #5F6060",
"3.	c #585958",
"4.	c #515251",
"5.	c #5E5F5E",
"6.	c #5A5B5A",
"7.	c #595A5C",
"8.	c #555658",
"9.	c #5E5F60",
"0.	c #4F5150",
"a.	c #525453",
"b.	c #565756",
"c.	c #4E4E4E",
"d.	c #5A5B5E",
"e.	c #595A5D",
"f.	c #58595C",
"g.	c #5B5C5F",
"h.	c #4E504F",
"i.	c #515252",
"j.	c #565656",
"k.	c #5F605F",
"l.	c #4D4E4E",
"m.	c #595B5C",
"n.	c #585A5A",
"o.	c #57595A",
"p.	c #535456",
"q.	c #4D4E4D",
"r.	c #585959",
"s.	c #4D4D4E",
"t.	c #595A5A",
"u.	c #525355",
"v.	c #545655",
"w.	c #4B4C4B",
"x.	c #565758",
"y.	c #565757",
"z.	c #555756",
"A.	c #535556",
"B.	c #4F5053",
"C.	c #4E4F51",
"D.	c #58595A",
"E.	c #575959",
"F.	c #484A4A",
"G.	c #4F5050",
"H.	c #505151",
"I.	c #555655",
"J.	c #555757",
"K.	c #535455",
"L.	c #4A4A4B",
"M.	c #505251",
"N.	c #4F5151",
"O.	c #505152",
"P.	c #4E5051",
"Q.	c #4C4D4F",
"R.	c #4E4F50",
"S.	c #505252",
"T.	c #555657",
"U.	c #545556",
"V.	c #515253",
"W.	c #494A4B",
"X.	c #4C4D4D",
"Y.	c #535454",
"Z.	c #525352",
"`.	c #505150",
" +	c #4B4C4C",
".+	c #4A4B4A",
"++	c #484848",
"@+	c #515352",
"#+	c #505153",
"$+	c #484949",
"%+	c #4C4C4E",
"&+	c #5C5C5F",
"*+	c #5C5C5E",
"=+	c #4F4F50",
"-+	c #565657",
";+	c #575757",
">+	c #535353",
",+	c #565859",
"'+	c #49494B",
")+	c #626363",
"!+	c #5F6061",
"~+	c #5E5F61",
"{+	c #4F4F51",
"]+	c #5A5A5C",
"^+	c #5D5D5F",
"/+	c #5F5F61",
"(+	c #525254",
"_+	c #59595A",
":+	c #5C5C5D",
"<+	c #5C5E5F",
"[+	c #515153",
"}+	c #5E5E60",
"|+	c #535355",
"1+	c #5D5F5F",
"2+	c #4F5052",
"3+	c #59585E",
"4+	c #58565D",
"5+	c #665E5D",
"6+	c #7F4E54",
"7+	c #693C5C",
"8+	c #3D3B84",
"9+	c #3E3B85",
"0+	c #3F3B81",
"a+	c #4A4467",
"b+	c #58575C",
"c+	c #5C5D5E",
"d+	c #5A595B",
"e+	c #606061",
"f+	c #A04448",
"g+	c #BE2632",
"h+	c #BA283E",
"i+	c #9C3365",
"j+	c #444190",
"k+	c #3F4191",
"l+	c #3F408F",
"m+	c #40387B",
"n+	c #58575A",
"o+	c #545554",
"p+	c #645B5D",
"q+	c #7C477A",
"r+	c #A0628A",
"s+	c #5A3E8A",
"t+	c #982F5C",
"u+	c #823774",
"v+	c #3F4090",
"w+	c #4B4462",
"x+	c #5B5E5D",
"y+	c #5A5D5C",
"z+	c #4C4563",
"A+	c #BD8595",
"B+	c #F3B7AD",
"C+	c #A56B91",
"D+	c #454190",
"E+	c #45408F",
"F+	c #3F387C",
"G+	c #504F51",
"H+	c #5D5D5E",
"I+	c #60445B",
"J+	c #D8858A",
"K+	c #F8D0BF",
"L+	c #F3B6AC",
"M+	c #9E6890",
"N+	c #3E3D89",
"O+	c #4B4756",
"P+	c #50425A",
"Q+	c #763C5F",
"R+	c #ECC5B7",
"S+	c #D3A8A1",
"T+	c #8F566C",
"U+	c #5D3C7F",
"V+	c #404191",
"W+	c #3E4191",
"X+	c #463F5A",
"Y+	c #554857",
"Z+	c #82364A",
"`+	c #ECC3B5",
" @	c #C6A19B",
".@	c #722D44",
"+@	c #7F7082",
"@@	c #3A3C8A",
"#@	c #3D4191",
"$@	c #995685",
"%@	c #71417A",
"&@	c #443C62",
"*@	c #525353",
"=@	c #6E6F6F",
"-@	c #F6DCCF",
";@	c #F1D0BF",
">@	c #554A46",
",@	c #EBF2F6",
"'@	c #BDA4B3",
")@	c #535194",
"!@	c #E0ACAA",
"~@	c #AD6F7B",
"{@	c #3C3070",
"]@	c #413770",
"^@	c #524F59",
"/@	c #585A5C",
"(@	c #5C5B5C",
"_@	c #5D5758",
":@	c #CEA8A8",
"<@	c #F8D2C2",
"[@	c #F9D7C5",
"}@	c #D1B5A6",
"|@	c #F9ECE6",
"1@	c #E7B0AD",
"2@	c #C78393",
"3@	c #E8B8AE",
"4@	c #976172",
"5@	c #3B2155",
"6@	c #3E3275",
"7@	c #443274",
"8@	c #565557",
"9@	c #4D4F4E",
"0@	c #CC8085",
"a@	c #F4C9BB",
"b@	c #F4C7B9",
"c@	c #F8D4C2",
"d@	c #D17881",
"e@	c #9D5367",
"f@	c #58365A",
"g@	c #412256",
"h@	c #3C2155",
"i@	c #47246B",
"j@	c #4C2770",
"k@	c #4E4856",
"l@	c #4C4E4D",
"m@	c #4B4D4C",
"n@	c #565858",
"o@	c #915A65",
"p@	c #CF8388",
"q@	c #EAB0A7",
"r@	c #F2C2B5",
"s@	c #D58E90",
"t@	c #AD4F6A",
"u@	c #89787C",
"v@	c #676370",
"w@	c #4D2E73",
"x@	c #47226A",
"y@	c #4B2570",
"z@	c #4A3F5B",
"A@	c #4B4B4C",
"B@	c #4A4B4B",
"C@	c #494A49",
"D@	c #474948",
"E@	c #454746",
"F@	c #545657",
"G@	c #6E686F",
"H@	c #8C7780",
"I@	c #9D5167",
"J@	c #8B8A8A",
"K@	c #979797",
"L@	c #72737B",
"M@	c #6F74A4",
"N@	c #4F346F",
"O@	c #4A4652",
"P@	c #656564",
"Q@	c #646566",
"R@	c #636465",
"S@	c #616264",
"T@	c #5F6062",
"U@	c #464746",
"V@	c #4F4E4E",
"W@	c #535453",
"X@	c #515152",
"Y@	c #6A5C6C",
"Z@	c #907891",
"`@	c #977999",
" #	c #986770",
".#	c #AF757A",
"+#	c #A2A2A2",
"@#	c #848484",
"##	c #978F98",
"$#	c #7C6F93",
"%#	c #5A4C88",
"&#	c #504461",
"*#	c #626365",
"=#	c #646465",
"-#	c #696969",
";#	c #886986",
">#	c #B27586",
",#	c #B26775",
"'#	c #96636C",
")#	c #9A8888",
"!#	c #929292",
"~#	c #969696",
"{#	c #838483",
"]#	c #926793",
"^#	c #6B719D",
"/#	c #626465",
"(#	c #626364",
"_#	c #616263",
":#	c #606062",
"<#	c #5D5F60",
"[#	c #4C4C4D",
"}#	c #575656",
"|#	c #835661",
"1#	c #DD7F86",
"2#	c #CB6B7A",
"3#	c #C86879",
"4#	c #B1808D",
"5#	c #857C98",
"6#	c #828282",
"7#	c #8D7E8E",
"8#	c #99609B",
"9#	c #8D749B",
"0#	c #705057",
"a#	c #505051",
"b#	c #4D4F4F",
"c#	c #9B4F66",
"d#	c #E18488",
"e#	c #EB8E8F",
"f#	c #EE9191",
"g#	c #DA7C84",
"h#	c #AC597D",
"i#	c #757EA4",
"j#	c #7E7389",
"k#	c #796896",
"l#	c #967AA8",
"m#	c #8F4C5F",
"n#	c #505052",
"o#	c #4C4E4E",
"p#	c #625D60",
"q#	c #955866",
"r#	c #CD707C",
"s#	c #DE8186",
"t#	c #EC8F90",
"u#	c #E88C8E",
"v#	c #BA6783",
"w#	c #8C6795",
"x#	c #605992",
"y#	c #957AA9",
"z#	c #794D58",
"A#	c #575758",
"B#	c #5C5F60",
"C#	c #5F5F65",
"D#	c #665B69",
"E#	c #7C5469",
"F#	c #925C72",
"G#	c #CA7384",
"H#	c #C46977",
"I#	c #8C4E67",
"J#	c #645F92",
"K#	c #757FA7",
"L#	c #5F5D5D",
"M#	c #6D678F",
"N#	c #A0A4B7",
"O#	c #ADB1C4",
"P#	c #A4A8BC",
"Q#	c #999DB2",
"R#	c #8B74A6",
"S#	c #40495D",
"T#	c #777389",
"U#	c #887EA3",
"V#	c #66697F",
"W#	c #65585A",
"X#	c #913950",
"Y#	c #A7A9AD",
"Z#	c #A6A6A6",
"`#	c #A4A3A4",
" $	c #9B839C",
".$	c #905384",
"+$	c #823A4C",
"@$	c #806D77",
"#$	c #A38AA4",
"$$	c #855D87",
"%$	c #6C5B5B",
"&$	c #AD5D62",
"*$	c #9F7C7D",
"=$	c #806668",
"-$	c #7B6668",
";$	c #7D4559",
">$	c #8D2A39",
",$	c #992034",
"'$	c #862538",
")$	c #7D494F",
"!$	c #725866",
"~$	c #4F5051",
"{$	c #5B595A",
"]$	c #724251",
"^$	c #9B4E5D",
"/$	c #CD757A",
"($	c #C56569",
"_$	c #932E3E",
":$	c #CA7275",
"<$	c #C86A6E",
"[$	c #CA6A6E",
"}$	c #944D53",
"|$	c #744048",
"1$	c #68474F",
"2$	c #57494D",
"3$	c #515254",
"4$	c #635B66",
"5$	c #71598B",
"6$	c #773C60",
"7$	c #94515E",
"8$	c #6E5B5B",
"9$	c #A53C46",
"0$	c #9F2436",
"a$	c #9F2336",
"b$	c #913340",
"c$	c #783449",
"d$	c #992539",
"e$	c #8A2A40",
"f$	c #525050",
"g$	c #4D4E50",
"h$	c #56585A",
"i$	c #535252",
"j$	c #6A4953",
"k$	c #6E5479",
"l$	c #6D70AB",
"m$	c #66648D",
"n$	c #5C5758",
"o$	c #81464B",
"p$	c #992A42",
"q$	c #9A2639",
"r$	c #87454B",
"s$	c #9B2839",
"t$	c #64404B",
"u$	c #595B59",
"v$	c #525454",
"w$	c #514E4F",
"x$	c #732D48",
"y$	c #752847",
"z$	c #72314B",
"A$	c #585254",
"B$	c #595756",
"C$	c #913740",
"D$	c #9F2233",
"E$	c #875A85",
"F$	c #903B42",
"G$	c #62647B",
"H$	c #983853",
"I$	c #653F4A",
"J$	c #575957",
"K$	c #69434F",
"L$	c #752747",
"M$	c #5D5356",
"N$	c #6E4F51",
"O$	c #96323E",
"P$	c #655B5B",
"Q$	c #714E50",
"R$	c #6A4E61",
"S$	c #845684",
"T$	c #62444C",
"U$	c #525253",
"V$	c #4B4D4D",
"W$	c #474848",
"X$	c #5E5758",
"Y$	c #674F56",
"Z$	c #654E56",
"`$	c #665758",
" %	c #58464B",
".%	c #515353",
"+%	c #5C5D60",
"@%	c #625B5E",
"#%	c #666F9B",
"$%	c #704B6D",
"%%	c #6F3C4E",
"&%	c #65555A",
"*%	c #6B5066",
"=%	c #6C4553",
"-%	c #62565C",
";%	c #5A5A5B",
">%	c #525354",
",%	c #4F504F",
"'%	c #505253",
")%	c #535557",
"!%	c #555759",
"~%	c #4A4C4C",
"{%	c #4B4C4D",
"]%	c #494B4B",
"^%	c #555758",
"/%	c #595B5D",
"(%	c #494B4A",
"_%	c #525356",
":%	c #535457",
"<%	c #484948",
"[%	c #535354",
"}%	c #616163",
"|%	c #555557",
"1%	c #545456",
"2%	c #4D4D4F",
"3%	c #555556",
"4%	c #686868",
"5%	c #565658",
"6%	c #565558",
"7%	c #535254",
"8%	c #585859",
"9%	c #57595B",
"  . + @ @ # # $ % & & * = - ; @ > , , ' ) ! ~ { { . ] ^ / ( _ : ;   < < [ } } } } { | * 1 2 3 4 5 6 7 8 9 9 9 8 2       0 a b c ",
"d e ) f # f f f g h h g i j k l l m l l d d n ) o p o q - = r s t u v m l d w > x ) g y z A B C D E B } [ [ B F [ [ [ G G H I - ",
"n ~ * * E E E J J J K L M N O ~ ~ ~ ~ | | | | * * E J P Q J R S R g & ~ | ~ | | * E E J T U V W ; X * < < < F Y Z `       2  .Q ",
"g | * * E J J J J J ..K +.@.& | | * * * * * * E E J ..#.= * $.$.y ~ | | * * * E J J J J T a V W P ~ o . } [ %.%.Y <       &.*.= ",
"% | B =.E -.J J T T ..K @.@.;.| | * [ * * * B E E J J #.= * n & | | | * * * E E J J J J T a >.,.; n ! [ [ [ %.Y Y <     ` &.I _ ",
"} '.< < <       2 2 2 U ).b !.~ * [ [ [ [ '.< E E J J #.= | g | | | * * * * J E J J J ....2 9 ~.3 + {.< [ [ Y Y Y       Z ].^./.",
"[ < < <         2 2 8 (.).b z ~ * [ [ [ [ < < _.J ....P = * g | * * * * * E E E J J ....:.8 9 <.[.}.. < < < Y Y 0 <     Z a ^.|.",
"<   < <   ` ].T &.U 1.(.).b A 2.{ [ [ [ B G ` T 1 ....3.4._.y | 5.* =.B B _._._.T T :.:.6.8 9 <. .q ] < < < Y Z Z &.&.T a 7.b |.",
"          Z Z a a a 7.7.b 8.9.. [ < < < Y Y Z &.2 2 2 [.0.T r | | [ < < <       2 2 2 8 8 9 [.a.b.% 2.<     Z Z Z a a a a a b c.",
"  2 2 2 2 H d.e.e.f.V V b W _.. < < <   ].g.d.&.2 8 8 [.h.6.% * * < < <       2 2 2 2 9 9 [.3 i.j.% k.    2 a Z Z a a 7.a 7.^.l.",
"T 1 2 8 8 1.m.1.>.n.o.^.b p.` [   < < 2 2 H &.:.8 8 8 3 q.r.& * E   <   2 2 2 8 8 8 9 9 9 [.b.h.D & * 2 8 8 1.1.7.7.7.7.V V b s.",
"t.#.8 8 8 8 8 9 9 [.[.I 8.u.U         2 2 2 8 8 8 9 9 v.w.i.J E E   < 2 2 2 2 8 8 8 9 [.3 : = ( _ ..; 8 9 n.9 9 9 V V V V V x.( ",
"Q j.y.3 3 3 3 3 z.z.z.A.B.C.D.8 1.2 :.8 8 9 8 8 9 E.z.h.F.G.P ....2 2 2 8 3.[.3 3 3 z.<.H.Q 6 / / i.I.3 3 3 3 3 J.8.8.8.8.8.K.L.",
"_ G.H.M.0.N.N.O.N.N.0.P.Q.Q.R.S.~.,.,.T.,.7 T.J.,.U.K.V.W.X.Y.: b.3 3.*.I.Z.`.h./.l.q. +.+/ 5 ++/ _ 4.@+a.a.Y.<.Y.p.W W u.#+R.$+",
"g ~ <     ].a a a 7.a L @.%+V.@.&+Y Y Y Y Y Y *+L U M @.=+|.-+;+E E J J ..P j.D >+i._ c / / 5 ++c >+7 z.3 3 ,+I b b V V b b u.'+",
"R n )+{.. !+~+%.%.%.Y Y M {+]+^+/+~+%.Y Y Y Y Y *+*+]+M (+_+:+E E E E J J J ....#.#.P : Q 6 - 5 6 ~ f {.} < <+%.a Z Z a a a ^.%+",
"$.r }.. . ~+~+%.%.%.Y ^+]+[+i 9.}+%.%.Y Y Y Y Y *+*+L M |+:+| E * E E E J J J ......#.t.3.;+: c.>+f ] 1+1+F Y Z Z Z Z a a a ^.2+",
"n q . . } ~+3+4+4+3+Y F ..= B [ [ F %.Y Y Y Z Z Z a Z ]+|+^+~ E E E E E J J T 2 2 2 8 9 9 [.z.0.D r | %.%.%.Y Y Y Z Z Z 7.a ^.C.",
"g ~ 2.5+6+7+8+9+9+0+a+b+..Z.[ [ < c+Y Y Y Y Z Z Z a a d+|+i e+* E E E E J J 1 2 2 2 8 9 9 z.v.`.>+r { %.Y Y Y Y Z Z Z a a 7.,+P.",
"% ~ ~ f+g+h+i+j+k+k+l+m+n+Z.[ [ < G Y Y Y Y Z Z Z a U M |+i & * =.< E E J J 1 2 2 1.1.n.r.C o+`.>+r i %.Y Y Y Y Z Z Z a a a ^.O.",
"~ | p+q+r+s+t+u+k+k+k+v+w+= =.< < < < <       &.2 2 :.P >+* ~ E E < x+x+y+y+  2   1.7.f.@.: D 6 >+% i %.Y Y Y Z Z Z Z a a a I H.",
"| * z+A+B+C+D+E+k+k+k+k+F+G+=.< < <         2 2 2 8 6.P >+E ~ E E <         2 8 2 1.f.V N D D 6 >+& H+Y Z Z Z Z Z a a a 7.7.).6 ",
"E | I+J+K+L+M+k+k+k+k+k+N+O+=.< <           &.2 2 8 8 P i.J | E E <       2 2 8 8 t.V o.x.D D 6 >+& H+Y Z Z Z Z Z a a a 7.7.)._ ",
"E y P+Q+R+S+T+U+V+k+W+k+k+X+<   2 2 2 2 a a a 1.8 8 8 [.@+-.| J J J J T 2 2 2 8 9 9 [.3 <.>+>+6 = & c+Z Z Z Z Z a 7.7.7.7.V x.G.",
"E y Y+Z+`+ @.@+@@@#@$@%@v+&@M   2 8 8 2 U e.a 1.8 8 9 [.a.-.| E J J J 1 2 8 8 8 8 3 v.<.*@= >+6 6 O ].a a a a a 7.a 7.V V V 8.G.",
"J E 3 =@-@;@>@,@'@)@!@~@{@9+]@^@1 8 8 9 8 /@>.r.[.9 9 3 M.:.E ..........2 8 8 8 9 9 n.E.<.Z.*@6 _ ~ T a a a a 7.7.V V V V V 8.G.",
"J (@_@:@<@[@}@|@1@2@3@4@5@6@7@8@3.3.[.[.[.;+;+j.: : I.a.9@o+^ ..#.8 8 2 8 8 8 9 9 D.^.^.K.i.@+0._ ~ U 7.7.7.7.7.7.V V V ^.^.8.h.",
"..T p+0@a@b@[@c@d@e@f@g@h@i@j@k@6 H.M.@+4.Q >+D >+Q 0.l@m@4.I.^ r.3 3 9 9 9 9 9 9 [.b ^.W a.@+l.( ..; V V V V V V V V ^.b b p.9@",
"o+y.n@o@p@q@r@s@t@u@v@w@x@y@z@Q Q G.G.h./.s. +A@w.B@C@D@E@- 6 = o+C 7 [.[.[.*. .3 y.8.T.U.<.0.D@5 c.>+W U.W W W W 8.8.F@W p.C.B@",
"a.T Z Z G@H@e@I@J@K@L@M@N@O@e+y P@Q@Q@R@S@T@7.b W K.=+w.U@- _ V@_ 6 = o+v.<.W@>+= Q X@Q _ - 5 ++c = ^ J * H+c+Z a 7.V ^.^.b [+5 ",
"2 [ %.Y@Z@`@ #.#+#@###$#%#&#~ r r R@*#*#*#*#S@S@*#Q@=#../ 6 : j.;+;+ .3.[.[.*.^ ;+;+;+j.D Q  +5 D $.s R -#n Q@*#T@~+%.Y Y Z M =+",
"[ [ F ;#>#,#'#)#!#~#{#]#^#&#e+r !.R@/#*#(#_#:#T@9.<#B #._ #.| ~ ~ | }.2.} . { * B E :+H+K #.y.[#}#$.e )+| 2.9.F c+Y Y c+Z Z V |.",
"} [ %.|#1#2#3#4#5#6#7#8#9#0#* | | { { [ B < _.`     ].]+a#K :+E < < -.        2 2 U 7.7.7.@.b 2+^ n }.[ [ [ [ [ < < < =.Z Z V b#",
"[ [ %.c#d#e#f#g#h#i#j#k#l#m#* * * [ [ < < <       2 ].]+n#K J J -.        2 2 2 2 U 7.V V V b #+^ % } [ [ [ < < < [ < ` Z Z V o#",
"} [ F p#q#r#s#t#u#v#w#x#y#z#* * * * [ < < <       &.].M {+2.* J J         2 2 2 2 2 7.V V V b O.A#% { [ [ [ < < < `   ` Z Z V o#",
"=.* < B#C#D#E#F#G#H#I#J#K#6 * * * B < < < <   ` Z a K P 6 } [     Z Z ].  2 2 2 8 8 8 8 E.E.y.M.y.{.[ [ < < c+Y g.g.g.Z a a ^.X.",
"E E L#M#N#O#P#Q#R#S#T#U#V#c.* E * =.< < < <   &.a a U *._ B {   ` Z Z H   2 2 8 8 8 8 9 9 [.z.M.z.} < [ < < Y Z Z Z Z a a a V [#",
"..(@W#X#Y#Z#`# $.$+$@$#$$$_ * * E E <     T   &.a 7.(.;+_ 9     ].a a a 2 9 8 8 8 8 9 9 9 3 v.M.C } _.< < < Z Z Z Z a a a 7.V w.",
"#...%$&$*$=$-$;$>$,$'$)$!$h.< [ <       ].a a a 7.V n.3 0.[.2 8 1.7.7.7.2 8 9 9 9 9 [.[.E.8.p.~$= | _.Z Z Z Y Z Z Z a a 7.a ^. +",
"^ {$]$^$/$($_$:$<$[$}$|$1$2$9 <   2 2 2 U 7.a 7.V V n.3 9@[.2 8 (.7.7.>.9 [.9 9 9 9 [.[.n@p.3$R.Q ~ _.Z Z Z a Z a 7.a 7.7.7.o.X.",
"j.E 4$5$6$7$8$9$0$a$b$c$d$e$f$8   2 2 2 1.7.7.7.V V I <.m@z.3.r.r.D.D.E.3 v.<.<.<.<.b.3 n@p.3$g$_ | :+Z Z Z a a a a a 7.7.7.h$X.",
"i$j$k$l$m$n$8 o$0$0$p$q$r$s$t$b.6.:.2 2 2 8 9 u$[.n@a.( - >+>+= = = *@= 4.G./._ _ 6 >+I.7 v$S.9@l...:.Z a a a a 7.7.7.7.V V h$ +",
"w$x$y$z$A$b.3 B$C$D$E$F$G$H$I$= ;+r.9 9 9 9 [.J$z.@+m@5 / _ Q 6 6 6 6 6 6 _ _ _ _ _ _ _ Q Z.M. +( : t.7.7.7.7.7.7.V V V V ^.8.4 ",
"b.K$L$x$M$9 9 [.N$O$P$Q$R$S$T$>+D Y.Y.Y.Y.v$*@@+M.0./.X.++ += >+>+*@*@*@U$U$*@D Y.D >+i.4.0.V$4 - >+7 T.8.W 8.8.8.W W 8.p.u.#+W$",
"< X$Y$y$Z$0 Z ].a `$&.;+6  %*.    ` H a a a 7.V D.o.^.I 3$.%9 9 r.D.V V V D.D.D.D.D.D.I x.W Q.W.]+i ^++%Y Z Z Z a a a 7.7.V b $+",
"@%#%$%y$%%Y Z Y Y a a _+D _ 2 < &.H a Z Z a a 7.7.a 7.V p.~.9 9 n.7.7.7.a 7.V V 7.7.V V V Z W %+L *+*+Z Y Z Z Z a a a 7.7.7.).X.",
"&%*%=%=%-%%.%.Y Z Y Z ;%;+6   <   ].Z a a a a 7.7.a V V u.K.9 9 D.V V 7.a 7.7.7.7.7.V V (.~+^.R.^+*+*+Z Z Z Z Z a a 7.7.7.V ^.s.",
"| | %.%.%.%.%.%.Y Y 7.8 *.M.T < 2 U a a a a a 7.7.7.V V u.>%[.9 9 n.y.8 8 8 1.7.7.7.V V V H+-+/._.    Z Z Z Z Z a a a V 7.7.^.s.",
"* | %.%.%.Y Y %.Y Y (.n.n@M.    2 U a a 7.7.7.7.7.7.V V u.>%n@3 n@3 <.9 9 8 1.7.7.7.V V D.*.: /.<   ` Z Z Z Z Z a a a V 7.V b s.",
"| * %.%.%.Y Y Y Y Y 7.n.3 0.2   2 U a a a 7.7.7.7.7.V ^.3$.%3 z.,.@+M.v.9 8 1.7.7.7.V ^.I ;+C ,%<   ` Z Z Z a a a 7.7.7.V V b - ",
"{ [ [ B G c+Y Y Z Y V E.z.0.2 2 8 U a 7.7.7.7.7.V V ^.^.3$'%8.)%u.^.(.8.r.9 n.V V V V ^.^.b A.P._.  ].a a a a a 7.7.V V V V b X.",
"} [ [ [ < Y Y Y Z Z o.*.z.0.2 2 8 U a 7.7.7.7.7.V V b b #+#+8.p.^.7.7.>.[.9 n.V V V V ^.b !%p.P.<   T a a a a a 7.7.V ^.^.^.8.V$",
"} < < < < Y Y Z Z Z ^.n@v.h.8 2 8 (.7.7.V V V V V ^.b x.2+2+u.W V 7.V 1.n@9 n.V ^.^.^.b b W u.C.< 2 &.a 7.7.7.7.7.V V b ^.^.8.~%",
"} <       Z Z Z a a ^.x.v.9@9 2 8 (.V V V V V V ^.^.N 7 |.{%Q.#+^.V 7.>.b D.D.r.*.*.*.n@J.: *@_ J :.:.8 8 8 1.n.n.E.[.E.b b W ]%",
"< 2       Z Z Z a a b y.<.m@3 9 [.D.D.^.^.^.b b b b T.*@/ L.C.3$W b b 8.8.8.^%z.7 v.v.~.W@= 6 - #.P t.; 9 9 9 9 [.[.[.&.8.W u.D@",
"<     T 2 ].a a /%/%b J.@+(%M.@+a.U.W p.p.p.p.u.u.3$[+- 5 {%%.%.x.p._%p.:%W U.v.Y.*@0.h.,%_ ( / - >+;+3 3 z.z.z.z.z.z.T.x.8.8.o#",
"W@I.I.z.*.r._+;%..:.j ,% +<%,%*.1 T a a a a Z a a a ]+@.U$=+_+H+].&.1.1.;%;%;%(.(.y.Y.W@W@[%=+A@=+% r % z q q q q & q z }%}%S@(.",
"P ....J T ..#.......P ;+= 5 ^ ....U a a a Z a a a 7.]+M (+=+P J -.  2 2 ....:.7.7.t.j.: : |%1%2%P -#~ * E E E E E E E E *+*+L |+",
"..E J J J J ........#.#.^ Q #.....].Z Z Z a a a a a a 7.|+X@E J         ..#.;%a 7.1.^ 3%3%|%|%U$E $.| E E E E E J J J J L L M (+",
"            T 2 U U 7.V @.V.r.2 1   ` &.&.&.&.&.U m.]+]+1%[%@ [           1 2 &.1.(.N 8.|%|%|%[%* $.| E E E < < <       K ..#.= ",
"              2 U a 7.V ^.V.I #   <   2 2 2 2 2 2 8 (.7.1%K.@ [ <         2 2 2 8 t.V 8.8.|%|%(+* 4%| E E E < < <       ..#.P = ",
"        2 2 2 2 m.V V ^.^.#+E.{.    2 2 2 2 2 2 2 2 D.M 1%C {.[           2 2 2 8 8 f.b W 5%6%7%* 4%| E E E < < <     2 J #.P = ",
"8   2 2   &.U U 7.7.V V b 2+8%{ T 2 2 2 2 2 2 2 m.1.V V p.v$<           ].U U m.1.(.V b 8.5%5%[%* 4%| E E E -.-.-.    2 K U _+a#",
"8   2 2   H a a 7.7.V ^.b 2+8%....2 2 2 2 2 2 :.7.7.>.9%u.K.<           Z a a 7.7.(.V b 8.5%5%[%* 4%| E E E J J J     2 a a M a#"};
