/* XPM */
static char * left_2_xpm[] = {
"64 64 566 2",
"  	c #5B5D5C",
". 	c #5F6160",
"+ 	c #616362",
"@ 	c #626463",
"# 	c #636564",
"$ 	c #626362",
"% 	c #626262",
"& 	c #616161",
"* 	c #5E5E5E",
"= 	c #525252",
"- 	c #4D4D4D",
"; 	c #595A59",
"> 	c #666867",
", 	c #696B6A",
"' 	c #676968",
") 	c #656666",
"! 	c #636464",
"~ 	c #606060",
"{ 	c #5E5F5F",
"] 	c #606161",
"^ 	c #585858",
"/ 	c #4A4A4A",
"( 	c #4C4C4C",
"_ 	c #4F4F4F",
": 	c #555555",
"< 	c #5C5E5D",
"[ 	c #5D5F5E",
"} 	c #5E605F",
"| 	c #5F5F5F",
"1 	c #5B5C5B",
"2 	c #5A5C5B",
"3 	c #565857",
"4 	c #494A4A",
"5 	c #494949",
"6 	c #505050",
"7 	c #555656",
"8 	c #595B5A",
"9 	c #585A59",
"0 	c #5B5D5E",
"a 	c #5A5B5D",
"b 	c #565759",
"c 	c #4B4B4B",
"d 	c #686969",
"e 	c #676868",
"f 	c #646565",
"g 	c #656565",
"h 	c #666666",
"i 	c #5E5E5F",
"j 	c #545455",
"k 	c #696A69",
"l 	c #696A6A",
"m 	c #6A6B6A",
"n 	c #676767",
"o 	c #656665",
"p 	c #646564",
"q 	c #616261",
"r 	c #636363",
"s 	c #6C6C6C",
"t 	c #6D6E6D",
"u 	c #6C6D6D",
"v 	c #6B6C6B",
"w 	c #686968",
"x 	c #656766",
"y 	c #646464",
"z 	c #616262",
"A 	c #606162",
"B 	c #5D5E5E",
"C 	c #545555",
"D 	c #545454",
"E 	c #5D5D5D",
"F 	c #5D5E5F",
"G 	c #5C5E5E",
"H 	c #5A5C5D",
"I 	c #575859",
"J 	c #5C5C5C",
"K 	c #5B5B5C",
"L 	c #5B5B5D",
"M 	c #59595B",
"N 	c #575759",
"O 	c #5F5F60",
"P 	c #595959",
"Q 	c #515151",
"R 	c #6B6B6B",
"S 	c #6D6D6D",
"T 	c #5B5C5C",
"U 	c #5A5B5C",
"V 	c #58595B",
"W 	c #545557",
"X 	c #5E5E5D",
"Y 	c #5C5D5F",
"Z 	c #5B5C5E",
"` 	c #5B5D5D",
" .	c #575857",
"..	c #5B5B5B",
"+.	c #58585B",
"@.	c #58585A",
"#.	c #5A5A5A",
"$.	c #6A6A6A",
"%.	c #5D5E60",
"&.	c #5A5C5C",
"*.	c #575858",
"=.	c #5D5E5D",
"-.	c #5C5D5C",
";.	c #626263",
">.	c #585A5B",
",.	c #545656",
"'.	c #5C5F5E",
").	c #56575A",
"!.	c #636364",
"~.	c #535555",
"{.	c #606261",
"].	c #5B5C5D",
"^.	c #57585A",
"/.	c #4E4F4F",
"(.	c #595A5B",
"_.	c #5C5D5D",
":.	c #5A5B5B",
"<.	c #535554",
"[.	c #575958",
"}.	c #606160",
"|.	c #4E4E4F",
"1.	c #595B5B",
"2.	c #5F6060",
"3.	c #585958",
"4.	c #515251",
"5.	c #5E5F5E",
"6.	c #5A5B5A",
"7.	c #595A5C",
"8.	c #555658",
"9.	c #5E5F60",
"0.	c #4F5150",
"a.	c #525453",
"b.	c #565756",
"c.	c #4E4E4E",
"d.	c #5A5B5E",
"e.	c #595A5D",
"f.	c #58595C",
"g.	c #5B5C5F",
"h.	c #4E504F",
"i.	c #515252",
"j.	c #565656",
"k.	c #5F605F",
"l.	c #4D4E4E",
"m.	c #595B5C",
"n.	c #585A5A",
"o.	c #57595A",
"p.	c #535456",
"q.	c #4D4E4D",
"r.	c #585959",
"s.	c #4D4D4E",
"t.	c #595A5A",
"u.	c #525355",
"v.	c #545655",
"w.	c #4B4C4B",
"x.	c #565758",
"y.	c #565757",
"z.	c #555756",
"A.	c #535556",
"B.	c #4F5053",
"C.	c #4E4F51",
"D.	c #58595A",
"E.	c #575959",
"F.	c #484A4A",
"G.	c #4F5050",
"H.	c #505151",
"I.	c #555655",
"J.	c #555757",
"K.	c #535455",
"L.	c #4A4A4B",
"M.	c #505251",
"N.	c #4F5151",
"O.	c #505152",
"P.	c #4E5051",
"Q.	c #4C4D4F",
"R.	c #4E4F50",
"S.	c #505252",
"T.	c #555657",
"U.	c #545556",
"V.	c #515253",
"W.	c #494A4B",
"X.	c #4C4D4D",
"Y.	c #535454",
"Z.	c #525352",
"`.	c #505150",
" +	c #4B4C4C",
".+	c #4A4B4A",
"++	c #484848",
"@+	c #515352",
"#+	c #505153",
"$+	c #484949",
"%+	c #4C4C4E",
"&+	c #5C5C5F",
"*+	c #5C5C5E",
"=+	c #4F4F50",
"-+	c #565657",
";+	c #575757",
">+	c #535353",
",+	c #565859",
"'+	c #49494B",
")+	c #626363",
"!+	c #5F6061",
"~+	c #5E5F61",
"{+	c #4F4F51",
"]+	c #5A5A5C",
"^+	c #5D5D5F",
"/+	c #5F5F61",
"(+	c #525254",
"_+	c #59595A",
":+	c #5C5C5D",
"<+	c #5C5E5F",
"[+	c #515153",
"}+	c #5E5E60",
"|+	c #535355",
"1+	c #5D5F5F",
"2+	c #4F5052",
"3+	c #605D5E",
"4+	c #5E535C",
"5+	c #52475E",
"6+	c #413877",
"7+	c #403876",
"8+	c #453E6F",
"9+	c #53505D",
"0+	c #5A5A5D",
"a+	c #A63F45",
"b+	c #BC2834",
"c+	c #A82E56",
"d+	c #703C82",
"e+	c #3F4191",
"f+	c #3E3C88",
"g+	c #463F6B",
"h+	c #5A595B",
"i+	c #606061",
"j+	c #5D5D5E",
"k+	c #6A5557",
"l+	c #843365",
"m+	c #904177",
"n+	c #873774",
"o+	c #AE2945",
"p+	c #653D86",
"q+	c #3F3D87",
"r+	c #53505B",
"s+	c #545554",
"t+	c #48426A",
"u+	c #665C95",
"v+	c #D88E97",
"w+	c #634D91",
"x+	c #5C3C85",
"y+	c #4F3F8B",
"z+	c #3F4190",
"A+	c #453E6E",
"B+	c #5B5E5D",
"C+	c #5A5D5C",
"D+	c #56555B",
"E+	c #3E3677",
"F+	c #C097A4",
"G+	c #F7CEBE",
"H+	c #DD9399",
"I+	c #654E91",
"J+	c #403A7C",
"K+	c #565559",
"L+	c #54525A",
"M+	c #3E3D89",
"N+	c #A06377",
"O+	c #F6D2C1",
"P+	c #E2B2A9",
"Q+	c #895571",
"R+	c #3C3F81",
"S+	c #3F3F8D",
"T+	c #4F4958",
"U+	c #54515A",
"V+	c #583166",
"W+	c #A9586A",
"X+	c #F4D0C0",
"Y+	c #A0727B",
"Z+	c #883855",
"`+	c #763B65",
" @	c #3E4191",
".@	c #79407A",
"+@	c #453170",
"@@	c #4E4958",
"#@	c #5C5D5E",
"$@	c #2E1843",
"%@	c #877E7F",
"&@	c #F6D5C4",
"*@	c #D5B4A7",
"=@	c #5B6065",
"-@	c #D1DFE7",
";@	c #866D94",
">@	c #434592",
",@	c #E19A9C",
"'@	c #8C4867",
")@	c #3E3478",
"!@	c #423665",
"~@	c #525354",
"{@	c #525353",
"]@	c #535059",
"^@	c #381B46",
"/@	c #D2BCBB",
"(@	c #F9D7C6",
"_@	c #F4D3C1",
":@	c #A4968F",
"<@	c #FFFAF8",
"[@	c #C895A2",
"}@	c #C698A4",
"|@	c #F4CFBF",
"1@	c #8D4D68",
"2@	c #3C255B",
"3@	c #3F2F71",
"4@	c #4A266E",
"5@	c #575361",
"6@	c #5C5B5C",
"7@	c #555357",
"8@	c #73375C",
"9@	c #E9A9A2",
"0@	c #F7D3C2",
"a@	c #F8D4C2",
"b@	c #F9D7C5",
"c@	c #F8D1C0",
"d@	c #E18D8F",
"e@	c #A96373",
"f@	c #823E63",
"g@	c #45245A",
"h@	c #3E245A",
"i@	c #4A236E",
"j@	c #492B6F",
"k@	c #515054",
"l@	c #4C4E4D",
"m@	c #413254",
"n@	c #944B67",
"o@	c #D29C9A",
"p@	c #F2C1B5",
"q@	c #E7A9A2",
"r@	c #A24A68",
"s@	c #575360",
"t@	c #5C4F6E",
"u@	c #4B2171",
"v@	c #4A2971",
"w@	c #49226D",
"x@	c #403881",
"y@	c #464061",
"z@	c #4D4F4E",
"A@	c #565858",
"B@	c #484A49",
"C@	c #4F4E51",
"D@	c #402F54",
"E@	c #61445C",
"F@	c #AD7B83",
"G@	c #B9727A",
"H@	c #B4516C",
"I@	c #835E67",
"J@	c #919191",
"K@	c #7F7E82",
"L@	c #6F76A5",
"M@	c #553F80",
"N@	c #49296A",
"O@	c #403A5E",
"P@	c #443C57",
"Q@	c #474948",
"R@	c #545657",
"S@	c #4A4B4B",
"T@	c #4D4E4F",
"U@	c #656564",
"V@	c #626265",
"W@	c #947997",
"X@	c #918A91",
"Y@	c #895C80",
"Z@	c #B15D6F",
"`@	c #737474",
" #	c #8A8A8A",
".#	c #8E718F",
"+#	c #8A6594",
"@#	c #757CB1",
"##	c #554080",
"$#	c #493B5B",
"%#	c #4F4E4E",
"&#	c #535453",
"*#	c #515152",
"=#	c #9D8B9F",
"-#	c #6C646C",
";#	c #85627A",
">#	c #B47879",
",#	c #7E7E7E",
"'#	c #878288",
")#	c #A661A9",
"!#	c #60567E",
"~#	c #6F73A7",
"{#	c #4A4256",
"]#	c #696969",
"^#	c #646566",
"/#	c #626365",
"(#	c #5F6062",
"_#	c #535354",
":#	c #6B696A",
"<#	c #BCBCBC",
"[#	c #A1A1A1",
"}#	c #9D819F",
"|#	c #845C87",
"1#	c #717273",
"2#	c #828181",
"3#	c #977299",
"4#	c #5D5177",
"5#	c #7C8ABA",
"6#	c #4C4C4D",
"7#	c #575656",
"8#	c #7B5A62",
"9#	c #BA9AA1",
"0#	c #BEBDBD",
"a#	c #A3878D",
"b#	c #A8838B",
"c#	c #A174A1",
"d#	c #98678A",
"e#	c #7B7595",
"f#	c #777A9D",
"g#	c #635F8E",
"h#	c #7C8ABB",
"i#	c #505051",
"j#	c #4D4F4F",
"k#	c #AA4B68",
"l#	c #935B6F",
"m#	c #ABA3A5",
"n#	c #C26D79",
"o#	c #CB7A7F",
"p#	c #BF727F",
"q#	c #C56476",
"r#	c #CC6D7C",
"s#	c #935583",
"t#	c #533A7E",
"u#	c #505052",
"v#	c #4C4E4E",
"w#	c #A04F66",
"x#	c #915A7A",
"y#	c #706081",
"z#	c #D57680",
"A#	c #EF9291",
"B#	c #EA8D8E",
"C#	c #8B486D",
"D#	c #584685",
"E#	c #7986B4",
"F#	c #575758",
"G#	c #6B5C5F",
"H#	c #7D7D87",
"I#	c #B3848F",
"J#	c #C38089",
"K#	c #C07983",
"L#	c #C1727F",
"M#	c #B55B6F",
"N#	c #80657C",
"O#	c #78739D",
"P#	c #666C84",
"Q#	c #5A5A5B",
"R#	c #6A5859",
"S#	c #A3A2A2",
"T#	c #AEAEAE",
"U#	c #A1A2A1",
"V#	c #9F91A1",
"W#	c #8B6D88",
"X#	c #87464F",
"Y#	c #8B797B",
"Z#	c #9C859D",
"`#	c #675968",
" $	c #6D5254",
".$	c #918788",
"+$	c #9D9A9E",
"@$	c #928293",
"#$	c #80526F",
"$$	c #97575D",
"%$	c #BE6266",
"&$	c #AA5057",
"*$	c #928183",
"=$	c #807B80",
"-$	c #5D5C5B",
";$	c #804A4F",
">$	c #865258",
",$	c #923645",
"'$	c #B65C62",
")$	c #CB6B6F",
"!$	c #CF7173",
"~$	c #E88B8B",
"{$	c #B15359",
"]$	c #8C474D",
"^$	c #4F5051",
"/$	c #6C5D5D",
"($	c #CD6E71",
"_$	c #BF6166",
":$	c #9B283A",
"<$	c #9F2436",
"[$	c #B55259",
"}$	c #9D5F61",
"|$	c #6A5152",
"1$	c #515254",
"2$	c #655F5E",
"3$	c #B16C71",
"4$	c #A7414D",
"5$	c #9F2336",
"6$	c #9C2437",
"7$	c #8D263F",
"8$	c #8F263E",
"9$	c #8F2A3F",
"0$	c #6B4D4E",
"a$	c #4B4D4C",
"b$	c #4D4E50",
"c$	c #56585A",
"d$	c #694751",
"e$	c #7B3C4B",
"f$	c #795053",
"g$	c #764E75",
"h$	c #952F49",
"i$	c #754045",
"j$	c #525454",
"k$	c #5F5D5D",
"l$	c #685458",
"m$	c #93425C",
"n$	c #992C39",
"o$	c #833E44",
"p$	c #9E2536",
"q$	c #6C4144",
"r$	c #585859",
"s$	c #654750",
"t$	c #782746",
"u$	c #7F2744",
"v$	c #614C4E",
"w$	c #63494B",
"x$	c #525253",
"y$	c #4B4D4D",
"z$	c #474848",
"A$	c #5E565B",
"B$	c #6F3C4E",
"C$	c #752847",
"D$	c #684551",
"E$	c #515353",
"F$	c #5C5D60",
"G$	c #5E605E",
"H$	c #5D5F60",
"I$	c #5C5F6C",
"J$	c #695F81",
"K$	c #752746",
"L$	c #742D48",
"M$	c #5C595C",
"N$	c #695D81",
"O$	c #733F63",
"P$	c #644D55",
"Q$	c #4F504F",
"R$	c #505253",
"S$	c #535557",
"T$	c #555759",
"U$	c #4A4C4C",
"V$	c #4B4C4D",
"W$	c #494B4B",
"X$	c #555758",
"Y$	c #595B5D",
"Z$	c #494B4A",
"`$	c #525356",
" %	c #535457",
".%	c #484948",
"+%	c #4B4B4C",
"@%	c #616163",
"#%	c #616264",
"$%	c #555557",
"%%	c #545456",
"&%	c #4D4D4F",
"*%	c #555556",
"=%	c #686868",
"-%	c #565658",
";%	c #565558",
">%	c #535254",
",%	c #57595B",
"  . + @ @ # # $ % & & * = - ; @ > , , ' ) ! ~ { { . ] ^ / ( _ : ;   < < [ } } } } { | * 1 2 3 4 5 6 7 8 9 9 9 8 2       0 a b c ",
"d e ) f # f f f g h h g i j k l l m l l d d n ) o p o q - = r s t u v m l d w > x ) g y z A B C D E B } [ [ B F [ [ [ G G H I - ",
"n ~ * * E E E J J J K L M N O ~ ~ ~ ~ | | | | * * E J P Q J R S R g & ~ | ~ | | * E E J T U V W ; X * < < < F Y Z `       2  .Q ",
"g | * * E J J J J J ..K +.@.& | | * * * * * * E E J ..#.= * $.$.y ~ | | * * * E J J J J T a V W P ~ o . } [ %.%.Y <       &.*.= ",
"% | B =.E -.J J T T ..K @.@.;.| | * [ * * * B E E J J #.= * n & | | | * * * E E J J J J T a >.,.; n ! [ [ [ %.Y Y <     ` &.I _ ",
"} '.< < <       2 2 2 U ).b !.~ * [ [ [ [ '.< E E J J #.= | g | | | * * * * J E J J J ....2 9 ~.3 + {.< [ [ Y Y Y       Z ].^./.",
"[ < < <         2 2 8 (.).b z ~ * [ [ [ [ < < _.J ....P = * g | * * * * * E E E J J ....:.8 9 <.[.}.. < < < Y Y 0 <     Z a ^.|.",
"<   < <   ` ].T &.U 1.(.).b A 2.{ [ [ [ B G ` T 1 ....3.4._.y | 5.* =.B B _._._.T T :.:.6.8 9 <. .q ] < < < Y Z Z &.&.T a 7.b |.",
"          Z Z a a a 7.7.b 8.9.. [ < < < Y Y Z &.2 2 2 [.0.T r | | [ < < <       2 2 2 8 8 9 [.a.b.% 2.<     Z Z Z a a a a a b c.",
"  2 2 2 2 H d.e.e.f.V V b W _.. < < <   ].g.d.&.2 8 8 [.h.6.% * * < < <       2 2 2 2 9 9 [.3 i.j.% k.    2 a Z Z a a 7.a 7.^.l.",
"T 1 2 8 8 1.m.1.>.n.o.^.b p.` [   < < 2 2 H &.:.8 8 8 3 q.r.& * E   <   2 2 2 8 8 8 9 9 9 [.b.h.D & * 2 8 8 1.1.7.7.7.7.V V b s.",
"t.#.8 8 8 8 8 9 9 [.[.I 8.u.U         2 2 2 8 8 8 9 9 v.w.i.J E E   < 2 2 2 2 8 8 8 9 [.3 : = ( _ ..; 8 9 n.9 9 9 V V V V V x.( ",
"Q j.y.3 3 3 3 3 z.z.z.A.B.C.D.8 1.2 :.8 8 9 8 8 9 E.z.h.F.G.P ....2 2 2 8 3.[.3 3 3 z.<.H.Q 6 / / i.I.3 3 3 3 3 J.8.8.8.8.8.K.L.",
"_ G.H.M.0.N.N.O.N.N.0.P.Q.Q.R.S.~.,.,.T.,.7 T.J.,.U.K.V.W.X.Y.: b.3 3.*.I.Z.`.h./.l.q. +.+/ 5 ++/ _ 4.@+a.a.Y.<.Y.p.W W u.#+R.$+",
"g ~ <     ].a a a 7.a L @.%+V.@.&+Y Y Y Y Y Y *+L U M @.=+|.-+;+E E J J ..P j.D >+i._ c / / 5 ++c >+7 z.3 3 ,+I b b V V b b u.'+",
"R n )+{.. !+~+%.%.%.Y Y M {+]+^+/+~+%.Y Y Y Y Y *+*+]+M (+_+:+E E E E J J J ....#.#.P : Q 6 - 5 6 ~ f {.} < <+%.a Z Z a a a ^.%+",
"$.r }.. . ~+~+%.%.%.Y ^+]+[+i 9.}+%.%.Y Y Y Y Y *+*+L M |+:+| E * E E E J J J ......#.t.3.;+: c.>+f ] 1+1+F Y Z Z Z Z a a a ^.2+",
"n q . . } ~+~+%.%.%.Y F ..= B [ [ 3+4+5+6+6+7+8+9+0+Z ]+|+^+~ E E E E E J J T 2 2 2 8 9 9 [.z.0.D r | %.%.%.Y Y Y Z Z Z 7.a ^.C.",
"g ~ 2.} } 9.~+%.%.%.Y B ..Z.[ [ < a+b+c+d+e+e+e+f+g+a h+|+i i+* E E E E J J 1 2 2 2 8 9 9 z.v.`.>+r { %.Y Y Y Y Z Z Z a a 7.,+P.",
"% ~ ~ { } } 9.%.%.%.Y j+..Z.[ [ k+l+m+n+o+p+e+e+e+q+r+M |+i & * =.< E E J J 1 2 2 1.1.n.r.C s+`.>+r i %.Y Y Y Y Z Z Z a a a ^.O.",
"~ | ~ * * [ [ 1+Y Y Y _.#.= =.< t+u+v+w+x+y+e+e+e+z+A+P >+* ~ E E < B+B+C+C+  2   1.7.f.@.: D 6 >+% i %.Y Y Y Z Z Z Z a a a I H.",
"| * * * * [ [ < Y Y Y _.#.4.=.D+E+F+G+H+I+e+e+e+e+e+J+K+>+E ~ E E <         2 8 2 1.f.V N D D 6 >+& j+Y Z Z Z Z Z a a a 7.7.).6 ",
"E | * * * [ [ < Y Y Y _.#.4.=.L+M+N+O+P+Q+R+e+e+e+e+S+T+i.J | E E <       2 2 8 8 t.V o.x.D D 6 >+& j+Y Z Z Z Z Z a a a 7.7.)._ ",
"E y { [ < Y Y Y Y Y Z ` 9 M.< U+V+W+X+Y+Z+`+ @e+.@+@S+@@@+-.| J J J J T 2 2 2 8 9 9 [.3 <.>+>+6 = & #@Z Z Z Z Z a 7.7.7.7.V x.G.",
"E y { < G Z Y Y Z Z a T 9 0.  U+$@%@&@*@=@-@;@>@,@'@)@!@~@-.| E J J J 1 2 8 8 8 8 3 v.<.{@= >+6 6 O ].a a a a a 7.a 7.V V V 8.G.",
"J E <     Z Z Z Z a a &.9 h.8 ]@^@/@(@_@:@<@[@}@|@1@2@3@4@5@E ..........2 8 8 8 9 9 n.E.<.Z.{@6 _ ~ T a a a a 7.7.V V V V V 8.G.",
"J 6@      Z Z Z a a a 2 [.h.Z.7@8@9@0@a@b@c@d@e@f@g@h@i@j@k@^ ..#.8 8 2 8 8 8 9 9 D.^.^.K.i.@+0._ ~ U 7.7.7.7.7.7.V V V ^.^.8.h.",
"..T       ].Z Z a 7.7.(.3 l@q.c.m@n@o@p@c@q@r@s@t@u@v@w@x@y@I.^ r.3 3 9 9 9 9 9 9 [.b ^.W a.@+l.( ..; V V V V V V V V ^.b b p.z@",
"s+y.A@x.3 b b b b W W U.0.B@/.Q C@D@E@F@G@H@I@J@K@L@M@N@O@P@6 = s+C 7 [.[.[.*. .3 y.8.T.U.<.0.Q@5 c.>+W U.W W W W 8.8.R@W p.C.S@",
"a.T Z Z Z Z Z Z Z a a 7.x.T@i+y U@V@W@X@Y@Z@`@ #.#+#@###$#- _ %#_ 6 = s+v.<.&#>+= Q *#Q _ - 5 ++c = ^ J * j+#@Z a 7.V ^.^.b [+5 ",
"2 [ %.%.%.%.%.Y %.Y Y Y ]+(+~ r r ! =#-#;#>#!+,#'#)#!#~#{#6 : j.;+;+ .3.[.[.*.^ ;+;+;+j.D Q  +5 D $.s R ]#n ^#/#(#~+%.Y Y Z M =+",
"[ [ %.%.%.Y Y Y %.Y Y *+]+_#i+r !.)+:#<#[#}#|#1#2#3#4#5#_ #.| ~ ~ | }.2.} . { * B E :+j+K #.y.6#7#$.e )+| 2.9.F #@Y Y #@Z Z V |.",
"} [ %.%.%.%.%.Y Y Y Z ].#.= * | | 8#9#0#a#b#c#d#e#f#g#h#i#K :+E < < -.        2 2 U 7.7.7.@.b 2+^ n }.[ [ [ [ [ < < < =.Z Z V j#",
"[ [ %.%.Y Y Y Y Z Z Z T #.Q * * * k#l#m#n#o#p#q#r#s#t#h#u#K J J -.        2 2 2 2 U 7.V V V b #+^ % } [ [ [ < < < [ < ` Z Z V v#",
"} [ F %.Y Y Y Y Z Z Z T P 6 * * * w#x#y#z#A#A#A#B#C#D#E#{+2.* J J         2 2 2 2 2 7.V V V b O.F#% { [ [ [ < < < `   ` Z Z V v#",
"=.* < < < ` ` ` Z Z a :.P 6 * * * B G#H#I#J#K#L#M#N#O#P#6 } [     Z Z ].  2 2 2 8 8 8 8 E.E.y.M.y.{.[ [ < < #@Y g.g.g.Z a a ^.X.",
"E E <   <       ].a a Q#P c.* E * =.R#S#T#U#V#W#X#Y#Z#`#_ B {   ` Z Z H   2 2 8 8 8 8 9 9 [.z.M.z.} < [ < < Y Z Z Z Z a a a V 6#",
"..6@            a a a :.^ c.* * E E  $.$+$@$#$$$%$&$*$=$_ 9     ].a a a 2 9 8 8 8 8 9 9 9 3 v.M.C } _.< < < Z Z Z Z a a a 7.V w.",
"#.........2 2 2 2 2 8 8 [.z@< [ <   -$;$>$,$'$)$!$~${$]$0.[.2 8 1.7.7.7.2 8 9 9 9 9 [.[.E.8.p.^$= | _.Z Z Z Y Z Z Z a a 7.a ^. +",
"^ #.......2 2 8 8 2 9 9 [.z@9 <   2 2 /$($_$:$<$<$[$}$|$z@[.2 8 (.7.7.>.9 [.9 9 9 9 [.[.A@p.1$R.Q ~ _.Z Z Z a Z a 7.a 7.7.7.o.X.",
"j.#.#...#.2 2 8 8 8 9 9 3 l@`.8   2 2 2$3$4$5$6$7$8$9$0$a$z.3.r.r.D.D.E.3 v.<.<.<.<.b.3 A@p.1$b$_ | :+Z Z Z a a a a a 7.7.7.c$X.",
"= ^ j.P ^ 8 8 8 8 9 3. .>+( c.b.6.:.2 2 d$e$f$g$h$<$<$i$- >+>+= = = {@= 4.G./._ _ 6 >+I.7 j$S.z@l...:.Z a a a a 7.7.7.7.V V c$ +",
"_ >+D : : b.3 3 3 v.@+Q ( c - = ;+r.9 9 8 k$l$m$n$o$p$q$/ _ Q 6 6 6 6 6 6 _ _ _ _ _ _ _ Q Z.M. +( : t.7.7.7.7.7.7.V V V V ^.8.4 ",
"b.^ r$r.^ 9 9 [.*.z.M.l.c c 6 >+D Y.Y.Y.Y.s$t$u$v$`.w$X.++ += >+>+{@{@{@x$x${@D Y.D >+i.4.0.y$4 - >+7 T.8.W 8.8.8.W W 8.p.u.#+z$",
"< 2 (.U ].0 Z ].a U 1.;+6 - *.    ` H a a A$B$C$D$o.^.I 1$E$9 9 r.D.V V V D.D.D.D.D.D.I x.W Q.W.]+i ^+F$Y Z Z Z a a a 7.7.V b $+",
"} G$H$%.Y Y Z Y Y a a _+D _ 2 < &.H a Z Z I$J$K$L$M$7.V p.~.9 9 n.7.7.7.a 7.V V 7.7.V V V Z W %+L *+*+Z Y Z Z Z a a a 7.7.7.).X.",
"} } ~+~+%.%.%.Y Z Y Z Q#;+6   <   ].Z a a N$O$L$P$a V V u.K.9 9 D.V V 7.a 7.7.7.7.7.V V (.~+^.R.^+*+*+Z Z Z Z Z a a 7.7.7.V ^.s.",
"| | %.%.%.%.%.%.Y Y 7.8 *.M.T < 2 U a a a a a 7.7.7.V V u.~@[.9 9 n.y.8 8 8 1.7.7.7.V V V j+-+/._.    Z Z Z Z Z a a a V 7.7.^.s.",
"* | %.%.%.Y Y %.Y Y (.n.A@M.    2 U a a 7.7.7.7.7.7.V V u.~@A@3 A@3 <.9 9 8 1.7.7.7.V V D.*.: /.<   ` Z Z Z Z Z a a a V 7.V b s.",
"| * %.%.%.Y Y Y Y Y 7.n.3 0.2   2 U a a a 7.7.7.7.7.V ^.1$E$3 z.,.@+M.v.9 8 1.7.7.7.V ^.I ;+C Q$<   ` Z Z Z a a a 7.7.7.V V b - ",
"{ [ [ B G #@Y Y Z Y V E.z.0.2 2 8 U a 7.7.7.7.7.V V ^.^.1$R$8.S$u.^.(.8.r.9 n.V V V V ^.^.b A.P._.  ].a a a a a 7.7.V V V V b X.",
"} [ [ [ < Y Y Y Z Z o.*.z.0.2 2 8 U a 7.7.7.7.7.V V b b #+#+8.p.^.7.7.>.[.9 n.V V V V ^.b T$p.P.<   T a a a a a 7.7.V ^.^.^.8.y$",
"} < < < < Y Y Z Z Z ^.A@v.h.8 2 8 (.7.7.V V V V V ^.b x.2+2+u.W V 7.V 1.A@9 n.V ^.^.^.b b W u.C.< 2 &.a 7.7.7.7.7.V V b ^.^.8.U$",
"} <       Z Z Z a a ^.x.v.z@9 2 8 (.V V V V V V ^.^.N 7 |.V$Q.#+^.V 7.>.b D.D.r.*.*.*.A@J.: {@_ J :.:.8 8 8 1.n.n.E.[.E.b b W W$",
"< 2       Z Z Z a a b y.<.a$3 9 [.D.D.^.^.^.b b b b T.{@/ L.C.1$W b b 8.8.8.X$z.7 v.v.~.&#= 6 - #.P t.; 9 9 9 9 [.[.[.&.8.W u.Q@",
"<     T 2 ].a a Y$Y$b J.@+Z$M.@+a.U.W p.p.p.p.u.u.1$[+- 5 V$%.%.x.p.`$p. %W U.v.Y.{@0.h.Q$_ ( / - >+;+3 3 z.z.z.z.z.z.T.x.8.8.v#",
"&#I.I.z.*.r._+Q#..:.j Q$ +.%Q$*.1 T a a a a Z a a a ]+@.x$=+_+j+].&.1.1.Q#Q#Q#(.(.y.Y.&#&#_#=++%=+% r % z q q q q & q z @%@%#%(.",
"P ....J T ..#.......P ;+= 5 ^ ....U a a a Z a a a 7.]+M (+=+P J -.  2 2 ....:.7.7.t.j.: : $%%%&%P ]#~ * E E E E E E E E *+*+L |+",
"..E J J J J ........#.#.^ Q #.....].Z Z Z a a a a a a 7.|+*#E J         ..#.Q#a 7.1.^ *%*%$%$%x$E $.| E E E E E J J J J L L M (+",
"            T 2 U U 7.V @.V.r.2 1   ` &.&.&.&.&.U m.]+]+%%_#@ [           1 2 &.1.(.N 8.$%$%$%_#* $.| E E E < < <       K ..#.= ",
"              2 U a 7.V ^.V.I #   <   2 2 2 2 2 2 8 (.7.%%K.@ [ <         2 2 2 8 t.V 8.8.$%$%(+* =%| E E E < < <       ..#.P = ",
"        2 2 2 2 m.V V ^.^.#+E.{.    2 2 2 2 2 2 2 2 D.M %%C {.[           2 2 2 8 8 f.b W -%;%>%* =%| E E E < < <     2 J #.P = ",
"8   2 2   &.U U 7.7.V V b 2+r${ T 2 2 2 2 2 2 2 m.1.V V p.j$<           ].U U m.1.(.V b 8.-%-%_#* =%| E E E -.-.-.    2 K U _+i#",
"8   2 2   H a a 7.7.V ^.b 2+r$....2 2 2 2 2 2 :.7.7.>.,%u.K.<           Z a a 7.7.(.V b 8.-%-%_#* =%| E E E J J J     2 a a M i#"};
