/* XPM */
static char * left_1_xpm[] = {
"64 64 656 2",
"  	c #5B5D5C",
". 	c #5F6160",
"+ 	c #616362",
"@ 	c #626463",
"# 	c #636564",
"$ 	c #626362",
"% 	c #626262",
"& 	c #616161",
"* 	c #5E5E5E",
"= 	c #525252",
"- 	c #4D4D4D",
"; 	c #595A59",
"> 	c #666867",
", 	c #696B6A",
"' 	c #676968",
") 	c #656666",
"! 	c #636464",
"~ 	c #606060",
"{ 	c #5E5F5F",
"] 	c #606161",
"^ 	c #585858",
"/ 	c #4A4A4A",
"( 	c #4C4C4C",
"_ 	c #4F4F4F",
": 	c #555555",
"< 	c #5C5E5D",
"[ 	c #5D5F5E",
"} 	c #5E605F",
"| 	c #5F5F5F",
"1 	c #5B5C5B",
"2 	c #5A5C5B",
"3 	c #565857",
"4 	c #494A4A",
"5 	c #494949",
"6 	c #505050",
"7 	c #555656",
"8 	c #595B5A",
"9 	c #585A59",
"0 	c #5B5D5E",
"a 	c #5A5B5D",
"b 	c #565759",
"c 	c #4B4B4B",
"d 	c #686969",
"e 	c #676868",
"f 	c #646565",
"g 	c #656565",
"h 	c #666666",
"i 	c #5E5E5F",
"j 	c #545455",
"k 	c #696A69",
"l 	c #696A6A",
"m 	c #6A6B6A",
"n 	c #676767",
"o 	c #656665",
"p 	c #646564",
"q 	c #616261",
"r 	c #636363",
"s 	c #6C6C6C",
"t 	c #6D6E6D",
"u 	c #6C6D6D",
"v 	c #6B6C6B",
"w 	c #686968",
"x 	c #656766",
"y 	c #646464",
"z 	c #616262",
"A 	c #606162",
"B 	c #5D5E5E",
"C 	c #545555",
"D 	c #545454",
"E 	c #5D5D5D",
"F 	c #5D5E5F",
"G 	c #5C5E5E",
"H 	c #5A5C5D",
"I 	c #575859",
"J 	c #5C5C5C",
"K 	c #5B5B5C",
"L 	c #5B5B5D",
"M 	c #59595B",
"N 	c #575759",
"O 	c #5F5F60",
"P 	c #595959",
"Q 	c #515151",
"R 	c #6B6B6B",
"S 	c #6D6D6D",
"T 	c #5B5C5C",
"U 	c #5A5B5C",
"V 	c #58595B",
"W 	c #545557",
"X 	c #5E5E5D",
"Y 	c #5C5D5F",
"Z 	c #5B5C5E",
"` 	c #5B5D5D",
" .	c #575857",
"..	c #5B5B5B",
"+.	c #58585B",
"@.	c #58585A",
"#.	c #5A5A5A",
"$.	c #6A6A6A",
"%.	c #5D5E60",
"&.	c #5A5C5C",
"*.	c #575858",
"=.	c #5D5E5D",
"-.	c #5C5D5C",
";.	c #626263",
">.	c #585A5B",
",.	c #545656",
"'.	c #5C5F5E",
").	c #56575A",
"!.	c #636364",
"~.	c #535555",
"{.	c #606261",
"].	c #5B5C5D",
"^.	c #57585A",
"/.	c #4E4F4F",
"(.	c #595A5B",
"_.	c #5C5D5D",
":.	c #5A5B5B",
"<.	c #535554",
"[.	c #575958",
"}.	c #606160",
"|.	c #4E4E4F",
"1.	c #595B5B",
"2.	c #5F6060",
"3.	c #585958",
"4.	c #515251",
"5.	c #5E5F5E",
"6.	c #5A5B5A",
"7.	c #595A5C",
"8.	c #555658",
"9.	c #5E5F60",
"0.	c #4F5150",
"a.	c #525453",
"b.	c #565756",
"c.	c #4E4E4E",
"d.	c #5A5B5E",
"e.	c #595A5D",
"f.	c #58595C",
"g.	c #5B5C5F",
"h.	c #4E504F",
"i.	c #515252",
"j.	c #565656",
"k.	c #5F605F",
"l.	c #4D4E4E",
"m.	c #595B5C",
"n.	c #585A5A",
"o.	c #57595A",
"p.	c #535456",
"q.	c #4D4E4D",
"r.	c #585959",
"s.	c #4D4D4E",
"t.	c #595A5A",
"u.	c #525355",
"v.	c #545655",
"w.	c #4B4C4B",
"x.	c #565758",
"y.	c #565757",
"z.	c #555756",
"A.	c #535556",
"B.	c #4F5053",
"C.	c #4E4F51",
"D.	c #58595A",
"E.	c #575959",
"F.	c #484A4A",
"G.	c #4F5050",
"H.	c #505151",
"I.	c #555655",
"J.	c #555757",
"K.	c #535455",
"L.	c #4A4A4B",
"M.	c #505251",
"N.	c #4F5151",
"O.	c #505152",
"P.	c #4E5051",
"Q.	c #4C4D4F",
"R.	c #4E4F50",
"S.	c #505252",
"T.	c #555657",
"U.	c #545556",
"V.	c #515253",
"W.	c #494A4B",
"X.	c #4C4D4D",
"Y.	c #535454",
"Z.	c #525352",
"`.	c #505150",
" +	c #4B4C4C",
".+	c #4A4B4A",
"++	c #484848",
"@+	c #515352",
"#+	c #505153",
"$+	c #484949",
"%+	c #4C4C4E",
"&+	c #5C5C5F",
"*+	c #5C5C5E",
"=+	c #4F4F50",
"-+	c #565657",
";+	c #575757",
">+	c #535353",
",+	c #565859",
"'+	c #49494B",
")+	c #626363",
"!+	c #5F6061",
"~+	c #5E5F61",
"{+	c #4F4F51",
"]+	c #5A5A5C",
"^+	c #5D5D5F",
"/+	c #5F5F61",
"(+	c #525254",
"_+	c #59595A",
":+	c #5C5C5D",
"<+	c #5C5E5F",
"[+	c #515153",
"}+	c #5E5E60",
"|+	c #535355",
"1+	c #645B5C",
"2+	c #68585A",
"3+	c #61565D",
"4+	c #463863",
"5+	c #413465",
"6+	c #433864",
"7+	c #565560",
"8+	c #59585B",
"9+	c #5D5F5F",
"0+	c #4F5052",
"a+	c #5E5D5D",
"b+	c #95484D",
"c+	c #B1323F",
"d+	c #963564",
"e+	c #673C83",
"f+	c #44408E",
"g+	c #3F408F",
"h+	c #413F88",
"i+	c #443A64",
"j+	c #57575A",
"k+	c #5C5D5E",
"l+	c #5A595B",
"m+	c #606061",
"n+	c #5F5A60",
"o+	c #A94457",
"p+	c #AE3154",
"q+	c #AA2E55",
"r+	c #AC2C4F",
"s+	c #5E3D87",
"t+	c #404191",
"u+	c #3F4191",
"v+	c #41408A",
"w+	c #4C4660",
"x+	c #5D5D5E",
"y+	c #55507A",
"z+	c #B67E93",
"A+	c #7F5B91",
"B+	c #4E428E",
"C+	c #743878",
"D+	c #6E397B",
"E+	c #44408F",
"F+	c #44407A",
"G+	c #565659",
"H+	c #545554",
"I+	c #5B4983",
"J+	c #DEA6A5",
"K+	c #C994A0",
"L+	c #745993",
"M+	c #454291",
"N+	c #4C455F",
"O+	c #784873",
"P+	c #C97D87",
"Q+	c #F2CABB",
"R+	c #B78396",
"S+	c #564891",
"T+	c #3E4191",
"U+	c #3F3F8D",
"V+	c #454074",
"W+	c #4B3D66",
"X+	c #703A5F",
"Y+	c #E9C7B8",
"Z+	c #C08B8D",
"`+	c #5C4581",
" @	c #393B89",
".@	c #3F4190",
"+@	c #424191",
"@@	c #55418D",
"#@	c #553F89",
"$@	c #454076",
"%@	c #443448",
"&@	c #996F7A",
"*@	c #EDCBBB",
"=@	c #D9AFA6",
"-@	c #654A52",
";@	c #8C8DA4",
">@	c #454892",
",@	c #4C4390",
"'@	c #925887",
")@	c #9D657F",
"!@	c #413D87",
"~@	c #43407B",
"{@	c #505054",
"]@	c #5A585C",
"^@	c #362E41",
"/@	c #BEB0B2",
"(@	c #F3D4C5",
"_@	c #F3D1C0",
":@	c #8C7C74",
"<@	c #EBECEF",
"[@	c #8279A2",
"}@	c #7E6094",
"|@	c #CE9FA6",
"1@	c #CE9D9C",
"2@	c #413673",
"3@	c #403F88",
"4@	c #483B58",
"5@	c #514E57",
"6@	c #585A5C",
"7@	c #504959",
"8@	c #5C2E4C",
"9@	c #E0B4B2",
"0@	c #F8D5C5",
"a@	c #F7D5C4",
"b@	c #D4B8AA",
"c@	c #F5E7E2",
"d@	c #C297A3",
"e@	c #B1718C",
"f@	c #CEAAA3",
"g@	c #AC8286",
"h@	c #3F2C62",
"i@	c #413A82",
"j@	c #493066",
"k@	c #504A5C",
"l@	c #525353",
"m@	c #5C5B5C",
"n@	c #4D4F4E",
"o@	c #4F4758",
"p@	c #6E365C",
"q@	c #D99795",
"r@	c #F5C7B8",
"s@	c #F9D4C3",
"t@	c #FBD8C6",
"u@	c #F5C9BA",
"v@	c #C87481",
"w@	c #A15069",
"x@	c #5E3F5A",
"y@	c #441C5A",
"z@	c #40255F",
"A@	c #472F73",
"B@	c #4C3470",
"C@	c #4E4C53",
"D@	c #4C4E4D",
"E@	c #4B4D4C",
"F@	c #514D57",
"G@	c #3E2D56",
"H@	c #9C546B",
"I@	c #C2908D",
"J@	c #D7A8A0",
"K@	c #E1AEA6",
"L@	c #D69494",
"M@	c #A05C6B",
"N@	c #957C82",
"O@	c #6F6C72",
"P@	c #49246B",
"Q@	c #461F6A",
"R@	c #492D7C",
"S@	c #453A7D",
"T@	c #4A4453",
"U@	c #565858",
"V@	c #484A49",
"W@	c #4B4B4C",
"X@	c #4A4B4B",
"Y@	c #494A49",
"Z@	c #474948",
"`@	c #454746",
" #	c #515152",
".#	c #453855",
"+#	c #643E6B",
"@#	c #756470",
"##	c #9F6F86",
"$#	c #A95C70",
"%#	c #AE6170",
"&#	c #9C9294",
"*#	c #939494",
"=#	c #77777D",
"-#	c #63608F",
";#	c #615A94",
">#	c #46307F",
",#	c #42417F",
"'#	c #4E4B53",
")#	c #545657",
"!#	c #4D4E4F",
"~#	c #656564",
"{#	c #646566",
"]#	c #636465",
"^#	c #616264",
"/#	c #5F6062",
"(#	c #464746",
"_#	c #4F4E4E",
":#	c #4D4A54",
"<#	c #825684",
"[#	c #786D78",
"}#	c #857585",
"|#	c #845F68",
"1#	c #916C6C",
"2#	c #9A9999",
"3#	c #8F8F8E",
"4#	c #7A777D",
"5#	c #83729F",
"6#	c #7074AB",
"7#	c #574B88",
"8#	c #473D6B",
"9#	c #4D4C4D",
"0#	c #626365",
"a#	c #646465",
"b#	c #6B4F55",
"c#	c #8C4F5F",
"d#	c #934E61",
"e#	c #7A565E",
"f#	c #755C73",
"g#	c #999699",
"h#	c #929292",
"i#	c #918B8C",
"j#	c #795A77",
"k#	c #7A787C",
"l#	c #989898",
"m#	c #888288",
"n#	c #926898",
"o#	c #686894",
"p#	c #6E73A4",
"q#	c #50485B",
"r#	c #696969",
"s#	c #535354",
"t#	c #626465",
"u#	c #626364",
"v#	c #616263",
"w#	c #606062",
"x#	c #5D5F60",
"y#	c #855360",
"z#	c #AB4B68",
"A#	c #B14868",
"B#	c #836691",
"C#	c #61626B",
"D#	c #ACACAC",
"E#	c #A9A9A9",
"F#	c #959696",
"G#	c #7A677F",
"H#	c #65666A",
"I#	c #838484",
"J#	c #8F8A8F",
"K#	c #936F96",
"L#	c #626181",
"M#	c #7985B3",
"N#	c #5A595D",
"O#	c #4C4C4D",
"P#	c #575656",
"Q#	c #505051",
"R#	c #895362",
"S#	c #AB4A68",
"T#	c #9C5D8B",
"U#	c #706E9A",
"V#	c #898B91",
"W#	c #888787",
"X#	c #A9707A",
"Y#	c #AE6A76",
"Z#	c #8E576F",
"`#	c #926984",
" $	c #8186A2",
".$	c #716175",
"+$	c #5C5184",
"@$	c #7A87B4",
"#$	c #4D4F4F",
"$$	c #505052",
"%$	c #75575F",
"&$	c #9C4F65",
"*$	c #AF4969",
"=$	c #B04A6C",
"-$	c #995F90",
";$	c #7A4E65",
">$	c #8D5061",
",$	c #D77B82",
"'$	c #D87A81",
")$	c #C86F7F",
"!$	c #D8828F",
"~$	c #BB7C93",
"{$	c #7F6688",
"]$	c #5A4887",
"^$	c #7A86B4",
"/$	c #4C4E4E",
"($	c #625F60",
"_$	c #715B60",
":$	c #7B5760",
"<$	c #8A5361",
"[$	c #A7919A",
"}$	c #A3979B",
"|$	c #927077",
"1$	c #DB8186",
"2$	c #E98C8E",
"3$	c #E88B8D",
"4$	c #EE9191",
"5$	c #E1878A",
"6$	c #8E5777",
"7$	c #575758",
"8$	c #8F8B8C",
"9$	c #A0A0A0",
"0$	c #A6A6A6",
"a$	c #9E7B9D",
"b$	c #A86D89",
"c$	c #BD6E7A",
"d$	c #D0727E",
"e$	c #D1727E",
"f$	c #CA727D",
"g$	c #896F7C",
"h$	c #67678F",
"i$	c #676E85",
"j$	c #5A5A5B",
"k$	c #776668",
"l$	c #797676",
"m$	c #817173",
"n$	c #865266",
"o$	c #934156",
"p$	c #8D3849",
"q$	c #8C515A",
"r$	c #977379",
"s$	c #A5878F",
"t$	c #90798D",
"u$	c #705C67",
"v$	c #645457",
"w$	c #873F48",
"x$	c #8D3340",
"y$	c #862939",
"z$	c #9A2636",
"A$	c #8E2336",
"B$	c #7E3D46",
"C$	c #766F71",
"D$	c #81717D",
"E$	c #82566D",
"F$	c #85343F",
"G$	c #794B4E",
"H$	c #5B5A5A",
"I$	c #6F4F54",
"J$	c #922F3D",
"K$	c #8A2236",
"L$	c #952336",
"M$	c #9A2939",
"N$	c #892C3D",
"O$	c #80404B",
"P$	c #913F4D",
"Q$	c #942C40",
"R$	c #83283B",
"S$	c #6C454F",
"T$	c #585859",
"U$	c #4F5051",
"V$	c #5B595B",
"W$	c #675659",
"X$	c #B0585E",
"Y$	c #BC5C61",
"Z$	c #DF8284",
"`$	c #C46E74",
" %	c #7F4C72",
".%	c #864A72",
"+%	c #852B44",
"@%	c #762A46",
"#%	c #732E49",
"$%	c #69424F",
"%%	c #515254",
"&%	c #5A595A",
"*%	c #7F5154",
"=%	c #865154",
"-%	c #A44252",
";%	c #A03E55",
">%	c #74588A",
",%	c #705B8A",
"'%	c #6B4B56",
")%	c #6F3F51",
"!%	c #752B4B",
"~%	c #6E3A4C",
"{%	c #4D4E50",
"]%	c #56585A",
"^%	c #595B59",
"/%	c #5B5657",
"(%	c #665B60",
"_%	c #7371AB",
":%	c #7372AD",
"<%	c #6D5B89",
"[%	c #5A5B71",
"}%	c #5A575E",
"|%	c #685D7B",
"1%	c #734A75",
"2%	c #6D394B",
"3%	c #525454",
"4%	c #575957",
"5%	c #564F50",
"6%	c #96313D",
"7%	c #9D2E46",
"8%	c #95354A",
"9%	c #584F54",
"0%	c #52535B",
"a%	c #5F6288",
"b%	c #6C5A87",
"c%	c #663F4C",
"d%	c #575253",
"e%	c #96303C",
"f%	c #9D2737",
"g%	c #814045",
"h%	c #585353",
"i%	c #545457",
"j%	c #535356",
"k%	c #525151",
"l%	c #4B4D4D",
"m%	c #474848",
"n%	c #515353",
"o%	c #585B61",
"p%	c #5E5C61",
"q%	c #86464C",
"r%	c #9B2B3A",
"s%	c #82444B",
"t%	c #5B5859",
"u%	c #5C5D60",
"v%	c #5E605E",
"w%	c #6A5E75",
"x%	c #6B627C",
"y%	c #923B49",
"z%	c #9C2939",
"A%	c #7D484E",
"B%	c #5B585A",
"C%	c #5A585B",
"D%	c #8E3A44",
"E%	c #8A537B",
"F%	c #983447",
"G%	c #96313E",
"H%	c #61575A",
"I%	c #525354",
"J%	c #685152",
"K%	c #784D50",
"L%	c #7A4B4E",
"M%	c #794C4F",
"N%	c #5C5A5A",
"O%	c #4F504F",
"P%	c #505253",
"Q%	c #535557",
"R%	c #555759",
"S%	c #4A4C4C",
"T%	c #4B4C4D",
"U%	c #494B4B",
"V%	c #555758",
"W%	c #535453",
"X%	c #595B5D",
"Y%	c #494B4A",
"Z%	c #525356",
"`%	c #535457",
" &	c #484948",
".&	c #525253",
"+&	c #616163",
"@&	c #555557",
"#&	c #545456",
"$&	c #4D4D4F",
"%&	c #555556",
"&&	c #686868",
"*&	c #565658",
"=&	c #565558",
"-&	c #535254",
";&	c #57595B",
"  . + @ @ # # $ % & & * = - ; @ > , , ' ) ! ~ { { . ] ^ / ( _ : ;   < < [ } } } } { | * 1 2 3 4 5 6 7 8 9 9 9 8 2       0 a b c ",
"d e ) f # f f f g h h g i j k l l m l l d d n ) o p o q - = r s t u v m l d w > x ) g y z A B C D E B } [ [ B F [ [ [ G G H I - ",
"n ~ * * E E E J J J K L M N O ~ ~ ~ ~ | | | | * * E J P Q J R S R g & ~ | ~ | | * E E J T U V W ; X * < < < F Y Z `       2  .Q ",
"g | * * E J J J J J ..K +.@.& | | * * * * * * E E J ..#.= * $.$.y ~ | | * * * E J J J J T a V W P ~ o . } [ %.%.Y <       &.*.= ",
"% | B =.E -.J J T T ..K @.@.;.| | * [ * * * B E E J J #.= * n & | | | * * * E E J J J J T a >.,.; n ! [ [ [ %.Y Y <     ` &.I _ ",
"} '.< < <       2 2 2 U ).b !.~ * [ [ [ [ '.< E E J J #.= | g | | | * * * * J E J J J ....2 9 ~.3 + {.< [ [ Y Y Y       Z ].^./.",
"[ < < <         2 2 8 (.).b z ~ * [ [ [ [ < < _.J ....P = * g | * * * * * E E E J J ....:.8 9 <.[.}.. < < < Y Y 0 <     Z a ^.|.",
"<   < <   ` ].T &.U 1.(.).b A 2.{ [ [ [ B G ` T 1 ....3.4._.y | 5.* =.B B _._._.T T :.:.6.8 9 <. .q ] < < < Y Z Z &.&.T a 7.b |.",
"          Z Z a a a 7.7.b 8.9.. [ < < < Y Y Z &.2 2 2 [.0.T r | | [ < < <       2 2 2 8 8 9 [.a.b.% 2.<     Z Z Z a a a a a b c.",
"  2 2 2 2 H d.e.e.f.V V b W _.. < < <   ].g.d.&.2 8 8 [.h.6.% * * < < <       2 2 2 2 9 9 [.3 i.j.% k.    2 a Z Z a a 7.a 7.^.l.",
"T 1 2 8 8 1.m.1.>.n.o.^.b p.` [   < < 2 2 H &.:.8 8 8 3 q.r.& * E   <   2 2 2 8 8 8 9 9 9 [.b.h.D & * 2 8 8 1.1.7.7.7.7.V V b s.",
"t.#.8 8 8 8 8 9 9 [.[.I 8.u.U         2 2 2 8 8 8 9 9 v.w.i.J E E   < 2 2 2 2 8 8 8 9 [.3 : = ( _ ..; 8 9 n.9 9 9 V V V V V x.( ",
"Q j.y.3 3 3 3 3 z.z.z.A.B.C.D.8 1.2 :.8 8 9 8 8 9 E.z.h.F.G.P ....2 2 2 8 3.[.3 3 3 z.<.H.Q 6 / / i.I.3 3 3 3 3 J.8.8.8.8.8.K.L.",
"_ G.H.M.0.N.N.O.N.N.0.P.Q.Q.R.S.~.,.,.T.,.7 T.J.,.U.K.V.W.X.Y.: b.3 3.*.I.Z.`.h./.l.q. +.+/ 5 ++/ _ 4.@+a.a.Y.<.Y.p.W W u.#+R.$+",
"g ~ <     ].a a a 7.a L @.%+V.@.&+Y Y Y Y Y Y *+L U M @.=+|.-+;+E E J J ..P j.D >+i._ c / / 5 ++c >+7 z.3 3 ,+I b b V V b b u.'+",
"R n )+{.. !+~+%.%.%.Y Y M {+]+^+/+~+%.Y Y Y Y Y *+*+]+M (+_+:+E E E E J J J ....#.#.P : Q 6 - 5 6 ~ f {.} < <+%.a Z Z a a a ^.%+",
"$.r }.. . ~+~+%.%.%.Y ^+]+[+i 9.}+%.%.Y Y Y Y Y *+*+L M |+:+| E * 1+2+3+4+5+5+6+7+8+#.t.3.;+: c.>+f ] 9+9+F Y Z Z Z Z a a a ^.0+",
"n q . . } ~+~+%.%.%.Y F ..= B [ [ F %.Y Y Y Z Z Z a Z ]+|+^+~ E a+b+c+d+e+f+g+g+h+i+j+9 9 [.z.0.D r | %.%.%.Y Y Y Z Z Z 7.a ^.C.",
"g ~ 2.} } 9.~+%.%.%.Y B ..Z.[ [ < k+Y Y Y Y Z Z Z a a l+|+i m+* n+o+p+q+r+s+t+u+u+v+w+9 9 z.v.`.>+r { %.Y Y Y Y Z Z Z a a 7.,+P.",
"% ~ ~ { } } 9.%.%.%.Y x+..Z.[ [ < G Y Y Y Y Z Z Z a U M |+i & * y+z+A+B+C+D+E+u+u+g+F+G+r.C H+`.>+r i %.Y Y Y Y Z Z Z a a a ^.O.",
"~ | ~ * * [ [ 9+Y Y Y _.#.= =.< < < < <       &.2 2 :.P >+* ~ E I+J+K+L+M+t+u+u+u+u+v+N+@.: D 6 >+% i %.Y Y Y Z Z Z Z a a a I H.",
"| * * * * [ [ < Y Y Y _.#.4.=.< < <         2 2 2 8 6.P >+E ~ E O+P+Q+R+S+u+u+u+T+T+U+V+N D D 6 >+& x+Y Z Z Z Z Z a a a 7.7.).6 ",
"E | * * * [ [ < Y Y Y _.#.4.=.< <           &.2 2 8 8 P i.J | E W+X+Y+Z+`+ @.@+@@@#@U+$@x.D D 6 >+& x+Y Z Z Z Z Z a a a 7.7.)._ ",
"E y { [ < Y Y Y Y Y Z ` 9 M.<   2 2 2 2 a a a 1.8 8 8 [.@+-.| J %@&@*@=@-@;@>@,@'@)@!@~@{@>+>+6 = & k+Z Z Z Z Z a 7.7.7.7.V x.G.",
"E y { < G Z Y Y Z Z a T 9 0.    2 8 8 2 U e.a 1.8 8 9 [.a.-.| ]@^@/@(@_@:@<@[@}@|@1@2@3@4@5@>+6 6 O ].a a a a a 7.a 7.V V V 8.G.",
"J E <     Z Z Z Z a a &.9 h.8 2 1 8 8 9 8 6@>.r.[.9 9 3 M.:.E 7@8@9@0@a@b@c@d@e@f@g@h@i@j@k@l@6 _ ~ T a a a a 7.7.V V V V V 8.G.",
"J m@      Z Z Z a a a 2 [.h.Z.;+3.3.[.[.[.;+;+j.: : I.a.n@H+^ o@p@q@r@s@t@u@v@w@x@y@z@A@B@C@@+0._ ~ U 7.7.7.7.7.7.V V V ^.^.8.h.",
"..T       ].Z Z a 7.7.(.3 D@q.c.6 H.M.@+4.Q >+D >+Q 0.D@E@4.I.F@G@H@I@J@K@L@M@N@O@P@Q@R@S@T@@+l.( ..; V V V V V V V V ^.b b p.n@",
"H+y.U@x.3 b b b b W W U.0.V@/.Q Q G.G.h./.s. +W@w.X@Y@Z@`@- 6  #.#+#@###$#%#&#*#=#-#;#>#,#'#0.Z@5 c.>+W U.W W W W 8.8.)#W p.C.X@",
"a.T Z Z Z Z Z Z Z a a 7.x.!#m+y ~#{#{#]#^#/#7.b W K.=+w.(#- _ _#:#<#[#}#|#1#2#3#4#5#6#7#8#9#5 ++c = ^ J * x+k+Z a 7.V ^.^.b [+5 ",
"2 [ %.%.%.%.%.Y %.Y Y Y ]+(+~ r r ]#0#0#0#0#^#^#0#{#a#../ b#c#d#e#f#g#h#i#j#k#l#m#n#o#p#q#Q  +5 D $.s R r#n {#0#/#~+%.Y Y Z M =+",
"[ [ %.%.%.Y Y Y %.Y Y *+]+s#m+r !.]#t#0#u#v#w#/#9.x#B #._ y#z#A#B#C#D#E#F#G#H#I#J#K#L#M#N##.y.O#P#$.e )+| 2.9.F k+Y Y k+Z Z V |.",
"} [ %.%.%.%.%.Y Y Y Z ].#.= * | | { { [ B < _.`     ].]+Q#R#S#A#T#U#V#W#X#Y#Z#`# $.$+$@$7.@.b 0+^ n }.[ [ [ [ [ < < < =.Z Z V #$",
"[ [ %.%.Y Y Y Y Z Z Z T #.Q * * * [ [ < < <       2 ].]+$$%$&$*$=$-$;$>$,$'$)$!$~${$]$^$V V b #+^ % } [ [ [ < < < [ < ` Z Z V /$",
"} [ F %.Y Y Y Y Z Z Z T P 6 * * * * [ < < <       &.].M {+($_$:$<$[$}$|$1$2$3$4$5$6$]$^$V V b O.7$% { [ [ [ < < < `   ` Z Z V /$",
"=.* < < < ` ` ` Z Z a :.P 6 * * * B < < < <   ` Z a K P 6 } [   8$9$0$a$b$c$d$e$f$g$h$i$E.E.y.M.y.{.[ [ < < k+Y g.g.g.Z a a ^.X.",
"E E <   <       ].a a j$P c.* E * =.< < < <   &.a a U *._ B {   k$l$m$n$o$p$q$r$s$t$u$a 9 [.z.M.z.} < [ < < Y Z Z Z Z a a a V O#",
"..m@            a a a :.^ c.* * E E <     T   &.a 7.(.;+_ 9     v$w$x$y$z$A$B$C$D$E$F$G$9 3 v.M.C } _.< < < Z Z Z Z a a a 7.V w.",
"#.........2 2 2 2 2 8 8 [.n@< [ <       ].a a a 7.V n.3 0.[.2 8 H$I$J$K$L$M$N$O$P$Q$R$S$T$8.p.U$= | _.Z Z Z Y Z Z Z a a 7.a ^. +",
"^ #.......2 2 8 8 2 9 9 [.n@9 <   2 2 2 U 7.a 7.V V n.3 n@[.2 8 (.V$W$X$Y$Z$`$ %.%+%@%#%$%p.%%R.Q ~ _.Z Z Z a Z a 7.a 7.7.7.o.X.",
"j.#.#...#.2 2 8 8 8 9 9 3 D@`.8   2 2 2 1.7.7.7.V V I <.E@z.3.r.r.D.&%*%=%-%;%>%,%'%)%!%~%p.%%{%_ | :+Z Z Z a a a a a 7.7.7.]%X.",
"= ^ j.P ^ 8 8 8 8 9 3. .>+( c.b.6.:.2 2 2 8 9 ^%[.U@a.( - >+>+= = = l@/%(%_%:%<%[%}%|%1%2%3%S.n@l...:.Z a a a a 7.7.7.7.V V ]% +",
"_ >+D : : b.3 3 3 v.@+Q ( c - = ;+r.9 9 9 9 [.4%z.@+E@5 / _ Q 6 6 6 6 5%6%7%8%9%$$0%a%b%c%Z.M. +( : t.7.7.7.7.7.7.V V V V ^.8.4 ",
"b.^ T$r.^ 9 9 [.*.z.M.l.c c 6 >+D Y.Y.Y.Y.3%l@@+M.0./.X.++ += >+>+l@l@d%e%f%g%h%Y.j i%j%k%0.l%4 - >+7 T.8.W 8.8.8.W W 8.p.u.#+m%",
"< 2 (.U ].0 Z ].a U 1.;+6 - *.    ` H a a a 7.V D.o.^.I %%n%9 9 r.D.o%p%q%r%s%t%D.D.D.I x.W Q.W.]+i ^+u%Y Z Z Z a a a 7.7.V b $+",
"} v%x#%.Y Y Z Y Y a a _+D _ 2 < &.H a Z Z a a 7.7.a 7.V p.~.9 9 n.e.w%x%y%z%A%B%7.7.V V V Z W %+L *+*+Z Y Z Z Z a a a 7.7.7.).X.",
"} } ~+~+%.%.%.Y Z Y Z j$;+6   <   ].Z a a a a 7.7.a V V u.K.9 9 D.C%D%E%F%G%H%7.7.7.V V (.~+^.R.^+*+*+Z Z Z Z Z a a 7.7.7.V ^.s.",
"| | %.%.%.%.%.%.Y Y 7.8 *.M.T < 2 U a a a a a 7.7.7.V V u.I%[.9 9 n.J%K%L%M%N%7.7.7.V V V x+-+/._.    Z Z Z Z Z a a a V 7.7.^.s.",
"* | %.%.%.Y Y %.Y Y (.n.U@M.    2 U a a 7.7.7.7.7.7.V V u.I%U@3 U@3 <.9 9 8 1.7.7.7.V V D.*.: /.<   ` Z Z Z Z Z a a a V 7.V b s.",
"| * %.%.%.Y Y Y Y Y 7.n.3 0.2   2 U a a a 7.7.7.7.7.V ^.%%n%3 z.,.@+M.v.9 8 1.7.7.7.V ^.I ;+C O%<   ` Z Z Z a a a 7.7.7.V V b - ",
"{ [ [ B G k+Y Y Z Y V E.z.0.2 2 8 U a 7.7.7.7.7.V V ^.^.%%P%8.Q%u.^.(.8.r.9 n.V V V V ^.^.b A.P._.  ].a a a a a 7.7.V V V V b X.",
"} [ [ [ < Y Y Y Z Z o.*.z.0.2 2 8 U a 7.7.7.7.7.V V b b #+#+8.p.^.7.7.>.[.9 n.V V V V ^.b R%p.P.<   T a a a a a 7.7.V ^.^.^.8.l%",
"} < < < < Y Y Z Z Z ^.U@v.h.8 2 8 (.7.7.V V V V V ^.b x.0+0+u.W V 7.V 1.U@9 n.V ^.^.^.b b W u.C.< 2 &.a 7.7.7.7.7.V V b ^.^.8.S%",
"} <       Z Z Z a a ^.x.v.n@9 2 8 (.V V V V V V ^.^.N 7 |.T%Q.#+^.V 7.>.b D.D.r.*.*.*.U@J.: l@_ J :.:.8 8 8 1.n.n.E.[.E.b b W U%",
"< 2       Z Z Z a a b y.<.E@3 9 [.D.D.^.^.^.b b b b T.l@/ L.C.%%W b b 8.8.8.V%z.7 v.v.~.W%= 6 - #.P t.; 9 9 9 9 [.[.[.&.8.W u.Z@",
"<     T 2 ].a a X%X%b J.@+Y%M.@+a.U.W p.p.p.p.u.u.%%[+- 5 T%%.%.x.p.Z%p.`%W U.v.Y.l@0.h.O%_ ( / - >+;+3 3 z.z.z.z.z.z.T.x.8.8./$",
"W%I.I.z.*.r._+j$..:.j O% + &O%*.1 T a a a a Z a a a ]+@..&=+_+x+].&.1.1.j$j$j$(.(.y.Y.W%W%s#=+W@=+% r % z q q q q & q z +&+&^#(.",
"P ....J T ..#.......P ;+= 5 ^ ....U a a a Z a a a 7.]+M (+=+P J -.  2 2 ....:.7.7.t.j.: : @&#&$&P r#~ * E E E E E E E E *+*+L |+",
"..E J J J J ........#.#.^ Q #.....].Z Z Z a a a a a a 7.|+ #E J         ..#.j$a 7.1.^ %&%&@&@&.&E $.| E E E E E J J J J L L M (+",
"            T 2 U U 7.V @.V.r.2 1   ` &.&.&.&.&.U m.]+]+#&s#@ [           1 2 &.1.(.N 8.@&@&@&s#* $.| E E E < < <       K ..#.= ",
"              2 U a 7.V ^.V.I #   <   2 2 2 2 2 2 8 (.7.#&K.@ [ <         2 2 2 8 t.V 8.8.@&@&(+* &&| E E E < < <       ..#.P = ",
"        2 2 2 2 m.V V ^.^.#+E.{.    2 2 2 2 2 2 2 2 D.M #&C {.[           2 2 2 8 8 f.b W *&=&-&* &&| E E E < < <     2 J #.P = ",
"8   2 2   &.U U 7.7.V V b 0+T${ T 2 2 2 2 2 2 2 m.1.V V p.3%<           ].U U m.1.(.V b 8.*&*&s#* &&| E E E -.-.-.    2 K U _+Q#",
"8   2 2   H a a 7.7.V ^.b 0+T$....2 2 2 2 2 2 :.7.7.>.;&u.K.<           Z a a 7.7.(.V b 8.*&*&s#* &&| E E E J J J     2 a a M Q#"};
