/* XPM */
static char * test_none_xpm[] = {
"64 64 283 2",
"  	c #555756",
". 	c #575958",
"+ 	c #585A59",
"@ 	c #595B5A",
"# 	c #5A5C5B",
"$ 	c #595A59",
"% 	c #585958",
"& 	c #575757",
"* 	c #525252",
"= 	c #4E4E4E",
"- 	c #4F504F",
"; 	c #535554",
"> 	c #5B5D5C",
", 	c #595A5A",
"' 	c #595959",
") 	c #585858",
"! 	c #565757",
"~ 	c #555555",
"{ 	c #4A4A4A",
"] 	c #4C4C4C",
"^ 	c #4F4F4F",
"/ 	c #545454",
"( 	c #535454",
"_ 	c #525453",
": 	c #535353",
"< 	c #515252",
"[ 	c #505251",
"} 	c #4E504F",
"| 	c #4A4B4B",
"1 	c #484848",
"2 	c #4B4B4B",
"3 	c #505050",
"4 	c #535453",
"5 	c #545554",
"6 	c #545655",
"7 	c #525454",
"8 	c #525355",
"9 	c #515254",
"0 	c #4C4C4E",
"a 	c #636564",
"b 	c #636464",
"c 	c #626463",
"d 	c #636463",
"e 	c #626363",
"f 	c #636363",
"g 	c #626262",
"h 	c #5C5C5C",
"i 	c #565657",
"j 	c #5F6160",
"k 	c #646665",
"l 	c #666766",
"m 	c #656766",
"n 	c #656665",
"o 	c #656565",
"p 	c #646464",
"q 	c #616262",
"r 	c #606261",
"s 	c #5F6060",
"t 	c #565756",
"u 	c #565656",
"v 	c #5D5D5D",
"w 	c #606161",
"x 	c #5F605F",
"y 	c #5F5F5F",
"z 	c #5E5E5E",
"A 	c #5C5D5D",
"B 	c #4C4D4D",
"C 	c #515251",
"D 	c #595B5B",
"E 	c #585A5B",
"F 	c #565759",
"G 	c #4F5051",
"H 	c #676968",
"I 	c #666767",
"J 	c #656666",
"K 	c #646565",
"L 	c #5F5F60",
"M 	c #5A5A5B",
"N 	c #5D5E5E",
"O 	c #696A6A",
"P 	c #6A6A6A",
"Q 	c #6A6B6A",
"R 	c #696A69",
"S 	c #696969",
"T 	c #686868",
"U 	c #676868",
"V 	c #666666",
"W 	c #646564",
"X 	c #5B5B5B",
"Y 	c #676767",
"Z 	c #696B6A",
"` 	c #686969",
" .	c #686968",
"..	c #666867",
"+.	c #5E6060",
"@.	c #555757",
"#.	c #525352",
"$.	c #5C5D5C",
"%.	c #5E5F5E",
"&.	c #5E605F",
"*.	c #5D5F5F",
"=.	c #5E5F5F",
"-.	c #5E5F60",
";.	c #5B5C5D",
">.	c #525354",
",.	c #5D5E5D",
"'.	c #59595A",
").	c #58585A",
"!.	c #5D5D5E",
"~.	c #606060",
"{.	c #616261",
"].	c #616161",
"^.	c #5A5A5A",
"/.	c #6B6B6B",
"(.	c #606160",
"_.	c #5C5D5E",
":.	c #555556",
"<.	c #5D5F5E",
"[.	c #5D5F60",
"}.	c #5D5E5F",
"|.	c #5C5E5E",
"1.	c #5A5C5C",
"2.	c #5C5B5B",
"3.	c #5A5B5A",
"4.	c #575759",
"5.	c #5D5D5F",
"6.	c #5E5E5F",
"7.	c #5B5A5A",
"8.	c #5D5C5C",
"9.	c #5B5B5C",
"0.	c #5A5B5C",
"a.	c #595A5C",
"b.	c #555657",
"c.	c #5D5E60",
"d.	c #5C5D5F",
"e.	c #5B5D5D",
"f.	c #5B5C5B",
"g.	c #5B5B5D",
"h.	c #5C5E5D",
"i.	c #57585A",
"j.	c #606061",
"k.	c #595A5B",
"l.	c #555656",
"m.	c #626362",
"n.	c #565859",
"o.	c #56575A",
"p.	c #5A5B5B",
"q.	c #5B5C5E",
"r.	c #535355",
"s.	c #5A5C5D",
"t.	c #5B5C5C",
"u.	c #5A5B5D",
"v.	c #58595B",
"w.	c #565758",
"x.	c #545555",
"y.	c #595A5D",
"z.	c #58595C",
"A.	c #555658",
"B.	c #5A5B5E",
"C.	c #5A5C5A",
"D.	c #555655",
"E.	c #58595A",
"F.	c #565857",
"G.	c #575959",
"H.	c #575859",
"I.	c #57595A",
"J.	c #515352",
"K.	c #515151",
"L.	c #575857",
"M.	c #575957",
"N.	c #535455",
"O.	c #585A5A",
"P.	c #595B59",
"Q.	c #4E4F4E",
"R.	c #545656",
"S.	c #4D4D4D",
"T.	c #515153",
"U.	c #535555",
"V.	c #505153",
"W.	c #4B4D4C",
"X.	c #4F5050",
"Y.	c #545657",
"Z.	c #555557",
"`.	c #4F4F51",
" +	c #545556",
".+	c #4F5052",
"++	c #4E4F50",
"@+	c #515253",
"#+	c #565858",
"$+	c #4E4E4F",
"%+	c #4D4D4E",
"&+	c #525253",
"*+	c #505150",
"=+	c #494949",
"-+	c #545557",
";+	c #535456",
">+	c #4D4D4F",
",+	c #59595B",
"'+	c #4F4F50",
")+	c #555758",
"!+	c #4D4E50",
"~+	c #616362",
"{+	c #5F6061",
"]+	c #5E5F61",
"^+	c #565658",
"/+	c #5C5C5E",
"(+	c #5E5E60",
"_+	c #5A5A5C",
":+	c #606361",
"<+	c #5F6162",
"[+	c #5F6062",
"}+	c #575758",
"|+	c #5C5C5D",
"1+	c #585859",
"2+	c #5C5D60",
"3+	c #595859",
"4+	c #505151",
"5+	c #525353",
"6+	c #5B5D5E",
"7+	c #5C5E5F",
"8+	c #5B5E5D",
"9+	c #575858",
"0+	c #545455",
"a+	c #535354",
"b+	c #595B5C",
"c+	c #5A5C5E",
"d+	c #545456",
"e+	c #585B59",
"f+	c #585959",
"g+	c #4F5150",
"h+	c #525152",
"i+	c #535252",
"j+	c #4E4F4F",
"k+	c #515354",
"l+	c #4D4E4E",
"m+	c #4E5050",
"n+	c #4C4D4C",
"o+	c #494B4A",
"p+	c #4A4C4B",
"q+	c #4D4F4E",
"r+	c #4B4C4B",
"s+	c #555659",
"t+	c #4F5152",
"u+	c #515152",
"v+	c #5D5D5C",
"w+	c #505052",
"x+	c #484949",
"y+	c #494A49",
"z+	c #636465",
"A+	c #616264",
"B+	c #606163",
"C+	c #4E4F51",
"D+	c #646566",
"E+	c #646567",
"F+	c #636466",
"G+	c #626365",
"H+	c #616364",
"I+	c #606162",
"J+	c #646465",
"K+	c #636364",
"L+	c #616263",
"M+	c #606263",
"N+	c #626263",
"O+	c #616061",
"P+	c #515353",
"Q+	c #505252",
"R+	c #505152",
"S+	c #565957",
"T+	c #4A4B4A",
"U+	c #4C4E4D",
"V+	c #59595C",
"W+	c #56585A",
"X+	c #4B4C4C",
"Y+	c #4A4A4B",
"Z+	c #4B4D4D",
"`+	c #4C4D4E",
" @	c #585B5A",
".@	c #505253",
"+@	c #535556",
"@@	c #585A58",
"#@	c #525455",
"$@	c #57585B",
"%@	c #4E4E50",
"  . + @ # # @ $ % & & * = - ; . # > # , ' ' ) ! ! ! ~ = { ] ^ * / ( _ _ ; ; ; _ ; ( : : < [ } | 1 2 3 4 5 6 ; ; ; ; ; ; 7 8 9 0 ",
"a b c d c c c e e f g h i % j k l l m n o p f q r r s t = = u v w q r r r r r j j x y z A # + [ B C t $ @ @ @ + @ @ @ @ D E F G ",
"H I J n k k K o o o o L M N n O P Q O R S T U V k k W X : : y Y Q Z O `  .H H ....l o o f q +.@.#.) $.%.&.&.*.=.&.+.+.j +.-.;.>.",
"q s y y z z ,.,.v v v '.).!.~.{.g g q ].].].].~.x y z ' u ^.V /.Q l p e q {.].w (.~.y y z _.;.i :.h N <.<.<.*.[.}.}.|.<.<.|.1.( ",
"y z v v h 2.X X X 3.M 4.).5.6.y y z z z z z z v v h 7.& ) v Y P Y g ~.y z z v v 8.h h X 9.0.a.b.& z (.s <.N }.c.d._.e.> > > @ _ ",
"y z N v h h h h f.f.9.).).5.s ~.y z z z z z z v h h X ) ) v V V ].~.y y z z z v h h h h 9.g.a.b.& y d c &.<.}.c.d._.h.> > > @ _ ",
"%.N ,.h.$.> > f.# # 1.i.i.5.j.~.%.%.<.<.<.N ,.v h h X ) ) z f f ~.y y z z z v v h h h h 9.0.k.l.! x m.r <.<.}.d.d._.> > e.;.D ( ",
"<.h.h.h.> > > # # # D n.o.d.w ].z <.<.<.<.h.h.v h h X ) ) v g ].y y z z z v v v h h h X X p.@ 6   &.w &.h.<.|.d.d.e.> > ;.q.a.r.",
"h.h.h.> > > > # # @ k.F o._.w ].z <.<.<.h.h.h.$.h X X & ) v ].].z z z z z v v v h h h X p.3.@ 6   &.j &.h.h.|.d.q.e.> > ;.s.a.r.",
"> > > > e.;.1.1.0.k.k.F F ;.s (.%.N <.|.|._.e.> f.f.p.! & h ].].%.z N N N v A A t.t.f.p.3.@ + ; 6 =.(.&.h.h._._.q.;.t.t.s.u.v.r.",
"> > > > ;.;.u.u.a.a.a.F w.0.&.j <.h.h.h._.q.q.1.# # @     X ~.].y <.h.h.h.> > > # # # @ , + + ; x.%.~.y h.> e.q.q.;.u.u.u.u.v.8 ",
"# # # # s.s.u.y.y.z.v.F A.k.N &.h.h.h.e.q.q.B.1.# C.@   D., y ~.z N h.h.> > > # # # @ @ + + . _ 5 z ~.%.h.> 1.u.u.u.u.y.a.a.v.r.",
"# # # # 1.0.0.a.E v.E.w.A.E.e.<.h.h.> > ;.s.u.1.C.@ + 6 ; % N y N h.h.$.> > # # # # @ + + + F.< : ,.x ,.> # p.0.0.u.u.a.a.a.v.r.",
"3.@ @ @ @ @ @ + G.G.H.A.A.I.# > > h.> # # # # @ @ + . ; J.D.h z v > > > # # # @ @ @ @ + . .   3 K.X v > 3.@ @ D k.k.a.a.a.v.v.8 ",
"& L.L.. . M.F.F.F.@.b.N.8 b.O.# > > # @ @ @ @ P.+ + F.[ Q.#.^.h h # # # @ @ @ + + + . F.R.5 4 = S.~ % $ . . . . . H.i.i.i.i.F T.",
"/ x.6 6 R.6 6 6 6 6 U.9 V.9 ! + @ D @ , + + + + + . l.} W.- & ^.p.@ D @ + . F.F.    6 ; < X.3 ] { ^ : l.          b.Y.A.A.A.Z.`.",
"~ x.; ; ; U.U.U.N.x. +>..+++@+ +w.H.I.I.I.I.I.I.H.#+b.@+$+%+&+& ' , @ , % D._ * [ *+- Q.B 2 ] { =+S.K.4 ; 6 6 R.R.R.-+-+-+-+;+>+",
"z t.@ + O.E.E.i.i.i.i.A.9 `.r.w.v.,+a.a.a.a.a.a.v.E.H.Z.T.'+/ ) ^.p.p.^.' t / : < K.3 = ] { { 1 { K.~ ! F.@.@.#+w.)+F F F A. +!+",
"T W ~+r {+]+]+c.}.d.q.k.^+r.)./+(+5.d.q.q.q.q.q.q.g._+4.:.:.^.h h A h h X X ^.' ' ) & : 3 S.] 1 ] & v %.> # 1.s.a.a.a.a.a.a.v.9 ",
"Y b :+r <+[+]+]+c.c.5.0.4.i g.-.]+(+c.d.d.d.d.d./+/+g.).}+'.|+z z v v h h h h X X p., & ~ : < ] ^ h ].w *.|._.d.q.q.q.q.u.u.u.;+",
"d r j j ]+]+]+c.d.d.5.9.1+}+_.-.(+c.2+d.d.d.d./+/+/+g.).).9.!.z z v v v h h h X X p.p.$ % L.t X.< y ].s *.}.d.d.d.q.q.q.u.u.a.;+",
"g (.j &.-.-.c.c.d.d.!.9.3+& A =.}.2+2+d.d.d.q.q.q.g.g.).'.|+z z v v v v h h t.# # p.@ $ + . ! 4+#.y ~.=.c.}.d.d.d.d.q.q.u.u.a.;+",
"].j x &.=.-.c.c.d.d.!.9.' & $.*.|.d.d.d.d.q.q.q.u.u.0.).'.|+6.z v v v v h h t.# # # @ O.G.F.  *+5+%.s 6.c.d.d.d.d.q.q.q.u.u.a.;+",
"~.x x &.=.*.c.c.d.d.5.9.' & > <.h._._.d._.6+q.q.u.u.0.1+'.|+6.z v v v v h t.t.# # # D O.G.F.6 *+#.z L 6.c.d.d.d.q.q.q.u.u.u.a.-+",
"y y y %.%.*.*.7+d.d._.X ) ! t.<.h.h.|._.A e.;.1.1.0.p.) ' |+z z v v h.A $.> t.# # p.k.E H.! ~ *+: z y 5.5.d.d.d.q.q.q.u.u.u.a.-+",
"y y z z <.<.<.7+d.d._.p.) u f.<.h.h.h.h.> > > # # # ^.& ) h z z v h.8+8+> > t.# # D a.z.H.i ~ K.: z 6.!.d.d.d.d.q.q.q.u.u.u.a. +",
"z z z z <.<.|._.d.d._.p.) t f.h.> > > > > > 1.# C.3.^.& ) X v v v A e.> > > # @ @ D E v.F :./ 3 * v 6.!.d.d.q.q.q.q.u.u.u.a.a. +",
"~.y z N N |._._.d._.;.M L.  # h.> > > > t.1.1.# @ @ , L.9+p.h v v A $.> > # # @ @ O.O.n.b.0+/ 3 * v z _.d.q.q.q.q.u.u.u.a.a.v. +",
"g x ,.h._.d.d.d.q.q.;., F.6 @ > # # # # u.u.0.D @ @ @ F.9+p.A v h h h t.# # # @ + + .   U.a+( 3 * h !.|+q.q.q.q.u.u.a.a.a.a.v. +",
"~.%.h.h.6+q.q.q.q.s.s.O.  6 @ > # # @ D b+y.a.k.O.@ + F.F.p.A v h h 2.f.# # @ @ + . F.  x.5+: 3 * X |+g.g.c+q.u.u.a.a.a.a.v.v.d+",
"z ,.h.h.q.q.q.q.u.u.s.O.  _ . # @ @ e+, k.,+E.f+. . . 6 l.f+X h X X X p.# @ @ @ + . #+F.6 5+5+- K.^.h 9.u.u.u.u.a.a.a.v.v.v.v.;+",
"h $.> > ;.q.q.q.u.u.0.O.6 g+x.) % 9+. . 9+}+! u u l.D._ 5+x.f+^.^., @ @ @ @ @ + + f+H.H. +J.J.} 4+^.t.0.a.a.a.a.a.a.v.v.v.i.i.N.",
"X f.# # 0.u.u.u.a.a.v.9+_ B ^ h+* J.J._ #.#.i+* * C *+Q.j+< u ) ' . + + + + + + + G.i.i.Y.7 _ } } & , k.a.a.a.v.v.v.v.v.i.i.F k+",
"^.p.p.D k.a.a.a.v.i.i.@.[ ] l+^ 3 X.m+m+- X.3 3 ^ l+n+o+p+- : l.!   F.. . . . . . #+n.F b.U._ q+r+K.l.f+v.v.v.i.i.v.v.i.i.F s+t+",
", 0.0.0.0.a.a.a.a.v.E.@.5+u+' v+h t.0.k.E.w.N.@+w+j+] x+y+S.^ K.* #.( 6 D.  D.D.x.x.0+N.>.< j+| y+l+: ! ).,+v.v.v.v.i.i.F A.-+++",
"# ;.q.q.q.u.u.u.u.u.0.i.Z.i ~.o p z+z+A+B+c.u.i.F b.: S.2 = 3 K.* : / D.    D.~ / / / a+* 3 ] x+{ K.& M h |+;.u.u.a.v.i.i.F -+C+",
"<.}.c.c.c.d.d.d.d._.q.u.E.1+j.o o D+E+F+G+H+B+[+[+I+=.l.3 * u ' ' ' ^.^.@ @ @ ^.' ' ) ) u : 3 { = z o V J+K+L+[+c.d.q.u.u.u.a.Z.",
"%.*.c.c.c.c.d.d.d.d./+g.'.1+y g g L+L+L+M+B+I+<+I+M+{+) / i X v v v v A A h.$.h t.X p.p.'.& 0+%+K.p S T o p e I+-.c.}.7+d.d.q.E.",
"<.}.c.c.c.d.d.d.q.q.q.0.' & v y =.=.*.}.|.|._.A A _.;.w.i M v ,.,.,.,.,.h.h.A t.t.t.0.0.k.E.H.w+: p o ].s &.=.}.N |.|.|._.q.q.E.",
"<.}.c.d.d.d.d.d.q.q.;.p.) & h z z <.|.h.h.e.> > 1.t.0.^+^+M h v A A A $.> > > # # 0.a.a.k.v.).@+a+N+N+=.N <.<.h.h.h.|.|.6+q.q.E.",
"<.}.}.d.d.d.d.d.q.q.;.p.) u X z z <.,.h.h.> > > 1.1.0.^+}+9.h h h > > > > # # # # p.a.v.v.v.i.9 a+O+].=.<.<.<.h.h.h.|.e.6+q.q.I.",
"=.N N |._._._.q.q.q.g.M & u X z z ,.h.h.h.> > e.s.s.0.i H.v A $.> ;.e.e.> # # # # # D E v.E.H.&+a+~.w %.<.<.|.|._._.A e.e.q.u.H.",
"N N h.h.A A e.;.q.g.0.^.& ~ X z z ,.h.h.h.> > e.s.u.M :.9+N A > e.;.;.e.> # # # # D D O.O.f+#+P+5+&.j <.<.|.|.|._.6+e.e.q.q.u.H.",
"v h.h.h.> > > ;.u.u.0., & ~ X z z h.h.h.h.> > s.u.0., :.! t.e.e.e.q.;.;.> # # # @ @ @ + + f+! < 5+<.&.<.h.h.|.d.q.q.q.q.;.u.y.F ",
"h $.> > f.> > 1.0.0.0., t x.t.=.,.h.h.> > e.;.u.u.a.'.~ l., # 1.1.u.u.s.1.@ @ @ @ @ + + + G.  Q+J.$.%.h.A A _.q.q.q.q.q.u.u.y.F ",
"X t.t.t.# # 1.# p.p.D +   ( t.=.A > > > t.;.;.u.a.k.E.x.x.. @ # 0.a.a.0.p.@ + @ @ + + + G.#+R.R+< t.N A e._._.q.q.q.q.u.u.u.y.^+",
"^.X X X # # # @ @ @ + f+6 J.D N > t.t.t.u.u.u.a.a.v.f+U.; . @ D D a.a.a.O.+ + + + + . . . )+;+.+u+X v |+q.q.q.q.q.q.u.u.u.a.y.^+",
"^.^.X p.p.# # @ @ + + . ; g+. > > # # 1.0.0.a.a.v.E.H._ _ F.. + O.v.v.E.. F.F.F.F.F.F.S+#+b.N.G R+^.|+|+q.q.q.q.q.u.u.u.a.a.a.A.",
"' ' ' ^.p.p.# @ + + .   J.q+6 @ f.# # # D k.k.E E.G.  g+g+6   F.#+#+H.w.  ; _ _ _ ; 6   ! l.7 G G ) X |+q.q.q.u.u.u.u.a.a.a.z.A.",
"& & & ) , @ @ + . F.t #.= B 5+9+3.3.@ @ @ , O.O.G.  C n+= : ( ( ( ( ( ( #.C *+*+*+4+< ( x.x._ m+j+~ '.t.;.q.u.u.u.u.a.a.k.z.v.-+",
"u u u & f++ G.. F.6 4 ^ ] ] * u % % + + + . . F.  _ q+T+] 3 * * K.K.K.K.K.3 3 3 3 3 3 * 4 4 < q+U+* }+M a.a.a.a.a.V+v.v.v.i.W+;+",
"! L.& & . G.. #+  ; 4+S.2 S.* D.t   @.@.    6 ; _ [ j+X+Y+S.K.: : 5+&+&+* * * : #.#.* * < [ m+Z+X+4+:.H.i.i.i.i.i.i.i.i.F A.-+V.",
"@ , , k.k.D k.E E.w.x.3 = 3 u % % G.G.I.G.H.w.@.R.U.7 Q+++'+5 u l.b.b.Z.Z.Z.b.i b.l.:.x.N.>.G `+l+0+H.'.k.v.v.v.v.v.i.i.i.F A.T.",
"h.A q.q.q.q.q.q.u.0.E.0+* / @ > > ;.q.;.s.u.a.a.E v.i.F -+( 9+O.O.v.v.,+,+v.E.v.E.E.i.i.H.F 8 G T._+/+_.d.d.q.q.u.u.u.a.a.v.v. +",
"*.c.c.2+d.d.q.d.d.q._+i / D.# h.> q.q.u.u.u.u.a.b+a.v.i.b.N..  @O.E a.a.u.a.a.a.a.z.v.v.v.v.F 8 r./+(+d.d.d.q.q.q.u.u.u.a.a.a.A.",
"&.-.c.c.c.d.d.d.d.q._+9+l.u # h.> ;.u.u.u.u.u.a.a.a.v.i.-+( #++ O.v.v.k.0.b+a.a.a.a.v.v.a.0.k. +N._.}./+q.q.q.q.u.u.u.a.a.a.z.F ",
"y (+c.c.c.c.c.d.d.;.k.9+    # > 1.u.u.u.u.u.u.a.a.a.v.i. +>.F.+ + O.G.G.@ D D a.a.a.v.v.a.0.'.0+( e.N e.q.q.q.q.u.u.u.a.a.a.v.w.",
"6.c.c.c.c.c.d.d.q.u.E #+    # > # u.u.u.u.u.a.a.a.a.v.F ;+5+  . . F.    + @ D a.a.a.v.v.v.'.}+/ ; > |.e.q.q.q.q.u.u.u.a.a.a.v.^+",
"z }.c.c.d.d.d.d.q.u.O.F.6 6 @ > # u.u.u.a.a.a.a.a.a.v.F ;+@+l.F.@.x.; 6 . @ D a.a.a.v.i.H.9+u 4 x.> |.e.q.q.q.u.u.u.a.a.a.v.v.^+",
"<.<.}.7+_.d.d.d.q.u.E.@.6 6 + # D 0.u.a.a.a.a.a.a.v.i.F ;+.@R.b. +@.@.! . + O.E v.v.v.i.i.H.b.( 6 > |.;.;.u.u.u.u.a.a.a.v.v.v.w.",
"<.<.|.|._.d.d.d.q.u.E.  ; 6 + # @ 0.a.a.a.a.a.a.v.i.i.A.8 V.+@Y.-+i.E.G.. @@O.v.v.v.v.i.i.F -+#@6 > h.;.u.u.u.u.a.a.a.v.v.v.v.A.",
"<.h.h.h.d.d.d.q.q.a.H.  ; ; + # @ a.a.a.v.v.v.v.v.i.F A.8 .+8 A.i.v.a., . . O.v.$@i.i.i.F F -+>.U.1.e.1.u.u.a.a.a.a.v.v.v.i.i.Y.",
"h.h.> e._.d.q.q.u.k.H.l.; ; + # @ k.a.v.v.v.v.v.i.i.F -+@+%@w+-+v.a.a.k.9+G.E.E.i.H.H.n.F A. +>.x.# > 0.0.b+a.a.k.E E.E.i.i.F  +",
"h.> > > 6+q.q.q.u.v.w.l.; _ + # @ v.v.v.v.v.v.v.i.i.F  +w+0 !+8 i.a.a.E H.G.E.f+H.H.9+#+w.b.N.>.x.p.t.p.D D D D E O.G.H.H.H.F +@"};
