/* XPM */
static char * none_xpm[] = {
"64 64 301 2",
"  	c #5B5D5C",
". 	c #5F6160",
"+ 	c #616362",
"@ 	c #626463",
"# 	c #636564",
"$ 	c #626362",
"% 	c #626262",
"& 	c #616161",
"* 	c #5E5E5E",
"= 	c #525252",
"- 	c #4D4D4D",
"; 	c #595A59",
"> 	c #666867",
", 	c #696B6A",
"' 	c #676968",
") 	c #656666",
"! 	c #636464",
"~ 	c #606060",
"{ 	c #5E5F5F",
"] 	c #606161",
"^ 	c #585858",
"/ 	c #4A4A4A",
"( 	c #4C4C4C",
"_ 	c #4F4F4F",
": 	c #555555",
"< 	c #5C5E5D",
"[ 	c #5D5F5E",
"} 	c #5E605F",
"| 	c #5F5F5F",
"1 	c #5B5C5B",
"2 	c #5A5C5B",
"3 	c #565857",
"4 	c #494A4A",
"5 	c #494949",
"6 	c #505050",
"7 	c #555656",
"8 	c #595B5A",
"9 	c #585A59",
"0 	c #5B5D5E",
"a 	c #5A5B5D",
"b 	c #565759",
"c 	c #4B4B4B",
"d 	c #686969",
"e 	c #676868",
"f 	c #646565",
"g 	c #656565",
"h 	c #666666",
"i 	c #5E5E5F",
"j 	c #545455",
"k 	c #696A69",
"l 	c #696A6A",
"m 	c #6A6B6A",
"n 	c #676767",
"o 	c #656665",
"p 	c #646564",
"q 	c #616261",
"r 	c #636363",
"s 	c #6C6C6C",
"t 	c #6D6E6D",
"u 	c #6C6D6D",
"v 	c #6B6C6B",
"w 	c #686968",
"x 	c #656766",
"y 	c #646464",
"z 	c #616262",
"A 	c #606162",
"B 	c #5D5E5E",
"C 	c #545555",
"D 	c #545454",
"E 	c #5D5D5D",
"F 	c #5D5E5F",
"G 	c #5C5E5E",
"H 	c #5A5C5D",
"I 	c #575859",
"J 	c #5C5C5C",
"K 	c #5B5B5C",
"L 	c #5B5B5D",
"M 	c #59595B",
"N 	c #575759",
"O 	c #5F5F60",
"P 	c #595959",
"Q 	c #515151",
"R 	c #6B6B6B",
"S 	c #6D6D6D",
"T 	c #5B5C5C",
"U 	c #5A5B5C",
"V 	c #58595B",
"W 	c #545557",
"X 	c #5E5E5D",
"Y 	c #5C5D5F",
"Z 	c #5B5C5E",
"` 	c #5B5D5D",
" .	c #575857",
"..	c #5B5B5B",
"+.	c #58585B",
"@.	c #58585A",
"#.	c #5A5A5A",
"$.	c #6A6A6A",
"%.	c #5D5E60",
"&.	c #5A5C5C",
"*.	c #575858",
"=.	c #5D5E5D",
"-.	c #5C5D5C",
";.	c #626263",
">.	c #585A5B",
",.	c #545656",
"'.	c #5C5F5E",
").	c #56575A",
"!.	c #636364",
"~.	c #535555",
"{.	c #606261",
"].	c #5B5C5D",
"^.	c #57585A",
"/.	c #4E4F4F",
"(.	c #595A5B",
"_.	c #5C5D5D",
":.	c #5A5B5B",
"<.	c #535554",
"[.	c #575958",
"}.	c #606160",
"|.	c #4E4E4F",
"1.	c #595B5B",
"2.	c #5F6060",
"3.	c #585958",
"4.	c #515251",
"5.	c #5E5F5E",
"6.	c #5A5B5A",
"7.	c #595A5C",
"8.	c #555658",
"9.	c #5E5F60",
"0.	c #4F5150",
"a.	c #525453",
"b.	c #565756",
"c.	c #4E4E4E",
"d.	c #5A5B5E",
"e.	c #595A5D",
"f.	c #58595C",
"g.	c #5B5C5F",
"h.	c #4E504F",
"i.	c #515252",
"j.	c #565656",
"k.	c #5F605F",
"l.	c #4D4E4E",
"m.	c #595B5C",
"n.	c #585A5A",
"o.	c #57595A",
"p.	c #535456",
"q.	c #4D4E4D",
"r.	c #585959",
"s.	c #4D4D4E",
"t.	c #595A5A",
"u.	c #525355",
"v.	c #545655",
"w.	c #4B4C4B",
"x.	c #565758",
"y.	c #565757",
"z.	c #555756",
"A.	c #535556",
"B.	c #4F5053",
"C.	c #4E4F51",
"D.	c #58595A",
"E.	c #575959",
"F.	c #484A4A",
"G.	c #4F5050",
"H.	c #505151",
"I.	c #555655",
"J.	c #555757",
"K.	c #535455",
"L.	c #4A4A4B",
"M.	c #505251",
"N.	c #4F5151",
"O.	c #505152",
"P.	c #4E5051",
"Q.	c #4C4D4F",
"R.	c #4E4F50",
"S.	c #505252",
"T.	c #555657",
"U.	c #545556",
"V.	c #515253",
"W.	c #494A4B",
"X.	c #4C4D4D",
"Y.	c #535454",
"Z.	c #525352",
"`.	c #505150",
" +	c #4B4C4C",
".+	c #4A4B4A",
"++	c #484848",
"@+	c #515352",
"#+	c #505153",
"$+	c #484949",
"%+	c #4C4C4E",
"&+	c #5C5C5F",
"*+	c #5C5C5E",
"=+	c #4F4F50",
"-+	c #565657",
";+	c #575757",
">+	c #535353",
",+	c #565859",
"'+	c #49494B",
")+	c #626363",
"!+	c #5F6061",
"~+	c #5E5F61",
"{+	c #4F4F51",
"]+	c #5A5A5C",
"^+	c #5D5D5F",
"/+	c #5F5F61",
"(+	c #525254",
"_+	c #59595A",
":+	c #5C5C5D",
"<+	c #5C5E5F",
"[+	c #515153",
"}+	c #5E5E60",
"|+	c #535355",
"1+	c #5D5F5F",
"2+	c #4F5052",
"3+	c #5C5D5E",
"4+	c #5A595B",
"5+	c #606061",
"6+	c #5D5D5E",
"7+	c #545554",
"8+	c #5B5E5D",
"9+	c #5A5D5C",
"0+	c #525353",
"a+	c #585A5C",
"b+	c #5C5B5C",
"c+	c #4D4F4E",
"d+	c #4C4E4D",
"e+	c #4B4D4C",
"f+	c #565858",
"g+	c #484A49",
"h+	c #4B4B4C",
"i+	c #4A4B4B",
"j+	c #494A49",
"k+	c #474948",
"l+	c #454746",
"m+	c #545657",
"n+	c #4D4E4F",
"o+	c #656564",
"p+	c #646566",
"q+	c #636465",
"r+	c #616264",
"s+	c #5F6062",
"t+	c #464746",
"u+	c #4F4E4E",
"v+	c #535453",
"w+	c #515152",
"x+	c #626365",
"y+	c #646465",
"z+	c #696969",
"A+	c #535354",
"B+	c #626465",
"C+	c #626364",
"D+	c #616263",
"E+	c #606062",
"F+	c #5D5F60",
"G+	c #4C4C4D",
"H+	c #575656",
"I+	c #505051",
"J+	c #4D4F4F",
"K+	c #505052",
"L+	c #4C4E4E",
"M+	c #575758",
"N+	c #5A5A5B",
"O+	c #4F5051",
"P+	c #515254",
"Q+	c #4D4E50",
"R+	c #56585A",
"S+	c #595B59",
"T+	c #525454",
"U+	c #575957",
"V+	c #585859",
"W+	c #525253",
"X+	c #4B4D4D",
"Y+	c #474848",
"Z+	c #515353",
"`+	c #5C5D60",
" @	c #5E605E",
".@	c #525354",
"+@	c #4F504F",
"@@	c #505253",
"#@	c #535557",
"$@	c #555759",
"%@	c #4A4C4C",
"&@	c #4B4C4D",
"*@	c #494B4B",
"=@	c #555758",
"-@	c #595B5D",
";@	c #494B4A",
">@	c #525356",
",@	c #535457",
"'@	c #484948",
")@	c #616163",
"!@	c #555557",
"~@	c #545456",
"{@	c #4D4D4F",
"]@	c #555556",
"^@	c #686868",
"/@	c #565658",
"(@	c #565558",
"_@	c #535254",
":@	c #57595B",
"  . + @ @ # # $ % & & * = - ; @ > , , ' ) ! ~ { { . ] ^ / ( _ : ;   < < [ } } } } { | * 1 2 3 4 5 6 7 8 9 9 9 8 2       0 a b c ",
"d e ) f # f f f g h h g i j k l l m l l d d n ) o p o q - = r s t u v m l d w > x ) g y z A B C D E B } [ [ B F [ [ [ G G H I - ",
"n ~ * * E E E J J J K L M N O ~ ~ ~ ~ | | | | * * E J P Q J R S R g & ~ | ~ | | * E E J T U V W ; X * < < < F Y Z `       2  .Q ",
"g | * * E J J J J J ..K +.@.& | | * * * * * * E E J ..#.= * $.$.y ~ | | * * * E J J J J T a V W P ~ o . } [ %.%.Y <       &.*.= ",
"% | B =.E -.J J T T ..K @.@.;.| | * [ * * * B E E J J #.= * n & | | | * * * E E J J J J T a >.,.; n ! [ [ [ %.Y Y <     ` &.I _ ",
"} '.< < <       2 2 2 U ).b !.~ * [ [ [ [ '.< E E J J #.= | g | | | * * * * J E J J J ....2 9 ~.3 + {.< [ [ Y Y Y       Z ].^./.",
"[ < < <         2 2 8 (.).b z ~ * [ [ [ [ < < _.J ....P = * g | * * * * * E E E J J ....:.8 9 <.[.}.. < < < Y Y 0 <     Z a ^.|.",
"<   < <   ` ].T &.U 1.(.).b A 2.{ [ [ [ B G ` T 1 ....3.4._.y | 5.* =.B B _._._.T T :.:.6.8 9 <. .q ] < < < Y Z Z &.&.T a 7.b |.",
"          Z Z a a a 7.7.b 8.9.. [ < < < Y Y Z &.2 2 2 [.0.T r | | [ < < <       2 2 2 8 8 9 [.a.b.% 2.<     Z Z Z a a a a a b c.",
"  2 2 2 2 H d.e.e.f.V V b W _.. < < <   ].g.d.&.2 8 8 [.h.6.% * * < < <       2 2 2 2 9 9 [.3 i.j.% k.    2 a Z Z a a 7.a 7.^.l.",
"T 1 2 8 8 1.m.1.>.n.o.^.b p.` [   < < 2 2 H &.:.8 8 8 3 q.r.& * E   <   2 2 2 8 8 8 9 9 9 [.b.h.D & * 2 8 8 1.1.7.7.7.7.V V b s.",
"t.#.8 8 8 8 8 9 9 [.[.I 8.u.U         2 2 2 8 8 8 9 9 v.w.i.J E E   < 2 2 2 2 8 8 8 9 [.3 : = ( _ ..; 8 9 n.9 9 9 V V V V V x.( ",
"Q j.y.3 3 3 3 3 z.z.z.A.B.C.D.8 1.2 :.8 8 9 8 8 9 E.z.h.F.G.P ....2 2 2 8 3.[.3 3 3 z.<.H.Q 6 / / i.I.3 3 3 3 3 J.8.8.8.8.8.K.L.",
"_ G.H.M.0.N.N.O.N.N.0.P.Q.Q.R.S.~.,.,.T.,.7 T.J.,.U.K.V.W.X.Y.: b.3 3.*.I.Z.`.h./.l.q. +.+/ 5 ++/ _ 4.@+a.a.Y.<.Y.p.W W u.#+R.$+",
"g ~ <     ].a a a 7.a L @.%+V.@.&+Y Y Y Y Y Y *+L U M @.=+|.-+;+E E J J ..P j.D >+i._ c / / 5 ++c >+7 z.3 3 ,+I b b V V b b u.'+",
"R n )+{.. !+~+%.%.%.Y Y M {+]+^+/+~+%.Y Y Y Y Y *+*+]+M (+_+:+E E E E J J J ....#.#.P : Q 6 - 5 6 ~ f {.} < <+%.a Z Z a a a ^.%+",
"$.r }.. . ~+~+%.%.%.Y ^+]+[+i 9.}+%.%.Y Y Y Y Y *+*+L M |+:+| E * E E E J J J ......#.t.3.;+: c.>+f ] 1+1+F Y Z Z Z Z a a a ^.2+",
"n q . . } ~+~+%.%.%.Y F ..= B [ [ F %.Y Y Y Z Z Z a Z ]+|+^+~ E E E E E J J T 2 2 2 8 9 9 [.z.0.D r | %.%.%.Y Y Y Z Z Z 7.a ^.C.",
"g ~ 2.} } 9.~+%.%.%.Y B ..Z.[ [ < 3+Y Y Y Y Z Z Z a a 4+|+i 5+* E E E E J J 1 2 2 2 8 9 9 z.v.`.>+r { %.Y Y Y Y Z Z Z a a 7.,+P.",
"% ~ ~ { } } 9.%.%.%.Y 6+..Z.[ [ < G Y Y Y Y Z Z Z a U M |+i & * =.< E E J J 1 2 2 1.1.n.r.C 7+`.>+r i %.Y Y Y Y Z Z Z a a a ^.O.",
"~ | ~ * * [ [ 1+Y Y Y _.#.= =.< < < < <       &.2 2 :.P >+* ~ E E < 8+8+9+9+  2   1.7.f.@.: D 6 >+% i %.Y Y Y Z Z Z Z a a a I H.",
"| * * * * [ [ < Y Y Y _.#.4.=.< < <         2 2 2 8 6.P >+E ~ E E <         2 8 2 1.f.V N D D 6 >+& 6+Y Z Z Z Z Z a a a 7.7.).6 ",
"E | * * * [ [ < Y Y Y _.#.4.=.< <           &.2 2 8 8 P i.J | E E <       2 2 8 8 t.V o.x.D D 6 >+& 6+Y Z Z Z Z Z a a a 7.7.)._ ",
"E y { [ < Y Y Y Y Y Z ` 9 M.<   2 2 2 2 a a a 1.8 8 8 [.@+-.| J J J J T 2 2 2 8 9 9 [.3 <.>+>+6 = & 3+Z Z Z Z Z a 7.7.7.7.V x.G.",
"E y { < G Z Y Y Z Z a T 9 0.    2 8 8 2 U e.a 1.8 8 9 [.a.-.| E J J J 1 2 8 8 8 8 3 v.<.0+= >+6 6 O ].a a a a a 7.a 7.V V V 8.G.",
"J E <     Z Z Z Z a a &.9 h.8 2 1 8 8 9 8 a+>.r.[.9 9 3 M.:.E ..........2 8 8 8 9 9 n.E.<.Z.0+6 _ ~ T a a a a 7.7.V V V V V 8.G.",
"J b+      Z Z Z a a a 2 [.h.Z.;+3.3.[.[.[.;+;+j.: : I.a.c+7+^ ..#.8 8 2 8 8 8 9 9 D.^.^.K.i.@+0._ ~ U 7.7.7.7.7.7.V V V ^.^.8.h.",
"..T       ].Z Z a 7.7.(.3 d+q.c.6 H.M.@+4.Q >+D >+Q 0.d+e+4.I.^ r.3 3 9 9 9 9 9 9 [.b ^.W a.@+l.( ..; V V V V V V V V ^.b b p.c+",
"7+y.f+x.3 b b b b W W U.0.g+/.Q Q G.G.h./.s. +h+w.i+j+k+l+- 6 = 7+C 7 [.[.[.*. .3 y.8.T.U.<.0.k+5 c.>+W U.W W W W 8.8.m+W p.C.i+",
"a.T Z Z Z Z Z Z Z a a 7.x.n+5+y o+p+p+q+r+s+7.b W K.=+w.t+- _ u+_ 6 = 7+v.<.v+>+= Q w+Q _ - 5 ++c = ^ J * 6+3+Z a 7.V ^.^.b [+5 ",
"2 [ %.%.%.%.%.Y %.Y Y Y ]+(+~ r r q+x+x+x+x+r+r+x+p+y+../ 6 : j.;+;+ .3.[.[.*.^ ;+;+;+j.D Q  +5 D $.s R z+n p+x+s+~+%.Y Y Z M =+",
"[ [ %.%.%.Y Y Y %.Y Y *+]+A+5+r !.q+B+x+C+D+E+s+9.F+B #._ #.| ~ ~ | }.2.} . { * B E :+6+K #.y.G+H+$.e )+| 2.9.F 3+Y Y 3+Z Z V |.",
"} [ %.%.%.%.%.Y Y Y Z ].#.= * | | { { [ B < _.`     ].]+I+K :+E < < -.        2 2 U 7.7.7.@.b 2+^ n }.[ [ [ [ [ < < < =.Z Z V J+",
"[ [ %.%.Y Y Y Y Z Z Z T #.Q * * * [ [ < < <       2 ].]+K+K J J -.        2 2 2 2 U 7.V V V b #+^ % } [ [ [ < < < [ < ` Z Z V L+",
"} [ F %.Y Y Y Y Z Z Z T P 6 * * * * [ < < <       &.].M {+2.* J J         2 2 2 2 2 7.V V V b O.M+% { [ [ [ < < < `   ` Z Z V L+",
"=.* < < < ` ` ` Z Z a :.P 6 * * * B < < < <   ` Z a K P 6 } [     Z Z ].  2 2 2 8 8 8 8 E.E.y.M.y.{.[ [ < < 3+Y g.g.g.Z a a ^.X.",
"E E <   <       ].a a N+P c.* E * =.< < < <   &.a a U *._ B {   ` Z Z H   2 2 8 8 8 8 9 9 [.z.M.z.} < [ < < Y Z Z Z Z a a a V G+",
"..b+            a a a :.^ c.* * E E <     T   &.a 7.(.;+_ 9     ].a a a 2 9 8 8 8 8 9 9 9 3 v.M.C } _.< < < Z Z Z Z a a a 7.V w.",
"#.........2 2 2 2 2 8 8 [.c+< [ <       ].a a a 7.V n.3 0.[.2 8 1.7.7.7.2 8 9 9 9 9 [.[.E.8.p.O+= | _.Z Z Z Y Z Z Z a a 7.a ^. +",
"^ #.......2 2 8 8 2 9 9 [.c+9 <   2 2 2 U 7.a 7.V V n.3 c+[.2 8 (.7.7.>.9 [.9 9 9 9 [.[.f+p.P+R.Q ~ _.Z Z Z a Z a 7.a 7.7.7.o.X.",
"j.#.#...#.2 2 8 8 8 9 9 3 d+`.8   2 2 2 1.7.7.7.V V I <.e+z.3.r.r.D.D.E.3 v.<.<.<.<.b.3 f+p.P+Q+_ | :+Z Z Z a a a a a 7.7.7.R+X.",
"= ^ j.P ^ 8 8 8 8 9 3. .>+( c.b.6.:.2 2 2 8 9 S+[.f+a.( - >+>+= = = 0+= 4.G./._ _ 6 >+I.7 T+S.c+l...:.Z a a a a 7.7.7.7.V V R+ +",
"_ >+D : : b.3 3 3 v.@+Q ( c - = ;+r.9 9 9 9 [.U+z.@+e+5 / _ Q 6 6 6 6 6 6 _ _ _ _ _ _ _ Q Z.M. +( : t.7.7.7.7.7.7.V V V V ^.8.4 ",
"b.^ V+r.^ 9 9 [.*.z.M.l.c c 6 >+D Y.Y.Y.Y.T+0+@+M.0./.X.++ += >+>+0+0+0+W+W+0+D Y.D >+i.4.0.X+4 - >+7 T.8.W 8.8.8.W W 8.p.u.#+Y+",
"< 2 (.U ].0 Z ].a U 1.;+6 - *.    ` H a a a 7.V D.o.^.I P+Z+9 9 r.D.V V V D.D.D.D.D.D.I x.W Q.W.]+i ^+`+Y Z Z Z a a a 7.7.V b $+",
"}  @F+%.Y Y Z Y Y a a _+D _ 2 < &.H a Z Z a a 7.7.a 7.V p.~.9 9 n.7.7.7.a 7.V V 7.7.V V V Z W %+L *+*+Z Y Z Z Z a a a 7.7.7.).X.",
"} } ~+~+%.%.%.Y Z Y Z N+;+6   <   ].Z a a a a 7.7.a V V u.K.9 9 D.V V 7.a 7.7.7.7.7.V V (.~+^.R.^+*+*+Z Z Z Z Z a a 7.7.7.V ^.s.",
"| | %.%.%.%.%.%.Y Y 7.8 *.M.T < 2 U a a a a a 7.7.7.V V u..@[.9 9 n.y.8 8 8 1.7.7.7.V V V 6+-+/._.    Z Z Z Z Z a a a V 7.7.^.s.",
"* | %.%.%.Y Y %.Y Y (.n.f+M.    2 U a a 7.7.7.7.7.7.V V u..@f+3 f+3 <.9 9 8 1.7.7.7.V V D.*.: /.<   ` Z Z Z Z Z a a a V 7.V b s.",
"| * %.%.%.Y Y Y Y Y 7.n.3 0.2   2 U a a a 7.7.7.7.7.V ^.P+Z+3 z.,.@+M.v.9 8 1.7.7.7.V ^.I ;+C +@<   ` Z Z Z a a a 7.7.7.V V b - ",
"{ [ [ B G 3+Y Y Z Y V E.z.0.2 2 8 U a 7.7.7.7.7.V V ^.^.P+@@8.#@u.^.(.8.r.9 n.V V V V ^.^.b A.P._.  ].a a a a a 7.7.V V V V b X.",
"} [ [ [ < Y Y Y Z Z o.*.z.0.2 2 8 U a 7.7.7.7.7.V V b b #+#+8.p.^.7.7.>.[.9 n.V V V V ^.b $@p.P.<   T a a a a a 7.7.V ^.^.^.8.X+",
"} < < < < Y Y Z Z Z ^.f+v.h.8 2 8 (.7.7.V V V V V ^.b x.2+2+u.W V 7.V 1.f+9 n.V ^.^.^.b b W u.C.< 2 &.a 7.7.7.7.7.V V b ^.^.8.%@",
"} <       Z Z Z a a ^.x.v.c+9 2 8 (.V V V V V V ^.^.N 7 |.&@Q.#+^.V 7.>.b D.D.r.*.*.*.f+J.: 0+_ J :.:.8 8 8 1.n.n.E.[.E.b b W *@",
"< 2       Z Z Z a a b y.<.e+3 9 [.D.D.^.^.^.b b b b T.0+/ L.C.P+W b b 8.8.8.=@z.7 v.v.~.v+= 6 - #.P t.; 9 9 9 9 [.[.[.&.8.W u.k+",
"<     T 2 ].a a -@-@b J.@+;@M.@+a.U.W p.p.p.p.u.u.P+[+- 5 &@%.%.x.p.>@p.,@W U.v.Y.0+0.h.+@_ ( / - >+;+3 3 z.z.z.z.z.z.T.x.8.8.L+",
"v+I.I.z.*.r._+N+..:.j +@ +'@+@*.1 T a a a a Z a a a ]+@.W+=+_+6+].&.1.1.N+N+N+(.(.y.Y.v+v+A+=+h+=+% r % z q q q q & q z )@)@r+(.",
"P ....J T ..#.......P ;+= 5 ^ ....U a a a Z a a a 7.]+M (+=+P J -.  2 2 ....:.7.7.t.j.: : !@~@{@P z+~ * E E E E E E E E *+*+L |+",
"..E J J J J ........#.#.^ Q #.....].Z Z Z a a a a a a 7.|+w+E J         ..#.N+a 7.1.^ ]@]@!@!@W+E $.| E E E E E J J J J L L M (+",
"            T 2 U U 7.V @.V.r.2 1   ` &.&.&.&.&.U m.]+]+~@A+@ [           1 2 &.1.(.N 8.!@!@!@A+* $.| E E E < < <       K ..#.= ",
"              2 U a 7.V ^.V.I #   <   2 2 2 2 2 2 8 (.7.~@K.@ [ <         2 2 2 8 t.V 8.8.!@!@(+* ^@| E E E < < <       ..#.P = ",
"        2 2 2 2 m.V V ^.^.#+E.{.    2 2 2 2 2 2 2 2 D.M ~@C {.[           2 2 2 8 8 f.b W /@(@_@* ^@| E E E < < <     2 J #.P = ",
"8   2 2   &.U U 7.7.V V b 2+V+{ T 2 2 2 2 2 2 2 m.1.V V p.T+<           ].U U m.1.(.V b 8./@/@A+* ^@| E E E -.-.-.    2 K U _+I+",
"8   2 2   H a a 7.7.V ^.b 2+V+....2 2 2 2 2 2 :.7.7.>.:@u.K.<           Z a a 7.7.(.V b 8./@/@A+* ^@| E E E J J J     2 a a M I+"};
