/* XPM */
static char *xpm_[] = {
/* columns rows colors chars-per-pixel */
"64 64 217 2 ",
"   c #171D2E",
".  c #1C1532",
"X  c #1E1A32",
"o  c #251737",
"O  c #251C32",
"+  c #2B1E33",
"@  c #331E35",
"#  c #1C232E",
"$  c #18252C",
"%  c #1C2332",
"&  c #232A2E",
"*  c #28382D",
"=  c #353A2C",
"-  c #242433",
";  c #2A2133",
":  c #262C35",
">  c #2D253C",
",  c #262939",
"<  c #372637",
"1  c #2A3632",
"2  c #343634",
"3  c #481E39",
"4  c #591C3E",
"5  c #6A1A2F",
"6  c #6F1D32",
"7  c #4A2537",
"8  c #572739",
"9  c #5D323C",
"0  c #64283C",
"q  c #76223B",
"w  c #7A233E",
"e  c #66313D",
"r  c #77323D",
"t  c #02491A",
"y  c #1A4E1D",
"u  c #1A581B",
"i  c #23561F",
"p  c #0A700F",
"a  c #1B6416",
"s  c #1B6B15",
"d  c #1B6218",
"f  c #1B7D1A",
"g  c #25661B",
"h  c #257714",
"j  c #36721B",
"k  c #0F5029",
"l  c #264627",
"z  c #38462A",
"x  c #3C4B2B",
"c  c #235322",
"v  c #295623",
"b  c #395629",
"n  c #384936",
"m  c #086129",
"M  c #166C29",
"N  c #1D7B26",
"B  c #296B29",
"V  c #377C25",
"C  c #397E24",
"Z  c #414D2D",
"A  c #42522E",
"S  c #485B29",
"D  c #505539",
"F  c #436624",
"G  c #486A24",
"H  c #4C632A",
"J  c #52682A",
"K  c #487222",
"L  c #577625",
"P  c #5B7B25",
"I  c #617634",
"U  c #64763B",
"Y  c #657A38",
"T  c #362A41",
"R  c #392E42",
"E  c #383743",
"W  c #6A1744",
"Q  c #771B45",
"!  c #453948",
"~  c #57384B",
"^  c #6C3241",
"/  c #245A48",
"(  c #2A7C48",
")  c #2D7A53",
"_  c #4F4D49",
"`  c #554B4D",
"'  c #554752",
"]  c #5C4C55",
"[  c #595555",
"{  c #634C58",
"}  c #65535A",
"|  c #506857",
" . c #696156",
".. c #7B6B5F",
"X. c #6F5B61",
"o. c #745E62",
"O. c #746362",
"+. c #7A6465",
"@. c #7A6A65",
"#. c #83233E",
"$. c #8C1B49",
"%. c #AB1E4E",
"&. c #B31E4E",
"*. c #962644",
"=. c #952B41",
"-. c #A52D43",
";. c #A6224C",
":. c #AC224D",
">. c #B2244C",
",. c #BC294A",
"<. c #A53742",
"1. c #A63A42",
"2. c #B93745",
"3. c #C32C49",
"4. c #CD2E49",
"5. c #CB3047",
"6. c #CE3048",
"7. c #D33149",
"8. c #D9394A",
"9. c #E03F4C",
"0. c #E13050",
"q. c #934246",
"w. c #BC4246",
"e. c #876D6A",
"r. c #867569",
"t. c #917970",
"y. c #967C74",
"u. c #9B7E77",
"i. c #C24346",
"p. c #D44748",
"a. c #DD4949",
"s. c #E5444C",
"d. c #EC464C",
"f. c #F8444D",
"g. c #25870E",
"h. c #2C8B0F",
"j. c #2C960C",
"k. c #34920F",
"l. c #39990E",
"z. c #278111",
"x. c #388315",
"c. c #338B11",
"v. c #3A8C13",
"b. c #399410",
"n. c #3C8023",
"m. c #458A1A",
"M. c #499614",
"N. c #5A9E16",
"B. c #5A961A",
"V. c #5C9B18",
"C. c #638C1E",
"Z. c #6A951E",
"A. c #659E1A",
"S. c #6D9D1B",
"D. c #719F1D",
"F. c #4AA010",
"G. c #55A215",
"H. c #65A319",
"J. c #6DA01B",
"K. c #73A21D",
"L. c #7AA51D",
"P. c #76A91C",
"I. c #7AAB1C",
"U. c #7DB21C",
"Y. c #468623",
"T. c #4C8921",
"R. c #5A8322",
"E. c #508B22",
"W. c #648923",
"Q. c #6C9620",
"!. c #76A420",
"~. c #7AA823",
"^. c #4D9366",
"/. c #80AA1E",
"(. c #81AE29",
"). c #85B22A",
"_. c #88B729",
"`. c #90BF2E",
"'. c #90BC32",
"]. c #97C336",
"[. c #9DC53C",
"{. c #A1C93F",
"}. c #998678",
"|. c #9C847A",
" X c #A3897C",
".X c #AD917F",
"XX c #A4CC42",
"oX c #A8CF45",
"OX c #A9D244",
"+X c #849998",
"@X c #AD8C81",
"#X c #AD9683",
"$X c #B49584",
"%X c #B39B85",
"&X c #BA9C88",
"*X c #B6A289",
"=X c #B7A389",
"-X c #BAA38A",
";X c #A3ADB1",
":X c #C5A48D",
">X c #C4A88E",
",X c #C3AB90",
"<X c #CBAC92",
"1X c #D2AF93",
"2X c #C8B093",
"3X c #D5B195",
"4X c #D1B798",
"5X c #D6BB9A",
"6X c #D8BD9B",
"7X c #9AC4AA",
"8X c #BABCC4",
"9X c #BEDBC9",
"0X c #C3C2CC",
"qX c #CFCAD6",
"wX c #D9ECE1",
"eX c #E4F3EA",
"rX c #F2FCF7",
/* pixels */
"6X6X6X6X6X6X6X6X6X6X6X6X6X6X6X6X6X6X6X6X6X6X6X6X6X6X6X6X6X6X6X6X6X6X6X6X6X6X6X6X6X6X6X6X6X6X6X6X6X6X6X6X6X6X6X6X6X6X6X6X6X6X6X6X",
"6X6X6X6X6X6X6X6X6X6X6X6X6X6X6X6X6X6X6X6X6X6X6X6X6X6X6X6X6X6X6X6X6X6X6X6X6X6X6X6X6X6X6X6X6X6X6X6X6X6X6X6X6X6X6X6X6X6X6X6X6X6X6X6X",
"6X6X6X6X6X6X6X6X6X6X6X6X6X6X6X6X6X6X6X6X6X6X6X6X6X6X6X6X6X6X6X6X6X6X6X6X6X6X6X6X6X6X6X6X6X6X6X6X6X6X6X6X6X6X6X6X6X6X6X6X6X6X6X6X",
"6X6X6X6X6X6X6X6X6X6X6X6X6X6X6X6X6X6X6X6X6X6X6X6X6X6X6X6X6X6X6X3X3X6X6X6X6X6X6X6X6X6X6X6X6X6X6X6X6X6X6X6X6X6X6X6X6X6X6X6X6X6X6X6X",
"6X6X6X6X6X6X6X6X6X6X6X6X6X6X6X6X6X6X6X6X6X6X6X6X6X6X6X6X6X6X3X3X3X3X6X6X6X6X6X6X6X6X6X6X6X6X6X6X6X6X6X6X6X6X6X6X6X6X6X6X6X6X6X6X",
"6X6X6X6X6X6X6X6X6X6X6X6X6X6X6X6X6X6X6X6X6X6X6X6X6X6X6X6X6X3X3X3X3X3X3X6X6X6X6X6X6X6X6X6X6X6X6X6X6X6X6X6X6X6X6X6X6X6X6X6X6X6X6X6X",
"6X6X6X6X6X6X6X6X6X6X6X6X6X6X6X6X6X6X6X6X6X6X6X6X6X6X6X6X3X3X3X3X3X3X3X3X6X6X6X6X6X6X6X6X6X6X6X6X6X6X6X6X6X6X6X6X6X6X6X6X6X6X6X6X",
"6X6X6X6X6X6X6X6X6X6X6X6X6X6X6X6X6X6X6X6X6X6X6X6X6X6X6X3X3X3X3X3X3X3X3X3X3X6X6X6X6X6X6X6X6X6X6X6X6X6X6X6X6X6X6X6X6X6X6X6X6X6X6X6X",
"6X6X6X6X6X6X6X6X6X6X6X6X6X6X6X6X6X6X6X6X6X6X6X6X6X6X3X3X3X3X3X3X3X3X3X3X3X3X6X6X6X6X6X6X6X6X6X6X6X6X6X6X6X6X6X6X6X6X6X6X6X6X6X6X",
"6X6X6X6X6X6X6X6X6X6X6X6X6X6X6X6X6X6X6X6X6X6X6X6X6X3X3X3X3X3X3X3X3X3X3X3X3X3X3X6X6X6X6X6X6X6X6X6X6X6X6X6X6X6X6X6X6X6X6X6X6X6X6X6X",
"6X6X6X6X6X6X6X6X6X6X6X6X5X-X*X*X*X-X6X6X6X6X6X,X$X$X&X$X$X$X$X$X$X:X3X3X3X3X3X&X&X-X*X*X*X-X5X6X6X6X6X6X6X6X6X6X6X6X6X6X6X6X6X6X",
"6X6X6X6X6X6X6X6X6X5X6X6X#XE , 2 : [ 2X6X6X6X6X .> R R R R R R T > o.3X3X3X3X:X' > R R R > ' 2X5X6X6X6X6X6X6X6X6X6X6X6X6X6X6X6X6X",
"6X6X6X6X6X6X6X6X6X6X3X$X@.e e e e 9 r.-X6X<Xt.D A A A A A A x A A D y.:X3X&Xr.x A A A x A Z r.*X5X6X6X6X6X6X6X6X6X6X6X6X6X6X6X6X",
"6X6X6X6X6X6X6X6X6X6X&X/ 9 p.s.a.d.w.< [ 6Xe.- L I.K.D.D.S.!.!.K.P.L : e.3X} = C.I.K.K.K.I.W.1 ] 4X6X6X6X6X6X6X6X6X6X6X6X6X6X6X6X",
"6X6X6X6X6X6X6X6X6X6X%X% ^ 9.f.f.f.8.Q ^ O./ # b G F F F F F F F G b % E O., : b G G F F G b : _ 6X6X6X5X6X6X6X6X6X6X6X6X6X6X6X6X",
"6X6X6X6X6X6X6X6X6X6X*X! 8 2.5.3.4.3.%.Q @ + ; + O O + O + O O O O O ; ; ; + ; O O O O O - + ; } 2X6X6X6X6X6X6X6X6X6X6X6X6X6X6X6X",
"6X6X6X6X6X6X6X6X6X6X4X-Xr.7 7 8 *.%.4 4 Q *.-.1.1.1.1.1.=.=.-.1.-.#.-.#.-.#.#.<.<.*.=.1.1.w.i.q.] }.6X6X6X6X6X6X6X6X6X6X6X6X6X6X",
"6X6X6X6X6X6X6X6X6X6X6X4X}.< + + Q Q - @ $.;.2.8.s.s.s.s.8.8.a.s.8.7.8.7.8.7.9.s.9.7.9.s.s.d.a.#.;  .6X6X6X6X6X6X6X6X6X6X6X6X6X6X",
"6X6X6X6X6X6X6X6X6X6X-X[ 9 -.;.Q 3 +     + ; < $.&.:.;.;.3.4.&.>.4.7.7.7.7.7.5.:.>.6.,.%.:.=.8 ; : @.6X6X6X6X6X6X6X6X6X6X6X6X6X6X",
"6X6X6X6X6X6X6X6X6X6X*X, 0 8.0.:.3   3 3 3 3 7 *.&.>.%.%.3.7.>.&.4.7.7.7.7.7.5.:.>.7.3.&.&.*.0 7 - @.6X6X6X6X6X6X6X6X6X6X6X6X6X6X",
"6X6X6X6X6X6X6X6X6X6X*X2 e a.d.3.3 o Q %.*.&.3.4.6.6.4.7.6.7.6.7.7.4.7.7.6.6.7.5.7.7.4.4.5.6.7.#.- O.5X5X6X6X6X6X6X6X6X6X6X6X6X6X",
"6X6X6X6X6X6X6X6X6X6X*XE e a.f.7.8 . 4 6 W q #.w w w q 5 5 5 5 5 5 6 q q Q q q q 5 5 5 6 5 q #.0 O @.3X5X5X6X6X6X6X6X6X6X6X6X6X6X",
"6X6X6X6X6X6X6X6X6X6X-X2 e a.s.,.8 X # - $ $   - $ # % , , , , , , , X # # # X , , , , , , , % % - O.3X3X6X6X6X6X6X6X6X6X6X6X6X6X",
"6X6X6X6X6X6X6X6X6X6X*X& e d.2.7 o # u s a u a a k t | 8XqX0X0X0XqX+Xk t d t / ;XqX0X0X0XqX;X/ t a b } $X3X6X6X6X6X6X6X6X6X6X6X6X",
"6X6X6X6X6X6X6X6X6X6X&X` e w.r     l x.l.k.k.k.b.h.p ^.wXrXeXeXeXrX7XM p k.p ( 9XrXeXeXeXrX9X( p k.v O y.3X3X6X6X6X6X6X6X6X6X6X6X",
"6X6X6X6X6X6X6X6X6X3X1X:Xe.7 < # u h V.J.A.A.A.S.V.g.N ) ) ) ) ) ) B f M.H.k.f ( ) ) ) ) ) ( f v.H.H O y.3X3X3X6X6X6X6X6X6X6X6X6X",
"6X6X6X6X6X6X6X6X3X3X1X3X%X[ > - j F.J.L.K.L.L.L.K.M.h h s s s s M h M.H.L.N.v.h s s s s s s v.G.I.J - u.3X3X3X3X6X6X6X6X6X6X6X6X",
"6X6X6X6X6X6X6X3X3X3X3X3X3X3Xo.& L I.K.K.K.K.K.K.K.K.D.D.D.S.K.S.J.K.K.K.L.K.D.S.!.J.K.K.J.J.J.P.K.H - u.3X3X3X3X3X6X6X6X6X6X6X6X",
"6X6X6X6X6X6X3X3X3X3X3X3X3X3X+.; P I.K.K.K.K.K.L.S.Y.C C C C C Y.n.n.C C V C C C K n.n.n.V T.K.(.L.H - y.3X3X3X3X3X3X6X6X6X6X6X6X",
"6X6X6X6X6X3X3X3X3X3X3X3X3X3Xo.- L I.K.K.K.K.K.K.C.M m m m m m m m m m m m m m m m m m m m M B.I.K.H - y.3X3X3X3X3X3X3X6X6X6X6X6X",
"6X6X6X6X3X3X3X3X3X3X3X3X3X3Xo.: L I.K.K.K.K.D.M.v.m.T.T.T.m.T.T.E.E.E.E.m.E.E.E.E.m.T.m.T.Y.v.M.!.H ; y.3X3X3X3X3X3X3X3X6X6X6X6X",
"6X6X6X3X3X3X3X3X3X3X3X3X3X3Xo.; P I.K.K.K.K.J.m.k.S.I.L.L.L.L.L.J.J.J.J.J.J.J.S.D.L.L.L./.A.c.M.K.J O y.3X3X3X3X3X3X3X3X3X6X6X6X",
"6X6X3X3X3X3X3X3X3X3X3X3X3X3Xo.; W./.L.K.D.K.J.A.A.K.K.K.K.K.L.A.v.h.c.c.c.c.h.h.M.D.L.L.K.D.S.P.~.H X y.3X3X3X3X3X3X3X3X3X3X6X6X",
"6X3X3X3X3X3X3X3X3X3X3X3X3X3Xu.` S R.B.G.K.!.K.L.L.K.D.!.K.D.L.A.M.c.v.v.v.v.v.c.M.S.K.D.L.K.H.B.R.D ] #X3X3X3X3X3X3X3X3X3X3X3X6X",
"3X3X3X3X3X3X3X3X3X3X3X3X3X3X3X:X' * f M.K.L.L.K.D.D.K.D.D.K.K.D.D.S.D.S.S.K.D.S.K.K.K.K.L.H.b.g & o.3X3X3X3X3X3X3X3X3X3X3X3X3X3X",
"3X3X3X3X3X3X3X3X3X3X3X3X3X3X3X3X|.} l j M.N.M.V.!.K.K.D.K.K.K.K.K.L.K.L.K.L.K.L.K.K.A.M.N.m.g z X.#X3X3X1X3X3X3X3X3X3X3X3X3X3X3X",
"3X3X3X3X3X3X3X3X3X3X3X3X3X3X3X3X3X&X! * h g.z.B.K.K.K.K.K.K.K.K.K.K.K.K.K.K.K.K.K.K.M.g.g.h & { 1X3X3X3X3X3X3X3X3X3X3X3X3X3X3X3X",
"3X3X3X3X3X3X3X3X3X3X3X3X3X3X3X3X3X1X@X .l * l R.L.K.D.K.K.Z.S.S.S.S.S.S.S.D.S.S.K.L.K * l * e.&X3X3X3X3X3X3X3X3X3X3X3X3X3X3X3X3X",
"3X3X3X3X3X3X3X3X3X3X3X3X3X3X3X3X1X3X3X$X! o O L P.K.D.K.!.~.~.~.I.~.~.~.~.~.~.~.I.K.S . o ] :X3X3X3X3X3X3X3X3X3X3X3X3X3X3X3X3X3X",
"3X3X3X3X3X3X3X3X3X3X3X3X3X3X3X3X3X3X3X3X:X} X L P.L.S.S.).{.[.[.[.[.[.[.[.[.[.[.`.K.A . e.1X3X3X3X3X3X3X3X3X3X3X3X3X3X3X3X3X3X3X",
"3X3X3X3X3X3X3X3X3X3X3X3X3X3X3X3X3X3X3X1X.X} A C.P.J.K.(.'.OXoXoXXXXXOXoXOXoXoXOX[._.P Z ..%X3X3X3X3X3X3X3X3X3X3X3X3X3X3X3X3X3X3X",
"3X3X3X3X3X3X3X3X3X3X3X3X3X3X3X3X3X3X1X X+ S K.K.K.K.(.{.oXXXXXXXXXXXXXXXXXXXXXXXXXXX'.Q.x 7 -X3X3X3X3X3X3X3X3X3X3X3X3X3X3X3X3X3X",
"3X3X3X3X3X3X3X3X3X3X3X3X3X3X3X3X3X1Xt.[ S W.I.P.S.S.).XXoXXXXXXXXXXXXXXXXXXXXXXXXXOX].J.Z X {  X3X3X3X3X3X3X3X3X3X3X3X3X3X3X3X3X",
"3X3X3X3X3X3X3X3X3X3X3X3X3X3X3X3X3X.X< x K.P.K.K.K.S.).{.oXXXXXXXXXXXXXXXXX{.XXXXXXXX`.S.z X - ` :X3X3X3X3X3X3X3X3X3X3X3X3X3X3X3X",
"3X3X3X3X3X3X3X3X3X3X3X3X3X3X1X<Xe.Z u m.P.I.K.I.P.K.(.XXXXXXXXXXXXXXXXXXXXXXXXXXoXXX].A.z # g b ` u.3X3X3X3X3X3X3X3X3X3X3X3X3X3X",
"3X3X3X3X3X3X3X3X3X3X3X3X3X3X3X<X~ * h l.J.K.A.W.W.A.).{.OXXXXXXXXXXXXXXXXXXXXXXXXXoX].Z.= $ h h ; o.3X3X3X3X3X3X3X3X3X3X3X3X3X3X",
"3X3X3X3X3X3X3X3X3X3X3X3X3X3X3X<X' : h M.L.N.c.l = W._.XXoXXXXXXXXXXXXXXXXX{.XXXXOXoX].Z.= $ h h - +.3X3X3X3X3X3X3X3X3X3X3X3X3X3X",
"3X3X3X3X3X3X3X3X3X3X3X3X3X3X3X<X' 1 h F.N.C u l x W.U.].XXOXOXOXOXOXOXOXOXOXOXOXXX].).S.J z g i ; +.3X3X3X3X3X3X3X3X3X3X3X3X3X3X",
"3X3X3X3X3X3X3X3X3X3X3X3X3X3X3X3X' * h j.h.c - J K.K.K.K.'.oXoXoXOXOXOX{.OXXXOXXX].K.D.K.K.W.1 X - ..3X3X3X3X3X3X3X3X3X3X3X3X3X3X",
"3X3X3X3X3X3X3X3X3X3X3X3X3X3X6X6X@X} c v c y v R.U.K.J.J.W.U  .W.W. .W. .U U U I Y S.K.K./.Z.2 T O..X3X3X3X3X3X3X3X3X3X3X3X3X3X3X",
"3X3X3X3X3X3X3X3X3X3X3X3X3X6X6X6X6X,X_ X . c h.N.L.K.I.P.S   . % , - - O - X X . x S.I.K.I.C.1 ' 5X6X6X3X3X3X3X3X3X3X3X3X3X3X3X3X",
"3X3X3X3X3X3X3X3X3X3X3X3X6X6X6X6X5X4X#XX.O c h.G.K.K.I.I.H . X.@X}.}.}.|.y.! $ u j K.I.P.G.x.1 ' 5X6X6X6X3X3X3X3X3X3X3X3X3X3X3X3X",
"3X3X3X3X3X3X3X3X3X3X3X6X6X6X6X6X6X6X6X@X; c h.N.L.K.D.C.S ! #X6X6X6X6X6X6X] 1 h F.H.J.A.x.d 2 O.4X6X6X6X6X3X3X3X3X3X3X3X3X3X3X3X",
"3X3X3X3X3X3X3X3X3X3X6X6X6X6X6X6X6X6X6X|.- c h.V.L.I.W.=  .>X6X6X6X6X6X6X4X' 1 h j.k.l.c.v 2 }.4X6X6X6X6X6X6X3X3X3X3X3X3X3X3X3X3X",
"3X3X3X3X3X3X3X3X3X6X6X6X6X6X6X6X6X6X6X|.; c h.V.L.H.K X +.6X6X6X6X6X6X6X5Xr._ v g g s i n o.4X6X6X5X6X6X6X6X6X3X3X3X3X3X3X3X3X3X",
"3X3X3X3X3X3X3X3X6X6X6X6X6X6X6X6X6X6X6X|.; c g.A.J.l.g - +.6X6X6X6X6X6X6X6X6X%X2 & - & & }.6X6X6X6X6X6X6X6X6X6X6X3X3X3X3X3X3X3X3X",
"3X3X3X3X3X3X3X6X6X6X6X6X6X6X6X6X6X6X6X}.O v j.F.m.g l @.#X6X6X6X6X6X6X5X6X6X4Xt.O.+.+.e.>X5X6X6X6X6X6X6X6X6X6X6X6X3X3X3X3X3X3X3X",
"3X3X3X3X3X3X6X6X6X6X6X6X6X6X6X6X6X6X6X|.> c g.h.h : } 5X6X6X6X6X6X6X6X6X6X5X6X6X6X6X6X6X6X5X6X6X6X6X6X6X6X6X6X6X6X6X3X3X3X3X3X3X",
"3X3X3X3X3X6X6X6X6X6X6X6X6X6X6X6X6X6X6X<X X| l l n r.-X6X6X6X6X6X6X6X6X6X6X6X6X6X6X6X6X6X6X5X6X6X6X6X6X6X6X6X6X6X6X6X6X3X3X3X3X3X",
"3X3X3X3X6X6X6X6X6X6X6X6X6X6X6X6X6X6X5X6X6Xr.O o ! ,X6X6X6X6X6X6X6X6X6X6X6X6X6X6X6X6X6X6X6X6X6X6X6X6X6X6X6X6X6X6X6X6X6X6X3X3X3X3X",
"3X3X3X6X6X6X6X6X6X6X6X6X6X6X6X6X6X6X6X6X6X6X6X6X5X6X6X6X6X6X6X6X6X6X6X6X6X6X6X6X6X6X6X6X6X6X6X6X6X6X6X6X6X6X6X6X6X6X6X6X6X3X3X3X",
"3X3X6X6X6X6X6X6X6X6X6X6X6X6X6X6X6X6X6X6X6X6X6X6X6X6X6X6X6X6X6X6X6X6X6X6X6X6X6X6X6X6X6X6X6X6X6X6X6X6X6X6X6X6X6X6X6X6X6X6X6X6X3X3X",
"3X6X6X6X6X6X6X6X6X6X6X6X6X6X6X6X6X6X6X6X6X6X6X6X6X6X6X6X6X6X6X6X6X6X6X6X6X6X6X6X6X6X6X6X6X6X6X6X6X6X6X6X6X6X6X6X6X6X6X6X6X6X6X3X",
"6X6X6X6X6X6X6X6X6X6X6X6X6X6X6X6X6X6X6X6X6X6X6X6X6X6X6X6X6X6X6X6X6X6X6X6X6X6X6X6X6X6X6X6X6X6X6X6X6X6X6X6X6X6X6X6X6X6X6X6X6X6X6X6X"
};
