/* XPM */
static char *xpm_[] = {
/* columns rows colors chars-per-pixel */
"64 64 217 2 ",
"   c #171D2E",
".  c #1C1532",
"X  c #1E1A32",
"o  c #251737",
"O  c #251C32",
"+  c #2B1E33",
"@  c #331E35",
"#  c #1C232E",
"$  c #18252C",
"%  c #1E3E27",
"&  c #1C2332",
"*  c #232A2E",
"=  c #28382D",
"-  c #353A2C",
";  c #242433",
":  c #2A2133",
">  c #262C35",
",  c #2D253C",
"<  c #262939",
"1  c #372637",
"2  c #2A3632",
"3  c #343634",
"4  c #481E39",
"5  c #591C3E",
"6  c #6A1A2F",
"7  c #6F1D32",
"8  c #4A2537",
"9  c #572739",
"0  c #5D323C",
"q  c #64283C",
"w  c #76223B",
"e  c #7A233E",
"r  c #66313D",
"t  c #77323D",
"y  c #02491A",
"u  c #1A4E1D",
"i  c #1A581B",
"p  c #23561F",
"a  c #0A700F",
"s  c #1B6416",
"d  c #1B6B15",
"f  c #1B6218",
"g  c #1B7D1A",
"h  c #25661B",
"j  c #257714",
"k  c #36721B",
"l  c #0F5029",
"z  c #264627",
"x  c #38462A",
"c  c #3C4B2B",
"v  c #235322",
"b  c #295623",
"n  c #395629",
"m  c #384936",
"M  c #086129",
"N  c #166C29",
"B  c #1D7B26",
"V  c #296B29",
"C  c #377C25",
"Z  c #397E24",
"A  c #414D2D",
"S  c #42522E",
"D  c #485B29",
"F  c #505539",
"G  c #436624",
"H  c #486A24",
"J  c #4C632A",
"K  c #52682A",
"L  c #487222",
"P  c #577625",
"I  c #5B7B25",
"U  c #64763B",
"Y  c #657A38",
"T  c #362A41",
"R  c #392E42",
"E  c #383743",
"W  c #6A1744",
"Q  c #771B45",
"!  c #453948",
"~  c #57384B",
"^  c #6C3241",
"/  c #245A48",
"(  c #2A7C48",
")  c #2D7A53",
"_  c #4F4D49",
"`  c #554B4D",
"'  c #554752",
"]  c #5C4C55",
"[  c #595555",
"{  c #634C58",
"}  c #65535A",
"|  c #506857",
" . c #696156",
".. c #6F5B61",
"X. c #745E62",
"o. c #6D6561",
"O. c #746362",
"+. c #7A6465",
"@. c #7A6A65",
"#. c #83233E",
"$. c #8C1B49",
"%. c #AB1E4E",
"&. c #B31E4E",
"*. c #8A2B45",
"=. c #962644",
"-. c #952B41",
";. c #A52D43",
":. c #A6224C",
">. c #AC224D",
",. c #B2244C",
"<. c #BC294A",
"1. c #A53742",
"2. c #A63A42",
"3. c #B93745",
"4. c #C32C49",
"5. c #CD2E49",
"6. c #CB3047",
"7. c #CE3048",
"8. c #D33149",
"9. c #D9394A",
"0. c #E03F4C",
"q. c #E13050",
"w. c #934246",
"e. c #BC4246",
"r. c #80645E",
"t. c #876D6A",
"y. c #867569",
"u. c #917970",
"i. c #967C74",
"p. c #9B7E77",
"a. c #D44748",
"s. c #DD4949",
"d. c #E5444C",
"f. c #EC464C",
"g. c #F8444D",
"h. c #25870E",
"j. c #2C8B0F",
"k. c #2C960C",
"l. c #34910F",
"z. c #39990E",
"x. c #278111",
"c. c #388315",
"v. c #338B11",
"b. c #3A8C13",
"n. c #399410",
"m. c #3C8023",
"M. c #458A1A",
"N. c #499614",
"B. c #5A9E16",
"V. c #5A961A",
"C. c #5C9B18",
"Z. c #638C1E",
"A. c #6A951E",
"S. c #659E1A",
"D. c #6D9D1B",
"F. c #719F1D",
"G. c #4AA010",
"H. c #55A215",
"J. c #65A319",
"K. c #6DA01B",
"L. c #73A21D",
"P. c #7AA51D",
"I. c #76A91C",
"U. c #7AAB1C",
"Y. c #7DB21C",
"T. c #468623",
"R. c #4C8921",
"E. c #5A8322",
"W. c #508B22",
"Q. c #648923",
"!. c #6C9620",
"~. c #76A420",
"^. c #7AA823",
"/. c #4D9366",
"(. c #80AA1E",
"). c #81AE29",
"_. c #85B22A",
"`. c #88B729",
"'. c #90BF2E",
"]. c #90BC32",
"[. c #97C336",
"{. c #9DC53C",
"}. c #A1C93F",
"|. c #998678",
" X c #9C847A",
".X c #A3897C",
"XX c #AD917F",
"oX c #A4CC42",
"OX c #A8CF45",
"+X c #A9D244",
"@X c #849998",
"#X c #AD8C81",
"$X c #AD9683",
"%X c #B49584",
"&X c #B39B85",
"*X c #BA9C88",
"=X c #B6A289",
"-X c #B7A389",
";X c #BAA38A",
":X c #A3ADB1",
">X c #C5A48D",
",X c #C3AB90",
"<X c #CBAC92",
"1X c #D2AF93",
"2X c #C8B093",
"3X c #D5B195",
"4X c #D1B798",
"5X c #D6BB9A",
"6X c #D8BD9B",
"7X c #9AC4AA",
"8X c #BABCC4",
"9X c #BEDBC9",
"0X c #C3C2CC",
"qX c #CFCAD6",
"wX c #D9ECE1",
"eX c #E3F3EA",
"rX c #F2FCF7",
/* pixels */
"6X6X6X6X6X6X6X6X6X6X6X6X6X6X6X6X6X6X6X6X6X6X6X6X6X6X6X6X6X6X6X6X6X6X6X6X6X6X6X6X6X6X6X6X6X6X6X6X6X6X6X6X6X6X6X6X6X6X6X6X6X6X6X6X",
"6X6X6X6X6X6X6X6X6X6X6X6X6X6X6X6X6X6X6X6X6X6X6X6X6X6X6X6X6X6X6X6X6X6X6X6X6X6X6X6X6X6X6X6X6X6X6X6X6X6X6X6X6X6X6X6X6X6X6X6X6X6X6X6X",
"6X6X6X6X6X6X6X6X6X6X6X6X6X6X6X6X6X6X6X6X6X6X6X6X6X6X6X6X6X6X6X6X6X6X6X6X6X6X6X6X6X6X6X6X6X6X6X6X6X6X6X6X6X6X6X6X6X6X6X6X6X6X6X6X",
"6X6X6X6X6X6X6X6X6X6X6X6X6X6X6X6X6X6X6X6X6X6X6X6X6X6X6X6X6X6X6X3X3X6X6X6X6X6X6X6X6X6X6X6X6X6X6X6X6X6X6X6X6X6X6X6X6X6X6X6X6X6X6X6X",
"6X6X6X6X6X6X6X6X6X6X6X6X6X6X6X6X6X6X6X6X6X6X6X6X6X6X6X6X6X6X3X3X3X3X6X6X6X6X6X6X6X6X6X6X6X6X6X6X6X6X6X6X6X6X6X6X6X6X6X6X6X6X6X6X",
"6X6X6X6X6X6X6X6X6X6X6X6X6X6X6X6X6X6X6X6X6X6X6X6X6X6X6X6X6X3X3X3X3X3X3X6X6X6X6X6X6X6X6X6X6X6X6X6X6X6X6X6X6X6X6X6X6X6X6X6X6X6X6X6X",
"6X6X6X6X6X6X6X6X6X6X6X6X6X6X6X6X6X6X6X6X6X6X6X6X6X6X6X6X3X3X3X3X3X3X3X3X6X6X6X6X6X6X6X6X6X6X6X6X6X6X6X6X6X6X6X6X6X6X6X6X6X6X6X6X",
"6X6X6X6X6X6X6X6X6X6X6X6X6X6X6X6X6X6X6X6X6X6X6X6X6X6X6X3X3X3X3X3X3X3X3X3X3X6X6X6X6X6X6X6X6X6X6X6X6X6X6X6X6X6X6X6X6X6X6X6X6X6X6X6X",
"6X6X6X6X6X6X6X6X6X6X6X6X6X6X6X6X6X6X6X6X6X6X6X6X6X6X3X3X3X3X3X3X3X3X3X3X3X3X6X6X6X6X6X6X6X6X6X6X6X6X6X6X6X6X6X6X6X6X6X6X6X6X6X6X",
"6X6X6X6X6X6X6X6X6X6X6X6X6X6X6X6X5X6X6X6X6X6X6X6X6X3X3X3X3X3X3X3X3X3X3X3X3X3X3X6X6X6X6X6X5X6X6X6X6X6X6X6X6X6X6X6X6X6X6X6X6X6X6X6X",
"6X6X6X6X6X6X6X6X6X6X6X6X6X6X6X6X6X5X;X*X=X=X;X&X*X3X3X3X3X3X>XXX%X%X%X&X%X%X%X%X,X6X6X6X6X5X;X=X-X=X;X4X6X6X6X6X6X6X6X6X6X6X6X6X",
"6X6X6X6X6X6X6X6X6X6X6X6X6X6X5X6X6X2X] , R R R T ' >X3X3X3X3XX., R R R R R R R , X.6X6X6X5X2X[ > E > E $X6X6X5X6X6X6X6X6X6X6X6X6X",
"6X6X6X6X6X6X6X6X6X6X6X6X6X6X6X5X=Xy.A D c S S S A y.%X1X>Xi.F S S S S S A S S S F i.2X6X;Xy.0 ^ r r 0 r.&X4X5X6X6X6X6X6X6X6X6X6X",
"6X6X6X6X6X6X6X6X6X6X6X6X6X6X6X4X] 2 Q.U.L.L.L.I.Z.- } 3Xt.> I P.L.F.F.F.F.F.L.I.I * t.6X[ 8 e.f.s.d.a.0 E =X6X6X6X6X6X6X6X6X6X6X",
"6X6X6X6X6X6X6X6X6X6X6X6X5X6X6X6X` * n H G G G H n * , O.E # n H G G G G G G G H c $ E @.~ *.7.f.g.g.d.r O *X6X6X6X6X6X6X6X6X6X6X",
"6X6X6X6X6X6X6X6X6X6X6X6X6X6X6X2X[ : : + O O O + ; : : : : + O O O + O O O + O O O : ; : Q >.4.6.4.7.4.9 / ;X6X6X6X6X6X6X6X6X6X6X",
"6X6X6X6X6X6X6X6X6X6X6X6X6X6X|.[ w.e.2.2.2.-.=.1.1.-.-.-.-.-.=.=.1.1.=.=.2.2.2.2.2.;.=.Q 5 5 %.=.9 8 8 t.;X4X5X6X6X6X6X6X6X6X6X6X",
"6X6X6X6X6X6X6X6X6X6X6X6X6X6Xo.: -.s.d.d.d.0.8.0.d.9.8.8.9.8.8.8.s.d.8.0.d.d.d.d.9.3.:.$.1 O Q 7 + : 1 i.5X6X6X6X6X6X6X6X6X6X6X6X",
"6X6X6X6X6X6X6X6X6X6X6X6X6X6X@.; > 9 =.%.%.<.8.,.>.5.8.7.8.8.8.5.%.,.5.<.>.>.>.>.*.@ + +     + 5 Q :.;.0 [ =X6X6X6X6X6X6X6X6X6X6X",
"6X6X6X6X6X6X6X6X6X6X6X6X6X6X@.; 1 q :.%.%.4.8.<.,.5.8.8.8.8.8.5.,.,.8.4.>.>.,.,.$.9 8 4 4 4   4 ,.q.9.r > =X6X6X6X6X6X6X6X6X6X6X",
"6X6X6X6X6X6X6X6X6X6X6X6X6X6Xo.: -.8.8.5.8.5.8.8.7.8.7.7.7.7.6.5.8.8.8.8.6.7.7.7.7.7.,.$.%.Q + 4 4.f.s.r 3 ;X6X6X6X6X6X6X6X6X6X6X",
"6X6X6X6X6X6X6X6X6X6X6X6X6X3X@.O q #.7 6 6 6 6 6 6 w e w e Q 7 6 6 6 6 6 6 Q Q e e #.w W W 5 . 9 5.g.s.r 3 =X6X6X6X6X6X6X6X6X6X6X",
"6X6X6X6X6X6X6X6X6X6X6X6X3X3X@.; ; X ; < < < < < < & & & $ & ; T < < < < <   $ $ # # X # # #   9 <.f.s.r E =X6X6X6X6X6X6X6X6X6X6X",
"6X6X6X6X6X6X6X6X6X6X6X3X#X} n f y / :XqX0X0X0XqX:X/ y f y l @XqX0X0X0XqX8X| y i s f s s s i # o 8 3.f.t & =X6X6X6X6X6X6X6X6X6X6X",
"6X6X6X6X6X6X6X6X6X6X3X3Xi.O b l.a ( 9XrXeXeXeXrX9X( a l.a N 7XrXeXeXeXrXwX/.a h.l.l.l.l.z.c.z $   t e.r ` *X6X6X6X6X6X6X6X6X6X6X",
"6X6X6X6X6X6X6X6X6X3X3X3Xi.O J J.l.g ( ) ) ) ) ) ( g v.S.N.g B ) ) ) ) ) ) B h.V.D.S.S.S.J.V.j i # : 8 t.>X3X3X6X6X6X6X6X6X6X6X6X",
"6X6X6X6X6X6X6X6X3X3X3X3Xi.: K P.B.b.j d d d d d j b.B.P.J.N.j s s d d d d v.N.L.P.P.P.L.P.K.N.k * , [ &X3X3X3X3X6X6X6X6X6X6X6X6X",
"6X6X6X6X6X6X6X3X3X3X3X3Xi.; J I.L.K.F.D.K.L.D.L.F.L.L.P.L.L.L.F.F.F.F.F.F.L.L.L.K.L.L.L.L.P.I.I ; X.3X3X3X3X3X3X4X6X6X6X6X6X6X6X",
"6X6X6X6X6X6X3X3X3X3X3X3Xi.: J L.U.~.T.Z Z m.m.m.Z Z Z Z Z Z Z M.m.m.m.L Z C T.!.P.L.L.L.L.L.U.I * +.1X3X3X3X3X3X3X3X6X6X6X6X6X6X",
"6X6X6X6X6X3X3X3X3X3X3X3Xi.; J L.U.V.N M M M M M M M M M M M M M M M M M M M N V.L.L.L.L.L.L.U.P ; X.3X3X3X3X3X3X3X3X3X5X6X6X6X6X",
"6X6X6X6X3X3X3X3X3X3X3X3Xi.; J L.N.b.T.R.R.M.R.W.W.W.W.M.W.W.W.W.R.R.M.R.R.R.T.b.N.L.L.L.L.L.U.P : X.3X3X3X3X3X3X3X3X3X3X6X6X6X6X",
"6X6X6X3X3X3X3X3X3X3X3X3Xp.O K ~.N.b.K.P.P.P.P.L.D.K.K.K.D.K.J.K.L.I.P.P.P.(.J.b.M.K.P.L.L.L.U.I > X.3X3X3X3X3X3X3X3X3X3X4X6X6X6X",
"6X5X3X3X3X3X3X3X3X3X3X3Xu.  K U.L.D.F.F.F.P.F.N.j.v.j.v.j.v.j.n.K.P.L.L.P.P.K.S.D.L.L.F.P.L.).I > } 5X3X3X3X3X3X3X3X3X3X3X3X6X6X",
"6X3X3X3X3X3X3X3X3X3X3X3XXX{ F Q.V.J.P.P.P.P.F.N.b.b.b.b.b.b.b.M.K.L.L.L.D.L.F.~.P.L.P.F.J.V.Q.D ` p.3X3X3X3X3X3X3X3X3X3X3X3X3X6X",
"3X3X3X3X3X3X3X3X3X3X3X3X3X3XX.+ h z.S.~.F.F.L.L.D.D.D.D.F.F.S.F.L.L.L.D.F.~.~.F.D.L.P.K.N.j 2 ' >X3X3X3X3X3X3X3X3X3X3X3X3X3X3X3X",
"3X3X3X3X3X3X3X3X3X3X3X3X3X3XXXX.z V N.H.N.C.L.P.P.P.P.P.P.L.P.P.L.L.K.~.L.D.P.F.S.G.B.N.k u [ p.3X3X3X3X3X3X3X3X3X3X3X3X3X3X3X3X",
"3X3X3X3X3X3X3X3X3X3X3X3X3X3X3X3X{ * h h.j N.L.L.D.L.L.L.F.L.L.L.L.L.L.L.F.K.L.~.V.h.h.j = ! *X3X3X3X3X3X3X3X3X3X3X3X3X3X3X3X3X3X",
"3X3X3X3X3X3X3X3X3X3X3X3X3X3X3X3X*Xt.= z % L L.L.D.D.D.D.F.D.D.D.D.D.D.F.L.L.L.P.I z % % } XX3X3X3X3X3X3X3X3X3X3X3X3X3X3X3X3X3X3X",
"3X3X3X3X3X3X3X3X3X3X3X3X3X3X3X3X3X>X] O . D L.U.^.^.^.^.^.^.^.~.~.^.^.~.L.K.L.U.P O . ~ XX3X3X3X3X3X3X3X3X3X3X3X3X3X3X3X3X3X3X3X",
"3X3X3X3X3X3X3X3X3X3X3X3X3X3X3X3X3X3X1Xt.. D L.[.{.{.{.{.{.{.{.{.{.{.{._.D.L.L.I.P O } <X3X3X3X3X3X3X3X3X3X3X3X3X3X3X3X3X3X3X3X3X",
"3X3X3X3X3X3X3X3X3X3X3X3X3X3X3X3X3X3X%Xr.c I `.{.+X+XOXOXOXOXOXOX+XOXOX[.).P.L.L.Z.c  .$X3X3X3X3X3X3X3X3X3X3X3X3X3X3X3X3X3X3X3X3X",
"3X3X3X3X3X3X3X3X3X3X3X3X3X3X3X3X3X*X! x !.[.oXoXoXoXoXoXoXoXoXoXoXoXoXOX{.).D.L.L.L.D : p.3X3X3X3X3X3X3X3X3X3X3X3X3X3X3X3X3X3X3X",
"3X3X3X3X3X3X3X3X3X3X3X3X3X3X3X3X.X{ o c K.[.+X+X}.oXOX}.oXoXoXoXoXoXoXOXoX_.D.L.I.U.Q.D [ u.<X3X3X3X3X3X3X3X3X3X3X3X3X3X3X3X3X3X",
"3X3X3X3X3X3X3X3X3X3X3X3X3X3X3X>X` ; X x D.[.oXoXoXoXoXoXoXoXoXoXoXoXoXOX{._.D.L.L.L.U.L.n , XX3X3X3X3X3X3X3X3X3X3X3X3X3X3X3X3X3X",
"3X3X3X3X3X3X3X3X3X3X3X3X3X3Xp.` n h # x D.'.oXoXoXoX}.oXoXoXoXoXoXoXoXOXoX).D.I.I.L.U.L.M.p _ t.1X3X3X3X3X3X3X3X3X3X3X3X3X3X3X3X",
"3X3X3X3X3X3X3X3X3X3X3X3X3X3XX.* j x.$ - D.'.oXOXOX}.OXoXoXoX}.oXoXoXoXOXoX).D.Z.Q.S.L.L.N.j * ' <X3X3X3X3X3X3X3X3X3X3X3X3X3X3X3X",
"3X3X3X3X3X3X3X3X3X3X3X3X3X3XX.: j j $ - D.[.OXOX}.+XOX}.oXoXoX+XoXoXoX+XoX`.Q.- z v.H.F.N.j = ' 1X3X3X3X3X3X3X3X3X3X3X3X3X3X3X3X",
"3X3X3X3X3X3X3X3X3X3X3X3X3X3XO.; b h x D D.`.].oX+X+X+X+X+X+X+X+X+X+X+X}.].).Z.c z i M.C.z.j * ` >X3X3X3X3X3X3X3X3X3X3X3X3X3X3X3X",
"3X3X3X3X3X3X3X3X3X3X3X3X3X3X+.; X 2 Z.P.L.K.P.[.+X}.+X+X+X+X+X+X+X+X+X].L.L.L.L.K O u j.k.j = ' 3X3X3X3X3X3X3X3X3X3X3X3X3X3X3X3X",
"3X3X3X3X3X3X3X3X3X3X3X3X3X3X&XO.T 3 !.U.L.K.D.Y U U U Y Q.| U U U U U Q.K.L.L.U.Z.b u v b v  ..X6X6X3X3X3X3X3X3X3X3X3X3X3X3X3X3X",
"3X3X3X3X3X3X3X3X3X3X3X3X3X6X6X5X] 2 Q.U.L.U.F.c . X O O X O ; O ; X . D L.I.L.P.B.j.v X O ! ,X5X6X6X6X3X3X3X3X3X3X3X3X3X3X3X3X3X",
"3X3X3X3X3X3X3X3X3X3X3X3X6X6X6X5X' 2 c.H.L.).F.k u $ ! i.XXi.|.|.#X} . J Y.U.L.P.B.k.v o X.&X5X6X6X6X6X6X3X3X3X3X3X3X3X3X3X3X3X3X",
"3X3X3X3X3X3X3X3X3X3X3X6X6X6X6X4XO.2 f c.S.K.J.z.j = ] 5X5X6X6X6X5X$X! D A.D.~.L.B.j.v ; XX5X6X5X6X6X6X6X6X3X3X3X3X3X3X3X3X3X3X3X",
"3X3X3X3X3X3X3X3X3X3X6X6X6X6X6X6X4X|.2 b v.z.l.k.j = ' 5X6X6X6X6X6X5X;X .- E.^.P.C.j.v ;  X6X6X6X6X6X6X6X6X6X3X3X3X3X3X3X3X3X3X3X",
"3X3X3X3X3X3X3X3X3X6X6X6X6X6X5X6X6X4XX.m h h h h p _ y.5X6X6X6X6X6X6X6X@.X L J.P.C.j.v :  X6X6X6X6X6X6X6X6X6X6X3X3X3X3X3X3X3X3X3X",
"3X3X3X3X3X3X3X3X6X6X6X6X6X6X6X6X6X6X6X|.; ; ; < 3 =X5X5X6X6X6X6X6X6X6X+.< h z.K.S.j.v :  X6X6X6X6X6X6X6X6X6X6X6X3X3X3X3X3X3X3X3X",
"3X3X3X3X3X3X3X6X6X6X6X6X6X6X6X6X5X6X6X,X@.+.+.O.u.5X6X6X5X6X6X6X6X6X6X&X@.m h M.N.k.p O |.5X6X6X6X6X6X6X6X6X6X6X6X3X3X3X3X3X3X3X",
"3X3X3X3X3X3X6X6X6X6X6X6X6X6X6X6X6X6X5X6X6X6X6X6X6X6X5X6X6X6X6X6X6X6X6X6X5X{ & j j.h.p 1 .X5X6X6X6X6X6X6X6X6X6X6X6X6X3X3X3X3X3X3X",
"3X3X3X3X3X6X6X6X6X6X6X6X6X6X6X6X6X6X6X6X6X6X6X6X6X6X5X6X6X6X6X6X6X6X6X6X6X;Xy.m z %  ..X<X5X6X6X6X6X6X6X6X6X6X6X6X6X6X3X3X3X3X3X",
"3X3X3X3X6X6X6X6X6X6X6X6X6X6X6X6X6X6X6X6X6X6X6X6X6X6X6X6X6X6X6X6X6X6X6X6X6X6X2XE O O y.6X5X5X6X6X6X6X6X6X6X6X6X6X6X6X6X6X3X3X3X3X",
"3X3X3X6X6X6X6X6X6X6X6X6X6X6X6X6X6X6X6X6X6X6X6X6X6X6X6X6X6X6X6X6X6X6X6X6X6X6X6X6X6X6X6X6X6X6X6X6X6X6X6X6X6X6X6X6X6X6X6X6X6X3X3X3X",
"3X3X6X6X6X6X6X6X6X6X6X6X6X6X6X6X6X6X6X6X6X6X6X6X6X6X6X6X6X6X6X6X6X6X6X6X6X6X6X6X6X6X6X6X6X6X6X6X6X6X6X6X6X6X6X6X6X6X6X6X6X6X3X3X",
"3X6X6X6X6X6X6X6X6X6X6X6X6X6X6X6X6X6X6X6X6X6X6X6X6X6X6X6X6X6X6X6X6X6X6X6X6X6X6X6X6X6X6X6X6X6X6X6X6X6X6X6X6X6X6X6X6X6X6X6X6X6X6X3X",
"6X6X6X6X6X6X6X6X6X6X6X6X6X6X6X6X6X6X6X6X6X6X6X6X6X6X6X6X6X6X6X6X6X6X6X6X6X6X6X6X6X6X6X6X6X6X6X6X6X6X6X6X6X6X6X6X6X6X6X6X6X6X6X6X"
};
