/* XPM */
static char * player_xpm[] = {
"64 64 649 2",
"  	c #5B5D5C",
". 	c #5F6160",
"+ 	c #616362",
"@ 	c #626463",
"# 	c #636564",
"$ 	c #626362",
"% 	c #626262",
"& 	c #616161",
"* 	c #5E5E5E",
"= 	c #525252",
"- 	c #4D4D4D",
"; 	c #595A59",
"> 	c #666867",
", 	c #696B6A",
"' 	c #676968",
") 	c #656666",
"! 	c #636464",
"~ 	c #606060",
"{ 	c #5E5F5F",
"] 	c #606161",
"^ 	c #585858",
"/ 	c #4A4A4A",
"( 	c #4C4C4C",
"_ 	c #4F4F4F",
": 	c #555555",
"< 	c #5C5E5D",
"[ 	c #5D5F5E",
"} 	c #5E605F",
"| 	c #5F5F5F",
"1 	c #5B5C5B",
"2 	c #5A5C5B",
"3 	c #565857",
"4 	c #494A4A",
"5 	c #494949",
"6 	c #505050",
"7 	c #555656",
"8 	c #595B5A",
"9 	c #585A59",
"0 	c #5B5D5E",
"a 	c #5A5B5D",
"b 	c #565759",
"c 	c #4B4B4B",
"d 	c #686969",
"e 	c #676868",
"f 	c #646565",
"g 	c #656565",
"h 	c #666666",
"i 	c #5E5E5F",
"j 	c #545455",
"k 	c #696A69",
"l 	c #696A6A",
"m 	c #6A6B6A",
"n 	c #676767",
"o 	c #656665",
"p 	c #646564",
"q 	c #616261",
"r 	c #636363",
"s 	c #6C6C6C",
"t 	c #6D6E6D",
"u 	c #6C6D6D",
"v 	c #6B6C6B",
"w 	c #686968",
"x 	c #656766",
"y 	c #646464",
"z 	c #616262",
"A 	c #606162",
"B 	c #5D5E5E",
"C 	c #545555",
"D 	c #545454",
"E 	c #5D5D5D",
"F 	c #5D5E5F",
"G 	c #5C5E5E",
"H 	c #5A5C5D",
"I 	c #575859",
"J 	c #5C5C5C",
"K 	c #5B5B5C",
"L 	c #5B5B5D",
"M 	c #59595B",
"N 	c #575759",
"O 	c #5F5F60",
"P 	c #595959",
"Q 	c #515151",
"R 	c #6B6B6B",
"S 	c #6D6D6D",
"T 	c #5B5C5C",
"U 	c #5A5B5C",
"V 	c #58595B",
"W 	c #545557",
"X 	c #5E5E5D",
"Y 	c #5C5D5F",
"Z 	c #5B5C5E",
"` 	c #5B5D5D",
" .	c #575857",
"..	c #5B5B5B",
"+.	c #58585B",
"@.	c #58585A",
"#.	c #5A5A5A",
"$.	c #6A6A6A",
"%.	c #5D5E60",
"&.	c #5A5C5C",
"*.	c #575858",
"=.	c #5D5E5D",
"-.	c #5C5D5C",
";.	c #626263",
">.	c #585A5B",
",.	c #545656",
"'.	c #5C5F5E",
").	c #56575A",
"!.	c #636364",
"~.	c #535555",
"{.	c #606261",
"].	c #5B5C5D",
"^.	c #57585A",
"/.	c #4E4F4F",
"(.	c #595A5B",
"_.	c #5C5D5D",
":.	c #5A5B5B",
"<.	c #535554",
"[.	c #575958",
"}.	c #606160",
"|.	c #4E4E4F",
"1.	c #595B5B",
"2.	c #5F6060",
"3.	c #585958",
"4.	c #515251",
"5.	c #5E5F5E",
"6.	c #5A5B5A",
"7.	c #595A5C",
"8.	c #555658",
"9.	c #5E5F60",
"0.	c #4F5150",
"a.	c #525453",
"b.	c #565756",
"c.	c #4E4E4E",
"d.	c #5A5B5E",
"e.	c #595A5D",
"f.	c #58595C",
"g.	c #5B5C5F",
"h.	c #4E504F",
"i.	c #515252",
"j.	c #565656",
"k.	c #5F605F",
"l.	c #4D4E4E",
"m.	c #595B5C",
"n.	c #585A5A",
"o.	c #57595A",
"p.	c #535456",
"q.	c #4D4E4D",
"r.	c #585959",
"s.	c #4D4D4E",
"t.	c #595A5A",
"u.	c #525355",
"v.	c #545655",
"w.	c #4B4C4B",
"x.	c #565758",
"y.	c #565757",
"z.	c #555756",
"A.	c #535556",
"B.	c #4F5053",
"C.	c #4E4F51",
"D.	c #58595A",
"E.	c #575959",
"F.	c #484A4A",
"G.	c #4F5050",
"H.	c #505151",
"I.	c #555655",
"J.	c #555757",
"K.	c #535455",
"L.	c #4A4A4B",
"M.	c #505251",
"N.	c #4F5151",
"O.	c #505152",
"P.	c #4E5051",
"Q.	c #4C4D4F",
"R.	c #4E4F50",
"S.	c #505252",
"T.	c #555657",
"U.	c #545556",
"V.	c #515253",
"W.	c #494A4B",
"X.	c #4C4D4D",
"Y.	c #535454",
"Z.	c #525352",
"`.	c #505150",
" +	c #4B4C4C",
".+	c #4A4B4A",
"++	c #484848",
"@+	c #515352",
"#+	c #505153",
"$+	c #484949",
"%+	c #4C4C4E",
"&+	c #5C5C5F",
"*+	c #5C5C5E",
"=+	c #555459",
"-+	c #4D4B51",
";+	c #4C4A50",
">+	c #555557",
",+	c #575757",
"'+	c #535353",
")+	c #565859",
"!+	c #49494B",
"~+	c #626363",
"{+	c #5F6061",
"]+	c #5E5F61",
"^+	c #4F4F51",
"/+	c #5A5A5C",
"(+	c #5D5D5F",
"_+	c #5F5F61",
":+	c #5B5B5E",
"<+	c #412F5A",
"[+	c #40356E",
"}+	c #3F3D8A",
"|+	c #413469",
"1+	c #534E5C",
"2+	c #5C5C5D",
"3+	c #5C5E5F",
"4+	c #515153",
"5+	c #5E5E60",
"6+	c #4B425A",
"7+	c #3E3A84",
"8+	c #3F4192",
"9+	c #3F4191",
"0+	c #4D3F8C",
"a+	c #8F2E5A",
"b+	c #A82F59",
"c+	c #99284A",
"d+	c #3F3974",
"e+	c #5D5F5F",
"f+	c #4F5052",
"g+	c #5A5A5D",
"h+	c #3E3C88",
"i+	c #6B3D85",
"j+	c #B5242D",
"k+	c #AB263B",
"l+	c #873876",
"m+	c #863876",
"n+	c #853877",
"o+	c #A32A4B",
"p+	c #3E3975",
"q+	c #5D5C5D",
"r+	c #5C5D5E",
"s+	c #3F2B5A",
"t+	c #613C82",
"u+	c #823268",
"v+	c #3A4192",
"w+	c #3B4192",
"x+	c #323A90",
"y+	c #C56D83",
"z+	c #243F93",
"A+	c #72326C",
"B+	c #524D5B",
"C+	c #5D5D5E",
"D+	c #58565D",
"E+	c #3F3F8D",
"F+	c #3E4191",
"G+	c #4E4691",
"H+	c #F9CEBD",
"I+	c #FAD9C7",
"J+	c #C5758B",
"K+	c #423669",
"L+	c #545554",
"M+	c #57565B",
"N+	c #484491",
"O+	c #E8C0B8",
"P+	c #F8D0C0",
"Q+	c #A1888A",
"R+	c #462655",
"S+	c #3E3D89",
"T+	c #5A5D5C",
"U+	c #413161",
"V+	c #3F4190",
"W+	c #533263",
"X+	c #E49493",
"Y+	c #F2ACA4",
"Z+	c #BF6575",
"`+	c #A64364",
" @	c #3B2F70",
".@	c #3F3D89",
"+@	c #57575C",
"@@	c #3E2A63",
"#@	c #4F428F",
"$@	c #A34973",
"%@	c #3C4191",
"&@	c #19173C",
"*@	c #875D5E",
"=@	c #F9D8C5",
"-@	c #F9D7C5",
";@	c #90A2B2",
">@	c #000000",
",@	c #2F2E63",
"'@	c #3F2C5D",
")@	c #3D2A63",
"!@	c #B15070",
"~@	c #ED9192",
"{@	c #343E91",
"]@	c #3B3B8F",
"^@	c #7D9AB5",
"/@	c #F4D3C1",
"(@	c #FFF3ED",
"_@	c #3C2054",
":@	c #3F4090",
"<@	c #544866",
"[@	c #4E2F6F",
"}@	c #3C265C",
"|@	c #B35D75",
"1@	c #F6C2B5",
"2@	c #976390",
"3@	c #9597B8",
"4@	c #EDEEEE",
"5@	c #F3D2C0",
"6@	c #F9D8C6",
"7@	c #FEF2EC",
"8@	c #8B8E8F",
"9@	c #9F5F70",
"0@	c #525353",
"a@	c #50386D",
"b@	c #4A236E",
"c@	c #442255",
"d@	c #AC4266",
"e@	c #DD7E84",
"f@	c #C6788C",
"g@	c #F2AEA5",
"h@	c #FBD8C6",
"i@	c #FAD8C6",
"j@	c #F4BAAF",
"k@	c #FBD9C7",
"l@	c #A95469",
"m@	c #4A405C",
"n@	c #5C5B5C",
"o@	c #55515F",
"p@	c #4C2372",
"q@	c #4D2171",
"r@	c #432262",
"s@	c #B7596E",
"t@	c #EA8D8E",
"u@	c #F7CDBD",
"v@	c #CD8F91",
"w@	c #EDC5B8",
"x@	c #EFB0A7",
"y@	c #8A385F",
"z@	c #3E377E",
"A@	c #4C4E4D",
"B@	c #50475D",
"C@	c #4D2573",
"D@	c #7781B6",
"E@	c #4E2A75",
"F@	c #472365",
"G@	c #AD4C69",
"H@	c #BE6475",
"I@	c #EA9997",
"J@	c #F2CDBD",
"K@	c #C6737D",
"L@	c #8B3D61",
"M@	c #3C2155",
"N@	c #3D2355",
"O@	c #4D4F4E",
"P@	c #565858",
"Q@	c #484A49",
"R@	c #4C2871",
"S@	c #7983B8",
"T@	c #8190C5",
"U@	c #7E8BC0",
"V@	c #511F73",
"W@	c #79577C",
"X@	c #908D8E",
"Y@	c #856367",
"Z@	c #BC5870",
"`@	c #835662",
" #	c #ADADAE",
".#	c #51495B",
"+#	c #442F5A",
"@#	c #423255",
"##	c #474948",
"$#	c #545657",
"%#	c #4A4B4B",
"&#	c #4D4E4F",
"*#	c #606061",
"=#	c #656564",
"-#	c #646566",
";#	c #636465",
">#	c #616264",
",#	c #666A7A",
"'#	c #7F8DC2",
")#	c #7B86BB",
"!#	c #9577B8",
"~#	c #A190A0",
"{#	c #6B6A99",
"]#	c #AEAEAE",
"^#	c #726C6C",
"/#	c #E48D8D",
"(#	c #8F696B",
"_#	c #A084A1",
":#	c #B1B1B0",
"<#	c #C3C3C4",
"[#	c #535453",
"}#	c #515152",
"|#	c #525254",
"1#	c #626365",
"2#	c #676B7A",
"3#	c #7F8CC1",
"4#	c #4D2071",
"5#	c #9F81A9",
"6#	c #9E9F9E",
"7#	c #4B4E4F",
"8#	c #8C618E",
"9#	c #858888",
"0#	c #939393",
"a#	c #ABACAB",
"b#	c #A6A6A6",
"c#	c #A9A9A9",
"d#	c #696969",
"e#	c #5F6062",
"f#	c #4F4F50",
"g#	c #535354",
"h#	c #626465",
"i#	c #626364",
"j#	c #8190C4",
"k#	c #52367B",
"l#	c #4F2573",
"m#	c #A28CA3",
"n#	c #737272",
"o#	c #32393E",
"p#	c #5C5060",
"q#	c #A07FA2",
"r#	c #9D9D9D",
"s#	c #B0B0B0",
"t#	c #AFB0B0",
"u#	c #616263",
"v#	c #4C4C4D",
"w#	c #575656",
"x#	c #808FC3",
"y#	c #53397D",
"z#	c #544789",
"A#	c #616883",
"B#	c #495376",
"C#	c #5C6A9E",
"D#	c #67566A",
"E#	c #9F8DA1",
"F#	c #9D9E9E",
"G#	c #A2A3A3",
"H#	c #B1B1B1",
"I#	c #B3B3B2",
"J#	c #464C5B",
"K#	c #5B5E5E",
"L#	c #7B545E",
"M#	c #4D4F4F",
"N#	c #808FC4",
"O#	c #52397D",
"P#	c #A2446D",
"Q#	c #8F689E",
"R#	c #7B74B0",
"S#	c #586295",
"T#	c #483B45",
"U#	c #733953",
"V#	c #74456A",
"W#	c #75466B",
"X#	c #565A65",
"Y#	c #6A73AE",
"Z#	c #B85871",
"`#	c #C06878",
" $	c #F6CBBC",
".$	c #F8D6C4",
"+$	c #884E5E",
"@$	c #4C4E4E",
"#$	c #7A5960",
"$$	c #B35978",
"%$	c #B1506F",
"&$	c #B24C6B",
"*$	c #EA9090",
"=$	c #CB6D7B",
"-$	c #5B5D62",
";$	c #46484E",
">$	c #A062A3",
",$	c #A9A3AF",
"'$	c #999AA0",
")$	c #A5A6AB",
"!$	c #AFB4CB",
"~$	c #81535F",
"{$	c #E4878B",
"]$	c #E6898C",
"^$	c #EE9392",
"/$	c #894D5E",
"($	c #575758",
"_$	c #7C5760",
":$	c #ED9090",
"<$	c #EE9191",
"[$	c #C16175",
"}$	c #F3AEA6",
"|$	c #895161",
"1$	c #B3B3B3",
"2$	c #726E72",
"3$	c #A0A0A0",
"4$	c #B4B8CE",
"5$	c #895461",
"6$	c #EC8F90",
"7$	c #E18489",
"8$	c #BE5B72",
"9$	c #C16F7D",
"0$	c #635A5B",
"a$	c #5A5A5B",
"b$	c #665C5E",
"c$	c #C66677",
"d$	c #EB8E8F",
"e$	c #C05E73",
"f$	c #BB6477",
"g$	c #A8AAA9",
"h$	c #9A9CA4",
"i$	c #808080",
"j$	c #787878",
"k$	c #777777",
"l$	c #808180",
"m$	c #7E5661",
"n$	c #7D5560",
"o$	c #7F5760",
"p$	c #665A5C",
"q$	c #635B5D",
"r$	c #8D5162",
"s$	c #B14869",
"t$	c #84648B",
"u$	c #5B5A56",
"v$	c #6D4C54",
"w$	c #9E2D41",
"x$	c #774652",
"y$	c #764652",
"z$	c #774651",
"A$	c #903846",
"B$	c #756293",
"C$	c #6E618B",
"D$	c #76669E",
"E$	c #AD2136",
"F$	c #A4243D",
"G$	c #902242",
"H$	c #BE2633",
"I$	c #8E2243",
"J$	c #962341",
"K$	c #BF2632",
"L$	c #99223F",
"M$	c #6C4D55",
"N$	c #4F5051",
"O$	c #9D4858",
"P$	c #BC515B",
"Q$	c #CB5257",
"R$	c #BD2432",
"S$	c #C5434A",
"T$	c #CC5257",
"U$	c #7D3E4E",
"V$	c #515254",
"W$	c #91424A",
"X$	c #A4323F",
"Y$	c #C05E63",
"Z$	c #E48686",
"`$	c #D68283",
" %	c #5E5554",
".%	c #CA7C7D",
"+%	c #E4898A",
"@%	c #7C314B",
"#%	c #7F344D",
"$%	c #59585A",
"%%	c #4D4E50",
"&%	c #56585A",
"*%	c #595B59",
"=%	c #8B404B",
"-%	c #864955",
";%	c #68595A",
">%	c #A42A3B",
",%	c #584B4C",
"'%	c #6E374A",
")%	c #742D4D",
"!%	c #6C4656",
"~%	c #61595B",
"{%	c #525454",
"]%	c #575957",
"^%	c #6471A3",
"/%	c #6B7CBD",
"(%	c #5E5D5B",
"_%	c #5B5D64",
":%	c #4B4B4E",
"<%	c #686797",
"[%	c #6C76B4",
"}%	c #656F9B",
"|%	c #585859",
"1%	c #535252",
"2%	c #9F2132",
"3%	c #A0202F",
"4%	c #A02235",
"5%	c #6F4346",
"6%	c #6D3447",
"7%	c #752442",
"8%	c #752544",
"9%	c #6D374A",
"0%	c #525253",
"a%	c #4B4D4D",
"b%	c #474848",
"c%	c #5A585A",
"d%	c #9F2436",
"e%	c #535253",
"f%	c #752847",
"g%	c #5C5D60",
"h%	c #5E605E",
"i%	c #5D5F60",
"j%	c #59595A",
"k%	c #8A3F47",
"l%	c #5F4B51",
"m%	c #69434D",
"n%	c #933540",
"o%	c #9A3856",
"p%	c #974062",
"q%	c #9F2335",
"r%	c #713149",
"s%	c #752543",
"t%	c #6D72AE",
"u%	c #5C5458",
"v%	c #913843",
"w%	c #98344A",
"x%	c #973851",
"y%	c #9B2A38",
"z%	c #6F344A",
"A%	c #732E49",
"B%	c #732F49",
"C%	c #6C3F4E",
"D%	c #565657",
"E%	c #525354",
"F%	c #515353",
"G%	c #4F504F",
"H%	c #505253",
"I%	c #535557",
"J%	c #555759",
"K%	c #4A4C4C",
"L%	c #4B4C4D",
"M%	c #494B4B",
"N%	c #4B4D4C",
"O%	c #555758",
"P%	c #595B5D",
"Q%	c #494B4A",
"R%	c #525356",
"S%	c #535457",
"T%	c #484948",
"U%	c #4B4B4C",
"V%	c #616163",
"W%	c #545456",
"X%	c #4D4D4F",
"Y%	c #535355",
"Z%	c #555556",
"`%	c #686868",
" &	c #565658",
".&	c #565558",
"+&	c #535254",
"@&	c #505051",
"#&	c #57595B",
"  . + @ @ # # $ % & & * = - ; @ > , , ' ) ! ~ { { . ] ^ / ( _ : ;   < < [ } } } } { | * 1 2 3 4 5 6 7 8 9 9 9 8 2       0 a b c ",
"d e ) f # f f f g h h g i j k l l m l l d d n ) o p o q - = r s t u v m l d w > x ) g y z A B C D E B } [ [ B F [ [ [ G G H I - ",
"n ~ * * E E E J J J K L M N O ~ ~ ~ ~ | | | | * * E J P Q J R S R g & ~ | ~ | | * E E J T U V W ; X * < < < F Y Z `       2  .Q ",
"g | * * E J J J J J ..K +.@.& | | * * * * * * E E J ..#.= * $.$.y ~ | | * * * E J J J J T a V W P ~ o . } [ %.%.Y <       &.*.= ",
"% | B =.E -.J J T T ..K @.@.;.| | * [ * * * B E E J J #.= * n & | | | * * * E E J J J J T a >.,.; n ! [ [ [ %.Y Y <     ` &.I _ ",
"} '.< < <       2 2 2 U ).b !.~ * [ [ [ [ '.< E E J J #.= | g | | | * * * * J E J J J ....2 9 ~.3 + {.< [ [ Y Y Y       Z ].^./.",
"[ < < <         2 2 8 (.).b z ~ * [ [ [ [ < < _.J ....P = * g | * * * * * E E E J J ....:.8 9 <.[.}.. < < < Y Y 0 <     Z a ^.|.",
"<   < <   ` ].T &.U 1.(.).b A 2.{ [ [ [ B G ` T 1 ....3.4._.y | 5.* =.B B _._._.T T :.:.6.8 9 <. .q ] < < < Y Z Z &.&.T a 7.b |.",
"          Z Z a a a 7.7.b 8.9.. [ < < < Y Y Z &.2 2 2 [.0.T r | | [ < < <       2 2 2 8 8 9 [.a.b.% 2.<     Z Z Z a a a a a b c.",
"  2 2 2 2 H d.e.e.f.V V b W _.. < < <   ].g.d.&.2 8 8 [.h.6.% * * < < <       2 2 2 2 9 9 [.3 i.j.% k.    2 a Z Z a a 7.a 7.^.l.",
"T 1 2 8 8 1.m.1.>.n.o.^.b p.` [   < < 2 2 H &.:.8 8 8 3 q.r.& * E   <   2 2 2 8 8 8 9 9 9 [.b.h.D & * 2 8 8 1.1.7.7.7.7.V V b s.",
"t.#.8 8 8 8 8 9 9 [.[.I 8.u.U         2 2 2 8 8 8 9 9 v.w.i.J E E   < 2 2 2 2 8 8 8 9 [.3 : = ( _ ..; 8 9 n.9 9 9 V V V V V x.( ",
"Q j.y.3 3 3 3 3 z.z.z.A.B.C.D.8 1.2 :.8 8 9 8 8 9 E.z.h.F.G.P ....2 2 2 8 3.[.3 3 3 z.<.H.Q 6 / / i.I.3 3 3 3 3 J.8.8.8.8.8.K.L.",
"_ G.H.M.0.N.N.O.N.N.0.P.Q.Q.R.S.~.,.,.T.,.7 T.J.,.U.K.V.W.X.Y.: b.3 3.*.I.Z.`.h./.l.q. +.+/ 5 ++/ _ 4.@+a.a.Y.<.Y.p.W W u.#+R.$+",
"g ~ <     ].a a a 7.a L @.%+V.@.&+Y Y Y Y Y Y *+L U +.=+-+;+>+,+E E J J ..P j.D '+i._ c / / 5 ++c '+7 z.3 3 )+I b b V V b b u.!+",
"R n ~+{.. {+]+%.%.%.Y Y M ^+/+(+_+]+%.Y Y Y Y Y :+<+[+}+}+}+|+1+2+E E J J J ....#.#.P : Q 6 - 5 6 ~ f {.} < 3+%.a Z Z a a a ^.%+",
"$.r }.. . ]+]+%.%.%.Y (+/+4+i 9.5+%.%.Y Y Y Y 6+7+8+9+9+0+a+b+c+d+E E E J J J ......#.t.3.,+: c.'+f ] e+e+F Y Z Z Z Z a a a ^.f+",
"n q . . } ]+]+%.%.%.Y F ..= B [ [ F %.Y Y Y g+h+9+9+i+j+k+l+m+n+o+p+q+E J J T 2 2 2 8 9 9 [.z.0.D r | %.%.%.Y Y Y Z Z Z 7.a ^.C.",
"g ~ 2.} } 9.]+%.%.%.Y B ..Z.[ [ < r+Y Y Y Y s+9+9+t+u+v+w+9+x+y+z+A+B+E J J 1 2 2 2 8 9 9 z.v.`.'+r { %.Y Y Y Y Z Z Z a a 7.)+P.",
"% ~ ~ { } } 9.%.%.%.Y C+..Z.[ [ < G Y Y Y D+E+9+9+F+9+9+9+G+H+I+J+F+K+2+J J 1 2 2 1.1.n.r.C L+`.'+r i %.Y Y Y Y Z Z Z a a a ^.O.",
"~ | ~ * * [ [ e+Y Y Y _.#.= =.< < < < <   M+E+9+9+9+9+9+N+O+P+Q+R+9+S+7.T+T+  2   1.7.f.@.: D 6 '+% i %.Y Y Y Z Z Z Z a a a I H.",
"| * * * * [ [ < Y Y Y _.#.4.=.< < <       U+9+9+9+9+9+V+W+X+Y+Z+`+ @.@+@    2 8 2 1.f.V N D D 6 '+& C+Y Z Z Z Z Z a a a 7.7.).6 ",
"E | * * * [ [ < Y Y Y _.#.4.=.< <         @@#@$@%@9+8+&@*@=@-@;@>@,@9+'@  2 2 8 8 t.V o.x.D D 6 '+& C+Y Z Z Z Z Z a a a 7.7.)._ ",
"E y { [ < Y Y Y Y Y Z ` 9 M.<   2 2 2 2 a )@!@~@{@]@^@>@/@-@-@(@>@_@:@'@2 2 2 8 9 9 [.3 <.'+'+6 = & r+Z Z Z Z Z a 7.7.7.7.V x.G.",
"E y { < G Z Y Y Z Z a T 9 0.    2 8 8 <@[@}@|@1@2@3@4@>@5@-@6@7@8@9@:@'@2 8 8 8 8 3 v.<.0@= '+6 6 O ].a a a a a 7.a 7.V V V 8.G.",
"J E <     Z Z Z Z a a &.9 h.8 2 1 8 8 9 a@b@c@d@e@f@g@h@-@i@j@-@k@l@E+m@2 8 8 8 9 9 n.E.<.Z.0@6 _ ~ T a a a a 7.7.V V V V V 8.G.",
"J n@      Z Z Z a a a 2 [.h.Z.,+3.3.[.[.o@p@p@q@r@s@t@u@-@v@w@6@x@y@z@D.8 8 8 9 9 D.^.^.K.i.@+0._ ~ U 7.7.7.7.7.7.V V V ^.^.8.h.",
"..T       ].Z Z a 7.7.(.3 A@q.c.6 H.M.@+4.B@C@D@E@F@G@H@I@J@J@K@L@M@N@b 9 9 9 9 9 [.b ^.W a.@+l.( ..; V V V V V V V V ^.b b p.O@",
"L+y.P@x.3 b b b b W W U.0.Q@/.Q Q G.G.h./.R@S@T@U@V@W@X@Y@Z@`@ #.#+#@#[.[.[.*. .3 y.8.T.U.<.0.##5 c.'+W U.W W W W 8.8.$#W p.C.%#",
"a.T Z Z Z Z Z Z Z a a 7.x.&#*#y =#-#-#;#>#,#'#)#!#~#{#]#^#/#(#_#:#<#I.L+v.<.[#'+= Q }#Q _ - 5 ++c = ^ J * C+r+Z a 7.V ^.^.b 4+5 ",
"2 [ %.%.%.%.%.Y %.Y Y Y /+|#~ r r ;#1#1#1#2#3#4#5#6#7 7#8#9#0#a#D b#c#3.[.[.*.^ ,+,+,+j.D Q  +5 D $.s R d#n -#1#e#]+%.Y Y Z M f#",
"[ [ %.%.%.Y Y Y %.Y Y *+/+g#*#r !.;#h#1#i#j#k#l#m#n#o#p#q#r#r#s#t#u#b#2.} . { * B E 2+C+K #.y.v#w#$.e ~+| 2.9.F r+Y Y r+Z Z V |.",
"} [ %.%.%.%.%.Y Y Y Z ].#.= * | | { { [ B x#y#z#A#B#C#D#E#F#G#H#I#J#K#-.L#L#  2 2 U 7.7.7.@.b f+^ n }.[ [ [ [ [ < < < =.Z Z V M#",
"[ [ %.%.Y Y Y Y Z Z Z T #.Q * * * [ [ < < N#O#P#Q#R#S#T#U#V#W#W#X#Y#Z#`# $.$+$2 2 U 7.V V V b #+^ % } [ [ [ < < < [ < ` Z Z V @$",
"} [ F %.Y Y Y Y Z Z Z T P 6 * * * * [ < #$$$%$&$*$=$-$;$>$,$'$)$!$~${$]$^$-@/$2 2 2 7.V V V b O.($% { [ [ [ < < < `   ` Z Z V @$",
"=.* < < < ` ` ` Z Z a :.P 6 * * * B < < _$:$<$[$}$|$1$2$s#3$r#H#4$5$6$7$8$9$0$2 8 8 8 8 E.E.y.M.y.{.[ [ < < r+Y g.g.g.Z a a ^.X.",
"E E <   <       ].a a a$P c.* E * =.< < b$c$d$e$f$g$h$f i$j$k$i$l$=.m$n$o$p$2 8 8 8 8 9 9 [.z.M.z.} < [ < < Y Z Z Z Z a a a V v#",
"..n@            a a a :.^ c.* * E E <     q$r$s$t$u$v$w$x$y$z$z$A$B$Y a 2 9 8 8 8 8 9 9 9 3 v.M.C } _.< < < Z Z Z Z a a a 7.V w.",
"#.........2 2 2 2 2 8 8 [.O@< [ <       ].a a a C$D$E$F$G$H$I$J$K$L$M$7.2 8 9 9 9 9 [.[.E.8.p.N$= | _.Z Z Z Y Z Z Z a a 7.a ^. +",
"^ #.......2 2 8 8 2 9 9 [.O@9 <   2 2 2 U 7.a /+O$P$Q$R$R$H$R$S$T$T$U$>.9 [.9 9 9 9 [.[.P@p.V$R.Q ~ _.Z Z Z a Z a 7.a 7.7.7.o.X.",
"j.#.#...#.2 2 8 8 8 9 9 3 A@`.8   2 2 2 1.7.7.7.W$X$Y$Z$`$ %.%+%@%#%$%E.3 v.<.<.<.<.b.3 P@p.V$%%_ | 2+Z Z Z a a a a a 7.7.7.&%X.",
"= ^ j.P ^ 8 8 8 8 9 3. .'+( c.b.6.:.2 2 2 8 9 *%=%-%;%>%,%'+'%)%!%~%0@= 4.G./._ _ 6 '+I.7 {%S.O@l...:.Z a a a a 7.7.7.7.V V &% +",
"_ '+D : : b.3 3 3 v.@+Q ( c - = ,+r.9 9 9 9 [.]%^%/%(%_%:%_ <%[%}%* 6 6 6 _ _ _ _ _ _ _ Q Z.M. +( : t.7.7.7.7.7.7.V V V V ^.8.4 ",
"b.^ |%r.^ 9 9 [.*.z.M.l.c c 6 '+D Y.Y.Y.Y.{%0@1%2%3%4%5%++ +6%7%8%9%0@0@0%0%0@D Y.D '+i.4.0.a%4 - '+7 T.8.W 8.8.8.W W 8.p.u.#+b%",
"< 2 (.U ].0 Z ].a U 1.,+6 - *.    ` H a a a 7.c%d%d%d%|%V$e%f%f%f%D.V V V D.D.D.D.D.D.I x.W Q.W./+i (+g%Y Z Z Z a a a 7.7.V b $+",
"} h%i%%.Y Y Z Y Y a a j%D _ 2 < &.H a Z Z a a /+d%d%k%V p.l%f%f%m%7.7.7.a 7.V V 7.7.V V V Z W %+L *+*+Z Y Z Z Z a a a 7.7.7.).X.",
"} } ]+]+%.%.%.Y Z Y Z a$,+6   <   ].Z a a a a n%o%p%q%M u.r%f%s%t%u%V 7.a 7.7.7.7.7.V V (.]+^.R.(+*+*+Z Z Z Z Z a a 7.7.7.V ^.s.",
"| | %.%.%.%.%.%.Y Y 7.8 *.M.T < 2 U a a a a a v%w%x%y%M u.z%A%B%B%C%y.8 8 8 1.7.7.7.V V V C+D%/._.    Z Z Z Z Z a a a V 7.7.^.s.",
"* | %.%.%.Y Y %.Y Y (.n.P@M.    2 U a a 7.7.7.7.7.7.V V u.E%P@3 P@3 <.9 9 8 1.7.7.7.V V D.*.: /.<   ` Z Z Z Z Z a a a V 7.V b s.",
"| * %.%.%.Y Y Y Y Y 7.n.3 0.2   2 U a a a 7.7.7.7.7.V ^.V$F%3 z.,.@+M.v.9 8 1.7.7.7.V ^.I ,+C G%<   ` Z Z Z a a a 7.7.7.V V b - ",
"{ [ [ B G r+Y Y Z Y V E.z.0.2 2 8 U a 7.7.7.7.7.V V ^.^.V$H%8.I%u.^.(.8.r.9 n.V V V V ^.^.b A.P._.  ].a a a a a 7.7.V V V V b X.",
"} [ [ [ < Y Y Y Z Z o.*.z.0.2 2 8 U a 7.7.7.7.7.V V b b #+#+8.p.^.7.7.>.[.9 n.V V V V ^.b J%p.P.<   T a a a a a 7.7.V ^.^.^.8.a%",
"} < < < < Y Y Z Z Z ^.P@v.h.8 2 8 (.7.7.V V V V V ^.b x.f+f+u.W V 7.V 1.P@9 n.V ^.^.^.b b W u.C.< 2 &.a 7.7.7.7.7.V V b ^.^.8.K%",
"} <       Z Z Z a a ^.x.v.O@9 2 8 (.V V V V V V ^.^.N 7 |.L%Q.#+^.V 7.>.b D.D.r.*.*.*.P@J.: 0@_ J :.:.8 8 8 1.n.n.E.[.E.b b W M%",
"< 2       Z Z Z a a b y.<.N%3 9 [.D.D.^.^.^.b b b b T.0@/ L.C.V$W b b 8.8.8.O%z.7 v.v.~.[#= 6 - #.P t.; 9 9 9 9 [.[.[.&.8.W u.##",
"<     T 2 ].a a P%P%b J.@+Q%M.@+a.U.W p.p.p.p.u.u.V$4+- 5 L%%.%.x.p.R%p.S%W U.v.Y.0@0.h.G%_ ( / - '+,+3 3 z.z.z.z.z.z.T.x.8.8.@$",
"[#I.I.z.*.r.j%a$..:.j G% +T%G%*.1 T a a a a Z a a a /+@.0%f#j%C+].&.1.1.a$a$a$(.(.y.Y.[#[#g#f#U%f#% r % z q q q q & q z V%V%>#(.",
"P ....J T ..#.......P ,+= 5 ^ ....U a a a Z a a a 7./+M |#f#P J -.  2 2 ....:.7.7.t.j.: : >+W%X%P d#~ * E E E E E E E E *+*+L Y%",
"..E J J J J ........#.#.^ Q #.....].Z Z Z a a a a a a 7.Y%}#E J         ..#.a$a 7.1.^ Z%Z%>+>+0%E $.| E E E E E J J J J L L M |#",
"            T 2 U U 7.V @.V.r.2 1   ` &.&.&.&.&.U m./+/+W%g#@ [           1 2 &.1.(.N 8.>+>+>+g#* $.| E E E < < <       K ..#.= ",
"              2 U a 7.V ^.V.I #   <   2 2 2 2 2 2 8 (.7.W%K.@ [ <         2 2 2 8 t.V 8.8.>+>+|#* `%| E E E < < <       ..#.P = ",
"        2 2 2 2 m.V V ^.^.#+E.{.    2 2 2 2 2 2 2 2 D.M W%C {.[           2 2 2 8 8 f.b W  &.&+&* `%| E E E < < <     2 J #.P = ",
"8   2 2   &.U U 7.7.V V b f+|%{ T 2 2 2 2 2 2 2 m.1.V V p.{%<           ].U U m.1.(.V b 8. & &g#* `%| E E E -.-.-.    2 K U j%@&",
"8   2 2   H a a 7.7.V ^.b f+|%....2 2 2 2 2 2 :.7.7.>.#&u.K.<           Z a a 7.7.(.V b 8. & &g#* `%| E E E J J J     2 a a M @&"};
