/* XPM */
static char * rigth_1_xpm[] = {
"64 64 664 2",
"  	c #5B5D5C",
". 	c #5F6160",
"+ 	c #616362",
"@ 	c #626463",
"# 	c #636564",
"$ 	c #626362",
"% 	c #626262",
"& 	c #616161",
"* 	c #5E5E5E",
"= 	c #525252",
"- 	c #4D4D4D",
"; 	c #595A59",
"> 	c #666867",
", 	c #696B6A",
"' 	c #676968",
") 	c #656666",
"! 	c #636464",
"~ 	c #606060",
"{ 	c #5E5F5F",
"] 	c #606161",
"^ 	c #585858",
"/ 	c #4A4A4A",
"( 	c #4C4C4C",
"_ 	c #4F4F4F",
": 	c #555555",
"< 	c #5C5E5D",
"[ 	c #5D5F5E",
"} 	c #5E605F",
"| 	c #5F5F5F",
"1 	c #5B5C5B",
"2 	c #5A5C5B",
"3 	c #565857",
"4 	c #494A4A",
"5 	c #494949",
"6 	c #505050",
"7 	c #555656",
"8 	c #595B5A",
"9 	c #585A59",
"0 	c #5B5D5E",
"a 	c #5A5B5D",
"b 	c #565759",
"c 	c #4B4B4B",
"d 	c #686969",
"e 	c #676868",
"f 	c #646565",
"g 	c #656565",
"h 	c #666666",
"i 	c #5E5E5F",
"j 	c #545455",
"k 	c #696A69",
"l 	c #696A6A",
"m 	c #6A6B6A",
"n 	c #676767",
"o 	c #656665",
"p 	c #646564",
"q 	c #616261",
"r 	c #636363",
"s 	c #6C6C6C",
"t 	c #6D6E6D",
"u 	c #6C6D6D",
"v 	c #6B6C6B",
"w 	c #686968",
"x 	c #656766",
"y 	c #646464",
"z 	c #616262",
"A 	c #606162",
"B 	c #5D5E5E",
"C 	c #545555",
"D 	c #545454",
"E 	c #5D5D5D",
"F 	c #5D5E5F",
"G 	c #5C5E5E",
"H 	c #5A5C5D",
"I 	c #575859",
"J 	c #5C5C5C",
"K 	c #5B5B5C",
"L 	c #5B5B5D",
"M 	c #59595B",
"N 	c #575759",
"O 	c #5F5F60",
"P 	c #595959",
"Q 	c #515151",
"R 	c #6B6B6B",
"S 	c #6D6D6D",
"T 	c #5B5C5C",
"U 	c #5A5B5C",
"V 	c #58595B",
"W 	c #545557",
"X 	c #5E5E5D",
"Y 	c #5C5D5F",
"Z 	c #5B5C5E",
"` 	c #5B5D5D",
" .	c #575857",
"..	c #5B5B5B",
"+.	c #58585B",
"@.	c #58585A",
"#.	c #5A5A5A",
"$.	c #6A6A6A",
"%.	c #5D5E60",
"&.	c #5A5C5C",
"*.	c #575858",
"=.	c #5D5E5D",
"-.	c #5C5D5C",
";.	c #626263",
">.	c #585A5B",
",.	c #545656",
"'.	c #5C5F5E",
").	c #56575A",
"!.	c #636364",
"~.	c #535555",
"{.	c #606261",
"].	c #5B5C5D",
"^.	c #57585A",
"/.	c #4E4F4F",
"(.	c #595A5B",
"_.	c #5C5D5D",
":.	c #5A5B5B",
"<.	c #535554",
"[.	c #575958",
"}.	c #606160",
"|.	c #4E4E4F",
"1.	c #595B5B",
"2.	c #5F6060",
"3.	c #585958",
"4.	c #515251",
"5.	c #5E5F5E",
"6.	c #5A5B5A",
"7.	c #595A5C",
"8.	c #555658",
"9.	c #5E5F60",
"0.	c #4F5150",
"a.	c #525453",
"b.	c #565756",
"c.	c #4E4E4E",
"d.	c #5A5B5E",
"e.	c #595A5D",
"f.	c #58595C",
"g.	c #5B5C5F",
"h.	c #4E504F",
"i.	c #515252",
"j.	c #565656",
"k.	c #5F605F",
"l.	c #4D4E4E",
"m.	c #595B5C",
"n.	c #585A5A",
"o.	c #57595A",
"p.	c #535456",
"q.	c #4D4E4D",
"r.	c #585959",
"s.	c #4D4D4E",
"t.	c #595A5A",
"u.	c #525355",
"v.	c #545655",
"w.	c #4B4C4B",
"x.	c #565758",
"y.	c #565757",
"z.	c #555756",
"A.	c #535556",
"B.	c #4F5053",
"C.	c #4E4F51",
"D.	c #58595A",
"E.	c #575959",
"F.	c #484A4A",
"G.	c #4F5050",
"H.	c #505151",
"I.	c #555655",
"J.	c #555757",
"K.	c #535455",
"L.	c #4A4A4B",
"M.	c #505251",
"N.	c #4F5151",
"O.	c #505152",
"P.	c #4E5051",
"Q.	c #4C4D4F",
"R.	c #4E4F50",
"S.	c #505252",
"T.	c #555657",
"U.	c #545556",
"V.	c #515253",
"W.	c #494A4B",
"X.	c #4C4D4D",
"Y.	c #535454",
"Z.	c #525352",
"`.	c #505150",
" +	c #4B4C4C",
".+	c #4A4B4A",
"++	c #484848",
"@+	c #515352",
"#+	c #505153",
"$+	c #484949",
"%+	c #4C4C4E",
"&+	c #5C5C5F",
"*+	c #5C5C5E",
"=+	c #4F4F50",
"-+	c #565657",
";+	c #575757",
">+	c #535353",
",+	c #565859",
"'+	c #49494B",
")+	c #626363",
"!+	c #5F6061",
"~+	c #5E5F61",
"{+	c #4F4F51",
"]+	c #5A5A5C",
"^+	c #5D5D5F",
"/+	c #5F5F61",
"(+	c #58585F",
"_+	c #514C60",
":+	c #4B4460",
"<+	c #4F495F",
"[+	c #56525C",
"}+	c #5A575B",
"|+	c #535254",
"1+	c #59595A",
"2+	c #5C5C5D",
"3+	c #5C5E5F",
"4+	c #515153",
"5+	c #5E5E60",
"6+	c #59595F",
"7+	c #504B65",
"8+	c #433E77",
"9+	c #3E3D8A",
"0+	c #3F4191",
"a+	c #414191",
"b+	c #4F3E8A",
"c+	c #7E3068",
"d+	c #9A3649",
"e+	c #7F484D",
"f+	c #635A5C",
"g+	c #5D5F5F",
"h+	c #4F5052",
"i+	c #5C5D60",
"j+	c #535167",
"k+	c #413D81",
"l+	c #603E88",
"m+	c #9B3365",
"n+	c #B22B49",
"o+	c #B42F4B",
"p+	c #A5394E",
"q+	c #77555C",
"r+	c #5C5D5E",
"s+	c #58575F",
"t+	c #4A4672",
"u+	c #3F3F8E",
"v+	c #783879",
"w+	c #823570",
"x+	c #553E8A",
"y+	c #7F5F94",
"z+	c #885D8D",
"A+	c #6A5674",
"B+	c #605E64",
"C+	c #5D5D5E",
"D+	c #545266",
"E+	c #413C7F",
"F+	c #404191",
"G+	c #5C4E92",
"H+	c #C596A3",
"I+	c #CF929A",
"J+	c #826086",
"K+	c #5D5C6B",
"L+	c #545554",
"M+	c #4F4D6A",
"N+	c #3F3E88",
"O+	c #4D4590",
"P+	c #AC829B",
"Q+	c #E7B6AF",
"R+	c #D89896",
"S+	c #8B5D7D",
"T+	c #5F5B69",
"U+	c #5B5E5D",
"V+	c #5A5D5C",
"W+	c #4C496D",
"X+	c #3F3F8C",
"Y+	c #4A418E",
"Z+	c #4F428F",
"`+	c #3E418E",
" @	c #654885",
".@	c #C2979C",
"+@	c #E4B8AD",
"@@	c #A47A80",
"#@	c #5A446F",
"$@	c #5C5B67",
"%@	c #57585D",
"&@	c #494571",
"*@	c #483D88",
"=@	c #7F5182",
"-@	c #905E8B",
";@	c #504691",
">@	c #4C4E95",
",@	c #616692",
"'@	c #765C74",
")@	c #BD9994",
"!@	c #E5BEB2",
"~@	c #B08180",
"{@	c #64435E",
"]@	c #5B5860",
"^@	c #524F64",
"/@	c #403A7A",
"(@	c #583B7F",
"_@	c #B17883",
":@	c #D09DA3",
"<@	c #806897",
"[@	c #7E7AA6",
"}@	c #B1B2C1",
"|@	c #ABA4A3",
"1@	c #D6B7A8",
"2@	c #F1D3C5",
"3@	c #AC9A94",
"4@	c #574E5A",
"5@	c #58565C",
"6@	c #4E3F6B",
"7@	c #423376",
"8@	c #513371",
"9@	c #9D747D",
"0@	c #D5A8A3",
"a@	c #B38598",
"b@	c #B096AB",
"c@	c #DDCBC9",
"d@	c #DEC8BD",
"e@	c #EECDBC",
"f@	c #F8D5C6",
"g@	c #D3B0AB",
"h@	c #7D6170",
"i@	c #57515B",
"j@	c #525353",
"k@	c #58565F",
"l@	c #4E3B6E",
"m@	c #482B75",
"n@	c #412B68",
"o@	c #53295A",
"p@	c #844D65",
"q@	c #9D5B72",
"r@	c #C5858F",
"s@	c #EFC2B5",
"t@	c #F8D5C4",
"u@	c #F7D0C0",
"v@	c #F5C9BA",
"w@	c #D89997",
"x@	c #854C67",
"y@	c #564D5B",
"z@	c #5A5A5B",
"A@	c #5C5B5C",
"B@	c #54535E",
"C@	c #473A72",
"D@	c #482D7B",
"E@	c #48256D",
"F@	c #483065",
"G@	c #635C6F",
"H@	c #8C7077",
"I@	c #B36F7B",
"J@	c #D59896",
"K@	c #E7B8AD",
"L@	c #E1B0A7",
"M@	c #D39795",
"N@	c #A46474",
"O@	c #5D315A",
"P@	c #504B57",
"Q@	c #4C4E4D",
"R@	c #4D4B57",
"S@	c #423A74",
"T@	c #473B88",
"U@	c #564787",
"V@	c #60598A",
"W@	c #777485",
"X@	c #938F90",
"Y@	c #988388",
"Z@	c #AC6977",
"`@	c #BA757E",
" #	c #AA7583",
".#	c #94637D",
"+#	c #6A4668",
"@#	c #483756",
"##	c #514F55",
"$#	c #4D4F4E",
"%#	c #565858",
"&#	c #484A49",
"*#	c #4F4E54",
"=#	c #473F65",
"-#	c #504787",
";#	c #696BA1",
">#	c #78749F",
",#	c #847A8E",
"'#	c #8E8E8E",
")#	c #929293",
"!#	c #A47E82",
"~#	c #9E7479",
"{#	c #83707F",
"]#	c #8D718E",
"^#	c #745E79",
"/#	c #534A57",
"(#	c #544E51",
"_#	c #565253",
":#	c #555554",
"<#	c #474948",
"[#	c #545657",
"}#	c #4A4B4B",
"|#	c #4D4E4F",
"1#	c #606061",
"2#	c #646364",
"3#	c #5D586B",
"4#	c #615C8D",
"5#	c #7574A6",
"6#	c #846B93",
"7#	c #938094",
"8#	c #919191",
"9#	c #838384",
"0#	c #8C727E",
"a#	c #9D878F",
"b#	c #959494",
"c#	c #948C95",
"d#	c #786E79",
"e#	c #72545E",
"f#	c #864D5D",
"g#	c #854C5B",
"h#	c #614E53",
"i#	c #515050",
"j#	c #535453",
"k#	c #515152",
"l#	c #525254",
"m#	c #636263",
"n#	c #646473",
"o#	c #6C7099",
"p#	c #7971A4",
"q#	c #87698B",
"r#	c #8E848F",
"s#	c #8D8D8F",
"t#	c #757578",
"u#	c #7B687C",
"v#	c #9D909C",
"w#	c #ADACAC",
"x#	c #A1A1A1",
"y#	c #76777E",
"z#	c #855E7E",
"A#	c #A94E72",
"B#	c #AD4968",
"C#	c #79535D",
"D#	c #5A5757",
"E#	c #696969",
"F#	c #646566",
"G#	c #626365",
"H#	c #5F6062",
"I#	c #535354",
"J#	c #676A75",
"K#	c #6F769C",
"L#	c #6F6A9C",
"M#	c #715F7D",
"N#	c #827B8C",
"O#	c #8F7D93",
"P#	c #8D687C",
"Q#	c #9D6474",
"R#	c #A57581",
"S#	c #A09295",
"T#	c #8E8D92",
"U#	c #767392",
"V#	c #92618D",
"W#	c #AC4E73",
"X#	c #B14869",
"Y#	c #815963",
"Z#	c #625F5F",
"`#	c #4C4C4D",
" $	c #575656",
".$	c #636670",
"+$	c #6E759A",
"@$	c #69699C",
"#$	c #735A7F",
"$$	c #A8758C",
"%$	c #C67F93",
"&$	c #C87888",
"*$	c #CD737D",
"=$	c #CB727C",
"-$	c #A36B75",
";$	c #7E6074",
">$	c #89628D",
",$	c #A6547C",
"'$	c #AF4A6A",
")$	c #A34D67",
"!$	c #775960",
"~$	c #4D4F4F",
"{$	c #61656F",
"]$	c #6E7599",
"^$	c #696A9D",
"/$	c #88597B",
"($	c #CF7B87",
"_$	c #EA8D8E",
":$	c #E88B8D",
"<$	c #E6898C",
"[$	c #D77F84",
"}$	c #A8737B",
"|$	c #907D85",
"1$	c #997E8C",
"2$	c #976273",
"3$	c #8A5462",
"4$	c #795760",
"5$	c #645C5D",
"6$	c #4C4E4E",
"7$	c #606165",
"8$	c #686E87",
"9$	c #6B6F97",
"0$	c #896277",
"a$	c #C87981",
"b$	c #DA7E85",
"c$	c #DA7E84",
"d$	c #CC777D",
"e$	c #B37285",
"f$	c #A18395",
"g$	c #9F9A9E",
"h$	c #A3A0A0",
"i$	c #877E7F",
"j$	c #656162",
"k$	c #575758",
"l$	c #646067",
"m$	c #716076",
"n$	c #866D80",
"o$	c #AB858F",
"p$	c #A8757D",
"q$	c #9C5C64",
"r$	c #9A4452",
"s$	c #904D60",
"t$	c #8A6071",
"u$	c #8C7C81",
"v$	c #8A8182",
"w$	c #736D6E",
"x$	c #6D5657",
"y$	c #843E4B",
"z$	c #85546C",
"A$	c #8E7788",
"B$	c #827377",
"C$	c #794A51",
"D$	c #8D2638",
"E$	c #922A3A",
"F$	c #882F3D",
"G$	c #8D434B",
"H$	c #84454C",
"I$	c #6A5557",
"J$	c #5F5E5E",
"K$	c #5E5B5C",
"L$	c #6B4F54",
"M$	c #823341",
"N$	c #8E2F45",
"O$	c #904858",
"P$	c #824E55",
"Q$	c #853441",
"R$	c #972D3D",
"S$	c #9A313F",
"T$	c #902F3D",
"U$	c #91303D",
"V$	c #783F45",
"W$	c #5F5656",
"X$	c #5D5D5C",
"Y$	c #645056",
"Z$	c #72364B",
"`$	c #7A2B45",
" %	c #872640",
".%	c #893F60",
"+%	c #8B5071",
"@%	c #AE5B65",
"#%	c #CA6F71",
"$%	c #C5666A",
"%%	c #AD595D",
"&%	c #835355",
"*%	c #584F4E",
"=%	c #4F5051",
"-%	c #5E5A5A",
";%	c #694651",
">%	c #752947",
",%	c #73334A",
"'%	c #71414F",
")%	c #73577F",
"!%	c #7D5E8F",
"~%	c #9B465E",
"{%	c #A94F5B",
"]%	c #9D5359",
"^%	c #895457",
"/%	c #695656",
"(%	c #515254",
"_%	c #6A4551",
":%	c #743B61",
"<%	c #6C577B",
"[%	c #615A60",
"}%	c #62637D",
"|%	c #6D6694",
"1%	c #776296",
"2%	c #786A9B",
"3%	c #6F5F77",
"4%	c #625759",
"5%	c #565554",
"6%	c #4B4D4C",
"7%	c #4D4E50",
"8%	c #56585A",
"9%	c #5C5959",
"0%	c #664C54",
"a%	c #704C73",
"b%	c #676A96",
"c%	c #5C5F66",
"d%	c #5A5D61",
"e%	c #685863",
"f%	c #88485D",
"g%	c #983B58",
"h%	c #8D404E",
"i%	c #6A4D4F",
"j%	c #525454",
"k%	c #5A5758",
"l%	c #5C585E",
"m%	c #5A5D65",
"n%	c #5A5857",
"o%	c #7E474A",
"p%	c #9C2838",
"q%	c #92343E",
"r%	c #694648",
"s%	c #585859",
"t%	c #7A4448",
"u%	c #86454B",
"v%	c #5E5354",
"w%	c #525253",
"x%	c #4B4D4D",
"y%	c #474848",
"z%	c #7B494F",
"A%	c #9B2B3A",
"B%	c #8D4049",
"C%	c #6F607C",
"D%	c #606076",
"E%	c #535357",
"F%	c #515353",
"G%	c #5E605E",
"H%	c #5D5F60",
"I%	c #6B5356",
"J%	c #8F3A44",
"K%	c #9B344E",
"L%	c #934669",
"M%	c #8A455B",
"N%	c #684D51",
"O%	c #61575A",
"P%	c #744E53",
"Q%	c #7E494F",
"R%	c #7D484E",
"S%	c #6C5155",
"T%	c #555254",
"U%	c #525354",
"V%	c #4F504F",
"W%	c #505253",
"X%	c #535557",
"Y%	c #555759",
"Z%	c #4A4C4C",
"`%	c #4B4C4D",
" &	c #494B4B",
".&	c #555758",
"+&	c #595B5D",
"@&	c #494B4A",
"#&	c #525356",
"$&	c #535457",
"%&	c #484948",
"&&	c #4B4B4C",
"*&	c #616163",
"=&	c #616264",
"-&	c #555557",
";&	c #545456",
">&	c #4D4D4F",
",&	c #535355",
"'&	c #555556",
")&	c #686868",
"!&	c #565658",
"~&	c #565558",
"{&	c #505051",
"]&	c #57595B",
"  . + @ @ # # $ % & & * = - ; @ > , , ' ) ! ~ { { . ] ^ / ( _ : ;   < < [ } } } } { | * 1 2 3 4 5 6 7 8 9 9 9 8 2       0 a b c ",
"d e ) f # f f f g h h g i j k l l m l l d d n ) o p o q - = r s t u v m l d w > x ) g y z A B C D E B } [ [ B F [ [ [ G G H I - ",
"n ~ * * E E E J J J K L M N O ~ ~ ~ ~ | | | | * * E J P Q J R S R g & ~ | ~ | | * E E J T U V W ; X * < < < F Y Z `       2  .Q ",
"g | * * E J J J J J ..K +.@.& | | * * * * * * E E J ..#.= * $.$.y ~ | | * * * E J J J J T a V W P ~ o . } [ %.%.Y <       &.*.= ",
"% | B =.E -.J J T T ..K @.@.;.| | * [ * * * B E E J J #.= * n & | | | * * * E E J J J J T a >.,.; n ! [ [ [ %.Y Y <     ` &.I _ ",
"} '.< < <       2 2 2 U ).b !.~ * [ [ [ [ '.< E E J J #.= | g | | | * * * * J E J J J ....2 9 ~.3 + {.< [ [ Y Y Y       Z ].^./.",
"[ < < <         2 2 8 (.).b z ~ * [ [ [ [ < < _.J ....P = * g | * * * * * E E E J J ....:.8 9 <.[.}.. < < < Y Y 0 <     Z a ^.|.",
"<   < <   ` ].T &.U 1.(.).b A 2.{ [ [ [ B G ` T 1 ....3.4._.y | 5.* =.B B _._._.T T :.:.6.8 9 <. .q ] < < < Y Z Z &.&.T a 7.b |.",
"          Z Z a a a 7.7.b 8.9.. [ < < < Y Y Z &.2 2 2 [.0.T r | | [ < < <       2 2 2 8 8 9 [.a.b.% 2.<     Z Z Z a a a a a b c.",
"  2 2 2 2 H d.e.e.f.V V b W _.. < < <   ].g.d.&.2 8 8 [.h.6.% * * < < <       2 2 2 2 9 9 [.3 i.j.% k.    2 a Z Z a a 7.a 7.^.l.",
"T 1 2 8 8 1.m.1.>.n.o.^.b p.` [   < < 2 2 H &.:.8 8 8 3 q.r.& * E   <   2 2 2 8 8 8 9 9 9 [.b.h.D & * 2 8 8 1.1.7.7.7.7.V V b s.",
"t.#.8 8 8 8 8 9 9 [.[.I 8.u.U         2 2 2 8 8 8 9 9 v.w.i.J E E   < 2 2 2 2 8 8 8 9 [.3 : = ( _ ..; 8 9 n.9 9 9 V V V V V x.( ",
"Q j.y.3 3 3 3 3 z.z.z.A.B.C.D.8 1.2 :.8 8 9 8 8 9 E.z.h.F.G.P ....2 2 2 8 3.[.3 3 3 z.<.H.Q 6 / / i.I.3 3 3 3 3 J.8.8.8.8.8.K.L.",
"_ G.H.M.0.N.N.O.N.N.0.P.Q.Q.R.S.~.,.,.T.,.7 T.J.,.U.K.V.W.X.Y.: b.3 3.*.I.Z.`.h./.l.q. +.+/ 5 ++/ _ 4.@+a.a.Y.<.Y.p.W W u.#+R.$+",
"g ~ <     ].a a a 7.a L @.%+V.@.&+Y Y Y Y Y Y *+L U M @.=+|.-+;+E E J J ..P j.D >+i._ c / / 5 ++c >+7 z.3 3 ,+I b b V V b b u.'+",
"R n )+{.. !+~+%.%.%.Y Y M {+]+^+/+~+%.Y &+(+_+:+:+<+[+}+|+1+2+E E E E J J J ....#.#.P : Q 6 - 5 6 ~ f {.} < 3+%.a Z Z a a a ^.%+",
"$.r }.. . ~+~+%.%.%.Y ^+]+4+i 9.5+%.%.6+7+8+9+0+a+b+c+d+e+f+| E * E E E J J J ......#.t.3.;+: c.>+f ] g+g+F Y Z Z Z Z a a a ^.h+",
"n q . . } ~+~+%.%.%.Y F ..= B [ [ F i+j+k+0+0+0+l+m+n+o+p+q+~ E E E E E J J T 2 2 2 8 9 9 [.z.0.D r | %.%.%.Y Y Y Z Z Z 7.a ^.C.",
"g ~ 2.} } 9.~+%.%.%.Y B ..Z.[ [ < r+s+t+u+0+0+0+v+w+x+y+z+A+B+* E E E E J J 1 2 2 2 8 9 9 z.v.`.>+r { %.Y Y Y Y Z Z Z a a 7.,+P.",
"% ~ ~ { } } 9.%.%.%.Y C+..Z.[ [ < G D+E+0+0+0+0+0+F+G+H+I+J+K+* =.< E E J J 1 2 2 1.1.n.r.C L+`.>+r i %.Y Y Y Y Z Z Z a a a ^.O.",
"~ | ~ * * [ [ g+Y Y Y _.#.= =.< < U M+N+0+0+0+0+0+O+P+Q+R+S+T+E E < U+U+V+V+  2   1.7.f.@.: D 6 >+% i %.Y Y Y Z Z Z Z a a a I H.",
"| * * * * [ [ < Y Y Y _.#.4.=.< < 7.W+X+Y+Z+a+0+`+ @.@+@@@#@$@E E <         2 8 2 1.f.V N D D 6 >+& C+Y Z Z Z Z Z a a a 7.7.).6 ",
"E | * * * [ [ < Y Y Y _.#.4.=.< < %@&@*@=@-@;@>@,@'@)@!@~@{@]@E E <       2 2 8 8 t.V o.x.D D 6 >+& C+Y Z Z Z Z Z a a a 7.7.)._ ",
"E y { [ < Y Y Y Y Y Z ` 9 M.<   U ^@/@(@_@:@<@[@}@|@1@2@3@4@5@J J J J T 2 2 2 8 9 9 [.3 <.>+>+6 = & r+Z Z Z Z Z a 7.7.7.7.V x.G.",
"E y { < G Z Y Y Z Z a T 9 0.    s+6@7@8@9@0@a@b@c@d@e@f@g@h@i@2+J J J 1 2 8 8 8 8 3 v.<.j@= >+6 6 O ].a a a a a 7.a 7.V V V 8.G.",
"J E <     Z Z Z Z a a &.9 h.8 2 k@l@m@n@o@p@q@r@s@t@u@v@w@x@y@z@........2 8 8 8 9 9 n.E.<.Z.j@6 _ ~ T a a a a 7.7.V V V V V 8.G.",
"J A@      Z Z Z a a a 2 [.h.Z.;+B@C@D@E@F@G@H@I@J@K@L@M@N@O@P@z@#.8 8 2 8 8 8 9 9 D.^.^.K.i.@+0._ ~ U 7.7.7.7.7.7.V V V ^.^.8.h.",
"..T       ].Z Z a 7.7.(.3 Q@q.c.R@S@T@U@V@W@X@Y@Z@`@ #.#+#@###^ r.3 3 9 9 9 9 9 9 [.b ^.W a.@+l.( ..; V V V V V V V V ^.b b p.$#",
"L+y.%#x.3 b b b b W W U.0.&#/.Q *#=#-#;#>#,#'#)#!#~#{#]#^#/#(#_#:#C 7 [.[.[.*. .3 y.8.T.U.<.0.<#5 c.>+W U.W W W W 8.8.[#W p.C.}#",
"a.T Z Z Z Z Z Z Z a a 7.x.|#1#y 2#3#4#5#6#7#8#9#0#a#b#c#d#e#f#g#h#i#= L+v.<.j#>+= Q k#Q _ - 5 ++c = ^ J * C+r+Z a 7.V ^.^.b 4+5 ",
"2 [ %.%.%.%.%.Y %.Y Y Y ]+l#~ r m#n#o#p#q#r#s#t#u#v#w#x#y#z#A#B#C#D# .3.[.[.*.^ ;+;+;+j.D Q  +5 D $.s R E#n F#G#H#~+%.Y Y Z M =+",
"[ [ %.%.%.Y Y Y %.Y Y *+]+I#1#r !.J#K#L#M#N#O#P#Q#R#S#T#U#V#W#X#Y#Z#}.2.} . { * B E 2+C+K #.y.`# $$.e )+| 2.9.F r+Y Y r+Z Z V |.",
"} [ %.%.%.%.%.Y Y Y Z ].#.= * | | .$+$@$#$$$%$&$*$=$-$;$>$,$'$)$!$X -.        2 2 U 7.7.7.@.b h+^ n }.[ [ [ [ [ < < < =.Z Z V ~$",
"[ [ %.%.Y Y Y Y Z Z Z T #.Q * * * {$]$^$/$($_$:$<$[$}$|$1$2$3$4$5$-.      2 2 2 2 U 7.V V V b #+^ % } [ [ [ < < < [ < ` Z Z V 6$",
"} [ F %.Y Y Y Y Z Z Z T P 6 * * * 7$8$9$0$a$b$c$d$e$f$g$h$i$j$J J         2 2 2 2 2 7.V V V b O.k$% { [ [ [ < < < `   ` Z Z V 6$",
"=.* < < < ` ` ` Z Z a :.P 6 * * * B l$m$n$o$p$q$r$s$t$u$v$w$}.    Z Z ].  2 2 2 8 8 8 8 E.E.y.M.y.{.[ [ < < r+Y g.g.g.Z a a ^.X.",
"E E <   <       ].a a z@P c.* E * =.x$y$z$A$B$C$D$E$F$G$H$I$J$  ` Z Z H   2 2 8 8 8 8 9 9 [.z.M.z.} < [ < < Y Z Z Z Z a a a V `#",
"..A@            a a a :.^ c.* * E K$L$M$N$O$P$Q$R$S$T$U$V$W$    ].a a a 2 9 8 8 8 8 9 9 9 3 v.M.C } _.< < < Z Z Z Z a a a 7.V w.",
"#.........2 2 2 2 2 8 8 [.$#< [ X$Y$Z$`$ %.%+%@%#%$%%%&%*%[.2 8 1.7.7.7.2 8 9 9 9 9 [.[.E.8.p.=%= | _.Z Z Z Y Z Z Z a a 7.a ^. +",
"^ #.......2 2 8 8 2 9 9 [.$#9 < -%;%>%,%'%)%!%~%{%]%^%/%$#[.2 8 (.7.7.>.9 [.9 9 9 9 [.[.%#p.(%R.Q ~ _.Z Z Z a Z a 7.a 7.7.7.o.X.",
"j.#.#...#.2 2 8 8 8 9 9 3 Q@`.8 -%_%:%<%[%}%|%1%2%3%4%5%6%z.3.r.r.D.D.E.3 v.<.<.<.<.b.3 %#p.(%7%_ | 2+Z Z Z a a a a a 7.7.7.8%X.",
"= ^ j.P ^ 8 8 8 8 9 3. .>+( c.b.9%0%a%b%c%d%e%f%g%h%i%( - >+>+= = = j@= 4.G./._ _ 6 >+I.7 j%S.$#l...:.Z a a a a 7.7.7.7.V V 8% +",
"_ >+D : : b.3 3 3 v.@+Q ( c - = ;+k%l%m%>.9 n%o%p%q%r%5 / _ Q 6 6 6 6 6 6 _ _ _ _ _ _ _ Q Z.M. +( : t.7.7.7.7.7.7.V V V V ^.8.4 ",
"b.^ s%r.^ 9 9 [.*.z.M.l.c c 6 >+D Y.Y.Y.Y.j%j@t%p%u%v%l.++ += >+>+j@j@j@w%w%j@D Y.D >+i.4.0.x%4 - >+7 T.8.W 8.8.8.W W 8.p.u.#+y%",
"< 2 (.U ].0 Z ].a U 1.;+6 - *.    ` H a a a 7.z%A%B%C%D%E%F%9 9 r.D.V V V D.D.D.D.D.D.I x.W Q.W.]+i ^+i+Y Z Z Z a a a 7.7.V b $+",
"} G%H%%.Y Y Z Y Y a a 1+D _ 2 < &.H a Z Z a a I%J%K%L%M%N%~.9 9 n.7.7.7.a 7.V V 7.7.V V V Z W %+L *+*+Z Y Z Z Z a a a 7.7.7.).X.",
"} } ~+~+%.%.%.Y Z Y Z z@;+6   <   ].Z a a a a O%P%Q%R%S%T%K.9 9 D.V V 7.a 7.7.7.7.7.V V (.~+^.R.^+*+*+Z Z Z Z Z a a 7.7.7.V ^.s.",
"| | %.%.%.%.%.%.Y Y 7.8 *.M.T < 2 U a a a a a 7.7.7.V V u.U%[.9 9 n.y.8 8 8 1.7.7.7.V V V C+-+/._.    Z Z Z Z Z a a a V 7.7.^.s.",
"* | %.%.%.Y Y %.Y Y (.n.%#M.    2 U a a 7.7.7.7.7.7.V V u.U%%#3 %#3 <.9 9 8 1.7.7.7.V V D.*.: /.<   ` Z Z Z Z Z a a a V 7.V b s.",
"| * %.%.%.Y Y Y Y Y 7.n.3 0.2   2 U a a a 7.7.7.7.7.V ^.(%F%3 z.,.@+M.v.9 8 1.7.7.7.V ^.I ;+C V%<   ` Z Z Z a a a 7.7.7.V V b - ",
"{ [ [ B G r+Y Y Z Y V E.z.0.2 2 8 U a 7.7.7.7.7.V V ^.^.(%W%8.X%u.^.(.8.r.9 n.V V V V ^.^.b A.P._.  ].a a a a a 7.7.V V V V b X.",
"} [ [ [ < Y Y Y Z Z o.*.z.0.2 2 8 U a 7.7.7.7.7.V V b b #+#+8.p.^.7.7.>.[.9 n.V V V V ^.b Y%p.P.<   T a a a a a 7.7.V ^.^.^.8.x%",
"} < < < < Y Y Z Z Z ^.%#v.h.8 2 8 (.7.7.V V V V V ^.b x.h+h+u.W V 7.V 1.%#9 n.V ^.^.^.b b W u.C.< 2 &.a 7.7.7.7.7.V V b ^.^.8.Z%",
"} <       Z Z Z a a ^.x.v.$#9 2 8 (.V V V V V V ^.^.N 7 |.`%Q.#+^.V 7.>.b D.D.r.*.*.*.%#J.: j@_ J :.:.8 8 8 1.n.n.E.[.E.b b W  &",
"< 2       Z Z Z a a b y.<.6%3 9 [.D.D.^.^.^.b b b b T.j@/ L.C.(%W b b 8.8.8..&z.7 v.v.~.j#= 6 - #.P t.; 9 9 9 9 [.[.[.&.8.W u.<#",
"<     T 2 ].a a +&+&b J.@+@&M.@+a.U.W p.p.p.p.u.u.(%4+- 5 `%%.%.x.p.#&p.$&W U.v.Y.j@0.h.V%_ ( / - >+;+3 3 z.z.z.z.z.z.T.x.8.8.6$",
"j#I.I.z.*.r.1+z@..:.j V% +%&V%*.1 T a a a a Z a a a ]+@.w%=+1+C+].&.1.1.z@z@z@(.(.y.Y.j#j#I#=+&&=+% r % z q q q q & q z *&*&=&(.",
"P ....J T ..#.......P ;+= 5 ^ ....U a a a Z a a a 7.]+M l#=+P J -.  2 2 ....:.7.7.t.j.: : -&;&>&P E#~ * E E E E E E E E *+*+L ,&",
"..E J J J J ........#.#.^ Q #.....].Z Z Z a a a a a a 7.,&k#E J         ..#.z@a 7.1.^ '&'&-&-&w%E $.| E E E E E J J J J L L M l#",
"            T 2 U U 7.V @.V.r.2 1   ` &.&.&.&.&.U m.]+]+;&I#@ [           1 2 &.1.(.N 8.-&-&-&I#* $.| E E E < < <       K ..#.= ",
"              2 U a 7.V ^.V.I #   <   2 2 2 2 2 2 8 (.7.;&K.@ [ <         2 2 2 8 t.V 8.8.-&-&l#* )&| E E E < < <       ..#.P = ",
"        2 2 2 2 m.V V ^.^.#+E.{.    2 2 2 2 2 2 2 2 D.M ;&C {.[           2 2 2 8 8 f.b W !&~&|+* )&| E E E < < <     2 J #.P = ",
"8   2 2   &.U U 7.7.V V b h+s%{ T 2 2 2 2 2 2 2 m.1.V V p.j%<           ].U U m.1.(.V b 8.!&!&I#* )&| E E E -.-.-.    2 K U 1+{&",
"8   2 2   H a a 7.7.V ^.b h+s%....2 2 2 2 2 2 :.7.7.>.]&u.K.<           Z a a 7.7.(.V b 8.!&!&I#* )&| E E E J J J     2 a a M {&"};
