/* XPM */
static char * rigth_2_xpm[] = {
"64 64 644 2",
"  	c #5B5D5C",
". 	c #5F6160",
"+ 	c #616362",
"@ 	c #626463",
"# 	c #636564",
"$ 	c #626362",
"% 	c #626262",
"& 	c #616161",
"* 	c #5E5E5E",
"= 	c #525252",
"- 	c #4D4D4D",
"; 	c #595A59",
"> 	c #666867",
", 	c #696B6A",
"' 	c #676968",
") 	c #656666",
"! 	c #636464",
"~ 	c #606060",
"{ 	c #5E5F5F",
"] 	c #606161",
"^ 	c #585858",
"/ 	c #4A4A4A",
"( 	c #4C4C4C",
"_ 	c #4F4F4F",
": 	c #555555",
"< 	c #5C5E5D",
"[ 	c #5D5F5E",
"} 	c #5E605F",
"| 	c #5F5F5F",
"1 	c #5B5C5B",
"2 	c #5A5C5B",
"3 	c #565857",
"4 	c #494A4A",
"5 	c #494949",
"6 	c #505050",
"7 	c #555656",
"8 	c #595B5A",
"9 	c #585A59",
"0 	c #5B5D5E",
"a 	c #5A5B5D",
"b 	c #565759",
"c 	c #4B4B4B",
"d 	c #686969",
"e 	c #676868",
"f 	c #646565",
"g 	c #656565",
"h 	c #666666",
"i 	c #5E5E5F",
"j 	c #545455",
"k 	c #696A69",
"l 	c #696A6A",
"m 	c #6A6B6A",
"n 	c #676767",
"o 	c #656665",
"p 	c #646564",
"q 	c #616261",
"r 	c #636363",
"s 	c #6C6C6C",
"t 	c #6D6E6D",
"u 	c #6C6D6D",
"v 	c #6B6C6B",
"w 	c #686968",
"x 	c #656766",
"y 	c #646464",
"z 	c #616262",
"A 	c #606162",
"B 	c #5D5E5E",
"C 	c #545555",
"D 	c #545454",
"E 	c #5D5D5D",
"F 	c #5D5E5F",
"G 	c #5C5E5E",
"H 	c #5A5C5D",
"I 	c #575859",
"J 	c #5C5C5C",
"K 	c #5B5B5C",
"L 	c #5B5B5D",
"M 	c #59595B",
"N 	c #575759",
"O 	c #5F5F60",
"P 	c #595959",
"Q 	c #515151",
"R 	c #6B6B6B",
"S 	c #6D6D6D",
"T 	c #5B5C5C",
"U 	c #5A5B5C",
"V 	c #58595B",
"W 	c #545557",
"X 	c #5E5E5D",
"Y 	c #5C5D5F",
"Z 	c #5B5C5E",
"` 	c #5B5D5D",
" .	c #575857",
"..	c #5B5B5B",
"+.	c #58585B",
"@.	c #58585A",
"#.	c #5A5A5A",
"$.	c #6A6A6A",
"%.	c #5D5E60",
"&.	c #5A5C5C",
"*.	c #575858",
"=.	c #5D5E5D",
"-.	c #5C5D5C",
";.	c #626263",
">.	c #585A5B",
",.	c #545656",
"'.	c #5C5F5E",
").	c #56575A",
"!.	c #636364",
"~.	c #535555",
"{.	c #606261",
"].	c #5B5C5D",
"^.	c #57585A",
"/.	c #4E4F4F",
"(.	c #595A5B",
"_.	c #5C5D5D",
":.	c #5A5B5B",
"<.	c #535554",
"[.	c #575958",
"}.	c #606160",
"|.	c #4E4E4F",
"1.	c #595B5B",
"2.	c #5F6060",
"3.	c #585958",
"4.	c #515251",
"5.	c #5E5F5E",
"6.	c #5A5B5A",
"7.	c #595A5C",
"8.	c #555658",
"9.	c #5E5F60",
"0.	c #4F5150",
"a.	c #525453",
"b.	c #565756",
"c.	c #4E4E4E",
"d.	c #5A5B5E",
"e.	c #595A5D",
"f.	c #58595C",
"g.	c #5B5C5F",
"h.	c #4E504F",
"i.	c #515252",
"j.	c #565656",
"k.	c #5F605F",
"l.	c #4D4E4E",
"m.	c #595B5C",
"n.	c #585A5A",
"o.	c #57595A",
"p.	c #535456",
"q.	c #4D4E4D",
"r.	c #585959",
"s.	c #4D4D4E",
"t.	c #595A5A",
"u.	c #525355",
"v.	c #545655",
"w.	c #4B4C4B",
"x.	c #565758",
"y.	c #565757",
"z.	c #555756",
"A.	c #535556",
"B.	c #4F5053",
"C.	c #4E4F51",
"D.	c #58595A",
"E.	c #575959",
"F.	c #484A4A",
"G.	c #4F5050",
"H.	c #505151",
"I.	c #555655",
"J.	c #555757",
"K.	c #535455",
"L.	c #4A4A4B",
"M.	c #505251",
"N.	c #4F5151",
"O.	c #505152",
"P.	c #4E5051",
"Q.	c #4C4D4F",
"R.	c #4E4F50",
"S.	c #505252",
"T.	c #555657",
"U.	c #545556",
"V.	c #515253",
"W.	c #494A4B",
"X.	c #4C4D4D",
"Y.	c #535454",
"Z.	c #525352",
"`.	c #505150",
" +	c #4B4C4C",
".+	c #4A4B4A",
"++	c #484848",
"@+	c #515352",
"#+	c #505153",
"$+	c #484949",
"%+	c #4C4C4E",
"&+	c #5C5C5F",
"*+	c #5C5C5E",
"=+	c #4F4F50",
"-+	c #565657",
";+	c #575757",
">+	c #535353",
",+	c #565859",
"'+	c #49494B",
")+	c #626363",
"!+	c #5F6061",
"~+	c #5E5F61",
"{+	c #4F4F51",
"]+	c #5A5A5C",
"^+	c #5D5D5F",
"/+	c #5F5F61",
"(+	c #525254",
"_+	c #59595A",
":+	c #5C5C5D",
"<+	c #5C5E5F",
"[+	c #515153",
"}+	c #5E5E60",
"|+	c #535355",
"1+	c #59575E",
"2+	c #4D4761",
"3+	c #4B4461",
"4+	c #4F4860",
"5+	c #5A555B",
"6+	c #5E595A",
"7+	c #5D5B5B",
"8+	c #5D5F5F",
"9+	c #4F5052",
"0+	c #5B5A5D",
"a+	c #4C4665",
"b+	c #40397D",
"c+	c #3F408F",
"d+	c #3F4191",
"e+	c #444190",
"f+	c #5E3C85",
"g+	c #853160",
"h+	c #993A47",
"i+	c #825152",
"j+	c #5B5B5A",
"k+	c #5C5D5E",
"l+	c #5A595B",
"m+	c #606061",
"n+	c #4F4962",
"o+	c #3F3F8D",
"p+	c #424190",
"q+	c #663D85",
"r+	c #A42F5B",
"s+	c #B22D4D",
"t+	c #B4334E",
"u+	c #A24152",
"v+	c #675658",
"w+	c #5D5D5E",
"x+	c #5C5B5E",
"y+	c #413B78",
"z+	c #4A408E",
"A+	c #773879",
"B+	c #843770",
"C+	c #6F5190",
"D+	c #A17094",
"E+	c #9A6B88",
"F+	c #624B61",
"G+	c #545554",
"H+	c #514B5D",
"I+	c #3F3E8C",
"J+	c #434291",
"K+	c #6A5291",
"L+	c #B98399",
"M+	c #EDB0A8",
"N+	c #CE9B9D",
"O+	c #6A4B6E",
"P+	c #56565C",
"Q+	c #48416A",
"R+	c #404191",
"S+	c #54458D",
"T+	c #A06E8E",
"U+	c #EAB2A9",
"V+	c #F2C6B8",
"W+	c #CB8C8D",
"X+	c #7D4B61",
"Y+	c #56565B",
"Z+	c #5F5E5F",
"`+	c #423972",
" @	c #4E418D",
".@	c #51438F",
"+@	c #45418E",
"@@	c #63427A",
"#@	c #915F70",
"$@	c #D1A7A1",
"%@	c #E2BCB0",
"&@	c #946170",
"*@	c #523C56",
"=@	c #55565A",
"-@	c #59585B",
";@	c #575566",
">@	c #413B7B",
",@	c #453D88",
"'@	c #8D5880",
")@	c #915D8C",
"!@	c #474692",
"~@	c #726796",
"{@	c #978592",
"]@	c #875A64",
"^@	c #C6A19B",
"/@	c #E5C0B3",
"(@	c #A27077",
"_@	c #5B414E",
":@	c #4E4759",
"<@	c #403A7D",
"[@	c #3E3880",
"}@	c #4B3369",
"|@	c #C7888D",
"1@	c #D09EA4",
"2@	c #7C6496",
"3@	c #BFA9B6",
"4@	c #D7DEE1",
"5@	c #968982",
"6@	c #E5C4B4",
"7@	c #EACCBF",
"8@	c #A59795",
"9@	c #4B4A4A",
"0@	c #525353",
"a@	c #585A5C",
"b@	c #4E425E",
"c@	c #433784",
"d@	c #3D265E",
"e@	c #462A58",
"f@	c #AF7E85",
"g@	c #D7AEA7",
"h@	c #B77B90",
"i@	c #E1B2B3",
"j@	c #F2E3DC",
"k@	c #D1B8AA",
"l@	c #F6D4C2",
"m@	c #F4D1C3",
"n@	c #CEACA8",
"o@	c #6F5B5E",
"p@	c #5C5B5C",
"q@	c #4D4F4E",
"r@	c #514462",
"s@	c #4B2A75",
"t@	c #432463",
"u@	c #3E2157",
"v@	c #592C5E",
"w@	c #865166",
"x@	c #B16472",
"y@	c #D78D8F",
"z@	c #F5CCBD",
"A@	c #F9D5C3",
"B@	c #F7CFBF",
"C@	c #F1C0B4",
"D@	c #D09592",
"E@	c #7E5961",
"F@	c #4C4E4D",
"G@	c #4B4D4C",
"H@	c #514F55",
"I@	c #4D3867",
"J@	c #4A286C",
"K@	c #452566",
"L@	c #574B7F",
"M@	c #6C6770",
"N@	c #92757B",
"O@	c #B46B78",
"P@	c #DAA09C",
"Q@	c #E7B7AD",
"R@	c #DEABA3",
"S@	c #C88E8E",
"T@	c #A36A6F",
"U@	c #5D565A",
"V@	c #565858",
"W@	c #484A49",
"X@	c #4B4B4C",
"Y@	c #4A4B4B",
"Z@	c #494A49",
"`@	c #474948",
" #	c #454746",
".#	c #4D4954",
"+#	c #4D3B63",
"@#	c #543E7D",
"##	c #6C6D95",
"$#	c #808083",
"%#	c #918E8F",
"&#	c #9A7F86",
"*#	c #A55E6F",
"=#	c #B6727D",
"-#	c #A77784",
";#	c #856372",
">#	c #68575E",
",#	c #545657",
"'#	c #4D4E4F",
")#	c #656564",
"!#	c #646566",
"~#	c #636465",
"{#	c #616264",
"]#	c #5F6062",
"^#	c #464746",
"/#	c #4E3C64",
"(#	c #635F92",
"_#	c #7F6F8F",
":#	c #89878A",
"<#	c #8D8D8D",
"[#	c #9D9798",
"}#	c #9F6F74",
"|#	c #A26A77",
"1#	c #8F7D8D",
"2#	c #857284",
"3#	c #705C71",
"4#	c #525253",
"5#	c #626365",
"6#	c #646465",
"7#	c #533D6A",
"8#	c #70729C",
"9#	c #946F98",
"0#	c #8B898C",
"a#	c #939393",
"b#	c #949091",
"c#	c #A48587",
"d#	c #A76B76",
"e#	c #A97181",
"f#	c #A87384",
"g#	c #8B6880",
"h#	c #5B595B",
"i#	c #696969",
"j#	c #535354",
"k#	c #626465",
"l#	c #626364",
"m#	c #616263",
"n#	c #606062",
"o#	c #5D5F60",
"p#	c #825168",
"q#	c #7A789F",
"r#	c #9D69A0",
"s#	c #878288",
"t#	c #87868A",
"u#	c #928495",
"v#	c #A97F89",
"w#	c #BB6977",
"x#	c #CA6C7A",
"y#	c #CE7682",
"z#	c #986374",
"A#	c #625C60",
"B#	c #4C4C4D",
"C#	c #575656",
"D#	c #505051",
"E#	c #A24E68",
"F#	c #8481AF",
"G#	c #8A5F96",
"H#	c #7F7A8D",
"I#	c #817B96",
"J#	c #A86B88",
"K#	c #CE7983",
"L#	c #E28489",
"M#	c #E28589",
"N#	c #DB8085",
"O#	c #9F5869",
"P#	c #61595D",
"Q#	c #4D4F4F",
"R#	c #505052",
"S#	c #9D5067",
"T#	c #8787BA",
"U#	c #655084",
"V#	c #8E6E92",
"W#	c #B07391",
"X#	c #D87E88",
"Y#	c #E5888B",
"Z#	c #E3878A",
"`#	c #D57B82",
" $	c #B76B74",
".$	c #815962",
"+$	c #5D595C",
"@$	c #4C4E4E",
"#$	c #765961",
"$$	c #8088BA",
"%$	c #60497F",
"&$	c #9B5B7B",
"*$	c #C76B7B",
"=$	c #D47C86",
"-$	c #B9717C",
";$	c #A86874",
">$	c #925F6C",
",$	c #775C64",
"'$	c #575758",
")$	c #747CA2",
"!$	c #7F7397",
"~$	c #7C5F77",
"{$	c #8A5A6D",
"]$	c #A1769B",
"^$	c #9588A0",
"/$	c #9692A7",
"($	c #9697A8",
"_$	c #8A8EA0",
":$	c #686C87",
"<$	c #5A5A5B",
"[$	c #8A6795",
"}$	c #9E8EA5",
"|$	c #736679",
"1$	c #71475F",
"2$	c #906998",
"3$	c #9D90A7",
"4$	c #A4A5AD",
"5$	c #ABADB3",
"6$	c #A29EA9",
"7$	c #826881",
"8$	c #715359",
"9$	c #866583",
"0$	c #886773",
"a$	c #834151",
"b$	c #903144",
"c$	c #904663",
"d$	c #896A7D",
"e$	c #8C878A",
"f$	c #928E8E",
"g$	c #95878A",
"h$	c #885A64",
"i$	c #754E52",
"j$	c #5B5A5A",
"k$	c #74515C",
"l$	c #823844",
"m$	c #A0474F",
"n$	c #BF5F64",
"o$	c #B76065",
"p$	c #A35761",
"q$	c #8A4953",
"r$	c #A55E62",
"s$	c #C3787B",
"t$	c #B3696E",
"u$	c #85565B",
"v$	c #595757",
"w$	c #4F5051",
"x$	c #5F5658",
"y$	c #813947",
"z$	c #813245",
"A$	c #71434E",
"B$	c #964048",
"C$	c #AB3E48",
"D$	c #AD464E",
"E$	c #B55B5F",
"F$	c #934F55",
"G$	c #B6626A",
"H$	c #A15362",
"I$	c #8B485E",
"J$	c #744B59",
"K$	c #5E5658",
"L$	c #515254",
"M$	c #72434D",
"N$	c #98283A",
"O$	c #98293B",
"P$	c #862F43",
"Q$	c #99293B",
"R$	c #9F2436",
"S$	c #9E2A39",
"T$	c #94444A",
"U$	c #695354",
"V$	c #79545F",
"W$	c #765680",
"X$	c #6D6DA5",
"Y$	c #68668D",
"Z$	c #5F5B60",
"`$	c #4D4E50",
" %	c #56585A",
".%	c #595B59",
"+%	c #803244",
"@%	c #8E3F4B",
"#%	c #785155",
"$%	c #982D40",
"%%	c #954266",
"&%	c #982D3A",
"*%	c #714549",
"=%	c #524E50",
"-%	c #5D536A",
";%	c #6F5683",
">%	c #723E60",
",%	c #6E3C4E",
"'%	c #614C52",
")%	c #525454",
"!%	c #575957",
"~%	c #832F43",
"{%	c #826293",
"]%	c #6F5563",
"^%	c #903D48",
"/%	c #85516D",
"(%	c #9C2839",
"_%	c #823D43",
":%	c #544E4E",
"<%	c #554C51",
"[%	c #693E52",
"}%	c #752948",
"|%	c #6D3549",
"1%	c #5A4A4F",
"2%	c #585859",
"3%	c #733D4A",
"4%	c #775174",
"5%	c #5C5254",
"6%	c #615858",
"7%	c #67595D",
"8%	c #863E45",
"9%	c #5D4F51",
"0%	c #5D4C51",
"a%	c #723049",
"b%	c #742B48",
"c%	c #693C4C",
"d%	c #554F50",
"e%	c #4B4D4D",
"f%	c #474848",
"g%	c #515353",
"h%	c #5A5858",
"i%	c #5D585A",
"j%	c #5A5759",
"k%	c #664953",
"l%	c #72344B",
"m%	c #694B58",
"n%	c #5C5A60",
"o%	c #5C5D60",
"p%	c #5E605E",
"q%	c #5B5659",
"r%	c #694552",
"s%	c #752A47",
"t%	c #73446C",
"u%	c #6B618E",
"v%	c #625C74",
"w%	c #5C5B5D",
"x%	c #654B54",
"y%	c #664954",
"z%	c #615057",
"A%	c #5F5E60",
"B%	c #525354",
"C%	c #4F504F",
"D%	c #505253",
"E%	c #535557",
"F%	c #555759",
"G%	c #4A4C4C",
"H%	c #4B4C4D",
"I%	c #494B4B",
"J%	c #555758",
"K%	c #535453",
"L%	c #595B5D",
"M%	c #494B4A",
"N%	c #525356",
"O%	c #535457",
"P%	c #484948",
"Q%	c #616163",
"R%	c #555557",
"S%	c #545456",
"T%	c #4D4D4F",
"U%	c #515152",
"V%	c #555556",
"W%	c #686868",
"X%	c #565658",
"Y%	c #565558",
"Z%	c #535254",
"`%	c #57595B",
"  . + @ @ # # $ % & & * = - ; @ > , , ' ) ! ~ { { . ] ^ / ( _ : ;   < < [ } } } } { | * 1 2 3 4 5 6 7 8 9 9 9 8 2       0 a b c ",
"d e ) f # f f f g h h g i j k l l m l l d d n ) o p o q - = r s t u v m l d w > x ) g y z A B C D E B } [ [ B F [ [ [ G G H I - ",
"n ~ * * E E E J J J K L M N O ~ ~ ~ ~ | | | | * * E J P Q J R S R g & ~ | ~ | | * E E J T U V W ; X * < < < F Y Z `       2  .Q ",
"g | * * E J J J J J ..K +.@.& | | * * * * * * E E J ..#.= * $.$.y ~ | | * * * E J J J J T a V W P ~ o . } [ %.%.Y <       &.*.= ",
"% | B =.E -.J J T T ..K @.@.;.| | * [ * * * B E E J J #.= * n & | | | * * * E E J J J J T a >.,.; n ! [ [ [ %.Y Y <     ` &.I _ ",
"} '.< < <       2 2 2 U ).b !.~ * [ [ [ [ '.< E E J J #.= | g | | | * * * * J E J J J ....2 9 ~.3 + {.< [ [ Y Y Y       Z ].^./.",
"[ < < <         2 2 8 (.).b z ~ * [ [ [ [ < < _.J ....P = * g | * * * * * E E E J J ....:.8 9 <.[.}.. < < < Y Y 0 <     Z a ^.|.",
"<   < <   ` ].T &.U 1.(.).b A 2.{ [ [ [ B G ` T 1 ....3.4._.y | 5.* =.B B _._._.T T :.:.6.8 9 <. .q ] < < < Y Z Z &.&.T a 7.b |.",
"          Z Z a a a 7.7.b 8.9.. [ < < < Y Y Z &.2 2 2 [.0.T r | | [ < < <       2 2 2 8 8 9 [.a.b.% 2.<     Z Z Z a a a a a b c.",
"  2 2 2 2 H d.e.e.f.V V b W _.. < < <   ].g.d.&.2 8 8 [.h.6.% * * < < <       2 2 2 2 9 9 [.3 i.j.% k.    2 a Z Z a a 7.a 7.^.l.",
"T 1 2 8 8 1.m.1.>.n.o.^.b p.` [   < < 2 2 H &.:.8 8 8 3 q.r.& * E   <   2 2 2 8 8 8 9 9 9 [.b.h.D & * 2 8 8 1.1.7.7.7.7.V V b s.",
"t.#.8 8 8 8 8 9 9 [.[.I 8.u.U         2 2 2 8 8 8 9 9 v.w.i.J E E   < 2 2 2 2 8 8 8 9 [.3 : = ( _ ..; 8 9 n.9 9 9 V V V V V x.( ",
"Q j.y.3 3 3 3 3 z.z.z.A.B.C.D.8 1.2 :.8 8 9 8 8 9 E.z.h.F.G.P ....2 2 2 8 3.[.3 3 3 z.<.H.Q 6 / / i.I.3 3 3 3 3 J.8.8.8.8.8.K.L.",
"_ G.H.M.0.N.N.O.N.N.0.P.Q.Q.R.S.~.,.,.T.,.7 T.J.,.U.K.V.W.X.Y.: b.3 3.*.I.Z.`.h./.l.q. +.+/ 5 ++/ _ 4.@+a.a.Y.<.Y.p.W W u.#+R.$+",
"g ~ <     ].a a a 7.a L @.%+V.@.&+Y Y Y Y Y Y *+L U M @.=+|.-+;+E E J J ..P j.D >+i._ c / / 5 ++c >+7 z.3 3 ,+I b b V V b b u.'+",
"R n )+{.. !+~+%.%.%.Y Y M {+]+^+/+~+%.Y Y Y Y Y *+*+]+M (+_+:+E E E E J J J ....#.#.P : Q 6 - 5 6 ~ f {.} < <+%.a Z Z a a a ^.%+",
"$.r }.. . ~+~+%.%.%.Y ^+]+[+i 9.}+%.%.Y Y Y Y Y *+*+L M |+:+| E * :+1+2+3+3+4+5+6+7+#.t.3.;+: c.>+f ] 8+8+F Y Z Z Z Z a a a ^.9+",
"n q . . } ~+~+%.%.%.Y F ..= B [ [ F %.Y Y Y Z Z Z a Z ]+|+^+~ E 0+a+b+c+d+e+f+g+h+i+j+9 9 [.z.0.D r | %.%.%.Y Y Y Z Z Z 7.a ^.C.",
"g ~ 2.} } 9.~+%.%.%.Y B ..Z.[ [ < k+Y Y Y Y Z Z Z a a l+|+i m+* n+o+d+d+p+q+r+s+t+u+v+9 9 z.v.`.>+r { %.Y Y Y Y Z Z Z a a 7.,+P.",
"% ~ ~ { } } 9.%.%.%.Y w+..Z.[ [ < G Y Y Y Y Z Z Z a U M |+i & x+y+d+d+d+z+A+B+C+D+E+F+D.r.C G+`.>+r i %.Y Y Y Y Z Z Z a a a ^.O.",
"~ | ~ * * [ [ 8+Y Y Y _.#.= =.< < < < <       &.2 2 :.P >+* ~ H+I+d+d+d+d+J+K+L+M+N+O+P+@.: D 6 >+% i %.Y Y Y Z Z Z Z a a a I H.",
"| * * * * [ [ < Y Y Y _.#.4.=.< < <         2 2 2 8 6.P >+E ~ Q+c+d+d+d+R+S+T+U+V+W+X+Y+N D D 6 >+& w+Y Z Z Z Z Z a a a 7.7.).6 ",
"E | * * * [ [ < Y Y Y _.#.4.=.< <           &.2 2 8 8 P i.J Z+`+R+ @.@d++@@@#@$@%@&@*@=@x.D D 6 >+& w+Y Z Z Z Z Z a a a 7.7.)._ ",
"E y { [ < Y Y Y Y Y Z ` 9 M.<   2 2 2 2 a a a 1.8 8 8 [.@+-@;@>@,@'@)@!@~@{@]@^@/@(@_@T.<.>+>+6 = & k+Z Z Z Z Z a 7.7.7.7.V x.G.",
"E y { < G Z Y Y Z Z a T 9 0.    2 8 8 2 U e.a 1.8 8 9 [.a.:@<@[@}@|@1@2@3@4@5@6@7@8@9@<.0@= >+6 6 O ].a a a a a 7.a 7.V V V 8.G.",
"J E <     Z Z Z Z a a &.9 h.8 2 1 8 8 9 8 a@>.r.[.9 9 3 M.b@c@d@e@f@g@h@i@j@k@l@m@n@o@E.<.Z.0@6 _ ~ T a a a a 7.7.V V V V V 8.G.",
"J p@      Z Z Z a a a 2 [.h.Z.;+3.3.[.[.[.;+;+j.: : I.a.q@r@s@t@u@v@w@x@y@z@A@B@C@D@E@^.K.i.@+0._ ~ U 7.7.7.7.7.7.V V V ^.^.8.h.",
"..T       ].Z Z a 7.7.(.3 F@q.c.6 H.M.@+4.Q >+D >+Q 0.F@G@H@I@J@K@L@M@N@O@P@Q@R@S@T@U@^.W a.@+l.( ..; V V V V V V V V ^.b b p.q@",
"G+y.V@x.3 b b b b W W U.0.W@/.Q Q G.G.h./.s. +X@w.Y@Z@`@ #- .#+#@###$#%#&#*#=#-#;#>#8.T.U.<.0.`@5 c.>+W U.W W W W 8.8.,#W p.C.Y@",
"a.T Z Z Z Z Z Z Z a a 7.x.'#m+y )#!#!#~#{#]#7.b W K.=+w.^#- _ /#(#_#:#<#[#}#|#1#2#3#4#Q _ - 5 ++c = ^ J * w+k+Z a 7.V ^.^.b [+5 ",
"2 [ %.%.%.%.%.Y %.Y Y Y ]+(+~ r r ~#5#5#5#5#{#{#5#!#6#../ 6 : 7#8#9#0#a#b#c#d#e#f#g#h#j.D Q  +5 D $.s R i#n !#5#]#~+%.Y Y Z M =+",
"[ [ %.%.%.Y Y Y %.Y Y *+]+j#m+r !.~#k#5#l#m#n#]#9.o#B #._ #.| p#q#r#s#t#u#v#w#x#y#z#A#w+K #.y.B#C#$.e )+| 2.9.F k+Y Y k+Z Z V |.",
"} [ %.%.%.%.%.Y Y Y Z ].#.= * | | { { [ B < _.`     ].]+D#K :+E#F#G#H#I#J#K#L#M#N#O#P#7.7.@.b 9+^ n }.[ [ [ [ [ < < < =.Z Z V Q#",
"[ [ %.%.Y Y Y Y Z Z Z T #.Q * * * [ [ < < <       2 ].]+R#K J S#T#U#V#W#X#Y#Z#`# $.$+$V V V b #+^ % } [ [ [ < < < [ < ` Z Z V @$",
"} [ F %.Y Y Y Y Z Z Z T P 6 * * * * [ < < <       &.].M {+2.* #$$$%$&$*$=$-$;$>$,$^+7.V V V b O.'$% { [ [ [ < < < `   ` Z Z V @$",
"=.* < < < ` ` ` Z Z a :.P 6 * * * B < < < <   ` Z a K P 6 } [ ` )$!$~${$]$^$/$($_$:$*+8 E.E.y.M.y.{.[ [ < < k+Y g.g.g.Z a a ^.X.",
"E E <   <       ].a a <$P c.* E * =.< < < <   &.a a U *._ B { _.[$}$|$1$2$3$4$5$6$7$8$9 9 [.z.M.z.} < [ < < Y Z Z Z Z a a a V B#",
"..p@            a a a :.^ c.* * E E <     T   &.a 7.(.;+_ 9   E 9$0$a$b$c$d$e$f$g$h$i$9 9 3 v.M.C } _.< < < Z Z Z Z a a a 7.V w.",
"#.........2 2 2 2 2 8 8 [.q@< [ <       ].a a a 7.V n.3 0.[.2 j$k$l$m$n$o$p$q$r$s$t$u$v$E.8.p.w$= | _.Z Z Z Y Z Z Z a a 7.a ^. +",
"^ #.......2 2 8 8 2 9 9 [.q@9 <   2 2 2 U 7.a 7.V V n.3 q@[.x$y$z$A$B$C$D$E$F$G$H$I$J$K$V@p.L$R.Q ~ _.Z Z Z a Z a 7.a 7.7.7.o.X.",
"j.#.#...#.2 2 8 8 8 9 9 3 F@`.8   2 2 2 1.7.7.7.V V I <.G@z.M$N$O$P$Q$R$S$T$U$V$W$X$Y$Z$_+p.L$`$_ | :+Z Z Z a a a a a 7.7.7. %X.",
"= ^ j.P ^ 8 8 8 8 9 3. .>+( c.b.6.:.2 2 2 8 9 .%[.V@a.( - >++%@%#%$%%%R$&%*%_ =%-%;%>%,%'%)%S.q@l...:.Z a a a a 7.7.7.7.V V  % +",
"_ >+D : : b.3 3 3 v.@+Q ( c - = ;+r.9 9 9 9 [.!%z.@+G@5 / _ ~%{%]%^%/%(%_%:%_ _ <%[%}%|%1%Z.M. +( : t.7.7.7.7.7.7.V V V V ^.8.4 ",
"b.^ 2%r.^ 9 9 [.*.z.M.l.c c 6 >+D Y.Y.Y.Y.)%0@@+M.0./.X.++ +3%4%5%6%7%8%9%4#0@D 0%a%b%c%d%0.e%4 - >+7 T.8.W 8.8.8.W W 8.p.u.#+f%",
"< 2 (.U ].0 Z ].a U 1.;+6 - *.    ` H a a a 7.V D.o.^.I L$g%h%h#P D.M i%V D.D.j%k%l%m%n%b W Q.W.]+i ^+o%Y Z Z Z a a a 7.7.V b $+",
"} p%o#%.Y Y Z Y Y a a _+D _ 2 < &.H a Z Z a a 7.7.a 7.V p.~.9 9 n.7.7.7.a 7.V q%r%s%t%u%v%w%W %+L *+*+Z Y Z Z Z a a a 7.7.7.).X.",
"} } ~+~+%.%.%.Y Z Y Z <$;+6   <   ].Z a a a a 7.7.a V V u.K.9 9 D.V V 7.a 7.7.7.U@x%y%y%z%A%^.R.^+*+*+Z Z Z Z Z a a 7.7.7.V ^.s.",
"| | %.%.%.%.%.%.Y Y 7.8 *.M.T < 2 U a a a a a 7.7.7.V V u.B%[.9 9 n.y.8 8 8 1.7.7.7.V V V w+-+/._.    Z Z Z Z Z a a a V 7.7.^.s.",
"* | %.%.%.Y Y %.Y Y (.n.V@M.    2 U a a 7.7.7.7.7.7.V V u.B%V@3 V@3 <.9 9 8 1.7.7.7.V V D.*.: /.<   ` Z Z Z Z Z a a a V 7.V b s.",
"| * %.%.%.Y Y Y Y Y 7.n.3 0.2   2 U a a a 7.7.7.7.7.V ^.L$g%3 z.,.@+M.v.9 8 1.7.7.7.V ^.I ;+C C%<   ` Z Z Z a a a 7.7.7.V V b - ",
"{ [ [ B G k+Y Y Z Y V E.z.0.2 2 8 U a 7.7.7.7.7.V V ^.^.L$D%8.E%u.^.(.8.r.9 n.V V V V ^.^.b A.P._.  ].a a a a a 7.7.V V V V b X.",
"} [ [ [ < Y Y Y Z Z o.*.z.0.2 2 8 U a 7.7.7.7.7.V V b b #+#+8.p.^.7.7.>.[.9 n.V V V V ^.b F%p.P.<   T a a a a a 7.7.V ^.^.^.8.e%",
"} < < < < Y Y Z Z Z ^.V@v.h.8 2 8 (.7.7.V V V V V ^.b x.9+9+u.W V 7.V 1.V@9 n.V ^.^.^.b b W u.C.< 2 &.a 7.7.7.7.7.V V b ^.^.8.G%",
"} <       Z Z Z a a ^.x.v.q@9 2 8 (.V V V V V V ^.^.N 7 |.H%Q.#+^.V 7.>.b D.D.r.*.*.*.V@J.: 0@_ J :.:.8 8 8 1.n.n.E.[.E.b b W I%",
"< 2       Z Z Z a a b y.<.G@3 9 [.D.D.^.^.^.b b b b T.0@/ L.C.L$W b b 8.8.8.J%z.7 v.v.~.K%= 6 - #.P t.; 9 9 9 9 [.[.[.&.8.W u.`@",
"<     T 2 ].a a L%L%b J.@+M%M.@+a.U.W p.p.p.p.u.u.L$[+- 5 H%%.%.x.p.N%p.O%W U.v.Y.0@0.h.C%_ ( / - >+;+3 3 z.z.z.z.z.z.T.x.8.8.@$",
"K%I.I.z.*.r._+<$..:.j C% +P%C%*.1 T a a a a Z a a a ]+@.4#=+_+w+].&.1.1.<$<$<$(.(.y.Y.K%K%j#=+X@=+% r % z q q q q & q z Q%Q%{#(.",
"P ....J T ..#.......P ;+= 5 ^ ....U a a a Z a a a 7.]+M (+=+P J -.  2 2 ....:.7.7.t.j.: : R%S%T%P i#~ * E E E E E E E E *+*+L |+",
"..E J J J J ........#.#.^ Q #.....].Z Z Z a a a a a a 7.|+U%E J         ..#.<$a 7.1.^ V%V%R%R%4#E $.| E E E E E J J J J L L M (+",
"            T 2 U U 7.V @.V.r.2 1   ` &.&.&.&.&.U m.]+]+S%j#@ [           1 2 &.1.(.N 8.R%R%R%j#* $.| E E E < < <       K ..#.= ",
"              2 U a 7.V ^.V.I #   <   2 2 2 2 2 2 8 (.7.S%K.@ [ <         2 2 2 8 t.V 8.8.R%R%(+* W%| E E E < < <       ..#.P = ",
"        2 2 2 2 m.V V ^.^.#+E.{.    2 2 2 2 2 2 2 2 D.M S%C {.[           2 2 2 8 8 f.b W X%Y%Z%* W%| E E E < < <     2 J #.P = ",
"8   2 2   &.U U 7.7.V V b 9+2%{ T 2 2 2 2 2 2 2 m.1.V V p.)%<           ].U U m.1.(.V b 8.X%X%j#* W%| E E E -.-.-.    2 K U _+D#",
"8   2 2   H a a 7.7.V ^.b 9+2%....2 2 2 2 2 2 :.7.7.>.`%u.K.<           Z a a 7.7.(.V b 8.X%X%j#* W%| E E E J J J     2 a a M D#"};
