/* XPM */
static char * rigth_3_xpm[] = {
"64 64 637 2",
"  	c #5B5D5C",
". 	c #5F6160",
"+ 	c #616362",
"@ 	c #626463",
"# 	c #636564",
"$ 	c #626362",
"% 	c #626262",
"& 	c #616161",
"* 	c #5E5E5E",
"= 	c #525252",
"- 	c #4D4D4D",
"; 	c #595A59",
"> 	c #666867",
", 	c #696B6A",
"' 	c #676968",
") 	c #656666",
"! 	c #636464",
"~ 	c #606060",
"{ 	c #5E5F5F",
"] 	c #606161",
"^ 	c #585858",
"/ 	c #4A4A4A",
"( 	c #4C4C4C",
"_ 	c #4F4F4F",
": 	c #555555",
"< 	c #5C5E5D",
"[ 	c #5D5F5E",
"} 	c #5E605F",
"| 	c #5F5F5F",
"1 	c #5B5C5B",
"2 	c #5A5C5B",
"3 	c #565857",
"4 	c #494A4A",
"5 	c #494949",
"6 	c #505050",
"7 	c #555656",
"8 	c #595B5A",
"9 	c #585A59",
"0 	c #5B5D5E",
"a 	c #5A5B5D",
"b 	c #565759",
"c 	c #4B4B4B",
"d 	c #686969",
"e 	c #676868",
"f 	c #646565",
"g 	c #656565",
"h 	c #666666",
"i 	c #5E5E5F",
"j 	c #545455",
"k 	c #696A69",
"l 	c #696A6A",
"m 	c #6A6B6A",
"n 	c #676767",
"o 	c #656665",
"p 	c #646564",
"q 	c #616261",
"r 	c #636363",
"s 	c #6C6C6C",
"t 	c #6D6E6D",
"u 	c #6C6D6D",
"v 	c #6B6C6B",
"w 	c #686968",
"x 	c #656766",
"y 	c #646464",
"z 	c #616262",
"A 	c #606162",
"B 	c #5D5E5E",
"C 	c #545555",
"D 	c #545454",
"E 	c #5D5D5D",
"F 	c #5D5E5F",
"G 	c #5C5E5E",
"H 	c #5A5C5D",
"I 	c #575859",
"J 	c #5C5C5C",
"K 	c #5B5B5C",
"L 	c #5B5B5D",
"M 	c #59595B",
"N 	c #575759",
"O 	c #5F5F60",
"P 	c #595959",
"Q 	c #515151",
"R 	c #6B6B6B",
"S 	c #6D6D6D",
"T 	c #5B5C5C",
"U 	c #5A5B5C",
"V 	c #58595B",
"W 	c #545557",
"X 	c #5E5E5D",
"Y 	c #5C5D5F",
"Z 	c #5B5C5E",
"` 	c #5B5D5D",
" .	c #575857",
"..	c #5B5B5B",
"+.	c #58585B",
"@.	c #58585A",
"#.	c #5A5A5A",
"$.	c #6A6A6A",
"%.	c #5D5E60",
"&.	c #5A5C5C",
"*.	c #575858",
"=.	c #5D5E5D",
"-.	c #5C5D5C",
";.	c #626263",
">.	c #585A5B",
",.	c #545656",
"'.	c #5C5F5E",
").	c #56575A",
"!.	c #636364",
"~.	c #535555",
"{.	c #606261",
"].	c #5B5C5D",
"^.	c #57585A",
"/.	c #4E4F4F",
"(.	c #595A5B",
"_.	c #5C5D5D",
":.	c #5A5B5B",
"<.	c #535554",
"[.	c #575958",
"}.	c #606160",
"|.	c #4E4E4F",
"1.	c #595B5B",
"2.	c #5F6060",
"3.	c #585958",
"4.	c #515251",
"5.	c #5E5F5E",
"6.	c #5A5B5A",
"7.	c #595A5C",
"8.	c #555658",
"9.	c #5E5F60",
"0.	c #4F5150",
"a.	c #525453",
"b.	c #565756",
"c.	c #4E4E4E",
"d.	c #5A5B5E",
"e.	c #595A5D",
"f.	c #58595C",
"g.	c #5B5C5F",
"h.	c #4E504F",
"i.	c #515252",
"j.	c #565656",
"k.	c #5F605F",
"l.	c #4D4E4E",
"m.	c #595B5C",
"n.	c #585A5A",
"o.	c #57595A",
"p.	c #535456",
"q.	c #4D4E4D",
"r.	c #585959",
"s.	c #4D4D4E",
"t.	c #595A5A",
"u.	c #525355",
"v.	c #545655",
"w.	c #4B4C4B",
"x.	c #565758",
"y.	c #565757",
"z.	c #555756",
"A.	c #535556",
"B.	c #4F5053",
"C.	c #4E4F51",
"D.	c #58595A",
"E.	c #575959",
"F.	c #484A4A",
"G.	c #4F5050",
"H.	c #505151",
"I.	c #555655",
"J.	c #555757",
"K.	c #535455",
"L.	c #4A4A4B",
"M.	c #505251",
"N.	c #4F5151",
"O.	c #505152",
"P.	c #4E5051",
"Q.	c #4C4D4F",
"R.	c #4E4F50",
"S.	c #505252",
"T.	c #555657",
"U.	c #545556",
"V.	c #515253",
"W.	c #494A4B",
"X.	c #4C4D4D",
"Y.	c #535454",
"Z.	c #525352",
"`.	c #505150",
" +	c #4B4C4C",
".+	c #4A4B4A",
"++	c #484848",
"@+	c #515352",
"#+	c #505153",
"$+	c #484949",
"%+	c #4C4C4E",
"&+	c #5C5C5F",
"*+	c #5C5C5E",
"=+	c #4F4F50",
"-+	c #565657",
";+	c #575757",
">+	c #535353",
",+	c #565859",
"'+	c #49494B",
")+	c #626363",
"!+	c #5F6061",
"~+	c #5E5F61",
"{+	c #4F4F51",
"]+	c #5A5A5C",
"^+	c #5D5D5F",
"/+	c #5F5F61",
"(+	c #525254",
"_+	c #59595A",
":+	c #5C5C5D",
"<+	c #5C5E5F",
"[+	c #515153",
"}+	c #5E5E60",
"|+	c #535355",
"1+	c #514E60",
"2+	c #4C4660",
"3+	c #4C4560",
"4+	c #4B4460",
"5+	c #57555E",
"6+	c #5B595D",
"7+	c #4F5052",
"8+	c #535354",
"9+	c #565263",
"0+	c #453E74",
"a+	c #3F3E8B",
"b+	c #3F4191",
"c+	c #4C408E",
"d+	c #73326E",
"e+	c #9A3249",
"f+	c #8F4A4F",
"g+	c #5E5B5D",
"h+	c #5C5D5E",
"i+	c #5A595B",
"j+	c #606061",
"k+	c #4D4957",
"l+	c #474481",
"m+	c #3F4090",
"n+	c #4A408E",
"o+	c #983368",
"p+	c #B12B4C",
"q+	c #B52F4A",
"r+	c #B32C47",
"s+	c #705459",
"t+	c #5D5D5E",
"u+	c #545554",
"v+	c #46426C",
"w+	c #41408A",
"x+	c #6A3B81",
"y+	c #8D3266",
"z+	c #5D428A",
"A+	c #946692",
"B+	c #6C558E",
"C+	c #624062",
"D+	c #5D5F5F",
"E+	c #5B5E5D",
"F+	c #5A5D5C",
"G+	c #4B4853",
"H+	c #43417D",
"I+	c #3F408F",
"J+	c #4B4491",
"K+	c #966793",
"L+	c #E8A8A4",
"M+	c #B897A6",
"N+	c #463C81",
"O+	c #54525C",
"P+	c #48445F",
"Q+	c #413F84",
"R+	c #3F4190",
"S+	c #41408D",
"T+	c #7A5489",
"U+	c #DD9C9C",
"V+	c #F6D1C0",
"W+	c #D8A1A0",
"X+	c #5A4789",
"Y+	c #49415E",
"Z+	c #464166",
"`+	c #3F3D85",
" @	c #483E89",
".@	c #4F418C",
"+@	c #444190",
"@@	c #544179",
"#@	c #7A4464",
"$@	c #BB8E8E",
"%@	c #F3CFBF",
"&@	c #AE797F",
"*@	c #523D81",
"=@	c #494261",
"-@	c #525053",
";@	c #453F67",
">@	c #3F387C",
",@	c #794A72",
"'@	c #925A81",
")@	c #5E4A8F",
"!@	c #5C5493",
"~@	c #928398",
"{@	c #825363",
"]@	c #AA8083",
"^@	c #F0CEBE",
"/@	c #BD8789",
"(@	c #5E2C4F",
"_@	c #483F59",
":@	c #525353",
"<@	c #514D58",
"[@	c #4C425A",
"}@	c #41356A",
"|@	c #3D2C69",
"1@	c #AA7380",
"2@	c #D29B9E",
"3@	c #906F98",
"4@	c #A889A1",
"5@	c #E0E3E9",
"6@	c #8B8C8D",
"7@	c #D3B5A7",
"8@	c #F7D5C3",
"9@	c #C3B2AF",
"0@	c #3D3044",
"a@	c #483E57",
"b@	c #585A5C",
"c@	c #4F4361",
"d@	c #492A69",
"e@	c #422B6E",
"f@	c #3E2760",
"g@	c #966977",
"h@	c #D2A9A3",
"i@	c #BC8997",
"j@	c #D79EA3",
"k@	c #F8E5E0",
"l@	c #CBB7AD",
"m@	c #F0CFBE",
"n@	c #F8D6C4",
"o@	c #EBC7C1",
"p@	c #755061",
"q@	c #4B4258",
"r@	c #5C5B5C",
"s@	c #4D4F4E",
"t@	c #4B4462",
"u@	c #492E6F",
"v@	c #48236C",
"w@	c #432563",
"x@	c #522762",
"y@	c #774565",
"z@	c #965A6C",
"A@	c #CF8186",
"B@	c #F1C1B4",
"C@	c #F8D4C3",
"D@	c #F8D2C1",
"E@	c #F1C9BB",
"F@	c #E2A9A2",
"G@	c #894464",
"H@	c #524F59",
"I@	c #4C4E4D",
"J@	c #4B4D4C",
"K@	c #515057",
"L@	c #45416C",
"M@	c #433271",
"N@	c #49276F",
"O@	c #4F3578",
"P@	c #54417D",
"Q@	c #6B657A",
"R@	c #66626D",
"S@	c #9E576B",
"T@	c #D69595",
"U@	c #E9B8AE",
"V@	c #E3B2A8",
"W@	c #C49494",
"X@	c #9A596E",
"Y@	c #4D3857",
"Z@	c #55555A",
"`@	c #565858",
" #	c #484A49",
".#	c #4B4B4C",
"+#	c #4A4B4B",
"@#	c #494A49",
"##	c #474948",
"$#	c #454746",
"%#	c #525156",
"&#	c #4B485F",
"*#	c #483B64",
"=#	c #4E3874",
"-#	c #625B92",
";#	c #736495",
">#	c #87808F",
",#	c #8A898A",
"'#	c #86686F",
")#	c #AF576D",
"!#	c #B4717F",
"~#	c #AF8188",
"{#	c #7F5A72",
"]#	c #4A3B59",
"^#	c #504E57",
"/#	c #545657",
"(#	c #4D4E4F",
"_#	c #656564",
":#	c #646566",
"<#	c #636465",
"[#	c #616264",
"}#	c #5F6062",
"|#	c #464746",
"1#	c #4F4E4E",
"2#	c #535453",
"3#	c #515152",
"4#	c #4D4C4F",
"5#	c #4B3B61",
"6#	c #5E568D",
"7#	c #716D9E",
"8#	c #8E699D",
"9#	c #88768A",
"0#	c #707070",
"a#	c #B26773",
"b#	c #905F7C",
"c#	c #8C828B",
"d#	c #977D99",
"e#	c #67646B",
"f#	c #626365",
"g#	c #646465",
"h#	c #514F53",
"i#	c #534F6E",
"j#	c #696B9E",
"k#	c #776494",
"l#	c #936997",
"m#	c #8C7E8D",
"n#	c #7C7B7C",
"o#	c #6F666F",
"p#	c #AC7583",
"q#	c #967989",
"r#	c #908A90",
"s#	c #968598",
"t#	c #6D6D6F",
"u#	c #626465",
"v#	c #626364",
"w#	c #616263",
"x#	c #606062",
"y#	c #5D5F60",
"z#	c #62677B",
"A#	c #6C72A1",
"B#	c #776592",
"C#	c #836F87",
"D#	c #7D787F",
"E#	c #777784",
"F#	c #87698E",
"G#	c #937F92",
"H#	c #979395",
"I#	c #ADACAC",
"J#	c #91898A",
"K#	c #665E62",
"L#	c #505051",
"M#	c #62677C",
"N#	c #6D73A1",
"O#	c #706D9C",
"P#	c #836F91",
"Q#	c #906C84",
"R#	c #976481",
"S#	c #A27096",
"T#	c #AD808D",
"U#	c #A48189",
"V#	c #B7B2B3",
"W#	c #AB969B",
"X#	c #8F5867",
"Y#	c #625D5E",
"Z#	c #4D4F4F",
"`#	c #505052",
" $	c #646098",
".$	c #99608B",
"+$	c #C8788D",
"@$	c #CB6E7E",
"#$	c #C97A88",
"$$	c #CE7C83",
"%$	c #C6737D",
"&$	c #A9969A",
"*$	c #9A7A8C",
"=$	c #AC4D6A",
"-$	c #6A5C5E",
";$	c #4C4E4E",
">$	c #5E6272",
",$	c #6E75A0",
"'$	c #61588D",
")$	c #995472",
"!$	c #DB8186",
"~$	c #E5888B",
"{$	c #E5888C",
"]$	c #E58A8C",
"^$	c #D37580",
"/$	c #8C7188",
"($	c #845E77",
"_$	c #9D4F67",
":$	c #675B5D",
"<$	c #585A5F",
"[$	c #676D8B",
"}$	c #7B6C94",
"|$	c #906078",
"1$	c #B56874",
"2$	c #C37C86",
"3$	c #C4858C",
"4$	c #C88D93",
"5$	c #C19399",
"6$	c #918995",
"7$	c #716068",
"8$	c #725961",
"9$	c #5E5C5F",
"0$	c #5A5A5B",
"a$	c #75677E",
"b$	c #928496",
"c$	c #906773",
"d$	c #8A4E59",
"e$	c #936880",
"f$	c #9F8195",
"g$	c #A4959A",
"h$	c #A9A1A3",
"i$	c #A0A0A0",
"j$	c #715E61",
"k$	c #4C4C4D",
"l$	c #575756",
"m$	c #817980",
"n$	c #96777E",
"o$	c #AD666A",
"p$	c #B96669",
"q$	c #9E5E6C",
"r$	c #8C6379",
"s$	c #92818E",
"t$	c #9B979B",
"u$	c #958E8F",
"v$	c #71575B",
"w$	c #645053",
"x$	c #87585B",
"y$	c #B8696C",
"z$	c #D27779",
"A$	c #CD6E71",
"B$	c #BD6366",
"C$	c #AB5761",
"D$	c #97505F",
"E$	c #8E6368",
"F$	c #865E61",
"G$	c #66585B",
"H$	c #585053",
"I$	c #724449",
"J$	c #AB6064",
"K$	c #B85B61",
"L$	c #AE434D",
"M$	c #AB3E48",
"N$	c #A23945",
"O$	c #B7595F",
"P$	c #C0676A",
"Q$	c #825C5E",
"R$	c #5E5A5D",
"S$	c #515254",
"T$	c #704249",
"U$	c #913C49",
"V$	c #943144",
"W$	c #94273D",
"X$	c #9B2438",
"Y$	c #9D2437",
"Z$	c #AD4A54",
"`$	c #B96A6F",
" %	c #786163",
".%	c #56585A",
"+%	c #595B59",
"@%	c #525454",
"#%	c #803D43",
"$%	c #992839",
"%%	c #9C2438",
"&%	c #8F3757",
"*%	c #833E5A",
"=%	c #85454E",
"-%	c #893A4A",
";%	c #804B56",
">%	c #625A5D",
",%	c #575957",
"'%	c #803B41",
")%	c #9B2838",
"!%	c #94323D",
"~%	c #982F42",
"{%	c #874A65",
"]%	c #6D575E",
"^%	c #65585A",
"/%	c #5E575A",
"(%	c #585859",
"_%	c #525253",
":%	c #4B4D4D",
"<%	c #5E4547",
"[%	c #714346",
"}%	c #664D4F",
"|%	c #7A434A",
"1%	c #863349",
"2%	c #793249",
"3%	c #674B54",
"4%	c #585658",
"5%	c #474848",
"6%	c #515353",
"7%	c #4B4A4B",
"8%	c #5C595B",
"9%	c #5F5E5F",
"0%	c #6B4A54",
"a%	c #762F49",
"b%	c #752C48",
"c%	c #645158",
"d%	c #5C5B5E",
"e%	c #5E605E",
"f%	c #60575B",
"g%	c #6F3C4E",
"h%	c #752A48",
"i%	c #67515F",
"j%	c #5D5B60",
"k%	c #5F585C",
"l%	c #6E3E4F",
"m%	c #742A48",
"n%	c #715889",
"o%	c #64668A",
"p%	c #5C5E65",
"q%	c #525354",
"r%	c #5F585A",
"s%	c #664D56",
"t%	c #674B56",
"u%	c #645159",
"v%	c #5C5B5D",
"w%	c #4F504F",
"x%	c #505253",
"y%	c #535557",
"z%	c #555759",
"A%	c #4A4C4C",
"B%	c #4B4C4D",
"C%	c #494B4B",
"D%	c #555758",
"E%	c #595B5D",
"F%	c #494B4A",
"G%	c #525356",
"H%	c #535457",
"I%	c #484948",
"J%	c #616163",
"K%	c #555557",
"L%	c #545456",
"M%	c #4D4D4F",
"N%	c #696969",
"O%	c #555556",
"P%	c #686868",
"Q%	c #565658",
"R%	c #565558",
"S%	c #535254",
"T%	c #57595B",
"  . + @ @ # # $ % & & * = - ; @ > , , ' ) ! ~ { { . ] ^ / ( _ : ;   < < [ } } } } { | * 1 2 3 4 5 6 7 8 9 9 9 8 2       0 a b c ",
"d e ) f # f f f g h h g i j k l l m l l d d n ) o p o q - = r s t u v m l d w > x ) g y z A B C D E B } [ [ B F [ [ [ G G H I - ",
"n ~ * * E E E J J J K L M N O ~ ~ ~ ~ | | | | * * E J P Q J R S R g & ~ | ~ | | * E E J T U V W ; X * < < < F Y Z `       2  .Q ",
"g | * * E J J J J J ..K +.@.& | | * * * * * * E E J ..#.= * $.$.y ~ | | * * * E J J J J T a V W P ~ o . } [ %.%.Y <       &.*.= ",
"% | B =.E -.J J T T ..K @.@.;.| | * [ * * * B E E J J #.= * n & | | | * * * E E J J J J T a >.,.; n ! [ [ [ %.Y Y <     ` &.I _ ",
"} '.< < <       2 2 2 U ).b !.~ * [ [ [ [ '.< E E J J #.= | g | | | * * * * J E J J J ....2 9 ~.3 + {.< [ [ Y Y Y       Z ].^./.",
"[ < < <         2 2 8 (.).b z ~ * [ [ [ [ < < _.J ....P = * g | * * * * * E E E J J ....:.8 9 <.[.}.. < < < Y Y 0 <     Z a ^.|.",
"<   < <   ` ].T &.U 1.(.).b A 2.{ [ [ [ B G ` T 1 ....3.4._.y | 5.* =.B B _._._.T T :.:.6.8 9 <. .q ] < < < Y Z Z &.&.T a 7.b |.",
"          Z Z a a a 7.7.b 8.9.. [ < < < Y Y Z &.2 2 2 [.0.T r | | [ < < <       2 2 2 8 8 9 [.a.b.% 2.<     Z Z Z a a a a a b c.",
"  2 2 2 2 H d.e.e.f.V V b W _.. < < <   ].g.d.&.2 8 8 [.h.6.% * * < < <       2 2 2 2 9 9 [.3 i.j.% k.    2 a Z Z a a 7.a 7.^.l.",
"T 1 2 8 8 1.m.1.>.n.o.^.b p.` [   < < 2 2 H &.:.8 8 8 3 q.r.& * E   <   2 2 2 8 8 8 9 9 9 [.b.h.D & * 2 8 8 1.1.7.7.7.7.V V b s.",
"t.#.8 8 8 8 8 9 9 [.[.I 8.u.U         2 2 2 8 8 8 9 9 v.w.i.J E E   < 2 2 2 2 8 8 8 9 [.3 : = ( _ ..; 8 9 n.9 9 9 V V V V V x.( ",
"Q j.y.3 3 3 3 3 z.z.z.A.B.C.D.8 1.2 :.8 8 9 8 8 9 E.z.h.F.G.P ....2 2 2 8 3.[.3 3 3 z.<.H.Q 6 / / i.I.3 3 3 3 3 J.8.8.8.8.8.K.L.",
"_ G.H.M.0.N.N.O.N.N.0.P.Q.Q.R.S.~.,.,.T.,.7 T.J.,.U.K.V.W.X.Y.: b.3 3.*.I.Z.`.h./.l.q. +.+/ 5 ++/ _ 4.@+a.a.Y.<.Y.p.W W u.#+R.$+",
"g ~ <     ].a a a 7.a L @.%+V.@.&+Y Y Y Y Y Y *+L U M @.=+|.-+;+E E J J ..P j.D >+i._ c / / 5 ++c >+7 z.3 3 ,+I b b V V b b u.'+",
"R n )+{.. !+~+%.%.%.Y Y M {+]+^+/+~+%.Y Y Y Y Y *+*+]+M (+_+:+E E E E J J J ....#.#.P : Q 6 - 5 6 ~ f {.} < <+%.a Z Z a a a ^.%+",
"$.r }.. . ~+~+%.%.%.Y ^+]+[+i 9.}+%.%.Y Y Y Y Y *+*+L M |+:+| E * E E E J J J ......#.t.3.;+: c.>+f ~+1+2+3+4+5+6+*+Z a a a ^.7+",
"n q . . } ~+~+%.%.%.Y F ..= B [ [ F %.Y Y Y Z Z Z a Z ]+|+^+~ E E E E E J J T 2 2 2 8 9 9 [.z.0.8+9+0+a+b+b+c+d+e+f+g+Z 7.a ^.C.",
"g ~ 2.} } 9.~+%.%.%.Y B ..Z.[ [ < h+Y Y Y Y Z Z Z a a i+|+i j+* E E E E J J 1 2 2 2 8 9 9 z.v.`.k+l+m+b+b+n+o+p+q+r+s+a a 7.,+P.",
"% ~ ~ { } } 9.%.%.%.Y t+..Z.[ [ < G Y Y Y Y Z Z Z a U M |+i & * =.< E E J J 1 2 2 1.1.n.r.C u+G.v+w+b+b+b+x+y+z+A+B+C+e.a a ^.O.",
"~ | ~ * * [ [ D+Y Y Y _.#.= =.< < < < <       &.2 2 :.P >+* ~ E E < E+E+F+F+  2   1.7.f.@.: D G+H+I+b+b+b+b+J+K+L+M+N+O+a a I H.",
"| * * * * [ [ < Y Y Y _.#.4.=.< < <         2 2 2 8 6.P >+E ~ E E <         2 8 2 1.f.V N D D P+Q+R+b+b+b+S+T+U+V+W+X+Y+7.7.).6 ",
"E | * * * [ [ < Y Y Y _.#.4.=.< <           &.2 2 8 8 P i.J | E E <       2 2 8 8 t.V o.x.D D Z+`+ @.@+@b+@@#@$@%@&@*@=@7.7.)._ ",
"E y { [ < Y Y Y Y Y Z ` 9 M.<   2 2 2 2 a a a 1.8 8 8 [.@+-.| J J J J T 2 2 2 8 9 9 [.3 <.>+-@;@>@,@'@)@!@~@{@]@^@/@(@_@7.V x.G.",
"E y { < G Z Y Y Z Z a T 9 0.    2 8 8 2 U e.a 1.8 8 9 [.a.-.| E J J J 1 2 8 8 8 8 3 v.<.:@<@[@}@|@1@2@3@4@5@6@7@8@9@0@a@V V 8.G.",
"J E <     Z Z Z Z a a &.9 h.8 2 1 8 8 9 8 b@>.r.[.9 9 3 M.:.E ..........2 8 8 8 9 9 n.E.<.c@d@e@f@g@h@i@j@k@l@m@n@o@p@q@V V 8.G.",
"J r@      Z Z Z a a a 2 [.h.Z.;+3.3.[.[.[.;+;+j.: : I.a.s@u+^ ..#.8 8 2 8 8 8 9 9 D.^.^.u.t@u@v@w@x@y@z@A@B@C@D@E@F@G@H@^.^.8.h.",
"..T       ].Z Z a 7.7.(.3 I@q.c.6 H.M.@+4.Q >+D >+Q 0.I@J@4.I.^ r.3 3 9 9 9 9 9 9 [.b ^.K@L@M@N@O@P@Q@R@S@T@U@V@W@X@Y@Z@b b p.s@",
"u+y.`@x.3 b b b b W W U.0. #/.Q Q G.G.h./.s. +.#w.+#@###$#- 6 = u+C 7 [.[.[.*. .3 y.8.T.%#&#*#=#-#;#>#,#'#)#!#~#{#]#^#/#W p.C.+#",
"a.T Z Z Z Z Z Z Z a a 7.x.(#j+y _#:#:#<#[#}#7.b W K.=+w.|#- _ 1#_ 6 = u+v.<.2#>+= Q 3#Q _ 4#5#6#7#8#9#,#0#a#b#c#d#e#V ^.^.b [+5 ",
"2 [ %.%.%.%.%.Y %.Y Y Y ]+(+~ r r <#f#f#f#f#[#[#f#:#g#../ 6 : j.;+;+ .3.[.[.*.^ ;+;+;+j.D h#i#j#k#l#m#n#o#p#q#r#s#t#%.Y Y Z M =+",
"[ [ %.%.%.Y Y Y %.Y Y *+]+8+j+r !.<#u#f#v#w#x#}#9.y#B #._ #.| ~ ~ | }.2.} . { * B E :+t+K #.z#A#B#C#D#E#F#G#H#I#J#K#Y h+Z Z V |.",
"} [ %.%.%.%.%.Y Y Y Z ].#.= * | | { { [ B < _.`     ].]+L#K :+E < < -.        2 2 U 7.7.7.@.M#N#O#P#Q#R#S#T#U#V#W#X#Y#=.Z Z V Z#",
"[ [ %.%.Y Y Y Y Z Z Z T #.Q * * * [ [ < < <       2 ].]+`#K J J -.        2 2 2 2 U 7.V V V M#N# $.$+$@$#$$$%$&$*$=$-$` Z Z V ;$",
"} [ F %.Y Y Y Y Z Z Z T P 6 * * * * [ < < <       &.].M {+2.* J J         2 2 2 2 2 7.V V V >$,$'$)$!$~${$]$^$/$($_$:$` Z Z V ;$",
"=.* < < < ` ` ` Z Z a :.P 6 * * * B < < < <   ` Z a K P 6 } [     Z Z ].  2 2 2 8 8 8 8 E.E.<$[$}$|$1$2$3$4$5$6$7$8$9$Z a a ^.X.",
"E E <   <       ].a a 0$P c.* E * =.< < < <   &.a a U *._ B {   ` Z Z H   2 2 8 8 8 8 9 9 [.3 a$b$c$d$e$f$g$h$i$j$*+Z a a a V k$",
"..r@            a a a :.^ c.* * E E <     T   &.a 7.(.;+_ 9     ].a a a 2 9 8 8 8 8 9 9 9 3 l$m$n$o$p$q$r$s$t$u$v$*+a a a 7.V w.",
"#.........2 2 2 2 2 8 8 [.s@< [ <       ].a a a 7.V n.3 0.[.2 8 1.7.7.7.2 8 9 9 9 9 [.[.E.8.w$x$y$z$A$B$C$D$E$F$G$Z a a 7.a ^. +",
"^ #.......2 2 8 8 2 9 9 [.s@9 <   2 2 2 U 7.a 7.V V n.3 s@[.2 8 (.7.7.>.9 [.9 9 9 9 [.[.`@p.H$I$J$K$L$M$N$O$P$Q$R$7.a 7.7.7.o.X.",
"j.#.#...#.2 2 8 8 8 9 9 3 I@`.8   2 2 2 1.7.7.7.V V I <.J@z.3.r.r.D.D.E.3 v.<.<.<.<.b.3 `@p.S$T$U$V$W$X$Y$Z$`$ %L a a 7.7.7..%X.",
"= ^ j.P ^ 8 8 8 8 9 3. .>+( c.b.6.:.2 2 2 8 9 +%[.`@a.( - >+>+= = = :@= 4.G./._ _ 6 >+I.7 @%S.#%$%%%&%*%=%-%;%>%7.7.7.7.V V .% +",
"_ >+D : : b.3 3 3 v.@+Q ( c - = ;+r.9 9 9 9 [.,%z.@+J@5 / _ Q 6 6 6 6 6 6 _ _ _ _ _ _ _ Q Z.M.'%)%!%~%{%]%^%/%7.7.V V V V ^.8.4 ",
"b.^ (%r.^ 9 9 [.*.z.M.l.c c 6 >+D Y.Y.Y.Y.@%:@@+M.0./.X.++ += >+>+:@:@:@_%_%:@D Y.D >+i.4.0.:%<%[%}%|%1%2%3%4%8.8.W W 8.p.u.#+5%",
"< 2 (.U ].0 Z ].a U 1.;+6 - *.    ` H a a a 7.V D.o.^.I S$6%9 9 r.D.V V V D.D.D.D.D.D.I x.W Q.7%8%9%0%a%b%c%d%Z a a a 7.7.V b $+",
"} e%y#%.Y Y Z Y Y a a _+D _ 2 < &.H a Z Z a a 7.7.a 7.V p.~.9 9 n.7.7.7.a 7.V V 7.7.V V V Z W %+L f%g%h%i%j%Z Z a a a 7.7.7.).X.",
"} } ~+~+%.%.%.Y Z Y Z 0$;+6   <   ].Z a a a a 7.7.a V V u.K.9 9 D.V V 7.a 7.7.7.7.7.V V (.~+^.R.^+k%l%m%n%o%p%Z a a 7.7.7.V ^.s.",
"| | %.%.%.%.%.%.Y Y 7.8 *.M.T < 2 U a a a a a 7.7.7.V V u.q%[.9 9 n.y.8 8 8 1.7.7.7.V V V t+-+/._.  r%s%t%u%v%Z a a a V 7.7.^.s.",
"* | %.%.%.Y Y %.Y Y (.n.`@M.    2 U a a 7.7.7.7.7.7.V V u.q%`@3 `@3 <.9 9 8 1.7.7.7.V V D.*.: /.<   ` Z Z Z Z Z a a a V 7.V b s.",
"| * %.%.%.Y Y Y Y Y 7.n.3 0.2   2 U a a a 7.7.7.7.7.V ^.S$6%3 z.,.@+M.v.9 8 1.7.7.7.V ^.I ;+C w%<   ` Z Z Z a a a 7.7.7.V V b - ",
"{ [ [ B G h+Y Y Z Y V E.z.0.2 2 8 U a 7.7.7.7.7.V V ^.^.S$x%8.y%u.^.(.8.r.9 n.V V V V ^.^.b A.P._.  ].a a a a a 7.7.V V V V b X.",
"} [ [ [ < Y Y Y Z Z o.*.z.0.2 2 8 U a 7.7.7.7.7.V V b b #+#+8.p.^.7.7.>.[.9 n.V V V V ^.b z%p.P.<   T a a a a a 7.7.V ^.^.^.8.:%",
"} < < < < Y Y Z Z Z ^.`@v.h.8 2 8 (.7.7.V V V V V ^.b x.7+7+u.W V 7.V 1.`@9 n.V ^.^.^.b b W u.C.< 2 &.a 7.7.7.7.7.V V b ^.^.8.A%",
"} <       Z Z Z a a ^.x.v.s@9 2 8 (.V V V V V V ^.^.N 7 |.B%Q.#+^.V 7.>.b D.D.r.*.*.*.`@J.: :@_ J :.:.8 8 8 1.n.n.E.[.E.b b W C%",
"< 2       Z Z Z a a b y.<.J@3 9 [.D.D.^.^.^.b b b b T.:@/ L.C.S$W b b 8.8.8.D%z.7 v.v.~.2#= 6 - #.P t.; 9 9 9 9 [.[.[.&.8.W u.##",
"<     T 2 ].a a E%E%b J.@+F%M.@+a.U.W p.p.p.p.u.u.S$[+- 5 B%%.%.x.p.G%p.H%W U.v.Y.:@0.h.w%_ ( / - >+;+3 3 z.z.z.z.z.z.T.x.8.8.;$",
"2#I.I.z.*.r._+0$..:.j w% +I%w%*.1 T a a a a Z a a a ]+@._%=+_+t+].&.1.1.0$0$0$(.(.y.Y.2#2#8+=+.#=+% r % z q q q q & q z J%J%[#(.",
"P ....J T ..#.......P ;+= 5 ^ ....U a a a Z a a a 7.]+M (+=+P J -.  2 2 ....:.7.7.t.j.: : K%L%M%P N%~ * E E E E E E E E *+*+L |+",
"..E J J J J ........#.#.^ Q #.....].Z Z Z a a a a a a 7.|+3#E J         ..#.0$a 7.1.^ O%O%K%K%_%E $.| E E E E E J J J J L L M (+",
"            T 2 U U 7.V @.V.r.2 1   ` &.&.&.&.&.U m.]+]+L%8+@ [           1 2 &.1.(.N 8.K%K%K%8+* $.| E E E < < <       K ..#.= ",
"              2 U a 7.V ^.V.I #   <   2 2 2 2 2 2 8 (.7.L%K.@ [ <         2 2 2 8 t.V 8.8.K%K%(+* P%| E E E < < <       ..#.P = ",
"        2 2 2 2 m.V V ^.^.#+E.{.    2 2 2 2 2 2 2 2 D.M L%C {.[           2 2 2 8 8 f.b W Q%R%S%* P%| E E E < < <     2 J #.P = ",
"8   2 2   &.U U 7.7.V V b 7+(%{ T 2 2 2 2 2 2 2 m.1.V V p.@%<           ].U U m.1.(.V b 8.Q%Q%8+* P%| E E E -.-.-.    2 K U _+L#",
"8   2 2   H a a 7.7.V ^.b 7+(%....2 2 2 2 2 2 :.7.7.>.T%u.K.<           Z a a 7.7.(.V b 8.Q%Q%8+* P%| E E E J J J     2 a a M L#"};
