/* XPM */
static char * g_rigth_1_xpm[] = {
"64 64 648 2",
"  	c #505251",
". 	c #5B5D5C",
"+ 	c #5F6160",
"@ 	c #626463",
"# 	c #636564",
"$ 	c #646665",
"% 	c #636363",
"& 	c #626262",
"* 	c #616161",
"= 	c #606060",
"- 	c #515151",
"; 	c #4A4A4A",
"> 	c #575857",
", 	c #676968",
"' 	c #6A6C6B",
") 	c #686A69",
"! 	c #666767",
"~ 	c #646464",
"{ 	c #5D5E5E",
"] 	c #5D5F5E",
"^ 	c #626362",
"/ 	c #585858",
"( 	c #484848",
"_ 	c #4B4B4B",
": 	c #4C4C4C",
"< 	c #525252",
"[ 	c #565757",
"} 	c #5A5C5B",
"| 	c #5C5E5D",
"1 	c #5E605F",
"2 	c #5E5F5F",
"3 	c #5F5F5F",
"4 	c #5E5E5E",
"5 	c #5B5B5B",
"6 	c #575958",
"7 	c #474848",
"8 	c #474747",
"9 	c #4E4E4E",
"0 	c #545555",
"a 	c #595B5A",
"b 	c #585A59",
"c 	c #5C5D5F",
"d 	c #5B5C5E",
"e 	c #58595B",
"f 	c #686969",
"g 	c #6A6B6B",
"h 	c #696A6A",
"i 	c #656666",
"j 	c #666666",
"k 	c #676767",
"l 	c #616162",
"m 	c #4F4F50",
"n 	c #6E6E6E",
"o 	c #6B6C6B",
"p 	c #6A6A6A",
"q 	c #696969",
"r 	c #676868",
"s 	c #666867",
"t 	c #656665",
"u 	c #4F4F4F",
"v 	c #6F706F",
"w 	c #6E6F6F",
"x 	c #6D6F6E",
"y 	c #6C6D6C",
"z 	c #6B6C6C",
"A 	c #6A6B6A",
"B 	c #626363",
"C 	c #616363",
"D 	c #5F6060",
"E 	c #555656",
"F 	c #525353",
"G 	c #5E605E",
"H 	c #5D5F5F",
"I 	c #5C5E5E",
"J 	c #5C5E5F",
"K 	c #5A5C5D",
"L 	c #58595A",
"M 	c #686868",
"N 	c #5D5D5D",
"O 	c #5C5C5C",
"P 	c #5A5A5A",
"Q 	c #5A5A5C",
"R 	c #58585A",
"S 	c #565658",
"T 	c #5E5E5F",
"U 	c #595959",
"V 	c #6C6C6C",
"W 	c #6D6D6D",
"X 	c #595A5C",
"Y 	c #535456",
"Z 	c #5A5A59",
"` 	c #5E5E5D",
" .	c #5D5E5F",
"..	c #5B5D5D",
"+.	c #656565",
"@.	c #5B5B5C",
"#.	c #58585B",
"$.	c #575759",
"%.	c #6B6B6B",
"&.	c #5B5C5C",
"*.	c #5A5B5D",
"=.	c #676867",
"-.	c #5D5E60",
";.	c #5D5E5D",
">.	c #5C5D5C",
",.	c #5B5B5D",
"'.	c #646465",
").	c #535555",
"!.	c #636464",
"~.	c #5A5C5C",
"{.	c #5C5F5E",
"].	c #56575A",
"^.	c #545557",
"/.	c #535554",
"(.	c #545655",
"_.	c #606261",
":.	c #656766",
"<.	c #595A5B",
"[.	c #555657",
"}.	c #5C5D5D",
"|.	c #505050",
"1.	c #5A5B5B",
"2.	c #525453",
"3.	c #565857",
"4.	c #5B5D5E",
"5.	c #636463",
"6.	c #5B5C5D",
"7.	c #5A5B5C",
"8.	c #595B5B",
"9.	c #616263",
"0.	c #5B5C5B",
"a.	c #595A59",
"b.	c #4F504F",
"c.	c #5E5F5E",
"d.	c #5A5B5A",
"e.	c #565756",
"f.	c #606161",
"g.	c #57585A",
"h.	c #616262",
"i.	c #565759",
"j.	c #5E6060",
"k.	c #4C4E4D",
"l.	c #515352",
"m.	c #555555",
"n.	c #5A5D5C",
"o.	c #5A5B5E",
"p.	c #595A5D",
"q.	c #58595C",
"r.	c #5B5C5F",
"s.	c #505151",
"t.	c #5F605F",
"u.	c #595B5C",
"v.	c #585A5B",
"w.	c #585A5A",
"x.	c #57595A",
"y.	c #525355",
"z.	c #4A4C4B",
"A.	c #585959",
"B.	c #4D4F4E",
"C.	c #535353",
"D.	c #575859",
"E.	c #515254",
"F.	c #555756",
"G.	c #494B4A",
"H.	c #505150",
"I.	c #4D4D4D",
"J.	c #444444",
"K.	c #565656",
"L.	c #545556",
"M.	c #4F5053",
"N.	c #4C4D4F",
"O.	c #545359",
"P.	c #48405E",
"Q.	c #3E357A",
"R.	c #403752",
"S.	c #3F3B53",
"T.	c #494949",
"U.	c #555655",
"V.	c #555757",
"W.	c #555658",
"X.	c #4E4F4F",
"Y.	c #4E504F",
"Z.	c #4D4F4F",
"`.	c #4E4F50",
" +	c #4C4E4F",
".+	c #4A4B4D",
"++	c #4C4D4E",
"@+	c #4E5050",
"#+	c #515353",
"$+	c #525454",
"%+	c #535455",
"&+	c #443A64",
"*+	c #3E367C",
"=+	c #3F4191",
"-+	c #533F8C",
";+	c #853877",
">+	c #BF2632",
",+	c #BE2633",
"'+	c #734D4F",
")+	c #545554",
"!+	c #4C4D4D",
"~+	c #4C4D4C",
"{+	c #4A4B4B",
"]+	c #4A4B4A",
"^+	c #4F5052",
"/+	c #4D4E50",
"(+	c #5C5D5E",
"_+	c #5D5D5F",
":+	c #4A4A4C",
"<+	c #515153",
"[+	c #5E5D60",
"}+	c #5A595F",
"|+	c #3E3880",
"1+	c #4D408E",
"2+	c #BB2738",
"3+	c #B32B49",
"4+	c #B22B4A",
"5+	c #9C3C4D",
"6+	c #545454",
"7+	c #535454",
"8+	c #616362",
"9+	c #5F6062",
"0+	c #4D4D4F",
"a+	c #5F5F61",
"b+	c #5E5F61",
"c+	c #43345B",
"d+	c #3F4192",
"e+	c #7C3672",
"f+	c #932D58",
"g+	c #404191",
"h+	c #3E4191",
"i+	c #B77693",
"j+	c #483E8D",
"k+	c #5C5C60",
"l+	c #4E4E50",
"m+	c #606061",
"n+	c #5E5F60",
"o+	c #5E5E60",
"p+	c #59595E",
"q+	c #3E3C88",
"r+	c #3D4191",
"s+	c #3D4192",
"t+	c #414291",
"u+	c #F8C1B3",
"v+	c #B66A88",
"w+	c #45478A",
"x+	c #595A5A",
"y+	c #4F495E",
"z+	c #3F3E8C",
"A+	c #4C4491",
"B+	c #E8A9A6",
"C+	c #F6CABB",
"D+	c #DD7C83",
"E+	c #4B4789",
"F+	c #3E2C5F",
"G+	c #3A4091",
"H+	c #D3888E",
"I+	c #F9D5C3",
"J+	c #E6ACA4",
"K+	c #371D53",
"L+	c #454689",
"M+	c #4F5150",
"N+	c #5D5D5E",
"O+	c #3F408F",
"P+	c #50428E",
"Q+	c #3E408F",
"R+	c #684184",
"S+	c #5C2F5A",
"T+	c #E6C5B7",
"U+	c #ECAEA6",
"V+	c #A54162",
"W+	c #4A4685",
"X+	c #56555B",
"Y+	c #3F3C84",
"Z+	c #3F4190",
"`+	c #803664",
" @	c #E48589",
".@	c #484391",
"+@	c #7A95B7",
"@@	c #0B0000",
"#@	c #8C585E",
"$@	c #FAD8C6",
"%@	c #BC948D",
"&@	c #190607",
"*@	c #423155",
"=@	c #5B5E5D",
"-@	c #545259",
";@	c #3F408E",
">@	c #3E367B",
",@	c #8F335E",
"'@	c #F9D0BF",
")@	c #B39CAA",
"!@	c #3D4091",
"~@	c #30368F",
"{@	c #FFFFFF",
"]@	c #000000",
"^@	c #F3D2C0",
"/@	c #F9D7C5",
"(@	c #FFF4EE",
"_@	c #433156",
":@	c #57585B",
"<@	c #544768",
"[@	c #49226D",
"}@	c #3D2965",
"|@	c #7B2E5C",
"1@	c #E7BAAF",
"2@	c #F6BDB1",
"3@	c #6A5091",
"4@	c #D8BBB8",
"5@	c #FFF5F1",
"6@	c #B89E91",
"7@	c #F4BDB0",
"8@	c #D5BDBE",
"9@	c #3E2154",
"0@	c #59595C",
"a@	c #565758",
"b@	c #4C2372",
"c@	c #4A2873",
"d@	c #3C295A",
"e@	c #3C2155",
"f@	c #462356",
"g@	c #6B3D5D",
"h@	c #AE496B",
"i@	c #DE8389",
"j@	c #F9D8C6",
"k@	c #F9D6C4",
"l@	c #F5CFBF",
"m@	c #F9D4C2",
"n@	c #D3747F",
"o@	c #422256",
"p@	c #59575B",
"q@	c #4F4956",
"r@	c #443886",
"s@	c #4A236E",
"t@	c #503D68",
"u@	c #A84C68",
"v@	c #B9546E",
"w@	c #F4BCB0",
"x@	c #F9D4C3",
"y@	c #F3CABC",
"z@	c #EE9594",
"A@	c #903A61",
"B@	c #4B4D4C",
"C@	c #4C4556",
"D@	c #453786",
"E@	c #4C2071",
"F@	c #513D68",
"G@	c #9D9D9D",
"H@	c #999898",
"I@	c #825560",
"J@	c #B04267",
"K@	c #CB7580",
"L@	c #C66B78",
"M@	c #895A63",
"N@	c #7B425D",
"O@	c #382055",
"P@	c #402C56",
"Q@	c #5A595B",
"R@	c #525352",
"S@	c #5C5B5C",
"T@	c #515251",
"U@	c #514E56",
"V@	c #3E3A83",
"W@	c #443786",
"X@	c #615D98",
"Y@	c #7982B8",
"Z@	c #6A738D",
"`@	c #858585",
" #	c #9C9C9C",
".#	c #A3A3A3",
"+#	c #A0666D",
"@#	c #9E4C64",
"##	c #9B959C",
"$#	c #745C75",
"%#	c #936A94",
"&#	c #453857",
"*#	c #4D4558",
"=#	c #525354",
"-#	c #402D56",
";#	c #4D2A74",
">#	c #7B86BB",
",#	c #676E89",
"'#	c #A06FA2",
")#	c #898989",
"!#	c #7A7A7A",
"~#	c #B6B6B6",
"{#	c #A57070",
"]#	c #C07D7D",
"^#	c #8A8A8A",
"/#	c #AB81AD",
"(#	c #5A5D5A",
"_#	c #464847",
":#	c #4C2C6E",
"<#	c #584685",
"[#	c #7E8CC1",
"}#	c #905C91",
"|#	c #9E71A0",
"1#	c #717171",
"2#	c #79487E",
"3#	c #A2A3A2",
"4#	c #BBBBBB",
"5#	c #C3C3C3",
"6#	c #676067",
"7#	c #71535A",
"8#	c #AB4967",
"9#	c #5A5958",
"0#	c #575858",
"a#	c #454746",
"b#	c #636364",
"c#	c #676766",
"d#	c #676869",
"e#	c #666768",
"f#	c #7F8FC2",
"g#	c #594A87",
"h#	c #965E97",
"i#	c #828482",
"j#	c #989898",
"k#	c #9B9B9B",
"l#	c #4C5053",
"m#	c #855588",
"n#	c #ADADAD",
"o#	c #5D5E5C",
"p#	c #8B6AA0",
"q#	c #B14869",
"r#	c #8F4E60",
"s#	c #505051",
"t#	c #5C5C5D",
"u#	c #505052",
"v#	c #636362",
"w#	c #626365",
"x#	c #7F8EC1",
"y#	c #5A4A88",
"z#	c #7A5681",
"A#	c #717170",
"B#	c #7D7F85",
"C#	c #6F7CA0",
"D#	c #576071",
"E#	c #975F6D",
"F#	c #9D6875",
"G#	c #969393",
"H#	c #CBCBCB",
"I#	c #575754",
"J#	c #6674A9",
"K#	c #9A6191",
"L#	c #8F5061",
"M#	c #575757",
"N#	c #656668",
"O#	c #636466",
"P#	c #606163",
"Q#	c #5C5C5E",
"R#	c #574C64",
"S#	c #7B779A",
"T#	c #A682A9",
"U#	c #C76576",
"V#	c #B8516D",
"W#	c #D5787E",
"X#	c #CD6E79",
"Y#	c #835862",
"Z#	c #645056",
"`#	c #686D9D",
" $	c #8A6CA3",
".$	c #925565",
"+$	c #565555",
"@$	c #6A6FA2",
"#$	c #BD5D72",
"$$	c #EC8F90",
"%$	c #DF8187",
"&$	c #E08387",
"*$	c #EE9191",
"=$	c #B14E6A",
"-$	c #72324A",
";$	c #944461",
">$	c #AA4C6C",
",$	c #B04969",
"'$	c #A94B68",
")$	c #7D5760",
"!$	c #5E5D5C",
"~$	c #4E4F51",
"{$	c #7E8DBF",
"]$	c #5B4D8A",
"^$	c #554D66",
"/$	c #CC6B7A",
"($	c #ED9091",
"_$	c #E28489",
":$	c #7E656A",
"<$	c #B1B1B1",
"[$	c #B6B7B7",
"}$	c #A29D9E",
"|$	c #6E5B5E",
"1$	c #585757",
"2$	c #5D6062",
"3$	c #7E8CBD",
"4$	c #58565C",
"5$	c #B57C86",
"6$	c #CA6A7A",
"7$	c #CB6A7A",
"8$	c #AC616F",
"9$	c #8C6179",
"0$	c #A478A6",
"a$	c #A59DA5",
"b$	c #A0A0A0",
"c$	c #AFAFAF",
"d$	c #4F5051",
"e$	c #575758",
"f$	c #646364",
"g$	c #765050",
"h$	c #7B497E",
"i$	c #9DA09E",
"j$	c #A97682",
"k$	c #696163",
"l$	c #7A3B44",
"m$	c #851F35",
"n$	c #98323D",
"o$	c #704C4E",
"p$	c #704C4F",
"q$	c #878A89",
"r$	c #625556",
"s$	c #575959",
"t$	c #565858",
"u$	c #5A5A5B",
"v$	c #665A5A",
"w$	c #9B2436",
"x$	c #74464B",
"y$	c #9B599E",
"z$	c #969596",
"A$	c #7E3742",
"B$	c #882136",
"C$	c #9F2436",
"D$	c #862136",
"E$	c #9F2637",
"F$	c #83283A",
"G$	c #5E5A5B",
"H$	c #80313E",
"I$	c #872136",
"J$	c #9B2D3B",
"K$	c #655B5B",
"L$	c #7F3440",
"M$	c #942336",
"N$	c #992336",
"O$	c #9E2637",
"P$	c #5D5B5B",
"Q$	c #615558",
"R$	c #752947",
"S$	c #792744",
"T$	c #92253C",
"U$	c #9B2235",
"V$	c #DE8081",
"W$	c #DB7F80",
"X$	c #D97F80",
"Y$	c #8F5C5D",
"Z$	c #645858",
"`$	c #752847",
" %	c #752647",
".%	c #742342",
"+%	c #6A7BBB",
"@%	c #7A3F62",
"#%	c #CD6D70",
"$%	c #CB6B6F",
"%%	c #9E1930",
"&%	c #9E1A31",
"*%	c #6B5153",
"=%	c #752744",
"-%	c #655355",
";%	c #6B7ABA",
">%	c #763C62",
",%	c #924C75",
"'%	c #934B74",
")%	c #57595B",
"!%	c #434343",
"~%	c #74385D",
"{%	c #6B78B7",
"]%	c #5B5B59",
"^%	c #5D6376",
"/%	c #714466",
"(%	c #7375B2",
"_%	c #69595A",
":%	c #5C5B5B",
"<%	c #4E4F4E",
"[%	c #505252",
"}%	c #654B52",
"|%	c #733A5E",
"1%	c #6A7AB8",
"2%	c #5B5555",
"3%	c #9F2334",
"4%	c #9F2336",
"5%	c #524748",
"6%	c #8D363F",
"7%	c #4F4445",
"8%	c #535453",
"9%	c #4B4C4C",
"0%	c #484949",
"a%	c #616261",
"b%	c #5B5D5F",
"c%	c #8E3A44",
"d%	c #913B44",
"e%	c #464749",
"f%	c #5D5E61",
"g%	c #59595A",
"h%	c #8F3B44",
"i%	c #943741",
"j%	c #5F5D5F",
"k%	c #585E74",
"l%	c #49494B",
"m%	c #61585B",
"n%	c #9F2233",
"o%	c #7272AB",
"p%	c #934A71",
"q%	c #784B4E",
"r%	c #4B4C4E",
"s%	c #9F2232",
"t%	c #9F2435",
"u%	c #625656",
"v%	c #5F5F60",
"w%	c #565657",
"x%	c #565958",
"y%	c #515253",
"z%	c #505153",
"A%	c #4D4E4D",
"B%	c #666766",
"C%	c #535557",
"D%	c #555759",
"E%	c #525356",
"F%	c #4D4D4E",
"G%	c #4B4C4D",
"H%	c #535354",
"I%	c #49494A",
"J%	c #555758",
"K%	c #595B5D",
"L%	c #474948",
"M%	c #494A4C",
"N%	c #616365",
"O%	c #515255",
"P%	c #515252",
"Q%	c #474847",
"R%	c #525253",
"S%	c #4E4E4F",
"T%	c #545455",
"U%	c #4A4A4B",
"V%	c #454545",
"W%	c #59595B",
"X%	c #555557",
"Y%	c #4B4B4D",
"Z%	c #535355",
"`%	c #555556",
" &	c #515152",
".&	c #5A5A5D",
"+&	c #545456",
"@&	c #565558",
"  . + @ # # $ $ @ % & * = - ; > @ , ' ' ) ! ~ = { ] + ^ / ( _ : < [ } } . | ] ] ] 1 2 3 4 5 } 6 7 8 9 0 a 6 b b a } . . . c d e ",
"f g h ! i $ $ i i j k k k l m n o g o g g h p q r s t ! t ; u ~ n v w x y z g A ) , s k j B C D E F 3 2 + 1 G { H ] ] ] I J K L ",
"q M 4 N N O O O 5 P P P Q R S T 3 3 3 3 4 4 4 4 N N O 5 U u 5 V W V ~ = 3 4 3 4 4 N O O 5 5 X e Y Z ` N . | |  .c d ... . . } 6 ",
"k +.3 4 4 N O O O O O 5 @.#.$.& 3 3 4 4 4 4 4 4 N N O 5 5 u 4 %.V ~ = 3 3 4 4 4 N O O O O &.*.X Y / 4 =.+ 1 ] -.-.c | . . . . 6 ",
"j & 3 { ;.N >.O O &.&.5 ,.R S '.4 3 4 ] 4 4 4 { N N O O 5 u 4 q 3 3 3 3 4 4 4 N N O O O O &.*.X ).> p !.] ] ] -.c c | . . ..~.L ",
"$ ] {.| | | . . . } } } K ].^.'.= 4 ] ] ] ] {.| N N O O 5 u 3 j 3 3 3 4 4 4 4 O N O O O 5 5 } a /.(.@ _.. ] ] c c c . . . d d e ",
":.| | | | . . . . } } a <.].[.B = 4 ] ] ] ] | | }.O 5 5 P |.4 k 3 4 4 4 4 4 N N N O O 5 5 1.a b 2.3._.+ | | | c c 4.| . . d *.e ",
"5.. . | | . ..6.&.~.7.8.<.].^.9.D 2 ] ] ] { I ..&.0.5 5 a.b.}.+.3 c.4 ;.{ { }.}.}.&.&.1.1.d.a a 2.e.^ f.| | | c d d ~.~.&.*.X g.",
"h.. . . . . d d *.*.*.X X i.^.j.+ ] | | | c c d ~.} } } b k.&.~ 3 3 ] | | | . . . } } } a a b b l.m.% D | . . d d d *.*.*.*.*.g.",
"+ n.} } } } K o.p.p.q.e e i.Y }._.| | | . 6.r.o.~.} a a b k.d.% 4 4 | | | . . . } } } } b b 6 6 s.m.% t.. . } *.d d *.*.X *.X e ",
"c.&.0.} a a 8.u.8.v.w.x.g.i.y...] . | | } } K ~.1.a a a 6 z.A.& 4 N . | . } } } a a a b b b 6 > B.C.% 4 } a a 8.8.X X X X e e g.",
"/ P P a a a a a b b 6 6 D.i.E.6.. . . . } } } a a a b b F.G.H.O N N . | } } } } a a a b 6 6 m.< _ I.N a.a b w.b b b e e e e e g.",
"J.|.K.[ 3.3.3.3.3.F.F.F.L.M.N.8.} } } } a a b O.P.Q.Q.Q.Q.R.S.P 5 5 } } } a b b 6 6 6 3.(.H.< < T.T.- U.6 3.3.3.3.V.W.W.W.W.i.^.",
"8 I.I.X.Y.B.Z.Z.`.Z.X.B. +.+N.++@+#+$+%+L.).&+*+=+=+=+=+-+;+>+,+'+U.F.> [ )+H.X.B.!+!+~+{+]+T.T.( ; u s.  l.l.F 2.2.y.Y Y y.^+/+",
"q M * ] | | (+d d d *.d _+Q :+<+R [+-.-.-.}+|+=+=+=+=+1+2+3+4+4+5+4 4 O O O U K.6+C.- 9 ; T.T.( ( ; < 7+(.F.[ i.i.i.i.e e i.i.Y ",
"M V M B 8++ 9+9+-.-.-.c c Q 0+,._+a+b+-.c c+d+=+=+=+=+e+f+g+h+i+j+k+N N O O O O 5 5 5 P K.- |.I.8 u * k 8++ | -.b+*.d d *.*.*.e ",
"q %.& + + + b+b+-.-.-.c _+,.l+m+n+o+-.-.p+q+=+=+=+=+=+r+s+=+t+u+v+w+N N N O O O 5 5 5 P x+U / K.I.- k f.{ H  .c d d d d *.*.*.e ",
"M k * + + 1 b+b+-.-.-.c  .O u 2 ] ]  .-.y+z+=+=+=+=+=+=+=+A+B+C+D+E+N N N O O &.} } } a b b 6 3.Y.< +.c.-.-.-.c c c d d d X d e ",
"M +.= D 1 1 n+b+-.-.-.c { O |.1 ] | (+c F+=+=+=+=+=+=+=+G+H+I+J+K+L+N N N O O 0.} } } a b b F.(.M+- +.T -.c c c c d d d *.*.X g.",
"k & = = 2 1 1 n+-.-.-.c N+O |.1 ] | I c F+=+O+P+=+=+=+Q+R+S+T+U+V+W+| N N O O 0.} } 8.8.w.b /.)+|.- +.T -.c c c c d d d *.*.*.e ",
"+.= 3 = 4 4 ] ] H c c c }.5 u c.| | | X+Y+Z+`+ @.@=+=++@@@#@$@%@&@*@| =@=@n.n.. } . 8.X q.R m.m.|.- ~ N+-.c c c d d d d *.*.*.g.",
"% 4 4 4 4 4 ] ] | c c c }.5 u c.| | | -@;@>@,@'@)@!@~@{@]@^@/@(@]@_@| . . . . } a } 8.q.e $.6+6+|.- % N+c d d d d d *.*.*.X X :@",
"3 N 3 4 4 4 ] ] | c c c }.5 u c.| | <@[@O+}@|@1@2@3@4@5@6@/@/@7@8@9@0@. . . } } a a x+e x.a@6+6+|.- % N+c d d d d d *.*.*.X X :@",
"N O j 2 ] | c c c c c d ..a B.] . } } b@c@d@e@f@g@h@i@j@/@k@l@m@n@o@p@O &.} } } a b b 6 3./.C.6+|.|.% }.d d d d d *.X X X X e i.",
"O O j { | I d c c d d *.&.a k.| . } q@r@b@s@e@t@f.u@v@w@k@x@y@z@A@e@p@O 0.} a a a a 3./.2.F < C.|.9 * 6.*.*.*.*.*.X *.X e e e i.",
"5 O O | . . d d d d *.*.~.a B@. } . C@=+D@b@E@F@G@H@I@J@K@L@M@N@O@P@Q@5 5 } a a a b b a w./.R@F |.I.& 1.*.*.*.*.X X e e e e e i.",
"5 O S@. . . d d d *.*.*.} b B.T@/ U U@V@W@X@Y@Z@`@ #.#+#@###$#%#&#*#a a } a a a b b L g.e =#  l.M+I.& 7.X X X X X X e e e g.g.i.",
"P 5 >.. . . 6.d d d X *.8.6 B@I.I.u s.-#;#>#,#'#)#!#~#{#]#^#4 /#(#b F.3.b b b b b b 6 i.g.^.2.2.B.; 4 a.X e X e e e e e g.i.i.^.",
"9 )+E V.[.F.W.W.W.W.Y Y %+Y._#!+|.u !+:#<#[#}#|#)#G@1#2#3#4#5#6#4 7#8#8#9#6 6 6 0#> 3.i.W.[.(.  a#T.: C.Y y.Y y.Y Y ^.W.^.^.Y /+",
"G.l.| c c c c c d d d d *.R :+b#k c#d#e#f#g#h#i#j#k#l#m#G@G@n# #o#p#q#q#r#/.2.R@< - |.s#|.9 : ( ( T.u U.P N t#d d *.X e i.g.i.u#",
"2.. G -.-.-.-.-.c -.c c c ,.u#* % v#w#w#x#y#z#A#B#C#D#E#F#G#H#I#J#K#q#q#L#6 6 > / M#M#M#K.C.|.; 8 C.n n W %.q N#O#P#9+-.c c d *.",
"&.1 ] -.-.-.c c c -.c c Q#,.u#l ~ ~ O#O#x#y#R#S#T#U#V#W#X#Y#Z#`# $q#q#q#.$+ _.D 3 2 4 N T t#5 A.; +$V M h.4 2 -.c d c c (+d d X ",
"} + ] -.-.-.-.-.c c c d 6.5 |.3 4 4 c.] x#y#@$#$$$$$%$&$*$=$-$;$>$,$'$)$!$. . . } } 7.X X X g.g.~$M#p 2 ] ] ] ] ] | | | ;.d d X ",
"/.1 ] -.-.c c c c d d d &.5 9 3 4 4 ] ] {$]$^$/$*$*$*$($_$:$<$[$}$|$. . . . } } } } 7.X e e e g.^+1$% 1 ] ] ] | | | ] | ..d d X ",
"A.+ ]  .-.c c c c d d d &.P I.3 4 4 4 ] 2$3$4$5$6$7$7$8$9$0$a$b$c$& . . . . } } } } } X e e e g.d$e$f$2 ] ] ] | | | . . . d d X ",
"m.4 4 | | | ......d d *.1.P I.3 4 4 { | | g$h$i$j$k$l$m$n$o$p$q$r$O d d 6.. } } } a a a a s$s$t$M+F.8+] ] | | (+c r.r.r.r.*.*.e ",
"6+4 N | . | . . . 6.*.*.u$P _ = N 4 ;.| v$w$x$y$z$p A$B$C$B$D$E$F$O d d K . } } a a a a b b 6 F.M+(.+ | ] | | c d d d d *.*.*.X ",
"< O S@. . . . . . *.*.*.1.U _ = 4 N N | G$H$I$J$K$L$D$M$N$D$B$O$P$6.*.*.*.} b a a a a b b b 3.(.M+/.+ }.| | | d d d d *.*.*.X X ",
"< 5 5 5 5 5 } } } } } a a b z.1 ] | . Q$R$S$T$C$U$D$m$V$W$X$Y$Z$a 8.X X X } a b b b b 6 6 s$W.Y ~$- * }.d d d c d d d *.*.X *.e ",
"- U P 5 5 5 } } a a } b b b B@a | . } `$`$`$ %.%+%@%#%$%%%&%*%} a <.X X v.b 6 b b b b 6 6 t$Y E.l+|.& O d d d *.d *.X *.X X X v.",
"_ M#P P 5 P } } a a a b b 6 z.Y.} . } `$`$=%H -%;%>%,%'%{ &.3.b b w.v.e L 6 (././././.3.3.t$Y E./+I.* &.d d d *.*.*.*.*.X X X )%",
"!%< U m.U / a a } a b b / C._ I.M#5 1.`$~%{%]%b ^%/%(%(%_%:%6+< - - - R@< s.X.X.<%u u C.e.e.$+[%B.: N 1.d *.*.*.*.X X X X e e )%",
"J.9 < C.6+6+F.F.F.3./.  - ; _ : < M#A.}%|%1%b 6 6 2%3%3%4%5%|.- |.|.|.|.|.|.u u u u u 9 9 - 2.l.z._ m.1.X *.*.*.*.X X e e X e g.",
": / A.U U / b b 6 0#F.M+!+; ; |.C.C.l.l.F l.l.s.  Y.6%C$C$7%; < C.F < < < < < F 6+8%6+C.T@H.Y.9%0%_ - 0 Y Y Y Y ^.^.Y Y ^.y.E.^+",
"a%| } <.7.d b%d d *.*.~./ |._ x+| | I 4.d d d *.X <.c%C$d%N #+a b x+<.X X e e e e L L e D.i.^..+e%_+m+o+f%-.c c d d *.*.*.X X g.",
"s 1 G b+-.c c *.c -.*.*.g%6+I.| | } K *.d d *.*.X X h%C$i%j%k%a b w.X X X *.X e e X X e e e c ^.l%_+,.Q#d c d d d *.*.*.X X X :@",
"# ] 1 b+b+-.-.-.c d c d u$/ 9 | | . 6.d *.*.*.*.X X m%C$n%o%p%q%b L e e X *.X X X X X e e e P#g.r%a+Q#Q#d d d d d *.*.X X X e e ",
"~ 4 3 -.-.-.-.-.-.c c X a 6 Y.}.| } 7.*.*.*.*.*.X X X C$C$s%t%u%b b x+F.a a a 8.X X X e e L v%w%: ] . . d d d d d *.*.*.e X X e ",
"= 4 3 -.-.-.c c -.c c e w.x%Y.| . } 7.*.*.X X X X X X e e E.y%6 3.t$6 2.a b a 8.X X X e e L M#m.: 1 . ..d d d d d *.*.*.e X e g.",
"j 4 4 -.-.-.c c c c c X w.3.B.. . } 7.*.*.*.X X X X X e e z%#+6 F.F.M+Y.(.b a 8.X X X e g.D.M#m.A%1 . ..d d d *.*.*.X X X e e i.",
"B%{ ] ] { I (+c c d c e s$F.B.. } a 7.*.X X X X X e e g.g.z%z%i.C%z%q.*.^.b b w.e e e e g.g.i.C% +2 . 6.*.*.*.*.*.X X e e e e g.",
"$ 1 ] ] ] | c c c d d g.0#F.B.. } a 7.*.X X X X X e e i.g.^+^+i.y.e X X 8.3.b w.e e e e g.i.D%Y  +1 . &.*.*.*.*.*.X X e g.g.g.W.",
"$ 1 | | | | c c d d d g.t$(.k.} } a <.X X e e e e e g.i.i.~$^+y.^.X X e 8.3.b w.e g.g.g.i.i.^.E%N.1 } ~.*.X X X X X e e i.g.g.i.",
"# ] | . . . d d d *.*.g.a@(.B@} } a <.e e e e e e g.g.$.[ F%G%r%z%e e X X i.e L A.0#0#0#t$V.m.H%I.4 d.1.a a a 8.w.w.s$6 t$i.i.W.",
"+ . } . . . d d d *.*.W.[ (.G.b b 6 L e g.g.g.i.i.i.i.a@C.T.I%N.z%^.i.i.W.W.W.J%F.E (.(.(.8%< |._ N P d.a b a a b 6 6 6 I ^.^.y.",
"b ] | . . } 6.*.*.K%K%i.t$l.L%    l.%+Y y.y.y.y.E.z%z%d$_ 8 M%N%9+^.y.O%y.E%Y %+/.F l.Y.B.<%9 _ T.: |.K.(.(././././././.7+^.Y ^.",
"9%P%7+)+0 [ 0#g%u$5 5 H%A%]+Q%<%A.>.}.d d d d c d d d ,.u$R%S%g%N+(+..} } 5 @.@.8.7.[ 7+8%8%T%m U%I.+.~ % B B % % % % B B w#w#O#",
"9 5 O O N O 5 P 5 5 5 U / C.V%5 O 5 7.*.*.*.d *.*.*.X Q W%<+S%P O >.. } } 5 5 1.X X x+m.m.m.X%X%Y%U V 4 N N N N N N O N N Q#Q#,.",
"5 5 N O O O O 5 5 5 5 P P U |.5 5 5 6.d d d *.*.*.*.*.*.Q Z%s#4 O . . . . 5 P u$*.X 8./ m.`%X%X% &N V 4 N N N N N O O O O ,.,.W%",
"2 . . . . . . &.} 7.7.X e e ^+x+a 0.. ..~.~.~.~.~.7.u.Q Q Z%P%:.| . . . . . 0.} ~.8.<.$.W.X%X%X%R%4 V N N N N | | | . . . @.5 P ",
". . . . . . . . } 7.*.X e e ^+D., } | . } } } } } } a <..&Z%y%:.| | . . . . } } } a x+q.W.W.X%X%<+4 p 4 N N N | | | . . . 5 P P ",
"} . . . . } } } } u.e e g.g.^+s$8+} . } } } } } } } } L 0@+&7+@ | . . . . . } } } a a q.i.^.S @&<+4 p N N N N | | | . . } O P P ",
"a a . } } . ~.7.7.X X e e i./+g%D 1.} } } } } } } u.8.e e Y #+] . . . . . 6.7.7.u.8.<.e i.W.S S R%4 p N N N N >.>.>.. . } @.7.x+",
"} a . } } . K *.*.X X e g.i./+g%5 5 } } } } } } 1.X X v.)%E.$+] . . . . . d *.*.X X <.e i.W.S S R%4 p N N N N O O O . . } *.*.W%"};
