/* XPM */
static char *xpm_[] = {
/* columns rows colors chars-per-pixel */
"64 64 132 2 ",
"   c #1B3C1F",
".  c #191B27",
"X  c #1F1D30",
"o  c #34162F",
"O  c #3E172E",
"+  c #231E33",
"@  c #1A3321",
"#  c #362E29",
"$  c #3B2E2A",
"%  c #233523",
"&  c #2C3825",
"*  c #2D342B",
"=  c #3D3D27",
"-  c #3B302A",
";  c #333C2B",
":  c #35323E",
">  c #39333F",
",  c #421B2F",
"<  c #421A30",
"1  c #481F31",
"2  c #631D34",
"3  c #7F1F3A",
"4  c #472030",
"5  c #482131",
"6  c #652035",
"7  c #6D2636",
"8  c #6A2538",
"9  c #712A39",
"0  c #7E2838",
"q  c #1C441D",
"w  c #1D5C14",
"e  c #274B1E",
"r  c #275817",
"t  c #1E6E0D",
"y  c #1E740C",
"u  c #20750C",
"i  c #2A760E",
"p  c #317A0F",
"a  c #2C7210",
"s  c #397D19",
"d  c #38422E",
"f  c #467913",
"g  c #4E7D16",
"h  c #425926",
"j  c #494939",
"k  c #566D24",
"l  c #3A2F40",
"z  c #3F3C44",
"x  c #413643",
"c  c #423B44",
"v  c #563541",
"b  c #593642",
"n  c #5F3E44",
"m  c #444046",
"M  c #545441",
"N  c #695759",
"B  c #665D5A",
"V  c #695B5A",
"C  c #86293E",
"Z  c #9F253E",
"A  c #A1243E",
"S  c #A5293F",
"D  c #B23A3F",
"F  c #925133",
"G  c #892A40",
"H  c #AD2640",
"J  c #AD2B41",
"K  c #B32D41",
"L  c #AE3540",
"P  c #B03641",
"I  c #B33B41",
"U  c #BE3C43",
"Y  c #C52A44",
"T  c #CF2C46",
"R  c #D22C47",
"E  c #C23E44",
"W  c #D43347",
"Q  c #D53B46",
"!  c #DA3847",
"~  c #DA3448",
"^  c #DE3B48",
"/  c #836D69",
"(  c #8C6F68",
")  c #887566",
"_  c #857169",
"`  c #8D726A",
"'  c #8D7A69",
"]  c #92756B",
"[  c #D64047",
"{  c #D94046",
"}  c #DE4348",
"|  c #E34448",
" . c #E54A49",
".. c #EA4B4A",
"X. c #E75551",
"o. c #EA5651",
"O. c #EA5A54",
"+. c #EE6F62",
"@. c #ED7262",
"#. c #EF7E6A",
"$. c #F07162",
"%. c #F27F6B",
"&. c #218506",
"*. c #318B09",
"=. c #4E8615",
"-. c #588A18",
";. c #4C9A14",
":. c #6A8D23",
">. c #758A3D",
",. c #6F9A30",
"<. c #7D9E32",
"1. c #80A135",
"2. c #A58B7B",
"3. c #A98D7D",
"4. c #A7957F",
"5. c #F29176",
"6. c #A89580",
"7. c #B39683",
"8. c #B59A84",
"9. c #BA9B86",
"0. c #B6A288",
"q. c #B8A289",
"w. c #CAA88F",
"e. c #CCAA90",
"r. c #CFB596",
"t. c #D5B195",
"y. c #D8B497",
"u. c #D6B698",
"i. c #DBB699",
"p. c #D7B999",
"a. c #D8BD9B",
"s. c #DCC19E",
/* pixels */
"a.a.a.p.t.t.t.t.t.t.t.t.t.t.t.t.t.t.t.t.t.t.t.t.t.t.t.t.t.t.t.e.t.t.t.t.t.t.t.t.t.t.t.t.t.t.t.e.t.t.t.t.t.t.t.t.t.t.t.t.i.a.a.a.",
"a.a.a.p.t.t.t.t.t.t.t.t.t.t.t.t.t.t.t.t.t.t.t.t.t.t.t.t.t.t.t.t.t.t.t.t.t.t.t.t.t.t.t.t.t.t.t.t.t.t.t.t.t.t.t.t.t.t.t.t.y.i.a.a.",
"a.p.u.t.t.t.t.t.t.t.t.t.t.t.t.t.t.t.t.t.t.t.t.t.t.t.t.t.t.t.t.t.t.t.t.t.t.t.t.t.t.t.t.t.t.t.t.t.t.t.t.t.t.t.t.t.t.t.t.t.t.y.a.a.",
"p.p.y.t.t.t.t.t.t.t.t.t.t.t.t.t.t.t.t.t.t.t.t.t.t.t.t.t.t.t.t.t.t.t.t.t.t.t.t.t.t.t.t.t.t.t.t.t.t.t.t.t.t.t.t.t.t.t.t.t.t.y.p.i.",
"y.y.t.t.t.t.t.t.t.t.t.t.t.t.t.t.t.t.t.t.t.t.t.t.t.t.t.t.t.t.t.t.t.t.t.t.t.t.t.t.t.t.t.t.t.t.t.t.t.t.t.t.t.t.t.t.t.t.t.t.t.t.y.y.",
"t.t.t.t.t.t.t.t.t.t.t.t.t.t.t.t.t.t.t.t.t.t.t.t.t.t.t.t.t.t.t.t.t.t.t.t.t.t.t.t.t.t.t.t.t.t.t.t.t.t.t.t.t.t.t.t.t.t.t.t.t.t.t.t.",
"t.t.t.t.t.t.t.t.t.t.t.t.t.t.t.t.t.t.t.t.t.t.t.t.t.t.t.t.t.t.t.t.t.t.t.t.t.t.t.t.t.t.t.t.t.t.t.t.t.t.t.t.t.t.t.t.t.t.t.t.t.t.t.t.",
"t.t.t.t.t.t.t.t.t.t.t.t.t.t.t.t.t.t.t.t.t.t.t.t.t.t.t.t.t.t.t.t.t.t.t.t.t.t.t.t.t.t.t.t.t.t.t.t.t.t.t.t.t.t.t.t.t.t.t.t.t.t.t.t.",
"t.t.t.t.t.t.t.t.t.t.t.t.t.t.t.t.t.t.t.t.t.t.t.t.t.t.t.t.t.t.t.t.t.t.t.t.t.t.t.t.t.t.t.t.t.t.t.t.t.t.t.t.t.t.t.t.t.t.t.t.t.t.t.t.",
"t.t.t.t.t.t.t.t.t.t.t.t.t.t.t.t.t.t.t.t.t.t.t.t.t.t.t.t.t.t.t.t.t.t.t.t.t.t.t.t.t.t.t.t.t.t.t.t.t.t.t.t.t.t.t.t.t.t.t.t.t.t.t.t.",
"t.t.t.t.t.t.t.t.t.t.t.t.t.t.t.t.t.t.t.t.t.t.t.t.t.t.t.t.t.t.t.t.t.t.t.t.t.t.t.t.t.t.t.t.t.t.t.t.t.t.t.t.t.t.t.t.t.t.t.t.t.t.t.t.",
"t.t.t.t.t.t.t.t.t.t.t.t.t.t.t.t.t.t.t.t.t.t.t.t.t.t.t.y.t.t.t.t.t.t.t.t.t.t.t.t.t.t.t.t.t.t.t.t.t.t.t.t.t.t.t.t.t.t.t.t.t.t.t.t.",
"t.t.t.t.t.t.t.t.t.t.t.t.t.t.t.t.t.t.t.t.t.t.t.t.t.y.i.i.i.i.t.t.t.t.t.t.t.t.t.t.t.t.t.t.t.t.t.t.t.t.t.t.t.t.t.t.t.t.t.t.t.t.t.t.",
"t.t.t.t.t.t.t.t.t.t.t.t.t.t.t.t.t.t.t.t.t.t.t.t.t.w.7.2.2.7.w.i.t.t.t.t.t.t.t.t.t.t.t.t.t.t.t.t.t.t.t.t.t.t.t.t.t.t.t.t.t.t.t.t.",
"t.t.t.t.t.t.t.t.t.t.t.t.t.t.t.t.t.t.t.t.t.t.t.y.y.7.N x x N 7.i.t.t.t.t.t.t.t.t.t.t.t.t.t.t.t.t.t.t.t.t.t.t.t.t.t.t.t.t.t.t.t.t.",
"t.t.t.t.t.t.t.t.t.t.t.t.t.t.t.t.t.t.t.t.t.t.y.i.i.3.x . * M ' 7.e.y.t.t.t.t.t.t.t.t.t.t.t.t.t.t.t.t.t.t.t.t.t.t.t.t.t.t.t.t.t.t.",
"t.t.t.t.t.t.t.t.t.t.t.t.t.t.t.t.t.t.t.t.t.t.y.i.i.3.x # k 1.M N 9.y.y.t.t.t.t.t.t.t.t.t.t.t.t.t.t.t.t.t.t.t.t.t.t.t.t.t.t.t.t.t.",
"t.t.t.t.t.t.t.t.t.t.t.t.t.t.t.t.t.t.t.t.y.e.7.3.6./ x ; ,.<.h m ) 9.e.y.t.t.t.t.t.t.t.t.t.t.t.t.t.t.t.t.t.t.t.t.t.t.t.t.t.t.t.t.",
"t.t.t.t.t.t.t.t.t.t.t.t.t.t.t.t.t.t.t.t.i.7.N x x l + % s ;.-.k j N 4.i.y.t.t.t.t.t.t.t.t.t.t.t.t.t.t.t.t.t.t.t.t.t.t.t.t.t.t.t.",
"t.t.t.t.t.t.e.t.t.t.t.t.t.t.t.t.t.t.t.w.7.' M = & & % q w s ;.g % x 3.i.i.t.y.y.t.t.t.t.t.t.t.t.e.t.t.t.t.t.t.t.t.t.t.t.t.t.t.t.",
"t.t.t.t.t.t.t.t.t.t.t.t.t.t.t.t.t.y.t.7.N M >.1.:.=.a w   e p a @ c 3.i.i.p.y.y.t.y.t.t.t.t.t.t.t.t.t.t.t.t.t.t.t.t.t.t.t.t.t.t.",
"t.t.t.t.t.t.t.t.t.t.t.t.t.t.t.t.t.t.i.2.x * k 1.:.=.*.i q q u t @ > ( 3.3.2.2.7.w.y.t.t.t.t.t.t.t.t.t.t.t.t.t.t.t.t.t.t.t.t.t.t.",
"t.t.t.t.t.t.t.t.t.t.t.t.t.t.t.t.t.t.i.2.x . d j ; e u &.y y &.t @ + > c c c c N 8.i.y.t.t.t.t.t.t.t.t.t.t.t.t.t.t.t.t.t.t.t.t.t.",
"t.t.t.t.t.t.t.t.t.t.t.t.t.t.t.t.t.y.i.7.N > X + o - r a f f i r $ 1 1 1 5 , , v ( 8.e.y.t.t.t.t.t.t.t.t.t.t.t.t.t.t.t.t.t.t.t.t.",
"t.t.t.t.t.t.t.t.t.t.t.t.t.t.t.t.t.t.t.e.9._ : o 3 C # = F F d & C S P I I P H C v N 7.i.y.y.t.t.t.t.t.t.t.t.t.t.e.t.t.t.t.t.t.t.",
"t.t.t.t.t.t.t.t.t.t.t.t.t.t.t.t.t.t.i.e.9.] n 7 K K 7 9 U [ 9 8 K ^ | ....| ^ J 2 v _ 7.w.t.t.t.t.t.t.t.t.t.t.t.t.t.t.t.t.t.t.t.",
"t.t.t.t.t.t.t.t.t.t.t.t.t.t.t.t.t.y.y.7.B n L E { { U U } } E U [ |  .......| Q K C v N 7.y.y.t.t.t.t.t.t.t.t.t.t.t.t.t.t.t.t.t.",
"t.t.t.t.e.t.t.t.t.t.t.t.t.t.t.t.t.t.i.2.z 4 I ..O.O.O.o. . .o.o... . . .|  . .| ~ A , c 2.y.y.t.t.t.t.t.t.t.t.t.t.t.t.t.t.t.t.t.",
"t.t.t.t.t.t.t.t.t.t.t.t.t.t.t.t.t.t.y.2.c , I o.$.%.#.+.X.X.@.@.o. . . . . . .| ~ A O c 2.y.y.t.t.t.t.t.t.t.t.t.t.t.t.t.t.t.t.t.",
"t.t.t.t.t.t.t.t.t.t.t.t.t.t.t.t.t.i.y.2.c 5 D O.%.5.5.#.o.X.@.@.X. .| | | | | | ~ A , c 2.y.y.t.t.t.t.t.t.t.t.t.t.t.t.t.t.t.t.t.",
"t.t.t.t.t.t.t.t.t.t.t.t.t.t.t.t.t.i.i.2.c 5 D O.%.5.5.#.O. .O.X. . . .} W ! | | ~ A , c 2.y.t.t.t.t.t.t.t.t.t.t.t.t.t.t.t.t.t.t.",
"t.t.t.t.t.t.t.t.t.t.t.t.t.t.t.t.t.t.t.2.c , D o.+.%.#.+.X.| |  . . . .| Q Q } | ~ A , x 2.y.t.t.t.t.t.t.t.t.t.t.t.t.t.t.t.t.t.t.",
"t.t.t.t.t.t.t.t.t.t.t.t.t.t.t.t.t.y.t.2.z O J ^ X.O.O.X. . . . . . . . .} | | | ~ A , c 2.u.y.t.t.t.t.t.t.t.t.t.t.t.t.t.t.t.t.t.",
"e.t.t.t.t.t.t.t.t.t.t.t.t.t.t.t.t.y.u.7.B v G K W | |  . . . . . . . . . . .| Q K G v N 7.y.t.t.t.t.t.t.t.t.t.t.t.t.t.t.t.t.t.t.",
"t.t.t.t.t.t.t.t.t.t.t.t.t.t.t.t.t.t.i.e.8.( b 6 J ! |  . . . . . . . . . . .! J 6 v ` 8.e.t.y.t.t.t.t.t.t.t.t.t.t.t.t.t.t.t.t.t.",
"t.t.t.t.t.t.t.t.t.t.t.t.t.t.t.t.t.t.t.u.i.3.z O H W ^ } } } } } } } } } | ^ W A O z 3.i.y.t.t.t.t.t.t.t.t.t.t.t.t.t.t.t.t.t.t.t.",
"t.t.t.t.t.t.t.t.t.t.t.t.t.t.t.t.t.t.t.y.u.2.c O Z R W R R W W W W W W W W W R A , z 2.i.u.t.t.t.t.t.t.t.t.t.t.t.t.t.t.t.t.t.t.t.",
"t.t.t.t.t.t.t.t.t.t.t.t.t.t.t.t.t.t.t.y.u.7.N v 0 H Y R T T T T T T T R T Y H C v N 7.y.t.t.t.t.t.t.t.t.t.t.t.t.t.t.t.t.t.t.t.t.",
"t.t.t.t.t.t.t.t.t.t.t.t.t.t.t.t.t.t.t.t.t.e.8._ v 2 H R T T T T T T R R R H 2 v ( 7.e.t.t.t.t.t.t.t.t.t.t.t.t.t.t.t.t.t.t.t.t.t.",
"t.t.t.t.t.t.t.t.t.t.t.t.t.t.t.t.t.t.t.t.t.u.i.8.B v G H H G H H Z Z A A A G v B 9.a.u.t.t.t.t.t.t.t.t.t.t.t.t.t.t.t.t.t.t.t.t.t.",
"t.t.t.t.t.t.t.t.t.t.t.t.t.t.t.t.t.t.t.t.t.y.i.t.0.1.M < < < < < < < < O O b ' q.p.a.u.t.t.t.t.t.t.t.t.t.t.t.t.t.t.t.t.t.t.t.t.t.",
"t.t.t.t.t.t.t.t.t.t.t.t.t.t.t.t.t.t.t.t.t.u.p.s.s.4.V c m c m m m m m c z B q.s.s.a.u.t.t.t.t.t.t.t.t.t.t.t.t.t.t.t.t.t.t.t.t.t.",
"t.t.t.t.t.t.t.t.t.t.t.t.t.t.t.t.t.t.t.t.p.s.s.s.s.r.4.4.6.6.6.6.6.6.6.6.4.8.r.s.a.a.p.p.t.t.t.t.t.t.t.t.t.t.t.t.t.t.t.t.t.t.t.t.",
"t.t.t.t.t.t.t.t.t.t.t.t.t.t.t.t.t.t.t.u.p.r.s.p.s.s.s.s.s.s.s.s.s.s.s.s.s.s.a.a.a.a.a.a.u.t.t.t.t.t.t.t.t.t.t.t.t.t.t.t.t.t.t.t.",
"t.t.t.t.t.t.t.t.t.t.t.t.t.r.t.t.t.t.p.s.s.s.p.s.a.a.a.s.s.s.s.s.s.s.s.a.s.a.s.a.a.a.a.a.a.u.u.t.t.t.t.t.t.t.t.t.t.t.t.t.t.t.t.t.",
"t.t.t.t.t.t.t.t.t.t.t.t.t.t.t.t.t.r.a.r.r.s.s.r.a.a.a.a.r.s.r.a.a.a.a.a.a.a.a.a.a.a.a.a.a.p.u.t.t.t.t.t.t.t.t.t.t.t.t.t.t.t.t.t.",
"t.t.t.t.t.t.t.t.t.t.t.t.t.t.t.t.a.p.p.s.s.s.s.r.a.a.s.r.s.s.a.a.a.a.a.a.a.a.a.a.a.a.a.a.a.a.a.u.t.t.t.t.t.t.t.t.t.t.t.t.t.t.t.t.",
"t.t.t.t.t.t.t.t.t.t.t.t.t.t.t.t.a.s.s.s.r.r.s.s.a.a.s.a.a.a.a.a.a.a.a.a.a.a.a.a.a.a.a.a.a.a.a.a.y.t.t.t.t.t.e.t.t.t.t.t.t.t.t.t.",
"t.t.t.t.t.t.t.t.t.t.t.t.t.t.u.a.a.a.a.a.a.a.a.a.a.a.a.a.a.a.a.a.r.s.5.s.s.r.r.s.s.s.s.r.s.s.p.s.u.p.t.t.t.t.t.t.t.t.t.t.t.t.t.t.",
"t.t.t.t.t.t.t.t.t.t.t.t.t.u.p.s.a.a.a.a.a.a.a.a.a.a.a.a.a.a.a.a.s.s.s.s.s.s.s.s.r.r.s.s.s.r.s.s.i.a.u.y.t.t.t.t.t.t.t.t.t.t.t.t.",
"t.t.t.t.t.t.t.t.t.t.t.y.u.a.a.a.a.a.a.a.a.a.a.a.a.a.a.a.a.a.a.a.s.r.t.s.r.s.s.r.s.s.r.s.r.s.s.r.a.a.a.u.t.t.t.t.t.t.t.t.t.t.t.t.",
"t.t.t.t.t.t.t.t.t.t.t.y.a.a.a.a.a.a.a.a.a.a.a.a.a.a.a.a.a.a.a.a.s.s.s.s.r.s.s.s.s.r.s.s.r.s.s.r.a.a.a.a.p.t.t.t.t.t.t.t.t.t.t.t.",
"t.t.t.t.t.t.t.t.t.t.u.p.a.a.a.a.a.a.a.a.a.a.a.a.a.a.a.a.a.a.a.a.r.s.r.s.s.s.r.r.s.s.r.s.r.s.s.s.a.a.a.a.a.u.t.t.t.t.t.t.t.t.t.t.",
"t.t.t.t.t.t.t.t.t.p.a.a.a.a.a.a.a.a.a.a.a.a.a.a.a.a.a.a.a.a.a.a.s.s.r.s.r.s.s.s.r.s.r.s.s.p.r.s.a.a.a.a.a.a.y.y.t.t.t.t.t.t.t.t.",
"t.t.t.t.t.t.t.t.p.a.a.a.a.a.a.a.a.a.a.s.a.a.a.a.a.a.a.a.a.a.a.a.s.r.s.s.r.s.s.s.s.r.s.s.s.s.r.s.a.a.a.a.a.a.p.u.t.t.t.t.t.t.t.t.",
"t.t.e.t.t.t.t.y.p.a.a.a.a.a.a.a.a.a.a.a.a.a.a.a.a.a.a.a.a.a.a.a.s.s.s.r.s.s.r.r.s.s.s.r.r.s.s.s.a.a.a.a.a.a.a.a.p.t.t.t.t.t.t.t.",
"t.t.t.t.t.t.p.r.s.a.a.a.a.a.a.a.a.a.a.a.a.a.a.a.r.s.s.r.s.r.s.s.r.s.s.s.r.s.r.s.s.r.s.s.s.r.s.r.a.a.s.r.p.s.s.s.p.p.t.t.t.t.t.t.",
"t.t.t.t.t.r.s.s.a.a.a.a.a.a.a.a.a.a.a.a.a.a.a.a.s.s.r.s.s.s.r.r.s.s.r.s.s.s.r.s.s.r.s.r.s.s.s.r.a.a.s.s.s.s.r.r.a.p.t.r.t.t.t.t.",
"t.t.t.t.p.p.s.r.a.p.s.a.a.a.a.a.a.a.a.a.a.a.a.a.s.r.r.s.r.s.s.s.r.r.s.s.s.r.s.s.s.s.s.r.r.r.s.s.a.a.r.s.r.s.s.s.a.p.p.p.p.t.t.t.",
"t.t.u.r.p.s.a.a.a.a.a.a.s.a.a.a.a.a.a.a.a.a.a.a.s.s.s.s.r.s.r.s.s.s.s.r.s.s.s.r.s.r.s.s.s.s.s.p.r.a.s.s.r.s.r.s.a.s.s.p.p.t.t.t.",
"t.u.u.a.a.a.a.a.s.r.a.a.r.r.s.s.a.a.a.a.s.s.a.a.r.r.s.r.s.r.s.s.r.s.s.s.r.s.r.s.s.r.s.s.s.r.a.a.s.r.s.s.s.s.p.s.a.a.a.a.p.p.t.t.",
"t.u.p.s.s.s.a.a.s.a.a.a.s.s.s.r.a.a.a.a.a.r.a.a.s.s.s.s.r.s.s.r.s.s.r.s.s.s.r.s.s.r.s.r.s.a.a.a.s.s.s.r.r.s.s.r.a.a.a.a.p.p.p.p.",
"p.s.p.s.a.r.a.a.a.a.a.a.a.a.s.a.a.a.a.a.a.a.a.a.a.a.a.a.r.s.s.s.s.r.s.r.s.r.s.s.s.s.r.s.r.s.a.a.s.s.s.r.r.s.s.s.a.s.a.a.a.a.p.p.",
"s.r.s.p.a.a.a.a.a.a.a.a.a.s.s.r.a.a.a.a.a.a.a.a.a.s.s.r.s.s.r.r.s.s.s.r.s.s.s.r.r.s.s.s.r.s.s.s.r.r.s.s.s.s.r.r.s.p.a.a.a.a.a.a."
};
