/* XPM */
static char *xpm_[] = {
/* columns rows colors chars-per-pixel */
"64 64 189 2 ",
"   c #65273A",
".  c #6B253C",
"X  c #66293A",
"o  c #6C2C3B",
"O  c #73253D",
"+  c #7B263E",
"@  c #742D3C",
"#  c #7B2C3D",
"$  c #6E303A",
"%  c #74313B",
"&  c #7B313D",
"*  c #7E2142",
"=  c #753340",
"-  c #83263F",
";  c #832B3E",
":  c #8C2A3F",
">  c #83323E",
",  c #8A343F",
"<  c #91373F",
"1  c #95393F",
"2  c #921F47",
"3  c #921F48",
"4  c #A51F4C",
"5  c #852342",
"6  c #8B2443",
"7  c #872D40",
"8  c #8C2C41",
"9  c #942346",
"0  c #9D2546",
"q  c #932A41",
"w  c #9B2A43",
"e  c #952048",
"r  c #9B2149",
"t  c #873140",
"y  c #8C3240",
"u  c #933341",
"i  c #9B3442",
"p  c #973940",
"a  c #9B3942",
"s  c #9E3C48",
"d  c #A22646",
"f  c #A82747",
"g  c #A42B45",
"h  c #AC2B45",
"j  c #A4224A",
"k  c #AC224B",
"l  c #AE2A48",
"z  c #B32C46",
"x  c #BB2D46",
"c  c #B5254A",
"v  c #B9274B",
"b  c #B52A4A",
"n  c #BC2B4A",
"m  c #A43544",
"M  c #AB3446",
"N  c #A43A42",
"B  c #AC3B44",
"V  c #A33B49",
"C  c #AA3C49",
"Z  c #B23547",
"A  c #BA3446",
"S  c #B43B45",
"D  c #BB3C46",
"F  c #B43449",
"G  c #BC344A",
"H  c #B33D4C",
"J  c #BC3A49",
"K  c #C52E47",
"L  c #C82F47",
"P  c #C52D49",
"I  c #CA2F48",
"U  c #C23747",
"Y  c #C93047",
"T  c #C23E47",
"R  c #C3354C",
"E  c #CE3248",
"W  c #C43B4A",
"Q  c #CC3B4B",
"!  c #D03148",
"~  c #D13E4B",
"^  c #C43D51",
"/  c #9E414C",
"(  c #A3454E",
")  c #AC424A",
"_  c #A4484D",
"`  c #B54044",
"'  c #BB4145",
"]  c #B2424D",
"[  c #BB434C",
"{  c #B14550",
"}  c #B44A53",
"|  c #BC4F56",
" . c #B45856",
".. c #C44246",
"X. c #CC4547",
"o. c #C1424F",
"O. c #CD4148",
"+. c #C64A4E",
"@. c #CA4D4F",
"#. c #D04547",
"$. c #D4424A",
"%. c #DC454A",
"&. c #D34D4C",
"*. c #DD484A",
"=. c #DE534F",
"-. c #C64354",
";. c #CB4252",
":. c #C04F57",
">. c #CD4B54",
",. c #C74958",
"<. c #D14550",
"1. c #D54951",
"2. c #DD4D51",
"3. c #D14C58",
"4. c #C15253",
"5. c #CB5454",
"6. c #C75957",
"7. c #C65258",
"8. c #CE515A",
"9. c #CD5C5B",
"0. c #D35057",
"q. c #DB5454",
"w. c #DD5C57",
"e. c #D4575B",
"r. c #DA555A",
"t. c #D45F5C",
"y. c #DA5B5B",
"u. c #E0474A",
"i. c #E44A4A",
"p. c #E94C4A",
"a. c #E5514F",
"s. c #E8544F",
"d. c #E65551",
"f. c #E85651",
"g. c #E95651",
"h. c #E85650",
"j. c #E95651",
"k. c #E95551",
"l. c #E25B57",
"z. c #E65C56",
"x. c #E25B56",
"c. c #E15F5A",
"v. c #E05E59",
"b. c #DE645F",
"n. c #DD645C",
"m. c #DD685F",
"M. c #EA6057",
"N. c #E76259",
"B. c #E2615C",
"V. c #E3675C",
"C. c #E3635C",
"Z. c #E8635B",
"A. c #EA665B",
"S. c #EB665B",
"D. c #E7685E",
"F. c #EA6A5D",
"G. c #EB6B5E",
"H. c #EB6A5E",
"J. c #E86A5F",
"K. c #EC6B5E",
"L. c #EC6A5E",
"P. c #EB6C5E",
"I. c #ED6C5E",
"U. c #EB6B5E",
"Y. c #F16B5C",
"T. c #DB6360",
"R. c #DF6C62",
"E. c #DF7061",
"W. c #E16761",
"Q. c #E06361",
"!. c #E36B62",
"~. c #E16B62",
"^. c #EA6E60",
"/. c #E77263",
"(. c #EC7061",
"). c #EC7565",
"_. c #EC7564",
"`. c #ED7665",
"'. c #ED7765",
"]. c #EF7665",
"[. c #EC7464",
"{. c #EF7865",
"}. c #EE7F6D",
"|. c #F37462",
" X c #F47864",
".X c #F17F6D",
"XX c #F18875",
"oX c #F2927D",
"OX c #F39B85",
/* pixels */
"d.l.!.`.`.'.'.b.-.^ 0.Z.(.{.`.'.[.[.[.|.[.[.[.`.[.[.[.`.`.~.,.^ 1.c.^.`.`.`.`.`.[.`.`.`.`.).`.`.).`.{.~.8.-.<.r.^.[.`.'.'.}.oXOX",
"2.d.Z.H.P.H.H.y.^ ^ 2.z.A.P.H.H.^.^.^.^.^.^.H.L.^.^.L.^.L.c.-.^ 1.d.S.^.L.L.L.H.^.^.H.H.H.H.L.^.H.H.I.B.3.^ <.2.Z.L.P.H.H.).XXoX",
"~ %.d.d.k.k.k.&.R R 1.p.d.f.d.d.d.d.k.k.k.d.d.d.d.d.k.k.k.2.^ R $.u.k.k.k.k.k.k.k.k.k.k.d.k.d.d.d.d.k.d.Q ^ $.*.p.k.k.d.s.Z.[..X",
"! ~ %.u.u.u.*.O.M M Q *.u.u.u.u.u.u.u.i.u.u.u.u.u.u.u.u.u.O.Z M T %.%.u.*.*.%.*.*.u.u.u.*.u.u.u.u.u.*.$.F M J $.%.u.u.u.u.i.c.C.",
"U U Q %.$.$.O.S > > B O.$.~ %.~ $.%.~ ~ %.$.~ ~ ~ %.~ %.~ S t > m T O.$.........O.$.$.~ ~ ~ ~ ~ ~ %.$.D u > N S ~ ~ ~ %.$.$.@.>.",
"g h R E Q R A i @ @ i F W Q Q Q R Q Q Q R ! ~ Q E Q Q Q T m & % < S W T B N 1 N J W Q Q ~ ~ ~ ~ Q Q Q B > @ , N R ~ ~ R Q W ` ] ",
"6 9 z n P b g q # O q g b v v v n G R R R R R R R R R R A m t > < M G F < & % & m R W R Y R R R R R G m , & < i G ^ R n b F ) _ ",
"6 9 l n v v l w q q w h b c c c v R R ~ Q Q Q Q Q Q Q Q J S N a B S W A i > @ > M Q Q E Q Q Q R Q R W A N N N S W R ^ G b F }  .",
"4 l n L Y P P x x x x K L P n n R Q ~ u.*.%.*.%.%.%.%.%.%.%.#.%.#.%.*.$.W Z m Z O.u.*.%.*.%.*.%.*.*.%.%.%.#.#.%.%.%.$.Q P ^ t./.",
"k v L E E ! ! ! ! ! ! ! ! Y n n U $.i.p.p.p.i.p.p.p.p.p.p.p.p.p.p.p.p.i.$.W J W *.p.p.p.p.p.p.p.p.p.i.p.p.p.p.p.p.i.%.~ G -.C.|.",
"k c K E E E E E E E I ! ! K c l F W *.i.p.p.i.i.p.i.p.i.u.p.p.i.i.p.p.u.O.T F J *.p.p.i.i.i.p.i.i.p.i.i.i.i.i.p.i.u.*.T Z ] w.Y.",
"j j h z z x K P P P P P L x w : i B Q %.~ %.%.O.X.....X.O.%.%.~ %.$.%.$.D m < N W %.$.$.$.#.X.....O.~ %.%.1.$.%.%.$.' B y a +.r.",
"3 6 + O ; q l v n n v v v g + X o > M R R R G M y > t p F R R R R R R M y @ o @ m U R R G Z u > > u M G R R R R R A < & X % s H ",
"3 5 .   # q h n b n b G b g ; @ % t M G R G G m & $ & y M R R G R n R F u = % & m G R R n M > % % > M R R R n R R b 1 > % = s H ",
"j 9 * + 1 A ~ ~ ~ ~ ~ ~ ~ O.' ` ` ' O.$.~ ~ $.J p t p B Q $.~ $.~ $.$.O.T D ` ' T ~ $.~ $.T N y , i W $.~ $.$.$.~ ~ ..` ` [ 6.t.",
"k j q w D X.*.u.i.i.u.u.u.*.*.*.%.*.*.u.u.u.u.$.M m S T %.i.i.u.u.u.u.%.*.*.*.*.u.u.*.u.i.$.A B B D $.u.i.u.u.u.u.u.*.*.*.=.C./.",
"k k f z Q %.u.i.i.i.i.u.i.i.i.u.i.i.i.u.i.i.i.%.W G W ~ %.i.i.u.i.i.i.i.u.i.i.u.i.i.i.i.i.*.Q G W Q *.i.i.i.u.i.i.u.u.i.u.s.H.'.",
"k c c n Q *.i.p.i.p.i.p.i.i.i.i.i.p.p.i.i.p.p.*.Q R Q $.i.p.p.i.i.i.i.i.i.i.i.i.i.i.i.i.i.*.$.Q R ~ u.p.p.p.p.i.i.i.i.i.i.k.H._.",
"c k f b Q u.p.p.p.p.p.i.i.i.p.i.p.i.i.i.i.p.p.*.T R Q $.i.p.i.i.i.i.i.p.p.i.p.p.i.p.i.i.p.u.Q W T Q u.p.p.p.p.p.p.i.i.i.i.k.S.I.",
"4 j 9 q S o.#.#.#.#.#.$.*.%.%.%.%.%.&.%.%.*.*.Q M i M J $.*.%.*.%.%.%.%.%.%.%.%.*.%.%.%.%.$.S m m S O.*.#.X.O.#.%.%.*.%.*.*.q.v.",
"3 6 . . > i B N p p N Z R R Q R R R Q R R R Q M & $ & p G R R ^ Q ^ R R R ^ R R W R R Q W Z t @ @ > m B a 1 a B G E R R R Q ^ ;.",
"3 5 . o # q i q # # u M G R R R R R R R R R G m & $ & y F R n G G R R R R R R R R R R R R M t % % > m m > & > i A R R R R R W ^ ",
"3 j : : w g h q @ = N J Q ~ Q O.~ ~ Q Q ~ Q Q D B N C S W Q n b R ~ ~ ~ ~ Q ~ ~ ~ ~ ~ ~ O.T S N B S ' B > & y B W ~ ~ Q Q <.3.e.",
"j k z z x x x h 7 8 S X.%.%.%.%.%.%.%.%.%.%.%.#.X.X.X.X.%.O.G n Q ~ %.~ %.%.%.%.~ %.%.%.%.$.X.O.X.#.$...i u B D $.%.%.%.%.2.B.!.",
"k c P K L L L x f h O.u.*.u.i.i.i.i.i.i.i.i.i.i.2.%.u.u.i.%.R R ~ u.u.i.i.i.i.i.u.i.i.i.i.*.u.u.u.u.i.$.G F W $.*.i.i.i.i.d.H.'.",
"k c P I I I I P f z $.u.i.i.i.i.i.u.i.u.i.i.i.u.i.i.i.i.u.$.Z F ~ %.u.u.i.u.i.i.u.*.i.u.u.i.i.i.i.i.i.%.J F W $.u.i.u.u.u.a.Z.J.",
"j f P P L P P l 8 q ' $.%.%.#.#.#.$.%.1.%.%.%.%.%.%.u.%.%.T u u H O.$.%.#.#.X.#.%.%.%.%.*.1.u.%.*.*.*...i u B T %.%.#.#.#.#.q.q.",
"2 r c P P v h q O @ N D Q T S B B S W Q Q ~ ~ Q ~ ~ ~ ~ ..C t & i J Q T ' B ) B W Q ~ ~ ~ ~ ~ ~ ~ ~ O.A t & p B W O.J ) B ) [ +.",
"* 6 k v v k d : . . : g z g ; o % > M G R R R R R R R G F i & % : m A Z < # $ & m G R R R R G R R R A m > % > i F F i > $ & / ] ",
"5 2 k v v c f : ; ; : d z f + o o , Z W R R R R R R R R G m u u a M J F < # $ # m R W R R R R R R R A M a , < m J A i ; X % _ | ",
"3 k n L K K P x x x x K R n d q m S O.%.%.%.%.%.%.%.%.%.%.X.X.X.X.#.*.$.D M i M Q %.%.%.%.%.%.%.%.%.%.#.#.X.X.#.%.$...S i V 9.E.",
"c v P ! ! E I ! ! ! E ! ! L x c A O.u.p.p.p.p.p.p.p.p.p.i.p.p.p.p.p.a.u.$.W A T u.p.p.i.p.a.p.p.p.p.p.p.p.p.p.p.p.i.*.Q F [ V. X",
"c v L ! ! ! ! E ! ! ! E ! L b z J Q u.p.i.i.p.p.p.p.p.p.p.i.p.p.p.p.p.u.$.T A W *.p.p.i.p.p.p.p.p.p.p.p.p.p.p.p.p.i.*.Q G [ w.|.",
"4 f b z x n K P P P P P L x d w i S O.*.*.%.%.$.X.X.X.X.%.%.%.%.%.*.%.$.D B i M W %.*.*.%.$.X.X.X.#.$.%.%.%.%.%.%.<...Z i m >.y.",
"2 6 5 ; : q l v v v n n b d # . O t F R R R G C a < p m F R R R R R R F u & o = M U R R U F i < < N F W R R R R R G i = o @ N ] ",
"3 5 O . ; q z v K b n n b g ; o % > M U R R G M > % & u F R R R R R R F y & o > m G R R R M y & # , M G R R R P R G i t $ & s H ",
"4 9 O @ u Z W ~ Q ~ ~ Q Q W S B B ` T Q ~ ~ ~ S y > , N W ~ ~ Q ~ ~ ~ T S B ) B T Q ~ ~ ~ D i : > 1 T ~ ~ ~ ~ ~ $.W ' S N ) 4.6.",
"k r 5 8 C ..%.*.%.%.%.%.*.&.$.#.#.#.$.*.%.%.%.O.m i N D $.*.*.%.%.u.$.%.$.#.#.#.$.%.%.*.*.O.S 1 i S O.*.%.%.%.%.*.*.$.#.X.q.n.~.",
"k k k h W %.*.u.i.u.i.i.u.u.u.u.u.u.u.i.u.i.u.%.J G W O.*.i.i.u.u.u.i.u.*.i.i.*.u.u.i.u.i.*.W T A W *.i.u.i.u.u.u.u.u.u.*.a.D._.",
"k k c P ~ u.i.p.p.i.p.i.i.p.p.p.p.i.p.i.i.p.p.*.Q R Q %.u.p.p.p.p.p.p.i.i.p.i.p.p.i.i.p.p.u.~ R Q ~ u.p.p.i.i.p.p.i.i.p.i.k.I._.",
"c k k G ~ u.i.p.p.i.p.p.i.p.p.i.p.i.p.i.p.p.p.u.Q U Q %.u.p.p.p.p.p.i.p.p.i.p.i.p.i.p.p.a.i.~ W Q Q u.p.p.p.i.p.i.p.p.i.i.k.L.|.",
"k j 9 w S O.%.%.u.1.%.u.u.%.u.%.u.*.*.u.*.u.u.Q B M Z T #.%.*.#.$.%.%.*.u.u.%.u.u.%.%.u.u.$.D M M J $.u.%.u.%.u.%.*.u.*.u.u.x.c.",
"r 6 * . y B T Q ~ ~ R ~ E Q Q ~ Q Q Q ~ Q Q Q S > @ > i S S B N B S U ~ ~ Q Q Q Q Q Q ! Q A u & & u H Q ~ ~ ~ R Q Q Q ~ Q ~ Q ;.",
"e 5     ; w F R n R R R R R R R R R R R R R G M & @ & < M N , > < M J Y R R R R R R Q R R M , % % t F R R n R R Y R R R R W Q ;.",
"9 9 : : q g z b c b R ~ Q Q Q Q Q Q Q Q ~ Q Q S a a a B S m = $ < S T Q R Q Q Q Q Q Q Q R W N a a N J W G b G R R ~ Q Q R ;.3.0.",
"4 j d h h z n n c b R ~ ~ $.~ $.~ ~ ~ $.$.~ $.W ..' ' ..O.S 7 7 N T ~ ~ ~ $.$.~ $.~ $.~ ~ O...' ' ..O.Q G n R ~ ~ ~ ~ $.~ 1.y.T.",
"j c x K K K L P v G ~ u.u.u.u.i.i.u.i.u.i.u.u.*.*.%.%.*.*.O.M M W $.*.i.i.i.u.i.i.u.u.u.u.*.*.%.%.*.u.%.R R E %.u.i.u.u.u.d.C.).",
"k c L ! ! ! I n k F $.i.i.p.i.i.i.i.i.i.i.i.i.i.i.p.p.p.i.%.G F ~ *.i.i.i.i.i.i.i.i.p.i.i.i.p.p.i.p.i.%.J G Q $.i.p.i.i.u.d.S.^.",
"j l P L I I L b q w T *.*.u.*.*.*.*.*.*.u.u.%.u.u.i.i.i.u.O.m i J %.u.u.u.u.u.u.i.i.u.u.i.u.i.u.u.i.i.$.B m S X.%.u.*.*.*.=.x.x.",
"e j v P P x v w + # B T Q Q ' ` ` D O.$.~ $.$.~ $.<.~ ~ O.S t t N W Q ~ <.~ ~ <.~ ~ ~ <.~ $.~ ~ $.$.#.A y t i S Q $...D S ` @.@.",
"* 6 j v v f 0 -   X ; g z h > @ % , h G R R G P R P R R Z i $ $ t i F R P G n n R R n R R R G R R G F i % $ = i Z F i > % & a ] ",
"* 6 j v v c d 8 # + : g l g + X o > M J R R R R R R R G F a t > y m G R G v b b n R R R R R R U R G G m y > y i F F i & X @ ( } ",
"3 k n P L P n x z h x x R x 0 q 1 M ~ %.$.%.%.%.$.%.%.~ $.O.....+.#.%.$.Q R R R <.%.%.~ $.%.$.%.%.$.$.X.......X.$.$...B y s 6.m.",
"4 v L ! ! I ! I E E E E ! K b h F O.*.p.i.i.i.i.i.i.p.i.p.i.p.i.i.p.p.u.%.Q R Q u.p.p.i.i.i.i.p.i.p.p.i.p.p.i.p.p.i.%.W Z ] C. X",
"c v L ! ! ! I E E ! ! ! ! L x b U Q u.p.a.p.i.i.p.p.p.a.p.p.p.p.p.p.p.u.$.Q R W u.p.p.i.p.p.p.p.p.p.p.p.p.p.p.p.p.i.*.W G o.C.|.",
"4 l v x x K L L L K L L L x g d m D $.u.u.*.%.%.%.#.#.%.%.%.%.*.%.*.u.$.T M m S O.u.u.%.%.%.%.#.%.#.%.%.%.%.%.*.i.$.O.F m C 5.n.",
"2 9 : : : f c n n n x n v f - O @ < S Q Q Q W A N N N B R Q Q Q Q Q Q A i 7 @ > Z W Q Q Q G B N N B J W Q Q Q Q Q J M , o & C o.",
"2 2 - O : : k v v v v v c d + X O ; h R R n G m , & > i F G n P P R P M y = o @ m G P G G M , > & u l G n R n P K F i ; o @ a H ",
"4 6 O . - : z v x v v v v h : : : w z x n n n d ; O + q l n P n n n n b d : 8 q f b n P n h 7 @ @ 8 f n n R P n n b g : 8 i { :.",
"j r 5 - : z n L P P P P K K z x h z x P P P P l 6 + : d b P P P P P P n z z h z n P P P P c 9 5 - 9 c P P P P P P x x h h H 7.t.",
"k j j d z x L I I I I L L L L L P L L I I I L P l d h x P I I L I I I L Y K Y K L L I I I P b f f z K L I I I I I I P P P Q T.R.",
"k k k c c P P L L P P P P P P L L L P P L P P n c v v n P K L P L P P L L L L P P P P P L P v c v v P L L P P P P P P P P E r.Q.",
"4 4 4 k c c c v c c c c c v c c v c c v v v v c c 4 k c v v v v c c c c c v v v c c c c c c k k k c c v c c c v v v c c v n -.3.",
"4 4 4 4 4 c 4 4 c 4 c 4 c 4 c 4 4 k k k 4 k k k 4 4 4 4 4 c 4 4 c 4 k k k 4 k k k k k k k k k 4 4 4 k 4 c 4 k 4 c 4 k k k v ^ ^ "
};
