/* XPM */
static char * back_xpm[] = {
"64 64 563 2",
"  	c #5B5D5C",
". 	c #5F6160",
"+ 	c #616362",
"@ 	c #626463",
"# 	c #636564",
"$ 	c #626362",
"% 	c #626262",
"& 	c #616161",
"* 	c #5E5E5E",
"= 	c #525252",
"- 	c #4D4D4D",
"; 	c #595A59",
"> 	c #666867",
", 	c #696B6A",
"' 	c #676968",
") 	c #656666",
"! 	c #636464",
"~ 	c #606060",
"{ 	c #5E5F5F",
"] 	c #606161",
"^ 	c #585858",
"/ 	c #4A4A4A",
"( 	c #4C4C4C",
"_ 	c #4F4F4F",
": 	c #555555",
"< 	c #5C5E5D",
"[ 	c #5D5F5E",
"} 	c #5E605F",
"| 	c #5F5F5F",
"1 	c #5B5C5B",
"2 	c #5A5C5B",
"3 	c #565857",
"4 	c #494A4A",
"5 	c #494949",
"6 	c #505050",
"7 	c #555656",
"8 	c #595B5A",
"9 	c #585A59",
"0 	c #5B5D5E",
"a 	c #5A5B5D",
"b 	c #565759",
"c 	c #4B4B4B",
"d 	c #686969",
"e 	c #676868",
"f 	c #646565",
"g 	c #656565",
"h 	c #666666",
"i 	c #5E5E5F",
"j 	c #545455",
"k 	c #696A69",
"l 	c #696A6A",
"m 	c #6A6B6A",
"n 	c #676767",
"o 	c #656665",
"p 	c #646564",
"q 	c #616261",
"r 	c #636363",
"s 	c #6C6C6C",
"t 	c #6D6E6D",
"u 	c #6C6D6D",
"v 	c #6B6C6B",
"w 	c #686968",
"x 	c #656766",
"y 	c #646464",
"z 	c #616262",
"A 	c #606162",
"B 	c #5D5E5E",
"C 	c #545555",
"D 	c #545454",
"E 	c #5D5D5D",
"F 	c #5D5E5F",
"G 	c #5C5E5E",
"H 	c #5A5C5D",
"I 	c #575859",
"J 	c #5C5C5C",
"K 	c #5B5B5C",
"L 	c #5B5B5D",
"M 	c #59595B",
"N 	c #575759",
"O 	c #5F5F60",
"P 	c #595959",
"Q 	c #515151",
"R 	c #6B6B6B",
"S 	c #6D6D6D",
"T 	c #5B5C5C",
"U 	c #5A5B5C",
"V 	c #58595B",
"W 	c #545557",
"X 	c #5E5E5D",
"Y 	c #5C5D5F",
"Z 	c #5B5C5E",
"` 	c #5B5D5D",
" .	c #575857",
"..	c #5B5B5B",
"+.	c #58585B",
"@.	c #58585A",
"#.	c #5A5A5A",
"$.	c #6A6A6A",
"%.	c #5D5E60",
"&.	c #5A5C5C",
"*.	c #575858",
"=.	c #5D5E5D",
"-.	c #5C5D5C",
";.	c #626263",
">.	c #585A5B",
",.	c #545656",
"'.	c #5C5F5E",
").	c #56575A",
"!.	c #636364",
"~.	c #535555",
"{.	c #606261",
"].	c #5B5C5D",
"^.	c #57585A",
"/.	c #4E4F4F",
"(.	c #595A5B",
"_.	c #5C5D5D",
":.	c #5A5B5B",
"<.	c #535554",
"[.	c #575958",
"}.	c #606160",
"|.	c #4E4E4F",
"1.	c #595B5B",
"2.	c #5F6060",
"3.	c #585958",
"4.	c #515251",
"5.	c #5E5F5E",
"6.	c #5A5B5A",
"7.	c #595A5C",
"8.	c #555658",
"9.	c #5E5F60",
"0.	c #4F5150",
"a.	c #525453",
"b.	c #565756",
"c.	c #4E4E4E",
"d.	c #5A5B5E",
"e.	c #595A5D",
"f.	c #58595C",
"g.	c #5B5C5F",
"h.	c #4E504F",
"i.	c #515252",
"j.	c #565656",
"k.	c #5F605F",
"l.	c #4D4E4E",
"m.	c #595B5C",
"n.	c #585A5A",
"o.	c #57595A",
"p.	c #535456",
"q.	c #4D4E4D",
"r.	c #585959",
"s.	c #4D4D4E",
"t.	c #595A5A",
"u.	c #525355",
"v.	c #545655",
"w.	c #4B4C4B",
"x.	c #565758",
"y.	c #565757",
"z.	c #555756",
"A.	c #535556",
"B.	c #4F5053",
"C.	c #4E4F51",
"D.	c #58595A",
"E.	c #575959",
"F.	c #484A4A",
"G.	c #4F5050",
"H.	c #505151",
"I.	c #555655",
"J.	c #555757",
"K.	c #535455",
"L.	c #4A4A4B",
"M.	c #505251",
"N.	c #4F5151",
"O.	c #505152",
"P.	c #4E5051",
"Q.	c #4C4D4F",
"R.	c #4E4F50",
"S.	c #505252",
"T.	c #555657",
"U.	c #545556",
"V.	c #515253",
"W.	c #494A4B",
"X.	c #4C4D4D",
"Y.	c #535454",
"Z.	c #525352",
"`.	c #505150",
" +	c #4B4C4C",
".+	c #4A4B4A",
"++	c #484848",
"@+	c #515352",
"#+	c #505153",
"$+	c #484949",
"%+	c #4C4C4E",
"&+	c #5C5C5F",
"*+	c #5C5C5E",
"=+	c #4F4F50",
"-+	c #565657",
";+	c #575757",
">+	c #535353",
",+	c #565859",
"'+	c #49494B",
")+	c #626363",
"!+	c #5F6061",
"~+	c #5E5F61",
"{+	c #4F4F51",
"]+	c #5A5A5C",
"^+	c #5D5D5F",
"/+	c #5F5F61",
"(+	c #525254",
"_+	c #59595A",
":+	c #5C5C5D",
"<+	c #5C5E5F",
"[+	c #515153",
"}+	c #5E5E60",
"|+	c #535355",
"1+	c #5D5F5F",
"2+	c #4F5052",
"3+	c #5C5D5E",
"4+	c #5A595B",
"5+	c #606061",
"6+	c #5D5D5E",
"7+	c #545554",
"8+	c #5B5E5D",
"9+	c #5A5D5C",
"0+	c #525353",
"a+	c #585A5C",
"b+	c #5C5B5C",
"c+	c #4D4F4E",
"d+	c #4C4E4D",
"e+	c #4B4D4C",
"f+	c #565858",
"g+	c #484A49",
"h+	c #4B4B4C",
"i+	c #4A4B4B",
"j+	c #494A49",
"k+	c #474948",
"l+	c #454746",
"m+	c #545657",
"n+	c #4D4E4F",
"o+	c #656564",
"p+	c #646566",
"q+	c #636465",
"r+	c #616264",
"s+	c #5F6062",
"t+	c #464746",
"u+	c #4F4E4E",
"v+	c #535453",
"w+	c #515152",
"x+	c #626365",
"y+	c #646465",
"z+	c #4E4C51",
"A+	c #49415E",
"B+	c #473E60",
"C+	c #483E60",
"D+	c #494060",
"E+	c #545357",
"F+	c #565658",
"G+	c #696969",
"H+	c #535354",
"I+	c #626465",
"J+	c #626364",
"K+	c #616263",
"L+	c #606062",
"M+	c #5D5F60",
"N+	c #58575A",
"O+	c #463E5A",
"P+	c #403677",
"Q+	c #3F3F8D",
"R+	c #3F4191",
"S+	c #3F408F",
"T+	c #3E3479",
"U+	c #463E70",
"V+	c #545160",
"W+	c #5E6060",
"X+	c #4C4C4D",
"Y+	c #575656",
"Z+	c #4B425F",
"`+	c #3F4190",
" @	c #3E3C87",
".@	c #504C60",
"+@	c #4D4F4F",
"@@	c #54515E",
"#@	c #3E3982",
"$@	c #453D71",
"%@	c #4C4E4E",
"&@	c #55545B",
"*@	c #3F387D",
"=@	c #3E3B87",
"-@	c #504C5E",
";@	c #575758",
">@	c #4A4365",
",@	c #3F3F8E",
"'@	c #443C6C",
")@	c #5A5A5B",
"!@	c #55535B",
"~@	c #413B7C",
"{@	c #3D3377",
"]@	c #3F3A83",
"^@	c #443C71",
"/@	c #534F5B",
"(@	c #3E3A83",
"_@	c #3F4090",
":@	c #3D2B67",
"<@	c #3C2862",
"[@	c #3E3880",
"}@	c #3D2E6C",
"|@	c #3C2155",
"1@	c #3D2A65",
"2@	c #3D2B66",
"3@	c #3D2D6B",
"4@	c #3F3D88",
"5@	c #3F3C87",
"6@	c #504B58",
"7@	c #524E5A",
"8@	c #3C2256",
"9@	c #3C245B",
"0@	c #3D2C69",
"a@	c #3F3B86",
"b@	c #4F4B58",
"c@	c #4F5051",
"d@	c #554E63",
"e@	c #4E4260",
"f@	c #3E3478",
"g@	c #515254",
"h@	c #4E2F6F",
"i@	c #4C2372",
"j@	c #443786",
"k@	c #3E3B85",
"l@	c #493271",
"m@	c #6F475A",
"n@	c #725259",
"o@	c #4D4E50",
"p@	c #56585A",
"q@	c #554D63",
"r@	c #4D2771",
"s@	c #4C2473",
"t@	c #432466",
"u@	c #432263",
"v@	c #472269",
"w@	c #3D2157",
"x@	c #A4536C",
"y@	c #E99E9A",
"z@	c #EAB1A9",
"A@	c #8B505F",
"B@	c #525454",
"C@	c #575957",
"D@	c #524961",
"E@	c #4C2771",
"F@	c #4B2371",
"G@	c #432262",
"H@	c #4C2371",
"I@	c #47236A",
"J@	c #B25E72",
"K@	c #F1A59F",
"L@	c #F5CEBE",
"M@	c #915362",
"N@	c #585859",
"O@	c #4D4369",
"P@	c #4C2672",
"Q@	c #4A2873",
"R@	c #393670",
"S@	c #C6787F",
"T@	c #ED9090",
"U@	c #D48C8C",
"V@	c #71545B",
"W@	c #4B4D4D",
"X@	c #474848",
"Y@	c #525465",
"Z@	c #4C3672",
"`@	c #492973",
" #	c #2C3F75",
".#	c #271C5F",
"+#	c #341D59",
"@#	c #3D285C",
"##	c #3D225E",
"$#	c #895168",
"%#	c #E5888B",
"&#	c #865361",
"*#	c #5C5D60",
"=#	c #5E605E",
"-#	c #554A66",
";#	c #4B2A72",
">#	c #364175",
",#	c #2D2162",
"'#	c #45447E",
")#	c #341F5D",
"!#	c #46437C",
"~#	c #515D9D",
"{#	c #42386E",
"]#	c #433B72",
"^#	c #3E2B60",
"/#	c #574CA7",
"(#	c #676286",
"_#	c #BC7388",
":#	c #AC6472",
"<#	c #534568",
"[#	c #5C4E62",
"}#	c #8D5063",
"|#	c #60619B",
"1#	c #5543BF",
"2#	c #4C519A",
"3#	c #6576B7",
"4#	c #7281BD",
"5#	c #5569B1",
"6#	c #6375B6",
"7#	c #5669B1",
"8#	c #605CC0",
"9#	c #797B8F",
"0#	c #888FB1",
"a#	c #60688A",
"b#	c #935064",
"c#	c #845B6A",
"d#	c #6B6BBF",
"e#	c #5967B5",
"f#	c #6D7EBB",
"g#	c #566AB1",
"h#	c #5468B0",
"i#	c #596CB2",
"j#	c #7C8CC2",
"k#	c #6064BC",
"l#	c #6D73AC",
"m#	c #636365",
"n#	c #646D95",
"o#	c #6E575E",
"p#	c #C27079",
"q#	c #606268",
"r#	c #6C6EC2",
"s#	c #6877BB",
"t#	c #6F7FBC",
"u#	c #7278C4",
"v#	c #6F75AF",
"w#	c #5C5F6B",
"x#	c #62595D",
"y#	c #B26472",
"z#	c #9F7479",
"A#	c #5E70B4",
"B#	c #6A7CBA",
"C#	c #6F75AE",
"D#	c #4F504F",
"E#	c #855962",
"F#	c #AA6676",
"G#	c #6D6DC2",
"H#	c #6C7DBA",
"I#	c #5568B0",
"J#	c #7787BF",
"K#	c #6A6FAE",
"L#	c #50505B",
"M#	c #58595F",
"N#	c #6C71AF",
"O#	c #616ABA",
"P#	c #7585BF",
"Q#	c #6678B8",
"R#	c #586CB2",
"S#	c #5A6DB2",
"T#	c #808FC4",
"U#	c #6F73C3",
"V#	c #595D9A",
"W#	c #2E2D61",
"X#	c #4F5965",
"Y#	c #555759",
"Z#	c #5A5657",
"`#	c #8D6280",
" $	c #675FB9",
".$	c #555CB6",
"+$	c #6D7BBC",
"@$	c #7483BF",
"#$	c #747CC3",
"$$	c #7E6BB8",
"%$	c #533E72",
"&$	c #203A6F",
"*$	c #3C648F",
"=$	c #505863",
"-$	c #4A4C4C",
";$	c #715051",
">$	c #BD2734",
",$	c #AD597B",
"'$	c #927EB0",
")$	c #6F61BD",
"!$	c #5F54C2",
"~$	c #6055C1",
"{$	c #8F7CB1",
"]$	c #B83F57",
"^$	c #763560",
"/$	c #456B99",
"($	c #476B9A",
"_$	c #34628D",
":$	c #5D626F",
"<$	c #494B4B",
"[$	c #9A3F43",
"}$	c #BE2633",
"|$	c #B93D54",
"1$	c #B7425C",
"2$	c #B7425B",
"3$	c #BE2837",
"4$	c #C23840",
"5$	c #B6627D",
"6$	c #4B6E9D",
"7$	c #3D6795",
"8$	c #7D8DC2",
"9$	c #6F799D",
"0$	c #595B5D",
"a$	c #494B4A",
"b$	c #993B40",
"c$	c #C6444B",
"d$	c #C7474D",
"e$	c #C54048",
"f$	c #C33A42",
"g$	c #CD5E62",
"h$	c #C3696F",
"i$	c #A55366",
"j$	c #83729B",
"k$	c #7584B3",
"l$	c #7B88B8",
"m$	c #6A7393",
"n$	c #484948",
"o$	c #775154",
"p$	c #884549",
"q$	c #BF7778",
"r$	c #E3898A",
"s$	c #DF8284",
"t$	c #DA7476",
"u$	c #BB6567",
"v$	c #9E585E",
"w$	c #A24E5B",
"x$	c #812845",
"y$	c #912742",
"z$	c #824F52",
"A$	c #616163",
"B$	c #61424D",
"C$	c #752847",
"D$	c #AA5C66",
"E$	c #B76A70",
"F$	c #6A4751",
"G$	c #A1273D",
"H$	c #A4273D",
"I$	c #982740",
"J$	c #825052",
"K$	c #555557",
"L$	c #545456",
"M$	c #4D4D4F",
"N$	c #5B494F",
"O$	c #742E49",
"P$	c #733049",
"Q$	c #655156",
"R$	c #A22D3F",
"S$	c #A52B3D",
"T$	c #8A3D49",
"U$	c #745456",
"V$	c #555556",
"W$	c #525253",
"X$	c #6F4251",
"Y$	c #732E49",
"Z$	c #5F5859",
"`$	c #69565B",
" %	c #694953",
".%	c #686868",
"+%	c #695057",
"@%	c #565558",
"#%	c #535254",
"$%	c #6E3E4E",
"%%	c #72344A",
"&%	c #70374C",
"*%	c #605759",
"=%	c #505051",
"-%	c #57595B",
"  . + @ @ # # $ % & & * = - ; @ > , , ' ) ! ~ { { . ] ^ / ( _ : ;   < < [ } } } } { | * 1 2 3 4 5 6 7 8 9 9 9 8 2       0 a b c ",
"d e ) f # f f f g h h g i j k l l m l l d d n ) o p o q - = r s t u v m l d w > x ) g y z A B C D E B } [ [ B F [ [ [ G G H I - ",
"n ~ * * E E E J J J K L M N O ~ ~ ~ ~ | | | | * * E J P Q J R S R g & ~ | ~ | | * E E J T U V W ; X * < < < F Y Z `       2  .Q ",
"g | * * E J J J J J ..K +.@.& | | * * * * * * E E J ..#.= * $.$.y ~ | | * * * E J J J J T a V W P ~ o . } [ %.%.Y <       &.*.= ",
"% | B =.E -.J J T T ..K @.@.;.| | * [ * * * B E E J J #.= * n & | | | * * * E E J J J J T a >.,.; n ! [ [ [ %.Y Y <     ` &.I _ ",
"} '.< < <       2 2 2 U ).b !.~ * [ [ [ [ '.< E E J J #.= | g | | | * * * * J E J J J ....2 9 ~.3 + {.< [ [ Y Y Y       Z ].^./.",
"[ < < <         2 2 8 (.).b z ~ * [ [ [ [ < < _.J ....P = * g | * * * * * E E E J J ....:.8 9 <.[.}.. < < < Y Y 0 <     Z a ^.|.",
"<   < <   ` ].T &.U 1.(.).b A 2.{ [ [ [ B G ` T 1 ....3.4._.y | 5.* =.B B _._._.T T :.:.6.8 9 <. .q ] < < < Y Z Z &.&.T a 7.b |.",
"          Z Z a a a 7.7.b 8.9.. [ < < < Y Y Z &.2 2 2 [.0.T r | | [ < < <       2 2 2 8 8 9 [.a.b.% 2.<     Z Z Z a a a a a b c.",
"  2 2 2 2 H d.e.e.f.V V b W _.. < < <   ].g.d.&.2 8 8 [.h.6.% * * < < <       2 2 2 2 9 9 [.3 i.j.% k.    2 a Z Z a a 7.a 7.^.l.",
"T 1 2 8 8 1.m.1.>.n.o.^.b p.` [   < < 2 2 H &.:.8 8 8 3 q.r.& * E   <   2 2 2 8 8 8 9 9 9 [.b.h.D & * 2 8 8 1.1.7.7.7.7.V V b s.",
"t.#.8 8 8 8 8 9 9 [.[.I 8.u.U         2 2 2 8 8 8 9 9 v.w.i.J E E   < 2 2 2 2 8 8 8 9 [.3 : = ( _ ..; 8 9 n.9 9 9 V V V V V x.( ",
"Q j.y.3 3 3 3 3 z.z.z.A.B.C.D.8 1.2 :.8 8 9 8 8 9 E.z.h.F.G.P ....2 2 2 8 3.[.3 3 3 z.<.H.Q 6 / / i.I.3 3 3 3 3 J.8.8.8.8.8.K.L.",
"_ G.H.M.0.N.N.O.N.N.0.P.Q.Q.R.S.~.,.,.T.,.7 T.J.,.U.K.V.W.X.Y.: b.3 3.*.I.Z.`.h./.l.q. +.+/ 5 ++/ _ 4.@+a.a.Y.<.Y.p.W W u.#+R.$+",
"g ~ <     ].a a a 7.a L @.%+V.@.&+Y Y Y Y Y Y *+L U M @.=+|.-+;+E E J J ..P j.D >+i._ c / / 5 ++c >+7 z.3 3 ,+I b b V V b b u.'+",
"R n )+{.. !+~+%.%.%.Y Y M {+]+^+/+~+%.Y Y Y Y Y *+*+]+M (+_+:+E E E E J J J ....#.#.P : Q 6 - 5 6 ~ f {.} < <+%.a Z Z a a a ^.%+",
"$.r }.. . ~+~+%.%.%.Y ^+]+[+i 9.}+%.%.Y Y Y Y Y *+*+L M |+:+| E * E E E J J J ......#.t.3.;+: c.>+f ] 1+1+F Y Z Z Z Z a a a ^.2+",
"n q . . } ~+~+%.%.%.Y F ..= B [ [ F %.Y Y Y Z Z Z a Z ]+|+^+~ E E E E E J J T 2 2 2 8 9 9 [.z.0.D r | %.%.%.Y Y Y Z Z Z 7.a ^.C.",
"g ~ 2.} } 9.~+%.%.%.Y B ..Z.[ [ < 3+Y Y Y Y Z Z Z a a 4+|+i 5+* E E E E J J 1 2 2 2 8 9 9 z.v.`.>+r { %.Y Y Y Y Z Z Z a a 7.,+P.",
"% ~ ~ { } } 9.%.%.%.Y 6+..Z.[ [ < G Y Y Y Y Z Z Z a U M |+i & * =.< E E J J 1 2 2 1.1.n.r.C 7+`.>+r i %.Y Y Y Y Z Z Z a a a ^.O.",
"~ | ~ * * [ [ 1+Y Y Y _.#.= =.< < < < <       &.2 2 :.P >+* ~ E E < 8+8+9+9+  2   1.7.f.@.: D 6 >+% i %.Y Y Y Z Z Z Z a a a I H.",
"| * * * * [ [ < Y Y Y _.#.4.=.< < <         2 2 2 8 6.P >+E ~ E E <         2 8 2 1.f.V N D D 6 >+& 6+Y Z Z Z Z Z a a a 7.7.).6 ",
"E | * * * [ [ < Y Y Y _.#.4.=.< <           &.2 2 8 8 P i.J | E E <       2 2 8 8 t.V o.x.D D 6 >+& 6+Y Z Z Z Z Z a a a 7.7.)._ ",
"E y { [ < Y Y Y Y Y Z ` 9 M.<   2 2 2 2 a a a 1.8 8 8 [.@+-.| J J J J T 2 2 2 8 9 9 [.3 <.>+>+6 = & 3+Z Z Z Z Z a 7.7.7.7.V x.G.",
"E y { < G Z Y Y Z Z a T 9 0.    2 8 8 2 U e.a 1.8 8 9 [.a.-.| E J J J 1 2 8 8 8 8 3 v.<.0+= >+6 6 O ].a a a a a 7.a 7.V V V 8.G.",
"J E <     Z Z Z Z a a &.9 h.8 2 1 8 8 9 8 a+>.r.[.9 9 3 M.:.E ..........2 8 8 8 9 9 n.E.<.Z.0+6 _ ~ T a a a a 7.7.V V V V V 8.G.",
"J b+      Z Z Z a a a 2 [.h.Z.;+3.3.[.[.[.;+;+j.: : I.a.c+7+^ ..#.8 8 2 8 8 8 9 9 D.^.^.K.i.@+0._ ~ U 7.7.7.7.7.7.V V V ^.^.8.h.",
"..T       ].Z Z a 7.7.(.3 d+q.c.6 H.M.@+4.Q >+D >+Q 0.d+e+4.I.^ r.3 3 9 9 9 9 9 9 [.b ^.W a.@+l.( ..; V V V V V V V V ^.b b p.c+",
"7+y.f+x.3 b b b b W W U.0.g+/.Q Q G.G.h./.s. +h+w.i+j+k+l+- 6 = 7+C 7 [.[.[.*. .3 y.8.T.U.<.0.k+5 c.>+W U.W W W W 8.8.m+W p.C.i+",
"a.T Z Z Z Z Z Z Z a a 7.x.n+5+y o+p+p+q+r+s+7.b W K.=+w.t+- _ u+_ 6 = 7+v.<.v+>+= Q w+Q _ - 5 ++c = ^ J * 6+3+Z a 7.V ^.^.b [+5 ",
"2 [ %.%.%.%.%.Y %.Y Y Y ]+(+~ r r q+x+x+x+x+r+r+x+p+y+../ z+A+B+C+D+E+F+[.[.*.^ ;+;+;+j.D Q  +5 D $.s R G+n p+x+s+~+%.Y Y Z M =+",
"[ [ %.%.%.Y Y Y %.Y Y *+]+H+5+r !.q+I+x+J+K+L+s+9.M+B N+O+P+Q+R+R+S+T+U+V+W+{ * B E :+6+K #.y.X+Y+$.e )+| 2.9.F 3+Y Y 3+Z Z V |.",
"} [ %.%.%.%.%.Y Y Y Z ].#.= * | | { { [ B < _.`     ].Z+`+R+R+R+R+R+R+R+ @.@  2 2 U 7.7.7.@.b 2+^ n }.[ [ [ [ [ < < < =.Z Z V +@",
"[ [ %.%.Y Y Y Y Z Z Z T #.Q * * * [ [ < < <       2 @@#@R+R+R+R+R+R+R+R+R+$@V 2 2 U 7.V V V b #+^ % } [ [ [ < < < [ < ` Z Z V %@",
"} [ F %.Y Y Y Y Z Z Z T P 6 * * * * [ < < <       &@*@R+R+R+R+R+R+R+R+R+R+=@-@2 2 2 7.V V V b O.;@% { [ [ [ < < < `   ` Z Z V %@",
"=.* < < < ` ` ` Z Z a :.P 6 * * * B < < < <   ` Z >@,@R+R+R+R+R+R+R+R+R+R+R+'@2 8 8 8 8 E.E.y.M.y.{.[ [ < < 3+Y g.g.g.Z a a ^.X.",
"E E <   <       ].a a )@P c.* E * =.< < < <   &.!@~@R+R+,@Q+R+S+{@]@,@R+Q+R+^@D.8 8 8 9 9 [.z.M.z.} < [ < < Y Z Z Z Z a a a V X+",
"..b+            a a a :.^ c.* * E E <     T   &./@(@R+_@:@<@[@}@|@1@2@Q+3@4@5@6@8 8 9 9 9 3 v.M.C } _.< < < Z Z Z Z a a a 7.V w.",
"#.........2 2 2 2 2 8 8 [.c+< [ <       ].a a a 7@(@R+(@8@|@|@|@|@|@|@:@9@0@a@b@9 9 [.[.E.8.p.c@= | _.Z Z Z Y Z Z Z a a 7.a ^. +",
"^ #.......2 2 8 8 2 9 9 [.c+9 <   2 2 2 U 7.a d@e@]@S+3@|@|@|@|@|@|@|@|@|@|@f@b@9 9 [.[.f+p.g@R.Q ~ _.Z Z Z a Z a 7.a 7.7.7.o.X.",
"j.#.#...#.2 2 8 8 8 9 9 3 d+`.8   2 2 2 1.7.7.h@i@j@k@|@|@|@|@|@|@|@|@|@|@|@l@m@n@7+b.3 f+p.g@o@_ | :+Z Z Z a a a a a 7.7.7.p@X.",
"= ^ j.P ^ 8 8 8 8 9 3. .>+( c.b.6.:.2 2 2 8 9 q@r@s@t@|@|@u@v@w@|@|@|@|@|@|@x@y@z@A@>+I.7 B@S.c+l...:.Z a a a a 7.7.7.7.V V p@ +",
"_ >+D : : b.3 3 3 v.@+Q ( c - = ;+r.9 9 9 9 [.C@D@E@F@G@u@H@I@w@|@|@|@|@|@|@J@K@L@M@_ _ Q Z.M. +( : t.7.7.7.7.7.7.V V V V ^.8.4 ",
"b.^ N@r.^ 9 9 [.*.z.M.l.c c 6 >+D Y.Y.Y.Y.B@0+@+M.O@P@i@Q@R@w@|@|@|@|@|@|@|@S@T@U@V@>+i.4.0.W@4 - >+7 T.8.W 8.8.8.W W 8.p.u.#+X@",
"< 2 (.U ].0 Z ].a U 1.;+6 - *.    ` H a a a 7.V D.Y@Z@`@ #.#+#|@@#|@|@|@##|@$#%#&#D.D.I x.W Q.W.]+i ^+*#Y Z Z Z a a a 7.7.V b $+",
"} =#M+%.Y Y Z Y Y a a _+D _ 2 < &.H a Z Z a a 7.7.-#;#>#,#'#)#!#~#{#]#^#/#(#_#:#7.7.V V V Z W %+L *+*+Z Y Z Z Z a a a 7.7.7.).X.",
"} } ~+~+%.%.%.Y Z Y Z )@;+6   <   ].Z a a a a 7.7.<#[#}#|#1#2#3#4#5#6#7#8#9#0#a#7.7.V V (.~+^.R.^+*+*+Z Z Z Z Z a a 7.7.7.V ^.s.",
"| | %.%.%.%.%.%.Y Y 7.8 *.M.T < 2 U a a a a a 7.7.7.b#c#d#e#f#g#h#h#i#j#k#l#m#n#7.7.V V V 6+-+/._.    Z Z Z Z Z a a a V 7.7.^.s.",
"* | %.%.%.Y Y %.Y Y (.n.f+M.    2 U a a 7.7.7.7.7.o#p#q#r#s#6#h#h#h#h#t#u#v#* w#7.7.V V D.*.: /.<   ` Z Z Z Z Z a a a V 7.V b s.",
"| * %.%.%.Y Y Y Y Y 7.n.3 0.2   2 U a a a 7.7.7.7.x#y#z#r#s#A#h#h#h#h#B#u#C#T 7.7.7.V ^.I ;+C D#<   ` Z Z Z a a a 7.7.7.V V b - ",
"{ [ [ B G 3+Y Y Z Y V E.z.0.2 2 8 U a 7.7.7.7.7.V V E#F#G#s#H#h#h#h#I#J#u#K#L#V V V V ^.^.b A.P._.  ].a a a a a 7.7.V V V V b X.",
"} [ [ [ < Y Y Y Z Z o.*.z.0.2 2 8 U a 7.7.7.7.7.V V b M#N#O#P#Q#R#S#H#T#U#V#W#X#V V V ^.b Y#p.P.<   T a a a a a 7.7.V ^.^.^.8.W@",
"} < < < < Y Y Z Z Z ^.f+v.h.8 2 8 (.7.7.V V V V V ^.b Z#`# $.$+$@$@$@$#$$$%$&$*$=$^.^.b b W u.C.< 2 &.a 7.7.7.7.7.V V b ^.^.8.-$",
"} <       Z Z Z a a ^.x.v.c+9 2 8 (.V V V V V V ^.^.N ;$>$,$'$)$!$!$~${$]$^$/$($_$:$*.f+J.: 0+_ J :.:.8 8 8 1.n.n.E.[.E.b b W <$",
"< 2       Z Z Z a a b y.<.e+3 9 [.D.D.^.^.^.b b b b T.[$}$}$}$|$1$1$2$3$4$5$6$7$8$9$v.~.v+= 6 - #.P t.; 9 9 9 9 [.[.[.&.8.W u.k+",
"<     T 2 ].a a 0$0$b J.@+a$M.@+a.U.W p.p.p.p.u.u.g@[+b$}$c$d$e$}$}$f$g$h$i$j$k$l$m$0.h.D#_ ( / - >+;+3 3 z.z.z.z.z.z.T.x.8.8.%@",
"v+I.I.z.*.r._+)@..:.j D# +n$D#*.1 T a a a a Z a a a ]+o$p$q$r$s$t$u$v$w$x$y$z$(.(.y.Y.v+v+H+=+h+=+% r % z q q q q & q z A$A$r+(.",
"P ....J T ..#.......P ;+= 5 ^ ....U a a a Z a a a 7.]+M (+B$C$C$D$E$F$G$H$I$J$7.7.t.j.: : K$L$M$P G+~ * E E E E E E E E *+*+L |+",
"..E J J J J ........#.#.^ Q #.....].Z Z Z a a a a a a 7.|+N$O$C$C$P$Q$R$S$T$U$a 7.1.^ V$V$K$K$W$E $.| E E E E E J J J J L L M (+",
"            T 2 U U 7.V @.V.r.2 1   ` &.&.&.&.&.U m.]+]+L$H+X$C$C$Y$Z$    1 2 &.1.(.N 8.K$K$K$H+* $.| E E E < < <       K ..#.= ",
"              2 U a 7.V ^.V.I #   <   2 2 2 2 2 2 8 (.7.L$K.`$C$C$C$ %    2 2 2 8 t.V 8.8.K$K$(+* .%| E E E < < <       ..#.P = ",
"        2 2 2 2 m.V V ^.^.#+E.{.    2 2 2 2 2 2 2 2 D.M L$C +%C$C$C$ %    2 2 2 8 8 f.b W F+@%#%* .%| E E E < < <     2 J #.P = ",
"8   2 2   &.U U 7.7.V V b 2+N@{ T 2 2 2 2 2 2 2 m.1.V V p.B@$%%%%%&%*%  ].U U m.1.(.V b 8.F+F+H+* .%| E E E -.-.-.    2 K U _+=%",
"8   2 2   H a a 7.7.V ^.b 2+N@....2 2 2 2 2 2 :.7.7.>.-%u.K.<           Z a a 7.7.(.V b 8.F+F+H+* .%| E E E J J J     2 a a M =%"};
