/* XPM */
static char * up_0_xpm[] = {
"64 64 44 1",
" 	c #4A4A4A",
".	c #464646",
"+	c #3E3E3E",
"@	c #393939",
"#	c #414141",
"$	c #4C4C4C",
"%	c #505050",
"&	c #525252",
"*	c #4B4B4B",
"=	c #484848",
"-	c #3F3F3F",
";	c #3B3B3B",
">	c #404040",
",	c #444444",
"'	c #4E4E4E",
")	c #515151",
"!	c #4F4F4F",
"~	c #494949",
"{	c #424242",
"]	c #3C3C3C",
"^	c #434343",
"/	c #4D4D4D",
"(	c #454545",
"_	c #3A3A3A",
":	c #474747",
"<	c #3C2155",
"[	c #3F4191",
"}	c #3D3D3D",
"|	c #383838",
"1	c #4C2372",
"2	c #B14869",
"3	c #EE9191",
"4	c #F9D7C5",
"5	c #4C4E71",
"6	c #005784",
"7	c #28155D",
"8	c #5468B0",
"9	c #502CC1",
"0	c #8190C5",
"a	c #B1B1B1",
"b	c #6B7BBB",
"c	c #5E5E5E",
"d	c #BE2633",
"e	c #752847",
"   .+@@@@@@#$%$$%&&%$    $%&&$#@@@@@@+.$%%$$%$#@@#$&&&&%$  .+#$&",
" *$=-;-##>#, $$')&)!$*$$$'))'~{->##-;]^ !)''!*>@@>*)&&&%$*$=-#$&",
" $'*>-=$//$~,($)&)'$*$'%%))'.{,=*/$=-_],/&)!/=-@@-=')&&%$$'*>#$&",
"$')$#> %&&&$#>*!/*:..=*$$$<<<<<<<)&'.-;-=$$*=^]@@]^=*$$*==*:->$&",
"%)&$#-=')&&$>-=~,>+++->#<<[[[[[[[<<<'=-;+##>-}_@@_}->##>-->-;#$&",
"&&)*>-=')&&$#}^({##>--<<[[[[[[[[[[[[<<>_]->-;_}->####>-}_;-##(/%",
"&)'=->*%&&&$#_]{~$$*=<[[[[[[[[[[[[[[[[<}^=*=-]^=*$$$$*={]-=$/$$$",
"$*={]#$&))&/#@@>*%%!/<[[[[[[[[[[[[[[[[[<=')$#-=')&&&&%$.+-=$$*=.",
"#>-]_#$)''%$#@@-=$//<[[[[[[[[[[[[[[[[[[<*)&$#>*)&&&&&%$.+;-##>-+",
"#####,~*==*=-@|]^..<[[[[[[[[[[[[[[[[[[[[<%%*>#$&&&))))'=-@@_}->#",
"$$$$$ ,>+->-;@@_}+<[[[[[[[[[[[[[[[[[[[[[<$$=-#$&&%''%&)*>@|]^=*$",
"%)))' ,#>######-;;<[[[[[[[[[[[[[[[[[[[[[[<$=-#$&)'$$%&&$#@@-=')&",
"$')'.,~$$$$$$/$=-<[[[[[[[[[[[[[[[[[[[[[[[<!*>#$)'$ $%&&$#@@>*)&&",
"$')$##$&&)%%)&&$#<[[[[[[[[[[[[[[[[[[[[[[[<)$##$%$ $')&&$#@@>*)&&",
"%))$>>$&&)'')&&$<[[[[[[[[[[[[[<<[[[[[[[[[<&$##$%$$')&&&$#@@-=')&",
"$$$=->*)&%''%&&$<[[[[[[<<[[[[<<<[<[[[<[[[[<*>#$)'')&)%%*>@|]^=*$",
"###-;-=')))%)&&$<[[[[[<<<<[<<<<<<<<[[<<[[[<=-#$)))&)'$$=-@@_}->#",
"###-;+.$%&&&&&&$<[[[[[<<<<<<<<<<<<<<[<<<[[<,>{~$$$$*=..,>->##>-+",
"$$$=-+.$%&&&&&&$<[[[[<<<<<<<<<<<<<<<<<<<[[<>,({####>-++>,=*$$*=.",
"%%%*>-=/!)&&&&&/<[[[[<<<<<<<<<<<<<<<<<<<<[<,~~,-;;-####,~/!)&)'$",
"$/$=->*!/'%&&111<[[[<<<<<<<<<<<<<<<<<<<<<[</!!/=++=$$$$/!!/')&)%",
"$$*.+-=*==*$$1111[[[<<<<<<<<<<<<<<<<<<<<<[<&&&&$#>*)&&))&)'')&&&",
"%!$.+;->-->##11111[<<<<<<<<<<<<<<<<<<<<<<<2222&$#-='))'')&)%)&&&",
"$$$~,########>11111<<<<<<11<<<<<<<<<<<<<<233432$#}^=**==*$$$$$$$",
"#($!'$$$$$$$$ =11111<<<<1111<<<<<<<<<<<<<234442$#_]->>-->#######",
"@#/&&&))&&))&)''11111<<1111<<<<<<<<<<<<<<233442=+@@;->-->####>-+",
"@>$&&)''))'')&))&111111111<<<<<<<<<<<<<<<333342-;@@-=*==*$$$$*=.",
"@-=$$*==**==*$$$$51111116<<<<<<<<<<<<<<<<33332###-;#$%$$'%%)&)'$",
"@;-##>-->>-->####551111677<<<<<<<<<<<<<<<<332$$$$=-#$%/*$$$')&)%",
"@_}++++->>-->>-]_-511167777<<<<<<<<<<<<<<<332&&&)*>#$%/*$$$/!%%%",
"@}^....=**==**=^];111677777<<<8<<<<<<9<<<332)&&)'=-#$%$$'%%!/$$$",
"@+.*$$$'))'/!!/=-111677707<<8888<<8<<09ab22=*$$*={]-=*==*$$*=...",
"@+.$!%%)&&)!/'!*>11;-27099<880088888890cabb->##>-}_;->-->##>-+++",
"@]^=*$$$$$$*==*=-;-#2cc9988808888008899ccab++->######>-}__}->###",
"@_}->######>-->-;-=22c098808888888800890cccb.=*$$$$$$*=^]]^=*$$$",
"#>-}_@@@@@@@@;--;+=2cc098008888888800090cccb $%&&&&&)!/=-+.$%&&&",
"$*=^]@@@@@@|@-==-;23cc098088888888880090ccc!$$%&&&&)''!*>+.$%&&&",
"&)'=-_]->##+;>*$(#23cc098088888888880090cc&)'')&&&)!$/%$#-=')&)%",
"&&)*>}^=*/$=--=$/$$23c098088888888880090c&&&)))&&)'$ $%$#>*)&)'$",
"$$$=--=')&&$#-=')&)23c098088888888880090=$$$$$$$$*=..=*=-+=$$*=.",
"###-;>*)&&&$#> )&)'$220980088888888000907########>-++->-;;-##>-+",
"#>-]_#$&)))$#-=$/*=..=09800888888880009077+}__}->-;@@_}->#######",
"$*={}#$)''%$#;-##>-++->09800088880000907776^]]^=*=-@@]^=*$$$$$$$",
"%!/=->*'$$%/#@|@@@@;->-098880000000009077766--=')$#@@-=')&))&&)%",
"$'!*>-=$*$%$#@|@@|@-=*dd09998888888990d776606>*)&/#@@>*)&)''))'$",
".=*=--=$$$$ ,##>-->, $ddd000999999900dd7660666*)&$#@|+=$$*==**=.",
"+->-;>*%%$(,~$/*==*~,ddddddd0000000ddddd6066600')$#@@;-##>-->>-+",
"+->-;>*)&$#>*)&%$$'*>ddddddddddddddddddd0666000/!*>;+##>-++}_;-#",
".=*=--=')$#+=')%$*$=-ddddddddddddddddd330660000!/=--=$$*=..^]+=$",
"$/!*>+.$!*>+.$%)'$$=-ddddddddddddddd33eed000000%$.+#$&&%$*$=-#$&",
"%!/=-+.*$=-+.$%))%%*>ddd33333ddddd33eeeed$$=-#$%$.+#$&&%$$!*>#$&",
"&)'=--=$*.+-=')&&&%*>-=$*3333333))eeeeeed))$##$)'=->*)&)''%$#>*%",
"&&%*>>*!$.+>*)&&&)'=->*!$eeeee333'edddded')$##$&)*>-='))))&$#-=$",
"&&&$##$)'=-#$&))))'=-#$)'eeeeeeee$eeeeeed')$#>*)&$#-=/!%&&&$#-=$",
"&&&$##$&)*>#$)''%&) >#$&)eeeeeeee$edddded)&$#-=')$#> !/')&&$#>*%",
"&&%*>-=$$=->*'$$%&&$#-=$$$eeeeeee=*eeee=*/$~{>,=*=->*!'')&&$##$&",
"&)'=-;-##-;-=$*$%&&$#;+###eeeeeee->##>-->##{(,>->-;-=/!%&&&$##$&",
"%!/=-;-##-;-=$$')&&$#_]->##eeeeeee#>-}_@@@@}^^}@@@@]^=*$$$$=-#$&",
"$/!*>-=$$=->*%%))&&$#}{=*$$eeeeeee$*=^]@@@@_}}_@@@@_}->####+;#$&",
"$')$#> )&$##$&)%%%%*>+:')&)eeeeeee&!~({##>-->-;@@;-##>-->##+;#/&",
"%)&$#-=')$##$)'$$$$=->*)&)'eeeeeee&/,{~$/*==*=-@@-=$$*== $$=-#$&",
"$/$=--=')$#-=*=....,{.'&)'eeeeeeee%*>>*%%'$$%$#@@#$&)'$$%&&$#-=$",
"###+;>*)&$#;+>-++++{~'))'$eeeeeee$$=--=$/$*/%/#@@#/)'$*$%&&/#;+#",
"@@@@@#$&&$#@@@@@@@@#$&&%$    $%%$  .++.    $%$#@@#$%$  $%&&$#@@@"};
