/* XPM */
static char * back_2_xpm[] = {
"64 64 560 2",
"  	c #5B5D5C",
". 	c #5F6160",
"+ 	c #616362",
"@ 	c #626463",
"# 	c #636564",
"$ 	c #626362",
"% 	c #626262",
"& 	c #616161",
"* 	c #5E5E5E",
"= 	c #525252",
"- 	c #4D4D4D",
"; 	c #595A59",
"> 	c #666867",
", 	c #696B6A",
"' 	c #676968",
") 	c #656666",
"! 	c #636464",
"~ 	c #606060",
"{ 	c #5E5F5F",
"] 	c #606161",
"^ 	c #585858",
"/ 	c #4A4A4A",
"( 	c #4C4C4C",
"_ 	c #4F4F4F",
": 	c #555555",
"< 	c #5C5E5D",
"[ 	c #5D5F5E",
"} 	c #5E605F",
"| 	c #5F5F5F",
"1 	c #5B5C5B",
"2 	c #5A5C5B",
"3 	c #565857",
"4 	c #494A4A",
"5 	c #494949",
"6 	c #505050",
"7 	c #555656",
"8 	c #595B5A",
"9 	c #585A59",
"0 	c #5B5D5E",
"a 	c #5A5B5D",
"b 	c #565759",
"c 	c #4B4B4B",
"d 	c #686969",
"e 	c #676868",
"f 	c #646565",
"g 	c #656565",
"h 	c #666666",
"i 	c #5E5E5F",
"j 	c #545455",
"k 	c #696A69",
"l 	c #696A6A",
"m 	c #6A6B6A",
"n 	c #676767",
"o 	c #656665",
"p 	c #646564",
"q 	c #616261",
"r 	c #636363",
"s 	c #6C6C6C",
"t 	c #6D6E6D",
"u 	c #6C6D6D",
"v 	c #6B6C6B",
"w 	c #686968",
"x 	c #656766",
"y 	c #646464",
"z 	c #616262",
"A 	c #606162",
"B 	c #5D5E5E",
"C 	c #545555",
"D 	c #545454",
"E 	c #5D5D5D",
"F 	c #5D5E5F",
"G 	c #5C5E5E",
"H 	c #5A5C5D",
"I 	c #575859",
"J 	c #5C5C5C",
"K 	c #5B5B5C",
"L 	c #5B5B5D",
"M 	c #59595B",
"N 	c #575759",
"O 	c #5F5F60",
"P 	c #595959",
"Q 	c #515151",
"R 	c #6B6B6B",
"S 	c #6D6D6D",
"T 	c #5B5C5C",
"U 	c #5A5B5C",
"V 	c #58595B",
"W 	c #545557",
"X 	c #5E5E5D",
"Y 	c #5C5D5F",
"Z 	c #5B5C5E",
"` 	c #5B5D5D",
" .	c #575857",
"..	c #5B5B5B",
"+.	c #58585B",
"@.	c #58585A",
"#.	c #5A5A5A",
"$.	c #6A6A6A",
"%.	c #5D5E60",
"&.	c #5A5C5C",
"*.	c #575858",
"=.	c #5D5E5D",
"-.	c #5C5D5C",
";.	c #626263",
">.	c #585A5B",
",.	c #545656",
"'.	c #5C5F5E",
").	c #56575A",
"!.	c #636364",
"~.	c #535555",
"{.	c #606261",
"].	c #5B5C5D",
"^.	c #57585A",
"/.	c #4E4F4F",
"(.	c #595A5B",
"_.	c #5C5D5D",
":.	c #5A5B5B",
"<.	c #535554",
"[.	c #575958",
"}.	c #606160",
"|.	c #4E4E4F",
"1.	c #595B5B",
"2.	c #5F6060",
"3.	c #585958",
"4.	c #515251",
"5.	c #5E5F5E",
"6.	c #5A5B5A",
"7.	c #595A5C",
"8.	c #555658",
"9.	c #5E5F60",
"0.	c #4F5150",
"a.	c #525453",
"b.	c #565756",
"c.	c #4E4E4E",
"d.	c #5A5B5E",
"e.	c #595A5D",
"f.	c #58595C",
"g.	c #5B5C5F",
"h.	c #4E504F",
"i.	c #515252",
"j.	c #565656",
"k.	c #5F605F",
"l.	c #4D4E4E",
"m.	c #595B5C",
"n.	c #585A5A",
"o.	c #57595A",
"p.	c #535456",
"q.	c #4D4E4D",
"r.	c #585959",
"s.	c #4D4D4E",
"t.	c #595A5A",
"u.	c #525355",
"v.	c #545655",
"w.	c #4B4C4B",
"x.	c #565758",
"y.	c #565757",
"z.	c #555756",
"A.	c #535556",
"B.	c #4F5053",
"C.	c #4E4F51",
"D.	c #58595A",
"E.	c #575959",
"F.	c #484A4A",
"G.	c #4F5050",
"H.	c #505151",
"I.	c #555655",
"J.	c #555757",
"K.	c #535455",
"L.	c #4A4A4B",
"M.	c #505251",
"N.	c #4F5151",
"O.	c #505152",
"P.	c #4E5051",
"Q.	c #4C4D4F",
"R.	c #4E4F50",
"S.	c #505252",
"T.	c #555657",
"U.	c #545556",
"V.	c #515253",
"W.	c #494A4B",
"X.	c #4C4D4D",
"Y.	c #535454",
"Z.	c #525352",
"`.	c #505150",
" +	c #4B4C4C",
".+	c #4A4B4A",
"++	c #484848",
"@+	c #515352",
"#+	c #505153",
"$+	c #484949",
"%+	c #4C4C4E",
"&+	c #5C5C5F",
"*+	c #5C5C5E",
"=+	c #4F4F50",
"-+	c #565657",
";+	c #575757",
">+	c #535353",
",+	c #565859",
"'+	c #49494B",
")+	c #626363",
"!+	c #5F6061",
"~+	c #5E5F61",
"{+	c #4F4F51",
"]+	c #5A5A5C",
"^+	c #5D5D5F",
"/+	c #5F5F61",
"(+	c #525254",
"_+	c #59595A",
":+	c #5C5C5D",
"<+	c #5C5E5F",
"[+	c #515153",
"}+	c #5E5E60",
"|+	c #535355",
"1+	c #5D5F5F",
"2+	c #4F5052",
"3+	c #5C5D5E",
"4+	c #5A595B",
"5+	c #606061",
"6+	c #5D5D5E",
"7+	c #545554",
"8+	c #5B5A5D",
"9+	c #524C62",
"0+	c #4A4162",
"a+	c #4A4262",
"b+	c #56565D",
"c+	c #5A5D5C",
"d+	c #585859",
"e+	c #4A445A",
"f+	c #433A73",
"g+	c #3F3D89",
"h+	c #3F4191",
"i+	c #3E377E",
"j+	c #423A73",
"k+	c #4F4B5F",
"l+	c #4F4959",
"m+	c #3F3D88",
"n+	c #3F3E8C",
"o+	c #4A4564",
"p+	c #56555A",
"q+	c #403A7A",
"r+	c #413A7B",
"s+	c #57565A",
"t+	c #403774",
"u+	c #3F3F8D",
"v+	c #4A4360",
"w+	c #525353",
"x+	c #585A5C",
"y+	c #4D485A",
"z+	c #3F3E8B",
"A+	c #3F3676",
"B+	c #5C5B5C",
"C+	c #535255",
"D+	c #423871",
"E+	c #3F4190",
"F+	c #3F408F",
"G+	c #3E367C",
"H+	c #3E377D",
"I+	c #3F367A",
"J+	c #555659",
"K+	c #4C4E4D",
"L+	c #514F53",
"M+	c #3E357A",
"N+	c #3D3172",
"O+	c #3C255D",
"P+	c #3E3880",
"Q+	c #3D3071",
"R+	c #3C2155",
"S+	c #3C2963",
"T+	c #3D2A65",
"U+	c #3F3C88",
"V+	c #3D3171",
"W+	c #3E3A83",
"X+	c #3F4090",
"Y+	c #4A435B",
"Z+	c #4D4F4E",
"`+	c #565858",
" @	c #484A49",
".@	c #4B4B4C",
"+@	c #49494C",
"@@	c #3C265E",
"#@	c #3C2760",
"$@	c #3C2862",
"%@	c #3C265D",
"&@	c #3F3F8E",
"*@	c #4A425A",
"=@	c #474948",
"-@	c #545657",
";@	c #4A4B4B",
">@	c #4D4E4F",
",@	c #656564",
"'@	c #646566",
")@	c #636465",
"!@	c #616264",
"~@	c #5F6062",
"{@	c #544E60",
"]@	c #4F4560",
"^@	c #3D3274",
"/@	c #3E3478",
"(@	c #473F58",
"_@	c #515152",
":@	c #626365",
"<@	c #533F6E",
"[@	c #4C2372",
"}@	c #463280",
"|@	c #3C255C",
"1@	c #3D3070",
"2@	c #4A4259",
"3@	c #696969",
"4@	c #535354",
"5@	c #626465",
"6@	c #626364",
"7@	c #616263",
"8@	c #606062",
"9@	c #5B5766",
"0@	c #4E2B71",
"a@	c #45256B",
"b@	c #3C2156",
"c@	c #41215F",
"d@	c #48236C",
"e@	c #3D2158",
"f@	c #4E4559",
"g@	c #4C4C4D",
"h@	c #575656",
"i@	c #585461",
"j@	c #4D2B70",
"k@	c #452266",
"l@	c #422260",
"m@	c #4B2370",
"n@	c #49236D",
"o@	c #3E2159",
"p@	c #3D2155",
"q@	c #64445B",
"r@	c #6F595E",
"s@	c #5F5A5C",
"t@	c #4D4F4F",
"u@	c #544F68",
"v@	c #7C356F",
"w@	c #592771",
"x@	c #4A2673",
"y@	c #3B3773",
"z@	c #3E215A",
"A@	c #4C2557",
"B@	c #974064",
"C@	c #D88187",
"D@	c #DFA19D",
"E@	c #9C626C",
"F@	c #4C4E4E",
"G@	c #7B5466",
"H@	c #C46476",
"I@	c #683774",
"J@	c #343B75",
"K@	c #252663",
"L@	c #311A5A",
"M@	c #3D275C",
"N@	c #3C2256",
"O@	c #3D225E",
"P@	c #492456",
"Q@	c #A54A68",
"R@	c #EEA29D",
"S@	c #F8D1C0",
"T@	c #B17B80",
"U@	c #575758",
"V@	c #615B5F",
"W@	c #B26571",
"X@	c #EB8F91",
"Y@	c #6D5B8A",
"Z@	c #2A2A65",
"`@	c #46457E",
" #	c #311C5E",
".#	c #443D75",
"+#	c #515D9D",
"@#	c #45427A",
"##	c #41366C",
"$#	c #403267",
"%#	c #554BA1",
"&#	c #514988",
"*#	c #B46E7B",
"=#	c #EE9191",
"-#	c #E69C99",
";#	c #9B6F73",
">#	c #5A5A5B",
",#	c #655A5E",
"'#	c #C56E79",
")#	c #C087A6",
"!#	c #646D94",
"~#	c #5F6497",
"{#	c #5D51C1",
"]#	c #4C499D",
"^#	c #5E71B4",
"/#	c #7686BF",
"(#	c #586BB1",
"_#	c #6173B5",
":#	c #586CB2",
"<#	c #5A57BD",
"[#	c #8D91B1",
"}#	c #7174A0",
"|#	c #E98E90",
"1#	c #A25C6A",
"2#	c #8A5663",
"3#	c #B57FA2",
"4#	c #60626F",
"5#	c #6E72B5",
"6#	c #565DB7",
"7#	c #6F80BB",
"8#	c #566AB1",
"9#	c #5468B0",
"0#	c #7686C0",
"a#	c #6873BC",
"b#	c #5F599B",
"c#	c #6B6E90",
"d#	c #A85F87",
"e#	c #6C5B61",
"f#	c #665C69",
"g#	c #5F68BA",
"h#	c #6B7CBA",
"i#	c #6778B8",
"j#	c #7A84C4",
"k#	c #6D70BC",
"l#	c #646C93",
"m#	c #5A5E69",
"n#	c #4F5051",
"o#	c #6C71B5",
"p#	c #6678B8",
"q#	c #6274B6",
"r#	c #515254",
"s#	c #6C70B3",
"t#	c #7383BE",
"u#	c #7080BC",
"v#	c #6B6EBC",
"w#	c #4B4A59",
"x#	c #4D4E50",
"y#	c #56585A",
"z#	c #595B59",
"A#	c #666DA0",
"B#	c #6065BC",
"C#	c #697AB9",
"D#	c #7C8CC2",
"E#	c #747AC4",
"F#	c #6266AA",
"G#	c #29195E",
"H#	c #425061",
"I#	c #525454",
"J#	c #575957",
"K#	c #4B4D4C",
"L#	c #82586E",
"M#	c #7564B7",
"N#	c #555CB6",
"O#	c #6875BB",
"P#	c #7483BF",
"Q#	c #747EC3",
"R#	c #776CBD",
"S#	c #68507F",
"T#	c #232E67",
"U#	c #346290",
"V#	c #475567",
"W#	c #5F4A4B",
"X#	c #B22D37",
"Y#	c #B44965",
"Z#	c #927EB0",
"`#	c #7869BA",
" $	c #5F54C2",
".$	c #8876B4",
"+$	c #B15171",
"@$	c #8E2A51",
"#$	c #32628F",
"$$	c #5272A1",
"%$	c #285F8C",
"&$	c #586279",
"*$	c #4B4D4D",
"=$	c #474848",
"-$	c #8B494D",
";$	c #BE2633",
">$	c #BA384D",
",$	c #B7425C",
"'$	c #BC2F40",
")$	c #B83C52",
"!$	c #5B77A7",
"~$	c #7788BC",
"{$	c #7783AE",
"]$	c #5C5D60",
"^$	c #5E605E",
"/$	c #5D5F60",
"($	c #8B4A4E",
"_$	c #C54047",
":$	c #C7474D",
"<$	c #C6454B",
"[$	c #D05D60",
"}$	c #E38081",
"|$	c #DA7E81",
"1$	c #677498",
"2$	c #7382B1",
"3$	c #7C89B9",
"4$	c #727DA4",
"5$	c #6E5457",
"6$	c #88464A",
"7$	c #AF6D6F",
"8$	c #E3898A",
"9$	c #E28788",
"0$	c #D87274",
"a$	c #C66B6D",
"b$	c #BC7879",
"c$	c #E18181",
"d$	c #D16063",
"e$	c #C85F62",
"f$	c #5B4C51",
"g$	c #752847",
"h$	c #9E525F",
"i$	c #BD6B72",
"j$	c #735A5B",
"k$	c #AE373E",
"l$	c #B72F39",
"m$	c #584F52",
"n$	c #71324A",
"o$	c #894248",
"p$	c #BC2634",
"q$	c #BB2634",
"r$	c #B62C37",
"s$	c #755455",
"t$	c #515353",
"u$	c #67454F",
"v$	c #8C2743",
"w$	c #962841",
"x$	c #8E2843",
"y$	c #892943",
"z$	c #93484B",
"A$	c #4F504F",
"B$	c #505253",
"C$	c #5F4D54",
"D$	c #6D3D4E",
"E$	c #713E4D",
"F$	c #78374A",
"G$	c #694D53",
"H$	c #5F5959",
"I$	c #68424F",
"J$	c #70334A",
"K$	c #70354B",
"L$	c #605258",
"M$	c #555759",
"N$	c #4A4C4C",
"O$	c #4B4C4D",
"P$	c #494B4B",
"Q$	c #555758",
"R$	c #535453",
"S$	c #595B5D",
"T$	c #494B4A",
"U$	c #525356",
"V$	c #535457",
"W$	c #484948",
"X$	c #525253",
"Y$	c #616163",
"Z$	c #555557",
"`$	c #545456",
" %	c #4D4D4F",
".%	c #555556",
"+%	c #686868",
"@%	c #565658",
"#%	c #565558",
"$%	c #535254",
"%%	c #505051",
"&%	c #57595B",
"  . + @ @ # # $ % & & * = - ; @ > , , ' ) ! ~ { { . ] ^ / ( _ : ;   < < [ } } } } { | * 1 2 3 4 5 6 7 8 9 9 9 8 2       0 a b c ",
"d e ) f # f f f g h h g i j k l l m l l d d n ) o p o q - = r s t u v m l d w > x ) g y z A B C D E B } [ [ B F [ [ [ G G H I - ",
"n ~ * * E E E J J J K L M N O ~ ~ ~ ~ | | | | * * E J P Q J R S R g & ~ | ~ | | * E E J T U V W ; X * < < < F Y Z `       2  .Q ",
"g | * * E J J J J J ..K +.@.& | | * * * * * * E E J ..#.= * $.$.y ~ | | * * * E J J J J T a V W P ~ o . } [ %.%.Y <       &.*.= ",
"% | B =.E -.J J T T ..K @.@.;.| | * [ * * * B E E J J #.= * n & | | | * * * E E J J J J T a >.,.; n ! [ [ [ %.Y Y <     ` &.I _ ",
"} '.< < <       2 2 2 U ).b !.~ * [ [ [ [ '.< E E J J #.= | g | | | * * * * J E J J J ....2 9 ~.3 + {.< [ [ Y Y Y       Z ].^./.",
"[ < < <         2 2 8 (.).b z ~ * [ [ [ [ < < _.J ....P = * g | * * * * * E E E J J ....:.8 9 <.[.}.. < < < Y Y 0 <     Z a ^.|.",
"<   < <   ` ].T &.U 1.(.).b A 2.{ [ [ [ B G ` T 1 ....3.4._.y | 5.* =.B B _._._.T T :.:.6.8 9 <. .q ] < < < Y Z Z &.&.T a 7.b |.",
"          Z Z a a a 7.7.b 8.9.. [ < < < Y Y Z &.2 2 2 [.0.T r | | [ < < <       2 2 2 8 8 9 [.a.b.% 2.<     Z Z Z a a a a a b c.",
"  2 2 2 2 H d.e.e.f.V V b W _.. < < <   ].g.d.&.2 8 8 [.h.6.% * * < < <       2 2 2 2 9 9 [.3 i.j.% k.    2 a Z Z a a 7.a 7.^.l.",
"T 1 2 8 8 1.m.1.>.n.o.^.b p.` [   < < 2 2 H &.:.8 8 8 3 q.r.& * E   <   2 2 2 8 8 8 9 9 9 [.b.h.D & * 2 8 8 1.1.7.7.7.7.V V b s.",
"t.#.8 8 8 8 8 9 9 [.[.I 8.u.U         2 2 2 8 8 8 9 9 v.w.i.J E E   < 2 2 2 2 8 8 8 9 [.3 : = ( _ ..; 8 9 n.9 9 9 V V V V V x.( ",
"Q j.y.3 3 3 3 3 z.z.z.A.B.C.D.8 1.2 :.8 8 9 8 8 9 E.z.h.F.G.P ....2 2 2 8 3.[.3 3 3 z.<.H.Q 6 / / i.I.3 3 3 3 3 J.8.8.8.8.8.K.L.",
"_ G.H.M.0.N.N.O.N.N.0.P.Q.Q.R.S.~.,.,.T.,.7 T.J.,.U.K.V.W.X.Y.: b.3 3.*.I.Z.`.h./.l.q. +.+/ 5 ++/ _ 4.@+a.a.Y.<.Y.p.W W u.#+R.$+",
"g ~ <     ].a a a 7.a L @.%+V.@.&+Y Y Y Y Y Y *+L U M @.=+|.-+;+E E J J ..P j.D >+i._ c / / 5 ++c >+7 z.3 3 ,+I b b V V b b u.'+",
"R n )+{.. !+~+%.%.%.Y Y M {+]+^+/+~+%.Y Y Y Y Y *+*+]+M (+_+:+E E E E J J J ....#.#.P : Q 6 - 5 6 ~ f {.} < <+%.a Z Z a a a ^.%+",
"$.r }.. . ~+~+%.%.%.Y ^+]+[+i 9.}+%.%.Y Y Y Y Y *+*+L M |+:+| E * E E E J J J ......#.t.3.;+: c.>+f ] 1+1+F Y Z Z Z Z a a a ^.2+",
"n q . . } ~+~+%.%.%.Y F ..= B [ [ F %.Y Y Y Z Z Z a Z ]+|+^+~ E E E E E J J T 2 2 2 8 9 9 [.z.0.D r | %.%.%.Y Y Y Z Z Z 7.a ^.C.",
"g ~ 2.} } 9.~+%.%.%.Y B ..Z.[ [ < 3+Y Y Y Y Z Z Z a a 4+|+i 5+* E E E E J J 1 2 2 2 8 9 9 z.v.`.>+r { %.Y Y Y Y Z Z Z a a 7.,+P.",
"% ~ ~ { } } 9.%.%.%.Y 6+..Z.[ [ < G Y Y Y Y Z Z Z a U M |+i & * =.< E E J J 1 2 2 1.1.n.r.C 7+`.>+r i %.Y Y Y Y Z Z Z a a a ^.O.",
"~ | ~ * * [ [ 1+Y Y Y _.#.= =.< < < < <       &.2 2 :.P >+8+9+0+0+a+b+7.c+c+  2   1.7.f.@.: D 6 >+% i %.Y Y Y Z Z Z Z a a a I H.",
"| * * * * [ [ < Y Y Y _.#.4.=.< < <         2 2 2 8 6.d+e+f+g+h+h+h+i+j+k+&.2 8 2 1.f.V N D D 6 >+& 6+Y Z Z Z Z Z a a a 7.7.).6 ",
"E | * * * [ [ < Y Y Y _.#.4.=.< <           &.2 2 8 8 l+m+h+h+h+h+h+h+h+n+o+2 8 8 t.V o.x.D D 6 >+& 6+Y Z Z Z Z Z a a a 7.7.)._ ",
"E y { [ < Y Y Y Y Y Z ` 9 M.<   2 2 2 2 a a a 1.8 8 p+q+h+h+h+h+h+h+h+h+h+r+s+8 9 9 [.3 <.>+>+6 = & 3+Z Z Z Z Z a 7.7.7.7.V x.G.",
"E y { < G Z Y Y Z Z a T 9 0.    2 8 8 2 U e.a 1.8 n.t+h+h+h+h+h+h+h+h+h+h+u+v+8 8 3 v.<.w+= >+6 6 O ].a a a a a 7.a 7.V V V 8.G.",
"J E <     Z Z Z Z a a &.9 h.8 2 1 8 8 9 8 x+>.r.[.y+z+h+h+h+h+h+h+h+h+h+h+h+A+D.9 9 n.E.<.Z.w+6 _ ~ T a a a a 7.7.V V V V V 8.G.",
"J B+      Z Z Z a a a 2 [.h.Z.;+3.3.[.[.[.;+;+j.C+D+E+h+F+n+h+E+G+H+u+h+u+h+I+J+9 D.^.^.K.i.@+0._ ~ U 7.7.7.7.7.7.V V V ^.^.8.h.",
"..T       ].Z Z a 7.7.(.3 K+q.c.6 H.M.@+4.Q >+D L+M+h+h+N+O+P+Q+R+S+T+U+V+W+X+Y+9 [.b ^.W a.@+l.( ..; V V V V V V V V ^.b b p.Z+",
"7+y.`+x.3 b b b b W W U.0. @/.Q Q G.G.h./.s. +.@+@M+h+g+@@R+R+R+R+R+R+#@$@%@&@*@3 y.8.T.U.<.0.=@5 c.>+W U.W W W W 8.8.-@W p.C.;@",
"a.T Z Z Z Z Z Z Z a a 7.x.>@5+y ,@'@'@)@!@~@7.{@]@M+h+^@R+R+R+R+R+R+R+R+R+R+/@(@= Q _@Q _ - 5 ++c = ^ J * 6+3+Z a 7.V ^.^.b [+5 ",
"2 [ %.%.%.%.%.Y %.Y Y Y ]+(+~ r r )@:@:@:@:@!@<@[@}@z+|@R+R+R+R+R+R+R+R+R+R+1@2@;+;+;+j.D Q  +5 D $.s R 3@n '@:@~@~+%.Y Y Z M =+",
"[ [ %.%.%.Y Y Y %.Y Y *+]+4@5+r !.)@5@:@6@7@8@9@0@[@a@b@R+c@d@e@R+R+R+R+R+R+R+f@B E :+6+K #.y.g@h@$.e )+| 2.9.F 3+Y Y 3+Z Z V |.",
"} [ %.%.%.%.%.Y Y Y Z ].#.= * | | { { [ B < _.` i@j@[@k@l@m@n@o@R+R+R+R+R+R+p@q@r@s@7.7.7.@.b 2+^ n }.[ [ [ [ [ < < < =.Z Z V t@",
"[ [ %.%.Y Y Y Y Z Z Z T #.Q * * * [ [ < < <       u@v@w@x@y@z@R+R+R+R+R+R+A@B@C@D@E@7.V V V b #+^ % } [ [ [ < < < [ < ` Z Z V F@",
"} [ F %.Y Y Y Y Z Z Z T P 6 * * * * [ < < <       G@H@I@J@K@L@R+M@N@R+R+O@P@Q@R@S@T@7.V V V b O.U@% { [ [ [ < < < `   ` Z Z V F@",
"=.* < < < ` ` ` Z Z a :.P 6 * * * B < < < <   ` V@W@X@Y@Z@`@ #.#+#@###$#%#&#*#=#-#;#8 8 E.E.y.M.y.{.[ [ < < 3+Y g.g.g.Z a a ^.X.",
"E E <   <       ].a a >#P c.* E * =.< < < <   &.,#'#)#!#~#{#]#^#/#(#_#:#<#[#}#|#1#8 8 9 9 [.z.M.z.} < [ < < Y Z Z Z Z a a a V g@",
"..B+            a a a :.^ c.* * E E <     T   &.a 2#3#4#5#6#7#8#9#9#(#0#a#b#c#d#e#8 9 9 9 3 v.M.C } _.< < < Z Z Z Z a a a 7.V w.",
"#.........2 2 2 2 2 8 8 [.Z+< [ <       ].a a a 7.M f#%.5#g#h#9#9#9#9#i#j#k#i l#m#9 [.[.E.8.p.n#= | _.Z Z Z Y Z Z Z a a 7.a ^. +",
"^ #.......2 2 8 8 2 9 9 [.Z+9 <   2 2 2 U 7.a 7.V V n.[.o#g#p#9#9#9#9#q#j#k#B 8 9 9 [.[.`+p.r#R.Q ~ _.Z Z Z a Z a 7.a 7.7.7.o.X.",
"j.#.#...#.2 2 8 8 8 9 9 3 K+`.8   2 2 2 1.7.7.7.V V I <.s#g#t#9#9#9#9#u#j#v#w#<.<.<.b.3 `+p.r#x#_ | :+Z Z Z a a a a a 7.7.7.y#X.",
"= ^ j.P ^ 8 8 8 8 9 3. .>+( c.b.6.:.2 2 2 8 9 z#[.`+a.( A#B#/#C#:#:#C#D#E#F#G#H#=+6 >+I.7 I#S.Z+l...:.Z a a a a 7.7.7.7.V V y# +",
"_ >+D : : b.3 3 3 v.@+Q ( c - = ;+r.9 9 9 9 [.J#z.@+K#5 L#M#N#O#P#P#P#Q#R#S#T#U#V#=+_ _ Q Z.M. +( : t.7.7.7.7.7.7.V V V V ^.8.4 ",
"b.^ d+r.^ 9 9 [.*.z.M.l.c c 6 >+D Y.Y.Y.Y.I#w+@+M.0./.W#X#Y#Z#`# $ $ $.$+$@$#$$$%$&$>+i.4.0.*$4 - >+7 T.8.W 8.8.8.W W 8.p.u.#+=$",
"< 2 (.U ].0 Z ].a U 1.;+6 - *.    ` H a a a 7.V D.o.^.-$;$;$;$>$,$,$,$'$;$)$!$%$~${$D.I x.W Q.W.]+i ^+]$Y Z Z Z a a a 7.7.V b $+",
"} ^$/$%.Y Y Z Y Y a a _+D _ 2 < &.H a Z Z a a 7.7.a 7.($;$_$:$<$;$;$[$}$}$|$1$2$3$4$V V V Z W %+L *+*+Z Y Z Z Z a a a 7.7.7.).X.",
"} } ~+~+%.%.%.Y Z Y Z >#;+6   <   ].Z a a a a 7.7.a V 5$6$7$8$9$0$a$b$c$d$e$7.7.7.7.V V (.~+^.R.^+*+*+Z Z Z Z Z a a 7.7.7.V ^.s.",
"| | %.%.%.%.%.%.Y Y 7.8 *.M.T < 2 U a a a a a 7.7.7.V V u.f$g$g$h$i$j$k$;$l$1.7.7.7.V V V 6+-+/._.    Z Z Z Z Z a a a V 7.7.^.s.",
"* | %.%.%.Y Y %.Y Y (.n.`+M.    2 U a a 7.7.7.7.7.7.V V u.m$n$g$g$g$o$p$q$r$s$7.7.7.V V D.*.: /.<   ` Z Z Z Z Z a a a V 7.V b s.",
"| * %.%.%.Y Y Y Y Y 7.n.3 0.2   2 U a a a 7.7.7.7.7.V ^.r#t$u$g$g$g$v$w$x$y$z$7.7.7.V ^.I ;+C A$<   ` Z Z Z a a a 7.7.7.V V b - ",
"{ [ [ B G 3+Y Y Z Y V E.z.0.2 2 8 U a 7.7.7.7.7.V V ^.^.r#B$C$g$g$g$D$E$F$G$H$V V V V ^.^.b A.P._.  ].a a a a a 7.7.V V V V b X.",
"} [ [ [ < Y Y Y Z Z o.*.z.0.2 2 8 U a 7.7.7.7.7.V V b b #+#+I$J$K$K$L$>.[.9 n.V V V V ^.b M$p.P.<   T a a a a a 7.7.V ^.^.^.8.*$",
"} < < < < Y Y Z Z Z ^.`+v.h.8 2 8 (.7.7.V V V V V ^.b x.2+2+u.W V 7.V 1.`+9 n.V ^.^.^.b b W u.C.< 2 &.a 7.7.7.7.7.V V b ^.^.8.N$",
"} <       Z Z Z a a ^.x.v.Z+9 2 8 (.V V V V V V ^.^.N 7 |.O$Q.#+^.V 7.>.b D.D.r.*.*.*.`+J.: w+_ J :.:.8 8 8 1.n.n.E.[.E.b b W P$",
"< 2       Z Z Z a a b y.<.K#3 9 [.D.D.^.^.^.b b b b T.w+/ L.C.r#W b b 8.8.8.Q$z.7 v.v.~.R$= 6 - #.P t.; 9 9 9 9 [.[.[.&.8.W u.=@",
"<     T 2 ].a a S$S$b J.@+T$M.@+a.U.W p.p.p.p.u.u.r#[+- 5 O$%.%.x.p.U$p.V$W U.v.Y.w+0.h.A$_ ( / - >+;+3 3 z.z.z.z.z.z.T.x.8.8.F@",
"R$I.I.z.*.r._+>#..:.j A$ +W$A$*.1 T a a a a Z a a a ]+@.X$=+_+6+].&.1.1.>#>#>#(.(.y.Y.R$R$4@=+.@=+% r % z q q q q & q z Y$Y$!@(.",
"P ....J T ..#.......P ;+= 5 ^ ....U a a a Z a a a 7.]+M (+=+P J -.  2 2 ....:.7.7.t.j.: : Z$`$ %P 3@~ * E E E E E E E E *+*+L |+",
"..E J J J J ........#.#.^ Q #.....].Z Z Z a a a a a a 7.|+_@E J         ..#.>#a 7.1.^ .%.%Z$Z$X$E $.| E E E E E J J J J L L M (+",
"            T 2 U U 7.V @.V.r.2 1   ` &.&.&.&.&.U m.]+]+`$4@@ [           1 2 &.1.(.N 8.Z$Z$Z$4@* $.| E E E < < <       K ..#.= ",
"              2 U a 7.V ^.V.I #   <   2 2 2 2 2 2 8 (.7.`$K.@ [ <         2 2 2 8 t.V 8.8.Z$Z$(+* +%| E E E < < <       ..#.P = ",
"        2 2 2 2 m.V V ^.^.#+E.{.    2 2 2 2 2 2 2 2 D.M `$C {.[           2 2 2 8 8 f.b W @%#%$%* +%| E E E < < <     2 J #.P = ",
"8   2 2   &.U U 7.7.V V b 2+d+{ T 2 2 2 2 2 2 2 m.1.V V p.I#<           ].U U m.1.(.V b 8.@%@%4@* +%| E E E -.-.-.    2 K U _+%%",
"8   2 2   H a a 7.7.V ^.b 2+d+....2 2 2 2 2 2 :.7.7.>.&%u.K.<           Z a a 7.7.(.V b 8.@%@%4@* +%| E E E J J J     2 a a M %%"};
