/* XPM */
static char * up_1_xpm[] = {
"64 64 45 1",
" 	c #4A4A4A",
".	c #464646",
"+	c #3E3E3E",
"@	c #393939",
"#	c #414141",
"$	c #4C4C4C",
"%	c #505050",
"&	c #525252",
"*	c #4B4B4B",
"=	c #484848",
"-	c #3F3F3F",
";	c #3B3B3B",
">	c #404040",
",	c #444444",
"'	c #4E4E4E",
")	c #515151",
"!	c #4F4F4F",
"~	c #494949",
"{	c #424242",
"]	c #3C3C3C",
"^	c #434343",
"/	c #4D4D4D",
"(	c #454545",
"_	c #3A3A3A",
":	c #474747",
"<	c #3C2155",
"[	c #3F4191",
"}	c #3D3D3D",
"|	c #383838",
"1	c #4C2372",
"2	c #B14869",
"3	c #4C4E71",
"4	c #005784",
"5	c #EE9191",
"6	c #F9D7C5",
"7	c #28155D",
"8	c #5468B0",
"9	c #502CC1",
"0	c #6B7BBB",
"a	c #8190C5",
"b	c #5E5E5E",
"c	c #B1B1B1",
"d	c #313967",
"e	c #BE2633",
"f	c #752847",
"   .+@@@@@@#$%$$%&&%$    $%&&$#@@@@@@+.$%%$$%$#@@#$&&&&%$  .+#$&",
" *$=-;-##>#, $$')&)!$*$$$'))'~{->##-;]^ !)''!*>@@>*)&&&%$*$=-#$&",
" $'*>-=$//$~,($)&)'$*$'%%))'.{,=*/$=-_],/&)!/=-@@-=')&&%$$'*>#$&",
"$')$#> %&&&$#>*!/*:..=*$$$$<<<<<<<&'.-;-=$$*=^]@@]^=*$$*==*:->$&",
"%)&$#-=')&&$>-=~,>+++->##<<[[[[[[[<<<=-;+##>-}_@@_}->##>-->-;#$&",
"&&)*>-=')&&$#}^({##>--><<[[[[[[[[[[[[<<_]->-;_}->####>-}_;-##(/%",
"&)'=->*%&&&$#_]{~$$*==<[[[[[[[[[[[[[[[[<^=*=-]^=*$$$$*={]-=$/$$$",
"$*={]#$&))&/#@@>*%%!/'<[[[[[[[[[[[[[[[[[<')$#-=')&&&&%$.+-=$$*=.",
"#>-]_#$)''%$#@@-=$//!<[[[[[[[[[[[[[[[[[[<)&$#>*)&&&&&%$.+;-##>-+",
"#####,~*==*=-@|]^..=<[[[[[[[[[[[[[[[[[[[[<%*>#$&&&))))'=-@@_}->#",
"$$$$$ ,>+->-;@@_}++<[[[[[[[[[[[[[[[[[[[[[<$=-#$&&%''%&)*>@|]^=*$",
"%)))' ,#>######-;;-<[[[[[[[[[[[[[[[[[[[[[[<=-#$&)'$$%&&$#@@-=')&",
"$')'.,~$$$$$$/$=--<[[[[[[[[[[[[[[[[[[[[[[[<*>#$)'$ $%&&$#@@>*)&&",
"$')$##$&&)%%)&&$##<[[[[[[[[[[[[[[[[[[[[[[[<$##$%$ $')&&$#@@>*)&&",
"%))$>>$&&)'')&&$#<[[[[[[[[[[[[[<<[[[[[[[[[<$##$%$$')&&&$#@@-=')&",
"$$$=->*)&%''%&&$#<[[[[[[<<[[[[<<<[<[[[<[[[[<>#$)'')&)%%*>@|]^=*$",
"###-;-=')))%)&&$#<[[[[[<<<<[<<<<<<<<[[<<[[[<-#$)))&)'$$=-@@_}->#",
"###-;+.$%&&&&&&$#<[[[[[<<<<<<<<<<<<<<[<<<[[<>{~$$$$*=..,>->##>-+",
"$$$=-+.$%&&&&&&$#<[[[[<<<<<<<<<<<<<<<<<<<[[<,({####>-++>,=*$$*=.",
"%%%*>-=/!)&&&&&/><[[[[<<<<<<<<<<<<<<<<<<<<[<~~,-;;-####,~/!)&)'$",
"$/$=->*!/'%&&&111<[[[<<<<<<<<<<<<<<<<<<<<<[<!!/=++=$$$$/!!/')&)%",
"$$*.+-=*==*$$$1111[[[<<<<<<<<<<<<<<<<<<<<<[<&&&$#>*)&&))&)'')&&&",
"%!$.+;->-->##>11111[<<<<<<<<<<<<<<<<<<<<<<<<&&&$#-='))'')&)%)&&&",
"$$$~,########>-11111<<<<<<11<<<<<<<<<<<<<<<<&&&$#}^=**==*$$$$$$$",
"#($!'$$$$$$$$ = 11111<<<<1111<<<<<<<<<<<<<<<&&&$#_]->>-->#######",
"@#/&&&))&&))&)'')11111<<1111<<<<<<<<<<<<<<<<$$$=+@@;->-->####>-+",
"@>$&&)''))'')&))&$111111111<<<<<<<<<<<<<<<<2222-;@@-=*==*$$$$*=.",
"@-=$$*==**==*$$$$~31211114<<<<<<<<<<<<<<<2255652#-;#$%$$'%%)&)'$",
"@;-##>-->>-->####,322111477<<<<<<<<<<<<<<2256662$=-#$%/*$$$')&)%",
"@_}++++->>-->>-]_-2251147777<<<<<<<<<<<<<<255662)*>#$%/*$$$/!%%%",
"@}^....=**==**=^];2551477777<<<8<<<<<<9<<<555562'=-#$%$$'%%!/$$$",
"@+.*$$$'))'/!!/=-25550777a7<<8888<<8<<a90<55552*={]-=*==*$$*=...",
"@+.$!%%)&&)!/'!*>25500b7a99<88aa8888889ac0d552#>-}_;->-->##>-+++",
"@]^=*$$$$$$*==*=-;250bba99888a8888aa8899bc0552>######>-}__}->###",
"@_}->######>-->-;-250bba988a88888888aa89bb022=*$$$$$$*=^]]^=*$$$",
"#>-}_@@@@@@@@;--;+=20bba98aa88888888aaa9abb00$%&&&&&)!/=-+.$%&&&",
"$*=^]@@@@@@|@-==-;-##bba98a8888888888aa9abbb0$%&&&&)''!*>+.$%&&&",
"&)'=-_]->##+;>*$(##>--ba98a8888888888aa9abbb'')&&&)!$/%$#-=')&)%",
"&&)*>}^=*/$=--=$/$$ ==*a98a8888888888aa9abb&)))&&)'$ $%$#>*)&)'$",
"$$$=--=')&&$#-=')&)!$$%a98a8888888888aa9ab$$$$$$$*=..=*=-+=$$*=.",
"###-;>*)&&&$#> )&)'$*$%a98aa88888888aaa9a7#######>-++->-;;-##>-+",
"#>-]_#$&)))$#-=$/*=..=*a98aa88888888aaa9a77}__}->-;@@_}->#######",
"$*={}#$)''%$#;-##>-++->>a98aaa8888aaaa9a7774]]^=*=-@@]^=*$$$$$$$",
"%!/=->*'$$%/#@|@@@@;->--a9888aaaaaaaaa9a77744-=')$#@@-=')&))&&)%",
"$'!*>-=$*$%$#@|@@|@-=*=eea999888888899ae7744a4*)&/#@@>*)&)''))'$",
".=*=--=$$$$ ,##>-->, $/eeeaaa9999999aaee744a444)&$#@|+=$$*==**=.",
"+->-;>*%%$(,~$/*==*~,(eeeeeeeaaaaaaaeeeee4a444aa)$#@@;-##>-->>-+",
"+->-;>*)&$#>*)&%$$'*>-eeeeeeeeeeeeeeeeeeea444aaa!*>;+##>-++}_;-#",
".=*=--=')$#+=')%$*$=-;eeeeeeeeeeeeeeeeeeea44aaaa/=--=$$*=..^]+=$",
"$/!*>+.$!*>+.$%)'$$=-_eeeeeeeeeeeee555555#aaaaaa$.+#$&&%$*$=-#$&",
"%!/=-+.*$=-+.$%))%%*>}eee55555eeee5555555$$=-#$%$.+#$&&%$$!*>#$&",
"&)'=--=$*.+-=')&&&%*>-=$*$5555555))55eeee))$##$)'=->*)&)''%$#>*%",
"&&%*>>*!$.+>*)&&&)'=->*!$$fffff555)&eeeee')$##$&)*>-='))))&$#-=$",
"&&&$##$)'=-#$&))))'=-#$)''ffffffff%&eeeee')$#>*)&$#-=/!%&&&$#-=$",
"&&&$##$&)*>#$)''%&) >#$&))ffffffff%eeeeee)&$#-=')$#> !/')&&$#>*%",
"&&%*>-=$$=->*'$$%&&$#-=$$$$fffffff*eeeeeee$~{>,=*=->*!'')&&$##$&",
"&)'=-;-##-;-=$*$%&&$#;+####ffffffffefffffe#{(,>->-;-=/!%&&&$##$&",
"%!/=-;-##-;-=$$')&&$#_]->###ffffffffeeeefe@}^^}@@@@]^=*$$$$=-#$&",
"$/!*>-=$$=->*%%))&&$#}{=*$$$fffffff*ffff@@@_}}_@@@@_}->####+;#$&",
"$')$#> )&$##$&)%%%%*>+:')&)ffffffff!~({##>-->-;@@;-##>-->##+;#/&",
"%)&$#-=')$##$)'$$$$=->*)&)'fffffff&/,{~$/*==*=-@@-=$$*== $$=-#$&",
"$/$=--=')$#-=*=....,{.'&)'$$')&))%%*>>*%%'$$%$#@@#$&)'$$%&&$#-=$",
"###+;>*)&$#;+>-++++{~'))'$  $'))'$$=--=$/$*/%/#@@#/)'$*$%&&/#;+#",
"@@@@@#$&&$#@@@@@@@@#$&&%$    $%%$  .++.    $%$#@@#$%$  $%&&$#@@@"};
