/* XPM */
static char * back_3_xpm[] = {
"64 64 557 2",
"  	c #5B5D5C",
". 	c #5F6160",
"+ 	c #616362",
"@ 	c #626463",
"# 	c #636564",
"$ 	c #626362",
"% 	c #626262",
"& 	c #616161",
"* 	c #5E5E5E",
"= 	c #525252",
"- 	c #4D4D4D",
"; 	c #595A59",
"> 	c #666867",
", 	c #696B6A",
"' 	c #676968",
") 	c #656666",
"! 	c #636464",
"~ 	c #606060",
"{ 	c #5E5F5F",
"] 	c #606161",
"^ 	c #585858",
"/ 	c #4A4A4A",
"( 	c #4C4C4C",
"_ 	c #4F4F4F",
": 	c #555555",
"< 	c #5C5E5D",
"[ 	c #5D5F5E",
"} 	c #5E605F",
"| 	c #5F5F5F",
"1 	c #5B5C5B",
"2 	c #5A5C5B",
"3 	c #565857",
"4 	c #494A4A",
"5 	c #494949",
"6 	c #505050",
"7 	c #555656",
"8 	c #595B5A",
"9 	c #585A59",
"0 	c #5B5D5E",
"a 	c #5A5B5D",
"b 	c #565759",
"c 	c #4B4B4B",
"d 	c #686969",
"e 	c #676868",
"f 	c #646565",
"g 	c #656565",
"h 	c #666666",
"i 	c #5E5E5F",
"j 	c #545455",
"k 	c #696A69",
"l 	c #696A6A",
"m 	c #6A6B6A",
"n 	c #676767",
"o 	c #656665",
"p 	c #646564",
"q 	c #616261",
"r 	c #636363",
"s 	c #6C6C6C",
"t 	c #6D6E6D",
"u 	c #6C6D6D",
"v 	c #6B6C6B",
"w 	c #686968",
"x 	c #656766",
"y 	c #646464",
"z 	c #616262",
"A 	c #606162",
"B 	c #5D5E5E",
"C 	c #545555",
"D 	c #545454",
"E 	c #5D5D5D",
"F 	c #5D5E5F",
"G 	c #5C5E5E",
"H 	c #5A5C5D",
"I 	c #575859",
"J 	c #5C5C5C",
"K 	c #5B5B5C",
"L 	c #5B5B5D",
"M 	c #59595B",
"N 	c #575759",
"O 	c #5F5F60",
"P 	c #595959",
"Q 	c #515151",
"R 	c #6B6B6B",
"S 	c #6D6D6D",
"T 	c #5B5C5C",
"U 	c #5A5B5C",
"V 	c #58595B",
"W 	c #545557",
"X 	c #5E5E5D",
"Y 	c #5C5D5F",
"Z 	c #5B5C5E",
"` 	c #5B5D5D",
" .	c #575857",
"..	c #5B5B5B",
"+.	c #58585B",
"@.	c #58585A",
"#.	c #5A5A5A",
"$.	c #6A6A6A",
"%.	c #5D5E60",
"&.	c #5A5C5C",
"*.	c #575858",
"=.	c #5D5E5D",
"-.	c #5C5D5C",
";.	c #626263",
">.	c #585A5B",
",.	c #545656",
"'.	c #5C5F5E",
").	c #56575A",
"!.	c #636364",
"~.	c #535555",
"{.	c #606261",
"].	c #5B5C5D",
"^.	c #57585A",
"/.	c #4E4F4F",
"(.	c #595A5B",
"_.	c #5C5D5D",
":.	c #5A5B5B",
"<.	c #535554",
"[.	c #575958",
"}.	c #606160",
"|.	c #4E4E4F",
"1.	c #595B5B",
"2.	c #5F6060",
"3.	c #585958",
"4.	c #515251",
"5.	c #5E5F5E",
"6.	c #5A5B5A",
"7.	c #595A5C",
"8.	c #555658",
"9.	c #5E5F60",
"0.	c #4F5050",
"a.	c #58575B",
"b.	c #5F5D61",
"c.	c #4D4563",
"d.	c #4B4263",
"e.	c #4A4263",
"f.	c #4C4661",
"g.	c #59595C",
"h.	c #525453",
"i.	c #565756",
"j.	c #4E4E4E",
"k.	c #5A5B5E",
"l.	c #595A5D",
"m.	c #58595C",
"n.	c #5B5C5F",
"o.	c #47435C",
"p.	c #3E3479",
"q.	c #3F408F",
"r.	c #3F4191",
"s.	c #3F3F8D",
"t.	c #403777",
"u.	c #4D4760",
"v.	c #515252",
"w.	c #565656",
"x.	c #5F605F",
"y.	c #4D4E4E",
"z.	c #595B5C",
"A.	c #585A5A",
"B.	c #57595A",
"C.	c #535456",
"D.	c #4D495D",
"E.	c #3E3B87",
"F.	c #4A435F",
"G.	c #4E504F",
"H.	c #4D4D4E",
"I.	c #595A5A",
"J.	c #525355",
"K.	c #433C6F",
"L.	c #3E3983",
"M.	c #53515D",
"N.	c #565758",
"O.	c #565757",
"P.	c #555756",
"Q.	c #535556",
"R.	c #4F5053",
"S.	c #4E4F51",
"T.	c #58595A",
"U.	c #575959",
"V.	c #4D495B",
"W.	c #3E3B86",
"X.	c #3F397E",
"Y.	c #515057",
"Z.	c #505151",
"`.	c #555655",
" +	c #555757",
".+	c #535455",
"++	c #4A4A4B",
"@+	c #505251",
"#+	c #4F5150",
"$+	c #4F5151",
"%+	c #505152",
"&+	c #4E5051",
"*+	c #4C4D4F",
"=+	c #4E4F50",
"-+	c #505252",
";+	c #555657",
">+	c #545556",
",+	c #423A6B",
"'+	c #3F3F8E",
")+	c #443D62",
"!+	c #4D4E4D",
"~+	c #4B4C4C",
"{+	c #4A4B4A",
"]+	c #484848",
"^+	c #515352",
"/+	c #535454",
"(+	c #505153",
"_+	c #484949",
":+	c #4C4C4E",
"<+	c #515253",
"[+	c #5C5C5F",
"}+	c #5C5C5E",
"|+	c #443B70",
"1+	c #403A7C",
"2+	c #4F4C53",
"3+	c #535353",
"4+	c #565859",
"5+	c #49494B",
"6+	c #626363",
"7+	c #5F6061",
"8+	c #5E5F61",
"9+	c #4F4F51",
"0+	c #5A5A5C",
"a+	c #5D5D5F",
"b+	c #5F5F61",
"c+	c #524D5B",
"d+	c #3F3C87",
"e+	c #3F408E",
"f+	c #3D3274",
"g+	c #3D3173",
"h+	c #3F3D89",
"i+	c #3F3E8A",
"j+	c #3E3880",
"k+	c #3D3376",
"l+	c #3E3A84",
"m+	c #524E59",
"n+	c #5C5E5F",
"o+	c #515153",
"p+	c #5E5E60",
"q+	c #5B5C60",
"r+	c #5B5960",
"s+	c #514B5B",
"t+	c #3F3E8B",
"u+	c #3D2C69",
"v+	c #3D2B67",
"w+	c #3C2155",
"x+	c #3C2962",
"y+	c #3D3172",
"z+	c #3C2359",
"A+	c #534F59",
"B+	c #575757",
"C+	c #5D5F5F",
"D+	c #4F5052",
"E+	c #544569",
"F+	c #4C2372",
"G+	c #41215F",
"H+	c #3D2D6B",
"I+	c #3C2256",
"J+	c #525059",
"K+	c #525352",
"L+	c #5C5D5E",
"M+	c #554B67",
"N+	c #4C2572",
"O+	c #433179",
"P+	c #40225D",
"Q+	c #3C2156",
"R+	c #3D2F6E",
"S+	c #545655",
"T+	c #505150",
"U+	c #5D5D5E",
"V+	c #6A5A60",
"W+	c #CD9999",
"X+	c #8D718A",
"Y+	c #4B2371",
"Z+	c #422160",
"`+	c #452267",
" @	c #442263",
".@	c #3E3B85",
"+@	c #585959",
"@@	c #545554",
"#@	c #925665",
"$@	c #F3C6B8",
"%@	c #E8A19D",
"&@	c #8D517A",
"*@	c #49236C",
"=@	c #492A73",
"-@	c #462367",
";@	c #3D2156",
">@	c #3D2F6F",
",@	c #403B80",
"'@	c #54535A",
")@	c #8C5864",
"!@	c #E9ADA6",
"~@	c #ED9090",
"{@	c #C87C87",
"]@	c #4C3272",
"^@	c #462D74",
"/@	c #293C72",
"(@	c #3A2156",
"_@	c #3C275F",
":@	c #463B5D",
"<@	c #995064",
"[@	c #E4888B",
"}@	c #8A5D75",
"|@	c #424172",
"1@	c #283B72",
"2@	c #312665",
"3@	c #341D59",
"4@	c #3D285C",
"5@	c #4D4758",
"6@	c #AB6471",
"7@	c #BB707F",
"8@	c #2D3F6C",
"9@	c #352D6A",
"0@	c #6468AD",
"a@	c #432E7B",
"b@	c #494A82",
"c@	c #515D9D",
"d@	c #46437C",
"e@	c #3D2459",
"f@	c #4C467B",
"g@	c #504B74",
"h@	c #412457",
"i@	c #3E2655",
"j@	c #545359",
"k@	c #5E6686",
"l@	c #6A73AC",
"m@	c #5D507B",
"n@	c #6469AF",
"o@	c #555BB7",
"p@	c #6375B6",
"q@	c #7584BE",
"r@	c #7686BF",
"s@	c #6577B7",
"t@	c #4C519A",
"u@	c #686BC1",
"v@	c #6C74A3",
"w@	c #9F526F",
"x@	c #6F535D",
"y@	c #525353",
"z@	c #585A5C",
"A@	c #60688A",
"B@	c #868897",
"C@	c #7176AC",
"D@	c #6166BC",
"E@	c #7D8CC3",
"F@	c #5A6DB2",
"G@	c #5468B0",
"H@	c #566AB1",
"I@	c #6D7EBB",
"J@	c #5968B5",
"K@	c #6D70C3",
"L@	c #B683A0",
"M@	c #C16174",
"N@	c #72585D",
"O@	c #5C5B5C",
"P@	c #626A8D",
"Q@	c #6F75AE",
"R@	c #7277C4",
"S@	c #6F80BC",
"T@	c #6274B6",
"U@	c #6978BB",
"V@	c #6C6DC2",
"W@	c #7A7293",
"X@	c #E08B95",
"Y@	c #A7606C",
"Z@	c #4C4E4D",
"`@	c #6F75AD",
" #	c #6B7CBA",
".#	c #5D70B4",
"+#	c #63677A",
"@#	c #AA7598",
"##	c #8A5A63",
"$#	c #4D4F4E",
"%#	c #565858",
"&#	c #484A49",
"*#	c #4B4B4C",
"=#	c #4B4C4B",
"-#	c #4A4B4B",
";#	c #494A49",
">#	c #6A71AB",
",#	c #7787C0",
"'#	c #5569B0",
")#	c #4B4969",
"!#	c #706391",
"~#	c #645759",
"{#	c #474948",
"]#	c #545657",
"^#	c #4D4E4F",
"/#	c #606061",
"(#	c #656564",
"_#	c #646566",
":#	c #636465",
"<#	c #616264",
"[#	c #5F6062",
"}#	c #4F4F50",
"|#	c #646A95",
"1#	c #6F73C3",
"2#	c #808FC4",
"3#	c #6C7DBB",
"4#	c #5A6DB3",
"5#	c #586CB2",
"6#	c #6678B8",
"7#	c #7585BF",
"8#	c #616ABA",
"9#	c #666BB1",
"0#	c #2F2463",
"a#	c #353C68",
"b#	c #4F555E",
"c#	c #515152",
"d#	c #525254",
"e#	c #626365",
"f#	c #646465",
"g#	c #626471",
"h#	c #6E6DB8",
"i#	c #747CC3",
"j#	c #7483BF",
"k#	c #6D7BBC",
"l#	c #555CB6",
"m#	c #665EBA",
"n#	c #715886",
"o#	c #272B66",
"p#	c #546FA0",
"q#	c #40638A",
"r#	c #545961",
"s#	c #696969",
"t#	c #535354",
"u#	c #626465",
"v#	c #626364",
"w#	c #616263",
"x#	c #606062",
"y#	c #5D5F60",
"z#	c #785254",
"A#	c #B73D55",
"B#	c #907CB1",
"C#	c #6056C1",
"D#	c #5F54C2",
"E#	c #6E60BE",
"F#	c #927EB0",
"G#	c #AD5A7D",
"H#	c #8C2C54",
"I#	c #5873A4",
"J#	c #2D608E",
"K#	c #5372A1",
"L#	c #7A87B5",
"M#	c #5C5C5D",
"N#	c #4C4C4D",
"O#	c #575656",
"P#	c #835E62",
"Q#	c #D47578",
"R#	c #C84C52",
"S#	c #B7435C",
"T#	c #B7425C",
"U#	c #B93D54",
"V#	c #BE2633",
"W#	c #B72C3F",
"X#	c #4E628B",
"Y#	c #5874A4",
"Z#	c #7F8FC3",
"`#	c #7A88B6",
" $	c #4D4F4F",
".$	c #615459",
"+$	c #732E49",
"@$	c #7C304B",
"#$	c #A35662",
"$$	c #D37276",
"%$	c #C5444A",
"&$	c #C54047",
"*$	c #C7474D",
"=$	c #C6444B",
"-$	c #BD2734",
";$	c #6A616C",
">$	c #666C81",
",$	c #64697B",
"'$	c #4C4E4E",
")$	c #635157",
"!$	c #752847",
"~$	c #6F3E4F",
"{$	c #C37576",
"]$	c #DC7475",
"^$	c #E48283",
"/$	c #E98989",
"($	c #C37A7B",
"_$	c #8A4E50",
":$	c #5E5B5A",
"<$	c #575758",
"[$	c #635057",
"}$	c #6A4853",
"|$	c #CF6A6B",
"1$	c #D05C60",
"2$	c #8F4B4F",
"3$	c #4C4D4D",
"4$	c #5A5A5B",
"5$	c #5F5559",
"6$	c #6C3D4D",
"7$	c #732B47",
"8$	c #742E49",
"9$	c #665258",
"0$	c #B72F39",
"a$	c #B92C37",
"b$	c #7D5255",
"c$	c #6F5858",
"d$	c #B92D37",
"e$	c #A73C43",
"f$	c #95484B",
"g$	c #864D51",
"h$	c #4F5051",
"i$	c #90494E",
"j$	c #515254",
"k$	c #4B4D4C",
"l$	c #705454",
"m$	c #B0353D",
"n$	c #B4313A",
"o$	c #B4313B",
"p$	c #A93A41",
"q$	c #4D4E50",
"r$	c #56585A",
"s$	c #595B59",
"t$	c #525454",
"u$	c #575957",
"v$	c #585859",
"w$	c #525253",
"x$	c #4B4D4D",
"y$	c #474848",
"z$	c #515353",
"A$	c #494A4B",
"B$	c #5C5D60",
"C$	c #5E605E",
"D$	c #59595A",
"E$	c #525354",
"F$	c #565657",
"G$	c #4F504F",
"H$	c #505253",
"I$	c #535557",
"J$	c #555759",
"K$	c #4A4C4C",
"L$	c #4B4C4D",
"M$	c #494B4B",
"N$	c #555758",
"O$	c #535453",
"P$	c #595B5D",
"Q$	c #494B4A",
"R$	c #525356",
"S$	c #535457",
"T$	c #484948",
"U$	c #616163",
"V$	c #555557",
"W$	c #545456",
"X$	c #4D4D4F",
"Y$	c #535355",
"Z$	c #555556",
"`$	c #686868",
" %	c #565658",
".%	c #565558",
"+%	c #535254",
"@%	c #505051",
"#%	c #57595B",
"  . + @ @ # # $ % & & * = - ; @ > , , ' ) ! ~ { { . ] ^ / ( _ : ;   < < [ } } } } { | * 1 2 3 4 5 6 7 8 9 9 9 8 2       0 a b c ",
"d e ) f # f f f g h h g i j k l l m l l d d n ) o p o q - = r s t u v m l d w > x ) g y z A B C D E B } [ [ B F [ [ [ G G H I - ",
"n ~ * * E E E J J J K L M N O ~ ~ ~ ~ | | | | * * E J P Q J R S R g & ~ | ~ | | * E E J T U V W ; X * < < < F Y Z `       2  .Q ",
"g | * * E J J J J J ..K +.@.& | | * * * * * * E E J ..#.= * $.$.y ~ | | * * * E J J J J T a V W P ~ o . } [ %.%.Y <       &.*.= ",
"% | B =.E -.J J T T ..K @.@.;.| | * [ * * * B E E J J #.= * n & | | | * * * E E J J J J T a >.,.; n ! [ [ [ %.Y Y <     ` &.I _ ",
"} '.< < <       2 2 2 U ).b !.~ * [ [ [ [ '.< E E J J #.= | g | | | * * * * J E J J J ....2 9 ~.3 + {.< [ [ Y Y Y       Z ].^./.",
"[ < < <         2 2 8 (.).b z ~ * [ [ [ [ < < _.J ....P = * g | * * * * * E E E J J ....:.8 9 <.[.}.. < < < Y Y 0 <     Z a ^.|.",
"<   < <   ` ].T &.U 1.(.).b A 2.{ [ [ [ B G ` T 1 ....3.4._.y | 5.* =.B B _._._.T T :.:.6.8 9 <. .q ] < < < Y Z Z &.&.T a 7.b |.",
"          Z Z a a a 7.7.b 8.9.. [ < < < Y Y Z &.2 2 2 [.0.a.b.c.d.e.f.g.<       2 2 2 8 8 9 [.h.i.% 2.<     Z Z Z a a a a a b j.",
"  2 2 2 2 H k.l.l.m.V V b W _.. < < <   ].n.k.&.2 8 8 *.o.p.p.q.r.r.s.t.u.7.  2 2 2 2 9 9 [.3 v.w.% x.    2 a Z Z a a 7.a 7.^.y.",
"T 1 2 8 8 1.z.1.>.A.B.^.b C.` [   < < 2 2 H &.:.8 8 8 D.E.r.r.r.r.r.r.r.r.F.2 8 8 8 9 9 9 [.i.G.D & * 2 8 8 1.1.7.7.7.7.V V b H.",
"I.#.8 8 8 8 8 9 9 [.[.I 8.J.U         2 2 2 8 8 8 9 b K.r.r.r.r.r.r.r.r.r.L.M.8 8 8 9 [.3 : = ( _ ..; 8 9 A.9 9 9 V V V V V N.( ",
"Q w.O.3 3 3 3 3 P.P.P.Q.R.S.T.8 1.2 :.8 8 9 8 8 9 U.V.W.r.r.r.r.r.r.r.r.r.r.X.Y.3 3 P.<.Z.Q 6 / / v.`.3 3 3 3 3  +8.8.8.8.8..+++",
"_ 0.Z.@+#+$+$+%+$+$+#+&+*+*+=+-+~.,.,.;+,.7 ;+ +,.>+,+r.r.r.r.r.r.r.r.r.r.r.'+)+/.y.!+~+{+/ 5 ]+/ _ 4.^+h.h./+<./+C.W W J.(+=+_+",
"g ~ <     ].a a a 7.a L @.:+<+@.[+Y Y Y Y Y Y }+L g.|+r.r.r.r.r.r.r.r.r.r.r.r.1+2+v._ c / / 5 ]+c 3+7 P.3 3 4+I b b V V b b J.5+",
"R n 6+{.. 7+8+%.%.%.Y Y M 9+0+a+b+8+%.Y Y Y Y Y }+c+d+r.e+s.f+g+h+i+j+k+r.r.r.l+m+#.P : Q 6 - 5 6 ~ f {.} < n+%.a Z Z a a a ^.:+",
"$.r }.. . 8+8+%.%.%.Y a+0+o+i 9.p+%.%.Y Y Y Y q+r+s+d+t+u+v+w+w+x+y+w+z+l+r.r.l+A+..#.I.3.B+: j.3+f ] C+C+F Y Z Z Z Z a a a ^.D+",
"n q . . } 8+8+%.%.%.Y F ..= B [ [ F %.Y Y Y Z E+F+G+d+H+w+w+w+w+w+w+w+w+I+s.r.l+J+2 8 9 9 [.P.#+D r | %.%.%.Y Y Y Z Z Z 7.a ^.S.",
"g ~ 2.} } 9.8+%.%.%.Y B ..K+[ [ < L+Y Y Y Y Z M+N+F+O+w+w+w+P+Q+w+w+w+w+w+R+q.l+J+2 8 9 9 P.S+T+3+r { %.Y Y Y Y Z Z Z a a 7.4+&+",
"% ~ ~ { } } 9.%.%.%.Y U+..K+[ [ < G Y Y Y Y Z V+W+X+Y+Z+Q+`+F+ @w+w+w+w+w+w+.@l+J+1.1.A.+@C @@T+3+r i %.Y Y Y Y Z Z Z a a a ^.%+",
"~ | ~ * * [ [ C+Y Y Y _.#.= =.< < < < <       #@$@%@&@Y+*@=@-@;@w+w+w+w+w+w+>@,@'@1.7.m.@.: D 6 3+% i %.Y Y Y Z Z Z Z a a a I Z.",
"| * * * * [ [ < Y Y Y _.#.4.=.< < <         2 )@!@~@{@]@^@/@(@w+w+w+w+w+w+w+_@:@2 1.m.V N D D 6 3+& U+Y Z Z Z Z Z a a a 7.7.).6 ",
"E | * * * [ [ < Y Y Y _.#.4.=.< <           &.1 <@[@}@|@1@2@3@w+4@w+w+w+w+w+w+5@8 I.V B.N.D D 6 3+& U+Y Z Z Z Z Z a a a 7.7.)._ ",
"E y { [ < Y Y Y Y Y Z ` 9 @+<   2 2 2 2 a a a 1.8 6@7@8@9@0@a@b@c@d@e@f@g@h@i@j@9 9 [.3 <.3+3+6 = & L+Z Z Z Z Z a 7.7.7.7.V N.0.",
"E y { < G Z Y Y Z Z a T 9 #+    2 8 8 2 U l.a 1.8 k@l@m@n@o@p@q@r@s@t@u@v@w@x@6.8 3 S+<.y@= 3+6 6 O ].a a a a a 7.a 7.V V V 8.0.",
"J E <     Z Z Z Z a a &.9 G.8 2 1 8 8 9 8 z@>.+@[.A@B@C@D@E@F@G@G@H@I@J@K@L@M@N@9 9 A.U.<.K+y@6 _ ~ T a a a a 7.7.V V V V V 8.0.",
"J O@      Z Z Z a a a 2 [.G.K+B+3.3.[.[.[.B+B+w.: P@* Q@R@S@G@G@G@G@T@U@V@W@X@Y@9 T.^.^..+v.^+#+_ ~ U 7.7.7.7.7.7.V V V ^.^.8.G.",
"..T       ].Z Z a 7.7.(.3 Z@!+j.6 Z.@+^+4.Q 3+D 3+3+:.`@R@ #G@G@G@G@.#U@V@+#@###9 [.b ^.W h.^+y.( ..; V V V V V V V V ^.b b C.$#",
"@@O.%#N.3 b b b b W W >+#+&#/.Q Q 0.0.G./.H.~+*#=#-#;#>#R@,#'#G@G@G@ #U@V@)#!#~#3 O.8.;+>+<.#+{#5 j.3+W >+W W W W 8.8.]#W C.S.-#",
"h.T Z Z Z Z Z Z Z a a 7.N.^#/#y (#_#_#:#<#[#7.b W .+}#|#1#2#3#4#5#6#7#8#9#0#a#b#= Q c#Q _ - 5 ]+c = ^ J * U+L+Z a 7.V ^.^.b o+5 ",
"2 [ %.%.%.%.%.Y %.Y Y Y 0+d#~ r r :#e#e#e#e#<#<#e#_#f#g#h#i#j#j#j#k#l#m#n#o#p#q#r#B+B+w.D Q ~+5 D $.s R s#n _#e#[#8+%.Y Y Z M }#",
"[ [ %.%.%.Y Y Y %.Y Y }+0+t#/#r !.:#u#e#v#w#x#[#9.y#B z#A#B#C#D#D#E#F#G#H#I#J#K#L#E M#U+K #.O.N#O#$.e 6+| 2.9.F L+Y Y L+Z Z V |.",
"} [ %.%.%.%.%.Y Y Y Z ].#.= * | | { { [ B < _.`     ].P#Q#R#S#T#T#U#V#V#W#X#Y#Z#`#U 7.7.7.@.b D+^ n }.[ [ [ [ [ < < < =.Z Z V  $",
"[ [ %.%.Y Y Y Y Z Z Z T #.Q * * * [ [ < < <       2 .$+$@$#$$$%$V#&$*$=$-$;$>$>$,$U 7.V V V b (+^ % } [ [ [ < < < [ < ` Z Z V '$",
"} [ F %.Y Y Y Y Z Z Z T P 6 * * * * [ < < <       &.)$!$!$!$~${$]$^$/$($_$:$2 2 2 2 7.V V V b %+<$% { [ [ [ < < < `   ` Z Z V '$",
"=.* < < < ` ` ` Z Z a :.P 6 * * * B < < < <   ` Z a [$!$!$!$}$|$1$V#V#2$  2 2 2 8 8 8 8 U.U.O.@+O.{.[ [ < < L+Y n.n.n.Z a a ^.3$",
"E E <   <       ].a a 4$P j.* E * =.< < < <   &.a a 5$6$7$8$9$0$V#V#a$b$  2 2 8 8 8 8 9 9 [.P.@+P.} < [ < < Y Z Z Z Z a a a V N#",
"..O@            a a a :.^ j.* * E E <     T   &.a 7.(.B+_ 9 c$d$V#V#e$a 2 9 8 8 8 8 9 9 9 3 S+@+C } _.< < < Z Z Z Z a a a 7.V =#",
"#.........2 2 2 2 2 8 8 [.$#< [ <       ].a a a 7.V A.3 #+[.f$V#V#V#g$7.2 8 9 9 9 9 [.[.U.8.C.h$= | _.Z Z Z Y Z Z Z a a 7.a ^.~+",
"^ #.......2 2 8 8 2 9 9 [.$#9 <   2 2 2 U 7.a 7.V V A.3 $#[.f$V#V#V#i$>.9 [.9 9 9 9 [.[.%#C.j$=+Q ~ _.Z Z Z a Z a 7.a 7.7.7.B.3$",
"w.#.#...#.2 2 8 8 8 9 9 3 Z@T+8   2 2 2 1.7.7.7.V V I <.k$P.l$m$n$o$p$U.3 S+<.<.<.<.i.3 %#C.j$q$_ | M#Z Z Z a a a a a 7.7.7.r$3$",
"= ^ w.P ^ 8 8 8 8 9 3. .3+( j.i.6.:.2 2 2 8 9 s$[.%#h.( - 3+3+= = = y@= 4.0./._ _ 6 3+`.7 t$-+$#y...:.Z a a a a 7.7.7.7.V V r$~+",
"_ 3+D : : i.3 3 3 S+^+Q ( c - = B++@9 9 9 9 [.u$P.^+k$5 / _ Q 6 6 6 6 6 6 _ _ _ _ _ _ _ Q K+@+~+( : I.7.7.7.7.7.7.V V V V ^.8.4 ",
"i.^ v$+@^ 9 9 [.*.P.@+y.c c 6 3+D /+/+/+/+t$y@^+@+#+/.3$]+~+= 3+3+y@y@y@w$w$y@D /+D 3+v.4.#+x$4 - 3+7 ;+8.W 8.8.8.W W 8.C.J.(+y$",
"< 2 (.U ].0 Z ].a U 1.B+6 - *.    ` H a a a 7.V T.B.^.I j$z$9 9 +@T.V V V T.T.T.T.T.T.I N.W *+A$0+i a+B$Y Z Z Z a a a 7.7.V b _+",
"} C$y#%.Y Y Z Y Y a a D$D _ 2 < &.H a Z Z a a 7.7.a 7.V C.~.9 9 A.7.7.7.a 7.V V 7.7.V V V Z W :+L }+}+Z Y Z Z Z a a a 7.7.7.).3$",
"} } 8+8+%.%.%.Y Z Y Z 4$B+6   <   ].Z a a a a 7.7.a V V J..+9 9 T.V V 7.a 7.7.7.7.7.V V (.8+^.=+a+}+}+Z Z Z Z Z a a 7.7.7.V ^.H.",
"| | %.%.%.%.%.%.Y Y 7.8 *.@+T < 2 U a a a a a 7.7.7.V V J.E$[.9 9 A.O.8 8 8 1.7.7.7.V V V U+F$/._.    Z Z Z Z Z a a a V 7.7.^.H.",
"* | %.%.%.Y Y %.Y Y (.A.%#@+    2 U a a 7.7.7.7.7.7.V V J.E$%#3 %#3 <.9 9 8 1.7.7.7.V V T.*.: /.<   ` Z Z Z Z Z a a a V 7.V b H.",
"| * %.%.%.Y Y Y Y Y 7.A.3 #+2   2 U a a a 7.7.7.7.7.V ^.j$z$3 P.,.^+@+S+9 8 1.7.7.7.V ^.I B+C G$<   ` Z Z Z a a a 7.7.7.V V b - ",
"{ [ [ B G L+Y Y Z Y V U.P.#+2 2 8 U a 7.7.7.7.7.V V ^.^.j$H$8.I$J.^.(.8.+@9 A.V V V V ^.^.b Q.&+_.  ].a a a a a 7.7.V V V V b 3$",
"} [ [ [ < Y Y Y Z Z B.*.P.#+2 2 8 U a 7.7.7.7.7.V V b b (+(+8.C.^.7.7.>.[.9 A.V V V V ^.b J$C.&+<   T a a a a a 7.7.V ^.^.^.8.x$",
"} < < < < Y Y Z Z Z ^.%#S+G.8 2 8 (.7.7.V V V V V ^.b N.D+D+J.W V 7.V 1.%#9 A.V ^.^.^.b b W J.S.< 2 &.a 7.7.7.7.7.V V b ^.^.8.K$",
"} <       Z Z Z a a ^.N.S+$#9 2 8 (.V V V V V V ^.^.N 7 |.L$*+(+^.V 7.>.b T.T.+@*.*.*.%# +: y@_ J :.:.8 8 8 1.A.A.U.[.U.b b W M$",
"< 2       Z Z Z a a b O.<.k$3 9 [.T.T.^.^.^.b b b b ;+y@/ ++S.j$W b b 8.8.8.N$P.7 S+S+~.O$= 6 - #.P I.; 9 9 9 9 [.[.[.&.8.W J.{#",
"<     T 2 ].a a P$P$b  +^+Q$@+^+h.>+W C.C.C.C.J.J.j$o+- 5 L$%.%.N.C.R$C.S$W >+S+/+y@#+G.G$_ ( / - 3+B+3 3 P.P.P.P.P.P.;+N.8.8.'$",
"O$`.`.P.*.+@D$4$..:.j G$~+T$G$*.1 T a a a a Z a a a 0+@.w$}#D$U+].&.1.1.4$4$4$(.(.O./+O$O$t#}#*#}#% r % z q q q q & q z U$U$<#(.",
"P ....J T ..#.......P B+= 5 ^ ....U a a a Z a a a 7.0+M d#}#P J -.  2 2 ....:.7.7.I.w.: : V$W$X$P s#~ * E E E E E E E E }+}+L Y$",
"..E J J J J ........#.#.^ Q #.....].Z Z Z a a a a a a 7.Y$c#E J         ..#.4$a 7.1.^ Z$Z$V$V$w$E $.| E E E E E J J J J L L M d#",
"            T 2 U U 7.V @.<++@2 1   ` &.&.&.&.&.U z.0+0+W$t#@ [           1 2 &.1.(.N 8.V$V$V$t#* $.| E E E < < <       K ..#.= ",
"              2 U a 7.V ^.<+I #   <   2 2 2 2 2 2 8 (.7.W$.+@ [ <         2 2 2 8 I.V 8.8.V$V$d#* `$| E E E < < <       ..#.P = ",
"        2 2 2 2 z.V V ^.^.(+U.{.    2 2 2 2 2 2 2 2 T.M W$C {.[           2 2 2 8 8 m.b W  %.%+%* `$| E E E < < <     2 J #.P = ",
"8   2 2   &.U U 7.7.V V b D+v${ T 2 2 2 2 2 2 2 z.1.V V C.t$<           ].U U z.1.(.V b 8. % %t#* `$| E E E -.-.-.    2 K U D$@%",
"8   2 2   H a a 7.7.V ^.b D+v$....2 2 2 2 2 2 :.7.7.>.#%J..+<           Z a a 7.7.(.V b 8. % %t#* `$| E E E J J J     2 a a M @%"};
