/* XPM */
static char * up_2_xpm[] = {
"64 64 45 1",
" 	c #4A4A4A",
".	c #464646",
"+	c #3E3E3E",
"@	c #393939",
"#	c #414141",
"$	c #4C4C4C",
"%	c #505050",
"&	c #525252",
"*	c #4B4B4B",
"=	c #484848",
"-	c #3F3F3F",
";	c #3B3B3B",
">	c #404040",
",	c #444444",
"'	c #4E4E4E",
")	c #515151",
"!	c #4F4F4F",
"~	c #494949",
"{	c #424242",
"]	c #3C3C3C",
"^	c #434343",
"/	c #4D4D4D",
"(	c #454545",
"_	c #3A3A3A",
":	c #474747",
"<	c #3C2155",
"[	c #3F4191",
"}	c #3D3D3D",
"|	c #383838",
"1	c #4C2372",
"2	c #B14869",
"3	c #F9D7C5",
"4	c #EE9191",
"5	c #005784",
"6	c #4C4E71",
"7	c #28155D",
"8	c #313967",
"9	c #8190C5",
"0	c #5468B0",
"a	c #502CC1",
"b	c #6B7BBB",
"c	c #5E5E5E",
"d	c #B1B1B1",
"e	c #BE2633",
"f	c #752847",
"   .+@@@@@@#$%$$%&&%$    $%&&$#@@@@@@+.$%%$$%$#@@#$&&&&%$  .+#$&",
" *$=-;-##>#, $$')&)!$*$$$'))'~{->##-;]^ !)''!*>@@>*)&&&%$*$=-#$&",
" $'*>-=$//$~,($)&)'$*$'%%))'.{,=*/$=-_],/&)!/=-@@-=')&&%$$'*>#$&",
"$')$#> %&&&$#>*!/*:..=*$$$$<<<<<<<&'.-;-=$$*=^]@@]^=*$$*==*:->$&",
"%)&$#-=')&&$>-=~,>+++-><<<<[[[[[[[<<'=-;+##>-}_@@_}->##>-->-;#$&",
"&&)*>-=')&&$#}^({##>--<[[[[[[[[[[[[[<<>_]->-;_}->####>-}_;-##(/%",
"&)'=->*%&&&$#_]{~$$*=<[[[[[[[[[[[[[[[[<}^=*=-]^=*$$$$*={]-=$/$$$",
"$*={]#$&))&/#@@>*%%!<[[[[[[[[[[[[[[[[[<-=')$#-=')&&&&%$.+-=$$*=.",
"#>-]_#$)''%$#@@-=$//<[[[[[[[[[[[[[[[[[[<*)&$#>*)&&&&&%$.+;-##>-+",
"#####,~*==*=-@|]^..<[[[[[[[[[[[[[[[[[[[[<%%*>#$&&&))))'=-@@_}->#",
"$$$$$ ,>+->-;@@_}++<[[[[[[[[[[[[[[[[[[[[[<$=-#$&&%''%&)*>@|]^=*$",
"%)))' ,#>######-;;<[[[[[[[[[[[[[[[[[[[[[[<$=-#$&)'$$%&&$#@@-=')&",
"$')'.,~$$$$$$/$=--<[[[[[[[[[[[[[[[[[[[[[[[<*>#$)'$ $%&&$#@@>*)&&",
"$')$##$&&)%%)&&$##<[[[[[[[[[[[[[[[[[[[[[[[<$##$%$ $')&&$#@@>*)&&",
"%))$>>$&&)'')&&$##<[[[[[[[[[[[[[[[[[[[[[[[[<##$%$$')&&&$#@@-=')&",
"$$$=->*)&%''%&&$#<[[[[[[[[[[[[[[[[[[[[[[[[[<>#$)'')&)%%*>@|]^=*$",
"###-;-=')))%)&&$#<[[[[[[[<<<<[[[<[<<[[[[[[[<-#$)))&)'$$=-@@_}->#",
"###-;+.$%&&&&&&$#<[[[[<[<<<<<<[[<<<<[[[[[[[<>{~$$$$*=..,>->##>-+",
"$$$=-+.$%&&&&&&$#<[[[<<<<<<<<<<<<<<<<[[[[[[<,({####>-++>,=*$$*=.",
"%%%*>-=/!)&&&111<<[[<<<<<<<<<<<<<<<<<<[[[[[<~~,-;;-####,~/!)&)'$",
"$/$=->*!/'%&&1111<[[<<<<<<<<<<<<<<<<<<[[[[[<!!/=++=$$$$/!!/')&)%",
"$$*.+-=*==*$$11111[<<<<<<<<<<<<<<<<<<<<[[[[<&&&$#>*)&&))&)'')&&&",
"%!$.+;->-->##>11111<<<<<<11<<<<<<<<<<<<<[[[<&&&$#-='))'')&)%)&&&",
"$$$~,########>231111<<<<1111<<<<<<<<<<<<[[[<&&&$#}^=**==*$$$$$$$",
"#($!'$$$$$$$$24331111<<1111<<<<<<<<<<<<<<[[<&&&$#_]->>-->#######",
"@#/&&&))&&))&2334411111111<<<<<<<<<<<<<<<[[<$$$=+@@;->-->####>-+",
"@>$&&)''))'')234444111115<<<<<<<<<<<<<<<<[<####-;@@-=*==*$$$$*=.",
"@-=$$*==**==*234444611157<<<<<<<<<<<<<<<<<<######-;#$%$$'%%)&)'$",
"@;-##>-->>-->#224486615777<<<<<<<<<<<<<<<<<$$$$$$=-#$%/*$$$')&)%",
"@_}++++->>-->>-24488157777<<<<<<<<<<<<<<<<!)&&&&)*>#$%/*$$$/!%%%",
"@}^....=**==**=^244857779<<<<0<<<<<<<<<<<<'')&&)'=-#$%$$'%%!/$$$",
"@+.*$$$'))'/!!/=-22+7779aa<00000<<<bbc7<<<==*$$*={]-=*==*$$*=...",
"@+.$!%%)&&)!/'!*>bb1179a000999900<a9bc27->-->##>-}_;->-->##>-+++",
"@]^=*$$$$$$*==*=-00dc9a009900009000a9b422>-++->######>-}__}->###",
"@_}->######>-->-;bdc9a09900000000900a9b422=..=*$$$$$$*=^]]^=*$$$",
"#>-}_@@@@@@@@;--bccc9a99900000000990a9c442'$ $%&&&&&)!/=-+.$%&&&",
"$*=^]@@@@@@|@-==bccc9a99000000000090a9cb442!$$%&&&&)''!*>+.$%&&&",
"&)'=-_]->##+;>*$(ccc9a99000000000090a9cb442)'')&&&)!$/%$#-=')&)%",
"&&)*>}^=*/$=--=$/$cc9a99000000000090a9ccb2&&)))&&)'$ $%$#>*)&)'$",
"$$$=--=')&&$#-=')&)!9a99000000000090a9ccb2$$$$$$$*=..=*=-+=$$*=.",
"###-;>*)&&&$#> )&)'$9a99900000000990a977b########>-++->-;;-##>-+",
"#>-]_#$&)))$#-=$/*=.9a99900000000990a9777++}__}->-;@@_}->#######",
"$*={}#$)''%$#;-##>-++9a999900009990a977775.^]]^=*=-@@]^=*$$$$$$$",
"%!/=->*'$$%/#@|@@@@;-9a999999999000a9777595=--=')$#@@-=')&))&&)%",
"$'!*>-=$*$%$#@|@@|@-=*9aa0000000aaa9e7759555>>*)&/#@@>*)&)''))'$",
".=*=--=$$$$ ,##>-->, ee99aaaaaaa999ee75955599>*)&$#@|+=$$*==**=.",
"+->-;>*%%$(,~$/*==*~,eeee9999999eeeee59555999-=')$#@@;-##>-->>-+",
"+->-;>*)&$#>*)&%$$'*>44eeeeeeeeeeeeeee5559999-=/!*>;+##>-++}_;-#",
".=*=--=')$#+=')%$*$=fff44eeeeeeeeeeeee;999999>*!/=--=$$*=..^]+=$",
"$/!*>+.$!*>+.$%)'$$ffffff44eeeeeeeeeee#####+;#$%$.+#$&&%$*$=-#$&",
"%!/=-+.*$=-+.$%))%%ffffffff4eee44444ee$$$$$=-#$%$.+#$&&%$$!*>#$&",
"&)'=--=$*.+-=')&&&%fffffff%&4444444&&&&&%))$##$)'=->*)&)''%$#>*%",
"&&%*>>*!$.+>*)&&&)'fffffff%444eeeee&&&&)'')$##$&)*>-='))))&$#-=$",
"&&&$##$)'=-#$&))))'fffffff)eeeeeeee&&&)!/')$#>*)&$#-=/!%&&&$#-=$",
"&&&$##$&)*>#$)''%&)fffffff)eeeeeeee&&%'/!)&$#-=')$#> !/')&&$#>*%",
"&&%*>-=$$=->*'$$%&&$#ffff$$eeeeeee*$$*==*/$~{>,=*=->*!'')&&$##$&",
"&)'=-;-##-;-=$*$%&&$#;+####eeeeeee>##>-->##{(,>->-;-=/!%&&&$##$&",
"%!/=-;-##-;-=$$')&&$#_]->#eeeeeee##>-}_@@@@}^^}@@@@]^=*$$$$=-#$&",
"$/!*>-=$$=->*%%))&&$#}{=*$eeeeeee$$*=^]@@@@_}}_@@@@_}->####+;#$&",
"$')$#> )&$##$&)%%%%*>+:')&eeeeeee&&!~({##>-->-;@@;-##>-->##+;#/&",
"%)&$#-=')$##$)'$$$$=->*)&)eeeeeee&&/,{~$/*==*=-@@-=$$*== $$=-#$&",
"$/$=--=')$#-=*=....,{.'&)'eeeeeeee%*>>*%%'$$%$#@@#$&)'$$%&&$#-=$",
"###+;>*)&$#;+>-++++{~'))'$ eeeeeee$=--=$/$*/%/#@@#/)'$*$%&&/#;+#",
"@@@@@#$&&$#@@@@@@@@#$&&%$    $%%$  .++.    $%$#@@#$%$  $%&&$#@@@"};
