/* XPM */
static char * up_3_xpm[] = {
"64 64 44 1",
" 	c #4A4A4A",
".	c #464646",
"+	c #3E3E3E",
"@	c #393939",
"#	c #414141",
"$	c #4C4C4C",
"%	c #505050",
"&	c #525252",
"*	c #4B4B4B",
"=	c #484848",
"-	c #3F3F3F",
";	c #3B3B3B",
">	c #404040",
",	c #444444",
"'	c #4E4E4E",
")	c #515151",
"!	c #4F4F4F",
"~	c #494949",
"{	c #424242",
"]	c #3C3C3C",
"^	c #434343",
"/	c #4D4D4D",
"(	c #454545",
"_	c #3A3A3A",
":	c #474747",
"<	c #3C2155",
"[	c #3F4191",
"}	c #3D3D3D",
"|	c #383838",
"1	c #4C2372",
"2	c #B14869",
"3	c #F9D7C5",
"4	c #005784",
"5	c #EE9191",
"6	c #28155D",
"7	c #4C4E71",
"8	c #8190C5",
"9	c #5468B0",
"0	c #6B7BBB",
"a	c #313967",
"b	c #502CC1",
"c	c #5E5E5E",
"d	c #BE2633",
"e	c #752847",
"   .+@@@@@@#$%$$%&&%$    $%&&$#@@@@@@+.$%%$$%$#@@#$&&&&%$  .+#$&",
" *$=-;-##>#, $$')&)!$*$$$'))'~{->##-;]^ !)''!*>@@>*)&&&%$*$=-#$&",
" $'*>-=$//$~,($)&)'$*$'%%))'.{,=*/$=-_],/&)!/=-@@-=')&&%$$'*>#$&",
"$')$#> %&&&$#>*!/*:..=*$$$$=-<<<<<<<.-;-=$$*=^]@@]^=*$$*==*:->$&",
"%)&$#-=')&&$>-=~,>+++->##<<<<[[[[[[[<<-;+##>-}_@@_}->##>-->-;#$&",
"&&)*>-=')&&$#}^({##>-->#<[[[[[[[[[[[[[<<]->-;_}->####>-}_;-##(/%",
"&)'=->*%&&&$#_]{~$$*==*<[[[[[[[[[[[[[[[[<=*=-]^=*$$$$*={]-=$/$$$",
"$*={]#$&))&/#@@>*%%!/'<[[[[[[[[[[[[[[[[[<')$#-=')&&&&%$.+-=$$*=.",
"#>-]_#$)''%$#@@-=$//!)<[[[[[[[[[[[[[[[[[[<&$#>*)&&&&&%$.+;-##>-+",
"#####,~*==*=-@|]^..=*<[[[[[[[[[[[[[[[[[[[[<*>#$&&&))))'=-@@_}->#",
"$$$$$ ,>+->-;@@_}++-><[[[[[[[[[[[[[[[[[[[[[<-#$&&%''%&)*>@|]^=*$",
"%)))' ,#>######-;;-#<[[[[[[[[[[[[[[[[[[[[[[<-#$&)'$$%&&$#@@-=')&",
"$')'.,~$$$$$$/$=--=$<[[[[[[[[[[[[[[[[[[[[[[[<#$)'$ $%&&$#@@>*)&&",
"$')$##$&&)%%)&&$##$&<[[[[[[[[[[[[[[[[[[[[[[[<#$%$ $')&&$#@@>*)&&",
"%))$>>$&&)'')&&$##$)<[[[[[[[[[[[[[[[[[[[[[[[[<$%$$')&&&$#@@-=')&",
"$$$=->*)&%''%&&$#-=<[[[[[[[[[[[[[[[[[[[[[[[[[<$)'')&)%%*>@|]^=*$",
"###-;-=')))%)&&$#;+<[[[[[[[<<<<[[[<[<<[[[[[[[<$)))&)'$$=-@@_}->#",
"###-;+.$%&&&&&&$#@@<[[[[<[<<<<<<[[<<<<[[[[[[[<~$$$$*=..,>->##>-+",
"$$$=-+.$%&&&&&&$#@|<[[[<<<<<<<<<<<<<<<<[[[[[[<{####>-++>,=*$$*=.",
"%%%*>-=/!)&&&&&111<<[[<<<<<<<<<<<<<<<<<<[[[[[<,-;;-####,~/!)&)'$",
"$/$=->*!/'%&&&&1111<[[<<<<<<<<<<<<<<<<<<[[[[[</=++=$$$$/!!/')&)%",
"$$*.+-=*==*$$$$11111[<<<<<<<<<<<<<<<<<<<<[[[[<&$#>*)&&))&)'')&&&",
"%!$.+;->-->##>#,11111<<<<<<11<<<<<<<<<<<<<[[[<&$#-='))'')&)%)&&&",
"$$$~,########>-,/$1111<<<<1111<<<<<<<<<<<<[[[<&$#}^=**==*$$$$$$$",
"#($!'$$$$$$$$ = !$#1111<<1111<<<<<<<<<<<<<<[[<&$#_]->>-->#######",
"@#/&&&))&&))&)'')$#211111111<<<<<<<<<<<<<<<<[<$=+@@;->-->####>-+",
"@>$&&)''))'')&))&$232111114<<<<<<<<<<<<<<<<<<##-;@@-=*==*$$$$*=.",
"@-=$$*==**==*$$$$2533211146<<<<<<<<<<<<<<<<<<####-;#$%$$'%%)&)'$",
"@;-##>-->>-->####23355214666<<<<<<<<<<<<<22<<$$$$=-#$%/*$$$')&)%",
"@_}++++->>-->>-]_23555546666<<<<<<<<<<<<<522&&&&)*>#$%/*$$$/!%%%",
"@}^....=**==**=^]2355557668<<<<9<<<<<<<<0552)&&)'=-#$%$$'%%!/$$$",
"@+.*$$$'))'/!!/=-@2255a768bb<99999<<<0ccc0552$$*={]-=*==*$$*=...",
"@+.$!%%)&&)!/'!*>@|255aa8b999888899<b80ccc552##>-}_;->-->##>-+++",
"@]^=*$$$$$$*==*=-;-#2558b998899998999b8ccc02+->######>-}__}->###",
"@_}->######>-->-;-=$$28b98899999999899b8ccc2.=*$$$$$$*=^]]^=*$$$",
"#>-}_@@@@@@@@;--;+=$01cb88899999999889b8cccc $%&&&&&)!/=-+.$%&&&",
"$*=^]@@@@@@|@-==-;-#9ccb88999999999989b8cc)!$$%&&&&)''!*>+.$%&&&",
"&)'=-_]->##+;>*$(##>cccb88999999999989b8cc&)'')&&&)!$/%$#-=')&)%",
"&&)*>}^=*/$=--=$/$$ cc8b88999999999989b8c&&&)))&&)'$ $%$#>*)&)'$",
"$$$=--=')&&$#-=')&)!cc8b88999999999989b8c$$$$$$$$*=..=*=-+=$$*=.",
"###-;>*)&&&$#> )&)'$*c8b88899999999889b8c60######>-++->-;;-##>-+",
"#>-]_#$&)))$#-=$/*=..=8b88899999999889b8666}__}->-;@@_}->#######",
"$*={}#$)''%$#;-##>-++->8b888899998889b866664]]^=*=-@@]^=*$$$$$$$",
"%!/=->*'$$%/#@|@@@@;->-8b888888888999b8666484-=')$#@@-=')&))&&)%",
"$'!*>-=$*$%$#@|@@|@-=*==8bb9999999bbb8d6648444*)&/#@@>*)&)''))'$",
".=*=--=$$$$ ,##>-->, $/dd88bbbbbbb888dd64844488)&$#@|+=$$*==**=.",
"+->-;>*%%$(,~$/*==*~,($dddd8888888ddddd48444888')$#@@;-##>-->>-+",
"+->-;>*)&$#>*)&%$$'*>-=5dddddddddddddddd4448888/!*>;+##>-++}_;-#",
".=*=--=')$#+=')%$*$=-;-555dddddddddddddd-888888!/=--=$$*=..^]+=$",
"$/!*>+.$!*>+.$%)'$$=-_]ee555dddddddddddd###+;#$%$.+#$&&%$*$=-#$&",
"%!/=-+.*$=-+.$%))%%*>}{eeee55dddd55555dd$$$=-#$%$.+#$&&%$$!*>#$&",
"&)'=--=$*.+-=')&&&%*>-=eeeeee&5555555d&&%))$##$)'=->*)&)''%$#>*%",
"&&%*>>*!$.+>*)&&&)'=->*eeeeee555dddddd&)'')$##$&)*>-='))))&$#-=$",
"&&&$##$)'=-#$&))))'=-#$eeeeeedddddddd&)!/')$#>*)&$#-=/!%&&&$#-=$",
"&&&$##$&)*>#$)''%&) >#$eeeeeedddddddd%'/!)&$#-=')$#> !/')&&$#>*%",
"&&%*>-=$$=->*'$$%&&$#-=eeeeeeedddddd$*==*/$~{>,=*=->*!'')&&$##$&",
"&)'=-;-##-;-=$*$%&&$#;+eeeeeeedddddd#>-->##{(,>->-;-=/!%&&&$##$&",
"%!/=-;-##-;-=$$')&&$#_]eeeeeeedddddd-}_@@@@}^^}@@@@]^=*$$$$=-#$&",
"$/!*>-=$$=->*%%))&&$#}{eeeeeeeeeeddd=^]@@@@_}}_@@@@_}->####+;#$&",
"$')$#> )&$##$&)%%%%*>+:'eeeeeeeeeeee~({##>-->-;@@;-##>-->##+;#/&",
"%)&$#-=')$##$)'$$$$=->*)&)'')eeeeee/,{~$/*==*=-@@-=$$*== $$=-#$&",
"$/$=--=')$#-=*=....,{.'&)'$$')&))%%*>>*%%'$$%$#@@#$&)'$$%&&$#-=$",
"###+;>*)&$#;+>-++++{~'))'$  $'))'$$=--=$/$*/%/#@@#/)'$*$%&&/#;+#",
"@@@@@#$&&$#@@@@@@@@#$&&%$    $%%$  .++.    $%$#@@#$%$  $%&&$#@@@"};
