/* XPM */
static char * up_4_xpm[] = {
"64 64 716 2",
"  	c #505052",
". 	c #6C6C6C",
"+ 	c #646464",
"@ 	c #5E5E5E",
"# 	c #5D5D5D",
"$ 	c #5C5C5C",
"% 	c #5B5B5B",
"& 	c #5A5A5A",
"* 	c #5A5A5C",
"= 	c #555557",
"- 	c #5C5C5E",
"; 	c #5F5F5F",
"> 	c #595959",
", 	c #4E4E4E",
"' 	c #6B6B6B",
") 	c #6D6D6D",
"! 	c #636363",
"~ 	c #595A5C",
"{ 	c #58595B",
"] 	c #535456",
"^ 	c #5D5E5D",
"/ 	c #5C5E5D",
"( 	c #5D5E60",
"_ 	c #5C5D5F",
": 	c #5C5D5E",
"< 	c #5B5D5D",
"[ 	c #5B5D5C",
"} 	c #515153",
"| 	c #616161",
"1 	c #5B5A5D",
"2 	c #5B5B5D",
"3 	c #626262",
"4 	c #606060",
"5 	c #5B5C5C",
"6 	c #5A5B5D",
"7 	c #575757",
"8 	c #686868",
"9 	c #5F6160",
"0 	c #5E605F",
"a 	c #5D5F5E",
"b 	c #525253",
"c 	c #5F6060",
"d 	c #5E5F5F",
"e 	c #5D5E5E",
"f 	c #5C5D5D",
"g 	c #5C5D5C",
"h 	c #5B5C5B",
"i 	c #5A5B5B",
"j 	c #545456",
"k 	c #656566",
"l 	c #5C5C5D",
"m 	c #5B5B5C",
"n 	c #5A595D",
"o 	c #58575D",
"p 	c #4C4A52",
"q 	c #5D5C62",
"r 	c #636367",
"s 	c #5E5D5F",
"t 	c #5A5B5C",
"u 	c #595A5B",
"v 	c #535555",
"w 	c #565857",
"x 	c #6A6B6A",
"y 	c #626463",
"z 	c #5A5C5C",
"A 	c #535353",
"B 	c #646665",
"C 	c #5C5F5E",
"D 	c #5A5C5B",
"E 	c #656666",
"F 	c #5B5B5E",
"G 	c #575560",
"H 	c #524F62",
"I 	c #4E4A68",
"J 	c #48436F",
"K 	c #423D6F",
"L 	c #4A4673",
"M 	c #504C70",
"N 	c #555265",
"O 	c #5B5A60",
"P 	c #5E5E5F",
"Q 	c #595B5A",
"R 	c #535554",
"S 	c #545655",
"T 	c #616362",
"U 	c #606261",
"V 	c #5B5C5E",
"W 	c #545454",
"X 	c #5B5C5D",
"Y 	c #545364",
"Z 	c #494475",
"` 	c #423E7F",
" .	c #413F85",
"..	c #403F8B",
"+.	c #3F3F8D",
"@.	c #40408C",
"#.	c #424088",
"$.	c #45417D",
"%.	c #4D496D",
"&.	c #585661",
"*.	c #5D5D5E",
"=.	c #585A59",
"-.	c #555756",
";.	c #5F6260",
">.	c #5A5C5D",
",.	c #595B5B",
"'.	c #636464",
").	c #5C5E5E",
"!.	c #5B5D5E",
"~.	c #555561",
"{.	c #494575",
"].	c #41408A",
"^.	c #3F4190",
"/.	c #3F4191",
"(.	c #3F408E",
"_.	c #423F83",
":.	c #4E4B6E",
"<.	c #59595F",
"[.	c #5A5B5A",
"}.	c #525453",
"|.	c #555656",
"1.	c #626362",
"2.	c #555555",
"3.	c #545556",
"4.	c #57585A",
"5.	c #5F6161",
"6.	c #5A5A60",
"7.	c #4E4B6B",
"8.	c #424083",
"9.	c #3F4090",
"0.	c #3F3F8E",
"a.	c #46437F",
"b.	c #514F6A",
"c.	c #595A5E",
"d.	c #515352",
"e.	c #555655",
"f.	c #5D605F",
"g.	c #5A5D5C",
"h.	c #595A5D",
"i.	c #58595C",
"j.	c #565759",
"k.	c #555362",
"l.	c #474377",
"m.	c #46447A",
"n.	c #575958",
"o.	c #505251",
"p.	c #5F605F",
"q.	c #565656",
"r.	c #585A5B",
"s.	c #58595A",
"t.	c #57595A",
"u.	c #504D62",
"v.	c #423F7E",
"w.	c #3F408F",
"x.	c #3F4192",
"y.	c #414086",
"z.	c #4C496D",
"A.	c #57575D",
"B.	c #575857",
"C.	c #4D4F4E",
"D.	c #5E5F5E",
"E.	c #505050",
"F.	c #545557",
"G.	c #4C4968",
"H.	c #403E84",
"I.	c #3F3F8F",
"J.	c #45417A",
"K.	c #535160",
"L.	c #575858",
"M.	c #525252",
"N.	c #4B4B4B",
"O.	c #4C4C4C",
"P.	c #595A5A",
"Q.	c #484848",
"R.	c #454545",
"S.	c #4D4E50",
"T.	c #4F5052",
"U.	c #54535A",
"V.	c #484471",
"W.	c #3E3D8A",
"X.	c #3E3981",
"Y.	c #3D3378",
"Z.	c #3E367C",
"`.	c #3E3C87",
" +	c #3E3B85",
".+	c #3E377E",
"++	c #3F3E8C",
"@+	c #413D80",
"#+	c #4E4B61",
"$+	c #575959",
"%+	c #4F5150",
"&+	c #494949",
"*+	c #555658",
"=+	c #464646",
"-+	c #4A4A4A",
";+	c #4D4D4D",
">+	c #4E504F",
",+	c #4D4F4F",
"'+	c #4E4F50",
")+	c #4C4E50",
"!+	c #4A4B4D",
"~+	c #4C4D4F",
"{+	c #4D4E4E",
"]+	c #4F5050",
"^+	c #515353",
"/+	c #525354",
"(+	c #535257",
"_+	c #534F5A",
":+	c #4D475A",
"<+	c #433D74",
"[+	c #3F3E88",
"}+	c #3E387F",
"|+	c #3D3071",
"1+	c #3C2A66",
"2+	c #3C255C",
"3+	c #3C2760",
"4+	c #3D2F6F",
"5+	c #3D2F6E",
"6+	c #3C2862",
"7+	c #3C2D6A",
"8+	c #3E3881",
"9+	c #403C81",
"0+	c #4B475F",
"a+	c #4E4F51",
"b+	c #4E4F4F",
"c+	c #4C4D4D",
"d+	c #4C4D4C",
"e+	c #4A4B4B",
"f+	c #4A4B4A",
"g+	c #4F4F4F",
"h+	c #505151",
"i+	c #525353",
"j+	c #525355",
"k+	c #505153",
"l+	c #515151",
"m+	c #666666",
"n+	c #5D5D5F",
"o+	c #565658",
"p+	c #4B4B4D",
"q+	c #535355",
"r+	c #5F5E60",
"s+	c #5D5D60",
"t+	c #595465",
"u+	c #53446A",
"v+	c #4D3868",
"w+	c #433775",
"x+	c #3D2C69",
"y+	c #3C245A",
"z+	c #3C2257",
"A+	c #3C2156",
"B+	c #3C2359",
"C+	c #3C2256",
"D+	c #3D3070",
"E+	c #3F3C87",
"F+	c #413D81",
"G+	c #504C63",
"H+	c #585859",
"I+	c #6A6A6A",
"J+	c #656565",
"K+	c #5F6062",
"L+	c #575759",
"M+	c #4F4F51",
"N+	c #5F5F61",
"O+	c #5E5E61",
"P+	c #513D6C",
"Q+	c #4D2C6E",
"R+	c #462E75",
"S+	c #402E70",
"T+	c #3C245C",
"U+	c #3F215A",
"V+	c #3F215C",
"W+	c #3D2157",
"X+	c #3C2155",
"Y+	c #3D3479",
"Z+	c #3F3F8C",
"`+	c #474747",
" @	c #676767",
".@	c #5E5F61",
"+@	c #626263",
"@@	c #5E5E60",
"#@	c #5C5A62",
"$@	c #575066",
"%@	c #53406B",
"&@	c #4E2D70",
"*@	c #46256A",
"=@	c #3F225C",
"-@	c #40225D",
";@	c #462267",
">@	c #452266",
",@	c #3F215B",
"'@	c #3D2B67",
")@	c #413C7E",
"!@	c #585858",
"~@	c #5D5F5F",
"{@	c #5D5E5F",
"]@	c #616060",
"^@	c #5E6060",
"/@	c #606161",
"(@	c #5D5B60",
"_@	c #745D6C",
":@	c #7C5275",
"<@	c #5E3370",
"[@	c #482469",
"}@	c #45266B",
"|@	c #46286D",
"1@	c #442364",
"2@	c #3E2159",
"3@	c #423B73",
"4@	c #524E61",
"5@	c #4F504F",
"6@	c #5E5F60",
"7@	c #715E62",
"8@	c #AC8081",
"9@	c #C49395",
"0@	c #9A6782",
"a@	c #5F3473",
"b@	c #413071",
"c@	c #3A2D69",
"d@	c #3D235B",
"e@	c #3F2255",
"f@	c #492657",
"g@	c #4A2A5D",
"h@	c #4B3D61",
"i@	c #57545D",
"j@	c #806569",
"k@	c #C89592",
"l@	c #E6A9A2",
"m@	c #CD848D",
"n@	c #855279",
"o@	c #3F3870",
"p@	c #332B65",
"q@	c #3A225A",
"r@	c #3D2459",
"s@	c #3D265A",
"t@	c #3C2255",
"u@	c #3B2256",
"v@	c #4D2D5A",
"w@	c #814565",
"x@	c #874664",
"y@	c #66495D",
"z@	c #5B585C",
"A@	c #585A5A",
"B@	c #545554",
"C@	c #505150",
"D@	c #7E6768",
"E@	c #BF8988",
"F@	c #E39795",
"G@	c #DA888C",
"H@	c #94637E",
"I@	c #504981",
"J@	c #484483",
"K@	c #443973",
"L@	c #464178",
"M@	c #48467F",
"N@	c #42356A",
"O@	c #402C61",
"P@	c #433667",
"Q@	c #5E4A6F",
"R@	c #A36980",
"S@	c #B86C7B",
"T@	c #8B5E67",
"U@	c #615C5D",
"V@	c #58585A",
"W@	c #675F5F",
"X@	c #91676C",
"Y@	c #C4787E",
"Z@	c #C77B86",
"`@	c #89668D",
" #	c #5D5EA4",
".#	c #5B5EAD",
"+#	c #5960A3",
"@#	c #5D6AA8",
"##	c #5D6BAB",
"$#	c #535B98",
"%#	c #4D4C8B",
"&#	c #595B93",
"*#	c #636487",
"=#	c #917084",
"-#	c #BD7786",
";#	c #A0666F",
">#	c #695D5E",
",#	c #675C5E",
"'#	c #956571",
")#	c #AC718A",
"!#	c #886DA7",
"~#	c #696FB8",
"{#	c #6674B9",
"]#	c #6374B5",
"^#	c #6173B5",
"/#	c #6072B5",
"(#	c #5E6EB1",
"_#	c #5D68AE",
":#	c #6269B2",
"<#	c #666A9D",
"[#	c #75697C",
"}#	c #966979",
"|#	c #88616A",
"1#	c #635D5D",
"2#	c #565758",
"3#	c #5A5B5F",
"4#	c #675F75",
"5#	c #78628A",
"6#	c #7266AD",
"7#	c #727CBE",
"8#	c #697AB9",
"9#	c #5A6DB2",
"0#	c #5569B1",
"a#	c #5669B1",
"b#	c #5B6EB2",
"c#	c #6575B8",
"d#	c #646DB9",
"e#	c #6568A9",
"f#	c #66667E",
"g#	c #6A5D65",
"h#	c #665B5F",
"i#	c #5C5C5B",
"j#	c #5A5B5E",
"k#	c #5B5F6E",
"l#	c #5F6084",
"m#	c #6665AD",
"n#	c #727EBE",
"o#	c #6375B7",
"p#	c #5468B0",
"q#	c #576BB1",
"r#	c #6374B6",
"s#	c #656FBA",
"t#	c #6569AB",
"u#	c #64677E",
"v#	c #4C4E4D",
"w#	c #5B5D62",
"x#	c #656889",
"y#	c #6B6DB5",
"z#	c #7380C0",
"A#	c #6476B7",
"B#	c #586BB2",
"C#	c #6475B7",
"D#	c #6567AA",
"E#	c #606381",
"F#	c #5B5C67",
"G#	c #525352",
"H#	c #4B4D4C",
"I#	c #585958",
"J#	c #585959",
"K#	c #5A5A5D",
"L#	c #646888",
"M#	c #6D70B5",
"N#	c #7783C3",
"O#	c #6D7EBC",
"P#	c #5D70B4",
"Q#	c #586CB2",
"R#	c #6C7BBB",
"S#	c #6770BB",
"T#	c #5E61A8",
"U#	c #525480",
"V#	c #50546E",
"W#	c #585B63",
"X#	c #4A4C4B",
"Y#	c #515251",
"Z#	c #525254",
"`#	c #5C5F73",
" $	c #6A6EA8",
".$	c #747BC0",
"+$	c #7481C0",
"@$	c #6B7BBA",
"#$	c #6375B6",
"$$	c #6978BA",
"%$	c #6974BC",
"&$	c #6868B6",
"*$	c #5D579A",
"=$	c #414377",
"-$	c #425179",
";$	c #4E5C71",
">$	c #555A5F",
",$	c #565756",
"'$	c #565757",
")$	c #464847",
"!$	c #4B4C4B",
"~$	c #4B4C4C",
"{$	c #49494A",
"]$	c #544D56",
"^$	c #775D84",
"/$	c #816BAE",
"($	c #7572BB",
"_$	c #6A71BB",
":$	c #666EBA",
"<$	c #676EBA",
"[$	c #6C6DB9",
"}$	c #7566B5",
"|$	c #835CA2",
"1$	c #734C82",
"2$	c #485081",
"3$	c #42628F",
"4$	c #4A668D",
"5$	c #59657E",
"6$	c #5A5D63",
"7$	c #555657",
"8$	c #565659",
"9$	c #494B4A",
"0$	c #5B5C5F",
"a$	c #4A4B4C",
"b$	c #666768",
"c$	c #656667",
"d$	c #646566",
"e$	c #616264",
"f$	c #6A585B",
"g$	c #9F5665",
"h$	c #AA5981",
"i$	c #965E9C",
"j$	c #8760A8",
"k$	c #8460AA",
"l$	c #8660A9",
"m$	c #925D9E",
"n$	c #A1568B",
"o$	c #A94972",
"p$	c #8E4970",
"q$	c #59608D",
"r$	c #4A6C9B",
"s$	c #617AAA",
"t$	c #6B79A1",
"u$	c #5D6272",
"v$	c #545555",
"w$	c #515152",
"x$	c #474848",
"y$	c #555556",
"z$	c #636362",
"A$	c #626365",
"B$	c #636365",
"C$	c #756466",
"D$	c #B1686C",
"E$	c #C6626A",
"F$	c #C05A6F",
"G$	c #B65072",
"H$	c #B0496F",
"I$	c #B1486E",
"J$	c #B74462",
"K$	c #BC3B4E",
"L$	c #BB3544",
"M$	c #A1445D",
"N$	c #706388",
"O$	c #6275A0",
"P$	c #7281B0",
"Q$	c #707CA2",
"R$	c #5E6473",
"S$	c #555758",
"T$	c #6E6E6E",
"U$	c #666769",
"V$	c #646567",
"W$	c #606163",
"X$	c #636466",
"Y$	c #626364",
"Z$	c #6C6164",
"`$	c #935B64",
" %	c #B15E67",
".%	c #C4646A",
"+%	c #C2555C",
"@%	c #C1474F",
"#%	c #C94F55",
"$%	c #D05D61",
"%%	c #D15F62",
"&%	c #C55155",
"*%	c #A54B54",
"=%	c #7A6172",
"-%	c #6A6F85",
";%	c #6B728A",
">%	c #696F81",
",%	c #63666C",
"'%	c #5F6061",
")%	c #555454",
"!%	c #696969",
"~%	c #5F5F60",
"{%	c #5F595A",
"]%	c #714552",
"^%	c #853D51",
"/%	c #9A4C5B",
"(%	c #B05B62",
"_%	c #CE6A6D",
":%	c #D66C6E",
"<%	c #D76C6E",
"[%	c #D56C6E",
"}%	c #BC5C5F",
"|%	c #8B5557",
"1%	c #685C5E",
"2%	c #5D5F62",
"3%	c #5C5F60",
"4%	c #5B5E5D",
"5%	c #5E595A",
"6%	c #6D414F",
"7%	c #752C48",
"8%	c #7D304A",
"9%	c #9F4554",
"0%	c #C6595F",
"a%	c #CB5358",
"b%	c #C6454C",
"c%	c #BE484D",
"d%	c #9B5053",
"e%	c #6C5A5A",
"f%	c #575656",
"g%	c #646363",
"h%	c #742B48",
"i%	c #772847",
"j%	c #8E2D45",
"k%	c #B33240",
"l%	c #BE2E3A",
"m%	c #BC2B37",
"n%	c #AB3C43",
"o%	c #7F5254",
"p%	c #5F5B5C",
"q%	c #505152",
"r%	c #595A59",
"s%	c #5A5A5B",
"t%	c #6C4250",
"u%	c #742C48",
"v%	c #752847",
"w%	c #812844",
"x%	c #A5273C",
"y%	c #B72636",
"z%	c #B82C38",
"A%	c #A14247",
"B%	c #705758",
"C%	c #565858",
"D%	c #5D5959",
"E%	c #694853",
"F%	c #71344B",
"G%	c #73304A",
"H%	c #782E48",
"I%	c #8C2A43",
"J%	c #99293F",
"K%	c #A32F40",
"L%	c #92464C",
"M%	c #6A5959",
"N%	c #60555A",
"O%	c #664C55",
"P%	c #674853",
"Q%	c #6A4351",
"R%	c #6F3C4C",
"S%	c #713548",
"T%	c #783F4C",
"U%	c #704F54",
"V%	c #5F5B5B",
"W%	c #5C5E5C",
"X%	c #5A595B",
"Y%	c #5A575A",
"Z%	c #5C5658",
"`%	c #5E5255",
" &	c #57484D",
".&	c #5E5457",
"+&	c #5C595A",
"@&	c #595B5C",
"#&	c #4E5051",
"$&	c #484A49",
"%&	c #484B4A",
"&&	c #585A5C",
"*&	c #545756",
"=&	c #515254",
"-&	c #414141",
";&	c #444444",
">&	c #515252",
",&	c #535454",
"'&	c #4E4F4E",
")&	c #525454",
"!&	c #505252",
"~&	c #434343",
"{&	c #575657",
"]&	c #59595B",
"^&	c #575859",
"/&	c #464749",
"(&	c #606062",
"_&	c #5D5E61",
":&	c #656766",
"<&	c #555757",
"[&	c #48494B",
"}&	c #535453",
"|&	c #626363",
"1&	c #545656",
"2&	c #616162",
"3&	c #4C4C4D",
"4&	c #575A5A",
"5&	c #535455",
"6&	c #565957",
"7&	c #4D4E4D",
"8&	c #646564",
"9&	c #5C5E5F",
"0&	c #636564",
"a&	c #515255",
"b&	c #57585B",
"c&	c #56585A",
"d&	c #555759",
"e&	c #535457",
"f&	c #525356",
"g&	c #4C4D4E",
"h&	c #575758",
"i&	c #4D4D4F",
"j&	c #4B4C4E",
"k&	c #4D4D4E",
"l&	c #565657",
"m&	c #4A4A4C",
"n&	c #565859",
"o&	c #595B5D",
"p&	c #545657",
"q&	c #4E4E4F",
"r&	c #5F6163",
"s&	c #505154",
"t&	c #505254",
"u&	c #515253",
"v&	c #4F5251",
"w&	c #474948",
"x&	c #505051",
"y&	c #606061",
"z&	c #4A4A4B",
"A&	c #636465",
"B&	c #545455",
"C&	c #4F5051",
"D&	c #59595A",
"E&	c #59595C",
"F&	c #565558",
"G&	c #606160",
"  . + @ # # $ $ $ % & & & * = - @ ; ; ; ; @ @ @ @ # # $ & > , ; ' ) ' ! ; ; @ @ # # # $ $ % % ~ { ] > # ^ / / / ( _ : < [ [ [ [ ",
"} ' | @ @ @ # $ $ $ $ % % 1 = 2 3 @ ; @ @ @ @ @ @ # # $ % % , | ' ' ! 4 ; ; @ @ @ # $ $ $ $ 5 6 ~ ] 7 ; 8 9 0 a ( ( _ / [ [ [ [ ",
"b 8 c d e ^ f g 5 g 5 h i 6 j 2 k @ ; @ a e e e e # l m n o p q r s ; ; @ @ @ @ # # $ $ $ $ 5 t u v w x y a a a ( _ _ / [ [ < z ",
"A B / C / / / [ [ [ D D D 6 ] ~ E ; @ a a a a C / F G H I J K L M N O P @ @ @ # $ # $ $ $ % % D Q R S T U [ a a _ _ _ [ [ [ V V ",
"W B / / / / [ [ [ [ D D Q ~ ] ~ + ; @ a a a a / X Y Z `  ...+.@.#.$.%.&.*.@ @ # # # $ $ % % i Q =.R -.T ;./ / / _ _ V / f [ V 6 ",
"W U / / / / [ X X >.t ,.u ~ ] { '.d d a a / ).!.~.{.].^./././././.(._.:.<.^ ^ f g g 5 h i i [.Q Q }.|.1.U / / / V V V z z >.6 ~ ",
"2.0 [ [ [ [ < V V 6 6 ~ ~ ~ 3.4.5.0 a / / / _ 6.7.8.9./././././././.0.a.b.c./ [ [ [ D D D Q Q =.=.d.2.! 4 / [ [ V V V 6 6 6 6 6 ",
"e.f.g.D D D z 6 6 h.h.i.{ 4.] j.).9 / / / [ V k.l.@./././././././././.@.m.Y z [ [ D D D D =.=.n.n.o.2.! p.[ [ D 6 2 V 6 6 ~ ~ ~ ",
"q./ 5 D D Q Q ,.,.,.r.s.t.4.] j.[ a [ / / D t u.v.w././.x.x./././././.^.y.z.A.D D Q Q Q =.=.=.n.B.C.A ! D.D Q Q ,.,.u ~ ~ ~ { { ",
"E.> & & Q Q Q Q =.=.=.n.n.4.] F.5 [ [ [ [ D { G.H.9./.9.0.I.^.9.I.w.^./.+.J.K.,.D Q Q Q =.n.L.2.M.N.O.$ P.Q =.=.=.=.=.{ { { { { ",
"Q.R.A q.-.w w w w -.-.-.-.] S.T.D D D D D Q U.V...0.W.X.Y.Z.`. +.+X.++/.^.@+#+$+=.n.n.n.w R %+M.M.&+&+E.2.n.w w -.w -.*+*+*+*+j.",
"=+-+;+, >+>+C.,+'+'+,+'+C.)+!+~+{+]+^+/+(+_+:+<+[+}+|+1+2+3+4+5+6+7+8+(./.9+0+a+b+{+c+c+d+e+f+&+Q.Q.-+g+h+o.d.^+i+}.}.j+] ] j+k+",
"l+) m+| a / / _ V V V 6 _ n+o+p+q+* r+s+t+u+v+w+.+x+y+z+A+A+B+B+C+y+D+E+9.F+G+H+q.W A l+, -+&+&+Q.Q.-+A W S -.w j.j.j.j.{ { j.j.",
"W I+. J+T U 5.K+K+( ( _ _ n+L+M+- n+N+O+t+P+Q+R+S+T+A+U+V+W+X+X+X+A+3+Y+Z+@+G+m $ % % % & q.l+E.;+`+g+|  @y 9 / ( .@6 V V 6 6 6 ",
"q.I+8 | 9 9 c .@.@( ( ( _ n+H+  +@@@@@( #@$@%@&@*@=@-@;@>@,@X+X+X+X+z+'@X.)@G+m $ % % % & P.> !@q.;+l+ @| e ~@{@_ V V V V 6 6 6 ",
"q.' J+]@9 9 ^@.@( ( ( _ _ e > E./@a a ( ( (@_@:@<@[@}@|@1@2@X+X+X+X+X+y+5+3@4@m 5 D D D Q =.=.n.w 5@l+m+D.( ( ( _ _ _ V V V 6 6 ",
"q.I+3 4 0 0 0 6@( ( ( _ _ *.> l+U / / _ _ 7@8@9@0@a@b@c@d@A+X+X+X+X+e@f@g@h@i@$ h D D D Q =.=.-.S %+l+J+P ( _ _ _ _ V V V 6 6 ~ ",
"q.8 4 4 p.0 0 6@( ( ( _ _ *.> l+U / / )._ j@k@l@m@n@o@p@q@r@s@C+t@u@v@w@x@y@z@$ D D D ,.,.A@=.R B@C@E.J+P ( _ _ _ _ V V V 6 6 6 ",
"q.J+; ; ; @ @ a a ~@_ _ _ l !@E.9 / / / / D@E@F@G@H@I@J@K@L@M@N@O@P@Q@R@S@T@U@[ g.D [ ,.~ i.V@2.2.l+E.+ *.( _ _ ( V V V V 6 6 6 ",
"q.3 ; @ @ @ @ a a / _ _ _ f !@E.9 / / [ [ W@X@Y@Z@`@ #.#+#@###$#%#&#*#=#-#;#>#[ D Q D ,.i.{ L+W W l+E.! *._ _ V V V V 6 6 6 ~ ~ ",
"2.; # ; @ @ @ a e / _ _ _ f !@E.9 / [ [ [ [ ,#'#)#!#~#{#]#^#/#(#_#:#<#[#}#|#1#D D Q Q P.{ t.2#W W E.E.! *._ V V V V V 6 6 6 ~ ~ ",
"2.# ; + d a )._ _ _ _ V V [ n.>+0 D D D D D 3#4#5#6#7#8#9#0#a#b#c#d#e#f#g#h#i#D D Q =.=.n.w R A W E.g+! f V V V V V 6 ~ ~ ~ ~ { ",
"W # 3 3 e / ).V _ _ V V 6 5 n.C.a D D Q D D j#k#l#m#n#o#0#p#p#q#r#s#t#u#@@i#D Q Q Q Q w R d.i+M.A E., | 5 6 6 6 6 6 ~ 6 ~ { { { ",
"A $ $ $ / [ < V V V V 6 6 z n.v#/ g.D Q Q =.,.w#x#y#z#A#0#p#p#B#C#s#D#E#F#F D Q Q Q =.=.Q =.R G#i+E.;+3 i 6 6 6 6 6 ~ { { { { { ",
"A # % $ [ [ < V V V 6 6 6 i w H#W > > I#n.=.J#K#L#M#N#O#P#q#Q#/#R#S#T#U#V#W#,.Q Q =.=.s.4.{ /+o.d.C@;+3 m ~ ~ ~ ~ ~ ~ { { { 4.4.",
"l+% $ g [ [ [ V V V 6 ~ 6 ,.w X#;+, l+Y#o.}.G#Z#`# $.$+$@$#$A#$$%$&$*$=$-$;$>$A@=.=.=.$+j.4.3.}.}.C.&+; P.~ { ~ { { { { { 4.4.j.",
"{+l+|.,$'$'$-.j.j.j.*+] F.v C.)$;+, O.!$X#X#~${$]$^$/$($_$:$<$[$}$|$1$2$3$4$5$6$$+n.n.w j.*+7$S d.)$&+;+W F.F.F.F.F.F.*+j.8$*+F.",
"-+9$-.f _ _ _ 0$V 6 6 6 V u o+a$J+m+m+b$c$d$e$.@f$g$h$i$j$k$l$m$n$o$p$q$r$s$t$u$v$A M.l+w$M.E.;+Q.x$&+;+M.y$!@H+4.4.4.*+F.] ] ] ",
", }.a D.( ( ( ( ( _ _ _ _ _ * } 3 ! z$A$e$e$e$B$C$D$E$F$G$H$I$J$K$L$M$N$O$P$Q$R$S$7 q.q.q.2.l+, &+`+l+) T$) . ' U$V$e$W$.@( ( V ",
"g+0 0 a ( ( ( _ _ _ ( _ _ - * } +@+ J+V$V$X$A$Y$Z$`$ %.%+%@%#%$%%%&%*%=%-%;%>%,%'%c ; @ # @ # % !@&+)%. !%! ; ~%( _ V _ _ _ V V ",
"g+0 9 ).( ( ( ( _ _ _ V V 2 & E.4 @ @ a e / / / {%]%^%/%(%_%:%<%[%}%|%1%2%2%3%4%[ D D t ~ ~ ~ 4.4.M+2.' ; a a a a a / / f a V V ",
", w 0 e ( ( _ _ _ _ V V V $ > g+; @ @ a a / / / 5%6%7%8%9%0%a%b%c%d%e%g [ [ [ D D D D t ~ ~ { { 4.T.f%g%d a a a a / / a / / V V ",
"5@/ 0 e ( ( _ _ _ _ V V V 5 > , ; @ @ a a / / [ 5%6%h%i%j%k%l%m%n%o%p%[ [ [ [ D D D D t ~ { { { 4.q%q.+ d a a a / / / / [ [ V V ",
", r%d @ / ).).< < < V 6 6 s%> , 4 @ @ ^ / / / / {%t%u%v%w%x%y%z%A%B%[ V X X [ D D D Q Q Q P.$+$+C%%+|.1.a a / / : _ 0$V V V 6 6 ",
"O.7 @ # / / / [ [ [ V 6 6 s%!@N.4 # @ ^ / / / / D%E%F%G%H%I%J%K%L%M%X V V >.[ D D D Q Q Q =.=.n.-.%+S U a a / / _ V V V V 6 6 6 ",
"-+2.# % [ [ [ [ [ [ 6 6 6 i !@-+3 # # / / [ [ [ $ N%O%P%Q%R%S%T%U%V%X 6 6 t D Q Q Q Q Q =.=.=.w S %+}.9 / / W%/ V V V V 6 6 6 h.",
"-+W $ % h h h D D D D D ,.Q n.9$T a g f [ [ V >.>.6 X%Y%Z%`% &.&+&Q @&~ ~ @&D Q Q =.=.=.n.n.$+*+F.#&l+| f V V V _ V V V 6 6 6 6 ",
"&+M.% & % % % D D Q D Q =.=.n.$&a / [ D D [ t ~ 6 ~ { { A@w H#Q D Q u ~ ~ u =.n.=.=.=.=.n.n.C%] j+a+g+3 $ V V V 6 V V ~ 6 ~ ~ ~ ",
"R.g+& & % & & D D Q Q =.=.n.-.9$}.[ [ D D D ,.~ ~ ~ { { =.S %&n.=.=.A@&&{ A@n.-.-.-.*&*&w w C%] =&'+;+| 5 V V V 6 6 6 6 6 ~ ~ ~ ",
"-&;&!@!@7 > & Q D Q Q =.=.I#>&N.{+r%i D D D D Q =.Q n.J#B@f+, A >&>&M.i+,&i+l+'&'&b+g+g+B@'$'$)&!&,+;+@ i V 6 6 6 6 ~ ~ ~ ~ { { ",
"~&R.A W 2.W 7 =.n.n.n.R }.E.N.N.O.q.I#=.=.Q =.=.=.=.w }.N.&+N.M.M.E.l+l+l+E.E.g+g+g+g+g+, E.A }.d.H#N.q.m ~ 6 6 6 6 ~ ~ { 4.{ { ",
";&g+q.q.7 7 {&n.w -.-.}.v#N.-+-+g+l+>&o.o.d.!&o.%+%+C.v#H#`+=+-+E.l+l+E.E.E.E.l+l+M.M.M.l+g+b+>+v#$&&+, i+j+j+j+j+j+j+j+j+j+=&k+",
"=+9 [ P.,.t X !.X X >.>.z 2., O.5 ^ e ).: V V V 6 ,.r.r.s.{ S.i+Q =.P.u ~ ]&{ s.{ u s.s.{ ^&2#] a$/&m (&N+_&( ( _ _ _ V V V ~ { ",
"5@:&0 d ( _ V V V _ V 6 6 !@l+E./ / D 6 X V V V 6 ~ ~ 6 ~ { =&<&Q =.r.~ ~ ~ 6 { { { ~ ~ { { { 6 ] [&2 * - _ _ V V V 6 6 6 ~ ~ ~ ",
"}&y 0 0 .@_&( .@_ V V ( 6 & 2.E./ / [ V V 6 6 6 6 ~ ~ ~ { { k+7$=.=.s.{ ~ ~ 6 ~ ~ ~ ~ ~ { { { W$4.!+N+n+- V V V V V 6 6 6 ~ ~ { ",
"A |&d d ( ( ( ( ( ( _ V ~ P.,$h+/ / D 6 6 6 6 6 6 ~ ~ ~ { { T.1&=.=.A@u <&,.,.,.,.~ ~ ~ { { { 2&o+3&e < < V V V V V 6 6 6 ~ ~ ~ ",
"l+4 ; ; ( ( ( ( ( ( _ _ { 4&w %+/ [ D 6 6 6 6 6 6 ~ ~ { { { T.5&n.C%n.n.R Q Q Q ,.~ ~ ~ { { s.!@2.O.a [ [ V V V V V 6 6 6 { ~ ~ ",
"2.+ @ @ ( ( ( _ _ _ _ _ r.=.-.>+[ [ D 6 6 6 ~ ~ ~ ~ ~ { { { a+v 6&-.-.o.v#w =.Q ,.~ ~ ~ { 4.^&7 2.7&a [ < V V V 6 6 6 ~ ~ ~ { { ",
"2.8&e a ~@{@9&_ _ _ V V { n.S >+[ D Q 6 6 ~ ~ ~ ~ ~ { { 4.4.a+j+2#3.q%^&t 5&=.=.P.~ ~ { { { 4.j.3.~+~@[ < 6 V 6 6 6 ~ ~ ~ ~ { { ",
"W 0&a a a a / _ _ _ V V 4.C%S >+D D Q 6 6 ~ ~ ~ ~ ~ 4.4.j.4.a+j+j.a&b&h.~ s.n.=.A@{ { { { 4.c&d&e&~+a [ 5 6 6 6 6 6 ~ ~ { { 4.4.",
"W B / / / / )._ _ V V 6 4.w R C.D D Q ~ ~ ~ { { { { { 4.j.j.S.=&] F.6 ~ ~ ,.n.=.A@{ 4.4.4.j.j.F.f&g&0 D z 6 ~ ~ ~ ~ ~ { { 4.4.4.",
"}&B / / [ [ < V V V V 6 4.'$R v#D D Q ~ ~ { { { { { { 4.L+h&3&i&j&j+~ ~ { u C%A@s.s.^&^&^&L.'$y$5&k&@ i i ,.,.,.,.A@P.s.s.^&4.4.",
"R a [ [ [ [ < V V V 6 ~ *+'$R H#Q Q n.{ { { { 4.j.j.j.j.l&2.&+m&S.T.4.{ { 4.j.j.n&w -.-.-.-.S A l+N.@ & [.Q Q Q Q =.=.n.n.[ 2#F.",
">+0 / [ D D D 6 6 6 o&~ 2#w d.$&R S R p&F.] ] ] j+k+k+k+q&R.`+a$r&j#k+k+k+k+s&t&u&o.%+%+>+>+C.;+N.-+E.E.M.o.o.v&v&%+v&v&o.!&T.T.",
"9$]+v$,$'$w =.P.* t l m i+'&e+w&{+B@r%A@{ { { { ~ ~ ~ ~ s%% q&x&s%y&{@: X 5 5 l X 5 < n.R }.,&W q&z&N.4 m+8&0&'.+ 8&+ + '.'.A&X$",
"N.E.% $ $ $ % & > > > > > 2.O.`+& $ % X 6 V V V 6 6 6 6 6 ]&M+x&% % g [ D D % % s%~ ~ J#W W B&j j m&2.' ; # # # # # # # @ *.n+n+",
"O.& $ # $ $ $ % % % % & & > 7 , $ % % X V V 6 6 6 6 6 6 * * } l+& $ [ [ [ 5 % % t 6 ~ ,.7 2.y$= = x&$ ) @ # # # # # $ $ $ $ 2 2 ",
"}&D.5 g [ [ [ [ D D t t u ]&s.C&i i h [ X X z t t t t 6 * * } 3.B f [ [ [ [ 5 D i t ,.,.H+= = = = b # ) @ # # # # f f g [ [ m m ",
",&/ [ [ [ [ [ [ D D 6 6 ~ { { a+A@U D [ [ D D D D D D Q s%K#} v$B / [ [ [ [ [ D D D Q P.{ *+*+= = } # ' @ # # # / / / / D [ % & ",
"A [ [ [ [ [ D D D D ~ ~ { 4.4.a+=.T D [ D D D D D D D Q D&E&Z#<&0&/ [ [ [ [ [ D D D Q Q ~ j.= o+F&} # ' # # # # / / / [ [ D h & ",
"A =.[ [ [ D D t z z ~ ~ { 4.j.~+5 G&D D D D D D D D i ,.s.]&Z#v$a [ [ [ [ [ < z D i Q u { j.*+o+o+} # I+# # # # / f f [ [ D m i ",
"W =.[ [ D D [ 6 6 6 ~ ~ { 4.j.~+% % i D D D D D D t ~ ~ r.{ =&3.a [ D [ [ < V 6 6 ~ ~ { { j.*+o+o+Z#@ I+# # # # $ $ $ [ [ D 6 6 ",
"Y#=.[ D D D z 6 6 6 ~ ~ { 4.j.j&& $ % D D D D D D ,.~ { { { T.|.a [ [ D [ [ 6 6 6 ~ { { { j.*+o+o+Z#; !%$ # # # $ $ $ [ [ D @&~ ",
"Y#n.D D D D z 6 6 6 ~ ~ { 4.4.!+J#% % D D D D D D ~ ~ { s.s.T.v$/ D D z 5 z 6 6 ~ ~ { { { 4.*+o+o+Z#4 8 # # # # $ $ $ [ [ D ~ ~ "};
