/* XPM */
static char * back_1_xpm[] = {
"64 64 552 2",
"  	c #5B5D5C",
". 	c #5F6160",
"+ 	c #616362",
"@ 	c #626463",
"# 	c #636564",
"$ 	c #626362",
"% 	c #626262",
"& 	c #616161",
"* 	c #5E5E5E",
"= 	c #525252",
"- 	c #4D4D4D",
"; 	c #595A59",
"> 	c #666867",
", 	c #696B6A",
"' 	c #676968",
") 	c #656666",
"! 	c #636464",
"~ 	c #606060",
"{ 	c #5E5F5F",
"] 	c #606161",
"^ 	c #585858",
"/ 	c #4A4A4A",
"( 	c #4A494D",
"_ 	c #4D4B50",
": 	c #4A435D",
"< 	c #484061",
"[ 	c #494162",
"} 	c #4A4262",
"| 	c #57575D",
"1 	c #5C5E5E",
"2 	c #5E605F",
"3 	c #5F5F5F",
"4 	c #5B5C5B",
"5 	c #5A5C5B",
"6 	c #565857",
"7 	c #494A4A",
"8 	c #494949",
"9 	c #505050",
"0 	c #555656",
"a 	c #595B5A",
"b 	c #585A59",
"c 	c #5B5D5E",
"d 	c #5A5B5D",
"e 	c #565759",
"f 	c #4B4B4B",
"g 	c #686969",
"h 	c #676868",
"i 	c #646565",
"j 	c #656565",
"k 	c #666666",
"l 	c #5E5E5F",
"m 	c #545455",
"n 	c #696A69",
"o 	c #696A6A",
"p 	c #6A6B6A",
"q 	c #676767",
"r 	c #656665",
"s 	c #646564",
"t 	c #616261",
"u 	c #494553",
"v 	c #3F3676",
"w 	c #3E3479",
"x 	c #3F3E8B",
"y 	c #3F4191",
"z 	c #3E367C",
"A 	c #524C6A",
"B 	c #626168",
"C 	c #686968",
"D 	c #656766",
"E 	c #646464",
"F 	c #616262",
"G 	c #606162",
"H 	c #5D5E5E",
"I 	c #545555",
"J 	c #545454",
"K 	c #5D5D5D",
"L 	c #5D5F5E",
"M 	c #5D5E5F",
"N 	c #5A5C5D",
"O 	c #575859",
"P 	c #5C5C5C",
"Q 	c #5B5B5C",
"R 	c #5B5B5D",
"S 	c #59595B",
"T 	c #575759",
"U 	c #5F5F60",
"V 	c #535059",
"W 	c #3F3A81",
"X 	c #473F6C",
"Y 	c #5F5E5F",
"Z 	c #5B5C5C",
"` 	c #5A5B5C",
" .	c #58595B",
"..	c #545557",
"+.	c #5E5E5D",
"@.	c #5C5E5D",
"#.	c #5C5D5F",
"$.	c #5B5C5E",
"%.	c #5B5D5D",
"&.	c #575857",
"*.	c #515151",
"=.	c #5B5B5B",
"-.	c #58585B",
";.	c #58585A",
">.	c #5A5A5B",
",.	c #484065",
"'.	c #3F4090",
").	c #3F3C89",
"!.	c #514B62",
"~.	c #595959",
"{.	c #5D5E60",
"].	c #5A5C5C",
"^.	c #575858",
"/.	c #5D5E5D",
"(.	c #5C5D5C",
"_.	c #626263",
":.	c #56535C",
"<.	c #3E3780",
"[.	c #3F3D87",
"}.	c #534D5A",
"|.	c #585A5B",
"1.	c #545656",
"2.	c #4F4F4F",
"3.	c #5C5F5E",
"4.	c #56575A",
"5.	c #636364",
"6.	c #4B4260",
"7.	c #3F408F",
"8.	c #453D6E",
"9.	c #535555",
"0.	c #606261",
"a.	c #5B5C5D",
"b.	c #57585A",
"c.	c #4E4F4F",
"d.	c #595A5B",
"e.	c #5C5D5D",
"f.	c #494065",
"g.	c #3F3C85",
"h.	c #534E5A",
"i.	c #5A5B5B",
"j.	c #535554",
"k.	c #575958",
"l.	c #606160",
"m.	c #4E4E4F",
"n.	c #595B5B",
"o.	c #5F6060",
"p.	c #56545A",
"q.	c #3E377E",
"r.	c #3F408E",
"s.	c #3E3478",
"t.	c #3D3173",
"u.	c #3E3B84",
"v.	c #3E3880",
"w.	c #3D3375",
"x.	c #3F3F8D",
"y.	c #3F3F8C",
"z.	c #4E4759",
"A.	c #5A5B5A",
"B.	c #595A5C",
"C.	c #555658",
"D.	c #5E5F60",
"E.	c #59595D",
"F.	c #54525A",
"G.	c #3D2E6C",
"H.	c #3D2C69",
"I.	c #3C2155",
"J.	c #3C255B",
"K.	c #3D3477",
"L.	c #3F4190",
"M.	c #4D4758",
"N.	c #525453",
"O.	c #565756",
"P.	c #4E4E4E",
"Q.	c #5A5B5E",
"R.	c #595A5D",
"S.	c #58595C",
"T.	c #5B5C5F",
"U.	c #564E64",
"V.	c #4C2372",
"W.	c #442264",
"X.	c #3E3375",
"Y.	c #3E3B85",
"Z.	c #515252",
"`.	c #565656",
" +	c #5F605F",
".+	c #4D4E4E",
"++	c #595B5C",
"@+	c #585A5A",
"#+	c #57595A",
"$+	c #535456",
"%+	c #575162",
"&+	c #4D2971",
"*+	c #45317D",
"=+	c #3C2156",
"-+	c #3F225B",
";+	c #3D2157",
">+	c #3D2A65",
",+	c #4E504F",
"'+	c #4D4D4E",
")+	c #595A5A",
"!+	c #5A5A5A",
"~+	c #525355",
"{+	c #58575D",
"]+	c #513F69",
"^+	c #442265",
"/+	c #432263",
"(+	c #4C2371",
"_+	c #462268",
":+	c #555555",
"<+	c #4C4C4C",
"[+	c #565758",
"}+	c #565757",
"|+	c #555756",
"1+	c #535556",
"2+	c #4F5053",
"3+	c #4E4F51",
"4+	c #58595A",
"5+	c #785C63",
"6+	c #874E78",
"7+	c #48236C",
"8+	c #492872",
"9+	c #46266B",
"0+	c #3C2359",
"a+	c #3E3679",
"b+	c #4D4856",
"c+	c #505151",
"d+	c #555655",
"e+	c #555757",
"f+	c #535455",
"g+	c #4A4A4B",
"h+	c #4F5050",
"i+	c #505251",
"j+	c #4F5150",
"k+	c #4F5151",
"l+	c #505152",
"m+	c #4E5051",
"n+	c #4C4D4F",
"o+	c #4E4F50",
"p+	c #505252",
"q+	c #555657",
"r+	c #6B545A",
"s+	c #D08F90",
"t+	c #E5B8AE",
"u+	c #833E72",
"v+	c #4B2873",
"w+	c #2E3C74",
"x+	c #36265B",
"y+	c #442356",
"z+	c #532758",
"A+	c #3E2954",
"B+	c #4D4E4D",
"C+	c #4B4C4C",
"D+	c #4A4B4A",
"E+	c #484848",
"F+	c #515251",
"G+	c #515352",
"H+	c #535454",
"I+	c #505153",
"J+	c #484949",
"K+	c #4C4C4E",
"L+	c #515253",
"M+	c #5C5C5F",
"N+	c #5C5C5E",
"O+	c #7A5660",
"P+	c #E5B2AA",
"Q+	c #F0A19C",
"R+	c #DE8288",
"S+	c #424577",
"T+	c #2E2966",
"U+	c #33215E",
"V+	c #3D285C",
"W+	c #7E4869",
"X+	c #BA5C72",
"Y+	c #6A4059",
"Z+	c #535353",
"`+	c #565859",
" @	c #49494B",
".@	c #6B6B6B",
"+@	c #626363",
"@@	c #5F6061",
"#@	c #5E5F61",
"$@	c #4F4F51",
"%@	c #5A5A5C",
"&@	c #5D5D5F",
"*@	c #5F5F61",
"=@	c #6F5960",
"-@	c #C9908F",
";@	c #E6888C",
">@	c #D58389",
",@	c #4C436D",
"'@	c #5E62A3",
")@	c #4E438F",
"!@	c #47447C",
"~@	c #515D9D",
"{@	c #484883",
"]@	c #3D2559",
"^@	c #483E73",
"/@	c #4E4767",
"(@	c #846F91",
"_@	c #DD8892",
":@	c #A4606B",
"<@	c #5C5E5F",
"[@	c #6A6A6A",
"}@	c #636363",
"|@	c #515153",
"1@	c #5E5E60",
"2@	c #6C5A60",
"3@	c #CA737D",
"4@	c #C17884",
"5@	c #666DA7",
"6@	c #595CB9",
"7@	c #6073B5",
"8@	c #7181BD",
"9@	c #7686BF",
"0@	c #6B7CBA",
"a@	c #4D5898",
"b@	c #6161BB",
"c@	c #6C76A7",
"d@	c #BB7D89",
"e@	c #B76773",
"f@	c #585958",
"g@	c #575757",
"h@	c #5D5F5F",
"i@	c #4F5052",
"j@	c #6D5E70",
"k@	c #976E97",
"l@	c #5D5CBB",
"m@	c #7B8AC2",
"n@	c #6173B6",
"o@	c #5569B0",
"p@	c #5468B0",
"q@	c #566AB1",
"r@	c #5F70B5",
"s@	c #6566BE",
"t@	c #676C7F",
"u@	c #6F5D65",
"v@	c #7D5660",
"w@	c #525352",
"x@	c #5C5D5E",
"y@	c #5B6389",
"z@	c #5C5965",
"A@	c #6A6AC0",
"B@	c #7585BF",
"C@	c #5A6DB2",
"D@	c #6E7FBB",
"E@	c #6465C0",
"F@	c #686D81",
"G@	c #545655",
"H@	c #505150",
"I@	c #5D5D5E",
"J@	c #6B7190",
"K@	c #6B6CC2",
"L@	c #7283BE",
"M@	c #6D7EBB",
"N@	c #686C81",
"O@	c #585959",
"P@	c #545554",
"Q@	c #717A9F",
"R@	c #6C6DC3",
"S@	c #7B8BC2",
"T@	c #5A6EB3",
"U@	c #6375B6",
"V@	c #6F80BC",
"W@	c #606581",
"X@	c #575C7B",
"Y@	c #666C86",
"Z@	c #6C6EC2",
"`@	c #7F8DC5",
" #	c #7081BC",
".#	c #5E71B4",
"+#	c #586CB2",
"@#	c #7484BE",
"##	c #6672BB",
"$#	c #6468B6",
"%#	c #3D3A72",
"&#	c #303064",
"*#	c #525C68",
"=#	c #6F6EB1",
"-#	c #7378C3",
";#	c #7481C0",
">#	c #7483BF",
",#	c #7281BE",
"'#	c #555CB6",
")#	c #5D5CBA",
"!#	c #785F97",
"~#	c #272463",
"{#	c #496595",
"]#	c #486A97",
"^#	c #545C67",
"/#	c #5D5857",
"(#	c #B92D3A",
"_#	c #9878A7",
":#	c #6C5EBE",
"<#	c #5F54C2",
"[#	c #6358C0",
"}#	c #917EB0",
"|#	c #A5668E",
"1#	c #9F2A4B",
"2#	c #4C6797",
"3#	c #426997",
"4#	c #3F6795",
"5#	c #7F8EC1",
"6#	c #5B5E62",
"7#	c #605B5A",
"8#	c #D67071",
"9#	c #C54148",
"0#	c #B83E55",
"a#	c #B7425C",
"b#	c #B7415A",
"c#	c #BE2634",
"d#	c #BE2633",
"e#	c #BA2A3A",
"f#	c #6A5A80",
"g#	c #4B6D9D",
"h#	c #7E8EC2",
"i#	c #808FC3",
"j#	c #595C61",
"k#	c #525353",
"l#	c #585A5C",
"m#	c #5A5857",
"n#	c #9D5360",
"o#	c #D57A7D",
"p#	c #D87072",
"q#	c #C1323C",
"r#	c #C33B43",
"s#	c #C7474D",
"t#	c #C02D38",
"u#	c #7E5760",
"v#	c #656C81",
"w#	c #646B7F",
"x#	c #575959",
"y#	c #5C5B5C",
"z#	c #732B47",
"A#	c #752847",
"B#	c #A65864",
"C#	c #B46266",
"D#	c #DD7677",
"E#	c #E27E7E",
"F#	c #E98989",
"G#	c #E07A7B",
"H#	c #995052",
"I#	c #685857",
"J#	c #4C4E4D",
"K#	c #4E4D4D",
"L#	c #C25E65",
"M#	c #D46567",
"N#	c #AF363D",
"O#	c #655757",
"P#	c #4D4F4E",
"Q#	c #565858",
"R#	c #545556",
"S#	c #484A49",
"T#	c #4B4B4C",
"U#	c #4B4C4B",
"V#	c #4A4B4B",
"W#	c #494A49",
"X#	c #494848",
"Y#	c #732A47",
"Z#	c #A1273D",
"`#	c #8B4A4C",
" $	c #474948",
".$	c #545657",
"+$	c #4D4E4F",
"@$	c #606061",
"#$	c #656564",
"$$	c #646566",
"%$	c #636465",
"&$	c #616264",
"*$	c #5F6062",
"=$	c #4F4F50",
"-$	c #4D4B4B",
";$	c #8A2843",
">$	c #BD2633",
",$	c #635252",
"'$	c #535453",
")$	c #515152",
"!$	c #525254",
"~$	c #626365",
"{$	c #646465",
"]$	c #5C5A5B",
"^$	c #702F47",
"/$	c #772847",
"($	c #7D2846",
"_$	c #9E273E",
":$	c #B12738",
"<$	c #645656",
"[$	c #6C6C6C",
"}$	c #696969",
"|$	c #535354",
"1$	c #626465",
"2$	c #626364",
"3$	c #616263",
"4$	c #606062",
"5$	c #5D5F60",
"6$	c #534C4E",
"7$	c #605357",
"8$	c #64575B",
"9$	c #6E4251",
"0$	c #71374C",
"a$	c #6B4A54",
"b$	c #5C5C5D",
"c$	c #4C4C4D",
"d$	c #575656",
"e$	c #505051",
"f$	c #4D4F4F",
"g$	c #505052",
"h$	c #4C4E4E",
"i$	c #575758",
"j$	c #4C4D4D",
"k$	c #4F5051",
"l$	c #515254",
"m$	c #4B4D4C",
"n$	c #4D4E50",
"o$	c #56585A",
"p$	c #595B59",
"q$	c #525454",
"r$	c #575957",
"s$	c #585859",
"t$	c #525253",
"u$	c #4B4D4D",
"v$	c #474848",
"w$	c #515353",
"x$	c #494A4B",
"y$	c #5C5D60",
"z$	c #5E605E",
"A$	c #59595A",
"B$	c #525354",
"C$	c #565657",
"D$	c #4F504F",
"E$	c #505253",
"F$	c #535557",
"G$	c #555759",
"H$	c #4A4C4C",
"I$	c #4B4C4D",
"J$	c #494B4B",
"K$	c #555758",
"L$	c #595B5D",
"M$	c #494B4A",
"N$	c #525356",
"O$	c #535457",
"P$	c #484948",
"Q$	c #616163",
"R$	c #555557",
"S$	c #545456",
"T$	c #4D4D4F",
"U$	c #535355",
"V$	c #555556",
"W$	c #686868",
"X$	c #565658",
"Y$	c #565558",
"Z$	c #535254",
"`$	c #57595B",
"  . + @ @ # # $ % & & * = - ; @ > , , ' ) ! ~ { { . ] ^ / ( _ : < [ } | 1 2 2 2 2 { 3 * 4 5 6 7 8 9 0 a b b b a 5       c d e f ",
"g h ) i # i i i j k k j l m n o o p o o g g q ) r s r t u v w x y y y z A B C > D ) j E F G H I J K H 2 L L H M L L L 1 1 N O - ",
"q ~ * * K K K P P P Q R S T U ~ ~ ~ ~ 3 3 3 3 * * K P V W y y y y y y y y X Y 3 * K K P Z `  ...; +.* @.@.@.M #.$.%.      5 &.*.",
"j 3 * * K P P P P P =.Q -.;.& 3 3 * * * * * * K K P >.,.'.y y y y y y y y ).!.K P P P P Z d  ...~.~ r . 2 L {.{.#.@.      ].^.= ",
"% 3 H /.K (.P P Z Z =.Q ;.;._.3 3 * L * * * H K K P :.<.y y y y y y y y y y [.}.P P P P Z d |.1.; q ! L L L {.#.#.@.    %.].O 2.",
"2 3.@.@.@.      5 5 5 ` 4.e 5.~ * L L L L 3.@.K K P 6.y y y y y y y y y y y 7.8.P P P =.=.5 b 9.6 + 0.@.L L #.#.#.      $.a.b.c.",
"L @.@.@.        5 5 a d.4.e F ~ * L L L L @.@.e.P >.f.y y y y y y y y y y y y g.h.P =.=.i.a b j.k.l.. @.@.@.#.#.c @.    $.d b.m.",
"@.  @.@.  %.a.Z ].` n.d.4.e G o.{ L L L H 1 %.Z 4 p.q.y 7.r.s.t.u.7.v.w.x.y y y.z.Z i.i.A.a b j.&.t ] @.@.@.#.$.$.].].Z d B.e m.",
"          $.$.d d d B.B.e C.D.. L @.@.@.#.#.$.d E.F.q.7.G.H.I.I.J.K.I.I.z L.y y.M.5 5 a a b k.N.O.% o.@.    $.$.$.d d d d d e P.",
"  5 5 5 5 N Q.R.R.S. . .e ..e.. @.@.@.  a.T.Q.U.V.W.q.X.I.I.I.I.I.I.I.I.I.Y.y y.M.5 5 b b k.6 Z.`.%  +    5 d $.$.d d B.d B.b..+",
"Z 4 5 a a n.++n.|.@+#+b.e $+%.L   @.@.5 5 N ].%+&+V.*+=+I.I.-+;+I.I.I.I.I.>+x.y.M.a b b b k.O.,+J & * 5 a a n.n.B.B.B.B. . .e '+",
")+!+a a a a a b b k.k.O C.~+`         5 5 5 a a {+]+V.^+I./+(+_+I.I.I.I.I.I.z y.M.a b k.6 :+= <+2.=.; a b @+b b b  . . . . .[+<+",
"*.`.}+6 6 6 6 6 |+|+|+1+2+3+4+a n.5 i.a a b a a b 5+6+V.7+8+9+;+I.I.I.I.I.I.0+a+b+6 |+j.c+*.9 / / Z.d+6 6 6 6 6 e+C.C.C.C.C.f+g+",
"2.h+c+i+j+k+k+l+k+k+j+m+n+n+o+p+9.1.1.q+1.0 q+e+r+s+t+u+v+w+x+I.I.I.I.I.I.y+z+A+c..+B+C+D+/ 8 E+/ 2.F+G+N.N.H+j.H+$+....~+I+o+J+",
"j ~ @.    a.d d d B.d R ;.K+L+;.M+#.#.#.#.#.#.N+O+P+Q+R+S+T+U+I.V+I.I.I.I.W+X+Y+Z+Z.2.f / / 8 E+f Z+0 |+6 6 `+O e e  . .e e ~+ @",
".@q +@0.. @@#@{.{.{.#.#.S $@%@&@*@#@{.#.#.#.#.#.=@-@;@>@,@'@)@!@~@{@]@^@/@(@_@:@!+!+~.:+*.9 - 8 9 ~ i 0.2 @.<@{.d $.$.d d d b.K+",
"[@}@l.. . #@#@{.{.{.#.&@%@|@l D.1@{.{.#.#.#.#.#.N+2@3@4@5@6@7@8@9@0@a@b@c@l d@e@=.=.!+)+f@g@:+P.Z+i ] h@h@M #.$.$.$.$.d d d b.i@",
"q t . . 2 #@#@{.{.{.#.M =.= H L L M {.#.#.#.$.$.$.d j@k@l@m@n@o@p@q@0@r@s@t@u@v@5 5 a b b k.|+j+J }@3 {.{.{.#.#.#.$.$.$.B.d b.3+",
"j ~ o.2 2 D.#@{.{.{.#.H =.w@L L @.x@#.#.#.#.$.$.$.d y@z@A@B@q@p@p@p@C@D@E@F@(.5 5 5 a b b |+G@H@Z+}@{ {.#.#.#.#.$.$.$.d d B.`+m+",
"% ~ ~ { 2 2 D.{.{.{.#.I@=.w@L L @.1 #.#.#.#.$.$.$.d e.J@K@L@p@p@p@p@p@M@E@N@4 5 5 n.n.@+O@I P@H@Z+}@l {.#.#.#.#.$.$.$.d d d b.l+",
"~ 3 ~ * * L L h@#.#.#.e.!+= /.@.@.@.@.@.      ].5 5 Z Q@R@S@T@p@p@p@U@V@E@W@X@5   n.B.S.;.:+J 9 Z+% l {.#.#.#.$.$.$.$.d d d O c+",
"3 * * * * L L @.#.#.#.e.!+F+/.@.@.@.        5 5 5 a A.Y@Z@`@ #.#+#U@@###$#%#&#*#5 n.S. .T J J 9 Z+& I@#.$.$.$.$.$.d d d B.B.4.9 ",
"K 3 * * * L L @.#.#.#.e.!+F+/.@.@.          ].5 5 a a d =#-#;#>#>#,#'#)#!#~#{#]#^#)+ .#+[+J J 9 Z+& I@#.$.$.$.$.$.d d d B.B.4.2.",
"K E { L @.#.#.#.#.#.$.%.b i+@.  5 5 5 5 d d d n.a a a /#(#_#:#<#<#[#}#|#1#2#3#4#5#6#k.6 j.Z+Z+9 = & x@$.$.$.$.$.d B.B.B.B. .[+h+",
"K E { @.1 $.#.#.$.$.d Z b j+    5 a a 5 ` R.d n.a a b 7#8#9#0#a#a#b#c#d#e#f#g#h#i#j#G@j.k#= Z+9 9 U a.d d d d d B.d B. . . .C.h+",
"P K @.    $.$.$.$.d d ].b ,+a 5 4 a a b a l#|.O@k.b b m#n#o#p#q#d#r#s#s#t#u#v#v#w#n.@+x#j.w@k#9 2.~ Z d d d d B.B. . . . . .C.h+",
"P y#      $.$.$.d d d 5 k.,+w@g@f@f@k.k.k.g@g@`.:+:+d+Z+z#A#B#C#D#E#F#G#H#I#a b b 4+b.b.f+Z.G+j+2.~ ` B.B.B.B.B.B. . . .b.b.C.,+",
"=.Z       a.$.$.d B.B.d.6 J#B+P.9 c+i+G+F+*.Z+J Z+*.j+K#z#A#A#L#M#d#d#N#O#b b b b k.e b...N.G+.+<+=.;  . . . . . . . .b.e e $+P#",
"P@}+Q#[+6 e e e e ....R#j+S#c.*.*.h+h+,+c.'+C+T#U#V#W#X#Y#A#A#Z#d#d#d#`#k.k.^.&.6 }+C.q+R#j.j+ $8 P.Z+..R#........C.C..$..$+3+V#",
"N.Z $.$.$.$.$.$.$.d d B.[++$@$E #$$$$$%$&$*$B.e ..f+=$-$Y#A#A#;$>$d#d#,$G@j.'$Z+= *.)$*.2.- 8 E+f = ^ P * I@x@$.d B. .b.b.e |@8 ",
"5 L {.{.{.{.{.#.{.#.#.#.%@!$~ }@}@%$~$~$~$~$&$&$~$$${$]$^$A#A#/$($_$:$<$k.k.^.^ g@g@g@`.J *.C+8 J [@[$.@}$q $$~$*$#@{.#.#.$.S =$",
"L L {.{.{.#.#.#.{.#.#.N+%@|$@$}@5.%$1$~$2$3$4$*$D.5$H !+6$7$8$9$0$0$a$U 2 . { * H K b$I@Q !+}+c$d$[@h +@3 o.D.M x@#.#.x@$.$. .m.",
"2 L {.{.{.{.{.#.#.#.$.a.!+= * 3 3 { { L H @.e.%.    a.%@e$Q b$K @.@.(.        5 5 ` B.B.B.;.e i@^ q l.L L L L L @.@.@./.$.$. .f$",
"L L {.{.#.#.#.#.$.$.$.Z !+*.* * * L L @.@.@.      5 a.%@g$Q P P (.        5 5 5 5 ` B. . . .e I+^ % 2 L L L @.@.@.L @.%.$.$. .h$",
"2 L M {.#.#.#.#.$.$.$.Z ~.9 * * * * L @.@.@.      ].a.S $@o.* P P         5 5 5 5 5 B. . . .e l+i$% { L L L @.@.@.%.  %.$.$. .h$",
"/.* @.@.@.%.%.%.$.$.d i.~.9 * * * H @.@.@.@.  %.$.d Q ~.9 2 L     $.$.a.  5 5 5 a a a a x#x#}+i+}+0.L L @.@.x@#.T.T.T.$.d d b.j$",
"K K @.  @.      a.d d >.~.P.* K * /.@.@.@.@.  ].d d ` ^.2.H {   %.$.$.N   5 5 a a a a b b k.|+i+|+2 @.L @.@.#.$.$.$.$.d d d  .c$",
"=.y#            d d d i.^ P.* * K K @.    Z   ].d B.d.g@2.b     a.d d d 5 b a a a a b b b 6 G@i+I 2 e.@.@.@.$.$.$.$.d d d B. .U#",
"!+=.=.=.=.5 5 5 5 5 a a k.P#@.L @.      a.d d d B. .@+6 j+k.5 a n.B.B.B.5 a b b b b k.k.x#C.$+k$= 3 e.$.$.$.#.$.$.$.d d B.d b.C+",
"^ !+=.=.=.5 5 a a 5 b b k.P#b @.  5 5 5 ` B.d B. . .@+6 P#k.5 a d.B.B.|.b k.b b b b k.k.Q#$+l$o+*.~ e.$.$.$.d $.d B.d B.B.B.#+j$",
"`.!+!+=.!+5 5 a a a b b 6 J#H@a   5 5 5 n.B.B.B. . .O j.m$|+f@O@O@4+4+x#6 G@j.j.j.j.O.6 Q#$+l$n$2.3 b$$.$.$.d d d d d B.B.B.o$j$",
"= ^ `.~.^ a a a a b f@&.Z+<+P.O.A.i.5 5 5 a b p$k.Q#N.<+- Z+Z+= = = k#= F+h+c.2.2.9 Z+d+0 q$p+P#.+=.i.$.d d d d B.B.B.B. . .o$C+",
"2.Z+J :+:+O.6 6 6 G@G+*.<+f - = g@O@b b b b k.r$|+G+m$8 / 2.*.9 9 9 9 9 9 2.2.2.2.2.2.2.*.w@i+C+<+:+)+B.B.B.B.B.B. . . . .b.C.7 ",
"O.^ s$O@^ b b k.^.|+i+.+f f 9 Z+J H+H+H+H+q$k#G+i+j+c.j$E+C+= Z+Z+k#k#k#t$t$k#J H+J Z+Z.F+j+u$7 - Z+0 q+C...C.C.C.....C.$+~+I+v$",
"@.5 d.` a.c $.a.d ` n.g@9 - ^.    %.N d d d B. .4+#+b.O l$w$b b O@4+ . . .4+4+4+4+4+4+O [+..n+x$%@l &@y$#.$.$.$.d d d B.B. .e J+",
"2 z$5${.#.#.$.#.#.d d A$J 2.5 @.].N d $.$.d d B.B.d B. .$+9.b b @+B.B.B.d B. . .B.B. . . .$...K+R N+N+$.#.$.$.$.d d d B.B.B.4.j$",
"2 2 #@#@{.{.{.#.$.#.$.>.g@9   @.  a.$.d d d d B.B.d  . .~+f+b b 4+ . .B.d B.B.B.B.B. . .d.#@b.o+&@N+N+$.$.$.$.$.d d B.B.B. .b.'+",
"3 3 {.{.{.{.{.{.#.#.B.a ^.i+Z @.5 ` d d d d d B.B.B. . .~+B$k.b b @+}+a a a n.B.B.B. . . .I@C$c.e.    $.$.$.$.$.d d d  .B.B.b.'+",
"* 3 {.{.{.#.#.{.#.#.d.@+Q#i+    5 ` d d B.B.B.B.B.B. . .~+B$Q#6 Q#6 j.b b a n.B.B.B. . .4+^.:+c.@.  %.$.$.$.$.$.d d d  .B. .e '+",
"3 * {.{.{.#.#.#.#.#.B.@+6 j+5   5 ` d d d B.B.B.B.B. .b.l$w$6 |+1.G+i+G@b a n.B.B.B. .b.O g@I D$@.  %.$.$.$.d d d B.B.B. . .e - ",
"{ L L H 1 x@#.#.$.#. .x#|+j+5 5 a ` d B.B.B.B.B. . .b.b.l$E$C.F$~+b.d.C.O@b @+ . . . .b.b.e 1+m+e.  a.d d d d d B.B. . . . .e j$",
"2 L L L @.#.#.#.$.$.#+^.|+j+5 5 a ` d B.B.B.B.B. . .e e I+I+C.$+b.B.B.|.k.b @+ . . . .b.e G$$+m+@.  Z d d d d d B.B. .b.b.b.C.u$",
"2 @.@.@.@.#.#.$.$.$.b.Q#G@,+a 5 a d.B.B. . . . . .b.e [+i@i@~+.. .B. .n.Q#b @+ .b.b.b.e e ..~+3+@.5 ].d B.B.B.B.B. . .e b.b.C.H$",
"2 @.      $.$.$.d d b.[+G@P#b 5 a d. . . . . . .b.b.T 0 m.I$n+I+b. .B.|.e 4+4+O@^.^.^.Q#e+:+k#2.P i.i.a a a n.@+@+x#k.x#e e ..J$",
"@.5       $.$.$.d d e }+j.m$6 b k.4+4+b.b.b.e e e e q+k#/ g+3+l$..e e C.C.C.K$|+0 G@G@9.'$= 9 - !+~.)+; b b b b k.k.k.].C...~+ $",
"@.    Z 5 a.d d L$L$e e+G+M$i+G+N.R#..$+$+$+$+~+~+l$|@- 8 I${.{.[+$+N$$+O$..R#G@H+k#j+,+D$2.<+/ - Z+g@6 6 |+|+|+|+|+|+q+[+C.C.h$",
"'$d+d+|+^.O@A$>.=.i.m D$C+P$D$^.4 Z d d d d $.d d d %@;.t$=$A$I@a.].n.n.>.>.>.d.d.}+H+'$'$|$=$T#=$% }@% F t t t t & t F Q$Q$&$d.",
"~.=.=.P Z =.!+=.=.=.~.g@= 8 ^ =.=.` d d d $.d d d B.%@S !$=$~.P (.  5 5 =.=.i.B.B.)+`.:+:+R$S$T$~.}$~ * K K K K K K K K N+N+R U$",
"=.K P P P P =.=.=.=.!+!+^ *.!+=.=.a.$.$.$.d d d d d d B.U$)$K P         =.!+>.d B.n.^ V$V$R$R$t$K [@3 K K K K K P P P P R R S !$",
"            Z 5 ` ` B. .;.L+O@5 4   %.].].].].].` ++%@%@S$|$@ L           4 5 ].n.d.T C.R$R$R$|$* [@3 K K K @.@.@.      Q =.!+= ",
"              5 ` d B. .b.L+O #   @.  5 5 5 5 5 5 a d.B.S$f+@ L @.        5 5 5 a )+ .C.C.R$R$!$* W$3 K K K @.@.@.      =.!+~.= ",
"        5 5 5 5 ++ . .b.b.I+x#0.    5 5 5 5 5 5 5 5 4+S S$I 0.L           5 5 5 a a S.e ..X$Y$Z$* W$3 K K K @.@.@.    5 P !+~.= ",
"a   5 5   ].` ` B.B. . .e i@s${ Z 5 5 5 5 5 5 5 ++n. . .$+q$@.          a.` ` ++n.d. .e C.X$X$|$* W$3 K K K (.(.(.    5 Q ` A$e$",
"a   5 5   N d d B.B. .b.e i@s$=.=.5 5 5 5 5 5 i.B.B.|.`$~+f+@.          $.d d B.B.d. .e C.X$X$|$* W$3 K K K P P P     5 d d S e$"};
